<svg width="1652" height="1019" xmlns="http://www.w3.org/2000/svg" xmlns:xlink="http://www.w3.org/1999/xlink" overflow="hidden"><defs><clipPath id="clip0"><rect x="2392" y="19103" width="1652" height="1019"/></clipPath><clipPath id="clip1"><rect x="2392" y="19103" width="1650" height="1016"/></clipPath><clipPath id="clip2"><rect x="2392" y="19103" width="1650" height="1016"/></clipPath><clipPath id="clip3"><rect x="2392" y="19103" width="1650" height="1016"/></clipPath><clipPath id="clip4"><rect x="2392" y="19103" width="1650" height="1016"/></clipPath><clipPath id="clip5"><rect x="2392" y="19103" width="1650" height="1016"/></clipPath><clipPath id="clip6"><rect x="2392" y="19103" width="1650" height="1016"/></clipPath><clipPath id="clip7"><rect x="2392" y="19103" width="1650" height="1016"/></clipPath><clipPath id="clip8"><rect x="2392" y="19103" width="1650" height="1016"/></clipPath><clipPath id="clip9"><rect x="2392" y="19103" width="1650" height="1016"/></clipPath><clipPath id="clip10"><rect x="2392" y="19103" width="1650" height="1016"/></clipPath><clipPath id="clip11"><rect x="2392" y="19103" width="1650" height="1016"/></clipPath><clipPath id="clip12"><rect x="2392" y="19103" width="1650" height="1016"/></clipPath><clipPath id="clip13"><rect x="2392" y="19103" width="1650" height="1016"/></clipPath><clipPath id="clip14"><rect x="2392" y="19103" width="1650" height="1016"/></clipPath><clipPath id="clip15"><rect x="2392" y="19103" width="1650" height="1016"/></clipPath><clipPath id="clip16"><rect x="2392" y="19103" width="1650" height="1016"/></clipPath><clipPath id="clip17"><rect x="2392" y="19103" width="1650" height="1016"/></clipPath><clipPath id="clip18"><rect x="2392" y="19103" width="1650" height="1016"/></clipPath><clipPath id="clip19"><rect x="2392" y="19103" width="1650" height="1016"/></clipPath><clipPath id="clip20"><rect x="2392" y="19103" width="1650" height="1016"/></clipPath><clipPath id="clip21"><rect x="2392" y="19103" width="1650" height="1016"/></clipPath><clipPath id="clip22"><rect x="2392" y="19103" width="1650" height="1016"/></clipPath></defs><g clip-path="url(#clip0)" transform="translate(-2392 -19103)"><rect x="2393" y="19104" width="1649" height="1016" fill="#FFFFFF"/><g clip-path="url(#clip1)"><path d="M2606.5 20069.5 3960.5 20069.5M2606.5 19842.2 3960.5 19842.2M2606.5 19728.1 3960.5 19728.1M2606.5 19615.1 3960.5 19615.1M2606.5 19501.1 3960.5 19501.1M2606.5 19387.1 3960.5 19387.1M2606.5 19273.5 3960.5 19273.5" stroke="#D9D9D9" stroke-width="3.4375" stroke-linejoin="round" stroke-miterlimit="10" fill="none"/></g><g clip-path="url(#clip2)"><path d="M2800.59 19273.5 2800.59 20069.5M2993.6 19273.5 2993.6 20069.5M3186.6 19273.5 3186.6 20069.5M3380.61 19273.5 3380.61 20069.5M3573.62 19273.5 3573.62 20069.5M3767.62 19273.5 3767.62 20069.5M3960.5 19273.5 3960.5 20069.5" stroke="#D9D9D9" stroke-width="3.4375" stroke-linejoin="round" stroke-miterlimit="10" fill="none"/></g><g clip-path="url(#clip3)"><path d="M0 0 0.000360892 796" stroke="#BFBFBF" stroke-width="3.4375" stroke-linejoin="round" stroke-miterlimit="10" fill="none" fill-rule="evenodd" transform="matrix(1 0 0 -1 2606.5 20069.5)"/></g><g clip-path="url(#clip4)"><path d="M2606.5 19955.5 3960.5 19955.5" stroke="#BFBFBF" stroke-width="3.4375" stroke-linejoin="round" stroke-miterlimit="10" fill="none" fill-rule="evenodd"/></g><g clip-path="url(#clip5)"><path d="M2618 19932.4C2618 19938.5 2613.07 19943.4 2607 19943.4 2600.92 19943.4 2596 19938.5 2596 19932.4 2596 19926.3 2600.92 19921.4 2607 19921.4 2613.07 19921.4 2618 19926.3 2618 19932.4Z" stroke="#4472C4" stroke-width="3.4375" stroke-linejoin="round" stroke-miterlimit="10" fill="#4472C4"/><path d="M2622 19715.4C2622 19721.5 2617.07 19726.4 2611 19726.4 2604.92 19726.4 2600 19721.5 2600 19715.4 2600 19709.3 2604.92 19704.4 2611 19704.4 2617.07 19704.4 2622 19709.3 2622 19715.4Z" stroke="#4472C4" stroke-width="3.4375" stroke-linejoin="round" stroke-miterlimit="10" fill="#4472C4"/><path d="M2626 19676.4C2626 19682.5 2621.07 19687.4 2615 19687.4 2608.92 19687.4 2604 19682.5 2604 19676.4 2604 19670.3 2608.92 19665.4 2615 19665.4 2621.07 19665.4 2626 19670.3 2626 19676.4Z" stroke="#4472C4" stroke-width="3.4375" stroke-linejoin="round" stroke-miterlimit="10" fill="#4472C4"/><path d="M2630 19558.4C2630 19564.5 2625.07 19569.4 2619 19569.4 2612.92 19569.4 2608 19564.5 2608 19558.4 2608 19552.3 2612.92 19547.4 2619 19547.4 2625.07 19547.4 2630 19552.3 2630 19558.4Z" stroke="#4472C4" stroke-width="3.4375" stroke-linejoin="round" stroke-miterlimit="10" fill="#4472C4"/><path d="M2634 19538.4C2634 19544.5 2629.07 19549.4 2623 19549.4 2616.92 19549.4 2612 19544.5 2612 19538.4 2612 19532.3 2616.92 19527.4 2623 19527.4 2629.07 19527.4 2634 19532.3 2634 19538.4Z" stroke="#4472C4" stroke-width="3.4375" stroke-linejoin="round" stroke-miterlimit="10" fill="#4472C4"/><path d="M2638 19520.4C2638 19526.5 2633.07 19531.4 2627 19531.4 2620.92 19531.4 2616 19526.5 2616 19520.4 2616 19514.3 2620.92 19509.4 2627 19509.4 2633.07 19509.4 2638 19514.3 2638 19520.4Z" stroke="#4472C4" stroke-width="3.4375" stroke-linejoin="round" stroke-miterlimit="10" fill="#4472C4"/><path d="M2642 19362.4C2642 19368.5 2637.07 19373.4 2631 19373.4 2624.92 19373.4 2620 19368.5 2620 19362.4 2620 19356.3 2624.92 19351.4 2631 19351.4 2637.07 19351.4 2642 19356.3 2642 19362.4Z" stroke="#4472C4" stroke-width="3.4375" stroke-linejoin="round" stroke-miterlimit="10" fill="#4472C4"/><path d="M2645 19576.4C2645 19582.5 2640.07 19587.4 2634 19587.4 2627.92 19587.4 2623 19582.5 2623 19576.4 2623 19570.3 2627.92 19565.4 2634 19565.4 2640.07 19565.4 2645 19570.3 2645 19576.4Z" stroke="#4472C4" stroke-width="3.4375" stroke-linejoin="round" stroke-miterlimit="10" fill="#4472C4"/><path d="M2649 19562.4C2649 19568.5 2644.07 19573.4 2638 19573.4 2631.92 19573.4 2627 19568.5 2627 19562.4 2627 19556.3 2631.92 19551.4 2638 19551.4 2644.07 19551.4 2649 19556.3 2649 19562.4Z" stroke="#4472C4" stroke-width="3.4375" stroke-linejoin="round" stroke-miterlimit="10" fill="#4472C4"/><path d="M2653 19379.4C2653 19385.5 2648.07 19390.4 2642 19390.4 2635.92 19390.4 2631 19385.5 2631 19379.4 2631 19373.3 2635.92 19368.4 2642 19368.4 2648.07 19368.4 2653 19373.3 2653 19379.4Z" stroke="#4472C4" stroke-width="3.4375" stroke-linejoin="round" stroke-miterlimit="10" fill="#4472C4"/><path d="M2657 19567.4C2657 19573.5 2652.07 19578.4 2646 19578.4 2639.92 19578.4 2635 19573.5 2635 19567.4 2635 19561.3 2639.92 19556.4 2646 19556.4 2652.07 19556.4 2657 19561.3 2657 19567.4Z" stroke="#4472C4" stroke-width="3.4375" stroke-linejoin="round" stroke-miterlimit="10" fill="#4472C4"/><path d="M2661 19568.4C2661 19574.5 2656.07 19579.4 2650 19579.4 2643.92 19579.4 2639 19574.5 2639 19568.4 2639 19562.3 2643.92 19557.4 2650 19557.4 2656.07 19557.4 2661 19562.3 2661 19568.4Z" stroke="#4472C4" stroke-width="3.4375" stroke-linejoin="round" stroke-miterlimit="10" fill="#4472C4"/><path d="M2665 19557.4C2665 19563.5 2660.07 19568.4 2654 19568.4 2647.92 19568.4 2643 19563.5 2643 19557.4 2643 19551.3 2647.92 19546.4 2654 19546.4 2660.07 19546.4 2665 19551.3 2665 19557.4Z" stroke="#4472C4" stroke-width="3.4375" stroke-linejoin="round" stroke-miterlimit="10" fill="#4472C4"/><path d="M2669 19529.4C2669 19535.5 2664.07 19540.4 2658 19540.4 2651.92 19540.4 2647 19535.5 2647 19529.4 2647 19523.3 2651.92 19518.4 2658 19518.4 2664.07 19518.4 2669 19523.3 2669 19529.4Z" stroke="#4472C4" stroke-width="3.4375" stroke-linejoin="round" stroke-miterlimit="10" fill="#4472C4"/><path d="M2673 19537.4C2673 19543.5 2668.07 19548.4 2662 19548.4 2655.92 19548.4 2651 19543.5 2651 19537.4 2651 19531.3 2655.92 19526.4 2662 19526.4 2668.07 19526.4 2673 19531.3 2673 19537.4Z" stroke="#4472C4" stroke-width="3.4375" stroke-linejoin="round" stroke-miterlimit="10" fill="#4472C4"/><path d="M2676 19479.4C2676 19485.5 2671.07 19490.4 2665 19490.4 2658.92 19490.4 2654 19485.5 2654 19479.4 2654 19473.3 2658.92 19468.4 2665 19468.4 2671.07 19468.4 2676 19473.3 2676 19479.4Z" stroke="#4472C4" stroke-width="3.4375" stroke-linejoin="round" stroke-miterlimit="10" fill="#4472C4"/><path d="M2680 19480.4C2680 19486.5 2675.07 19491.4 2669 19491.4 2662.92 19491.4 2658 19486.5 2658 19480.4 2658 19474.3 2662.92 19469.4 2669 19469.4 2675.07 19469.4 2680 19474.3 2680 19480.4Z" stroke="#4472C4" stroke-width="3.4375" stroke-linejoin="round" stroke-miterlimit="10" fill="#4472C4"/><path d="M2684 19459.4C2684 19465.5 2679.07 19470.4 2673 19470.4 2666.92 19470.4 2662 19465.5 2662 19459.4 2662 19453.3 2666.92 19448.4 2673 19448.4 2679.07 19448.4 2684 19453.3 2684 19459.4Z" stroke="#4472C4" stroke-width="3.4375" stroke-linejoin="round" stroke-miterlimit="10" fill="#4472C4"/><path d="M2688 19529.4C2688 19535.5 2683.07 19540.4 2677 19540.4 2670.92 19540.4 2666 19535.5 2666 19529.4 2666 19523.3 2670.92 19518.4 2677 19518.4 2683.07 19518.4 2688 19523.3 2688 19529.4Z" stroke="#4472C4" stroke-width="3.4375" stroke-linejoin="round" stroke-miterlimit="10" fill="#4472C4"/><path d="M2692 19480.4C2692 19486.5 2687.07 19491.4 2681 19491.4 2674.92 19491.4 2670 19486.5 2670 19480.4 2670 19474.3 2674.92 19469.4 2681 19469.4 2687.07 19469.4 2692 19474.3 2692 19480.4Z" stroke="#4472C4" stroke-width="3.4375" stroke-linejoin="round" stroke-miterlimit="10" fill="#4472C4"/><path d="M2696 19478.4C2696 19484.5 2691.07 19489.4 2685 19489.4 2678.92 19489.4 2674 19484.5 2674 19478.4 2674 19472.3 2678.92 19467.4 2685 19467.4 2691.07 19467.4 2696 19472.3 2696 19478.4Z" stroke="#4472C4" stroke-width="3.4375" stroke-linejoin="round" stroke-miterlimit="10" fill="#4472C4"/><path d="M2700 19736.4C2700 19742.5 2695.07 19747.4 2689 19747.4 2682.92 19747.4 2678 19742.5 2678 19736.4 2678 19730.3 2682.92 19725.4 2689 19725.4 2695.07 19725.4 2700 19730.3 2700 19736.4Z" stroke="#4472C4" stroke-width="3.4375" stroke-linejoin="round" stroke-miterlimit="10" fill="#4472C4"/><path d="M2703 19534.4C2703 19540.5 2698.07 19545.4 2692 19545.4 2685.92 19545.4 2681 19540.5 2681 19534.4 2681 19528.3 2685.92 19523.4 2692 19523.4 2698.07 19523.4 2703 19528.3 2703 19534.4Z" stroke="#4472C4" stroke-width="3.4375" stroke-linejoin="round" stroke-miterlimit="10" fill="#4472C4"/><path d="M2707 19480.4C2707 19486.5 2702.07 19491.4 2696 19491.4 2689.92 19491.4 2685 19486.5 2685 19480.4 2685 19474.3 2689.92 19469.4 2696 19469.4 2702.07 19469.4 2707 19474.3 2707 19480.4Z" stroke="#4472C4" stroke-width="3.4375" stroke-linejoin="round" stroke-miterlimit="10" fill="#4472C4"/><path d="M2711 19732.4C2711 19738.5 2706.07 19743.4 2700 19743.4 2693.92 19743.4 2689 19738.5 2689 19732.4 2689 19726.3 2693.92 19721.4 2700 19721.4 2706.07 19721.4 2711 19726.3 2711 19732.4Z" stroke="#4472C4" stroke-width="3.4375" stroke-linejoin="round" stroke-miterlimit="10" fill="#4472C4"/><path d="M2715 19954.4C2715 19960.5 2710.07 19965.4 2704 19965.4 2697.92 19965.4 2693 19960.5 2693 19954.4 2693 19948.3 2697.92 19943.4 2704 19943.4 2710.07 19943.4 2715 19948.3 2715 19954.4Z" stroke="#4472C4" stroke-width="3.4375" stroke-linejoin="round" stroke-miterlimit="10" fill="#4472C4"/><path d="M2719 19954.4C2719 19960.5 2714.07 19965.4 2708 19965.4 2701.92 19965.4 2697 19960.5 2697 19954.4 2697 19948.3 2701.92 19943.4 2708 19943.4 2714.07 19943.4 2719 19948.3 2719 19954.4Z" stroke="#4472C4" stroke-width="3.4375" stroke-linejoin="round" stroke-miterlimit="10" fill="#4472C4"/><path d="M2723 19954.4C2723 19960.5 2718.07 19965.4 2712 19965.4 2705.92 19965.4 2701 19960.5 2701 19954.4 2701 19948.3 2705.92 19943.4 2712 19943.4 2718.07 19943.4 2723 19948.3 2723 19954.4Z" stroke="#4472C4" stroke-width="3.4375" stroke-linejoin="round" stroke-miterlimit="10" fill="#4472C4"/><path d="M2727 19953.4C2727 19959.5 2722.07 19964.4 2716 19964.4 2709.92 19964.4 2705 19959.5 2705 19953.4 2705 19947.3 2709.92 19942.4 2716 19942.4 2722.07 19942.4 2727 19947.3 2727 19953.4Z" stroke="#4472C4" stroke-width="3.4375" stroke-linejoin="round" stroke-miterlimit="10" fill="#4472C4"/><path d="M2731 19953.4C2731 19959.5 2726.07 19964.4 2720 19964.4 2713.92 19964.4 2709 19959.5 2709 19953.4 2709 19947.3 2713.92 19942.4 2720 19942.4 2726.07 19942.4 2731 19947.3 2731 19953.4Z" stroke="#4472C4" stroke-width="3.4375" stroke-linejoin="round" stroke-miterlimit="10" fill="#4472C4"/><path d="M2734 19953.4C2734 19959.5 2729.07 19964.4 2723 19964.4 2716.92 19964.4 2712 19959.5 2712 19953.4 2712 19947.3 2716.92 19942.4 2723 19942.4 2729.07 19942.4 2734 19947.3 2734 19953.4Z" stroke="#4472C4" stroke-width="3.4375" stroke-linejoin="round" stroke-miterlimit="10" fill="#4472C4"/><path d="M2738 19953.4C2738 19959.5 2733.07 19964.4 2727 19964.4 2720.92 19964.4 2716 19959.5 2716 19953.4 2716 19947.3 2720.92 19942.4 2727 19942.4 2733.07 19942.4 2738 19947.3 2738 19953.4Z" stroke="#4472C4" stroke-width="3.4375" stroke-linejoin="round" stroke-miterlimit="10" fill="#4472C4"/><path d="M2742 19953.4C2742 19959.5 2737.07 19964.4 2731 19964.4 2724.92 19964.4 2720 19959.5 2720 19953.4 2720 19947.3 2724.92 19942.4 2731 19942.4 2737.07 19942.4 2742 19947.3 2742 19953.4Z" stroke="#4472C4" stroke-width="3.4375" stroke-linejoin="round" stroke-miterlimit="10" fill="#4472C4"/><path d="M2746 19953.4C2746 19959.5 2741.07 19964.4 2735 19964.4 2728.92 19964.4 2724 19959.5 2724 19953.4 2724 19947.3 2728.92 19942.4 2735 19942.4 2741.07 19942.4 2746 19947.3 2746 19953.4Z" stroke="#4472C4" stroke-width="3.4375" stroke-linejoin="round" stroke-miterlimit="10" fill="#4472C4"/><path d="M2750 19953.4C2750 19959.5 2745.07 19964.4 2739 19964.4 2732.92 19964.4 2728 19959.5 2728 19953.4 2728 19947.3 2732.92 19942.4 2739 19942.4 2745.07 19942.4 2750 19947.3 2750 19953.4Z" stroke="#4472C4" stroke-width="3.4375" stroke-linejoin="round" stroke-miterlimit="10" fill="#4472C4"/><path d="M2754 19953.4C2754 19959.5 2749.07 19964.4 2743 19964.4 2736.92 19964.4 2732 19959.5 2732 19953.4 2732 19947.3 2736.92 19942.4 2743 19942.4 2749.07 19942.4 2754 19947.3 2754 19953.4Z" stroke="#4472C4" stroke-width="3.4375" stroke-linejoin="round" stroke-miterlimit="10" fill="#4472C4"/><path d="M2758 19953.4C2758 19959.5 2753.07 19964.4 2747 19964.4 2740.92 19964.4 2736 19959.5 2736 19953.4 2736 19947.3 2740.92 19942.4 2747 19942.4 2753.07 19942.4 2758 19947.3 2758 19953.4Z" stroke="#4472C4" stroke-width="3.4375" stroke-linejoin="round" stroke-miterlimit="10" fill="#4472C4"/><path d="M2761 19953.4C2761 19959.5 2756.07 19964.4 2750 19964.4 2743.92 19964.4 2739 19959.5 2739 19953.4 2739 19947.3 2743.92 19942.4 2750 19942.4 2756.07 19942.4 2761 19947.3 2761 19953.4Z" stroke="#4472C4" stroke-width="3.4375" stroke-linejoin="round" stroke-miterlimit="10" fill="#4472C4"/><path d="M2765 19953.4C2765 19959.5 2760.07 19964.4 2754 19964.4 2747.92 19964.4 2743 19959.5 2743 19953.4 2743 19947.3 2747.92 19942.4 2754 19942.4 2760.07 19942.4 2765 19947.3 2765 19953.4Z" stroke="#4472C4" stroke-width="3.4375" stroke-linejoin="round" stroke-miterlimit="10" fill="#4472C4"/><path d="M2769 19953.4C2769 19959.5 2764.07 19964.4 2758 19964.4 2751.92 19964.4 2747 19959.5 2747 19953.4 2747 19947.3 2751.92 19942.4 2758 19942.4 2764.07 19942.4 2769 19947.3 2769 19953.4Z" stroke="#4472C4" stroke-width="3.4375" stroke-linejoin="round" stroke-miterlimit="10" fill="#4472C4"/><path d="M2773 19953.4C2773 19959.5 2768.07 19964.4 2762 19964.4 2755.92 19964.4 2751 19959.5 2751 19953.4 2751 19947.3 2755.92 19942.4 2762 19942.4 2768.07 19942.4 2773 19947.3 2773 19953.4Z" stroke="#4472C4" stroke-width="3.4375" stroke-linejoin="round" stroke-miterlimit="10" fill="#4472C4"/><path d="M2777 19953.4C2777 19959.5 2772.07 19964.4 2766 19964.4 2759.92 19964.4 2755 19959.5 2755 19953.4 2755 19947.3 2759.92 19942.4 2766 19942.4 2772.07 19942.4 2777 19947.3 2777 19953.4Z" stroke="#4472C4" stroke-width="3.4375" stroke-linejoin="round" stroke-miterlimit="10" fill="#4472C4"/><path d="M2781 19953.4C2781 19959.5 2776.07 19964.4 2770 19964.4 2763.92 19964.4 2759 19959.5 2759 19953.4 2759 19947.3 2763.92 19942.4 2770 19942.4 2776.07 19942.4 2781 19947.3 2781 19953.4Z" stroke="#4472C4" stroke-width="3.4375" stroke-linejoin="round" stroke-miterlimit="10" fill="#4472C4"/><path d="M2785 19953.4C2785 19959.5 2780.07 19964.4 2774 19964.4 2767.92 19964.4 2763 19959.5 2763 19953.4 2763 19947.3 2767.92 19942.4 2774 19942.4 2780.07 19942.4 2785 19947.3 2785 19953.4Z" stroke="#4472C4" stroke-width="3.4375" stroke-linejoin="round" stroke-miterlimit="10" fill="#4472C4"/><path d="M2789 19952.4C2789 19958.5 2784.07 19963.4 2778 19963.4 2771.92 19963.4 2767 19958.5 2767 19952.4 2767 19946.3 2771.92 19941.4 2778 19941.4 2784.07 19941.4 2789 19946.3 2789 19952.4Z" stroke="#4472C4" stroke-width="3.4375" stroke-linejoin="round" stroke-miterlimit="10" fill="#4472C4"/><path d="M2792 19952.4C2792 19958.5 2787.07 19963.4 2781 19963.4 2774.92 19963.4 2770 19958.5 2770 19952.4 2770 19946.3 2774.92 19941.4 2781 19941.4 2787.07 19941.4 2792 19946.3 2792 19952.4Z" stroke="#4472C4" stroke-width="3.4375" stroke-linejoin="round" stroke-miterlimit="10" fill="#4472C4"/><path d="M2796 19952.4C2796 19958.5 2791.07 19963.4 2785 19963.4 2778.92 19963.4 2774 19958.5 2774 19952.4 2774 19946.3 2778.92 19941.4 2785 19941.4 2791.07 19941.4 2796 19946.3 2796 19952.4Z" stroke="#4472C4" stroke-width="3.4375" stroke-linejoin="round" stroke-miterlimit="10" fill="#4472C4"/><path d="M2800 19952.4C2800 19958.5 2795.07 19963.4 2789 19963.4 2782.92 19963.4 2778 19958.5 2778 19952.4 2778 19946.3 2782.92 19941.4 2789 19941.4 2795.07 19941.4 2800 19946.3 2800 19952.4Z" stroke="#4472C4" stroke-width="3.4375" stroke-linejoin="round" stroke-miterlimit="10" fill="#4472C4"/><path d="M2804 19952.4C2804 19958.5 2799.07 19963.4 2793 19963.4 2786.92 19963.4 2782 19958.5 2782 19952.4 2782 19946.3 2786.92 19941.4 2793 19941.4 2799.07 19941.4 2804 19946.3 2804 19952.4Z" stroke="#4472C4" stroke-width="3.4375" stroke-linejoin="round" stroke-miterlimit="10" fill="#4472C4"/><path d="M2808 19952.4C2808 19958.5 2803.07 19963.4 2797 19963.4 2790.92 19963.4 2786 19958.5 2786 19952.4 2786 19946.3 2790.92 19941.4 2797 19941.4 2803.07 19941.4 2808 19946.3 2808 19952.4Z" stroke="#4472C4" stroke-width="3.4375" stroke-linejoin="round" stroke-miterlimit="10" fill="#4472C4"/><path d="M2812 19772.4C2812 19778.5 2807.07 19783.4 2801 19783.4 2794.92 19783.4 2790 19778.5 2790 19772.4 2790 19766.3 2794.92 19761.4 2801 19761.4 2807.07 19761.4 2812 19766.3 2812 19772.4Z" stroke="#4472C4" stroke-width="3.4375" stroke-linejoin="round" stroke-miterlimit="10" fill="#4472C4"/><path d="M2816 19767.4C2816 19773.5 2811.07 19778.4 2805 19778.4 2798.92 19778.4 2794 19773.5 2794 19767.4 2794 19761.3 2798.92 19756.4 2805 19756.4 2811.07 19756.4 2816 19761.3 2816 19767.4Z" stroke="#4472C4" stroke-width="3.4375" stroke-linejoin="round" stroke-miterlimit="10" fill="#4472C4"/><path d="M2820 19776.4C2820 19782.5 2815.07 19787.4 2809 19787.4 2802.92 19787.4 2798 19782.5 2798 19776.4 2798 19770.3 2802.92 19765.4 2809 19765.4 2815.07 19765.4 2820 19770.3 2820 19776.4Z" stroke="#4472C4" stroke-width="3.4375" stroke-linejoin="round" stroke-miterlimit="10" fill="#4472C4"/><path d="M2823 19788.4C2823 19794.5 2818.07 19799.4 2812 19799.4 2805.92 19799.4 2801 19794.5 2801 19788.4 2801 19782.3 2805.92 19777.4 2812 19777.4 2818.07 19777.4 2823 19782.3 2823 19788.4Z" stroke="#4472C4" stroke-width="3.4375" stroke-linejoin="round" stroke-miterlimit="10" fill="#4472C4"/><path d="M2827 19788.4C2827 19794.5 2822.07 19799.4 2816 19799.4 2809.92 19799.4 2805 19794.5 2805 19788.4 2805 19782.3 2809.92 19777.4 2816 19777.4 2822.07 19777.4 2827 19782.3 2827 19788.4Z" stroke="#4472C4" stroke-width="3.4375" stroke-linejoin="round" stroke-miterlimit="10" fill="#4472C4"/><path d="M2831 19740.4C2831 19746.5 2826.07 19751.4 2820 19751.4 2813.92 19751.4 2809 19746.5 2809 19740.4 2809 19734.3 2813.92 19729.4 2820 19729.4 2826.07 19729.4 2831 19734.3 2831 19740.4Z" stroke="#4472C4" stroke-width="3.4375" stroke-linejoin="round" stroke-miterlimit="10" fill="#4472C4"/><path d="M2835 19724.4C2835 19730.5 2830.07 19735.4 2824 19735.4 2817.92 19735.4 2813 19730.5 2813 19724.4 2813 19718.3 2817.92 19713.4 2824 19713.4 2830.07 19713.4 2835 19718.3 2835 19724.4Z" stroke="#4472C4" stroke-width="3.4375" stroke-linejoin="round" stroke-miterlimit="10" fill="#4472C4"/><path d="M2839 19763.4C2839 19769.5 2834.07 19774.4 2828 19774.4 2821.92 19774.4 2817 19769.5 2817 19763.4 2817 19757.3 2821.92 19752.4 2828 19752.4 2834.07 19752.4 2839 19757.3 2839 19763.4Z" stroke="#4472C4" stroke-width="3.4375" stroke-linejoin="round" stroke-miterlimit="10" fill="#4472C4"/><path d="M2843 19752.4C2843 19758.5 2838.07 19763.4 2832 19763.4 2825.92 19763.4 2821 19758.5 2821 19752.4 2821 19746.3 2825.92 19741.4 2832 19741.4 2838.07 19741.4 2843 19746.3 2843 19752.4Z" stroke="#4472C4" stroke-width="3.4375" stroke-linejoin="round" stroke-miterlimit="10" fill="#4472C4"/><path d="M2847 19728.4C2847 19734.5 2842.07 19739.4 2836 19739.4 2829.92 19739.4 2825 19734.5 2825 19728.4 2825 19722.3 2829.92 19717.4 2836 19717.4 2842.07 19717.4 2847 19722.3 2847 19728.4Z" stroke="#4472C4" stroke-width="3.4375" stroke-linejoin="round" stroke-miterlimit="10" fill="#4472C4"/><path d="M2850 19725.4C2850 19731.5 2845.07 19736.4 2839 19736.4 2832.92 19736.4 2828 19731.5 2828 19725.4 2828 19719.3 2832.92 19714.4 2839 19714.4 2845.07 19714.4 2850 19719.3 2850 19725.4Z" stroke="#4472C4" stroke-width="3.4375" stroke-linejoin="round" stroke-miterlimit="10" fill="#4472C4"/><path d="M2854 19699.4C2854 19705.5 2849.07 19710.4 2843 19710.4 2836.92 19710.4 2832 19705.5 2832 19699.4 2832 19693.3 2836.92 19688.4 2843 19688.4 2849.07 19688.4 2854 19693.3 2854 19699.4Z" stroke="#4472C4" stroke-width="3.4375" stroke-linejoin="round" stroke-miterlimit="10" fill="#4472C4"/><path d="M2858 19670.4C2858 19676.5 2853.07 19681.4 2847 19681.4 2840.92 19681.4 2836 19676.5 2836 19670.4 2836 19664.3 2840.92 19659.4 2847 19659.4 2853.07 19659.4 2858 19664.3 2858 19670.4Z" stroke="#4472C4" stroke-width="3.4375" stroke-linejoin="round" stroke-miterlimit="10" fill="#4472C4"/><path d="M2862 19721.4C2862 19727.5 2857.07 19732.4 2851 19732.4 2844.92 19732.4 2840 19727.5 2840 19721.4 2840 19715.3 2844.92 19710.4 2851 19710.4 2857.07 19710.4 2862 19715.3 2862 19721.4Z" stroke="#4472C4" stroke-width="3.4375" stroke-linejoin="round" stroke-miterlimit="10" fill="#4472C4"/><path d="M2866 19699.4C2866 19705.5 2861.07 19710.4 2855 19710.4 2848.92 19710.4 2844 19705.5 2844 19699.4 2844 19693.3 2848.92 19688.4 2855 19688.4 2861.07 19688.4 2866 19693.3 2866 19699.4Z" stroke="#4472C4" stroke-width="3.4375" stroke-linejoin="round" stroke-miterlimit="10" fill="#4472C4"/><path d="M2870 19699.4C2870 19705.5 2865.07 19710.4 2859 19710.4 2852.92 19710.4 2848 19705.5 2848 19699.4 2848 19693.3 2852.92 19688.4 2859 19688.4 2865.07 19688.4 2870 19693.3 2870 19699.4Z" stroke="#4472C4" stroke-width="3.4375" stroke-linejoin="round" stroke-miterlimit="10" fill="#4472C4"/><path d="M2874 19671.4C2874 19677.5 2869.07 19682.4 2863 19682.4 2856.92 19682.4 2852 19677.5 2852 19671.4 2852 19665.3 2856.92 19660.4 2863 19660.4 2869.07 19660.4 2874 19665.3 2874 19671.4Z" stroke="#4472C4" stroke-width="3.4375" stroke-linejoin="round" stroke-miterlimit="10" fill="#4472C4"/><path d="M2878 19692.4C2878 19698.5 2873.07 19703.4 2867 19703.4 2860.92 19703.4 2856 19698.5 2856 19692.4 2856 19686.3 2860.92 19681.4 2867 19681.4 2873.07 19681.4 2878 19686.3 2878 19692.4Z" stroke="#4472C4" stroke-width="3.4375" stroke-linejoin="round" stroke-miterlimit="10" fill="#4472C4"/><path d="M2881 19654.4C2881 19660.5 2876.07 19665.4 2870 19665.4 2863.92 19665.4 2859 19660.5 2859 19654.4 2859 19648.3 2863.92 19643.4 2870 19643.4 2876.07 19643.4 2881 19648.3 2881 19654.4Z" stroke="#4472C4" stroke-width="3.4375" stroke-linejoin="round" stroke-miterlimit="10" fill="#4472C4"/><path d="M2885 19684.4C2885 19690.5 2880.07 19695.4 2874 19695.4 2867.92 19695.4 2863 19690.5 2863 19684.4 2863 19678.3 2867.92 19673.4 2874 19673.4 2880.07 19673.4 2885 19678.3 2885 19684.4Z" stroke="#4472C4" stroke-width="3.4375" stroke-linejoin="round" stroke-miterlimit="10" fill="#4472C4"/><path d="M2889 19667.4C2889 19673.5 2884.07 19678.4 2878 19678.4 2871.92 19678.4 2867 19673.5 2867 19667.4 2867 19661.3 2871.92 19656.4 2878 19656.4 2884.07 19656.4 2889 19661.3 2889 19667.4Z" stroke="#4472C4" stroke-width="3.4375" stroke-linejoin="round" stroke-miterlimit="10" fill="#4472C4"/><path d="M2893 19666.4C2893 19672.5 2888.07 19677.4 2882 19677.4 2875.92 19677.4 2871 19672.5 2871 19666.4 2871 19660.3 2875.92 19655.4 2882 19655.4 2888.07 19655.4 2893 19660.3 2893 19666.4Z" stroke="#4472C4" stroke-width="3.4375" stroke-linejoin="round" stroke-miterlimit="10" fill="#4472C4"/><path d="M2897 19671.4C2897 19677.5 2892.07 19682.4 2886 19682.4 2879.92 19682.4 2875 19677.5 2875 19671.4 2875 19665.3 2879.92 19660.4 2886 19660.4 2892.07 19660.4 2897 19665.3 2897 19671.4Z" stroke="#4472C4" stroke-width="3.4375" stroke-linejoin="round" stroke-miterlimit="10" fill="#4472C4"/><path d="M2901 19672.4C2901 19678.5 2896.07 19683.4 2890 19683.4 2883.92 19683.4 2879 19678.5 2879 19672.4 2879 19666.3 2883.92 19661.4 2890 19661.4 2896.07 19661.4 2901 19666.3 2901 19672.4Z" stroke="#4472C4" stroke-width="3.4375" stroke-linejoin="round" stroke-miterlimit="10" fill="#4472C4"/><path d="M2905 19665.4C2905 19671.5 2900.07 19676.4 2894 19676.4 2887.92 19676.4 2883 19671.5 2883 19665.4 2883 19659.3 2887.92 19654.4 2894 19654.4 2900.07 19654.4 2905 19659.3 2905 19665.4Z" stroke="#4472C4" stroke-width="3.4375" stroke-linejoin="round" stroke-miterlimit="10" fill="#4472C4"/><path d="M2908 19953.4C2908 19959.5 2903.07 19964.4 2897 19964.4 2890.92 19964.4 2886 19959.5 2886 19953.4 2886 19947.3 2890.92 19942.4 2897 19942.4 2903.07 19942.4 2908 19947.3 2908 19953.4Z" stroke="#4472C4" stroke-width="3.4375" stroke-linejoin="round" stroke-miterlimit="10" fill="#4472C4"/><path d="M2912 19953.4C2912 19959.5 2907.07 19964.4 2901 19964.4 2894.92 19964.4 2890 19959.5 2890 19953.4 2890 19947.3 2894.92 19942.4 2901 19942.4 2907.07 19942.4 2912 19947.3 2912 19953.4Z" stroke="#4472C4" stroke-width="3.4375" stroke-linejoin="round" stroke-miterlimit="10" fill="#4472C4"/><path d="M2916 19953.4C2916 19959.5 2911.07 19964.4 2905 19964.4 2898.92 19964.4 2894 19959.5 2894 19953.4 2894 19947.3 2898.92 19942.4 2905 19942.4 2911.07 19942.4 2916 19947.3 2916 19953.4Z" stroke="#4472C4" stroke-width="3.4375" stroke-linejoin="round" stroke-miterlimit="10" fill="#4472C4"/><path d="M2920 19953.4C2920 19959.5 2915.07 19964.4 2909 19964.4 2902.92 19964.4 2898 19959.5 2898 19953.4 2898 19947.3 2902.92 19942.4 2909 19942.4 2915.07 19942.4 2920 19947.3 2920 19953.4Z" stroke="#4472C4" stroke-width="3.4375" stroke-linejoin="round" stroke-miterlimit="10" fill="#4472C4"/><path d="M2924 19953.4C2924 19959.5 2919.07 19964.4 2913 19964.4 2906.92 19964.4 2902 19959.5 2902 19953.4 2902 19947.3 2906.92 19942.4 2913 19942.4 2919.07 19942.4 2924 19947.3 2924 19953.4Z" stroke="#4472C4" stroke-width="3.4375" stroke-linejoin="round" stroke-miterlimit="10" fill="#4472C4"/><path d="M2928 19953.4C2928 19959.5 2923.07 19964.4 2917 19964.4 2910.92 19964.4 2906 19959.5 2906 19953.4 2906 19947.3 2910.92 19942.4 2917 19942.4 2923.07 19942.4 2928 19947.3 2928 19953.4Z" stroke="#4472C4" stroke-width="3.4375" stroke-linejoin="round" stroke-miterlimit="10" fill="#4472C4"/><path d="M2932 19953.4C2932 19959.5 2927.07 19964.4 2921 19964.4 2914.92 19964.4 2910 19959.5 2910 19953.4 2910 19947.3 2914.92 19942.4 2921 19942.4 2927.07 19942.4 2932 19947.3 2932 19953.4Z" stroke="#4472C4" stroke-width="3.4375" stroke-linejoin="round" stroke-miterlimit="10" fill="#4472C4"/><path d="M2936 19953.4C2936 19959.5 2931.07 19964.4 2925 19964.4 2918.92 19964.4 2914 19959.5 2914 19953.4 2914 19947.3 2918.92 19942.4 2925 19942.4 2931.07 19942.4 2936 19947.3 2936 19953.4Z" stroke="#4472C4" stroke-width="3.4375" stroke-linejoin="round" stroke-miterlimit="10" fill="#4472C4"/><path d="M2939 19953.4C2939 19959.5 2934.07 19964.4 2928 19964.4 2921.92 19964.4 2917 19959.5 2917 19953.4 2917 19947.3 2921.92 19942.4 2928 19942.4 2934.07 19942.4 2939 19947.3 2939 19953.4Z" stroke="#4472C4" stroke-width="3.4375" stroke-linejoin="round" stroke-miterlimit="10" fill="#4472C4"/><path d="M2943 19953.4C2943 19959.5 2938.07 19964.4 2932 19964.4 2925.92 19964.4 2921 19959.5 2921 19953.4 2921 19947.3 2925.92 19942.4 2932 19942.4 2938.07 19942.4 2943 19947.3 2943 19953.4Z" stroke="#4472C4" stroke-width="3.4375" stroke-linejoin="round" stroke-miterlimit="10" fill="#4472C4"/><path d="M2947 19953.4C2947 19959.5 2942.07 19964.4 2936 19964.4 2929.92 19964.4 2925 19959.5 2925 19953.4 2925 19947.3 2929.92 19942.4 2936 19942.4 2942.07 19942.4 2947 19947.3 2947 19953.4Z" stroke="#4472C4" stroke-width="3.4375" stroke-linejoin="round" stroke-miterlimit="10" fill="#4472C4"/><path d="M2951 19953.4C2951 19959.5 2946.07 19964.4 2940 19964.4 2933.92 19964.4 2929 19959.5 2929 19953.4 2929 19947.3 2933.92 19942.4 2940 19942.4 2946.07 19942.4 2951 19947.3 2951 19953.4Z" stroke="#4472C4" stroke-width="3.4375" stroke-linejoin="round" stroke-miterlimit="10" fill="#4472C4"/><path d="M2955 19953.4C2955 19959.5 2950.07 19964.4 2944 19964.4 2937.92 19964.4 2933 19959.5 2933 19953.4 2933 19947.3 2937.92 19942.4 2944 19942.4 2950.07 19942.4 2955 19947.3 2955 19953.4Z" stroke="#4472C4" stroke-width="3.4375" stroke-linejoin="round" stroke-miterlimit="10" fill="#4472C4"/><path d="M2959 19953.4C2959 19959.5 2954.07 19964.4 2948 19964.4 2941.92 19964.4 2937 19959.5 2937 19953.4 2937 19947.3 2941.92 19942.4 2948 19942.4 2954.07 19942.4 2959 19947.3 2959 19953.4Z" stroke="#4472C4" stroke-width="3.4375" stroke-linejoin="round" stroke-miterlimit="10" fill="#4472C4"/><path d="M2963 19953.4C2963 19959.5 2958.07 19964.4 2952 19964.4 2945.92 19964.4 2941 19959.5 2941 19953.4 2941 19947.3 2945.92 19942.4 2952 19942.4 2958.07 19942.4 2963 19947.3 2963 19953.4Z" stroke="#4472C4" stroke-width="3.4375" stroke-linejoin="round" stroke-miterlimit="10" fill="#4472C4"/><path d="M2966 19953.4C2966 19959.5 2961.07 19964.4 2955 19964.4 2948.92 19964.4 2944 19959.5 2944 19953.4 2944 19947.3 2948.92 19942.4 2955 19942.4 2961.07 19942.4 2966 19947.3 2966 19953.4Z" stroke="#4472C4" stroke-width="3.4375" stroke-linejoin="round" stroke-miterlimit="10" fill="#4472C4"/><path d="M2970 19953.4C2970 19959.5 2965.07 19964.4 2959 19964.4 2952.92 19964.4 2948 19959.5 2948 19953.4 2948 19947.3 2952.92 19942.4 2959 19942.4 2965.07 19942.4 2970 19947.3 2970 19953.4Z" stroke="#4472C4" stroke-width="3.4375" stroke-linejoin="round" stroke-miterlimit="10" fill="#4472C4"/><path d="M2974 19953.4C2974 19959.5 2969.07 19964.4 2963 19964.4 2956.92 19964.4 2952 19959.5 2952 19953.4 2952 19947.3 2956.92 19942.4 2963 19942.4 2969.07 19942.4 2974 19947.3 2974 19953.4Z" stroke="#4472C4" stroke-width="3.4375" stroke-linejoin="round" stroke-miterlimit="10" fill="#4472C4"/><path d="M2978 19953.4C2978 19959.5 2973.07 19964.4 2967 19964.4 2960.92 19964.4 2956 19959.5 2956 19953.4 2956 19947.3 2960.92 19942.4 2967 19942.4 2973.07 19942.4 2978 19947.3 2978 19953.4Z" stroke="#4472C4" stroke-width="3.4375" stroke-linejoin="round" stroke-miterlimit="10" fill="#4472C4"/><path d="M2982 19953.4C2982 19959.5 2977.07 19964.4 2971 19964.4 2964.92 19964.4 2960 19959.5 2960 19953.4 2960 19947.3 2964.92 19942.4 2971 19942.4 2977.07 19942.4 2982 19947.3 2982 19953.4Z" stroke="#4472C4" stroke-width="3.4375" stroke-linejoin="round" stroke-miterlimit="10" fill="#4472C4"/><path d="M2986 19953.4C2986 19959.5 2981.07 19964.4 2975 19964.4 2968.92 19964.4 2964 19959.5 2964 19953.4 2964 19947.3 2968.92 19942.4 2975 19942.4 2981.07 19942.4 2986 19947.3 2986 19953.4Z" stroke="#4472C4" stroke-width="3.4375" stroke-linejoin="round" stroke-miterlimit="10" fill="#4472C4"/><path d="M2990 19953.4C2990 19959.5 2985.07 19964.4 2979 19964.4 2972.92 19964.4 2968 19959.5 2968 19953.4 2968 19947.3 2972.92 19942.4 2979 19942.4 2985.07 19942.4 2990 19947.3 2990 19953.4Z" stroke="#4472C4" stroke-width="3.4375" stroke-linejoin="round" stroke-miterlimit="10" fill="#4472C4"/><path d="M2994 19953.4C2994 19959.5 2989.07 19964.4 2983 19964.4 2976.92 19964.4 2972 19959.5 2972 19953.4 2972 19947.3 2976.92 19942.4 2983 19942.4 2989.07 19942.4 2994 19947.3 2994 19953.4Z" stroke="#4472C4" stroke-width="3.4375" stroke-linejoin="round" stroke-miterlimit="10" fill="#4472C4"/><path d="M2997 19953.4C2997 19959.5 2992.07 19964.4 2986 19964.4 2979.92 19964.4 2975 19959.5 2975 19953.4 2975 19947.3 2979.92 19942.4 2986 19942.4 2992.07 19942.4 2997 19947.3 2997 19953.4Z" stroke="#4472C4" stroke-width="3.4375" stroke-linejoin="round" stroke-miterlimit="10" fill="#4472C4"/><path d="M3001 19953.4C3001 19959.5 2996.07 19964.4 2990 19964.4 2983.92 19964.4 2979 19959.5 2979 19953.4 2979 19947.3 2983.92 19942.4 2990 19942.4 2996.07 19942.4 3001 19947.3 3001 19953.4Z" stroke="#4472C4" stroke-width="3.4375" stroke-linejoin="round" stroke-miterlimit="10" fill="#4472C4"/><path d="M3005 19930.4C3005 19936.5 3000.07 19941.4 2994 19941.4 2987.92 19941.4 2983 19936.5 2983 19930.4 2983 19924.3 2987.92 19919.4 2994 19919.4 3000.07 19919.4 3005 19924.3 3005 19930.4Z" stroke="#4472C4" stroke-width="3.4375" stroke-linejoin="round" stroke-miterlimit="10" fill="#4472C4"/><path d="M3009 19928.4C3009 19934.5 3004.07 19939.4 2998 19939.4 2991.92 19939.4 2987 19934.5 2987 19928.4 2987 19922.3 2991.92 19917.4 2998 19917.4 3004.07 19917.4 3009 19922.3 3009 19928.4Z" stroke="#4472C4" stroke-width="3.4375" stroke-linejoin="round" stroke-miterlimit="10" fill="#4472C4"/><path d="M3013 19921.4C3013 19927.5 3008.07 19932.4 3002 19932.4 2995.92 19932.4 2991 19927.5 2991 19921.4 2991 19915.3 2995.92 19910.4 3002 19910.4 3008.07 19910.4 3013 19915.3 3013 19921.4Z" stroke="#4472C4" stroke-width="3.4375" stroke-linejoin="round" stroke-miterlimit="10" fill="#4472C4"/><path d="M3017 19664.4C3017 19670.5 3012.07 19675.4 3006 19675.4 2999.92 19675.4 2995 19670.5 2995 19664.4 2995 19658.3 2999.92 19653.4 3006 19653.4 3012.07 19653.4 3017 19658.3 3017 19664.4Z" stroke="#4472C4" stroke-width="3.4375" stroke-linejoin="round" stroke-miterlimit="10" fill="#4472C4"/><path d="M3021 19700.4C3021 19706.5 3016.07 19711.4 3010 19711.4 3003.92 19711.4 2999 19706.5 2999 19700.4 2999 19694.3 3003.92 19689.4 3010 19689.4 3016.07 19689.4 3021 19694.3 3021 19700.4Z" stroke="#4472C4" stroke-width="3.4375" stroke-linejoin="round" stroke-miterlimit="10" fill="#4472C4"/><path d="M3025 19712.4C3025 19718.5 3020.07 19723.4 3014 19723.4 3007.92 19723.4 3003 19718.5 3003 19712.4 3003 19706.3 3007.92 19701.4 3014 19701.4 3020.07 19701.4 3025 19706.3 3025 19712.4Z" stroke="#4472C4" stroke-width="3.4375" stroke-linejoin="round" stroke-miterlimit="10" fill="#4472C4"/><path d="M3028 19691.4C3028 19697.5 3023.07 19702.4 3017 19702.4 3010.92 19702.4 3006 19697.5 3006 19691.4 3006 19685.3 3010.92 19680.4 3017 19680.4 3023.07 19680.4 3028 19685.3 3028 19691.4Z" stroke="#4472C4" stroke-width="3.4375" stroke-linejoin="round" stroke-miterlimit="10" fill="#4472C4"/><path d="M3032 19710.4C3032 19716.5 3027.07 19721.4 3021 19721.4 3014.92 19721.4 3010 19716.5 3010 19710.4 3010 19704.3 3014.92 19699.4 3021 19699.4 3027.07 19699.4 3032 19704.3 3032 19710.4Z" stroke="#4472C4" stroke-width="3.4375" stroke-linejoin="round" stroke-miterlimit="10" fill="#4472C4"/><path d="M3036 19631.4C3036 19637.5 3031.07 19642.4 3025 19642.4 3018.92 19642.4 3014 19637.5 3014 19631.4 3014 19625.3 3018.92 19620.4 3025 19620.4 3031.07 19620.4 3036 19625.3 3036 19631.4Z" stroke="#4472C4" stroke-width="3.4375" stroke-linejoin="round" stroke-miterlimit="10" fill="#4472C4"/><path d="M3040 19409.4C3040 19415.5 3035.07 19420.4 3029 19420.4 3022.92 19420.4 3018 19415.5 3018 19409.4 3018 19403.3 3022.92 19398.4 3029 19398.4 3035.07 19398.4 3040 19403.3 3040 19409.4Z" stroke="#4472C4" stroke-width="3.4375" stroke-linejoin="round" stroke-miterlimit="10" fill="#4472C4"/><path d="M3044 19321.4C3044 19327.5 3039.07 19332.4 3033 19332.4 3026.92 19332.4 3022 19327.5 3022 19321.4 3022 19315.3 3026.92 19310.4 3033 19310.4 3039.07 19310.4 3044 19315.3 3044 19321.4Z" stroke="#4472C4" stroke-width="3.4375" stroke-linejoin="round" stroke-miterlimit="10" fill="#4472C4"/><path d="M3048 19417.4C3048 19423.5 3043.07 19428.4 3037 19428.4 3030.92 19428.4 3026 19423.5 3026 19417.4 3026 19411.3 3030.92 19406.4 3037 19406.4 3043.07 19406.4 3048 19411.3 3048 19417.4Z" stroke="#4472C4" stroke-width="3.4375" stroke-linejoin="round" stroke-miterlimit="10" fill="#4472C4"/><path d="M3052 19362.4C3052 19368.5 3047.07 19373.4 3041 19373.4 3034.92 19373.4 3030 19368.5 3030 19362.4 3030 19356.3 3034.92 19351.4 3041 19351.4 3047.07 19351.4 3052 19356.3 3052 19362.4Z" stroke="#4472C4" stroke-width="3.4375" stroke-linejoin="round" stroke-miterlimit="10" fill="#4472C4"/><path d="M3055 19404.4C3055 19410.5 3050.07 19415.4 3044 19415.4 3037.92 19415.4 3033 19410.5 3033 19404.4 3033 19398.3 3037.92 19393.4 3044 19393.4 3050.07 19393.4 3055 19398.3 3055 19404.4Z" stroke="#4472C4" stroke-width="3.4375" stroke-linejoin="round" stroke-miterlimit="10" fill="#4472C4"/><path d="M3059 19639.4C3059 19645.5 3054.07 19650.4 3048 19650.4 3041.92 19650.4 3037 19645.5 3037 19639.4 3037 19633.3 3041.92 19628.4 3048 19628.4 3054.07 19628.4 3059 19633.3 3059 19639.4Z" stroke="#4472C4" stroke-width="3.4375" stroke-linejoin="round" stroke-miterlimit="10" fill="#4472C4"/><path d="M3063 19336.4C3063 19342.5 3058.07 19347.4 3052 19347.4 3045.92 19347.4 3041 19342.5 3041 19336.4 3041 19330.3 3045.92 19325.4 3052 19325.4 3058.07 19325.4 3063 19330.3 3063 19336.4Z" stroke="#4472C4" stroke-width="3.4375" stroke-linejoin="round" stroke-miterlimit="10" fill="#4472C4"/><path d="M3067 19383.4C3067 19389.5 3062.07 19394.4 3056 19394.4 3049.92 19394.4 3045 19389.5 3045 19383.4 3045 19377.3 3049.92 19372.4 3056 19372.4 3062.07 19372.4 3067 19377.3 3067 19383.4Z" stroke="#4472C4" stroke-width="3.4375" stroke-linejoin="round" stroke-miterlimit="10" fill="#4472C4"/><path d="M3071 19336.4C3071 19342.5 3066.07 19347.4 3060 19347.4 3053.92 19347.4 3049 19342.5 3049 19336.4 3049 19330.3 3053.92 19325.4 3060 19325.4 3066.07 19325.4 3071 19330.3 3071 19336.4Z" stroke="#4472C4" stroke-width="3.4375" stroke-linejoin="round" stroke-miterlimit="10" fill="#4472C4"/><path d="M3075 19336.4C3075 19342.5 3070.07 19347.4 3064 19347.4 3057.92 19347.4 3053 19342.5 3053 19336.4 3053 19330.3 3057.92 19325.4 3064 19325.4 3070.07 19325.4 3075 19330.3 3075 19336.4Z" stroke="#4472C4" stroke-width="3.4375" stroke-linejoin="round" stroke-miterlimit="10" fill="#4472C4"/><path d="M3079 19340.4C3079 19346.5 3074.07 19351.4 3068 19351.4 3061.92 19351.4 3057 19346.5 3057 19340.4 3057 19334.3 3061.92 19329.4 3068 19329.4 3074.07 19329.4 3079 19334.3 3079 19340.4Z" stroke="#4472C4" stroke-width="3.4375" stroke-linejoin="round" stroke-miterlimit="10" fill="#4472C4"/><path d="M3083 19364.4C3083 19370.5 3078.07 19375.4 3072 19375.4 3065.92 19375.4 3061 19370.5 3061 19364.4 3061 19358.3 3065.92 19353.4 3072 19353.4 3078.07 19353.4 3083 19358.3 3083 19364.4Z" stroke="#4472C4" stroke-width="3.4375" stroke-linejoin="round" stroke-miterlimit="10" fill="#4472C4"/><path d="M3086 19405.4C3086 19411.5 3081.07 19416.4 3075 19416.4 3068.92 19416.4 3064 19411.5 3064 19405.4 3064 19399.3 3068.92 19394.4 3075 19394.4 3081.07 19394.4 3086 19399.3 3086 19405.4Z" stroke="#4472C4" stroke-width="3.4375" stroke-linejoin="round" stroke-miterlimit="10" fill="#4472C4"/><path d="M3090 19356.4C3090 19362.5 3085.07 19367.4 3079 19367.4 3072.92 19367.4 3068 19362.5 3068 19356.4 3068 19350.3 3072.92 19345.4 3079 19345.4 3085.07 19345.4 3090 19350.3 3090 19356.4Z" stroke="#4472C4" stroke-width="3.4375" stroke-linejoin="round" stroke-miterlimit="10" fill="#4472C4"/><path d="M3094 19392.4C3094 19398.5 3089.07 19403.4 3083 19403.4 3076.92 19403.4 3072 19398.5 3072 19392.4 3072 19386.3 3076.92 19381.4 3083 19381.4 3089.07 19381.4 3094 19386.3 3094 19392.4Z" stroke="#4472C4" stroke-width="3.4375" stroke-linejoin="round" stroke-miterlimit="10" fill="#4472C4"/><path d="M3098 19374.4C3098 19380.5 3093.07 19385.4 3087 19385.4 3080.92 19385.4 3076 19380.5 3076 19374.4 3076 19368.3 3080.92 19363.4 3087 19363.4 3093.07 19363.4 3098 19368.3 3098 19374.4Z" stroke="#4472C4" stroke-width="3.4375" stroke-linejoin="round" stroke-miterlimit="10" fill="#4472C4"/><path d="M3102 19952.4C3102 19958.5 3097.07 19963.4 3091 19963.4 3084.92 19963.4 3080 19958.5 3080 19952.4 3080 19946.3 3084.92 19941.4 3091 19941.4 3097.07 19941.4 3102 19946.3 3102 19952.4Z" stroke="#4472C4" stroke-width="3.4375" stroke-linejoin="round" stroke-miterlimit="10" fill="#4472C4"/><path d="M3106 19952.4C3106 19958.5 3101.07 19963.4 3095 19963.4 3088.92 19963.4 3084 19958.5 3084 19952.4 3084 19946.3 3088.92 19941.4 3095 19941.4 3101.07 19941.4 3106 19946.3 3106 19952.4Z" stroke="#4472C4" stroke-width="3.4375" stroke-linejoin="round" stroke-miterlimit="10" fill="#4472C4"/><path d="M3110 19952.4C3110 19958.5 3105.07 19963.4 3099 19963.4 3092.92 19963.4 3088 19958.5 3088 19952.4 3088 19946.3 3092.92 19941.4 3099 19941.4 3105.07 19941.4 3110 19946.3 3110 19952.4Z" stroke="#4472C4" stroke-width="3.4375" stroke-linejoin="round" stroke-miterlimit="10" fill="#4472C4"/><path d="M3113 19952.4C3113 19958.5 3108.07 19963.4 3102 19963.4 3095.92 19963.4 3091 19958.5 3091 19952.4 3091 19946.3 3095.92 19941.4 3102 19941.4 3108.07 19941.4 3113 19946.3 3113 19952.4Z" stroke="#4472C4" stroke-width="3.4375" stroke-linejoin="round" stroke-miterlimit="10" fill="#4472C4"/><path d="M3117 19952.4C3117 19958.5 3112.07 19963.4 3106 19963.4 3099.92 19963.4 3095 19958.5 3095 19952.4 3095 19946.3 3099.92 19941.4 3106 19941.4 3112.07 19941.4 3117 19946.3 3117 19952.4Z" stroke="#4472C4" stroke-width="3.4375" stroke-linejoin="round" stroke-miterlimit="10" fill="#4472C4"/><path d="M3121 19931.4C3121 19937.5 3116.07 19942.4 3110 19942.4 3103.92 19942.4 3099 19937.5 3099 19931.4 3099 19925.3 3103.92 19920.4 3110 19920.4 3116.07 19920.4 3121 19925.3 3121 19931.4Z" stroke="#4472C4" stroke-width="3.4375" stroke-linejoin="round" stroke-miterlimit="10" fill="#4472C4"/><path d="M3125 19931.4C3125 19937.5 3120.07 19942.4 3114 19942.4 3107.92 19942.4 3103 19937.5 3103 19931.4 3103 19925.3 3107.92 19920.4 3114 19920.4 3120.07 19920.4 3125 19925.3 3125 19931.4Z" stroke="#4472C4" stroke-width="3.4375" stroke-linejoin="round" stroke-miterlimit="10" fill="#4472C4"/><path d="M3129 19931.4C3129 19937.5 3124.07 19942.4 3118 19942.4 3111.92 19942.4 3107 19937.5 3107 19931.4 3107 19925.3 3111.92 19920.4 3118 19920.4 3124.07 19920.4 3129 19925.3 3129 19931.4Z" stroke="#4472C4" stroke-width="3.4375" stroke-linejoin="round" stroke-miterlimit="10" fill="#4472C4"/><path d="M3133 19931.4C3133 19937.5 3128.07 19942.4 3122 19942.4 3115.92 19942.4 3111 19937.5 3111 19931.4 3111 19925.3 3115.92 19920.4 3122 19920.4 3128.07 19920.4 3133 19925.3 3133 19931.4Z" stroke="#4472C4" stroke-width="3.4375" stroke-linejoin="round" stroke-miterlimit="10" fill="#4472C4"/><path d="M3137 19931.4C3137 19937.5 3132.07 19942.4 3126 19942.4 3119.92 19942.4 3115 19937.5 3115 19931.4 3115 19925.3 3119.92 19920.4 3126 19920.4 3132.07 19920.4 3137 19925.3 3137 19931.4Z" stroke="#4472C4" stroke-width="3.4375" stroke-linejoin="round" stroke-miterlimit="10" fill="#4472C4"/><path d="M3141 19931.4C3141 19937.5 3136.07 19942.4 3130 19942.4 3123.92 19942.4 3119 19937.5 3119 19931.4 3119 19925.3 3123.92 19920.4 3130 19920.4 3136.07 19920.4 3141 19925.3 3141 19931.4Z" stroke="#4472C4" stroke-width="3.4375" stroke-linejoin="round" stroke-miterlimit="10" fill="#4472C4"/><path d="M3144 19931.4C3144 19937.5 3139.07 19942.4 3133 19942.4 3126.92 19942.4 3122 19937.5 3122 19931.4 3122 19925.3 3126.92 19920.4 3133 19920.4 3139.07 19920.4 3144 19925.3 3144 19931.4Z" stroke="#4472C4" stroke-width="3.4375" stroke-linejoin="round" stroke-miterlimit="10" fill="#4472C4"/><path d="M3148 19931.4C3148 19937.5 3143.07 19942.4 3137 19942.4 3130.92 19942.4 3126 19937.5 3126 19931.4 3126 19925.3 3130.92 19920.4 3137 19920.4 3143.07 19920.4 3148 19925.3 3148 19931.4Z" stroke="#4472C4" stroke-width="3.4375" stroke-linejoin="round" stroke-miterlimit="10" fill="#4472C4"/><path d="M3152 19931.4C3152 19937.5 3147.07 19942.4 3141 19942.4 3134.92 19942.4 3130 19937.5 3130 19931.4 3130 19925.3 3134.92 19920.4 3141 19920.4 3147.07 19920.4 3152 19925.3 3152 19931.4Z" stroke="#4472C4" stroke-width="3.4375" stroke-linejoin="round" stroke-miterlimit="10" fill="#4472C4"/><path d="M3156 19931.4C3156 19937.5 3151.07 19942.4 3145 19942.4 3138.92 19942.4 3134 19937.5 3134 19931.4 3134 19925.3 3138.92 19920.4 3145 19920.4 3151.07 19920.4 3156 19925.3 3156 19931.4Z" stroke="#4472C4" stroke-width="3.4375" stroke-linejoin="round" stroke-miterlimit="10" fill="#4472C4"/><path d="M3160 19931.4C3160 19937.5 3155.07 19942.4 3149 19942.4 3142.92 19942.4 3138 19937.5 3138 19931.4 3138 19925.3 3142.92 19920.4 3149 19920.4 3155.07 19920.4 3160 19925.3 3160 19931.4Z" stroke="#4472C4" stroke-width="3.4375" stroke-linejoin="round" stroke-miterlimit="10" fill="#4472C4"/><path d="M3164 19931.4C3164 19937.5 3159.07 19942.4 3153 19942.4 3146.92 19942.4 3142 19937.5 3142 19931.4 3142 19925.3 3146.92 19920.4 3153 19920.4 3159.07 19920.4 3164 19925.3 3164 19931.4Z" stroke="#4472C4" stroke-width="3.4375" stroke-linejoin="round" stroke-miterlimit="10" fill="#4472C4"/><path d="M3168 19931.4C3168 19937.5 3163.07 19942.4 3157 19942.4 3150.92 19942.4 3146 19937.5 3146 19931.4 3146 19925.3 3150.92 19920.4 3157 19920.4 3163.07 19920.4 3168 19925.3 3168 19931.4Z" stroke="#4472C4" stroke-width="3.4375" stroke-linejoin="round" stroke-miterlimit="10" fill="#4472C4"/><path d="M3172 19931.4C3172 19937.5 3167.07 19942.4 3161 19942.4 3154.92 19942.4 3150 19937.5 3150 19931.4 3150 19925.3 3154.92 19920.4 3161 19920.4 3167.07 19920.4 3172 19925.3 3172 19931.4Z" stroke="#4472C4" stroke-width="3.4375" stroke-linejoin="round" stroke-miterlimit="10" fill="#4472C4"/><path d="M3175 19931.4C3175 19937.5 3170.07 19942.4 3164 19942.4 3157.92 19942.4 3153 19937.5 3153 19931.4 3153 19925.3 3157.92 19920.4 3164 19920.4 3170.07 19920.4 3175 19925.3 3175 19931.4Z" stroke="#4472C4" stroke-width="3.4375" stroke-linejoin="round" stroke-miterlimit="10" fill="#4472C4"/><path d="M3179 19931.4C3179 19937.5 3174.07 19942.4 3168 19942.4 3161.92 19942.4 3157 19937.5 3157 19931.4 3157 19925.3 3161.92 19920.4 3168 19920.4 3174.07 19920.4 3179 19925.3 3179 19931.4Z" stroke="#4472C4" stroke-width="3.4375" stroke-linejoin="round" stroke-miterlimit="10" fill="#4472C4"/><path d="M3183 19931.4C3183 19937.5 3178.07 19942.4 3172 19942.4 3165.92 19942.4 3161 19937.5 3161 19931.4 3161 19925.3 3165.92 19920.4 3172 19920.4 3178.07 19920.4 3183 19925.3 3183 19931.4Z" stroke="#4472C4" stroke-width="3.4375" stroke-linejoin="round" stroke-miterlimit="10" fill="#4472C4"/><path d="M3187 19931.4C3187 19937.5 3182.07 19942.4 3176 19942.4 3169.92 19942.4 3165 19937.5 3165 19931.4 3165 19925.3 3169.92 19920.4 3176 19920.4 3182.07 19920.4 3187 19925.3 3187 19931.4Z" stroke="#4472C4" stroke-width="3.4375" stroke-linejoin="round" stroke-miterlimit="10" fill="#4472C4"/><path d="M3191 19931.4C3191 19937.5 3186.07 19942.4 3180 19942.4 3173.92 19942.4 3169 19937.5 3169 19931.4 3169 19925.3 3173.92 19920.4 3180 19920.4 3186.07 19920.4 3191 19925.3 3191 19931.4Z" stroke="#4472C4" stroke-width="3.4375" stroke-linejoin="round" stroke-miterlimit="10" fill="#4472C4"/><path d="M3195 19931.4C3195 19937.5 3190.07 19942.4 3184 19942.4 3177.92 19942.4 3173 19937.5 3173 19931.4 3173 19925.3 3177.92 19920.4 3184 19920.4 3190.07 19920.4 3195 19925.3 3195 19931.4Z" stroke="#4472C4" stroke-width="3.4375" stroke-linejoin="round" stroke-miterlimit="10" fill="#4472C4"/><path d="M3199 19954.4C3199 19960.5 3194.07 19965.4 3188 19965.4 3181.92 19965.4 3177 19960.5 3177 19954.4 3177 19948.3 3181.92 19943.4 3188 19943.4 3194.07 19943.4 3199 19948.3 3199 19954.4Z" stroke="#4472C4" stroke-width="3.4375" stroke-linejoin="round" stroke-miterlimit="10" fill="#4472C4"/><path d="M3202 19953.4C3202 19959.5 3197.07 19964.4 3191 19964.4 3184.92 19964.4 3180 19959.5 3180 19953.4 3180 19947.3 3184.92 19942.4 3191 19942.4 3197.07 19942.4 3202 19947.3 3202 19953.4Z" stroke="#4472C4" stroke-width="3.4375" stroke-linejoin="round" stroke-miterlimit="10" fill="#4472C4"/><path d="M3206 19953.4C3206 19959.5 3201.07 19964.4 3195 19964.4 3188.92 19964.4 3184 19959.5 3184 19953.4 3184 19947.3 3188.92 19942.4 3195 19942.4 3201.07 19942.4 3206 19947.3 3206 19953.4Z" stroke="#4472C4" stroke-width="3.4375" stroke-linejoin="round" stroke-miterlimit="10" fill="#4472C4"/><path d="M3210 19953.4C3210 19959.5 3205.07 19964.4 3199 19964.4 3192.92 19964.4 3188 19959.5 3188 19953.4 3188 19947.3 3192.92 19942.4 3199 19942.4 3205.07 19942.4 3210 19947.3 3210 19953.4Z" stroke="#4472C4" stroke-width="3.4375" stroke-linejoin="round" stroke-miterlimit="10" fill="#4472C4"/><path d="M3214 19953.4C3214 19959.5 3209.07 19964.4 3203 19964.4 3196.92 19964.4 3192 19959.5 3192 19953.4 3192 19947.3 3196.92 19942.4 3203 19942.4 3209.07 19942.4 3214 19947.3 3214 19953.4Z" stroke="#4472C4" stroke-width="3.4375" stroke-linejoin="round" stroke-miterlimit="10" fill="#4472C4"/><path d="M3218 19953.4C3218 19959.5 3213.07 19964.4 3207 19964.4 3200.92 19964.4 3196 19959.5 3196 19953.4 3196 19947.3 3200.92 19942.4 3207 19942.4 3213.07 19942.4 3218 19947.3 3218 19953.4Z" stroke="#4472C4" stroke-width="3.4375" stroke-linejoin="round" stroke-miterlimit="10" fill="#4472C4"/><path d="M3222 19952.4C3222 19958.5 3217.07 19963.4 3211 19963.4 3204.92 19963.4 3200 19958.5 3200 19952.4 3200 19946.3 3204.92 19941.4 3211 19941.4 3217.07 19941.4 3222 19946.3 3222 19952.4Z" stroke="#4472C4" stroke-width="3.4375" stroke-linejoin="round" stroke-miterlimit="10" fill="#4472C4"/><path d="M3226 19953.4C3226 19959.5 3221.07 19964.4 3215 19964.4 3208.92 19964.4 3204 19959.5 3204 19953.4 3204 19947.3 3208.92 19942.4 3215 19942.4 3221.07 19942.4 3226 19947.3 3226 19953.4Z" stroke="#4472C4" stroke-width="3.4375" stroke-linejoin="round" stroke-miterlimit="10" fill="#4472C4"/><path d="M3230 19953.4C3230 19959.5 3225.07 19964.4 3219 19964.4 3212.92 19964.4 3208 19959.5 3208 19953.4 3208 19947.3 3212.92 19942.4 3219 19942.4 3225.07 19942.4 3230 19947.3 3230 19953.4Z" stroke="#4472C4" stroke-width="3.4375" stroke-linejoin="round" stroke-miterlimit="10" fill="#4472C4"/><path d="M3233 19953.4C3233 19959.5 3228.07 19964.4 3222 19964.4 3215.92 19964.4 3211 19959.5 3211 19953.4 3211 19947.3 3215.92 19942.4 3222 19942.4 3228.07 19942.4 3233 19947.3 3233 19953.4Z" stroke="#4472C4" stroke-width="3.4375" stroke-linejoin="round" stroke-miterlimit="10" fill="#4472C4"/><path d="M3237 19953.4C3237 19959.5 3232.07 19964.4 3226 19964.4 3219.92 19964.4 3215 19959.5 3215 19953.4 3215 19947.3 3219.92 19942.4 3226 19942.4 3232.07 19942.4 3237 19947.3 3237 19953.4Z" stroke="#4472C4" stroke-width="3.4375" stroke-linejoin="round" stroke-miterlimit="10" fill="#4472C4"/><path d="M3241 19952.4C3241 19958.5 3236.07 19963.4 3230 19963.4 3223.92 19963.4 3219 19958.5 3219 19952.4 3219 19946.3 3223.92 19941.4 3230 19941.4 3236.07 19941.4 3241 19946.3 3241 19952.4Z" stroke="#4472C4" stroke-width="3.4375" stroke-linejoin="round" stroke-miterlimit="10" fill="#4472C4"/><path d="M3245 19953.4C3245 19959.5 3240.07 19964.4 3234 19964.4 3227.92 19964.4 3223 19959.5 3223 19953.4 3223 19947.3 3227.92 19942.4 3234 19942.4 3240.07 19942.4 3245 19947.3 3245 19953.4Z" stroke="#4472C4" stroke-width="3.4375" stroke-linejoin="round" stroke-miterlimit="10" fill="#4472C4"/><path d="M3249 19953.4C3249 19959.5 3244.07 19964.4 3238 19964.4 3231.92 19964.4 3227 19959.5 3227 19953.4 3227 19947.3 3231.92 19942.4 3238 19942.4 3244.07 19942.4 3249 19947.3 3249 19953.4Z" stroke="#4472C4" stroke-width="3.4375" stroke-linejoin="round" stroke-miterlimit="10" fill="#4472C4"/><path d="M3253 19953.4C3253 19959.5 3248.07 19964.4 3242 19964.4 3235.92 19964.4 3231 19959.5 3231 19953.4 3231 19947.3 3235.92 19942.4 3242 19942.4 3248.07 19942.4 3253 19947.3 3253 19953.4Z" stroke="#4472C4" stroke-width="3.4375" stroke-linejoin="round" stroke-miterlimit="10" fill="#4472C4"/><path d="M3257 19952.4C3257 19958.5 3252.07 19963.4 3246 19963.4 3239.92 19963.4 3235 19958.5 3235 19952.4 3235 19946.3 3239.92 19941.4 3246 19941.4 3252.07 19941.4 3257 19946.3 3257 19952.4Z" stroke="#4472C4" stroke-width="3.4375" stroke-linejoin="round" stroke-miterlimit="10" fill="#4472C4"/><path d="M3260 19953.4C3260 19959.5 3255.07 19964.4 3249 19964.4 3242.92 19964.4 3238 19959.5 3238 19953.4 3238 19947.3 3242.92 19942.4 3249 19942.4 3255.07 19942.4 3260 19947.3 3260 19953.4Z" stroke="#4472C4" stroke-width="3.4375" stroke-linejoin="round" stroke-miterlimit="10" fill="#4472C4"/><path d="M3264 19952.4C3264 19958.5 3259.07 19963.4 3253 19963.4 3246.92 19963.4 3242 19958.5 3242 19952.4 3242 19946.3 3246.92 19941.4 3253 19941.4 3259.07 19941.4 3264 19946.3 3264 19952.4Z" stroke="#4472C4" stroke-width="3.4375" stroke-linejoin="round" stroke-miterlimit="10" fill="#4472C4"/><path d="M3268 19952.4C3268 19958.5 3263.07 19963.4 3257 19963.4 3250.92 19963.4 3246 19958.5 3246 19952.4 3246 19946.3 3250.92 19941.4 3257 19941.4 3263.07 19941.4 3268 19946.3 3268 19952.4Z" stroke="#4472C4" stroke-width="3.4375" stroke-linejoin="round" stroke-miterlimit="10" fill="#4472C4"/><path d="M3272 19953.4C3272 19959.5 3267.07 19964.4 3261 19964.4 3254.92 19964.4 3250 19959.5 3250 19953.4 3250 19947.3 3254.92 19942.4 3261 19942.4 3267.07 19942.4 3272 19947.3 3272 19953.4Z" stroke="#4472C4" stroke-width="3.4375" stroke-linejoin="round" stroke-miterlimit="10" fill="#4472C4"/><path d="M3276 19953.4C3276 19959.5 3271.07 19964.4 3265 19964.4 3258.92 19964.4 3254 19959.5 3254 19953.4 3254 19947.3 3258.92 19942.4 3265 19942.4 3271.07 19942.4 3276 19947.3 3276 19953.4Z" stroke="#4472C4" stroke-width="3.4375" stroke-linejoin="round" stroke-miterlimit="10" fill="#4472C4"/><path d="M3280 19953.4C3280 19959.5 3275.07 19964.4 3269 19964.4 3262.92 19964.4 3258 19959.5 3258 19953.4 3258 19947.3 3262.92 19942.4 3269 19942.4 3275.07 19942.4 3280 19947.3 3280 19953.4Z" stroke="#4472C4" stroke-width="3.4375" stroke-linejoin="round" stroke-miterlimit="10" fill="#4472C4"/><path d="M3284 19952.4C3284 19958.5 3279.07 19963.4 3273 19963.4 3266.92 19963.4 3262 19958.5 3262 19952.4 3262 19946.3 3266.92 19941.4 3273 19941.4 3279.07 19941.4 3284 19946.3 3284 19952.4Z" stroke="#4472C4" stroke-width="3.4375" stroke-linejoin="round" stroke-miterlimit="10" fill="#4472C4"/><path d="M3288 19952.4C3288 19958.5 3283.07 19963.4 3277 19963.4 3270.92 19963.4 3266 19958.5 3266 19952.4 3266 19946.3 3270.92 19941.4 3277 19941.4 3283.07 19941.4 3288 19946.3 3288 19952.4Z" stroke="#4472C4" stroke-width="3.4375" stroke-linejoin="round" stroke-miterlimit="10" fill="#4472C4"/><path d="M3291 19953.4C3291 19959.5 3286.07 19964.4 3280 19964.4 3273.92 19964.4 3269 19959.5 3269 19953.4 3269 19947.3 3273.92 19942.4 3280 19942.4 3286.07 19942.4 3291 19947.3 3291 19953.4Z" stroke="#4472C4" stroke-width="3.4375" stroke-linejoin="round" stroke-miterlimit="10" fill="#4472C4"/><path d="M3295 19947.4C3295 19953.5 3290.07 19958.4 3284 19958.4 3277.92 19958.4 3273 19953.5 3273 19947.4 3273 19941.3 3277.92 19936.4 3284 19936.4 3290.07 19936.4 3295 19941.3 3295 19947.4Z" stroke="#4472C4" stroke-width="3.4375" stroke-linejoin="round" stroke-miterlimit="10" fill="#4472C4"/><path d="M3299 19935.4C3299 19941.5 3294.07 19946.4 3288 19946.4 3281.92 19946.4 3277 19941.5 3277 19935.4 3277 19929.3 3281.92 19924.4 3288 19924.4 3294.07 19924.4 3299 19929.3 3299 19935.4Z" stroke="#4472C4" stroke-width="3.4375" stroke-linejoin="round" stroke-miterlimit="10" fill="#4472C4"/><path d="M3303 19862.4C3303 19868.5 3298.07 19873.4 3292 19873.4 3285.92 19873.4 3281 19868.5 3281 19862.4 3281 19856.3 3285.92 19851.4 3292 19851.4 3298.07 19851.4 3303 19856.3 3303 19862.4Z" stroke="#4472C4" stroke-width="3.4375" stroke-linejoin="round" stroke-miterlimit="10" fill="#4472C4"/><path d="M3307 19428.4C3307 19434.5 3302.07 19439.4 3296 19439.4 3289.92 19439.4 3285 19434.5 3285 19428.4 3285 19422.3 3289.92 19417.4 3296 19417.4 3302.07 19417.4 3307 19422.3 3307 19428.4Z" stroke="#4472C4" stroke-width="3.4375" stroke-linejoin="round" stroke-miterlimit="10" fill="#4472C4"/><path d="M3311 19508.4C3311 19514.5 3306.07 19519.4 3300 19519.4 3293.92 19519.4 3289 19514.5 3289 19508.4 3289 19502.3 3293.92 19497.4 3300 19497.4 3306.07 19497.4 3311 19502.3 3311 19508.4Z" stroke="#4472C4" stroke-width="3.4375" stroke-linejoin="round" stroke-miterlimit="10" fill="#4472C4"/><path d="M3315 19515.4C3315 19521.5 3310.07 19526.4 3304 19526.4 3297.92 19526.4 3293 19521.5 3293 19515.4 3293 19509.3 3297.92 19504.4 3304 19504.4 3310.07 19504.4 3315 19509.3 3315 19515.4Z" stroke="#4472C4" stroke-width="3.4375" stroke-linejoin="round" stroke-miterlimit="10" fill="#4472C4"/><path d="M3319 19395.4C3319 19401.5 3314.07 19406.4 3308 19406.4 3301.92 19406.4 3297 19401.5 3297 19395.4 3297 19389.3 3301.92 19384.4 3308 19384.4 3314.07 19384.4 3319 19389.3 3319 19395.4Z" stroke="#4472C4" stroke-width="3.4375" stroke-linejoin="round" stroke-miterlimit="10" fill="#4472C4"/><path d="M3322 19446.4C3322 19452.5 3317.07 19457.4 3311 19457.4 3304.92 19457.4 3300 19452.5 3300 19446.4 3300 19440.3 3304.92 19435.4 3311 19435.4 3317.07 19435.4 3322 19440.3 3322 19446.4Z" stroke="#4472C4" stroke-width="3.4375" stroke-linejoin="round" stroke-miterlimit="10" fill="#4472C4"/><path d="M3326 19396.4C3326 19402.5 3321.07 19407.4 3315 19407.4 3308.92 19407.4 3304 19402.5 3304 19396.4 3304 19390.3 3308.92 19385.4 3315 19385.4 3321.07 19385.4 3326 19390.3 3326 19396.4Z" stroke="#4472C4" stroke-width="3.4375" stroke-linejoin="round" stroke-miterlimit="10" fill="#4472C4"/><path d="M3330 19371.4C3330 19377.5 3325.07 19382.4 3319 19382.4 3312.92 19382.4 3308 19377.5 3308 19371.4 3308 19365.3 3312.92 19360.4 3319 19360.4 3325.07 19360.4 3330 19365.3 3330 19371.4Z" stroke="#4472C4" stroke-width="3.4375" stroke-linejoin="round" stroke-miterlimit="10" fill="#4472C4"/><path d="M3334 19404.4C3334 19410.5 3329.07 19415.4 3323 19415.4 3316.92 19415.4 3312 19410.5 3312 19404.4 3312 19398.3 3316.92 19393.4 3323 19393.4 3329.07 19393.4 3334 19398.3 3334 19404.4Z" stroke="#4472C4" stroke-width="3.4375" stroke-linejoin="round" stroke-miterlimit="10" fill="#4472C4"/><path d="M3338 19501.4C3338 19507.5 3333.07 19512.4 3327 19512.4 3320.92 19512.4 3316 19507.5 3316 19501.4 3316 19495.3 3320.92 19490.4 3327 19490.4 3333.07 19490.4 3338 19495.3 3338 19501.4Z" stroke="#4472C4" stroke-width="3.4375" stroke-linejoin="round" stroke-miterlimit="10" fill="#4472C4"/><path d="M3342 19342.4C3342 19348.5 3337.07 19353.4 3331 19353.4 3324.92 19353.4 3320 19348.5 3320 19342.4 3320 19336.3 3324.92 19331.4 3331 19331.4 3337.07 19331.4 3342 19336.3 3342 19342.4Z" stroke="#4472C4" stroke-width="3.4375" stroke-linejoin="round" stroke-miterlimit="10" fill="#4472C4"/><path d="M3346 19351.4C3346 19357.5 3341.07 19362.4 3335 19362.4 3328.92 19362.4 3324 19357.5 3324 19351.4 3324 19345.3 3328.92 19340.4 3335 19340.4 3341.07 19340.4 3346 19345.3 3346 19351.4Z" stroke="#4472C4" stroke-width="3.4375" stroke-linejoin="round" stroke-miterlimit="10" fill="#4472C4"/><path d="M3349 19420.4C3349 19426.5 3344.07 19431.4 3338 19431.4 3331.92 19431.4 3327 19426.5 3327 19420.4 3327 19414.3 3331.92 19409.4 3338 19409.4 3344.07 19409.4 3349 19414.3 3349 19420.4Z" stroke="#4472C4" stroke-width="3.4375" stroke-linejoin="round" stroke-miterlimit="10" fill="#4472C4"/><path d="M3353 19369.4C3353 19375.5 3348.07 19380.4 3342 19380.4 3335.92 19380.4 3331 19375.5 3331 19369.4 3331 19363.3 3335.92 19358.4 3342 19358.4 3348.07 19358.4 3353 19363.3 3353 19369.4Z" stroke="#4472C4" stroke-width="3.4375" stroke-linejoin="round" stroke-miterlimit="10" fill="#4472C4"/><path d="M3357 19357.4C3357 19363.5 3352.07 19368.4 3346 19368.4 3339.92 19368.4 3335 19363.5 3335 19357.4 3335 19351.3 3339.92 19346.4 3346 19346.4 3352.07 19346.4 3357 19351.3 3357 19357.4Z" stroke="#4472C4" stroke-width="3.4375" stroke-linejoin="round" stroke-miterlimit="10" fill="#4472C4"/><path d="M3361 19357.4C3361 19363.5 3356.07 19368.4 3350 19368.4 3343.92 19368.4 3339 19363.5 3339 19357.4 3339 19351.3 3343.92 19346.4 3350 19346.4 3356.07 19346.4 3361 19351.3 3361 19357.4Z" stroke="#4472C4" stroke-width="3.4375" stroke-linejoin="round" stroke-miterlimit="10" fill="#4472C4"/><path d="M3365 19389.4C3365 19395.5 3360.07 19400.4 3354 19400.4 3347.92 19400.4 3343 19395.5 3343 19389.4 3343 19383.3 3347.92 19378.4 3354 19378.4 3360.07 19378.4 3365 19383.3 3365 19389.4Z" stroke="#4472C4" stroke-width="3.4375" stroke-linejoin="round" stroke-miterlimit="10" fill="#4472C4"/><path d="M3369 19356.4C3369 19362.5 3364.07 19367.4 3358 19367.4 3351.92 19367.4 3347 19362.5 3347 19356.4 3347 19350.3 3351.92 19345.4 3358 19345.4 3364.07 19345.4 3369 19350.3 3369 19356.4Z" stroke="#4472C4" stroke-width="3.4375" stroke-linejoin="round" stroke-miterlimit="10" fill="#4472C4"/><path d="M3373 19350.4C3373 19356.5 3368.07 19361.4 3362 19361.4 3355.92 19361.4 3351 19356.5 3351 19350.4 3351 19344.3 3355.92 19339.4 3362 19339.4 3368.07 19339.4 3373 19344.3 3373 19350.4Z" stroke="#4472C4" stroke-width="3.4375" stroke-linejoin="round" stroke-miterlimit="10" fill="#4472C4"/><path d="M3377 19348.4C3377 19354.5 3372.07 19359.4 3366 19359.4 3359.92 19359.4 3355 19354.5 3355 19348.4 3355 19342.3 3359.92 19337.4 3366 19337.4 3372.07 19337.4 3377 19342.3 3377 19348.4Z" stroke="#4472C4" stroke-width="3.4375" stroke-linejoin="round" stroke-miterlimit="10" fill="#4472C4"/><path d="M3380 19373.4C3380 19379.5 3375.07 19384.4 3369 19384.4 3362.92 19384.4 3358 19379.5 3358 19373.4 3358 19367.3 3362.92 19362.4 3369 19362.4 3375.07 19362.4 3380 19367.3 3380 19373.4Z" stroke="#4472C4" stroke-width="3.4375" stroke-linejoin="round" stroke-miterlimit="10" fill="#4472C4"/><path d="M3384 19391.4C3384 19397.5 3379.07 19402.4 3373 19402.4 3366.92 19402.4 3362 19397.5 3362 19391.4 3362 19385.3 3366.92 19380.4 3373 19380.4 3379.07 19380.4 3384 19385.3 3384 19391.4Z" stroke="#4472C4" stroke-width="3.4375" stroke-linejoin="round" stroke-miterlimit="10" fill="#4472C4"/><path d="M3388 19356.4C3388 19362.5 3383.07 19367.4 3377 19367.4 3370.92 19367.4 3366 19362.5 3366 19356.4 3366 19350.3 3370.92 19345.4 3377 19345.4 3383.07 19345.4 3388 19350.3 3388 19356.4Z" stroke="#4472C4" stroke-width="3.4375" stroke-linejoin="round" stroke-miterlimit="10" fill="#4472C4"/><path d="M3392 19930.4C3392 19936.5 3387.07 19941.4 3381 19941.4 3374.92 19941.4 3370 19936.5 3370 19930.4 3370 19924.3 3374.92 19919.4 3381 19919.4 3387.07 19919.4 3392 19924.3 3392 19930.4Z" stroke="#4472C4" stroke-width="3.4375" stroke-linejoin="round" stroke-miterlimit="10" fill="#4472C4"/><path d="M3396 19927.4C3396 19933.5 3391.07 19938.4 3385 19938.4 3378.92 19938.4 3374 19933.5 3374 19927.4 3374 19921.3 3378.92 19916.4 3385 19916.4 3391.07 19916.4 3396 19921.3 3396 19927.4Z" stroke="#4472C4" stroke-width="3.4375" stroke-linejoin="round" stroke-miterlimit="10" fill="#4472C4"/><path d="M3400 19927.4C3400 19933.5 3395.07 19938.4 3389 19938.4 3382.92 19938.4 3378 19933.5 3378 19927.4 3378 19921.3 3382.92 19916.4 3389 19916.4 3395.07 19916.4 3400 19921.3 3400 19927.4Z" stroke="#4472C4" stroke-width="3.4375" stroke-linejoin="round" stroke-miterlimit="10" fill="#4472C4"/><path d="M3404 19927.4C3404 19933.5 3399.07 19938.4 3393 19938.4 3386.92 19938.4 3382 19933.5 3382 19927.4 3382 19921.3 3386.92 19916.4 3393 19916.4 3399.07 19916.4 3404 19921.3 3404 19927.4Z" stroke="#4472C4" stroke-width="3.4375" stroke-linejoin="round" stroke-miterlimit="10" fill="#4472C4"/><path d="M3407 19927.4C3407 19933.5 3402.07 19938.4 3396 19938.4 3389.92 19938.4 3385 19933.5 3385 19927.4 3385 19921.3 3389.92 19916.4 3396 19916.4 3402.07 19916.4 3407 19921.3 3407 19927.4Z" stroke="#4472C4" stroke-width="3.4375" stroke-linejoin="round" stroke-miterlimit="10" fill="#4472C4"/><path d="M3411 19927.4C3411 19933.5 3406.07 19938.4 3400 19938.4 3393.92 19938.4 3389 19933.5 3389 19927.4 3389 19921.3 3393.92 19916.4 3400 19916.4 3406.07 19916.4 3411 19921.3 3411 19927.4Z" stroke="#4472C4" stroke-width="3.4375" stroke-linejoin="round" stroke-miterlimit="10" fill="#4472C4"/><path d="M3415 19927.4C3415 19933.5 3410.07 19938.4 3404 19938.4 3397.92 19938.4 3393 19933.5 3393 19927.4 3393 19921.3 3397.92 19916.4 3404 19916.4 3410.07 19916.4 3415 19921.3 3415 19927.4Z" stroke="#4472C4" stroke-width="3.4375" stroke-linejoin="round" stroke-miterlimit="10" fill="#4472C4"/><path d="M3419 19927.4C3419 19933.5 3414.07 19938.4 3408 19938.4 3401.92 19938.4 3397 19933.5 3397 19927.4 3397 19921.3 3401.92 19916.4 3408 19916.4 3414.07 19916.4 3419 19921.3 3419 19927.4Z" stroke="#4472C4" stroke-width="3.4375" stroke-linejoin="round" stroke-miterlimit="10" fill="#4472C4"/><path d="M3423 19927.4C3423 19933.5 3418.07 19938.4 3412 19938.4 3405.92 19938.4 3401 19933.5 3401 19927.4 3401 19921.3 3405.92 19916.4 3412 19916.4 3418.07 19916.4 3423 19921.3 3423 19927.4Z" stroke="#4472C4" stroke-width="3.4375" stroke-linejoin="round" stroke-miterlimit="10" fill="#4472C4"/><path d="M3427 19927.4C3427 19933.5 3422.07 19938.4 3416 19938.4 3409.92 19938.4 3405 19933.5 3405 19927.4 3405 19921.3 3409.92 19916.4 3416 19916.4 3422.07 19916.4 3427 19921.3 3427 19927.4Z" stroke="#4472C4" stroke-width="3.4375" stroke-linejoin="round" stroke-miterlimit="10" fill="#4472C4"/><path d="M3431 19927.4C3431 19933.5 3426.07 19938.4 3420 19938.4 3413.92 19938.4 3409 19933.5 3409 19927.4 3409 19921.3 3413.92 19916.4 3420 19916.4 3426.07 19916.4 3431 19921.3 3431 19927.4Z" stroke="#4472C4" stroke-width="3.4375" stroke-linejoin="round" stroke-miterlimit="10" fill="#4472C4"/><path d="M3435 19927.4C3435 19933.5 3430.07 19938.4 3424 19938.4 3417.92 19938.4 3413 19933.5 3413 19927.4 3413 19921.3 3417.92 19916.4 3424 19916.4 3430.07 19916.4 3435 19921.3 3435 19927.4Z" stroke="#4472C4" stroke-width="3.4375" stroke-linejoin="round" stroke-miterlimit="10" fill="#4472C4"/><path d="M3438 19927.4C3438 19933.5 3433.07 19938.4 3427 19938.4 3420.92 19938.4 3416 19933.5 3416 19927.4 3416 19921.3 3420.92 19916.4 3427 19916.4 3433.07 19916.4 3438 19921.3 3438 19927.4Z" stroke="#4472C4" stroke-width="3.4375" stroke-linejoin="round" stroke-miterlimit="10" fill="#4472C4"/><path d="M3442 19927.4C3442 19933.5 3437.07 19938.4 3431 19938.4 3424.92 19938.4 3420 19933.5 3420 19927.4 3420 19921.3 3424.92 19916.4 3431 19916.4 3437.07 19916.4 3442 19921.3 3442 19927.4Z" stroke="#4472C4" stroke-width="3.4375" stroke-linejoin="round" stroke-miterlimit="10" fill="#4472C4"/><path d="M3446 19927.4C3446 19933.5 3441.07 19938.4 3435 19938.4 3428.92 19938.4 3424 19933.5 3424 19927.4 3424 19921.3 3428.92 19916.4 3435 19916.4 3441.07 19916.4 3446 19921.3 3446 19927.4Z" stroke="#4472C4" stroke-width="3.4375" stroke-linejoin="round" stroke-miterlimit="10" fill="#4472C4"/><path d="M3450 19927.4C3450 19933.5 3445.07 19938.4 3439 19938.4 3432.92 19938.4 3428 19933.5 3428 19927.4 3428 19921.3 3432.92 19916.4 3439 19916.4 3445.07 19916.4 3450 19921.3 3450 19927.4Z" stroke="#4472C4" stroke-width="3.4375" stroke-linejoin="round" stroke-miterlimit="10" fill="#4472C4"/><path d="M3454 19927.4C3454 19933.5 3449.07 19938.4 3443 19938.4 3436.92 19938.4 3432 19933.5 3432 19927.4 3432 19921.3 3436.92 19916.4 3443 19916.4 3449.07 19916.4 3454 19921.3 3454 19927.4Z" stroke="#4472C4" stroke-width="3.4375" stroke-linejoin="round" stroke-miterlimit="10" fill="#4472C4"/><path d="M3458 19927.4C3458 19933.5 3453.07 19938.4 3447 19938.4 3440.92 19938.4 3436 19933.5 3436 19927.4 3436 19921.3 3440.92 19916.4 3447 19916.4 3453.07 19916.4 3458 19921.3 3458 19927.4Z" stroke="#4472C4" stroke-width="3.4375" stroke-linejoin="round" stroke-miterlimit="10" fill="#4472C4"/><path d="M3462 19927.4C3462 19933.5 3457.07 19938.4 3451 19938.4 3444.92 19938.4 3440 19933.5 3440 19927.4 3440 19921.3 3444.92 19916.4 3451 19916.4 3457.07 19916.4 3462 19921.3 3462 19927.4Z" stroke="#4472C4" stroke-width="3.4375" stroke-linejoin="round" stroke-miterlimit="10" fill="#4472C4"/><path d="M3465 19927.4C3465 19933.5 3460.07 19938.4 3454 19938.4 3447.92 19938.4 3443 19933.5 3443 19927.4 3443 19921.3 3447.92 19916.4 3454 19916.4 3460.07 19916.4 3465 19921.3 3465 19927.4Z" stroke="#4472C4" stroke-width="3.4375" stroke-linejoin="round" stroke-miterlimit="10" fill="#4472C4"/><path d="M3469 19927.4C3469 19933.5 3464.07 19938.4 3458 19938.4 3451.92 19938.4 3447 19933.5 3447 19927.4 3447 19921.3 3451.92 19916.4 3458 19916.4 3464.07 19916.4 3469 19921.3 3469 19927.4Z" stroke="#4472C4" stroke-width="3.4375" stroke-linejoin="round" stroke-miterlimit="10" fill="#4472C4"/><path d="M3473 19927.4C3473 19933.5 3468.07 19938.4 3462 19938.4 3455.92 19938.4 3451 19933.5 3451 19927.4 3451 19921.3 3455.92 19916.4 3462 19916.4 3468.07 19916.4 3473 19921.3 3473 19927.4Z" stroke="#4472C4" stroke-width="3.4375" stroke-linejoin="round" stroke-miterlimit="10" fill="#4472C4"/><path d="M3477 19927.4C3477 19933.5 3472.07 19938.4 3466 19938.4 3459.92 19938.4 3455 19933.5 3455 19927.4 3455 19921.3 3459.92 19916.4 3466 19916.4 3472.07 19916.4 3477 19921.3 3477 19927.4Z" stroke="#4472C4" stroke-width="3.4375" stroke-linejoin="round" stroke-miterlimit="10" fill="#4472C4"/><path d="M3481 19927.4C3481 19933.5 3476.07 19938.4 3470 19938.4 3463.92 19938.4 3459 19933.5 3459 19927.4 3459 19921.3 3463.92 19916.4 3470 19916.4 3476.07 19916.4 3481 19921.3 3481 19927.4Z" stroke="#4472C4" stroke-width="3.4375" stroke-linejoin="round" stroke-miterlimit="10" fill="#4472C4"/><path d="M3485 19927.4C3485 19933.5 3480.07 19938.4 3474 19938.4 3467.92 19938.4 3463 19933.5 3463 19927.4 3463 19921.3 3467.92 19916.4 3474 19916.4 3480.07 19916.4 3485 19921.3 3485 19927.4Z" stroke="#4472C4" stroke-width="3.4375" stroke-linejoin="round" stroke-miterlimit="10" fill="#4472C4"/><path d="M3489 19978.4C3489 19984.5 3484.07 19989.4 3478 19989.4 3471.92 19989.4 3467 19984.5 3467 19978.4 3467 19972.3 3471.92 19967.4 3478 19967.4 3484.07 19967.4 3489 19972.3 3489 19978.4Z" stroke="#4472C4" stroke-width="3.4375" stroke-linejoin="round" stroke-miterlimit="10" fill="#4472C4"/><path d="M3493 19978.4C3493 19984.5 3488.07 19989.4 3482 19989.4 3475.92 19989.4 3471 19984.5 3471 19978.4 3471 19972.3 3475.92 19967.4 3482 19967.4 3488.07 19967.4 3493 19972.3 3493 19978.4Z" stroke="#4472C4" stroke-width="3.4375" stroke-linejoin="round" stroke-miterlimit="10" fill="#4472C4"/><path d="M3496 19978.4C3496 19984.5 3491.07 19989.4 3485 19989.4 3478.92 19989.4 3474 19984.5 3474 19978.4 3474 19972.3 3478.92 19967.4 3485 19967.4 3491.07 19967.4 3496 19972.3 3496 19978.4Z" stroke="#4472C4" stroke-width="3.4375" stroke-linejoin="round" stroke-miterlimit="10" fill="#4472C4"/><path d="M3500 19978.4C3500 19984.5 3495.07 19989.4 3489 19989.4 3482.92 19989.4 3478 19984.5 3478 19978.4 3478 19972.3 3482.92 19967.4 3489 19967.4 3495.07 19967.4 3500 19972.3 3500 19978.4Z" stroke="#4472C4" stroke-width="3.4375" stroke-linejoin="round" stroke-miterlimit="10" fill="#4472C4"/><path d="M3504 19978.4C3504 19984.5 3499.07 19989.4 3493 19989.4 3486.92 19989.4 3482 19984.5 3482 19978.4 3482 19972.3 3486.92 19967.4 3493 19967.4 3499.07 19967.4 3504 19972.3 3504 19978.4Z" stroke="#4472C4" stroke-width="3.4375" stroke-linejoin="round" stroke-miterlimit="10" fill="#4472C4"/><path d="M3508 19978.4C3508 19984.5 3503.07 19989.4 3497 19989.4 3490.92 19989.4 3486 19984.5 3486 19978.4 3486 19972.3 3490.92 19967.4 3497 19967.4 3503.07 19967.4 3508 19972.3 3508 19978.4Z" stroke="#4472C4" stroke-width="3.4375" stroke-linejoin="round" stroke-miterlimit="10" fill="#4472C4"/><path d="M3512 19978.4C3512 19984.5 3507.07 19989.4 3501 19989.4 3494.92 19989.4 3490 19984.5 3490 19978.4 3490 19972.3 3494.92 19967.4 3501 19967.4 3507.07 19967.4 3512 19972.3 3512 19978.4Z" stroke="#4472C4" stroke-width="3.4375" stroke-linejoin="round" stroke-miterlimit="10" fill="#4472C4"/><path d="M3516 19978.4C3516 19984.5 3511.07 19989.4 3505 19989.4 3498.92 19989.4 3494 19984.5 3494 19978.4 3494 19972.3 3498.92 19967.4 3505 19967.4 3511.07 19967.4 3516 19972.3 3516 19978.4Z" stroke="#4472C4" stroke-width="3.4375" stroke-linejoin="round" stroke-miterlimit="10" fill="#4472C4"/><path d="M3520 19978.4C3520 19984.5 3515.07 19989.4 3509 19989.4 3502.92 19989.4 3498 19984.5 3498 19978.4 3498 19972.3 3502.92 19967.4 3509 19967.4 3515.07 19967.4 3520 19972.3 3520 19978.4Z" stroke="#4472C4" stroke-width="3.4375" stroke-linejoin="round" stroke-miterlimit="10" fill="#4472C4"/><path d="M3524 19978.4C3524 19984.5 3519.07 19989.4 3513 19989.4 3506.92 19989.4 3502 19984.5 3502 19978.4 3502 19972.3 3506.92 19967.4 3513 19967.4 3519.07 19967.4 3524 19972.3 3524 19978.4Z" stroke="#4472C4" stroke-width="3.4375" stroke-linejoin="round" stroke-miterlimit="10" fill="#4472C4"/><path d="M3527 19978.4C3527 19984.5 3522.07 19989.4 3516 19989.4 3509.92 19989.4 3505 19984.5 3505 19978.4 3505 19972.3 3509.92 19967.4 3516 19967.4 3522.07 19967.4 3527 19972.3 3527 19978.4Z" stroke="#4472C4" stroke-width="3.4375" stroke-linejoin="round" stroke-miterlimit="10" fill="#4472C4"/><path d="M3531 19978.4C3531 19984.5 3526.07 19989.4 3520 19989.4 3513.92 19989.4 3509 19984.5 3509 19978.4 3509 19972.3 3513.92 19967.4 3520 19967.4 3526.07 19967.4 3531 19972.3 3531 19978.4Z" stroke="#4472C4" stroke-width="3.4375" stroke-linejoin="round" stroke-miterlimit="10" fill="#4472C4"/><path d="M3535 19978.4C3535 19984.5 3530.07 19989.4 3524 19989.4 3517.92 19989.4 3513 19984.5 3513 19978.4 3513 19972.3 3517.92 19967.4 3524 19967.4 3530.07 19967.4 3535 19972.3 3535 19978.4Z" stroke="#4472C4" stroke-width="3.4375" stroke-linejoin="round" stroke-miterlimit="10" fill="#4472C4"/><path d="M3539 19978.4C3539 19984.5 3534.07 19989.4 3528 19989.4 3521.92 19989.4 3517 19984.5 3517 19978.4 3517 19972.3 3521.92 19967.4 3528 19967.4 3534.07 19967.4 3539 19972.3 3539 19978.4Z" stroke="#4472C4" stroke-width="3.4375" stroke-linejoin="round" stroke-miterlimit="10" fill="#4472C4"/><path d="M3543 19978.4C3543 19984.5 3538.07 19989.4 3532 19989.4 3525.92 19989.4 3521 19984.5 3521 19978.4 3521 19972.3 3525.92 19967.4 3532 19967.4 3538.07 19967.4 3543 19972.3 3543 19978.4Z" stroke="#4472C4" stroke-width="3.4375" stroke-linejoin="round" stroke-miterlimit="10" fill="#4472C4"/><path d="M3547 19978.4C3547 19984.5 3542.07 19989.4 3536 19989.4 3529.92 19989.4 3525 19984.5 3525 19978.4 3525 19972.3 3529.92 19967.4 3536 19967.4 3542.07 19967.4 3547 19972.3 3547 19978.4Z" stroke="#4472C4" stroke-width="3.4375" stroke-linejoin="round" stroke-miterlimit="10" fill="#4472C4"/><path d="M3551 19978.4C3551 19984.5 3546.07 19989.4 3540 19989.4 3533.92 19989.4 3529 19984.5 3529 19978.4 3529 19972.3 3533.92 19967.4 3540 19967.4 3546.07 19967.4 3551 19972.3 3551 19978.4Z" stroke="#4472C4" stroke-width="3.4375" stroke-linejoin="round" stroke-miterlimit="10" fill="#4472C4"/><path d="M3554 19978.4C3554 19984.5 3549.07 19989.4 3543 19989.4 3536.92 19989.4 3532 19984.5 3532 19978.4 3532 19972.3 3536.92 19967.4 3543 19967.4 3549.07 19967.4 3554 19972.3 3554 19978.4Z" stroke="#4472C4" stroke-width="3.4375" stroke-linejoin="round" stroke-miterlimit="10" fill="#4472C4"/><path d="M3558 19955.4C3558 19961.5 3553.07 19966.4 3547 19966.4 3540.92 19966.4 3536 19961.5 3536 19955.4 3536 19949.3 3540.92 19944.4 3547 19944.4 3553.07 19944.4 3558 19949.3 3558 19955.4Z" stroke="#4472C4" stroke-width="3.4375" stroke-linejoin="round" stroke-miterlimit="10" fill="#4472C4"/><path d="M3562 19953.4C3562 19959.5 3557.07 19964.4 3551 19964.4 3544.92 19964.4 3540 19959.5 3540 19953.4 3540 19947.3 3544.92 19942.4 3551 19942.4 3557.07 19942.4 3562 19947.3 3562 19953.4Z" stroke="#4472C4" stroke-width="3.4375" stroke-linejoin="round" stroke-miterlimit="10" fill="#4472C4"/><path d="M3566 19953.4C3566 19959.5 3561.07 19964.4 3555 19964.4 3548.92 19964.4 3544 19959.5 3544 19953.4 3544 19947.3 3548.92 19942.4 3555 19942.4 3561.07 19942.4 3566 19947.3 3566 19953.4Z" stroke="#4472C4" stroke-width="3.4375" stroke-linejoin="round" stroke-miterlimit="10" fill="#4472C4"/><path d="M3570 19953.4C3570 19959.5 3565.07 19964.4 3559 19964.4 3552.92 19964.4 3548 19959.5 3548 19953.4 3548 19947.3 3552.92 19942.4 3559 19942.4 3565.07 19942.4 3570 19947.3 3570 19953.4Z" stroke="#4472C4" stroke-width="3.4375" stroke-linejoin="round" stroke-miterlimit="10" fill="#4472C4"/><path d="M3574 19953.4C3574 19959.5 3569.07 19964.4 3563 19964.4 3556.92 19964.4 3552 19959.5 3552 19953.4 3552 19947.3 3556.92 19942.4 3563 19942.4 3569.07 19942.4 3574 19947.3 3574 19953.4Z" stroke="#4472C4" stroke-width="3.4375" stroke-linejoin="round" stroke-miterlimit="10" fill="#4472C4"/><path d="M3578 19951.4C3578 19957.5 3573.07 19962.4 3567 19962.4 3560.92 19962.4 3556 19957.5 3556 19951.4 3556 19945.3 3560.92 19940.4 3567 19940.4 3573.07 19940.4 3578 19945.3 3578 19951.4Z" stroke="#4472C4" stroke-width="3.4375" stroke-linejoin="round" stroke-miterlimit="10" fill="#4472C4"/><path d="M3582 19951.4C3582 19957.5 3577.07 19962.4 3571 19962.4 3564.92 19962.4 3560 19957.5 3560 19951.4 3560 19945.3 3564.92 19940.4 3571 19940.4 3577.07 19940.4 3582 19945.3 3582 19951.4Z" stroke="#4472C4" stroke-width="3.4375" stroke-linejoin="round" stroke-miterlimit="10" fill="#4472C4"/><path d="M3585 19949.4C3585 19955.5 3580.07 19960.4 3574 19960.4 3567.92 19960.4 3563 19955.5 3563 19949.4 3563 19943.3 3567.92 19938.4 3574 19938.4 3580.07 19938.4 3585 19943.3 3585 19949.4Z" stroke="#4472C4" stroke-width="3.4375" stroke-linejoin="round" stroke-miterlimit="10" fill="#4472C4"/><path d="M3589 19951.4C3589 19957.5 3584.07 19962.4 3578 19962.4 3571.92 19962.4 3567 19957.5 3567 19951.4 3567 19945.3 3571.92 19940.4 3578 19940.4 3584.07 19940.4 3589 19945.3 3589 19951.4Z" stroke="#4472C4" stroke-width="3.4375" stroke-linejoin="round" stroke-miterlimit="10" fill="#4472C4"/><path d="M3593 19950.4C3593 19956.5 3588.07 19961.4 3582 19961.4 3575.92 19961.4 3571 19956.5 3571 19950.4 3571 19944.3 3575.92 19939.4 3582 19939.4 3588.07 19939.4 3593 19944.3 3593 19950.4Z" stroke="#4472C4" stroke-width="3.4375" stroke-linejoin="round" stroke-miterlimit="10" fill="#4472C4"/><path d="M3597 19950.4C3597 19956.5 3592.07 19961.4 3586 19961.4 3579.92 19961.4 3575 19956.5 3575 19950.4 3575 19944.3 3579.92 19939.4 3586 19939.4 3592.07 19939.4 3597 19944.3 3597 19950.4Z" stroke="#4472C4" stroke-width="3.4375" stroke-linejoin="round" stroke-miterlimit="10" fill="#4472C4"/><path d="M3601 19950.4C3601 19956.5 3596.07 19961.4 3590 19961.4 3583.92 19961.4 3579 19956.5 3579 19950.4 3579 19944.3 3583.92 19939.4 3590 19939.4 3596.07 19939.4 3601 19944.3 3601 19950.4Z" stroke="#4472C4" stroke-width="3.4375" stroke-linejoin="round" stroke-miterlimit="10" fill="#4472C4"/><path d="M3605 19950.4C3605 19956.5 3600.07 19961.4 3594 19961.4 3587.92 19961.4 3583 19956.5 3583 19950.4 3583 19944.3 3587.92 19939.4 3594 19939.4 3600.07 19939.4 3605 19944.3 3605 19950.4Z" stroke="#4472C4" stroke-width="3.4375" stroke-linejoin="round" stroke-miterlimit="10" fill="#4472C4"/><path d="M3609 19949.4C3609 19955.5 3604.07 19960.4 3598 19960.4 3591.92 19960.4 3587 19955.5 3587 19949.4 3587 19943.3 3591.92 19938.4 3598 19938.4 3604.07 19938.4 3609 19943.3 3609 19949.4Z" stroke="#4472C4" stroke-width="3.4375" stroke-linejoin="round" stroke-miterlimit="10" fill="#4472C4"/><path d="M3612 19950.4C3612 19956.5 3607.07 19961.4 3601 19961.4 3594.92 19961.4 3590 19956.5 3590 19950.4 3590 19944.3 3594.92 19939.4 3601 19939.4 3607.07 19939.4 3612 19944.3 3612 19950.4Z" stroke="#4472C4" stroke-width="3.4375" stroke-linejoin="round" stroke-miterlimit="10" fill="#4472C4"/><path d="M3616 19950.4C3616 19956.5 3611.07 19961.4 3605 19961.4 3598.92 19961.4 3594 19956.5 3594 19950.4 3594 19944.3 3598.92 19939.4 3605 19939.4 3611.07 19939.4 3616 19944.3 3616 19950.4Z" stroke="#4472C4" stroke-width="3.4375" stroke-linejoin="round" stroke-miterlimit="10" fill="#4472C4"/><path d="M3620 19949.4C3620 19955.5 3615.07 19960.4 3609 19960.4 3602.92 19960.4 3598 19955.5 3598 19949.4 3598 19943.3 3602.92 19938.4 3609 19938.4 3615.07 19938.4 3620 19943.3 3620 19949.4Z" stroke="#4472C4" stroke-width="3.4375" stroke-linejoin="round" stroke-miterlimit="10" fill="#4472C4"/><path d="M3624 19949.4C3624 19955.5 3619.07 19960.4 3613 19960.4 3606.92 19960.4 3602 19955.5 3602 19949.4 3602 19943.3 3606.92 19938.4 3613 19938.4 3619.07 19938.4 3624 19943.3 3624 19949.4Z" stroke="#4472C4" stroke-width="3.4375" stroke-linejoin="round" stroke-miterlimit="10" fill="#4472C4"/><path d="M3628 19950.4C3628 19956.5 3623.07 19961.4 3617 19961.4 3610.92 19961.4 3606 19956.5 3606 19950.4 3606 19944.3 3610.92 19939.4 3617 19939.4 3623.07 19939.4 3628 19944.3 3628 19950.4Z" stroke="#4472C4" stroke-width="3.4375" stroke-linejoin="round" stroke-miterlimit="10" fill="#4472C4"/><path d="M3632 19949.4C3632 19955.5 3627.07 19960.4 3621 19960.4 3614.92 19960.4 3610 19955.5 3610 19949.4 3610 19943.3 3614.92 19938.4 3621 19938.4 3627.07 19938.4 3632 19943.3 3632 19949.4Z" stroke="#4472C4" stroke-width="3.4375" stroke-linejoin="round" stroke-miterlimit="10" fill="#4472C4"/><path d="M3636 19946.4C3636 19952.5 3631.07 19957.4 3625 19957.4 3618.92 19957.4 3614 19952.5 3614 19946.4 3614 19940.3 3618.92 19935.4 3625 19935.4 3631.07 19935.4 3636 19940.3 3636 19946.4Z" stroke="#4472C4" stroke-width="3.4375" stroke-linejoin="round" stroke-miterlimit="10" fill="#4472C4"/><path d="M3640 19950.4C3640 19956.5 3635.07 19961.4 3629 19961.4 3622.92 19961.4 3618 19956.5 3618 19950.4 3618 19944.3 3622.92 19939.4 3629 19939.4 3635.07 19939.4 3640 19944.3 3640 19950.4Z" stroke="#4472C4" stroke-width="3.4375" stroke-linejoin="round" stroke-miterlimit="10" fill="#4472C4"/><path d="M3643 19947.4C3643 19953.5 3638.07 19958.4 3632 19958.4 3625.92 19958.4 3621 19953.5 3621 19947.4 3621 19941.3 3625.92 19936.4 3632 19936.4 3638.07 19936.4 3643 19941.3 3643 19947.4Z" stroke="#4472C4" stroke-width="3.4375" stroke-linejoin="round" stroke-miterlimit="10" fill="#4472C4"/><path d="M3647 19949.4C3647 19955.5 3642.07 19960.4 3636 19960.4 3629.92 19960.4 3625 19955.5 3625 19949.4 3625 19943.3 3629.92 19938.4 3636 19938.4 3642.07 19938.4 3647 19943.3 3647 19949.4Z" stroke="#4472C4" stroke-width="3.4375" stroke-linejoin="round" stroke-miterlimit="10" fill="#4472C4"/><path d="M3651 19948.4C3651 19954.5 3646.07 19959.4 3640 19959.4 3633.92 19959.4 3629 19954.5 3629 19948.4 3629 19942.3 3633.92 19937.4 3640 19937.4 3646.07 19937.4 3651 19942.3 3651 19948.4Z" stroke="#4472C4" stroke-width="3.4375" stroke-linejoin="round" stroke-miterlimit="10" fill="#4472C4"/><path d="M3655 19949.4C3655 19955.5 3650.07 19960.4 3644 19960.4 3637.92 19960.4 3633 19955.5 3633 19949.4 3633 19943.3 3637.92 19938.4 3644 19938.4 3650.07 19938.4 3655 19943.3 3655 19949.4Z" stroke="#4472C4" stroke-width="3.4375" stroke-linejoin="round" stroke-miterlimit="10" fill="#4472C4"/><path d="M3659 19946.4C3659 19952.5 3654.07 19957.4 3648 19957.4 3641.92 19957.4 3637 19952.5 3637 19946.4 3637 19940.3 3641.92 19935.4 3648 19935.4 3654.07 19935.4 3659 19940.3 3659 19946.4Z" stroke="#4472C4" stroke-width="3.4375" stroke-linejoin="round" stroke-miterlimit="10" fill="#4472C4"/><path d="M3663 19945.4C3663 19951.5 3658.07 19956.4 3652 19956.4 3645.92 19956.4 3641 19951.5 3641 19945.4 3641 19939.3 3645.92 19934.4 3652 19934.4 3658.07 19934.4 3663 19939.3 3663 19945.4Z" stroke="#4472C4" stroke-width="3.4375" stroke-linejoin="round" stroke-miterlimit="10" fill="#4472C4"/><path d="M3667 19948.4C3667 19954.5 3662.07 19959.4 3656 19959.4 3649.92 19959.4 3645 19954.5 3645 19948.4 3645 19942.3 3649.92 19937.4 3656 19937.4 3662.07 19937.4 3667 19942.3 3667 19948.4Z" stroke="#4472C4" stroke-width="3.4375" stroke-linejoin="round" stroke-miterlimit="10" fill="#4472C4"/><path d="M3671 19947.4C3671 19953.5 3666.07 19958.4 3660 19958.4 3653.92 19958.4 3649 19953.5 3649 19947.4 3649 19941.3 3653.92 19936.4 3660 19936.4 3666.07 19936.4 3671 19941.3 3671 19947.4Z" stroke="#4472C4" stroke-width="3.4375" stroke-linejoin="round" stroke-miterlimit="10" fill="#4472C4"/><path d="M3674 19946.4C3674 19952.5 3669.07 19957.4 3663 19957.4 3656.92 19957.4 3652 19952.5 3652 19946.4 3652 19940.3 3656.92 19935.4 3663 19935.4 3669.07 19935.4 3674 19940.3 3674 19946.4Z" stroke="#4472C4" stroke-width="3.4375" stroke-linejoin="round" stroke-miterlimit="10" fill="#4472C4"/><path d="M3678 19946.4C3678 19952.5 3673.07 19957.4 3667 19957.4 3660.92 19957.4 3656 19952.5 3656 19946.4 3656 19940.3 3660.92 19935.4 3667 19935.4 3673.07 19935.4 3678 19940.3 3678 19946.4Z" stroke="#4472C4" stroke-width="3.4375" stroke-linejoin="round" stroke-miterlimit="10" fill="#4472C4"/><path d="M3682 19955.4C3682 19961.5 3677.07 19966.4 3671 19966.4 3664.92 19966.4 3660 19961.5 3660 19955.4 3660 19949.3 3664.92 19944.4 3671 19944.4 3677.07 19944.4 3682 19949.3 3682 19955.4Z" stroke="#4472C4" stroke-width="3.4375" stroke-linejoin="round" stroke-miterlimit="10" fill="#4472C4"/><path d="M3686 19953.4C3686 19959.5 3681.07 19964.4 3675 19964.4 3668.92 19964.4 3664 19959.5 3664 19953.4 3664 19947.3 3668.92 19942.4 3675 19942.4 3681.07 19942.4 3686 19947.3 3686 19953.4Z" stroke="#4472C4" stroke-width="3.4375" stroke-linejoin="round" stroke-miterlimit="10" fill="#4472C4"/><path d="M3690 19949.4C3690 19955.5 3685.07 19960.4 3679 19960.4 3672.92 19960.4 3668 19955.5 3668 19949.4 3668 19943.3 3672.92 19938.4 3679 19938.4 3685.07 19938.4 3690 19943.3 3690 19949.4Z" stroke="#4472C4" stroke-width="3.4375" stroke-linejoin="round" stroke-miterlimit="10" fill="#4472C4"/><path d="M3694 19949.4C3694 19955.5 3689.07 19960.4 3683 19960.4 3676.92 19960.4 3672 19955.5 3672 19949.4 3672 19943.3 3676.92 19938.4 3683 19938.4 3689.07 19938.4 3694 19943.3 3694 19949.4Z" stroke="#4472C4" stroke-width="3.4375" stroke-linejoin="round" stroke-miterlimit="10" fill="#4472C4"/><path d="M3698 19949.4C3698 19955.5 3693.07 19960.4 3687 19960.4 3680.92 19960.4 3676 19955.5 3676 19949.4 3676 19943.3 3680.92 19938.4 3687 19938.4 3693.07 19938.4 3698 19943.3 3698 19949.4Z" stroke="#4472C4" stroke-width="3.4375" stroke-linejoin="round" stroke-miterlimit="10" fill="#4472C4"/><path d="M3701 19949.4C3701 19955.5 3696.07 19960.4 3690 19960.4 3683.92 19960.4 3679 19955.5 3679 19949.4 3679 19943.3 3683.92 19938.4 3690 19938.4 3696.07 19938.4 3701 19943.3 3701 19949.4Z" stroke="#4472C4" stroke-width="3.4375" stroke-linejoin="round" stroke-miterlimit="10" fill="#4472C4"/><path d="M3705 19949.4C3705 19955.5 3700.07 19960.4 3694 19960.4 3687.92 19960.4 3683 19955.5 3683 19949.4 3683 19943.3 3687.92 19938.4 3694 19938.4 3700.07 19938.4 3705 19943.3 3705 19949.4Z" stroke="#4472C4" stroke-width="3.4375" stroke-linejoin="round" stroke-miterlimit="10" fill="#4472C4"/><path d="M3709 19949.4C3709 19955.5 3704.07 19960.4 3698 19960.4 3691.92 19960.4 3687 19955.5 3687 19949.4 3687 19943.3 3691.92 19938.4 3698 19938.4 3704.07 19938.4 3709 19943.3 3709 19949.4Z" stroke="#4472C4" stroke-width="3.4375" stroke-linejoin="round" stroke-miterlimit="10" fill="#4472C4"/><path d="M3713 19949.4C3713 19955.5 3708.07 19960.4 3702 19960.4 3695.92 19960.4 3691 19955.5 3691 19949.4 3691 19943.3 3695.92 19938.4 3702 19938.4 3708.07 19938.4 3713 19943.3 3713 19949.4Z" stroke="#4472C4" stroke-width="3.4375" stroke-linejoin="round" stroke-miterlimit="10" fill="#4472C4"/><path d="M3717 19949.4C3717 19955.5 3712.07 19960.4 3706 19960.4 3699.92 19960.4 3695 19955.5 3695 19949.4 3695 19943.3 3699.92 19938.4 3706 19938.4 3712.07 19938.4 3717 19943.3 3717 19949.4Z" stroke="#4472C4" stroke-width="3.4375" stroke-linejoin="round" stroke-miterlimit="10" fill="#4472C4"/><path d="M3721 19949.4C3721 19955.5 3716.07 19960.4 3710 19960.4 3703.92 19960.4 3699 19955.5 3699 19949.4 3699 19943.3 3703.92 19938.4 3710 19938.4 3716.07 19938.4 3721 19943.3 3721 19949.4Z" stroke="#4472C4" stroke-width="3.4375" stroke-linejoin="round" stroke-miterlimit="10" fill="#4472C4"/><path d="M3725 19949.4C3725 19955.5 3720.07 19960.4 3714 19960.4 3707.92 19960.4 3703 19955.5 3703 19949.4 3703 19943.3 3707.92 19938.4 3714 19938.4 3720.07 19938.4 3725 19943.3 3725 19949.4Z" stroke="#4472C4" stroke-width="3.4375" stroke-linejoin="round" stroke-miterlimit="10" fill="#4472C4"/><path d="M3729 19949.4C3729 19955.5 3724.07 19960.4 3718 19960.4 3711.92 19960.4 3707 19955.5 3707 19949.4 3707 19943.3 3711.92 19938.4 3718 19938.4 3724.07 19938.4 3729 19943.3 3729 19949.4Z" stroke="#4472C4" stroke-width="3.4375" stroke-linejoin="round" stroke-miterlimit="10" fill="#4472C4"/><path d="M3732 19949.4C3732 19955.5 3727.07 19960.4 3721 19960.4 3714.92 19960.4 3710 19955.5 3710 19949.4 3710 19943.3 3714.92 19938.4 3721 19938.4 3727.07 19938.4 3732 19943.3 3732 19949.4Z" stroke="#4472C4" stroke-width="3.4375" stroke-linejoin="round" stroke-miterlimit="10" fill="#4472C4"/><path d="M3736 19949.4C3736 19955.5 3731.07 19960.4 3725 19960.4 3718.92 19960.4 3714 19955.5 3714 19949.4 3714 19943.3 3718.92 19938.4 3725 19938.4 3731.07 19938.4 3736 19943.3 3736 19949.4Z" stroke="#4472C4" stroke-width="3.4375" stroke-linejoin="round" stroke-miterlimit="10" fill="#4472C4"/><path d="M3740 19949.4C3740 19955.5 3735.07 19960.4 3729 19960.4 3722.92 19960.4 3718 19955.5 3718 19949.4 3718 19943.3 3722.92 19938.4 3729 19938.4 3735.07 19938.4 3740 19943.3 3740 19949.4Z" stroke="#4472C4" stroke-width="3.4375" stroke-linejoin="round" stroke-miterlimit="10" fill="#4472C4"/><path d="M3744 19949.4C3744 19955.5 3739.07 19960.4 3733 19960.4 3726.92 19960.4 3722 19955.5 3722 19949.4 3722 19943.3 3726.92 19938.4 3733 19938.4 3739.07 19938.4 3744 19943.3 3744 19949.4Z" stroke="#4472C4" stroke-width="3.4375" stroke-linejoin="round" stroke-miterlimit="10" fill="#4472C4"/><path d="M3748 19949.4C3748 19955.5 3743.07 19960.4 3737 19960.4 3730.92 19960.4 3726 19955.5 3726 19949.4 3726 19943.3 3730.92 19938.4 3737 19938.4 3743.07 19938.4 3748 19943.3 3748 19949.4Z" stroke="#4472C4" stroke-width="3.4375" stroke-linejoin="round" stroke-miterlimit="10" fill="#4472C4"/><path d="M3752 19949.4C3752 19955.5 3747.07 19960.4 3741 19960.4 3734.92 19960.4 3730 19955.5 3730 19949.4 3730 19943.3 3734.92 19938.4 3741 19938.4 3747.07 19938.4 3752 19943.3 3752 19949.4Z" stroke="#4472C4" stroke-width="3.4375" stroke-linejoin="round" stroke-miterlimit="10" fill="#4472C4"/><path d="M3756 19949.4C3756 19955.5 3751.07 19960.4 3745 19960.4 3738.92 19960.4 3734 19955.5 3734 19949.4 3734 19943.3 3738.92 19938.4 3745 19938.4 3751.07 19938.4 3756 19943.3 3756 19949.4Z" stroke="#4472C4" stroke-width="3.4375" stroke-linejoin="round" stroke-miterlimit="10" fill="#4472C4"/><path d="M3759 19949.4C3759 19955.5 3754.07 19960.4 3748 19960.4 3741.92 19960.4 3737 19955.5 3737 19949.4 3737 19943.3 3741.92 19938.4 3748 19938.4 3754.07 19938.4 3759 19943.3 3759 19949.4Z" stroke="#4472C4" stroke-width="3.4375" stroke-linejoin="round" stroke-miterlimit="10" fill="#4472C4"/><path d="M3763 19949.4C3763 19955.5 3758.07 19960.4 3752 19960.4 3745.92 19960.4 3741 19955.5 3741 19949.4 3741 19943.3 3745.92 19938.4 3752 19938.4 3758.07 19938.4 3763 19943.3 3763 19949.4Z" stroke="#4472C4" stroke-width="3.4375" stroke-linejoin="round" stroke-miterlimit="10" fill="#4472C4"/><path d="M3767 19949.4C3767 19955.5 3762.07 19960.4 3756 19960.4 3749.92 19960.4 3745 19955.5 3745 19949.4 3745 19943.3 3749.92 19938.4 3756 19938.4 3762.07 19938.4 3767 19943.3 3767 19949.4Z" stroke="#4472C4" stroke-width="3.4375" stroke-linejoin="round" stroke-miterlimit="10" fill="#4472C4"/><path d="M3771 19949.4C3771 19955.5 3766.07 19960.4 3760 19960.4 3753.92 19960.4 3749 19955.5 3749 19949.4 3749 19943.3 3753.92 19938.4 3760 19938.4 3766.07 19938.4 3771 19943.3 3771 19949.4Z" stroke="#4472C4" stroke-width="3.4375" stroke-linejoin="round" stroke-miterlimit="10" fill="#4472C4"/><path d="M3775 19949.4C3775 19955.5 3770.07 19960.4 3764 19960.4 3757.92 19960.4 3753 19955.5 3753 19949.4 3753 19943.3 3757.92 19938.4 3764 19938.4 3770.07 19938.4 3775 19943.3 3775 19949.4Z" stroke="#4472C4" stroke-width="3.4375" stroke-linejoin="round" stroke-miterlimit="10" fill="#4472C4"/><path d="M3779 19949.4C3779 19955.5 3774.07 19960.4 3768 19960.4 3761.92 19960.4 3757 19955.5 3757 19949.4 3757 19943.3 3761.92 19938.4 3768 19938.4 3774.07 19938.4 3779 19943.3 3779 19949.4Z" stroke="#4472C4" stroke-width="3.4375" stroke-linejoin="round" stroke-miterlimit="10" fill="#4472C4"/></g><g clip-path="url(#clip6)"><text fill="#595959" font-family="Calibri,Calibri_MSFontService,sans-serif" font-weight="400" font-size="41" transform="matrix(1 0 0 1 2430.56 20081)">-500000</text></g><g clip-path="url(#clip7)"><text fill="#595959" font-family="Calibri,Calibri_MSFontService,sans-serif" font-weight="400" font-size="41" transform="matrix(1 0 0 1 2547.69 19967)">0</text></g><g clip-path="url(#clip8)"><text fill="#595959" font-family="Calibri,Calibri_MSFontService,sans-serif" font-weight="400" font-size="41" transform="matrix(1 0 0 1 2443.19 19854)">500000</text></g><g clip-path="url(#clip9)"><text fill="#595959" font-family="Calibri,Calibri_MSFontService,sans-serif" font-weight="400" font-size="41" transform="matrix(1 0 0 1 2422.29 19740)">1000000</text></g><g clip-path="url(#clip10)"><text fill="#595959" font-family="Calibri,Calibri_MSFontService,sans-serif" font-weight="400" font-size="41" transform="matrix(1 0 0 1 2422.29 19626)">1500000</text></g><g clip-path="url(#clip11)"><text fill="#595959" font-family="Calibri,Calibri_MSFontService,sans-serif" font-weight="400" font-size="41" transform="matrix(1 0 0 1 2422.29 19513)">2000000</text></g><g clip-path="url(#clip12)"><text fill="#595959" font-family="Calibri,Calibri_MSFontService,sans-serif" font-weight="400" font-size="41" transform="matrix(1 0 0 1 2422.29 19399)">2500000</text></g><g clip-path="url(#clip13)"><text fill="#595959" font-family="Calibri,Calibri_MSFontService,sans-serif" font-weight="400" font-size="41" transform="matrix(1 0 0 1 2422.29 19285)">3000000</text></g><g clip-path="url(#clip14)"><text fill="#595959" font-family="Calibri,Calibri_MSFontService,sans-serif" font-weight="400" font-size="41" transform="matrix(1 0 0 1 2596.41 20021)">0</text></g><g clip-path="url(#clip15)"><text fill="#595959" font-family="Calibri,Calibri_MSFontService,sans-serif" font-weight="400" font-size="41" transform="matrix(1 0 0 1 2779.37 20021)">50</text></g><g clip-path="url(#clip16)"><text fill="#595959" font-family="Calibri,Calibri_MSFontService,sans-serif" font-weight="400" font-size="41" transform="matrix(1 0 0 1 2962.33 20021)">100</text></g><g clip-path="url(#clip17)"><text fill="#595959" font-family="Calibri,Calibri_MSFontService,sans-serif" font-weight="400" font-size="41" transform="matrix(1 0 0 1 3155.74 20021)">150</text></g><g clip-path="url(#clip18)"><text fill="#595959" font-family="Calibri,Calibri_MSFontService,sans-serif" font-weight="400" font-size="41" transform="matrix(1 0 0 1 3349.15 20021)">200</text></g><g clip-path="url(#clip19)"><text fill="#595959" font-family="Calibri,Calibri_MSFontService,sans-serif" font-weight="400" font-size="41" transform="matrix(1 0 0 1 3542.56 20021)">250</text></g><g clip-path="url(#clip20)"><text fill="#595959" font-family="Calibri,Calibri_MSFontService,sans-serif" font-weight="400" font-size="41" transform="matrix(1 0 0 1 3735.97 20021)">300</text></g><g clip-path="url(#clip21)"><text fill="#595959" font-family="Calibri,Calibri_MSFontService,sans-serif" font-weight="400" font-size="41" transform="matrix(1 0 0 1 3929.38 20021)">350</text></g><g clip-path="url(#clip22)"><text fill="#595959" font-family="Calibri,Calibri_MSFontService,sans-serif" font-weight="400" font-size="64" transform="matrix(1 0 0 1 2925.7 19199)">Best Fitness (RED pop)</text></g><rect x="2393.5" y="19104.5" width="1649" height="1016" stroke="#D9D9D9" stroke-width="3.4375" stroke-linejoin="round" stroke-miterlimit="10" fill="none"/></g></svg>