<svg width="1652" height="1019" xmlns="http://www.w3.org/2000/svg" xmlns:xlink="http://www.w3.org/1999/xlink" overflow="hidden"><defs><clipPath id="clip0"><rect x="2392" y="19103" width="1652" height="1019"/></clipPath><clipPath id="clip1"><rect x="2392" y="19103" width="1650" height="1016"/></clipPath><clipPath id="clip2"><rect x="2392" y="19103" width="1650" height="1016"/></clipPath><clipPath id="clip3"><rect x="2392" y="19103" width="1650" height="1016"/></clipPath><clipPath id="clip4"><rect x="2392" y="19103" width="1650" height="1016"/></clipPath><clipPath id="clip5"><rect x="2392" y="19103" width="1650" height="1016"/></clipPath><clipPath id="clip6"><rect x="2392" y="19103" width="1650" height="1016"/></clipPath><clipPath id="clip7"><rect x="2392" y="19103" width="1650" height="1016"/></clipPath><clipPath id="clip8"><rect x="2392" y="19103" width="1650" height="1016"/></clipPath><clipPath id="clip9"><rect x="2392" y="19103" width="1650" height="1016"/></clipPath><clipPath id="clip10"><rect x="2392" y="19103" width="1650" height="1016"/></clipPath><clipPath id="clip11"><rect x="2392" y="19103" width="1650" height="1016"/></clipPath><clipPath id="clip12"><rect x="2392" y="19103" width="1650" height="1016"/></clipPath><clipPath id="clip13"><rect x="2392" y="19103" width="1650" height="1016"/></clipPath><clipPath id="clip14"><rect x="2392" y="19103" width="1650" height="1016"/></clipPath><clipPath id="clip15"><rect x="2392" y="19103" width="1650" height="1016"/></clipPath><clipPath id="clip16"><rect x="2392" y="19103" width="1650" height="1016"/></clipPath><clipPath id="clip17"><rect x="2392" y="19103" width="1650" height="1016"/></clipPath><clipPath id="clip18"><rect x="2392" y="19103" width="1650" height="1016"/></clipPath><clipPath id="clip19"><rect x="2392" y="19103" width="1650" height="1016"/></clipPath><clipPath id="clip20"><rect x="2392" y="19103" width="1650" height="1016"/></clipPath><clipPath id="clip21"><rect x="2392" y="19103" width="1650" height="1016"/></clipPath><clipPath id="clip22"><rect x="2392" y="19103" width="1650" height="1016"/></clipPath><clipPath id="clip23"><rect x="2392" y="19103" width="1650" height="1016"/></clipPath></defs><g clip-path="url(#clip0)" transform="translate(-2392 -19103)"><rect x="2393" y="19104" width="1649" height="1016" fill="#FFFFFF"/><g clip-path="url(#clip1)"><path d="M2598.5 20069.5 3960.5 20069.5M2598.5 19970.2 3960.5 19970.2M2598.5 19771.1 3960.5 19771.1M2598.5 19671.1 3960.5 19671.1M2598.5 19572.1 3960.5 19572.1M2598.5 19473.1 3960.5 19473.1M2598.5 19373.1 3960.5 19373.1M2598.5 19273.5 3960.5 19273.5" stroke="#D9D9D9" stroke-width="3.4375" stroke-linejoin="round" stroke-miterlimit="10" fill="none"/></g><g clip-path="url(#clip2)"><path d="M2793.59 19273.5 2793.59 20069.5M2987.6 19273.5 2987.6 20069.5M3182.6 19273.5 3182.6 20069.5M3376.61 19273.5 3376.61 20069.5M3571.62 19273.5 3571.62 20069.5M3766.62 19273.5 3766.62 20069.5M3960.5 19273.5 3960.5 20069.5" stroke="#D9D9D9" stroke-width="3.4375" stroke-linejoin="round" stroke-miterlimit="10" fill="none"/></g><g clip-path="url(#clip3)"><path d="M0 0 0.000360892 796" stroke="#BFBFBF" stroke-width="3.4375" stroke-linejoin="round" stroke-miterlimit="10" fill="none" fill-rule="evenodd" transform="matrix(1 0 0 -1 2598.5 20069.5)"/></g><g clip-path="url(#clip4)"><path d="M2598.5 19870.5 3960.5 19870.5" stroke="#BFBFBF" stroke-width="3.4375" stroke-linejoin="round" stroke-miterlimit="10" fill="none" fill-rule="evenodd"/></g><g clip-path="url(#clip5)"><path d="M2610 19951.4C2610 19957.5 2605.07 19962.4 2599 19962.4 2592.92 19962.4 2588 19957.5 2588 19951.4 2588 19945.3 2592.92 19940.4 2599 19940.4 2605.07 19940.4 2610 19945.3 2610 19951.4Z" stroke="#4472C4" stroke-width="3.4375" stroke-linejoin="round" stroke-miterlimit="10" fill="#4472C4"/><path d="M2614 19837.4C2614 19843.5 2609.07 19848.4 2603 19848.4 2596.92 19848.4 2592 19843.5 2592 19837.4 2592 19831.3 2596.92 19826.4 2603 19826.4 2609.07 19826.4 2614 19831.3 2614 19837.4Z" stroke="#4472C4" stroke-width="3.4375" stroke-linejoin="round" stroke-miterlimit="10" fill="#4472C4"/><path d="M2618 19819.4C2618 19825.5 2613.07 19830.4 2607 19830.4 2600.92 19830.4 2596 19825.5 2596 19819.4 2596 19813.3 2600.92 19808.4 2607 19808.4 2613.07 19808.4 2618 19813.3 2618 19819.4Z" stroke="#4472C4" stroke-width="3.4375" stroke-linejoin="round" stroke-miterlimit="10" fill="#4472C4"/><path d="M2622 19800.4C2622 19806.5 2617.07 19811.4 2611 19811.4 2604.92 19811.4 2600 19806.5 2600 19800.4 2600 19794.3 2604.92 19789.4 2611 19789.4 2617.07 19789.4 2622 19794.3 2622 19800.4Z" stroke="#4472C4" stroke-width="3.4375" stroke-linejoin="round" stroke-miterlimit="10" fill="#4472C4"/><path d="M2626 19690.4C2626 19696.5 2621.07 19701.4 2615 19701.4 2608.92 19701.4 2604 19696.5 2604 19690.4 2604 19684.3 2608.92 19679.4 2615 19679.4 2621.07 19679.4 2626 19684.3 2626 19690.4Z" stroke="#4472C4" stroke-width="3.4375" stroke-linejoin="round" stroke-miterlimit="10" fill="#4472C4"/><path d="M2630 19762.4C2630 19768.5 2625.07 19773.4 2619 19773.4 2612.92 19773.4 2608 19768.5 2608 19762.4 2608 19756.3 2612.92 19751.4 2619 19751.4 2625.07 19751.4 2630 19756.3 2630 19762.4Z" stroke="#4472C4" stroke-width="3.4375" stroke-linejoin="round" stroke-miterlimit="10" fill="#4472C4"/><path d="M2633 19739.4C2633 19745.5 2628.07 19750.4 2622 19750.4 2615.92 19750.4 2611 19745.5 2611 19739.4 2611 19733.3 2615.92 19728.4 2622 19728.4 2628.07 19728.4 2633 19733.3 2633 19739.4Z" stroke="#4472C4" stroke-width="3.4375" stroke-linejoin="round" stroke-miterlimit="10" fill="#4472C4"/><path d="M2637 19772.4C2637 19778.5 2632.07 19783.4 2626 19783.4 2619.92 19783.4 2615 19778.5 2615 19772.4 2615 19766.3 2619.92 19761.4 2626 19761.4 2632.07 19761.4 2637 19766.3 2637 19772.4Z" stroke="#4472C4" stroke-width="3.4375" stroke-linejoin="round" stroke-miterlimit="10" fill="#4472C4"/><path d="M2641 19728.4C2641 19734.5 2636.07 19739.4 2630 19739.4 2623.92 19739.4 2619 19734.5 2619 19728.4 2619 19722.3 2623.92 19717.4 2630 19717.4 2636.07 19717.4 2641 19722.3 2641 19728.4Z" stroke="#4472C4" stroke-width="3.4375" stroke-linejoin="round" stroke-miterlimit="10" fill="#4472C4"/><path d="M2645 19665.4C2645 19671.5 2640.07 19676.4 2634 19676.4 2627.92 19676.4 2623 19671.5 2623 19665.4 2623 19659.3 2627.92 19654.4 2634 19654.4 2640.07 19654.4 2645 19659.3 2645 19665.4Z" stroke="#4472C4" stroke-width="3.4375" stroke-linejoin="round" stroke-miterlimit="10" fill="#4472C4"/><path d="M2649 19740.4C2649 19746.5 2644.07 19751.4 2638 19751.4 2631.92 19751.4 2627 19746.5 2627 19740.4 2627 19734.3 2631.92 19729.4 2638 19729.4 2644.07 19729.4 2649 19734.3 2649 19740.4Z" stroke="#4472C4" stroke-width="3.4375" stroke-linejoin="round" stroke-miterlimit="10" fill="#4472C4"/><path d="M2653 19645.4C2653 19651.5 2648.07 19656.4 2642 19656.4 2635.92 19656.4 2631 19651.5 2631 19645.4 2631 19639.3 2635.92 19634.4 2642 19634.4 2648.07 19634.4 2653 19639.3 2653 19645.4Z" stroke="#4472C4" stroke-width="3.4375" stroke-linejoin="round" stroke-miterlimit="10" fill="#4472C4"/><path d="M2657 19660.4C2657 19666.5 2652.07 19671.4 2646 19671.4 2639.92 19671.4 2635 19666.5 2635 19660.4 2635 19654.3 2639.92 19649.4 2646 19649.4 2652.07 19649.4 2657 19654.3 2657 19660.4Z" stroke="#4472C4" stroke-width="3.4375" stroke-linejoin="round" stroke-miterlimit="10" fill="#4472C4"/><path d="M2661 19736.4C2661 19742.5 2656.07 19747.4 2650 19747.4 2643.92 19747.4 2639 19742.5 2639 19736.4 2639 19730.3 2643.92 19725.4 2650 19725.4 2656.07 19725.4 2661 19730.3 2661 19736.4Z" stroke="#4472C4" stroke-width="3.4375" stroke-linejoin="round" stroke-miterlimit="10" fill="#4472C4"/><path d="M2665 19672.4C2665 19678.5 2660.07 19683.4 2654 19683.4 2647.92 19683.4 2643 19678.5 2643 19672.4 2643 19666.3 2647.92 19661.4 2654 19661.4 2660.07 19661.4 2665 19666.3 2665 19672.4Z" stroke="#4472C4" stroke-width="3.4375" stroke-linejoin="round" stroke-miterlimit="10" fill="#4472C4"/><path d="M2668 19784.4C2668 19790.5 2663.07 19795.4 2657 19795.4 2650.92 19795.4 2646 19790.5 2646 19784.4 2646 19778.3 2650.92 19773.4 2657 19773.4 2663.07 19773.4 2668 19778.3 2668 19784.4Z" stroke="#4472C4" stroke-width="3.4375" stroke-linejoin="round" stroke-miterlimit="10" fill="#4472C4"/><path d="M2672 19818.4C2672 19824.5 2667.07 19829.4 2661 19829.4 2654.92 19829.4 2650 19824.5 2650 19818.4 2650 19812.3 2654.92 19807.4 2661 19807.4 2667.07 19807.4 2672 19812.3 2672 19818.4Z" stroke="#4472C4" stroke-width="3.4375" stroke-linejoin="round" stroke-miterlimit="10" fill="#4472C4"/><path d="M2676 19789.4C2676 19795.5 2671.07 19800.4 2665 19800.4 2658.92 19800.4 2654 19795.5 2654 19789.4 2654 19783.3 2658.92 19778.4 2665 19778.4 2671.07 19778.4 2676 19783.3 2676 19789.4Z" stroke="#4472C4" stroke-width="3.4375" stroke-linejoin="round" stroke-miterlimit="10" fill="#4472C4"/><path d="M2680 19794.4C2680 19800.5 2675.07 19805.4 2669 19805.4 2662.92 19805.4 2658 19800.5 2658 19794.4 2658 19788.3 2662.92 19783.4 2669 19783.4 2675.07 19783.4 2680 19788.3 2680 19794.4Z" stroke="#4472C4" stroke-width="3.4375" stroke-linejoin="round" stroke-miterlimit="10" fill="#4472C4"/><path d="M2684 19739.4C2684 19745.5 2679.07 19750.4 2673 19750.4 2666.92 19750.4 2662 19745.5 2662 19739.4 2662 19733.3 2666.92 19728.4 2673 19728.4 2679.07 19728.4 2684 19733.3 2684 19739.4Z" stroke="#4472C4" stroke-width="3.4375" stroke-linejoin="round" stroke-miterlimit="10" fill="#4472C4"/><path d="M2688 19686.4C2688 19692.5 2683.07 19697.4 2677 19697.4 2670.92 19697.4 2666 19692.5 2666 19686.4 2666 19680.3 2670.92 19675.4 2677 19675.4 2683.07 19675.4 2688 19680.3 2688 19686.4Z" stroke="#4472C4" stroke-width="3.4375" stroke-linejoin="round" stroke-miterlimit="10" fill="#4472C4"/><path d="M2692 19850.4C2692 19856.5 2687.07 19861.4 2681 19861.4 2674.92 19861.4 2670 19856.5 2670 19850.4 2670 19844.3 2674.92 19839.4 2681 19839.4 2687.07 19839.4 2692 19844.3 2692 19850.4Z" stroke="#4472C4" stroke-width="3.4375" stroke-linejoin="round" stroke-miterlimit="10" fill="#4472C4"/><path d="M2696 19806.4C2696 19812.5 2691.07 19817.4 2685 19817.4 2678.92 19817.4 2674 19812.5 2674 19806.4 2674 19800.3 2678.92 19795.4 2685 19795.4 2691.07 19795.4 2696 19800.3 2696 19806.4Z" stroke="#4472C4" stroke-width="3.4375" stroke-linejoin="round" stroke-miterlimit="10" fill="#4472C4"/><path d="M2700 19727.4C2700 19733.5 2695.07 19738.4 2689 19738.4 2682.92 19738.4 2678 19733.5 2678 19727.4 2678 19721.3 2682.92 19716.4 2689 19716.4 2695.07 19716.4 2700 19721.3 2700 19727.4Z" stroke="#4472C4" stroke-width="3.4375" stroke-linejoin="round" stroke-miterlimit="10" fill="#4472C4"/><path d="M2703 19819.4C2703 19825.5 2698.07 19830.4 2692 19830.4 2685.92 19830.4 2681 19825.5 2681 19819.4 2681 19813.3 2685.92 19808.4 2692 19808.4 2698.07 19808.4 2703 19813.3 2703 19819.4Z" stroke="#4472C4" stroke-width="3.4375" stroke-linejoin="round" stroke-miterlimit="10" fill="#4472C4"/><path d="M2707 19920.4C2707 19926.5 2702.07 19931.4 2696 19931.4 2689.92 19931.4 2685 19926.5 2685 19920.4 2685 19914.3 2689.92 19909.4 2696 19909.4 2702.07 19909.4 2707 19914.3 2707 19920.4Z" stroke="#4472C4" stroke-width="3.4375" stroke-linejoin="round" stroke-miterlimit="10" fill="#4472C4"/><path d="M2711 19896.4C2711 19902.5 2706.07 19907.4 2700 19907.4 2693.92 19907.4 2689 19902.5 2689 19896.4 2689 19890.3 2693.92 19885.4 2700 19885.4 2706.07 19885.4 2711 19890.3 2711 19896.4Z" stroke="#4472C4" stroke-width="3.4375" stroke-linejoin="round" stroke-miterlimit="10" fill="#4472C4"/><path d="M2715 19904.4C2715 19910.5 2710.07 19915.4 2704 19915.4 2697.92 19915.4 2693 19910.5 2693 19904.4 2693 19898.3 2697.92 19893.4 2704 19893.4 2710.07 19893.4 2715 19898.3 2715 19904.4Z" stroke="#4472C4" stroke-width="3.4375" stroke-linejoin="round" stroke-miterlimit="10" fill="#4472C4"/><path d="M2719 19900.4C2719 19906.5 2714.07 19911.4 2708 19911.4 2701.92 19911.4 2697 19906.5 2697 19900.4 2697 19894.3 2701.92 19889.4 2708 19889.4 2714.07 19889.4 2719 19894.3 2719 19900.4Z" stroke="#4472C4" stroke-width="3.4375" stroke-linejoin="round" stroke-miterlimit="10" fill="#4472C4"/><path d="M2723 19888.4C2723 19894.5 2718.07 19899.4 2712 19899.4 2705.92 19899.4 2701 19894.5 2701 19888.4 2701 19882.3 2705.92 19877.4 2712 19877.4 2718.07 19877.4 2723 19882.3 2723 19888.4Z" stroke="#4472C4" stroke-width="3.4375" stroke-linejoin="round" stroke-miterlimit="10" fill="#4472C4"/><path d="M2727 19906.4C2727 19912.5 2722.07 19917.4 2716 19917.4 2709.92 19917.4 2705 19912.5 2705 19906.4 2705 19900.3 2709.92 19895.4 2716 19895.4 2722.07 19895.4 2727 19900.3 2727 19906.4Z" stroke="#4472C4" stroke-width="3.4375" stroke-linejoin="round" stroke-miterlimit="10" fill="#4472C4"/><path d="M2731 19921.4C2731 19927.5 2726.07 19932.4 2720 19932.4 2713.92 19932.4 2709 19927.5 2709 19921.4 2709 19915.3 2713.92 19910.4 2720 19910.4 2726.07 19910.4 2731 19915.3 2731 19921.4Z" stroke="#4472C4" stroke-width="3.4375" stroke-linejoin="round" stroke-miterlimit="10" fill="#4472C4"/><path d="M2735 19908.4C2735 19914.5 2730.07 19919.4 2724 19919.4 2717.92 19919.4 2713 19914.5 2713 19908.4 2713 19902.3 2717.92 19897.4 2724 19897.4 2730.07 19897.4 2735 19902.3 2735 19908.4Z" stroke="#4472C4" stroke-width="3.4375" stroke-linejoin="round" stroke-miterlimit="10" fill="#4472C4"/><path d="M2739 19903.4C2739 19909.5 2734.07 19914.4 2728 19914.4 2721.92 19914.4 2717 19909.5 2717 19903.4 2717 19897.3 2721.92 19892.4 2728 19892.4 2734.07 19892.4 2739 19897.3 2739 19903.4Z" stroke="#4472C4" stroke-width="3.4375" stroke-linejoin="round" stroke-miterlimit="10" fill="#4472C4"/><path d="M2742 19915.4C2742 19921.5 2737.07 19926.4 2731 19926.4 2724.92 19926.4 2720 19921.5 2720 19915.4 2720 19909.3 2724.92 19904.4 2731 19904.4 2737.07 19904.4 2742 19909.3 2742 19915.4Z" stroke="#4472C4" stroke-width="3.4375" stroke-linejoin="round" stroke-miterlimit="10" fill="#4472C4"/><path d="M2746 19908.4C2746 19914.5 2741.07 19919.4 2735 19919.4 2728.92 19919.4 2724 19914.5 2724 19908.4 2724 19902.3 2728.92 19897.4 2735 19897.4 2741.07 19897.4 2746 19902.3 2746 19908.4Z" stroke="#4472C4" stroke-width="3.4375" stroke-linejoin="round" stroke-miterlimit="10" fill="#4472C4"/><path d="M2750 19904.4C2750 19910.5 2745.07 19915.4 2739 19915.4 2732.92 19915.4 2728 19910.5 2728 19904.4 2728 19898.3 2732.92 19893.4 2739 19893.4 2745.07 19893.4 2750 19898.3 2750 19904.4Z" stroke="#4472C4" stroke-width="3.4375" stroke-linejoin="round" stroke-miterlimit="10" fill="#4472C4"/><path d="M2754 19912.4C2754 19918.5 2749.07 19923.4 2743 19923.4 2736.92 19923.4 2732 19918.5 2732 19912.4 2732 19906.3 2736.92 19901.4 2743 19901.4 2749.07 19901.4 2754 19906.3 2754 19912.4Z" stroke="#4472C4" stroke-width="3.4375" stroke-linejoin="round" stroke-miterlimit="10" fill="#4472C4"/><path d="M2758 19905.4C2758 19911.5 2753.07 19916.4 2747 19916.4 2740.92 19916.4 2736 19911.5 2736 19905.4 2736 19899.3 2740.92 19894.4 2747 19894.4 2753.07 19894.4 2758 19899.3 2758 19905.4Z" stroke="#4472C4" stroke-width="3.4375" stroke-linejoin="round" stroke-miterlimit="10" fill="#4472C4"/><path d="M2762 19899.4C2762 19905.5 2757.07 19910.4 2751 19910.4 2744.92 19910.4 2740 19905.5 2740 19899.4 2740 19893.3 2744.92 19888.4 2751 19888.4 2757.07 19888.4 2762 19893.3 2762 19899.4Z" stroke="#4472C4" stroke-width="3.4375" stroke-linejoin="round" stroke-miterlimit="10" fill="#4472C4"/><path d="M2766 19896.4C2766 19902.5 2761.07 19907.4 2755 19907.4 2748.92 19907.4 2744 19902.5 2744 19896.4 2744 19890.3 2748.92 19885.4 2755 19885.4 2761.07 19885.4 2766 19890.3 2766 19896.4Z" stroke="#4472C4" stroke-width="3.4375" stroke-linejoin="round" stroke-miterlimit="10" fill="#4472C4"/><path d="M2770 19907.4C2770 19913.5 2765.07 19918.4 2759 19918.4 2752.92 19918.4 2748 19913.5 2748 19907.4 2748 19901.3 2752.92 19896.4 2759 19896.4 2765.07 19896.4 2770 19901.3 2770 19907.4Z" stroke="#4472C4" stroke-width="3.4375" stroke-linejoin="round" stroke-miterlimit="10" fill="#4472C4"/><path d="M2774 19914.4C2774 19920.5 2769.07 19925.4 2763 19925.4 2756.92 19925.4 2752 19920.5 2752 19914.4 2752 19908.3 2756.92 19903.4 2763 19903.4 2769.07 19903.4 2774 19908.3 2774 19914.4Z" stroke="#4472C4" stroke-width="3.4375" stroke-linejoin="round" stroke-miterlimit="10" fill="#4472C4"/><path d="M2777 19911.4C2777 19917.5 2772.07 19922.4 2766 19922.4 2759.92 19922.4 2755 19917.5 2755 19911.4 2755 19905.3 2759.92 19900.4 2766 19900.4 2772.07 19900.4 2777 19905.3 2777 19911.4Z" stroke="#4472C4" stroke-width="3.4375" stroke-linejoin="round" stroke-miterlimit="10" fill="#4472C4"/><path d="M2781 19894.4C2781 19900.5 2776.07 19905.4 2770 19905.4 2763.92 19905.4 2759 19900.5 2759 19894.4 2759 19888.3 2763.92 19883.4 2770 19883.4 2776.07 19883.4 2781 19888.3 2781 19894.4Z" stroke="#4472C4" stroke-width="3.4375" stroke-linejoin="round" stroke-miterlimit="10" fill="#4472C4"/><path d="M2785 19893.4C2785 19899.5 2780.07 19904.4 2774 19904.4 2767.92 19904.4 2763 19899.5 2763 19893.4 2763 19887.3 2767.92 19882.4 2774 19882.4 2780.07 19882.4 2785 19887.3 2785 19893.4Z" stroke="#4472C4" stroke-width="3.4375" stroke-linejoin="round" stroke-miterlimit="10" fill="#4472C4"/><path d="M2789 19885.4C2789 19891.5 2784.07 19896.4 2778 19896.4 2771.92 19896.4 2767 19891.5 2767 19885.4 2767 19879.3 2771.92 19874.4 2778 19874.4 2784.07 19874.4 2789 19879.3 2789 19885.4Z" stroke="#4472C4" stroke-width="3.4375" stroke-linejoin="round" stroke-miterlimit="10" fill="#4472C4"/><path d="M2793 19887.4C2793 19893.5 2788.07 19898.4 2782 19898.4 2775.92 19898.4 2771 19893.5 2771 19887.4 2771 19881.3 2775.92 19876.4 2782 19876.4 2788.07 19876.4 2793 19881.3 2793 19887.4Z" stroke="#4472C4" stroke-width="3.4375" stroke-linejoin="round" stroke-miterlimit="10" fill="#4472C4"/><path d="M2797 19882.4C2797 19888.5 2792.07 19893.4 2786 19893.4 2779.92 19893.4 2775 19888.5 2775 19882.4 2775 19876.3 2779.92 19871.4 2786 19871.4 2792.07 19871.4 2797 19876.3 2797 19882.4Z" stroke="#4472C4" stroke-width="3.4375" stroke-linejoin="round" stroke-miterlimit="10" fill="#4472C4"/><path d="M2801 19878.4C2801 19884.5 2796.07 19889.4 2790 19889.4 2783.92 19889.4 2779 19884.5 2779 19878.4 2779 19872.3 2783.92 19867.4 2790 19867.4 2796.07 19867.4 2801 19872.3 2801 19878.4Z" stroke="#4472C4" stroke-width="3.4375" stroke-linejoin="round" stroke-miterlimit="10" fill="#4472C4"/><path d="M2805 19596.4C2805 19602.5 2800.07 19607.4 2794 19607.4 2787.92 19607.4 2783 19602.5 2783 19596.4 2783 19590.3 2787.92 19585.4 2794 19585.4 2800.07 19585.4 2805 19590.3 2805 19596.4Z" stroke="#4472C4" stroke-width="3.4375" stroke-linejoin="round" stroke-miterlimit="10" fill="#4472C4"/><path d="M2809 19662.4C2809 19668.5 2804.07 19673.4 2798 19673.4 2791.92 19673.4 2787 19668.5 2787 19662.4 2787 19656.3 2791.92 19651.4 2798 19651.4 2804.07 19651.4 2809 19656.3 2809 19662.4Z" stroke="#4472C4" stroke-width="3.4375" stroke-linejoin="round" stroke-miterlimit="10" fill="#4472C4"/><path d="M2812 19672.4C2812 19678.5 2807.07 19683.4 2801 19683.4 2794.92 19683.4 2790 19678.5 2790 19672.4 2790 19666.3 2794.92 19661.4 2801 19661.4 2807.07 19661.4 2812 19666.3 2812 19672.4Z" stroke="#4472C4" stroke-width="3.4375" stroke-linejoin="round" stroke-miterlimit="10" fill="#4472C4"/><path d="M2816 19602.4C2816 19608.5 2811.07 19613.4 2805 19613.4 2798.92 19613.4 2794 19608.5 2794 19602.4 2794 19596.3 2798.92 19591.4 2805 19591.4 2811.07 19591.4 2816 19596.3 2816 19602.4Z" stroke="#4472C4" stroke-width="3.4375" stroke-linejoin="round" stroke-miterlimit="10" fill="#4472C4"/><path d="M2820 19651.4C2820 19657.5 2815.07 19662.4 2809 19662.4 2802.92 19662.4 2798 19657.5 2798 19651.4 2798 19645.3 2802.92 19640.4 2809 19640.4 2815.07 19640.4 2820 19645.3 2820 19651.4Z" stroke="#4472C4" stroke-width="3.4375" stroke-linejoin="round" stroke-miterlimit="10" fill="#4472C4"/><path d="M2824 19569.4C2824 19575.5 2819.07 19580.4 2813 19580.4 2806.92 19580.4 2802 19575.5 2802 19569.4 2802 19563.3 2806.92 19558.4 2813 19558.4 2819.07 19558.4 2824 19563.3 2824 19569.4Z" stroke="#4472C4" stroke-width="3.4375" stroke-linejoin="round" stroke-miterlimit="10" fill="#4472C4"/><path d="M2828 19519.4C2828 19525.5 2823.07 19530.4 2817 19530.4 2810.92 19530.4 2806 19525.5 2806 19519.4 2806 19513.3 2810.92 19508.4 2817 19508.4 2823.07 19508.4 2828 19513.3 2828 19519.4Z" stroke="#4472C4" stroke-width="3.4375" stroke-linejoin="round" stroke-miterlimit="10" fill="#4472C4"/><path d="M2832 19607.4C2832 19613.5 2827.07 19618.4 2821 19618.4 2814.92 19618.4 2810 19613.5 2810 19607.4 2810 19601.3 2814.92 19596.4 2821 19596.4 2827.07 19596.4 2832 19601.3 2832 19607.4Z" stroke="#4472C4" stroke-width="3.4375" stroke-linejoin="round" stroke-miterlimit="10" fill="#4472C4"/><path d="M2836 19539.4C2836 19545.5 2831.07 19550.4 2825 19550.4 2818.92 19550.4 2814 19545.5 2814 19539.4 2814 19533.3 2818.92 19528.4 2825 19528.4 2831.07 19528.4 2836 19533.3 2836 19539.4Z" stroke="#4472C4" stroke-width="3.4375" stroke-linejoin="round" stroke-miterlimit="10" fill="#4472C4"/><path d="M2840 19623.4C2840 19629.5 2835.07 19634.4 2829 19634.4 2822.92 19634.4 2818 19629.5 2818 19623.4 2818 19617.3 2822.92 19612.4 2829 19612.4 2835.07 19612.4 2840 19617.3 2840 19623.4Z" stroke="#4472C4" stroke-width="3.4375" stroke-linejoin="round" stroke-miterlimit="10" fill="#4472C4"/><path d="M2844 19569.4C2844 19575.5 2839.07 19580.4 2833 19580.4 2826.92 19580.4 2822 19575.5 2822 19569.4 2822 19563.3 2826.92 19558.4 2833 19558.4 2839.07 19558.4 2844 19563.3 2844 19569.4Z" stroke="#4472C4" stroke-width="3.4375" stroke-linejoin="round" stroke-miterlimit="10" fill="#4472C4"/><path d="M2847 19525.4C2847 19531.5 2842.07 19536.4 2836 19536.4 2829.92 19536.4 2825 19531.5 2825 19525.4 2825 19519.3 2829.92 19514.4 2836 19514.4 2842.07 19514.4 2847 19519.3 2847 19525.4Z" stroke="#4472C4" stroke-width="3.4375" stroke-linejoin="round" stroke-miterlimit="10" fill="#4472C4"/><path d="M2851 19490.4C2851 19496.5 2846.07 19501.4 2840 19501.4 2833.92 19501.4 2829 19496.5 2829 19490.4 2829 19484.3 2833.92 19479.4 2840 19479.4 2846.07 19479.4 2851 19484.3 2851 19490.4Z" stroke="#4472C4" stroke-width="3.4375" stroke-linejoin="round" stroke-miterlimit="10" fill="#4472C4"/><path d="M2855 19572.4C2855 19578.5 2850.07 19583.4 2844 19583.4 2837.92 19583.4 2833 19578.5 2833 19572.4 2833 19566.3 2837.92 19561.4 2844 19561.4 2850.07 19561.4 2855 19566.3 2855 19572.4Z" stroke="#4472C4" stroke-width="3.4375" stroke-linejoin="round" stroke-miterlimit="10" fill="#4472C4"/><path d="M2859 19622.4C2859 19628.5 2854.07 19633.4 2848 19633.4 2841.92 19633.4 2837 19628.5 2837 19622.4 2837 19616.3 2841.92 19611.4 2848 19611.4 2854.07 19611.4 2859 19616.3 2859 19622.4Z" stroke="#4472C4" stroke-width="3.4375" stroke-linejoin="round" stroke-miterlimit="10" fill="#4472C4"/><path d="M2863 19468.4C2863 19474.5 2858.07 19479.4 2852 19479.4 2845.92 19479.4 2841 19474.5 2841 19468.4 2841 19462.3 2845.92 19457.4 2852 19457.4 2858.07 19457.4 2863 19462.3 2863 19468.4Z" stroke="#4472C4" stroke-width="3.4375" stroke-linejoin="round" stroke-miterlimit="10" fill="#4472C4"/><path d="M2867 19469.4C2867 19475.5 2862.07 19480.4 2856 19480.4 2849.92 19480.4 2845 19475.5 2845 19469.4 2845 19463.3 2849.92 19458.4 2856 19458.4 2862.07 19458.4 2867 19463.3 2867 19469.4Z" stroke="#4472C4" stroke-width="3.4375" stroke-linejoin="round" stroke-miterlimit="10" fill="#4472C4"/><path d="M2871 19563.4C2871 19569.5 2866.07 19574.4 2860 19574.4 2853.92 19574.4 2849 19569.5 2849 19563.4 2849 19557.3 2853.92 19552.4 2860 19552.4 2866.07 19552.4 2871 19557.3 2871 19563.4Z" stroke="#4472C4" stroke-width="3.4375" stroke-linejoin="round" stroke-miterlimit="10" fill="#4472C4"/><path d="M2875 19513.4C2875 19519.5 2870.07 19524.4 2864 19524.4 2857.92 19524.4 2853 19519.5 2853 19513.4 2853 19507.3 2857.92 19502.4 2864 19502.4 2870.07 19502.4 2875 19507.3 2875 19513.4Z" stroke="#4472C4" stroke-width="3.4375" stroke-linejoin="round" stroke-miterlimit="10" fill="#4472C4"/><path d="M2879 19501.4C2879 19507.5 2874.07 19512.4 2868 19512.4 2861.92 19512.4 2857 19507.5 2857 19501.4 2857 19495.3 2861.92 19490.4 2868 19490.4 2874.07 19490.4 2879 19495.3 2879 19501.4Z" stroke="#4472C4" stroke-width="3.4375" stroke-linejoin="round" stroke-miterlimit="10" fill="#4472C4"/><path d="M2883 19550.4C2883 19556.5 2878.07 19561.4 2872 19561.4 2865.92 19561.4 2861 19556.5 2861 19550.4 2861 19544.3 2865.92 19539.4 2872 19539.4 2878.07 19539.4 2883 19544.3 2883 19550.4Z" stroke="#4472C4" stroke-width="3.4375" stroke-linejoin="round" stroke-miterlimit="10" fill="#4472C4"/><path d="M2886 19554.4C2886 19560.5 2881.07 19565.4 2875 19565.4 2868.92 19565.4 2864 19560.5 2864 19554.4 2864 19548.3 2868.92 19543.4 2875 19543.4 2881.07 19543.4 2886 19548.3 2886 19554.4Z" stroke="#4472C4" stroke-width="3.4375" stroke-linejoin="round" stroke-miterlimit="10" fill="#4472C4"/><path d="M2890 19577.4C2890 19583.5 2885.07 19588.4 2879 19588.4 2872.92 19588.4 2868 19583.5 2868 19577.4 2868 19571.3 2872.92 19566.4 2879 19566.4 2885.07 19566.4 2890 19571.3 2890 19577.4Z" stroke="#4472C4" stroke-width="3.4375" stroke-linejoin="round" stroke-miterlimit="10" fill="#4472C4"/><path d="M2894 19515.4C2894 19521.5 2889.07 19526.4 2883 19526.4 2876.92 19526.4 2872 19521.5 2872 19515.4 2872 19509.3 2876.92 19504.4 2883 19504.4 2889.07 19504.4 2894 19509.3 2894 19515.4Z" stroke="#4472C4" stroke-width="3.4375" stroke-linejoin="round" stroke-miterlimit="10" fill="#4472C4"/><path d="M2898 19556.4C2898 19562.5 2893.07 19567.4 2887 19567.4 2880.92 19567.4 2876 19562.5 2876 19556.4 2876 19550.3 2880.92 19545.4 2887 19545.4 2893.07 19545.4 2898 19550.3 2898 19556.4Z" stroke="#4472C4" stroke-width="3.4375" stroke-linejoin="round" stroke-miterlimit="10" fill="#4472C4"/><path d="M2902 19870.4C2902 19876.5 2897.07 19881.4 2891 19881.4 2884.92 19881.4 2880 19876.5 2880 19870.4 2880 19864.3 2884.92 19859.4 2891 19859.4 2897.07 19859.4 2902 19864.3 2902 19870.4Z" stroke="#4472C4" stroke-width="3.4375" stroke-linejoin="round" stroke-miterlimit="10" fill="#4472C4"/><path d="M2906 19884.4C2906 19890.5 2901.07 19895.4 2895 19895.4 2888.92 19895.4 2884 19890.5 2884 19884.4 2884 19878.3 2888.92 19873.4 2895 19873.4 2901.07 19873.4 2906 19878.3 2906 19884.4Z" stroke="#4472C4" stroke-width="3.4375" stroke-linejoin="round" stroke-miterlimit="10" fill="#4472C4"/><path d="M2910 19885.4C2910 19891.5 2905.07 19896.4 2899 19896.4 2892.92 19896.4 2888 19891.5 2888 19885.4 2888 19879.3 2892.92 19874.4 2899 19874.4 2905.07 19874.4 2910 19879.3 2910 19885.4Z" stroke="#4472C4" stroke-width="3.4375" stroke-linejoin="round" stroke-miterlimit="10" fill="#4472C4"/><path d="M2914 19893.4C2914 19899.5 2909.07 19904.4 2903 19904.4 2896.92 19904.4 2892 19899.5 2892 19893.4 2892 19887.3 2896.92 19882.4 2903 19882.4 2909.07 19882.4 2914 19887.3 2914 19893.4Z" stroke="#4472C4" stroke-width="3.4375" stroke-linejoin="round" stroke-miterlimit="10" fill="#4472C4"/><path d="M2918 19892.4C2918 19898.5 2913.07 19903.4 2907 19903.4 2900.92 19903.4 2896 19898.5 2896 19892.4 2896 19886.3 2900.92 19881.4 2907 19881.4 2913.07 19881.4 2918 19886.3 2918 19892.4Z" stroke="#4472C4" stroke-width="3.4375" stroke-linejoin="round" stroke-miterlimit="10" fill="#4472C4"/><path d="M2921 19884.4C2921 19890.5 2916.07 19895.4 2910 19895.4 2903.92 19895.4 2899 19890.5 2899 19884.4 2899 19878.3 2903.92 19873.4 2910 19873.4 2916.07 19873.4 2921 19878.3 2921 19884.4Z" stroke="#4472C4" stroke-width="3.4375" stroke-linejoin="round" stroke-miterlimit="10" fill="#4472C4"/><path d="M2925 19889.4C2925 19895.5 2920.07 19900.4 2914 19900.4 2907.92 19900.4 2903 19895.5 2903 19889.4 2903 19883.3 2907.92 19878.4 2914 19878.4 2920.07 19878.4 2925 19883.3 2925 19889.4Z" stroke="#4472C4" stroke-width="3.4375" stroke-linejoin="round" stroke-miterlimit="10" fill="#4472C4"/><path d="M2929 19895.4C2929 19901.5 2924.07 19906.4 2918 19906.4 2911.92 19906.4 2907 19901.5 2907 19895.4 2907 19889.3 2911.92 19884.4 2918 19884.4 2924.07 19884.4 2929 19889.3 2929 19895.4Z" stroke="#4472C4" stroke-width="3.4375" stroke-linejoin="round" stroke-miterlimit="10" fill="#4472C4"/><path d="M2933 19898.4C2933 19904.5 2928.07 19909.4 2922 19909.4 2915.92 19909.4 2911 19904.5 2911 19898.4 2911 19892.3 2915.92 19887.4 2922 19887.4 2928.07 19887.4 2933 19892.3 2933 19898.4Z" stroke="#4472C4" stroke-width="3.4375" stroke-linejoin="round" stroke-miterlimit="10" fill="#4472C4"/><path d="M2937 19886.4C2937 19892.5 2932.07 19897.4 2926 19897.4 2919.92 19897.4 2915 19892.5 2915 19886.4 2915 19880.3 2919.92 19875.4 2926 19875.4 2932.07 19875.4 2937 19880.3 2937 19886.4Z" stroke="#4472C4" stroke-width="3.4375" stroke-linejoin="round" stroke-miterlimit="10" fill="#4472C4"/><path d="M2941 19887.4C2941 19893.5 2936.07 19898.4 2930 19898.4 2923.92 19898.4 2919 19893.5 2919 19887.4 2919 19881.3 2923.92 19876.4 2930 19876.4 2936.07 19876.4 2941 19881.3 2941 19887.4Z" stroke="#4472C4" stroke-width="3.4375" stroke-linejoin="round" stroke-miterlimit="10" fill="#4472C4"/><path d="M2945 19880.4C2945 19886.5 2940.07 19891.4 2934 19891.4 2927.92 19891.4 2923 19886.5 2923 19880.4 2923 19874.3 2927.92 19869.4 2934 19869.4 2940.07 19869.4 2945 19874.3 2945 19880.4Z" stroke="#4472C4" stroke-width="3.4375" stroke-linejoin="round" stroke-miterlimit="10" fill="#4472C4"/><path d="M2949 19885.4C2949 19891.5 2944.07 19896.4 2938 19896.4 2931.92 19896.4 2927 19891.5 2927 19885.4 2927 19879.3 2931.92 19874.4 2938 19874.4 2944.07 19874.4 2949 19879.3 2949 19885.4Z" stroke="#4472C4" stroke-width="3.4375" stroke-linejoin="round" stroke-miterlimit="10" fill="#4472C4"/><path d="M2953 19895.4C2953 19901.5 2948.07 19906.4 2942 19906.4 2935.92 19906.4 2931 19901.5 2931 19895.4 2931 19889.3 2935.92 19884.4 2942 19884.4 2948.07 19884.4 2953 19889.3 2953 19895.4Z" stroke="#4472C4" stroke-width="3.4375" stroke-linejoin="round" stroke-miterlimit="10" fill="#4472C4"/><path d="M2956 19890.4C2956 19896.5 2951.07 19901.4 2945 19901.4 2938.92 19901.4 2934 19896.5 2934 19890.4 2934 19884.3 2938.92 19879.4 2945 19879.4 2951.07 19879.4 2956 19884.3 2956 19890.4Z" stroke="#4472C4" stroke-width="3.4375" stroke-linejoin="round" stroke-miterlimit="10" fill="#4472C4"/><path d="M2960 19879.4C2960 19885.5 2955.07 19890.4 2949 19890.4 2942.92 19890.4 2938 19885.5 2938 19879.4 2938 19873.3 2942.92 19868.4 2949 19868.4 2955.07 19868.4 2960 19873.3 2960 19879.4Z" stroke="#4472C4" stroke-width="3.4375" stroke-linejoin="round" stroke-miterlimit="10" fill="#4472C4"/><path d="M2964 19888.4C2964 19894.5 2959.07 19899.4 2953 19899.4 2946.92 19899.4 2942 19894.5 2942 19888.4 2942 19882.3 2946.92 19877.4 2953 19877.4 2959.07 19877.4 2964 19882.3 2964 19888.4Z" stroke="#4472C4" stroke-width="3.4375" stroke-linejoin="round" stroke-miterlimit="10" fill="#4472C4"/><path d="M2968 19887.4C2968 19893.5 2963.07 19898.4 2957 19898.4 2950.92 19898.4 2946 19893.5 2946 19887.4 2946 19881.3 2950.92 19876.4 2957 19876.4 2963.07 19876.4 2968 19881.3 2968 19887.4Z" stroke="#4472C4" stroke-width="3.4375" stroke-linejoin="round" stroke-miterlimit="10" fill="#4472C4"/><path d="M2972 19887.4C2972 19893.5 2967.07 19898.4 2961 19898.4 2954.92 19898.4 2950 19893.5 2950 19887.4 2950 19881.3 2954.92 19876.4 2961 19876.4 2967.07 19876.4 2972 19881.3 2972 19887.4Z" stroke="#4472C4" stroke-width="3.4375" stroke-linejoin="round" stroke-miterlimit="10" fill="#4472C4"/><path d="M2976 19880.4C2976 19886.5 2971.07 19891.4 2965 19891.4 2958.92 19891.4 2954 19886.5 2954 19880.4 2954 19874.3 2958.92 19869.4 2965 19869.4 2971.07 19869.4 2976 19874.3 2976 19880.4Z" stroke="#4472C4" stroke-width="3.4375" stroke-linejoin="round" stroke-miterlimit="10" fill="#4472C4"/><path d="M2980 19891.4C2980 19897.5 2975.07 19902.4 2969 19902.4 2962.92 19902.4 2958 19897.5 2958 19891.4 2958 19885.3 2962.92 19880.4 2969 19880.4 2975.07 19880.4 2980 19885.3 2980 19891.4Z" stroke="#4472C4" stroke-width="3.4375" stroke-linejoin="round" stroke-miterlimit="10" fill="#4472C4"/><path d="M2984 19889.4C2984 19895.5 2979.07 19900.4 2973 19900.4 2966.92 19900.4 2962 19895.5 2962 19889.4 2962 19883.3 2966.92 19878.4 2973 19878.4 2979.07 19878.4 2984 19883.3 2984 19889.4Z" stroke="#4472C4" stroke-width="3.4375" stroke-linejoin="round" stroke-miterlimit="10" fill="#4472C4"/><path d="M2988 19892.4C2988 19898.5 2983.07 19903.4 2977 19903.4 2970.92 19903.4 2966 19898.5 2966 19892.4 2966 19886.3 2970.92 19881.4 2977 19881.4 2983.07 19881.4 2988 19886.3 2988 19892.4Z" stroke="#4472C4" stroke-width="3.4375" stroke-linejoin="round" stroke-miterlimit="10" fill="#4472C4"/><path d="M2991 19890.4C2991 19896.5 2986.07 19901.4 2980 19901.4 2973.92 19901.4 2969 19896.5 2969 19890.4 2969 19884.3 2973.92 19879.4 2980 19879.4 2986.07 19879.4 2991 19884.3 2991 19890.4Z" stroke="#4472C4" stroke-width="3.4375" stroke-linejoin="round" stroke-miterlimit="10" fill="#4472C4"/><path d="M2995 19888.4C2995 19894.5 2990.07 19899.4 2984 19899.4 2977.92 19899.4 2973 19894.5 2973 19888.4 2973 19882.3 2977.92 19877.4 2984 19877.4 2990.07 19877.4 2995 19882.3 2995 19888.4Z" stroke="#4472C4" stroke-width="3.4375" stroke-linejoin="round" stroke-miterlimit="10" fill="#4472C4"/><path d="M2999 19859.4C2999 19865.5 2994.07 19870.4 2988 19870.4 2981.92 19870.4 2977 19865.5 2977 19859.4 2977 19853.3 2981.92 19848.4 2988 19848.4 2994.07 19848.4 2999 19853.3 2999 19859.4Z" stroke="#4472C4" stroke-width="3.4375" stroke-linejoin="round" stroke-miterlimit="10" fill="#4472C4"/><path d="M3003 19827.4C3003 19833.5 2998.07 19838.4 2992 19838.4 2985.92 19838.4 2981 19833.5 2981 19827.4 2981 19821.3 2985.92 19816.4 2992 19816.4 2998.07 19816.4 3003 19821.3 3003 19827.4Z" stroke="#4472C4" stroke-width="3.4375" stroke-linejoin="round" stroke-miterlimit="10" fill="#4472C4"/><path d="M3007 19775.4C3007 19781.5 3002.07 19786.4 2996 19786.4 2989.92 19786.4 2985 19781.5 2985 19775.4 2985 19769.3 2989.92 19764.4 2996 19764.4 3002.07 19764.4 3007 19769.3 3007 19775.4Z" stroke="#4472C4" stroke-width="3.4375" stroke-linejoin="round" stroke-miterlimit="10" fill="#4472C4"/><path d="M3011 19753.4C3011 19759.5 3006.07 19764.4 3000 19764.4 2993.92 19764.4 2989 19759.5 2989 19753.4 2989 19747.3 2993.92 19742.4 3000 19742.4 3006.07 19742.4 3011 19747.3 3011 19753.4Z" stroke="#4472C4" stroke-width="3.4375" stroke-linejoin="round" stroke-miterlimit="10" fill="#4472C4"/><path d="M3015 19700.4C3015 19706.5 3010.07 19711.4 3004 19711.4 2997.92 19711.4 2993 19706.5 2993 19700.4 2993 19694.3 2997.92 19689.4 3004 19689.4 3010.07 19689.4 3015 19694.3 3015 19700.4Z" stroke="#4472C4" stroke-width="3.4375" stroke-linejoin="round" stroke-miterlimit="10" fill="#4472C4"/><path d="M3019 19721.4C3019 19727.5 3014.07 19732.4 3008 19732.4 3001.92 19732.4 2997 19727.5 2997 19721.4 2997 19715.3 3001.92 19710.4 3008 19710.4 3014.07 19710.4 3019 19715.3 3019 19721.4Z" stroke="#4472C4" stroke-width="3.4375" stroke-linejoin="round" stroke-miterlimit="10" fill="#4472C4"/><path d="M3023 19644.4C3023 19650.5 3018.07 19655.4 3012 19655.4 3005.92 19655.4 3001 19650.5 3001 19644.4 3001 19638.3 3005.92 19633.4 3012 19633.4 3018.07 19633.4 3023 19638.3 3023 19644.4Z" stroke="#4472C4" stroke-width="3.4375" stroke-linejoin="round" stroke-miterlimit="10" fill="#4472C4"/><path d="M3027 19655.4C3027 19661.5 3022.07 19666.4 3016 19666.4 3009.92 19666.4 3005 19661.5 3005 19655.4 3005 19649.3 3009.92 19644.4 3016 19644.4 3022.07 19644.4 3027 19649.3 3027 19655.4Z" stroke="#4472C4" stroke-width="3.4375" stroke-linejoin="round" stroke-miterlimit="10" fill="#4472C4"/><path d="M3030 19697.4C3030 19703.5 3025.07 19708.4 3019 19708.4 3012.92 19708.4 3008 19703.5 3008 19697.4 3008 19691.3 3012.92 19686.4 3019 19686.4 3025.07 19686.4 3030 19691.3 3030 19697.4Z" stroke="#4472C4" stroke-width="3.4375" stroke-linejoin="round" stroke-miterlimit="10" fill="#4472C4"/><path d="M3034 19656.4C3034 19662.5 3029.07 19667.4 3023 19667.4 3016.92 19667.4 3012 19662.5 3012 19656.4 3012 19650.3 3016.92 19645.4 3023 19645.4 3029.07 19645.4 3034 19650.3 3034 19656.4Z" stroke="#4472C4" stroke-width="3.4375" stroke-linejoin="round" stroke-miterlimit="10" fill="#4472C4"/><path d="M3038 19558.4C3038 19564.5 3033.07 19569.4 3027 19569.4 3020.92 19569.4 3016 19564.5 3016 19558.4 3016 19552.3 3020.92 19547.4 3027 19547.4 3033.07 19547.4 3038 19552.3 3038 19558.4Z" stroke="#4472C4" stroke-width="3.4375" stroke-linejoin="round" stroke-miterlimit="10" fill="#4472C4"/><path d="M3042 19511.4C3042 19517.5 3037.07 19522.4 3031 19522.4 3024.92 19522.4 3020 19517.5 3020 19511.4 3020 19505.3 3024.92 19500.4 3031 19500.4 3037.07 19500.4 3042 19505.3 3042 19511.4Z" stroke="#4472C4" stroke-width="3.4375" stroke-linejoin="round" stroke-miterlimit="10" fill="#4472C4"/><path d="M3046 19493.4C3046 19499.5 3041.07 19504.4 3035 19504.4 3028.92 19504.4 3024 19499.5 3024 19493.4 3024 19487.3 3028.92 19482.4 3035 19482.4 3041.07 19482.4 3046 19487.3 3046 19493.4Z" stroke="#4472C4" stroke-width="3.4375" stroke-linejoin="round" stroke-miterlimit="10" fill="#4472C4"/><path d="M3050 19551.4C3050 19557.5 3045.07 19562.4 3039 19562.4 3032.92 19562.4 3028 19557.5 3028 19551.4 3028 19545.3 3032.92 19540.4 3039 19540.4 3045.07 19540.4 3050 19545.3 3050 19551.4Z" stroke="#4472C4" stroke-width="3.4375" stroke-linejoin="round" stroke-miterlimit="10" fill="#4472C4"/><path d="M3054 19617.4C3054 19623.5 3049.07 19628.4 3043 19628.4 3036.92 19628.4 3032 19623.5 3032 19617.4 3032 19611.3 3036.92 19606.4 3043 19606.4 3049.07 19606.4 3054 19611.3 3054 19617.4Z" stroke="#4472C4" stroke-width="3.4375" stroke-linejoin="round" stroke-miterlimit="10" fill="#4472C4"/><path d="M3058 19411.4C3058 19417.5 3053.07 19422.4 3047 19422.4 3040.92 19422.4 3036 19417.5 3036 19411.4 3036 19405.3 3040.92 19400.4 3047 19400.4 3053.07 19400.4 3058 19405.3 3058 19411.4Z" stroke="#4472C4" stroke-width="3.4375" stroke-linejoin="round" stroke-miterlimit="10" fill="#4472C4"/><path d="M3062 19329.4C3062 19335.5 3057.07 19340.4 3051 19340.4 3044.92 19340.4 3040 19335.5 3040 19329.4 3040 19323.3 3044.92 19318.4 3051 19318.4 3057.07 19318.4 3062 19323.3 3062 19329.4Z" stroke="#4472C4" stroke-width="3.4375" stroke-linejoin="round" stroke-miterlimit="10" fill="#4472C4"/><path d="M3065 19455.4C3065 19461.5 3060.07 19466.4 3054 19466.4 3047.92 19466.4 3043 19461.5 3043 19455.4 3043 19449.3 3047.92 19444.4 3054 19444.4 3060.07 19444.4 3065 19449.3 3065 19455.4Z" stroke="#4472C4" stroke-width="3.4375" stroke-linejoin="round" stroke-miterlimit="10" fill="#4472C4"/><path d="M3069 19339.4C3069 19345.5 3064.07 19350.4 3058 19350.4 3051.92 19350.4 3047 19345.5 3047 19339.4 3047 19333.3 3051.92 19328.4 3058 19328.4 3064.07 19328.4 3069 19333.3 3069 19339.4Z" stroke="#4472C4" stroke-width="3.4375" stroke-linejoin="round" stroke-miterlimit="10" fill="#4472C4"/><path d="M3073 19409.4C3073 19415.5 3068.07 19420.4 3062 19420.4 3055.92 19420.4 3051 19415.5 3051 19409.4 3051 19403.3 3055.92 19398.4 3062 19398.4 3068.07 19398.4 3073 19403.3 3073 19409.4Z" stroke="#4472C4" stroke-width="3.4375" stroke-linejoin="round" stroke-miterlimit="10" fill="#4472C4"/><path d="M3077 19679.4C3077 19685.5 3072.07 19690.4 3066 19690.4 3059.92 19690.4 3055 19685.5 3055 19679.4 3055 19673.3 3059.92 19668.4 3066 19668.4 3072.07 19668.4 3077 19673.3 3077 19679.4Z" stroke="#4472C4" stroke-width="3.4375" stroke-linejoin="round" stroke-miterlimit="10" fill="#4472C4"/><path d="M3081 19567.4C3081 19573.5 3076.07 19578.4 3070 19578.4 3063.92 19578.4 3059 19573.5 3059 19567.4 3059 19561.3 3063.92 19556.4 3070 19556.4 3076.07 19556.4 3081 19561.3 3081 19567.4Z" stroke="#4472C4" stroke-width="3.4375" stroke-linejoin="round" stroke-miterlimit="10" fill="#4472C4"/><path d="M3085 19496.4C3085 19502.5 3080.07 19507.4 3074 19507.4 3067.92 19507.4 3063 19502.5 3063 19496.4 3063 19490.3 3067.92 19485.4 3074 19485.4 3080.07 19485.4 3085 19490.3 3085 19496.4Z" stroke="#4472C4" stroke-width="3.4375" stroke-linejoin="round" stroke-miterlimit="10" fill="#4472C4"/><path d="M3089 19497.4C3089 19503.5 3084.07 19508.4 3078 19508.4 3071.92 19508.4 3067 19503.5 3067 19497.4 3067 19491.3 3071.92 19486.4 3078 19486.4 3084.07 19486.4 3089 19491.3 3089 19497.4Z" stroke="#4472C4" stroke-width="3.4375" stroke-linejoin="round" stroke-miterlimit="10" fill="#4472C4"/><path d="M3093 19343.4C3093 19349.5 3088.07 19354.4 3082 19354.4 3075.92 19354.4 3071 19349.5 3071 19343.4 3071 19337.3 3075.92 19332.4 3082 19332.4 3088.07 19332.4 3093 19337.3 3093 19343.4Z" stroke="#4472C4" stroke-width="3.4375" stroke-linejoin="round" stroke-miterlimit="10" fill="#4472C4"/><path d="M3097 19943.4C3097 19949.5 3092.07 19954.4 3086 19954.4 3079.92 19954.4 3075 19949.5 3075 19943.4 3075 19937.3 3079.92 19932.4 3086 19932.4 3092.07 19932.4 3097 19937.3 3097 19943.4Z" stroke="#4472C4" stroke-width="3.4375" stroke-linejoin="round" stroke-miterlimit="10" fill="#4472C4"/><path d="M3100 19870.4C3100 19876.5 3095.07 19881.4 3089 19881.4 3082.92 19881.4 3078 19876.5 3078 19870.4 3078 19864.3 3082.92 19859.4 3089 19859.4 3095.07 19859.4 3100 19864.3 3100 19870.4Z" stroke="#4472C4" stroke-width="3.4375" stroke-linejoin="round" stroke-miterlimit="10" fill="#4472C4"/><path d="M3104 19863.4C3104 19869.5 3099.07 19874.4 3093 19874.4 3086.92 19874.4 3082 19869.5 3082 19863.4 3082 19857.3 3086.92 19852.4 3093 19852.4 3099.07 19852.4 3104 19857.3 3104 19863.4Z" stroke="#4472C4" stroke-width="3.4375" stroke-linejoin="round" stroke-miterlimit="10" fill="#4472C4"/><path d="M3108 19863.4C3108 19869.5 3103.07 19874.4 3097 19874.4 3090.92 19874.4 3086 19869.5 3086 19863.4 3086 19857.3 3090.92 19852.4 3097 19852.4 3103.07 19852.4 3108 19857.3 3108 19863.4Z" stroke="#4472C4" stroke-width="3.4375" stroke-linejoin="round" stroke-miterlimit="10" fill="#4472C4"/><path d="M3112 19862.4C3112 19868.5 3107.07 19873.4 3101 19873.4 3094.92 19873.4 3090 19868.5 3090 19862.4 3090 19856.3 3094.92 19851.4 3101 19851.4 3107.07 19851.4 3112 19856.3 3112 19862.4Z" stroke="#4472C4" stroke-width="3.4375" stroke-linejoin="round" stroke-miterlimit="10" fill="#4472C4"/><path d="M3116 19861.4C3116 19867.5 3111.07 19872.4 3105 19872.4 3098.92 19872.4 3094 19867.5 3094 19861.4 3094 19855.3 3098.92 19850.4 3105 19850.4 3111.07 19850.4 3116 19855.3 3116 19861.4Z" stroke="#4472C4" stroke-width="3.4375" stroke-linejoin="round" stroke-miterlimit="10" fill="#4472C4"/><path d="M3120 19834.4C3120 19840.5 3115.07 19845.4 3109 19845.4 3102.92 19845.4 3098 19840.5 3098 19834.4 3098 19828.3 3102.92 19823.4 3109 19823.4 3115.07 19823.4 3120 19828.3 3120 19834.4Z" stroke="#4472C4" stroke-width="3.4375" stroke-linejoin="round" stroke-miterlimit="10" fill="#4472C4"/><path d="M3124 19817.4C3124 19823.5 3119.07 19828.4 3113 19828.4 3106.92 19828.4 3102 19823.5 3102 19817.4 3102 19811.3 3106.92 19806.4 3113 19806.4 3119.07 19806.4 3124 19811.3 3124 19817.4Z" stroke="#4472C4" stroke-width="3.4375" stroke-linejoin="round" stroke-miterlimit="10" fill="#4472C4"/><path d="M3128 19807.4C3128 19813.5 3123.07 19818.4 3117 19818.4 3110.92 19818.4 3106 19813.5 3106 19807.4 3106 19801.3 3110.92 19796.4 3117 19796.4 3123.07 19796.4 3128 19801.3 3128 19807.4Z" stroke="#4472C4" stroke-width="3.4375" stroke-linejoin="round" stroke-miterlimit="10" fill="#4472C4"/><path d="M3132 19824.4C3132 19830.5 3127.07 19835.4 3121 19835.4 3114.92 19835.4 3110 19830.5 3110 19824.4 3110 19818.3 3114.92 19813.4 3121 19813.4 3127.07 19813.4 3132 19818.3 3132 19824.4Z" stroke="#4472C4" stroke-width="3.4375" stroke-linejoin="round" stroke-miterlimit="10" fill="#4472C4"/><path d="M3135 19821.4C3135 19827.5 3130.07 19832.4 3124 19832.4 3117.92 19832.4 3113 19827.5 3113 19821.4 3113 19815.3 3117.92 19810.4 3124 19810.4 3130.07 19810.4 3135 19815.3 3135 19821.4Z" stroke="#4472C4" stroke-width="3.4375" stroke-linejoin="round" stroke-miterlimit="10" fill="#4472C4"/><path d="M3139 19819.4C3139 19825.5 3134.07 19830.4 3128 19830.4 3121.92 19830.4 3117 19825.5 3117 19819.4 3117 19813.3 3121.92 19808.4 3128 19808.4 3134.07 19808.4 3139 19813.3 3139 19819.4Z" stroke="#4472C4" stroke-width="3.4375" stroke-linejoin="round" stroke-miterlimit="10" fill="#4472C4"/><path d="M3143 19816.4C3143 19822.5 3138.07 19827.4 3132 19827.4 3125.92 19827.4 3121 19822.5 3121 19816.4 3121 19810.3 3125.92 19805.4 3132 19805.4 3138.07 19805.4 3143 19810.3 3143 19816.4Z" stroke="#4472C4" stroke-width="3.4375" stroke-linejoin="round" stroke-miterlimit="10" fill="#4472C4"/><path d="M3147 19817.4C3147 19823.5 3142.07 19828.4 3136 19828.4 3129.92 19828.4 3125 19823.5 3125 19817.4 3125 19811.3 3129.92 19806.4 3136 19806.4 3142.07 19806.4 3147 19811.3 3147 19817.4Z" stroke="#4472C4" stroke-width="3.4375" stroke-linejoin="round" stroke-miterlimit="10" fill="#4472C4"/><path d="M3151 19821.4C3151 19827.5 3146.07 19832.4 3140 19832.4 3133.92 19832.4 3129 19827.5 3129 19821.4 3129 19815.3 3133.92 19810.4 3140 19810.4 3146.07 19810.4 3151 19815.3 3151 19821.4Z" stroke="#4472C4" stroke-width="3.4375" stroke-linejoin="round" stroke-miterlimit="10" fill="#4472C4"/><path d="M3155 19818.4C3155 19824.5 3150.07 19829.4 3144 19829.4 3137.92 19829.4 3133 19824.5 3133 19818.4 3133 19812.3 3137.92 19807.4 3144 19807.4 3150.07 19807.4 3155 19812.3 3155 19818.4Z" stroke="#4472C4" stroke-width="3.4375" stroke-linejoin="round" stroke-miterlimit="10" fill="#4472C4"/><path d="M3159 19818.4C3159 19824.5 3154.07 19829.4 3148 19829.4 3141.92 19829.4 3137 19824.5 3137 19818.4 3137 19812.3 3141.92 19807.4 3148 19807.4 3154.07 19807.4 3159 19812.3 3159 19818.4Z" stroke="#4472C4" stroke-width="3.4375" stroke-linejoin="round" stroke-miterlimit="10" fill="#4472C4"/><path d="M3163 19814.4C3163 19820.5 3158.07 19825.4 3152 19825.4 3145.92 19825.4 3141 19820.5 3141 19814.4 3141 19808.3 3145.92 19803.4 3152 19803.4 3158.07 19803.4 3163 19808.3 3163 19814.4Z" stroke="#4472C4" stroke-width="3.4375" stroke-linejoin="round" stroke-miterlimit="10" fill="#4472C4"/><path d="M3167 19804.4C3167 19810.5 3162.07 19815.4 3156 19815.4 3149.92 19815.4 3145 19810.5 3145 19804.4 3145 19798.3 3149.92 19793.4 3156 19793.4 3162.07 19793.4 3167 19798.3 3167 19804.4Z" stroke="#4472C4" stroke-width="3.4375" stroke-linejoin="round" stroke-miterlimit="10" fill="#4472C4"/><path d="M3171 19819.4C3171 19825.5 3166.07 19830.4 3160 19830.4 3153.92 19830.4 3149 19825.5 3149 19819.4 3149 19813.3 3153.92 19808.4 3160 19808.4 3166.07 19808.4 3171 19813.3 3171 19819.4Z" stroke="#4472C4" stroke-width="3.4375" stroke-linejoin="round" stroke-miterlimit="10" fill="#4472C4"/><path d="M3174 19826.4C3174 19832.5 3169.07 19837.4 3163 19837.4 3156.92 19837.4 3152 19832.5 3152 19826.4 3152 19820.3 3156.92 19815.4 3163 19815.4 3169.07 19815.4 3174 19820.3 3174 19826.4Z" stroke="#4472C4" stroke-width="3.4375" stroke-linejoin="round" stroke-miterlimit="10" fill="#4472C4"/><path d="M3178 19820.4C3178 19826.5 3173.07 19831.4 3167 19831.4 3160.92 19831.4 3156 19826.5 3156 19820.4 3156 19814.3 3160.92 19809.4 3167 19809.4 3173.07 19809.4 3178 19814.3 3178 19820.4Z" stroke="#4472C4" stroke-width="3.4375" stroke-linejoin="round" stroke-miterlimit="10" fill="#4472C4"/><path d="M3182 19822.4C3182 19828.5 3177.07 19833.4 3171 19833.4 3164.92 19833.4 3160 19828.5 3160 19822.4 3160 19816.3 3164.92 19811.4 3171 19811.4 3177.07 19811.4 3182 19816.3 3182 19822.4Z" stroke="#4472C4" stroke-width="3.4375" stroke-linejoin="round" stroke-miterlimit="10" fill="#4472C4"/><path d="M3186 19818.4C3186 19824.5 3181.07 19829.4 3175 19829.4 3168.92 19829.4 3164 19824.5 3164 19818.4 3164 19812.3 3168.92 19807.4 3175 19807.4 3181.07 19807.4 3186 19812.3 3186 19818.4Z" stroke="#4472C4" stroke-width="3.4375" stroke-linejoin="round" stroke-miterlimit="10" fill="#4472C4"/><path d="M3190 19817.4C3190 19823.5 3185.07 19828.4 3179 19828.4 3172.92 19828.4 3168 19823.5 3168 19817.4 3168 19811.3 3172.92 19806.4 3179 19806.4 3185.07 19806.4 3190 19811.3 3190 19817.4Z" stroke="#4472C4" stroke-width="3.4375" stroke-linejoin="round" stroke-miterlimit="10" fill="#4472C4"/><path d="M3194 19968.4C3194 19974.5 3189.07 19979.4 3183 19979.4 3176.92 19979.4 3172 19974.5 3172 19968.4 3172 19962.3 3176.92 19957.4 3183 19957.4 3189.07 19957.4 3194 19962.3 3194 19968.4Z" stroke="#4472C4" stroke-width="3.4375" stroke-linejoin="round" stroke-miterlimit="10" fill="#4472C4"/><path d="M3198 19913.4C3198 19919.5 3193.07 19924.4 3187 19924.4 3180.92 19924.4 3176 19919.5 3176 19913.4 3176 19907.3 3180.92 19902.4 3187 19902.4 3193.07 19902.4 3198 19907.3 3198 19913.4Z" stroke="#4472C4" stroke-width="3.4375" stroke-linejoin="round" stroke-miterlimit="10" fill="#4472C4"/><path d="M3202 19878.4C3202 19884.5 3197.07 19889.4 3191 19889.4 3184.92 19889.4 3180 19884.5 3180 19878.4 3180 19872.3 3184.92 19867.4 3191 19867.4 3197.07 19867.4 3202 19872.3 3202 19878.4Z" stroke="#4472C4" stroke-width="3.4375" stroke-linejoin="round" stroke-miterlimit="10" fill="#4472C4"/><path d="M3206 19894.4C3206 19900.5 3201.07 19905.4 3195 19905.4 3188.92 19905.4 3184 19900.5 3184 19894.4 3184 19888.3 3188.92 19883.4 3195 19883.4 3201.07 19883.4 3206 19888.3 3206 19894.4Z" stroke="#4472C4" stroke-width="3.4375" stroke-linejoin="round" stroke-miterlimit="10" fill="#4472C4"/><path d="M3209 19887.4C3209 19893.5 3204.07 19898.4 3198 19898.4 3191.92 19898.4 3187 19893.5 3187 19887.4 3187 19881.3 3191.92 19876.4 3198 19876.4 3204.07 19876.4 3209 19881.3 3209 19887.4Z" stroke="#4472C4" stroke-width="3.4375" stroke-linejoin="round" stroke-miterlimit="10" fill="#4472C4"/><path d="M3213 19894.4C3213 19900.5 3208.07 19905.4 3202 19905.4 3195.92 19905.4 3191 19900.5 3191 19894.4 3191 19888.3 3195.92 19883.4 3202 19883.4 3208.07 19883.4 3213 19888.3 3213 19894.4Z" stroke="#4472C4" stroke-width="3.4375" stroke-linejoin="round" stroke-miterlimit="10" fill="#4472C4"/><path d="M3217 19889.4C3217 19895.5 3212.07 19900.4 3206 19900.4 3199.92 19900.4 3195 19895.5 3195 19889.4 3195 19883.3 3199.92 19878.4 3206 19878.4 3212.07 19878.4 3217 19883.3 3217 19889.4Z" stroke="#4472C4" stroke-width="3.4375" stroke-linejoin="round" stroke-miterlimit="10" fill="#4472C4"/><path d="M3221 19897.4C3221 19903.5 3216.07 19908.4 3210 19908.4 3203.92 19908.4 3199 19903.5 3199 19897.4 3199 19891.3 3203.92 19886.4 3210 19886.4 3216.07 19886.4 3221 19891.3 3221 19897.4Z" stroke="#4472C4" stroke-width="3.4375" stroke-linejoin="round" stroke-miterlimit="10" fill="#4472C4"/><path d="M3225 19885.4C3225 19891.5 3220.07 19896.4 3214 19896.4 3207.92 19896.4 3203 19891.5 3203 19885.4 3203 19879.3 3207.92 19874.4 3214 19874.4 3220.07 19874.4 3225 19879.3 3225 19885.4Z" stroke="#4472C4" stroke-width="3.4375" stroke-linejoin="round" stroke-miterlimit="10" fill="#4472C4"/><path d="M3229 19889.4C3229 19895.5 3224.07 19900.4 3218 19900.4 3211.92 19900.4 3207 19895.5 3207 19889.4 3207 19883.3 3211.92 19878.4 3218 19878.4 3224.07 19878.4 3229 19883.3 3229 19889.4Z" stroke="#4472C4" stroke-width="3.4375" stroke-linejoin="round" stroke-miterlimit="10" fill="#4472C4"/><path d="M3233 19894.4C3233 19900.5 3228.07 19905.4 3222 19905.4 3215.92 19905.4 3211 19900.5 3211 19894.4 3211 19888.3 3215.92 19883.4 3222 19883.4 3228.07 19883.4 3233 19888.3 3233 19894.4Z" stroke="#4472C4" stroke-width="3.4375" stroke-linejoin="round" stroke-miterlimit="10" fill="#4472C4"/><path d="M3237 19880.4C3237 19886.5 3232.07 19891.4 3226 19891.4 3219.92 19891.4 3215 19886.5 3215 19880.4 3215 19874.3 3219.92 19869.4 3226 19869.4 3232.07 19869.4 3237 19874.3 3237 19880.4Z" stroke="#4472C4" stroke-width="3.4375" stroke-linejoin="round" stroke-miterlimit="10" fill="#4472C4"/><path d="M3241 19880.4C3241 19886.5 3236.07 19891.4 3230 19891.4 3223.92 19891.4 3219 19886.5 3219 19880.4 3219 19874.3 3223.92 19869.4 3230 19869.4 3236.07 19869.4 3241 19874.3 3241 19880.4Z" stroke="#4472C4" stroke-width="3.4375" stroke-linejoin="round" stroke-miterlimit="10" fill="#4472C4"/><path d="M3244 19887.4C3244 19893.5 3239.07 19898.4 3233 19898.4 3226.92 19898.4 3222 19893.5 3222 19887.4 3222 19881.3 3226.92 19876.4 3233 19876.4 3239.07 19876.4 3244 19881.3 3244 19887.4Z" stroke="#4472C4" stroke-width="3.4375" stroke-linejoin="round" stroke-miterlimit="10" fill="#4472C4"/><path d="M3248 19890.4C3248 19896.5 3243.07 19901.4 3237 19901.4 3230.92 19901.4 3226 19896.5 3226 19890.4 3226 19884.3 3230.92 19879.4 3237 19879.4 3243.07 19879.4 3248 19884.3 3248 19890.4Z" stroke="#4472C4" stroke-width="3.4375" stroke-linejoin="round" stroke-miterlimit="10" fill="#4472C4"/><path d="M3252 19899.4C3252 19905.5 3247.07 19910.4 3241 19910.4 3234.92 19910.4 3230 19905.5 3230 19899.4 3230 19893.3 3234.92 19888.4 3241 19888.4 3247.07 19888.4 3252 19893.3 3252 19899.4Z" stroke="#4472C4" stroke-width="3.4375" stroke-linejoin="round" stroke-miterlimit="10" fill="#4472C4"/><path d="M3256 19902.4C3256 19908.5 3251.07 19913.4 3245 19913.4 3238.92 19913.4 3234 19908.5 3234 19902.4 3234 19896.3 3238.92 19891.4 3245 19891.4 3251.07 19891.4 3256 19896.3 3256 19902.4Z" stroke="#4472C4" stroke-width="3.4375" stroke-linejoin="round" stroke-miterlimit="10" fill="#4472C4"/><path d="M3260 19892.4C3260 19898.5 3255.07 19903.4 3249 19903.4 3242.92 19903.4 3238 19898.5 3238 19892.4 3238 19886.3 3242.92 19881.4 3249 19881.4 3255.07 19881.4 3260 19886.3 3260 19892.4Z" stroke="#4472C4" stroke-width="3.4375" stroke-linejoin="round" stroke-miterlimit="10" fill="#4472C4"/><path d="M3264 19892.4C3264 19898.5 3259.07 19903.4 3253 19903.4 3246.92 19903.4 3242 19898.5 3242 19892.4 3242 19886.3 3246.92 19881.4 3253 19881.4 3259.07 19881.4 3264 19886.3 3264 19892.4Z" stroke="#4472C4" stroke-width="3.4375" stroke-linejoin="round" stroke-miterlimit="10" fill="#4472C4"/><path d="M3268 19901.4C3268 19907.5 3263.07 19912.4 3257 19912.4 3250.92 19912.4 3246 19907.5 3246 19901.4 3246 19895.3 3250.92 19890.4 3257 19890.4 3263.07 19890.4 3268 19895.3 3268 19901.4Z" stroke="#4472C4" stroke-width="3.4375" stroke-linejoin="round" stroke-miterlimit="10" fill="#4472C4"/><path d="M3272 19897.4C3272 19903.5 3267.07 19908.4 3261 19908.4 3254.92 19908.4 3250 19903.5 3250 19897.4 3250 19891.3 3254.92 19886.4 3261 19886.4 3267.07 19886.4 3272 19891.3 3272 19897.4Z" stroke="#4472C4" stroke-width="3.4375" stroke-linejoin="round" stroke-miterlimit="10" fill="#4472C4"/><path d="M3276 19891.4C3276 19897.5 3271.07 19902.4 3265 19902.4 3258.92 19902.4 3254 19897.5 3254 19891.4 3254 19885.3 3258.92 19880.4 3265 19880.4 3271.07 19880.4 3276 19885.3 3276 19891.4Z" stroke="#4472C4" stroke-width="3.4375" stroke-linejoin="round" stroke-miterlimit="10" fill="#4472C4"/><path d="M3279 19890.4C3279 19896.5 3274.07 19901.4 3268 19901.4 3261.92 19901.4 3257 19896.5 3257 19890.4 3257 19884.3 3261.92 19879.4 3268 19879.4 3274.07 19879.4 3279 19884.3 3279 19890.4Z" stroke="#4472C4" stroke-width="3.4375" stroke-linejoin="round" stroke-miterlimit="10" fill="#4472C4"/><path d="M3283 19890.4C3283 19896.5 3278.07 19901.4 3272 19901.4 3265.92 19901.4 3261 19896.5 3261 19890.4 3261 19884.3 3265.92 19879.4 3272 19879.4 3278.07 19879.4 3283 19884.3 3283 19890.4Z" stroke="#4472C4" stroke-width="3.4375" stroke-linejoin="round" stroke-miterlimit="10" fill="#4472C4"/><path d="M3287 19887.4C3287 19893.5 3282.07 19898.4 3276 19898.4 3269.92 19898.4 3265 19893.5 3265 19887.4 3265 19881.3 3269.92 19876.4 3276 19876.4 3282.07 19876.4 3287 19881.3 3287 19887.4Z" stroke="#4472C4" stroke-width="3.4375" stroke-linejoin="round" stroke-miterlimit="10" fill="#4472C4"/><path d="M3291 19863.4C3291 19869.5 3286.07 19874.4 3280 19874.4 3273.92 19874.4 3269 19869.5 3269 19863.4 3269 19857.3 3273.92 19852.4 3280 19852.4 3286.07 19852.4 3291 19857.3 3291 19863.4Z" stroke="#4472C4" stroke-width="3.4375" stroke-linejoin="round" stroke-miterlimit="10" fill="#4472C4"/><path d="M3295 19857.4C3295 19863.5 3290.07 19868.4 3284 19868.4 3277.92 19868.4 3273 19863.5 3273 19857.4 3273 19851.3 3277.92 19846.4 3284 19846.4 3290.07 19846.4 3295 19851.3 3295 19857.4Z" stroke="#4472C4" stroke-width="3.4375" stroke-linejoin="round" stroke-miterlimit="10" fill="#4472C4"/><path d="M3299 19846.4C3299 19852.5 3294.07 19857.4 3288 19857.4 3281.92 19857.4 3277 19852.5 3277 19846.4 3277 19840.3 3281.92 19835.4 3288 19835.4 3294.07 19835.4 3299 19840.3 3299 19846.4Z" stroke="#4472C4" stroke-width="3.4375" stroke-linejoin="round" stroke-miterlimit="10" fill="#4472C4"/><path d="M3303 19817.4C3303 19823.5 3298.07 19828.4 3292 19828.4 3285.92 19828.4 3281 19823.5 3281 19817.4 3281 19811.3 3285.92 19806.4 3292 19806.4 3298.07 19806.4 3303 19811.3 3303 19817.4Z" stroke="#4472C4" stroke-width="3.4375" stroke-linejoin="round" stroke-miterlimit="10" fill="#4472C4"/><path d="M3307 19768.4C3307 19774.5 3302.07 19779.4 3296 19779.4 3289.92 19779.4 3285 19774.5 3285 19768.4 3285 19762.3 3289.92 19757.4 3296 19757.4 3302.07 19757.4 3307 19762.3 3307 19768.4Z" stroke="#4472C4" stroke-width="3.4375" stroke-linejoin="round" stroke-miterlimit="10" fill="#4472C4"/><path d="M3311 19782.4C3311 19788.5 3306.07 19793.4 3300 19793.4 3293.92 19793.4 3289 19788.5 3289 19782.4 3289 19776.3 3293.92 19771.4 3300 19771.4 3306.07 19771.4 3311 19776.3 3311 19782.4Z" stroke="#4472C4" stroke-width="3.4375" stroke-linejoin="round" stroke-miterlimit="10" fill="#4472C4"/><path d="M3315 19680.4C3315 19686.5 3310.07 19691.4 3304 19691.4 3297.92 19691.4 3293 19686.5 3293 19680.4 3293 19674.3 3297.92 19669.4 3304 19669.4 3310.07 19669.4 3315 19674.3 3315 19680.4Z" stroke="#4472C4" stroke-width="3.4375" stroke-linejoin="round" stroke-miterlimit="10" fill="#4472C4"/><path d="M3318 19727.4C3318 19733.5 3313.07 19738.4 3307 19738.4 3300.92 19738.4 3296 19733.5 3296 19727.4 3296 19721.3 3300.92 19716.4 3307 19716.4 3313.07 19716.4 3318 19721.3 3318 19727.4Z" stroke="#4472C4" stroke-width="3.4375" stroke-linejoin="round" stroke-miterlimit="10" fill="#4472C4"/><path d="M3322 19613.4C3322 19619.5 3317.07 19624.4 3311 19624.4 3304.92 19624.4 3300 19619.5 3300 19613.4 3300 19607.3 3304.92 19602.4 3311 19602.4 3317.07 19602.4 3322 19607.3 3322 19613.4Z" stroke="#4472C4" stroke-width="3.4375" stroke-linejoin="round" stroke-miterlimit="10" fill="#4472C4"/><path d="M3326 19516.4C3326 19522.5 3321.07 19527.4 3315 19527.4 3308.92 19527.4 3304 19522.5 3304 19516.4 3304 19510.3 3308.92 19505.4 3315 19505.4 3321.07 19505.4 3326 19510.3 3326 19516.4Z" stroke="#4472C4" stroke-width="3.4375" stroke-linejoin="round" stroke-miterlimit="10" fill="#4472C4"/><path d="M3330 19599.4C3330 19605.5 3325.07 19610.4 3319 19610.4 3312.92 19610.4 3308 19605.5 3308 19599.4 3308 19593.3 3312.92 19588.4 3319 19588.4 3325.07 19588.4 3330 19593.3 3330 19599.4Z" stroke="#4472C4" stroke-width="3.4375" stroke-linejoin="round" stroke-miterlimit="10" fill="#4472C4"/><path d="M3334 19614.4C3334 19620.5 3329.07 19625.4 3323 19625.4 3316.92 19625.4 3312 19620.5 3312 19614.4 3312 19608.3 3316.92 19603.4 3323 19603.4 3329.07 19603.4 3334 19608.3 3334 19614.4Z" stroke="#4472C4" stroke-width="3.4375" stroke-linejoin="round" stroke-miterlimit="10" fill="#4472C4"/><path d="M3338 19661.4C3338 19667.5 3333.07 19672.4 3327 19672.4 3320.92 19672.4 3316 19667.5 3316 19661.4 3316 19655.3 3320.92 19650.4 3327 19650.4 3333.07 19650.4 3338 19655.3 3338 19661.4Z" stroke="#4472C4" stroke-width="3.4375" stroke-linejoin="round" stroke-miterlimit="10" fill="#4472C4"/><path d="M3342 19689.4C3342 19695.5 3337.07 19700.4 3331 19700.4 3324.92 19700.4 3320 19695.5 3320 19689.4 3320 19683.3 3324.92 19678.4 3331 19678.4 3337.07 19678.4 3342 19683.3 3342 19689.4Z" stroke="#4472C4" stroke-width="3.4375" stroke-linejoin="round" stroke-miterlimit="10" fill="#4472C4"/><path d="M3346 19569.4C3346 19575.5 3341.07 19580.4 3335 19580.4 3328.92 19580.4 3324 19575.5 3324 19569.4 3324 19563.3 3328.92 19558.4 3335 19558.4 3341.07 19558.4 3346 19563.3 3346 19569.4Z" stroke="#4472C4" stroke-width="3.4375" stroke-linejoin="round" stroke-miterlimit="10" fill="#4472C4"/><path d="M3350 19643.4C3350 19649.5 3345.07 19654.4 3339 19654.4 3332.92 19654.4 3328 19649.5 3328 19643.4 3328 19637.3 3332.92 19632.4 3339 19632.4 3345.07 19632.4 3350 19637.3 3350 19643.4Z" stroke="#4472C4" stroke-width="3.4375" stroke-linejoin="round" stroke-miterlimit="10" fill="#4472C4"/><path d="M3353 19607.4C3353 19613.5 3348.07 19618.4 3342 19618.4 3335.92 19618.4 3331 19613.5 3331 19607.4 3331 19601.3 3335.92 19596.4 3342 19596.4 3348.07 19596.4 3353 19601.3 3353 19607.4Z" stroke="#4472C4" stroke-width="3.4375" stroke-linejoin="round" stroke-miterlimit="10" fill="#4472C4"/><path d="M3357 19659.4C3357 19665.5 3352.07 19670.4 3346 19670.4 3339.92 19670.4 3335 19665.5 3335 19659.4 3335 19653.3 3339.92 19648.4 3346 19648.4 3352.07 19648.4 3357 19653.3 3357 19659.4Z" stroke="#4472C4" stroke-width="3.4375" stroke-linejoin="round" stroke-miterlimit="10" fill="#4472C4"/><path d="M3361 19646.4C3361 19652.5 3356.07 19657.4 3350 19657.4 3343.92 19657.4 3339 19652.5 3339 19646.4 3339 19640.3 3343.92 19635.4 3350 19635.4 3356.07 19635.4 3361 19640.3 3361 19646.4Z" stroke="#4472C4" stroke-width="3.4375" stroke-linejoin="round" stroke-miterlimit="10" fill="#4472C4"/><path d="M3365 19738.4C3365 19744.5 3360.07 19749.4 3354 19749.4 3347.92 19749.4 3343 19744.5 3343 19738.4 3343 19732.3 3347.92 19727.4 3354 19727.4 3360.07 19727.4 3365 19732.3 3365 19738.4Z" stroke="#4472C4" stroke-width="3.4375" stroke-linejoin="round" stroke-miterlimit="10" fill="#4472C4"/><path d="M3369 19494.4C3369 19500.5 3364.07 19505.4 3358 19505.4 3351.92 19505.4 3347 19500.5 3347 19494.4 3347 19488.3 3351.92 19483.4 3358 19483.4 3364.07 19483.4 3369 19488.3 3369 19494.4Z" stroke="#4472C4" stroke-width="3.4375" stroke-linejoin="round" stroke-miterlimit="10" fill="#4472C4"/><path d="M3373 19597.4C3373 19603.5 3368.07 19608.4 3362 19608.4 3355.92 19608.4 3351 19603.5 3351 19597.4 3351 19591.3 3355.92 19586.4 3362 19586.4 3368.07 19586.4 3373 19591.3 3373 19597.4Z" stroke="#4472C4" stroke-width="3.4375" stroke-linejoin="round" stroke-miterlimit="10" fill="#4472C4"/><path d="M3377 19602.4C3377 19608.5 3372.07 19613.4 3366 19613.4 3359.92 19613.4 3355 19608.5 3355 19602.4 3355 19596.3 3359.92 19591.4 3366 19591.4 3372.07 19591.4 3377 19596.3 3377 19602.4Z" stroke="#4472C4" stroke-width="3.4375" stroke-linejoin="round" stroke-miterlimit="10" fill="#4472C4"/><path d="M3381 19524.4C3381 19530.5 3376.07 19535.4 3370 19535.4 3363.92 19535.4 3359 19530.5 3359 19524.4 3359 19518.3 3363.92 19513.4 3370 19513.4 3376.07 19513.4 3381 19518.3 3381 19524.4Z" stroke="#4472C4" stroke-width="3.4375" stroke-linejoin="round" stroke-miterlimit="10" fill="#4472C4"/><path d="M3385 19651.4C3385 19657.5 3380.07 19662.4 3374 19662.4 3367.92 19662.4 3363 19657.5 3363 19651.4 3363 19645.3 3367.92 19640.4 3374 19640.4 3380.07 19640.4 3385 19645.3 3385 19651.4Z" stroke="#4472C4" stroke-width="3.4375" stroke-linejoin="round" stroke-miterlimit="10" fill="#4472C4"/><path d="M3388 19907.4C3388 19913.5 3383.07 19918.4 3377 19918.4 3370.92 19918.4 3366 19913.5 3366 19907.4 3366 19901.3 3370.92 19896.4 3377 19896.4 3383.07 19896.4 3388 19901.3 3388 19907.4Z" stroke="#4472C4" stroke-width="3.4375" stroke-linejoin="round" stroke-miterlimit="10" fill="#4472C4"/><path d="M3392 19781.4C3392 19787.5 3387.07 19792.4 3381 19792.4 3374.92 19792.4 3370 19787.5 3370 19781.4 3370 19775.3 3374.92 19770.4 3381 19770.4 3387.07 19770.4 3392 19775.3 3392 19781.4Z" stroke="#4472C4" stroke-width="3.4375" stroke-linejoin="round" stroke-miterlimit="10" fill="#4472C4"/><path d="M3396 19772.4C3396 19778.5 3391.07 19783.4 3385 19783.4 3378.92 19783.4 3374 19778.5 3374 19772.4 3374 19766.3 3378.92 19761.4 3385 19761.4 3391.07 19761.4 3396 19766.3 3396 19772.4Z" stroke="#4472C4" stroke-width="3.4375" stroke-linejoin="round" stroke-miterlimit="10" fill="#4472C4"/><path d="M3400 19761.4C3400 19767.5 3395.07 19772.4 3389 19772.4 3382.92 19772.4 3378 19767.5 3378 19761.4 3378 19755.3 3382.92 19750.4 3389 19750.4 3395.07 19750.4 3400 19755.3 3400 19761.4Z" stroke="#4472C4" stroke-width="3.4375" stroke-linejoin="round" stroke-miterlimit="10" fill="#4472C4"/><path d="M3404 19760.4C3404 19766.5 3399.07 19771.4 3393 19771.4 3386.92 19771.4 3382 19766.5 3382 19760.4 3382 19754.3 3386.92 19749.4 3393 19749.4 3399.07 19749.4 3404 19754.3 3404 19760.4Z" stroke="#4472C4" stroke-width="3.4375" stroke-linejoin="round" stroke-miterlimit="10" fill="#4472C4"/><path d="M3408 19760.4C3408 19766.5 3403.07 19771.4 3397 19771.4 3390.92 19771.4 3386 19766.5 3386 19760.4 3386 19754.3 3390.92 19749.4 3397 19749.4 3403.07 19749.4 3408 19754.3 3408 19760.4Z" stroke="#4472C4" stroke-width="3.4375" stroke-linejoin="round" stroke-miterlimit="10" fill="#4472C4"/><path d="M3412 19759.4C3412 19765.5 3407.07 19770.4 3401 19770.4 3394.92 19770.4 3390 19765.5 3390 19759.4 3390 19753.3 3394.92 19748.4 3401 19748.4 3407.07 19748.4 3412 19753.3 3412 19759.4Z" stroke="#4472C4" stroke-width="3.4375" stroke-linejoin="round" stroke-miterlimit="10" fill="#4472C4"/><path d="M3416 19764.4C3416 19770.5 3411.07 19775.4 3405 19775.4 3398.92 19775.4 3394 19770.5 3394 19764.4 3394 19758.3 3398.92 19753.4 3405 19753.4 3411.07 19753.4 3416 19758.3 3416 19764.4Z" stroke="#4472C4" stroke-width="3.4375" stroke-linejoin="round" stroke-miterlimit="10" fill="#4472C4"/><path d="M3420 19757.4C3420 19763.5 3415.07 19768.4 3409 19768.4 3402.92 19768.4 3398 19763.5 3398 19757.4 3398 19751.3 3402.92 19746.4 3409 19746.4 3415.07 19746.4 3420 19751.3 3420 19757.4Z" stroke="#4472C4" stroke-width="3.4375" stroke-linejoin="round" stroke-miterlimit="10" fill="#4472C4"/><path d="M3423 19761.4C3423 19767.5 3418.07 19772.4 3412 19772.4 3405.92 19772.4 3401 19767.5 3401 19761.4 3401 19755.3 3405.92 19750.4 3412 19750.4 3418.07 19750.4 3423 19755.3 3423 19761.4Z" stroke="#4472C4" stroke-width="3.4375" stroke-linejoin="round" stroke-miterlimit="10" fill="#4472C4"/><path d="M3427 19760.4C3427 19766.5 3422.07 19771.4 3416 19771.4 3409.92 19771.4 3405 19766.5 3405 19760.4 3405 19754.3 3409.92 19749.4 3416 19749.4 3422.07 19749.4 3427 19754.3 3427 19760.4Z" stroke="#4472C4" stroke-width="3.4375" stroke-linejoin="round" stroke-miterlimit="10" fill="#4472C4"/><path d="M3431 19759.4C3431 19765.5 3426.07 19770.4 3420 19770.4 3413.92 19770.4 3409 19765.5 3409 19759.4 3409 19753.3 3413.92 19748.4 3420 19748.4 3426.07 19748.4 3431 19753.3 3431 19759.4Z" stroke="#4472C4" stroke-width="3.4375" stroke-linejoin="round" stroke-miterlimit="10" fill="#4472C4"/><path d="M3435 19761.4C3435 19767.5 3430.07 19772.4 3424 19772.4 3417.92 19772.4 3413 19767.5 3413 19761.4 3413 19755.3 3417.92 19750.4 3424 19750.4 3430.07 19750.4 3435 19755.3 3435 19761.4Z" stroke="#4472C4" stroke-width="3.4375" stroke-linejoin="round" stroke-miterlimit="10" fill="#4472C4"/><path d="M3439 19768.4C3439 19774.5 3434.07 19779.4 3428 19779.4 3421.92 19779.4 3417 19774.5 3417 19768.4 3417 19762.3 3421.92 19757.4 3428 19757.4 3434.07 19757.4 3439 19762.3 3439 19768.4Z" stroke="#4472C4" stroke-width="3.4375" stroke-linejoin="round" stroke-miterlimit="10" fill="#4472C4"/><path d="M3443 19762.4C3443 19768.5 3438.07 19773.4 3432 19773.4 3425.92 19773.4 3421 19768.5 3421 19762.4 3421 19756.3 3425.92 19751.4 3432 19751.4 3438.07 19751.4 3443 19756.3 3443 19762.4Z" stroke="#4472C4" stroke-width="3.4375" stroke-linejoin="round" stroke-miterlimit="10" fill="#4472C4"/><path d="M3447 19757.4C3447 19763.5 3442.07 19768.4 3436 19768.4 3429.92 19768.4 3425 19763.5 3425 19757.4 3425 19751.3 3429.92 19746.4 3436 19746.4 3442.07 19746.4 3447 19751.3 3447 19757.4Z" stroke="#4472C4" stroke-width="3.4375" stroke-linejoin="round" stroke-miterlimit="10" fill="#4472C4"/><path d="M3451 19762.4C3451 19768.5 3446.07 19773.4 3440 19773.4 3433.92 19773.4 3429 19768.5 3429 19762.4 3429 19756.3 3433.92 19751.4 3440 19751.4 3446.07 19751.4 3451 19756.3 3451 19762.4Z" stroke="#4472C4" stroke-width="3.4375" stroke-linejoin="round" stroke-miterlimit="10" fill="#4472C4"/><path d="M3455 19764.4C3455 19770.5 3450.07 19775.4 3444 19775.4 3437.92 19775.4 3433 19770.5 3433 19764.4 3433 19758.3 3437.92 19753.4 3444 19753.4 3450.07 19753.4 3455 19758.3 3455 19764.4Z" stroke="#4472C4" stroke-width="3.4375" stroke-linejoin="round" stroke-miterlimit="10" fill="#4472C4"/><path d="M3459 19758.4C3459 19764.5 3454.07 19769.4 3448 19769.4 3441.92 19769.4 3437 19764.5 3437 19758.4 3437 19752.3 3441.92 19747.4 3448 19747.4 3454.07 19747.4 3459 19752.3 3459 19758.4Z" stroke="#4472C4" stroke-width="3.4375" stroke-linejoin="round" stroke-miterlimit="10" fill="#4472C4"/><path d="M3462 19759.4C3462 19765.5 3457.07 19770.4 3451 19770.4 3444.92 19770.4 3440 19765.5 3440 19759.4 3440 19753.3 3444.92 19748.4 3451 19748.4 3457.07 19748.4 3462 19753.3 3462 19759.4Z" stroke="#4472C4" stroke-width="3.4375" stroke-linejoin="round" stroke-miterlimit="10" fill="#4472C4"/><path d="M3466 19764.4C3466 19770.5 3461.07 19775.4 3455 19775.4 3448.92 19775.4 3444 19770.5 3444 19764.4 3444 19758.3 3448.92 19753.4 3455 19753.4 3461.07 19753.4 3466 19758.3 3466 19764.4Z" stroke="#4472C4" stroke-width="3.4375" stroke-linejoin="round" stroke-miterlimit="10" fill="#4472C4"/><path d="M3470 19762.4C3470 19768.5 3465.07 19773.4 3459 19773.4 3452.92 19773.4 3448 19768.5 3448 19762.4 3448 19756.3 3452.92 19751.4 3459 19751.4 3465.07 19751.4 3470 19756.3 3470 19762.4Z" stroke="#4472C4" stroke-width="3.4375" stroke-linejoin="round" stroke-miterlimit="10" fill="#4472C4"/><path d="M3474 19761.4C3474 19767.5 3469.07 19772.4 3463 19772.4 3456.92 19772.4 3452 19767.5 3452 19761.4 3452 19755.3 3456.92 19750.4 3463 19750.4 3469.07 19750.4 3474 19755.3 3474 19761.4Z" stroke="#4472C4" stroke-width="3.4375" stroke-linejoin="round" stroke-miterlimit="10" fill="#4472C4"/><path d="M3478 19757.4C3478 19763.5 3473.07 19768.4 3467 19768.4 3460.92 19768.4 3456 19763.5 3456 19757.4 3456 19751.3 3460.92 19746.4 3467 19746.4 3473.07 19746.4 3478 19751.3 3478 19757.4Z" stroke="#4472C4" stroke-width="3.4375" stroke-linejoin="round" stroke-miterlimit="10" fill="#4472C4"/><path d="M3482 19761.4C3482 19767.5 3477.07 19772.4 3471 19772.4 3464.92 19772.4 3460 19767.5 3460 19761.4 3460 19755.3 3464.92 19750.4 3471 19750.4 3477.07 19750.4 3482 19755.3 3482 19761.4Z" stroke="#4472C4" stroke-width="3.4375" stroke-linejoin="round" stroke-miterlimit="10" fill="#4472C4"/><path d="M3486 19970.4C3486 19976.5 3481.07 19981.4 3475 19981.4 3468.92 19981.4 3464 19976.5 3464 19970.4 3464 19964.3 3468.92 19959.4 3475 19959.4 3481.07 19959.4 3486 19964.3 3486 19970.4Z" stroke="#4472C4" stroke-width="3.4375" stroke-linejoin="round" stroke-miterlimit="10" fill="#4472C4"/><path d="M3490 19970.4C3490 19976.5 3485.07 19981.4 3479 19981.4 3472.92 19981.4 3468 19976.5 3468 19970.4 3468 19964.3 3472.92 19959.4 3479 19959.4 3485.07 19959.4 3490 19964.3 3490 19970.4Z" stroke="#4472C4" stroke-width="3.4375" stroke-linejoin="round" stroke-miterlimit="10" fill="#4472C4"/><path d="M3494 19970.4C3494 19976.5 3489.07 19981.4 3483 19981.4 3476.92 19981.4 3472 19976.5 3472 19970.4 3472 19964.3 3476.92 19959.4 3483 19959.4 3489.07 19959.4 3494 19964.3 3494 19970.4Z" stroke="#4472C4" stroke-width="3.4375" stroke-linejoin="round" stroke-miterlimit="10" fill="#4472C4"/><path d="M3497 19970.4C3497 19976.5 3492.07 19981.4 3486 19981.4 3479.92 19981.4 3475 19976.5 3475 19970.4 3475 19964.3 3479.92 19959.4 3486 19959.4 3492.07 19959.4 3497 19964.3 3497 19970.4Z" stroke="#4472C4" stroke-width="3.4375" stroke-linejoin="round" stroke-miterlimit="10" fill="#4472C4"/><path d="M3501 19971.4C3501 19977.5 3496.07 19982.4 3490 19982.4 3483.92 19982.4 3479 19977.5 3479 19971.4 3479 19965.3 3483.92 19960.4 3490 19960.4 3496.07 19960.4 3501 19965.3 3501 19971.4Z" stroke="#4472C4" stroke-width="3.4375" stroke-linejoin="round" stroke-miterlimit="10" fill="#4472C4"/><path d="M3505 19971.4C3505 19977.5 3500.07 19982.4 3494 19982.4 3487.92 19982.4 3483 19977.5 3483 19971.4 3483 19965.3 3487.92 19960.4 3494 19960.4 3500.07 19960.4 3505 19965.3 3505 19971.4Z" stroke="#4472C4" stroke-width="3.4375" stroke-linejoin="round" stroke-miterlimit="10" fill="#4472C4"/><path d="M3509 19970.4C3509 19976.5 3504.07 19981.4 3498 19981.4 3491.92 19981.4 3487 19976.5 3487 19970.4 3487 19964.3 3491.92 19959.4 3498 19959.4 3504.07 19959.4 3509 19964.3 3509 19970.4Z" stroke="#4472C4" stroke-width="3.4375" stroke-linejoin="round" stroke-miterlimit="10" fill="#4472C4"/><path d="M3513 19970.4C3513 19976.5 3508.07 19981.4 3502 19981.4 3495.92 19981.4 3491 19976.5 3491 19970.4 3491 19964.3 3495.92 19959.4 3502 19959.4 3508.07 19959.4 3513 19964.3 3513 19970.4Z" stroke="#4472C4" stroke-width="3.4375" stroke-linejoin="round" stroke-miterlimit="10" fill="#4472C4"/><path d="M3517 19970.4C3517 19976.5 3512.07 19981.4 3506 19981.4 3499.92 19981.4 3495 19976.5 3495 19970.4 3495 19964.3 3499.92 19959.4 3506 19959.4 3512.07 19959.4 3517 19964.3 3517 19970.4Z" stroke="#4472C4" stroke-width="3.4375" stroke-linejoin="round" stroke-miterlimit="10" fill="#4472C4"/><path d="M3521 19971.4C3521 19977.5 3516.07 19982.4 3510 19982.4 3503.92 19982.4 3499 19977.5 3499 19971.4 3499 19965.3 3503.92 19960.4 3510 19960.4 3516.07 19960.4 3521 19965.3 3521 19971.4Z" stroke="#4472C4" stroke-width="3.4375" stroke-linejoin="round" stroke-miterlimit="10" fill="#4472C4"/><path d="M3525 19971.4C3525 19977.5 3520.07 19982.4 3514 19982.4 3507.92 19982.4 3503 19977.5 3503 19971.4 3503 19965.3 3507.92 19960.4 3514 19960.4 3520.07 19960.4 3525 19965.3 3525 19971.4Z" stroke="#4472C4" stroke-width="3.4375" stroke-linejoin="round" stroke-miterlimit="10" fill="#4472C4"/><path d="M3529 19971.4C3529 19977.5 3524.07 19982.4 3518 19982.4 3511.92 19982.4 3507 19977.5 3507 19971.4 3507 19965.3 3511.92 19960.4 3518 19960.4 3524.07 19960.4 3529 19965.3 3529 19971.4Z" stroke="#4472C4" stroke-width="3.4375" stroke-linejoin="round" stroke-miterlimit="10" fill="#4472C4"/><path d="M3532 19970.4C3532 19976.5 3527.07 19981.4 3521 19981.4 3514.92 19981.4 3510 19976.5 3510 19970.4 3510 19964.3 3514.92 19959.4 3521 19959.4 3527.07 19959.4 3532 19964.3 3532 19970.4Z" stroke="#4472C4" stroke-width="3.4375" stroke-linejoin="round" stroke-miterlimit="10" fill="#4472C4"/><path d="M3536 19970.4C3536 19976.5 3531.07 19981.4 3525 19981.4 3518.92 19981.4 3514 19976.5 3514 19970.4 3514 19964.3 3518.92 19959.4 3525 19959.4 3531.07 19959.4 3536 19964.3 3536 19970.4Z" stroke="#4472C4" stroke-width="3.4375" stroke-linejoin="round" stroke-miterlimit="10" fill="#4472C4"/><path d="M3540 19970.4C3540 19976.5 3535.07 19981.4 3529 19981.4 3522.92 19981.4 3518 19976.5 3518 19970.4 3518 19964.3 3522.92 19959.4 3529 19959.4 3535.07 19959.4 3540 19964.3 3540 19970.4Z" stroke="#4472C4" stroke-width="3.4375" stroke-linejoin="round" stroke-miterlimit="10" fill="#4472C4"/><path d="M3544 19970.4C3544 19976.5 3539.07 19981.4 3533 19981.4 3526.92 19981.4 3522 19976.5 3522 19970.4 3522 19964.3 3526.92 19959.4 3533 19959.4 3539.07 19959.4 3544 19964.3 3544 19970.4Z" stroke="#4472C4" stroke-width="3.4375" stroke-linejoin="round" stroke-miterlimit="10" fill="#4472C4"/><path d="M3548 19970.4C3548 19976.5 3543.07 19981.4 3537 19981.4 3530.92 19981.4 3526 19976.5 3526 19970.4 3526 19964.3 3530.92 19959.4 3537 19959.4 3543.07 19959.4 3548 19964.3 3548 19970.4Z" stroke="#4472C4" stroke-width="3.4375" stroke-linejoin="round" stroke-miterlimit="10" fill="#4472C4"/><path d="M3552 19969.4C3552 19975.5 3547.07 19980.4 3541 19980.4 3534.92 19980.4 3530 19975.5 3530 19969.4 3530 19963.3 3534.92 19958.4 3541 19958.4 3547.07 19958.4 3552 19963.3 3552 19969.4Z" stroke="#4472C4" stroke-width="3.4375" stroke-linejoin="round" stroke-miterlimit="10" fill="#4472C4"/><path d="M3556 19969.4C3556 19975.5 3551.07 19980.4 3545 19980.4 3538.92 19980.4 3534 19975.5 3534 19969.4 3534 19963.3 3538.92 19958.4 3545 19958.4 3551.07 19958.4 3556 19963.3 3556 19969.4Z" stroke="#4472C4" stroke-width="3.4375" stroke-linejoin="round" stroke-miterlimit="10" fill="#4472C4"/><path d="M3560 19923.4C3560 19929.5 3555.07 19934.4 3549 19934.4 3542.92 19934.4 3538 19929.5 3538 19923.4 3538 19917.3 3542.92 19912.4 3549 19912.4 3555.07 19912.4 3560 19917.3 3560 19923.4Z" stroke="#4472C4" stroke-width="3.4375" stroke-linejoin="round" stroke-miterlimit="10" fill="#4472C4"/><path d="M3564 19894.4C3564 19900.5 3559.07 19905.4 3553 19905.4 3546.92 19905.4 3542 19900.5 3542 19894.4 3542 19888.3 3546.92 19883.4 3553 19883.4 3559.07 19883.4 3564 19888.3 3564 19894.4Z" stroke="#4472C4" stroke-width="3.4375" stroke-linejoin="round" stroke-miterlimit="10" fill="#4472C4"/><path d="M3567 19888.4C3567 19894.5 3562.07 19899.4 3556 19899.4 3549.92 19899.4 3545 19894.5 3545 19888.4 3545 19882.3 3549.92 19877.4 3556 19877.4 3562.07 19877.4 3567 19882.3 3567 19888.4Z" stroke="#4472C4" stroke-width="3.4375" stroke-linejoin="round" stroke-miterlimit="10" fill="#4472C4"/><path d="M3571 19886.4C3571 19892.5 3566.07 19897.4 3560 19897.4 3553.92 19897.4 3549 19892.5 3549 19886.4 3549 19880.3 3553.92 19875.4 3560 19875.4 3566.07 19875.4 3571 19880.3 3571 19886.4Z" stroke="#4472C4" stroke-width="3.4375" stroke-linejoin="round" stroke-miterlimit="10" fill="#4472C4"/><path d="M3575 19882.4C3575 19888.5 3570.07 19893.4 3564 19893.4 3557.92 19893.4 3553 19888.5 3553 19882.4 3553 19876.3 3557.92 19871.4 3564 19871.4 3570.07 19871.4 3575 19876.3 3575 19882.4Z" stroke="#4472C4" stroke-width="3.4375" stroke-linejoin="round" stroke-miterlimit="10" fill="#4472C4"/><path d="M3579 19878.4C3579 19884.5 3574.07 19889.4 3568 19889.4 3561.92 19889.4 3557 19884.5 3557 19878.4 3557 19872.3 3561.92 19867.4 3568 19867.4 3574.07 19867.4 3579 19872.3 3579 19878.4Z" stroke="#4472C4" stroke-width="3.4375" stroke-linejoin="round" stroke-miterlimit="10" fill="#4472C4"/><path d="M3583 19904.4C3583 19910.5 3578.07 19915.4 3572 19915.4 3565.92 19915.4 3561 19910.5 3561 19904.4 3561 19898.3 3565.92 19893.4 3572 19893.4 3578.07 19893.4 3583 19898.3 3583 19904.4Z" stroke="#4472C4" stroke-width="3.4375" stroke-linejoin="round" stroke-miterlimit="10" fill="#4472C4"/><path d="M3587 19866.4C3587 19872.5 3582.07 19877.4 3576 19877.4 3569.92 19877.4 3565 19872.5 3565 19866.4 3565 19860.3 3569.92 19855.4 3576 19855.4 3582.07 19855.4 3587 19860.3 3587 19866.4Z" stroke="#4472C4" stroke-width="3.4375" stroke-linejoin="round" stroke-miterlimit="10" fill="#4472C4"/><path d="M3591 19867.4C3591 19873.5 3586.07 19878.4 3580 19878.4 3573.92 19878.4 3569 19873.5 3569 19867.4 3569 19861.3 3573.92 19856.4 3580 19856.4 3586.07 19856.4 3591 19861.3 3591 19867.4Z" stroke="#4472C4" stroke-width="3.4375" stroke-linejoin="round" stroke-miterlimit="10" fill="#4472C4"/><path d="M3595 19873.4C3595 19879.5 3590.07 19884.4 3584 19884.4 3577.92 19884.4 3573 19879.5 3573 19873.4 3573 19867.3 3577.92 19862.4 3584 19862.4 3590.07 19862.4 3595 19867.3 3595 19873.4Z" stroke="#4472C4" stroke-width="3.4375" stroke-linejoin="round" stroke-miterlimit="10" fill="#4472C4"/><path d="M3599 19867.4C3599 19873.5 3594.07 19878.4 3588 19878.4 3581.92 19878.4 3577 19873.5 3577 19867.4 3577 19861.3 3581.92 19856.4 3588 19856.4 3594.07 19856.4 3599 19861.3 3599 19867.4Z" stroke="#4472C4" stroke-width="3.4375" stroke-linejoin="round" stroke-miterlimit="10" fill="#4472C4"/><path d="M3603 19875.4C3603 19881.5 3598.07 19886.4 3592 19886.4 3585.92 19886.4 3581 19881.5 3581 19875.4 3581 19869.3 3585.92 19864.4 3592 19864.4 3598.07 19864.4 3603 19869.3 3603 19875.4Z" stroke="#4472C4" stroke-width="3.4375" stroke-linejoin="round" stroke-miterlimit="10" fill="#4472C4"/><path d="M3606 19866.4C3606 19872.5 3601.07 19877.4 3595 19877.4 3588.92 19877.4 3584 19872.5 3584 19866.4 3584 19860.3 3588.92 19855.4 3595 19855.4 3601.07 19855.4 3606 19860.3 3606 19866.4Z" stroke="#4472C4" stroke-width="3.4375" stroke-linejoin="round" stroke-miterlimit="10" fill="#4472C4"/><path d="M3610 19867.4C3610 19873.5 3605.07 19878.4 3599 19878.4 3592.92 19878.4 3588 19873.5 3588 19867.4 3588 19861.3 3592.92 19856.4 3599 19856.4 3605.07 19856.4 3610 19861.3 3610 19867.4Z" stroke="#4472C4" stroke-width="3.4375" stroke-linejoin="round" stroke-miterlimit="10" fill="#4472C4"/><path d="M3614 19869.4C3614 19875.5 3609.07 19880.4 3603 19880.4 3596.92 19880.4 3592 19875.5 3592 19869.4 3592 19863.3 3596.92 19858.4 3603 19858.4 3609.07 19858.4 3614 19863.3 3614 19869.4Z" stroke="#4472C4" stroke-width="3.4375" stroke-linejoin="round" stroke-miterlimit="10" fill="#4472C4"/><path d="M3618 19876.4C3618 19882.5 3613.07 19887.4 3607 19887.4 3600.92 19887.4 3596 19882.5 3596 19876.4 3596 19870.3 3600.92 19865.4 3607 19865.4 3613.07 19865.4 3618 19870.3 3618 19876.4Z" stroke="#4472C4" stroke-width="3.4375" stroke-linejoin="round" stroke-miterlimit="10" fill="#4472C4"/><path d="M3622 19878.4C3622 19884.5 3617.07 19889.4 3611 19889.4 3604.92 19889.4 3600 19884.5 3600 19878.4 3600 19872.3 3604.92 19867.4 3611 19867.4 3617.07 19867.4 3622 19872.3 3622 19878.4Z" stroke="#4472C4" stroke-width="3.4375" stroke-linejoin="round" stroke-miterlimit="10" fill="#4472C4"/><path d="M3626 19888.4C3626 19894.5 3621.07 19899.4 3615 19899.4 3608.92 19899.4 3604 19894.5 3604 19888.4 3604 19882.3 3608.92 19877.4 3615 19877.4 3621.07 19877.4 3626 19882.3 3626 19888.4Z" stroke="#4472C4" stroke-width="3.4375" stroke-linejoin="round" stroke-miterlimit="10" fill="#4472C4"/><path d="M3630 19883.4C3630 19889.5 3625.07 19894.4 3619 19894.4 3612.92 19894.4 3608 19889.5 3608 19883.4 3608 19877.3 3612.92 19872.4 3619 19872.4 3625.07 19872.4 3630 19877.3 3630 19883.4Z" stroke="#4472C4" stroke-width="3.4375" stroke-linejoin="round" stroke-miterlimit="10" fill="#4472C4"/><path d="M3634 19883.4C3634 19889.5 3629.07 19894.4 3623 19894.4 3616.92 19894.4 3612 19889.5 3612 19883.4 3612 19877.3 3616.92 19872.4 3623 19872.4 3629.07 19872.4 3634 19877.3 3634 19883.4Z" stroke="#4472C4" stroke-width="3.4375" stroke-linejoin="round" stroke-miterlimit="10" fill="#4472C4"/><path d="M3638 19885.4C3638 19891.5 3633.07 19896.4 3627 19896.4 3620.92 19896.4 3616 19891.5 3616 19885.4 3616 19879.3 3620.92 19874.4 3627 19874.4 3633.07 19874.4 3638 19879.3 3638 19885.4Z" stroke="#4472C4" stroke-width="3.4375" stroke-linejoin="round" stroke-miterlimit="10" fill="#4472C4"/><path d="M3641 19891.4C3641 19897.5 3636.07 19902.4 3630 19902.4 3623.92 19902.4 3619 19897.5 3619 19891.4 3619 19885.3 3623.92 19880.4 3630 19880.4 3636.07 19880.4 3641 19885.3 3641 19891.4Z" stroke="#4472C4" stroke-width="3.4375" stroke-linejoin="round" stroke-miterlimit="10" fill="#4472C4"/><path d="M3645 19893.4C3645 19899.5 3640.07 19904.4 3634 19904.4 3627.92 19904.4 3623 19899.5 3623 19893.4 3623 19887.3 3627.92 19882.4 3634 19882.4 3640.07 19882.4 3645 19887.3 3645 19893.4Z" stroke="#4472C4" stroke-width="3.4375" stroke-linejoin="round" stroke-miterlimit="10" fill="#4472C4"/><path d="M3649 19879.4C3649 19885.5 3644.07 19890.4 3638 19890.4 3631.92 19890.4 3627 19885.5 3627 19879.4 3627 19873.3 3631.92 19868.4 3638 19868.4 3644.07 19868.4 3649 19873.3 3649 19879.4Z" stroke="#4472C4" stroke-width="3.4375" stroke-linejoin="round" stroke-miterlimit="10" fill="#4472C4"/><path d="M3653 19888.4C3653 19894.5 3648.07 19899.4 3642 19899.4 3635.92 19899.4 3631 19894.5 3631 19888.4 3631 19882.3 3635.92 19877.4 3642 19877.4 3648.07 19877.4 3653 19882.3 3653 19888.4Z" stroke="#4472C4" stroke-width="3.4375" stroke-linejoin="round" stroke-miterlimit="10" fill="#4472C4"/><path d="M3657 19889.4C3657 19895.5 3652.07 19900.4 3646 19900.4 3639.92 19900.4 3635 19895.5 3635 19889.4 3635 19883.3 3639.92 19878.4 3646 19878.4 3652.07 19878.4 3657 19883.3 3657 19889.4Z" stroke="#4472C4" stroke-width="3.4375" stroke-linejoin="round" stroke-miterlimit="10" fill="#4472C4"/><path d="M3661 19888.4C3661 19894.5 3656.07 19899.4 3650 19899.4 3643.92 19899.4 3639 19894.5 3639 19888.4 3639 19882.3 3643.92 19877.4 3650 19877.4 3656.07 19877.4 3661 19882.3 3661 19888.4Z" stroke="#4472C4" stroke-width="3.4375" stroke-linejoin="round" stroke-miterlimit="10" fill="#4472C4"/><path d="M3665 19881.4C3665 19887.5 3660.07 19892.4 3654 19892.4 3647.92 19892.4 3643 19887.5 3643 19881.4 3643 19875.3 3647.92 19870.4 3654 19870.4 3660.07 19870.4 3665 19875.3 3665 19881.4Z" stroke="#4472C4" stroke-width="3.4375" stroke-linejoin="round" stroke-miterlimit="10" fill="#4472C4"/><path d="M3669 19882.4C3669 19888.5 3664.07 19893.4 3658 19893.4 3651.92 19893.4 3647 19888.5 3647 19882.4 3647 19876.3 3651.92 19871.4 3658 19871.4 3664.07 19871.4 3669 19876.3 3669 19882.4Z" stroke="#4472C4" stroke-width="3.4375" stroke-linejoin="round" stroke-miterlimit="10" fill="#4472C4"/><path d="M3673 19881.4C3673 19887.5 3668.07 19892.4 3662 19892.4 3655.92 19892.4 3651 19887.5 3651 19881.4 3651 19875.3 3655.92 19870.4 3662 19870.4 3668.07 19870.4 3673 19875.3 3673 19881.4Z" stroke="#4472C4" stroke-width="3.4375" stroke-linejoin="round" stroke-miterlimit="10" fill="#4472C4"/><path d="M3676 19887.4C3676 19893.5 3671.07 19898.4 3665 19898.4 3658.92 19898.4 3654 19893.5 3654 19887.4 3654 19881.3 3658.92 19876.4 3665 19876.4 3671.07 19876.4 3676 19881.3 3676 19887.4Z" stroke="#4472C4" stroke-width="3.4375" stroke-linejoin="round" stroke-miterlimit="10" fill="#4472C4"/><path d="M3680 19969.4C3680 19975.5 3675.07 19980.4 3669 19980.4 3662.92 19980.4 3658 19975.5 3658 19969.4 3658 19963.3 3662.92 19958.4 3669 19958.4 3675.07 19958.4 3680 19963.3 3680 19969.4Z" stroke="#4472C4" stroke-width="3.4375" stroke-linejoin="round" stroke-miterlimit="10" fill="#4472C4"/><path d="M3684 19877.4C3684 19883.5 3679.07 19888.4 3673 19888.4 3666.92 19888.4 3662 19883.5 3662 19877.4 3662 19871.3 3666.92 19866.4 3673 19866.4 3679.07 19866.4 3684 19871.3 3684 19877.4Z" stroke="#4472C4" stroke-width="3.4375" stroke-linejoin="round" stroke-miterlimit="10" fill="#4472C4"/><path d="M3688 19886.4C3688 19892.5 3683.07 19897.4 3677 19897.4 3670.92 19897.4 3666 19892.5 3666 19886.4 3666 19880.3 3670.92 19875.4 3677 19875.4 3683.07 19875.4 3688 19880.3 3688 19886.4Z" stroke="#4472C4" stroke-width="3.4375" stroke-linejoin="round" stroke-miterlimit="10" fill="#4472C4"/><path d="M3692 19882.4C3692 19888.5 3687.07 19893.4 3681 19893.4 3674.92 19893.4 3670 19888.5 3670 19882.4 3670 19876.3 3674.92 19871.4 3681 19871.4 3687.07 19871.4 3692 19876.3 3692 19882.4Z" stroke="#4472C4" stroke-width="3.4375" stroke-linejoin="round" stroke-miterlimit="10" fill="#4472C4"/><path d="M3696 19867.4C3696 19873.5 3691.07 19878.4 3685 19878.4 3678.92 19878.4 3674 19873.5 3674 19867.4 3674 19861.3 3678.92 19856.4 3685 19856.4 3691.07 19856.4 3696 19861.3 3696 19867.4Z" stroke="#4472C4" stroke-width="3.4375" stroke-linejoin="round" stroke-miterlimit="10" fill="#4472C4"/><path d="M3700 19861.4C3700 19867.5 3695.07 19872.4 3689 19872.4 3682.92 19872.4 3678 19867.5 3678 19861.4 3678 19855.3 3682.92 19850.4 3689 19850.4 3695.07 19850.4 3700 19855.3 3700 19861.4Z" stroke="#4472C4" stroke-width="3.4375" stroke-linejoin="round" stroke-miterlimit="10" fill="#4472C4"/><path d="M3704 19864.4C3704 19870.5 3699.07 19875.4 3693 19875.4 3686.92 19875.4 3682 19870.5 3682 19864.4 3682 19858.3 3686.92 19853.4 3693 19853.4 3699.07 19853.4 3704 19858.3 3704 19864.4Z" stroke="#4472C4" stroke-width="3.4375" stroke-linejoin="round" stroke-miterlimit="10" fill="#4472C4"/><path d="M3708 19864.4C3708 19870.5 3703.07 19875.4 3697 19875.4 3690.92 19875.4 3686 19870.5 3686 19864.4 3686 19858.3 3690.92 19853.4 3697 19853.4 3703.07 19853.4 3708 19858.3 3708 19864.4Z" stroke="#4472C4" stroke-width="3.4375" stroke-linejoin="round" stroke-miterlimit="10" fill="#4472C4"/><path d="M3711 19863.4C3711 19869.5 3706.07 19874.4 3700 19874.4 3693.92 19874.4 3689 19869.5 3689 19863.4 3689 19857.3 3693.92 19852.4 3700 19852.4 3706.07 19852.4 3711 19857.3 3711 19863.4Z" stroke="#4472C4" stroke-width="3.4375" stroke-linejoin="round" stroke-miterlimit="10" fill="#4472C4"/><path d="M3715 19862.4C3715 19868.5 3710.07 19873.4 3704 19873.4 3697.92 19873.4 3693 19868.5 3693 19862.4 3693 19856.3 3697.92 19851.4 3704 19851.4 3710.07 19851.4 3715 19856.3 3715 19862.4Z" stroke="#4472C4" stroke-width="3.4375" stroke-linejoin="round" stroke-miterlimit="10" fill="#4472C4"/><path d="M3719 19863.4C3719 19869.5 3714.07 19874.4 3708 19874.4 3701.92 19874.4 3697 19869.5 3697 19863.4 3697 19857.3 3701.92 19852.4 3708 19852.4 3714.07 19852.4 3719 19857.3 3719 19863.4Z" stroke="#4472C4" stroke-width="3.4375" stroke-linejoin="round" stroke-miterlimit="10" fill="#4472C4"/><path d="M3723 19864.4C3723 19870.5 3718.07 19875.4 3712 19875.4 3705.92 19875.4 3701 19870.5 3701 19864.4 3701 19858.3 3705.92 19853.4 3712 19853.4 3718.07 19853.4 3723 19858.3 3723 19864.4Z" stroke="#4472C4" stroke-width="3.4375" stroke-linejoin="round" stroke-miterlimit="10" fill="#4472C4"/><path d="M3727 19865.4C3727 19871.5 3722.07 19876.4 3716 19876.4 3709.92 19876.4 3705 19871.5 3705 19865.4 3705 19859.3 3709.92 19854.4 3716 19854.4 3722.07 19854.4 3727 19859.3 3727 19865.4Z" stroke="#4472C4" stroke-width="3.4375" stroke-linejoin="round" stroke-miterlimit="10" fill="#4472C4"/><path d="M3731 19862.4C3731 19868.5 3726.07 19873.4 3720 19873.4 3713.92 19873.4 3709 19868.5 3709 19862.4 3709 19856.3 3713.92 19851.4 3720 19851.4 3726.07 19851.4 3731 19856.3 3731 19862.4Z" stroke="#4472C4" stroke-width="3.4375" stroke-linejoin="round" stroke-miterlimit="10" fill="#4472C4"/><path d="M3735 19864.4C3735 19870.5 3730.07 19875.4 3724 19875.4 3717.92 19875.4 3713 19870.5 3713 19864.4 3713 19858.3 3717.92 19853.4 3724 19853.4 3730.07 19853.4 3735 19858.3 3735 19864.4Z" stroke="#4472C4" stroke-width="3.4375" stroke-linejoin="round" stroke-miterlimit="10" fill="#4472C4"/><path d="M3739 19861.4C3739 19867.5 3734.07 19872.4 3728 19872.4 3721.92 19872.4 3717 19867.5 3717 19861.4 3717 19855.3 3721.92 19850.4 3728 19850.4 3734.07 19850.4 3739 19855.3 3739 19861.4Z" stroke="#4472C4" stroke-width="3.4375" stroke-linejoin="round" stroke-miterlimit="10" fill="#4472C4"/><path d="M3743 19860.4C3743 19866.5 3738.07 19871.4 3732 19871.4 3725.92 19871.4 3721 19866.5 3721 19860.4 3721 19854.3 3725.92 19849.4 3732 19849.4 3738.07 19849.4 3743 19854.3 3743 19860.4Z" stroke="#4472C4" stroke-width="3.4375" stroke-linejoin="round" stroke-miterlimit="10" fill="#4472C4"/><path d="M3747 19862.4C3747 19868.5 3742.07 19873.4 3736 19873.4 3729.92 19873.4 3725 19868.5 3725 19862.4 3725 19856.3 3729.92 19851.4 3736 19851.4 3742.07 19851.4 3747 19856.3 3747 19862.4Z" stroke="#4472C4" stroke-width="3.4375" stroke-linejoin="round" stroke-miterlimit="10" fill="#4472C4"/><path d="M3750 19864.4C3750 19870.5 3745.07 19875.4 3739 19875.4 3732.92 19875.4 3728 19870.5 3728 19864.4 3728 19858.3 3732.92 19853.4 3739 19853.4 3745.07 19853.4 3750 19858.3 3750 19864.4Z" stroke="#4472C4" stroke-width="3.4375" stroke-linejoin="round" stroke-miterlimit="10" fill="#4472C4"/><path d="M3754 19861.4C3754 19867.5 3749.07 19872.4 3743 19872.4 3736.92 19872.4 3732 19867.5 3732 19861.4 3732 19855.3 3736.92 19850.4 3743 19850.4 3749.07 19850.4 3754 19855.3 3754 19861.4Z" stroke="#4472C4" stroke-width="3.4375" stroke-linejoin="round" stroke-miterlimit="10" fill="#4472C4"/><path d="M3758 19864.4C3758 19870.5 3753.07 19875.4 3747 19875.4 3740.92 19875.4 3736 19870.5 3736 19864.4 3736 19858.3 3740.92 19853.4 3747 19853.4 3753.07 19853.4 3758 19858.3 3758 19864.4Z" stroke="#4472C4" stroke-width="3.4375" stroke-linejoin="round" stroke-miterlimit="10" fill="#4472C4"/><path d="M3762 19864.4C3762 19870.5 3757.07 19875.4 3751 19875.4 3744.92 19875.4 3740 19870.5 3740 19864.4 3740 19858.3 3744.92 19853.4 3751 19853.4 3757.07 19853.4 3762 19858.3 3762 19864.4Z" stroke="#4472C4" stroke-width="3.4375" stroke-linejoin="round" stroke-miterlimit="10" fill="#4472C4"/><path d="M3766 19865.4C3766 19871.5 3761.07 19876.4 3755 19876.4 3748.92 19876.4 3744 19871.5 3744 19865.4 3744 19859.3 3748.92 19854.4 3755 19854.4 3761.07 19854.4 3766 19859.3 3766 19865.4Z" stroke="#4472C4" stroke-width="3.4375" stroke-linejoin="round" stroke-miterlimit="10" fill="#4472C4"/><path d="M3770 19862.4C3770 19868.5 3765.07 19873.4 3759 19873.4 3752.92 19873.4 3748 19868.5 3748 19862.4 3748 19856.3 3752.92 19851.4 3759 19851.4 3765.07 19851.4 3770 19856.3 3770 19862.4Z" stroke="#4472C4" stroke-width="3.4375" stroke-linejoin="round" stroke-miterlimit="10" fill="#4472C4"/><path d="M3774 19865.4C3774 19871.5 3769.07 19876.4 3763 19876.4 3756.92 19876.4 3752 19871.5 3752 19865.4 3752 19859.3 3756.92 19854.4 3763 19854.4 3769.07 19854.4 3774 19859.3 3774 19865.4Z" stroke="#4472C4" stroke-width="3.4375" stroke-linejoin="round" stroke-miterlimit="10" fill="#4472C4"/><path d="M3778 19865.4C3778 19871.5 3773.07 19876.4 3767 19876.4 3760.92 19876.4 3756 19871.5 3756 19865.4 3756 19859.3 3760.92 19854.4 3767 19854.4 3773.07 19854.4 3778 19859.3 3778 19865.4Z" stroke="#4472C4" stroke-width="3.4375" stroke-linejoin="round" stroke-miterlimit="10" fill="#4472C4"/></g><g clip-path="url(#clip6)"><text fill="#595959" font-family="Calibri,Calibri_MSFontService,sans-serif" font-weight="400" font-size="41" transform="matrix(1 0 0 1 2422.29 20081)">-200000</text></g><g clip-path="url(#clip7)"><text fill="#595959" font-family="Calibri,Calibri_MSFontService,sans-serif" font-weight="400" font-size="41" transform="matrix(1 0 0 1 2422.29 19981)">-100000</text></g><g clip-path="url(#clip8)"><text fill="#595959" font-family="Calibri,Calibri_MSFontService,sans-serif" font-weight="400" font-size="41" transform="matrix(1 0 0 1 2539.42 19882)">0</text></g><g clip-path="url(#clip9)"><text fill="#595959" font-family="Calibri,Calibri_MSFontService,sans-serif" font-weight="400" font-size="41" transform="matrix(1 0 0 1 2434.92 19783)">100000</text></g><g clip-path="url(#clip10)"><text fill="#595959" font-family="Calibri,Calibri_MSFontService,sans-serif" font-weight="400" font-size="41" transform="matrix(1 0 0 1 2434.92 19683)">200000</text></g><g clip-path="url(#clip11)"><text fill="#595959" font-family="Calibri,Calibri_MSFontService,sans-serif" font-weight="400" font-size="41" transform="matrix(1 0 0 1 2434.92 19584)">300000</text></g><g clip-path="url(#clip12)"><text fill="#595959" font-family="Calibri,Calibri_MSFontService,sans-serif" font-weight="400" font-size="41" transform="matrix(1 0 0 1 2434.92 19484)">400000</text></g><g clip-path="url(#clip13)"><text fill="#595959" font-family="Calibri,Calibri_MSFontService,sans-serif" font-weight="400" font-size="41" transform="matrix(1 0 0 1 2434.92 19385)">500000</text></g><g clip-path="url(#clip14)"><text fill="#595959" font-family="Calibri,Calibri_MSFontService,sans-serif" font-weight="400" font-size="41" transform="matrix(1 0 0 1 2434.92 19285)">600000</text></g><g clip-path="url(#clip15)"><text fill="#595959" font-family="Calibri,Calibri_MSFontService,sans-serif" font-weight="400" font-size="41" transform="matrix(1 0 0 1 2588.14 19936)">0</text></g><g clip-path="url(#clip16)"><text fill="#595959" font-family="Calibri,Calibri_MSFontService,sans-serif" font-weight="400" font-size="41" transform="matrix(1 0 0 1 2772.28 19936)">50</text></g><g clip-path="url(#clip17)"><text fill="#595959" font-family="Calibri,Calibri_MSFontService,sans-serif" font-weight="400" font-size="41" transform="matrix(1 0 0 1 2956.42 19936)">100</text></g><g clip-path="url(#clip18)"><text fill="#595959" font-family="Calibri,Calibri_MSFontService,sans-serif" font-weight="400" font-size="41" transform="matrix(1 0 0 1 3151.01 19936)">150</text></g><g clip-path="url(#clip19)"><text fill="#595959" font-family="Calibri,Calibri_MSFontService,sans-serif" font-weight="400" font-size="41" transform="matrix(1 0 0 1 3345.61 19936)">200</text></g><g clip-path="url(#clip20)"><text fill="#595959" font-family="Calibri,Calibri_MSFontService,sans-serif" font-weight="400" font-size="41" transform="matrix(1 0 0 1 3540.2 19936)">250</text></g><g clip-path="url(#clip21)"><text fill="#595959" font-family="Calibri,Calibri_MSFontService,sans-serif" font-weight="400" font-size="41" transform="matrix(1 0 0 1 3734.79 19936)">300</text></g><g clip-path="url(#clip22)"><text fill="#595959" font-family="Calibri,Calibri_MSFontService,sans-serif" font-weight="400" font-size="41" transform="matrix(1 0 0 1 3929.38 19936)">350</text></g><g clip-path="url(#clip23)"><text fill="#595959" font-family="Calibri,Calibri_MSFontService,sans-serif" font-weight="400" font-size="64" transform="matrix(1 0 0 1 2877.24 19199)">Average Fitness (RED pop)</text></g><rect x="2393.5" y="19104.5" width="1649" height="1016" stroke="#D9D9D9" stroke-width="3.4375" stroke-linejoin="round" stroke-miterlimit="10" fill="none"/></g></svg>