<svg width="1680" height="1153" xmlns="http://www.w3.org/2000/svg" xmlns:xlink="http://www.w3.org/1999/xlink" overflow="hidden"><defs><clipPath id="clip0"><rect x="2392" y="19790" width="1680" height="1153"/></clipPath><clipPath id="clip1"><rect x="2392" y="19791" width="1678" height="1150"/></clipPath><clipPath id="clip2"><rect x="2392" y="19791" width="1678" height="1150"/></clipPath><clipPath id="clip3"><rect x="2392" y="19791" width="1678" height="1150"/></clipPath><clipPath id="clip4"><rect x="2392" y="19791" width="1678" height="1150"/></clipPath><clipPath id="clip5"><rect x="2392" y="19791" width="1678" height="1150"/></clipPath><clipPath id="clip6"><rect x="2392" y="19791" width="1678" height="1150"/></clipPath><clipPath id="clip7"><rect x="2392" y="19791" width="1678" height="1150"/></clipPath><clipPath id="clip8"><rect x="2392" y="19791" width="1678" height="1150"/></clipPath><clipPath id="clip9"><rect x="2392" y="19791" width="1678" height="1150"/></clipPath><clipPath id="clip10"><rect x="2704" y="19961" width="1284" height="776"/></clipPath><clipPath id="clip11"><rect x="2392" y="19791" width="1678" height="1150"/></clipPath><clipPath id="clip12"><rect x="2392" y="19791" width="1678" height="1150"/></clipPath><clipPath id="clip13"><rect x="2392" y="19791" width="1678" height="1150"/></clipPath><clipPath id="clip14"><rect x="2392" y="19791" width="1678" height="1150"/></clipPath><clipPath id="clip15"><rect x="2392" y="19791" width="1678" height="1150"/></clipPath><clipPath id="clip16"><rect x="2392" y="19791" width="1678" height="1150"/></clipPath><clipPath id="clip17"><rect x="2392" y="19791" width="1678" height="1150"/></clipPath><clipPath id="clip18"><rect x="2392" y="19791" width="1678" height="1150"/></clipPath><clipPath id="clip19"><rect x="2392" y="19791" width="1678" height="1150"/></clipPath><clipPath id="clip20"><rect x="2392" y="19791" width="1678" height="1150"/></clipPath><clipPath id="clip21"><rect x="2392" y="19791" width="1678" height="1150"/></clipPath><clipPath id="clip22"><rect x="2392" y="19791" width="1678" height="1150"/></clipPath><clipPath id="clip23"><rect x="2392" y="19791" width="1678" height="1150"/></clipPath><clipPath id="clip24"><rect x="2392" y="19791" width="1678" height="1150"/></clipPath><clipPath id="clip25"><rect x="2392" y="19791" width="1678" height="1150"/></clipPath><clipPath id="clip26"><rect x="2392" y="19791" width="1678" height="1150"/></clipPath><clipPath id="clip27"><rect x="2392" y="19791" width="1678" height="1150"/></clipPath><clipPath id="clip28"><rect x="2392" y="19791" width="1678" height="1150"/></clipPath><clipPath id="clip29"><rect x="2392" y="19791" width="1678" height="1150"/></clipPath><clipPath id="clip30"><rect x="2392" y="19791" width="1678" height="1150"/></clipPath><clipPath id="clip31"><rect x="2392" y="19791" width="1678" height="1150"/></clipPath></defs><g clip-path="url(#clip0)" transform="translate(-2392 -19790)"><rect x="2393" y="19791" width="1677" height="1150" fill="#FFFFFF"/><g clip-path="url(#clip1)"><path d="M2704.5 20718.2 3988.5 20718.2M2704.5 20699.2 3988.5 20699.2M2704.5 20679.2 3988.5 20679.2M2704.5 20660.2 3988.5 20660.2M2704.5 20621.2 3988.5 20621.2M2704.5 20602.2 3988.5 20602.2M2704.5 20582.2 3988.5 20582.2M2704.5 20563.2 3988.5 20563.2M2704.5 20524.2 3988.5 20524.2M2704.5 20505.2 3988.5 20505.2M2704.5 20485.2 3988.5 20485.2M2704.5 20466.2 3988.5 20466.2M2704.5 20427.2 3988.5 20427.2M2704.5 20408.2 3988.5 20408.2M2704.5 20388.2 3988.5 20388.2M2704.5 20369.2 3988.5 20369.2M2704.5 20330.2 3988.5 20330.2M2704.5 20311.2 3988.5 20311.2M2704.5 20291.2 3988.5 20291.2M2704.5 20272.2 3988.5 20272.2M2704.5 20233.2 3988.5 20233.2M2704.5 20214.2 3988.5 20214.2M2704.5 20194.2 3988.5 20194.2M2704.5 20175.2 3988.5 20175.2M2704.5 20136.2 3988.5 20136.2M2704.5 20117.2 3988.5 20117.2M2704.5 20097.2 3988.5 20097.2M2704.5 20078.2 3988.5 20078.2M2704.5 20039.2 3988.5 20039.2M2704.5 20019.2 3988.5 20019.2M2704.5 20000.2 3988.5 20000.2M2704.5 19981.2 3988.5 19981.2" stroke="#F2F2F2" stroke-width="3.4375" stroke-linejoin="round" stroke-miterlimit="10" fill="none"/></g><g clip-path="url(#clip2)"><path d="M2704.5 20641.2 3988.5 20641.2M2704.5 20543.2 3988.5 20543.2M2704.5 20446.2 3988.5 20446.2M2704.5 20349.2 3988.5 20349.2M2704.5 20252.2 3988.5 20252.2M2704.5 20155.2 3988.5 20155.2M2704.5 20058.2 3988.5 20058.2M2704.5 19961.5 3988.5 19961.5" stroke="#D9D9D9" stroke-width="3.4375" stroke-linejoin="round" stroke-miterlimit="10" fill="none"/></g><g clip-path="url(#clip3)"><path d="M2740.59 19961.5 2740.59 20737.5M2777.59 19961.5 2777.59 20737.5M2814.59 19961.5 2814.59 20737.5M2850.59 19961.5 2850.59 20737.5M2924.6 19961.5 2924.6 20737.5M2960.6 19961.5 2960.6 20737.5M2997.6 19961.5 2997.6 20737.5M3034.6 19961.5 3034.6 20737.5M3107.6 19961.5 3107.6 20737.5M3144.6 19961.5 3144.6 20737.5M3180.6 19961.5 3180.6 20737.5M3217.61 19961.5 3217.61 20737.5M3290.61 19961.5 3290.61 20737.5M3327.61 19961.5 3327.61 20737.5M3364.61 19961.5 3364.61 20737.5M3401.61 19961.5 3401.61 20737.5M3474.61 19961.5 3474.61 20737.5M3511.62 19961.5 3511.62 20737.5M3547.62 19961.5 3547.62 20737.5M3584.62 19961.5 3584.62 20737.5M3657.62 19961.5 3657.62 20737.5M3694.62 19961.5 3694.62 20737.5M3731.62 19961.5 3731.62 20737.5M3767.62 19961.5 3767.62 20737.5M3841.63 19961.5 3841.63 20737.5M3878.63 19961.5 3878.63 20737.5M3914.63 19961.5 3914.63 20737.5M3951.63 19961.5 3951.63 20737.5" stroke="#F2F2F2" stroke-width="3.4375" stroke-linejoin="round" stroke-miterlimit="10" fill="none"/></g><g clip-path="url(#clip4)"><path d="M2887.59 19961.5 2887.59 20737.5M3070.6 19961.5 3070.6 20737.5M3254.61 19961.5 3254.61 20737.5M3437.61 19961.5 3437.61 20737.5M3621.62 19961.5 3621.62 20737.5M3804.62 19961.5 3804.62 20737.5M3988.5 19961.5 3988.5 20737.5" stroke="#D9D9D9" stroke-width="3.4375" stroke-linejoin="round" stroke-miterlimit="10" fill="none"/></g><g clip-path="url(#clip5)"><path d="M0 0 0.000360892 776" stroke="#BFBFBF" stroke-width="3.4375" stroke-linejoin="round" stroke-miterlimit="10" fill="none" fill-rule="evenodd" transform="matrix(1 0 0 -1 2704.5 20737.5)"/></g><g clip-path="url(#clip6)"><path d="M2690.5 20737.5 2704.5 20737.5M2690.5 20641.2 2704.5 20641.2M2690.5 20543.2 2704.5 20543.2M2690.5 20446.2 2704.5 20446.2M2690.5 20349.2 2704.5 20349.2M2690.5 20252.2 2704.5 20252.2M2690.5 20155.2 2704.5 20155.2M2690.5 20058.2 2704.5 20058.2M2690.5 19961.5 2704.5 19961.5" stroke="#BFBFBF" stroke-width="3.4375" stroke-linejoin="round" stroke-miterlimit="10" fill="none"/></g><g clip-path="url(#clip7)"><path d="M2704.5 20737.5 3988.5 20737.5" stroke="#BFBFBF" stroke-width="3.4375" stroke-linejoin="round" stroke-miterlimit="10" fill="none" fill-rule="evenodd"/></g><g clip-path="url(#clip8)"><path d="M2704.5 20737.5 2704.5 20750.5M2887.59 20737.5 2887.59 20750.5M3070.6 20737.5 3070.6 20750.5M3254.61 20737.5 3254.61 20750.5M3437.61 20737.5 3437.61 20750.5M3621.62 20737.5 3621.62 20750.5M3804.62 20737.5 3804.62 20750.5M3988.5 20737.5 3988.5 20750.5" stroke="#BFBFBF" stroke-width="3.4375" stroke-linejoin="round" stroke-miterlimit="10" fill="none"/></g><g clip-path="url(#clip9)"><path d="M2716 20686.9C2716 20693 2711.07 20697.9 2705 20697.9 2698.92 20697.9 2694 20693 2694 20686.9 2694 20680.8 2698.92 20675.9 2705 20675.9 2711.07 20675.9 2716 20680.8 2716 20686.9Z" stroke="#4472C4" stroke-width="3.4375" stroke-linejoin="round" stroke-miterlimit="10" fill="#4472C4"/><path d="M2719 20676.9C2719 20683 2714.07 20687.9 2708 20687.9 2701.92 20687.9 2697 20683 2697 20676.9 2697 20670.8 2701.92 20665.9 2708 20665.9 2714.07 20665.9 2719 20670.8 2719 20676.9Z" stroke="#4472C4" stroke-width="3.4375" stroke-linejoin="round" stroke-miterlimit="10" fill="#4472C4"/><path d="M2723 20686.9C2723 20693 2718.07 20697.9 2712 20697.9 2705.92 20697.9 2701 20693 2701 20686.9 2701 20680.8 2705.92 20675.9 2712 20675.9 2718.07 20675.9 2723 20680.8 2723 20686.9Z" stroke="#4472C4" stroke-width="3.4375" stroke-linejoin="round" stroke-miterlimit="10" fill="#4472C4"/><path d="M2727 20726.9C2727 20733 2722.07 20737.9 2716 20737.9 2709.92 20737.9 2705 20733 2705 20726.9 2705 20720.8 2709.92 20715.9 2716 20715.9 2722.07 20715.9 2727 20720.8 2727 20726.9Z" stroke="#4472C4" stroke-width="3.4375" stroke-linejoin="round" stroke-miterlimit="10" fill="#4472C4"/><path d="M2730 20682.9C2730 20689 2725.07 20693.9 2719 20693.9 2712.92 20693.9 2708 20689 2708 20682.9 2708 20676.8 2712.92 20671.9 2719 20671.9 2725.07 20671.9 2730 20676.8 2730 20682.9Z" stroke="#4472C4" stroke-width="3.4375" stroke-linejoin="round" stroke-miterlimit="10" fill="#4472C4"/><path d="M2734 20628.9C2734 20635 2729.07 20639.9 2723 20639.9 2716.92 20639.9 2712 20635 2712 20628.9 2712 20622.8 2716.92 20617.9 2723 20617.9 2729.07 20617.9 2734 20622.8 2734 20628.9Z" stroke="#4472C4" stroke-width="3.4375" stroke-linejoin="round" stroke-miterlimit="10" fill="#4472C4"/><path d="M2738 20497.9C2738 20504 2733.07 20508.9 2727 20508.9 2720.92 20508.9 2716 20504 2716 20497.9 2716 20491.8 2720.92 20486.9 2727 20486.9 2733.07 20486.9 2738 20491.8 2738 20497.9Z" stroke="#4472C4" stroke-width="3.4375" stroke-linejoin="round" stroke-miterlimit="10" fill="#4472C4"/><path d="M2741 20540.9C2741 20547 2736.07 20551.9 2730 20551.9 2723.92 20551.9 2719 20547 2719 20540.9 2719 20534.8 2723.92 20529.9 2730 20529.9 2736.07 20529.9 2741 20534.8 2741 20540.9Z" stroke="#4472C4" stroke-width="3.4375" stroke-linejoin="round" stroke-miterlimit="10" fill="#4472C4"/><path d="M2745 20633.9C2745 20640 2740.07 20644.9 2734 20644.9 2727.92 20644.9 2723 20640 2723 20633.9 2723 20627.8 2727.92 20622.9 2734 20622.9 2740.07 20622.9 2745 20627.8 2745 20633.9Z" stroke="#4472C4" stroke-width="3.4375" stroke-linejoin="round" stroke-miterlimit="10" fill="#4472C4"/><path d="M2749 20431.9C2749 20438 2744.07 20442.9 2738 20442.9 2731.92 20442.9 2727 20438 2727 20431.9 2727 20425.8 2731.92 20420.9 2738 20420.9 2744.07 20420.9 2749 20425.8 2749 20431.9Z" stroke="#4472C4" stroke-width="3.4375" stroke-linejoin="round" stroke-miterlimit="10" fill="#4472C4"/><path d="M2752 20461.9C2752 20468 2747.07 20472.9 2741 20472.9 2734.92 20472.9 2730 20468 2730 20461.9 2730 20455.8 2734.92 20450.9 2741 20450.9 2747.07 20450.9 2752 20455.8 2752 20461.9Z" stroke="#4472C4" stroke-width="3.4375" stroke-linejoin="round" stroke-miterlimit="10" fill="#4472C4"/><path d="M2756 20496.9C2756 20503 2751.07 20507.9 2745 20507.9 2738.92 20507.9 2734 20503 2734 20496.9 2734 20490.8 2738.92 20485.9 2745 20485.9 2751.07 20485.9 2756 20490.8 2756 20496.9Z" stroke="#4472C4" stroke-width="3.4375" stroke-linejoin="round" stroke-miterlimit="10" fill="#4472C4"/><path d="M2760 20443.9C2760 20450 2755.07 20454.9 2749 20454.9 2742.92 20454.9 2738 20450 2738 20443.9 2738 20437.8 2742.92 20432.9 2749 20432.9 2755.07 20432.9 2760 20437.8 2760 20443.9Z" stroke="#4472C4" stroke-width="3.4375" stroke-linejoin="round" stroke-miterlimit="10" fill="#4472C4"/><path d="M2763 20532.9C2763 20539 2758.07 20543.9 2752 20543.9 2745.92 20543.9 2741 20539 2741 20532.9 2741 20526.8 2745.92 20521.9 2752 20521.9 2758.07 20521.9 2763 20526.8 2763 20532.9Z" stroke="#4472C4" stroke-width="3.4375" stroke-linejoin="round" stroke-miterlimit="10" fill="#4472C4"/><path d="M2767 20452.9C2767 20459 2762.07 20463.9 2756 20463.9 2749.92 20463.9 2745 20459 2745 20452.9 2745 20446.8 2749.92 20441.9 2756 20441.9 2762.07 20441.9 2767 20446.8 2767 20452.9Z" stroke="#4472C4" stroke-width="3.4375" stroke-linejoin="round" stroke-miterlimit="10" fill="#4472C4"/><path d="M2771 20456.9C2771 20463 2766.07 20467.9 2760 20467.9 2753.92 20467.9 2749 20463 2749 20456.9 2749 20450.8 2753.92 20445.9 2760 20445.9 2766.07 20445.9 2771 20450.8 2771 20456.9Z" stroke="#4472C4" stroke-width="3.4375" stroke-linejoin="round" stroke-miterlimit="10" fill="#4472C4"/><path d="M2774 20506.9C2774 20513 2769.07 20517.9 2763 20517.9 2756.92 20517.9 2752 20513 2752 20506.9 2752 20500.8 2756.92 20495.9 2763 20495.9 2769.07 20495.9 2774 20500.8 2774 20506.9Z" stroke="#4472C4" stroke-width="3.4375" stroke-linejoin="round" stroke-miterlimit="10" fill="#4472C4"/><path d="M2778 20525.9C2778 20532 2773.07 20536.9 2767 20536.9 2760.92 20536.9 2756 20532 2756 20525.9 2756 20519.8 2760.92 20514.9 2767 20514.9 2773.07 20514.9 2778 20519.8 2778 20525.9Z" stroke="#4472C4" stroke-width="3.4375" stroke-linejoin="round" stroke-miterlimit="10" fill="#4472C4"/><path d="M2782 20511.9C2782 20518 2777.07 20522.9 2771 20522.9 2764.92 20522.9 2760 20518 2760 20511.9 2760 20505.8 2764.92 20500.9 2771 20500.9 2777.07 20500.9 2782 20505.8 2782 20511.9Z" stroke="#4472C4" stroke-width="3.4375" stroke-linejoin="round" stroke-miterlimit="10" fill="#4472C4"/><path d="M2785 20583.9C2785 20590 2780.07 20594.9 2774 20594.9 2767.92 20594.9 2763 20590 2763 20583.9 2763 20577.8 2767.92 20572.9 2774 20572.9 2780.07 20572.9 2785 20577.8 2785 20583.9Z" stroke="#4472C4" stroke-width="3.4375" stroke-linejoin="round" stroke-miterlimit="10" fill="#4472C4"/><path d="M2789 20402.9C2789 20409 2784.07 20413.9 2778 20413.9 2771.92 20413.9 2767 20409 2767 20402.9 2767 20396.8 2771.92 20391.9 2778 20391.9 2784.07 20391.9 2789 20396.8 2789 20402.9Z" stroke="#4472C4" stroke-width="3.4375" stroke-linejoin="round" stroke-miterlimit="10" fill="#4472C4"/><path d="M2793 20344.9C2793 20351 2788.07 20355.9 2782 20355.9 2775.92 20355.9 2771 20351 2771 20344.9 2771 20338.8 2775.92 20333.9 2782 20333.9 2788.07 20333.9 2793 20338.8 2793 20344.9Z" stroke="#4472C4" stroke-width="3.4375" stroke-linejoin="round" stroke-miterlimit="10" fill="#4472C4"/><path d="M2796 20296.9C2796 20303 2791.07 20307.9 2785 20307.9 2778.92 20307.9 2774 20303 2774 20296.9 2774 20290.8 2778.92 20285.9 2785 20285.9 2791.07 20285.9 2796 20290.8 2796 20296.9Z" stroke="#4472C4" stroke-width="3.4375" stroke-linejoin="round" stroke-miterlimit="10" fill="#4472C4"/><path d="M2800 20462.9C2800 20469 2795.07 20473.9 2789 20473.9 2782.92 20473.9 2778 20469 2778 20462.9 2778 20456.8 2782.92 20451.9 2789 20451.9 2795.07 20451.9 2800 20456.8 2800 20462.9Z" stroke="#4472C4" stroke-width="3.4375" stroke-linejoin="round" stroke-miterlimit="10" fill="#4472C4"/><path d="M2804 20478.9C2804 20485 2799.07 20489.9 2793 20489.9 2786.92 20489.9 2782 20485 2782 20478.9 2782 20472.8 2786.92 20467.9 2793 20467.9 2799.07 20467.9 2804 20472.8 2804 20478.9Z" stroke="#4472C4" stroke-width="3.4375" stroke-linejoin="round" stroke-miterlimit="10" fill="#4472C4"/><path d="M2807 20364.9C2807 20371 2802.07 20375.9 2796 20375.9 2789.92 20375.9 2785 20371 2785 20364.9 2785 20358.8 2789.92 20353.9 2796 20353.9 2802.07 20353.9 2807 20358.8 2807 20364.9Z" stroke="#4472C4" stroke-width="3.4375" stroke-linejoin="round" stroke-miterlimit="10" fill="#4472C4"/><path d="M2811 20386.9C2811 20393 2806.07 20397.9 2800 20397.9 2793.92 20397.9 2789 20393 2789 20386.9 2789 20380.8 2793.92 20375.9 2800 20375.9 2806.07 20375.9 2811 20380.8 2811 20386.9Z" stroke="#4472C4" stroke-width="3.4375" stroke-linejoin="round" stroke-miterlimit="10" fill="#4472C4"/><path d="M2815 20504.9C2815 20511 2810.07 20515.9 2804 20515.9 2797.92 20515.9 2793 20511 2793 20504.9 2793 20498.8 2797.92 20493.9 2804 20493.9 2810.07 20493.9 2815 20498.8 2815 20504.9Z" stroke="#4472C4" stroke-width="3.4375" stroke-linejoin="round" stroke-miterlimit="10" fill="#4472C4"/><path d="M2818 20451.9C2818 20458 2813.07 20462.9 2807 20462.9 2800.92 20462.9 2796 20458 2796 20451.9 2796 20445.8 2800.92 20440.9 2807 20440.9 2813.07 20440.9 2818 20445.8 2818 20451.9Z" stroke="#4472C4" stroke-width="3.4375" stroke-linejoin="round" stroke-miterlimit="10" fill="#4472C4"/><path d="M2822 20378.9C2822 20385 2817.07 20389.9 2811 20389.9 2804.92 20389.9 2800 20385 2800 20378.9 2800 20372.8 2804.92 20367.9 2811 20367.9 2817.07 20367.9 2822 20372.8 2822 20378.9Z" stroke="#4472C4" stroke-width="3.4375" stroke-linejoin="round" stroke-miterlimit="10" fill="#4472C4"/><path d="M2826 20310.9C2826 20317 2821.07 20321.9 2815 20321.9 2808.92 20321.9 2804 20317 2804 20310.9 2804 20304.8 2808.92 20299.9 2815 20299.9 2821.07 20299.9 2826 20304.8 2826 20310.9Z" stroke="#4472C4" stroke-width="3.4375" stroke-linejoin="round" stroke-miterlimit="10" fill="#4472C4"/><path d="M2829 20416.9C2829 20423 2824.07 20427.9 2818 20427.9 2811.92 20427.9 2807 20423 2807 20416.9 2807 20410.8 2811.92 20405.9 2818 20405.9 2824.07 20405.9 2829 20410.8 2829 20416.9Z" stroke="#4472C4" stroke-width="3.4375" stroke-linejoin="round" stroke-miterlimit="10" fill="#4472C4"/><path d="M2833 20454.9C2833 20461 2828.07 20465.9 2822 20465.9 2815.92 20465.9 2811 20461 2811 20454.9 2811 20448.8 2815.92 20443.9 2822 20443.9 2828.07 20443.9 2833 20448.8 2833 20454.9Z" stroke="#4472C4" stroke-width="3.4375" stroke-linejoin="round" stroke-miterlimit="10" fill="#4472C4"/><path d="M2837 20418.9C2837 20425 2832.07 20429.9 2826 20429.9 2819.92 20429.9 2815 20425 2815 20418.9 2815 20412.8 2819.92 20407.9 2826 20407.9 2832.07 20407.9 2837 20412.8 2837 20418.9Z" stroke="#4472C4" stroke-width="3.4375" stroke-linejoin="round" stroke-miterlimit="10" fill="#4472C4"/><path d="M2840 20432.9C2840 20439 2835.07 20443.9 2829 20443.9 2822.92 20443.9 2818 20439 2818 20432.9 2818 20426.8 2822.92 20421.9 2829 20421.9 2835.07 20421.9 2840 20426.8 2840 20432.9Z" stroke="#4472C4" stroke-width="3.4375" stroke-linejoin="round" stroke-miterlimit="10" fill="#4472C4"/><path d="M2844 20267.9C2844 20274 2839.07 20278.9 2833 20278.9 2826.92 20278.9 2822 20274 2822 20267.9 2822 20261.8 2826.92 20256.9 2833 20256.9 2839.07 20256.9 2844 20261.8 2844 20267.9Z" stroke="#4472C4" stroke-width="3.4375" stroke-linejoin="round" stroke-miterlimit="10" fill="#4472C4"/><path d="M2848 20286.9C2848 20293 2843.07 20297.9 2837 20297.9 2830.92 20297.9 2826 20293 2826 20286.9 2826 20280.8 2830.92 20275.9 2837 20275.9 2843.07 20275.9 2848 20280.8 2848 20286.9Z" stroke="#4472C4" stroke-width="3.4375" stroke-linejoin="round" stroke-miterlimit="10" fill="#4472C4"/><path d="M2851 20320.9C2851 20327 2846.07 20331.9 2840 20331.9 2833.92 20331.9 2829 20327 2829 20320.9 2829 20314.8 2833.92 20309.9 2840 20309.9 2846.07 20309.9 2851 20314.8 2851 20320.9Z" stroke="#4472C4" stroke-width="3.4375" stroke-linejoin="round" stroke-miterlimit="10" fill="#4472C4"/><path d="M2855 20210.9C2855 20217 2850.07 20221.9 2844 20221.9 2837.92 20221.9 2833 20217 2833 20210.9 2833 20204.8 2837.92 20199.9 2844 20199.9 2850.07 20199.9 2855 20204.8 2855 20210.9Z" stroke="#4472C4" stroke-width="3.4375" stroke-linejoin="round" stroke-miterlimit="10" fill="#4472C4"/><path d="M2859 20411.9C2859 20418 2854.07 20422.9 2848 20422.9 2841.92 20422.9 2837 20418 2837 20411.9 2837 20405.8 2841.92 20400.9 2848 20400.9 2854.07 20400.9 2859 20405.8 2859 20411.9Z" stroke="#4472C4" stroke-width="3.4375" stroke-linejoin="round" stroke-miterlimit="10" fill="#4472C4"/><path d="M2862 20298.9C2862 20305 2857.07 20309.9 2851 20309.9 2844.92 20309.9 2840 20305 2840 20298.9 2840 20292.8 2844.92 20287.9 2851 20287.9 2857.07 20287.9 2862 20292.8 2862 20298.9Z" stroke="#4472C4" stroke-width="3.4375" stroke-linejoin="round" stroke-miterlimit="10" fill="#4472C4"/><path d="M2866 20334.9C2866 20341 2861.07 20345.9 2855 20345.9 2848.92 20345.9 2844 20341 2844 20334.9 2844 20328.8 2848.92 20323.9 2855 20323.9 2861.07 20323.9 2866 20328.8 2866 20334.9Z" stroke="#4472C4" stroke-width="3.4375" stroke-linejoin="round" stroke-miterlimit="10" fill="#4472C4"/><path d="M2870 20239.9C2870 20246 2865.07 20250.9 2859 20250.9 2852.92 20250.9 2848 20246 2848 20239.9 2848 20233.8 2852.92 20228.9 2859 20228.9 2865.07 20228.9 2870 20233.8 2870 20239.9Z" stroke="#4472C4" stroke-width="3.4375" stroke-linejoin="round" stroke-miterlimit="10" fill="#4472C4"/><path d="M2873 20426.9C2873 20433 2868.07 20437.9 2862 20437.9 2855.92 20437.9 2851 20433 2851 20426.9 2851 20420.8 2855.92 20415.9 2862 20415.9 2868.07 20415.9 2873 20420.8 2873 20426.9Z" stroke="#4472C4" stroke-width="3.4375" stroke-linejoin="round" stroke-miterlimit="10" fill="#4472C4"/><path d="M2877 20646.9C2877 20653 2872.07 20657.9 2866 20657.9 2859.92 20657.9 2855 20653 2855 20646.9 2855 20640.8 2859.92 20635.9 2866 20635.9 2872.07 20635.9 2877 20640.8 2877 20646.9Z" stroke="#4472C4" stroke-width="3.4375" stroke-linejoin="round" stroke-miterlimit="10" fill="#4472C4"/><path d="M2881 20684.9C2881 20691 2876.07 20695.9 2870 20695.9 2863.92 20695.9 2859 20691 2859 20684.9 2859 20678.8 2863.92 20673.9 2870 20673.9 2876.07 20673.9 2881 20678.8 2881 20684.9Z" stroke="#4472C4" stroke-width="3.4375" stroke-linejoin="round" stroke-miterlimit="10" fill="#4472C4"/><path d="M2884 20607.9C2884 20614 2879.07 20618.9 2873 20618.9 2866.92 20618.9 2862 20614 2862 20607.9 2862 20601.8 2866.92 20596.9 2873 20596.9 2879.07 20596.9 2884 20601.8 2884 20607.9Z" stroke="#4472C4" stroke-width="3.4375" stroke-linejoin="round" stroke-miterlimit="10" fill="#4472C4"/><path d="M2888 20509.9C2888 20516 2883.07 20520.9 2877 20520.9 2870.92 20520.9 2866 20516 2866 20509.9 2866 20503.8 2870.92 20498.9 2877 20498.9 2883.07 20498.9 2888 20503.8 2888 20509.9Z" stroke="#4472C4" stroke-width="3.4375" stroke-linejoin="round" stroke-miterlimit="10" fill="#4472C4"/><path d="M2892 20565.9C2892 20572 2887.07 20576.9 2881 20576.9 2874.92 20576.9 2870 20572 2870 20565.9 2870 20559.8 2874.92 20554.9 2881 20554.9 2887.07 20554.9 2892 20559.8 2892 20565.9Z" stroke="#4472C4" stroke-width="3.4375" stroke-linejoin="round" stroke-miterlimit="10" fill="#4472C4"/><path d="M2895 20551.9C2895 20558 2890.07 20562.9 2884 20562.9 2877.92 20562.9 2873 20558 2873 20551.9 2873 20545.8 2877.92 20540.9 2884 20540.9 2890.07 20540.9 2895 20545.8 2895 20551.9Z" stroke="#4472C4" stroke-width="3.4375" stroke-linejoin="round" stroke-miterlimit="10" fill="#4472C4"/><path d="M2899 20432.9C2899 20439 2894.07 20443.9 2888 20443.9 2881.92 20443.9 2877 20439 2877 20432.9 2877 20426.8 2881.92 20421.9 2888 20421.9 2894.07 20421.9 2899 20426.8 2899 20432.9Z" stroke="#4472C4" stroke-width="3.4375" stroke-linejoin="round" stroke-miterlimit="10" fill="#4472C4"/><path d="M2903 20279.9C2903 20286 2898.07 20290.9 2892 20290.9 2885.92 20290.9 2881 20286 2881 20279.9 2881 20273.8 2885.92 20268.9 2892 20268.9 2898.07 20268.9 2903 20273.8 2903 20279.9Z" stroke="#4472C4" stroke-width="3.4375" stroke-linejoin="round" stroke-miterlimit="10" fill="#4472C4"/><path d="M2906 20432.9C2906 20439 2901.07 20443.9 2895 20443.9 2888.92 20443.9 2884 20439 2884 20432.9 2884 20426.8 2888.92 20421.9 2895 20421.9 2901.07 20421.9 2906 20426.8 2906 20432.9Z" stroke="#4472C4" stroke-width="3.4375" stroke-linejoin="round" stroke-miterlimit="10" fill="#4472C4"/><path d="M2910 20520.9C2910 20527 2905.07 20531.9 2899 20531.9 2892.92 20531.9 2888 20527 2888 20520.9 2888 20514.8 2892.92 20509.9 2899 20509.9 2905.07 20509.9 2910 20514.8 2910 20520.9Z" stroke="#4472C4" stroke-width="3.4375" stroke-linejoin="round" stroke-miterlimit="10" fill="#4472C4"/><path d="M2914 20590.9C2914 20597 2909.07 20601.9 2903 20601.9 2896.92 20601.9 2892 20597 2892 20590.9 2892 20584.8 2896.92 20579.9 2903 20579.9 2909.07 20579.9 2914 20584.8 2914 20590.9Z" stroke="#4472C4" stroke-width="3.4375" stroke-linejoin="round" stroke-miterlimit="10" fill="#4472C4"/><path d="M2917 20348.9C2917 20355 2912.07 20359.9 2906 20359.9 2899.92 20359.9 2895 20355 2895 20348.9 2895 20342.8 2899.92 20337.9 2906 20337.9 2912.07 20337.9 2917 20342.8 2917 20348.9Z" stroke="#4472C4" stroke-width="3.4375" stroke-linejoin="round" stroke-miterlimit="10" fill="#4472C4"/><path d="M2921 20295.9C2921 20302 2916.07 20306.9 2910 20306.9 2903.92 20306.9 2899 20302 2899 20295.9 2899 20289.8 2903.92 20284.9 2910 20284.9 2916.07 20284.9 2921 20289.8 2921 20295.9Z" stroke="#4472C4" stroke-width="3.4375" stroke-linejoin="round" stroke-miterlimit="10" fill="#4472C4"/><path d="M2925 20383.9C2925 20390 2920.07 20394.9 2914 20394.9 2907.92 20394.9 2903 20390 2903 20383.9 2903 20377.8 2907.92 20372.9 2914 20372.9 2920.07 20372.9 2925 20377.8 2925 20383.9Z" stroke="#4472C4" stroke-width="3.4375" stroke-linejoin="round" stroke-miterlimit="10" fill="#4472C4"/><path d="M2928 20364.9C2928 20371 2923.07 20375.9 2917 20375.9 2910.92 20375.9 2906 20371 2906 20364.9 2906 20358.8 2910.92 20353.9 2917 20353.9 2923.07 20353.9 2928 20358.8 2928 20364.9Z" stroke="#4472C4" stroke-width="3.4375" stroke-linejoin="round" stroke-miterlimit="10" fill="#4472C4"/><path d="M2932 20314.9C2932 20321 2927.07 20325.9 2921 20325.9 2914.92 20325.9 2910 20321 2910 20314.9 2910 20308.8 2914.92 20303.9 2921 20303.9 2927.07 20303.9 2932 20308.8 2932 20314.9Z" stroke="#4472C4" stroke-width="3.4375" stroke-linejoin="round" stroke-miterlimit="10" fill="#4472C4"/><path d="M2936 20345.9C2936 20352 2931.07 20356.9 2925 20356.9 2918.92 20356.9 2914 20352 2914 20345.9 2914 20339.8 2918.92 20334.9 2925 20334.9 2931.07 20334.9 2936 20339.8 2936 20345.9Z" stroke="#4472C4" stroke-width="3.4375" stroke-linejoin="round" stroke-miterlimit="10" fill="#4472C4"/><path d="M2939 20312.9C2939 20319 2934.07 20323.9 2928 20323.9 2921.92 20323.9 2917 20319 2917 20312.9 2917 20306.8 2921.92 20301.9 2928 20301.9 2934.07 20301.9 2939 20306.8 2939 20312.9Z" stroke="#4472C4" stroke-width="3.4375" stroke-linejoin="round" stroke-miterlimit="10" fill="#4472C4"/><path d="M2943 20531.9C2943 20538 2938.07 20542.9 2932 20542.9 2925.92 20542.9 2921 20538 2921 20531.9 2921 20525.8 2925.92 20520.9 2932 20520.9 2938.07 20520.9 2943 20525.8 2943 20531.9Z" stroke="#4472C4" stroke-width="3.4375" stroke-linejoin="round" stroke-miterlimit="10" fill="#4472C4"/><path d="M2947 20420.9C2947 20427 2942.07 20431.9 2936 20431.9 2929.92 20431.9 2925 20427 2925 20420.9 2925 20414.8 2929.92 20409.9 2936 20409.9 2942.07 20409.9 2947 20414.8 2947 20420.9Z" stroke="#4472C4" stroke-width="3.4375" stroke-linejoin="round" stroke-miterlimit="10" fill="#4472C4"/><path d="M2950 20400.9C2950 20407 2945.07 20411.9 2939 20411.9 2932.92 20411.9 2928 20407 2928 20400.9 2928 20394.8 2932.92 20389.9 2939 20389.9 2945.07 20389.9 2950 20394.8 2950 20400.9Z" stroke="#4472C4" stroke-width="3.4375" stroke-linejoin="round" stroke-miterlimit="10" fill="#4472C4"/><path d="M2954 20288.9C2954 20295 2949.07 20299.9 2943 20299.9 2936.92 20299.9 2932 20295 2932 20288.9 2932 20282.8 2936.92 20277.9 2943 20277.9 2949.07 20277.9 2954 20282.8 2954 20288.9Z" stroke="#4472C4" stroke-width="3.4375" stroke-linejoin="round" stroke-miterlimit="10" fill="#4472C4"/><path d="M2958 20385.9C2958 20392 2953.07 20396.9 2947 20396.9 2940.92 20396.9 2936 20392 2936 20385.9 2936 20379.8 2940.92 20374.9 2947 20374.9 2953.07 20374.9 2958 20379.8 2958 20385.9Z" stroke="#4472C4" stroke-width="3.4375" stroke-linejoin="round" stroke-miterlimit="10" fill="#4472C4"/><path d="M2961 20400.9C2961 20407 2956.07 20411.9 2950 20411.9 2943.92 20411.9 2939 20407 2939 20400.9 2939 20394.8 2943.92 20389.9 2950 20389.9 2956.07 20389.9 2961 20394.8 2961 20400.9Z" stroke="#4472C4" stroke-width="3.4375" stroke-linejoin="round" stroke-miterlimit="10" fill="#4472C4"/><path d="M2965 20634.9C2965 20641 2960.07 20645.9 2954 20645.9 2947.92 20645.9 2943 20641 2943 20634.9 2943 20628.8 2947.92 20623.9 2954 20623.9 2960.07 20623.9 2965 20628.8 2965 20634.9Z" stroke="#4472C4" stroke-width="3.4375" stroke-linejoin="round" stroke-miterlimit="10" fill="#4472C4"/><path d="M2969 20460.9C2969 20467 2964.07 20471.9 2958 20471.9 2951.92 20471.9 2947 20467 2947 20460.9 2947 20454.8 2951.92 20449.9 2958 20449.9 2964.07 20449.9 2969 20454.8 2969 20460.9Z" stroke="#4472C4" stroke-width="3.4375" stroke-linejoin="round" stroke-miterlimit="10" fill="#4472C4"/><path d="M2972 20628.9C2972 20635 2967.07 20639.9 2961 20639.9 2954.92 20639.9 2950 20635 2950 20628.9 2950 20622.8 2954.92 20617.9 2961 20617.9 2967.07 20617.9 2972 20622.8 2972 20628.9Z" stroke="#4472C4" stroke-width="3.4375" stroke-linejoin="round" stroke-miterlimit="10" fill="#4472C4"/><path d="M2976 20677.9C2976 20684 2971.07 20688.9 2965 20688.9 2958.92 20688.9 2954 20684 2954 20677.9 2954 20671.8 2958.92 20666.9 2965 20666.9 2971.07 20666.9 2976 20671.8 2976 20677.9Z" stroke="#4472C4" stroke-width="3.4375" stroke-linejoin="round" stroke-miterlimit="10" fill="#4472C4"/><path d="M2980 20575.9C2980 20582 2975.07 20586.9 2969 20586.9 2962.92 20586.9 2958 20582 2958 20575.9 2958 20569.8 2962.92 20564.9 2969 20564.9 2975.07 20564.9 2980 20569.8 2980 20575.9Z" stroke="#4472C4" stroke-width="3.4375" stroke-linejoin="round" stroke-miterlimit="10" fill="#4472C4"/><path d="M2983 20449.9C2983 20456 2978.07 20460.9 2972 20460.9 2965.92 20460.9 2961 20456 2961 20449.9 2961 20443.8 2965.92 20438.9 2972 20438.9 2978.07 20438.9 2983 20443.8 2983 20449.9Z" stroke="#4472C4" stroke-width="3.4375" stroke-linejoin="round" stroke-miterlimit="10" fill="#4472C4"/><path d="M2987 20508.9C2987 20515 2982.07 20519.9 2976 20519.9 2969.92 20519.9 2965 20515 2965 20508.9 2965 20502.8 2969.92 20497.9 2976 20497.9 2982.07 20497.9 2987 20502.8 2987 20508.9Z" stroke="#4472C4" stroke-width="3.4375" stroke-linejoin="round" stroke-miterlimit="10" fill="#4472C4"/><path d="M2991 20483.9C2991 20490 2986.07 20494.9 2980 20494.9 2973.92 20494.9 2969 20490 2969 20483.9 2969 20477.8 2973.92 20472.9 2980 20472.9 2986.07 20472.9 2991 20477.8 2991 20483.9Z" stroke="#4472C4" stroke-width="3.4375" stroke-linejoin="round" stroke-miterlimit="10" fill="#4472C4"/><path d="M2994 20539.9C2994 20546 2989.07 20550.9 2983 20550.9 2976.92 20550.9 2972 20546 2972 20539.9 2972 20533.8 2976.92 20528.9 2983 20528.9 2989.07 20528.9 2994 20533.8 2994 20539.9Z" stroke="#4472C4" stroke-width="3.4375" stroke-linejoin="round" stroke-miterlimit="10" fill="#4472C4"/><path d="M2998 20562.9C2998 20569 2993.07 20573.9 2987 20573.9 2980.92 20573.9 2976 20569 2976 20562.9 2976 20556.8 2980.92 20551.9 2987 20551.9 2993.07 20551.9 2998 20556.8 2998 20562.9Z" stroke="#4472C4" stroke-width="3.4375" stroke-linejoin="round" stroke-miterlimit="10" fill="#4472C4"/><path d="M3002 20650.9C3002 20657 2997.07 20661.9 2991 20661.9 2984.92 20661.9 2980 20657 2980 20650.9 2980 20644.8 2984.92 20639.9 2991 20639.9 2997.07 20639.9 3002 20644.8 3002 20650.9Z" stroke="#4472C4" stroke-width="3.4375" stroke-linejoin="round" stroke-miterlimit="10" fill="#4472C4"/><path d="M3005 20621.9C3005 20628 3000.07 20632.9 2994 20632.9 2987.92 20632.9 2983 20628 2983 20621.9 2983 20615.8 2987.92 20610.9 2994 20610.9 3000.07 20610.9 3005 20615.8 3005 20621.9Z" stroke="#4472C4" stroke-width="3.4375" stroke-linejoin="round" stroke-miterlimit="10" fill="#4472C4"/><path d="M3009 20608.9C3009 20615 3004.07 20619.9 2998 20619.9 2991.92 20619.9 2987 20615 2987 20608.9 2987 20602.8 2991.92 20597.9 2998 20597.9 3004.07 20597.9 3009 20602.8 3009 20608.9Z" stroke="#4472C4" stroke-width="3.4375" stroke-linejoin="round" stroke-miterlimit="10" fill="#4472C4"/><path d="M3013 20574.9C3013 20581 3008.07 20585.9 3002 20585.9 2995.92 20585.9 2991 20581 2991 20574.9 2991 20568.8 2995.92 20563.9 3002 20563.9 3008.07 20563.9 3013 20568.8 3013 20574.9Z" stroke="#4472C4" stroke-width="3.4375" stroke-linejoin="round" stroke-miterlimit="10" fill="#4472C4"/><path d="M3016 20562.9C3016 20569 3011.07 20573.9 3005 20573.9 2998.92 20573.9 2994 20569 2994 20562.9 2994 20556.8 2998.92 20551.9 3005 20551.9 3011.07 20551.9 3016 20556.8 3016 20562.9Z" stroke="#4472C4" stroke-width="3.4375" stroke-linejoin="round" stroke-miterlimit="10" fill="#4472C4"/><path d="M3020 20539.9C3020 20546 3015.07 20550.9 3009 20550.9 3002.92 20550.9 2998 20546 2998 20539.9 2998 20533.8 3002.92 20528.9 3009 20528.9 3015.07 20528.9 3020 20533.8 3020 20539.9Z" stroke="#4472C4" stroke-width="3.4375" stroke-linejoin="round" stroke-miterlimit="10" fill="#4472C4"/><path d="M3024 20583.9C3024 20590 3019.07 20594.9 3013 20594.9 3006.92 20594.9 3002 20590 3002 20583.9 3002 20577.8 3006.92 20572.9 3013 20572.9 3019.07 20572.9 3024 20577.8 3024 20583.9Z" stroke="#4472C4" stroke-width="3.4375" stroke-linejoin="round" stroke-miterlimit="10" fill="#4472C4"/><path d="M3027 20675.9C3027 20682 3022.07 20686.9 3016 20686.9 3009.92 20686.9 3005 20682 3005 20675.9 3005 20669.8 3009.92 20664.9 3016 20664.9 3022.07 20664.9 3027 20669.8 3027 20675.9Z" stroke="#4472C4" stroke-width="3.4375" stroke-linejoin="round" stroke-miterlimit="10" fill="#4472C4"/><path d="M3031 20636.9C3031 20643 3026.07 20647.9 3020 20647.9 3013.92 20647.9 3009 20643 3009 20636.9 3009 20630.8 3013.92 20625.9 3020 20625.9 3026.07 20625.9 3031 20630.8 3031 20636.9Z" stroke="#4472C4" stroke-width="3.4375" stroke-linejoin="round" stroke-miterlimit="10" fill="#4472C4"/><path d="M3035 20475.9C3035 20482 3030.07 20486.9 3024 20486.9 3017.92 20486.9 3013 20482 3013 20475.9 3013 20469.8 3017.92 20464.9 3024 20464.9 3030.07 20464.9 3035 20469.8 3035 20475.9Z" stroke="#4472C4" stroke-width="3.4375" stroke-linejoin="round" stroke-miterlimit="10" fill="#4472C4"/><path d="M3038 20346.9C3038 20353 3033.07 20357.9 3027 20357.9 3020.92 20357.9 3016 20353 3016 20346.9 3016 20340.8 3020.92 20335.9 3027 20335.9 3033.07 20335.9 3038 20340.8 3038 20346.9Z" stroke="#4472C4" stroke-width="3.4375" stroke-linejoin="round" stroke-miterlimit="10" fill="#4472C4"/><path d="M3042 20519.9C3042 20526 3037.07 20530.9 3031 20530.9 3024.92 20530.9 3020 20526 3020 20519.9 3020 20513.8 3024.92 20508.9 3031 20508.9 3037.07 20508.9 3042 20513.8 3042 20519.9Z" stroke="#4472C4" stroke-width="3.4375" stroke-linejoin="round" stroke-miterlimit="10" fill="#4472C4"/><path d="M3046 20524.9C3046 20531 3041.07 20535.9 3035 20535.9 3028.92 20535.9 3024 20531 3024 20524.9 3024 20518.8 3028.92 20513.9 3035 20513.9 3041.07 20513.9 3046 20518.8 3046 20524.9Z" stroke="#4472C4" stroke-width="3.4375" stroke-linejoin="round" stroke-miterlimit="10" fill="#4472C4"/><path d="M3049 20340.9C3049 20347 3044.07 20351.9 3038 20351.9 3031.92 20351.9 3027 20347 3027 20340.9 3027 20334.8 3031.92 20329.9 3038 20329.9 3044.07 20329.9 3049 20334.8 3049 20340.9Z" stroke="#4472C4" stroke-width="3.4375" stroke-linejoin="round" stroke-miterlimit="10" fill="#4472C4"/><path d="M3053 20337.9C3053 20344 3048.07 20348.9 3042 20348.9 3035.92 20348.9 3031 20344 3031 20337.9 3031 20331.8 3035.92 20326.9 3042 20326.9 3048.07 20326.9 3053 20331.8 3053 20337.9Z" stroke="#4472C4" stroke-width="3.4375" stroke-linejoin="round" stroke-miterlimit="10" fill="#4472C4"/><path d="M3057 20302.9C3057 20309 3052.07 20313.9 3046 20313.9 3039.92 20313.9 3035 20309 3035 20302.9 3035 20296.8 3039.92 20291.9 3046 20291.9 3052.07 20291.9 3057 20296.8 3057 20302.9Z" stroke="#4472C4" stroke-width="3.4375" stroke-linejoin="round" stroke-miterlimit="10" fill="#4472C4"/><path d="M3060 20508.9C3060 20515 3055.07 20519.9 3049 20519.9 3042.92 20519.9 3038 20515 3038 20508.9 3038 20502.8 3042.92 20497.9 3049 20497.9 3055.07 20497.9 3060 20502.8 3060 20508.9Z" stroke="#4472C4" stroke-width="3.4375" stroke-linejoin="round" stroke-miterlimit="10" fill="#4472C4"/><path d="M3064 20395.9C3064 20402 3059.07 20406.9 3053 20406.9 3046.92 20406.9 3042 20402 3042 20395.9 3042 20389.8 3046.92 20384.9 3053 20384.9 3059.07 20384.9 3064 20389.8 3064 20395.9Z" stroke="#4472C4" stroke-width="3.4375" stroke-linejoin="round" stroke-miterlimit="10" fill="#4472C4"/><path d="M3068 20287.9C3068 20294 3063.07 20298.9 3057 20298.9 3050.92 20298.9 3046 20294 3046 20287.9 3046 20281.8 3050.92 20276.9 3057 20276.9 3063.07 20276.9 3068 20281.8 3068 20287.9Z" stroke="#4472C4" stroke-width="3.4375" stroke-linejoin="round" stroke-miterlimit="10" fill="#4472C4"/><path d="M3071 20345.9C3071 20352 3066.07 20356.9 3060 20356.9 3053.92 20356.9 3049 20352 3049 20345.9 3049 20339.8 3053.92 20334.9 3060 20334.9 3066.07 20334.9 3071 20339.8 3071 20345.9Z" stroke="#4472C4" stroke-width="3.4375" stroke-linejoin="round" stroke-miterlimit="10" fill="#4472C4"/><path d="M3075 20327.9C3075 20334 3070.07 20338.9 3064 20338.9 3057.92 20338.9 3053 20334 3053 20327.9 3053 20321.8 3057.92 20316.9 3064 20316.9 3070.07 20316.9 3075 20321.8 3075 20327.9Z" stroke="#4472C4" stroke-width="3.4375" stroke-linejoin="round" stroke-miterlimit="10" fill="#4472C4"/><path d="M3079 20350.9C3079 20357 3074.07 20361.9 3068 20361.9 3061.92 20361.9 3057 20357 3057 20350.9 3057 20344.8 3061.92 20339.9 3068 20339.9 3074.07 20339.9 3079 20344.8 3079 20350.9Z" stroke="#4472C4" stroke-width="3.4375" stroke-linejoin="round" stroke-miterlimit="10" fill="#4472C4"/><path d="M3082 20385.9C3082 20392 3077.07 20396.9 3071 20396.9 3064.92 20396.9 3060 20392 3060 20385.9 3060 20379.8 3064.92 20374.9 3071 20374.9 3077.07 20374.9 3082 20379.8 3082 20385.9Z" stroke="#4472C4" stroke-width="3.4375" stroke-linejoin="round" stroke-miterlimit="10" fill="#4472C4"/><path d="M3086 20581.9C3086 20588 3081.07 20592.9 3075 20592.9 3068.92 20592.9 3064 20588 3064 20581.9 3064 20575.8 3068.92 20570.9 3075 20570.9 3081.07 20570.9 3086 20575.8 3086 20581.9Z" stroke="#4472C4" stroke-width="3.4375" stroke-linejoin="round" stroke-miterlimit="10" fill="#4472C4"/><path d="M3090 20465.9C3090 20472 3085.07 20476.9 3079 20476.9 3072.92 20476.9 3068 20472 3068 20465.9 3068 20459.8 3072.92 20454.9 3079 20454.9 3085.07 20454.9 3090 20459.8 3090 20465.9Z" stroke="#4472C4" stroke-width="3.4375" stroke-linejoin="round" stroke-miterlimit="10" fill="#4472C4"/><path d="M3093 20321.9C3093 20328 3088.07 20332.9 3082 20332.9 3075.92 20332.9 3071 20328 3071 20321.9 3071 20315.8 3075.92 20310.9 3082 20310.9 3088.07 20310.9 3093 20315.8 3093 20321.9Z" stroke="#4472C4" stroke-width="3.4375" stroke-linejoin="round" stroke-miterlimit="10" fill="#4472C4"/><path d="M3097 20483.9C3097 20490 3092.07 20494.9 3086 20494.9 3079.92 20494.9 3075 20490 3075 20483.9 3075 20477.8 3079.92 20472.9 3086 20472.9 3092.07 20472.9 3097 20477.8 3097 20483.9Z" stroke="#4472C4" stroke-width="3.4375" stroke-linejoin="round" stroke-miterlimit="10" fill="#4472C4"/><path d="M3101 20416.9C3101 20423 3096.07 20427.9 3090 20427.9 3083.92 20427.9 3079 20423 3079 20416.9 3079 20410.8 3083.92 20405.9 3090 20405.9 3096.07 20405.9 3101 20410.8 3101 20416.9Z" stroke="#4472C4" stroke-width="3.4375" stroke-linejoin="round" stroke-miterlimit="10" fill="#4472C4"/><path d="M3104 20338.9C3104 20345 3099.07 20349.9 3093 20349.9 3086.92 20349.9 3082 20345 3082 20338.9 3082 20332.8 3086.92 20327.9 3093 20327.9 3099.07 20327.9 3104 20332.8 3104 20338.9Z" stroke="#4472C4" stroke-width="3.4375" stroke-linejoin="round" stroke-miterlimit="10" fill="#4472C4"/><path d="M3108 20239.9C3108 20246 3103.07 20250.9 3097 20250.9 3090.92 20250.9 3086 20246 3086 20239.9 3086 20233.8 3090.92 20228.9 3097 20228.9 3103.07 20228.9 3108 20233.8 3108 20239.9Z" stroke="#4472C4" stroke-width="3.4375" stroke-linejoin="round" stroke-miterlimit="10" fill="#4472C4"/><path d="M3112 20365.9C3112 20372 3107.07 20376.9 3101 20376.9 3094.92 20376.9 3090 20372 3090 20365.9 3090 20359.8 3094.92 20354.9 3101 20354.9 3107.07 20354.9 3112 20359.8 3112 20365.9Z" stroke="#4472C4" stroke-width="3.4375" stroke-linejoin="round" stroke-miterlimit="10" fill="#4472C4"/><path d="M3115 20384.9C3115 20391 3110.07 20395.9 3104 20395.9 3097.92 20395.9 3093 20391 3093 20384.9 3093 20378.8 3097.92 20373.9 3104 20373.9 3110.07 20373.9 3115 20378.8 3115 20384.9Z" stroke="#4472C4" stroke-width="3.4375" stroke-linejoin="round" stroke-miterlimit="10" fill="#4472C4"/><path d="M3119 20291.9C3119 20298 3114.07 20302.9 3108 20302.9 3101.92 20302.9 3097 20298 3097 20291.9 3097 20285.8 3101.92 20280.9 3108 20280.9 3114.07 20280.9 3119 20285.8 3119 20291.9Z" stroke="#4472C4" stroke-width="3.4375" stroke-linejoin="round" stroke-miterlimit="10" fill="#4472C4"/><path d="M3123 20438.9C3123 20445 3118.07 20449.9 3112 20449.9 3105.92 20449.9 3101 20445 3101 20438.9 3101 20432.8 3105.92 20427.9 3112 20427.9 3118.07 20427.9 3123 20432.8 3123 20438.9Z" stroke="#4472C4" stroke-width="3.4375" stroke-linejoin="round" stroke-miterlimit="10" fill="#4472C4"/><path d="M3126 20467.9C3126 20474 3121.07 20478.9 3115 20478.9 3108.92 20478.9 3104 20474 3104 20467.9 3104 20461.8 3108.92 20456.9 3115 20456.9 3121.07 20456.9 3126 20461.8 3126 20467.9Z" stroke="#4472C4" stroke-width="3.4375" stroke-linejoin="round" stroke-miterlimit="10" fill="#4472C4"/><path d="M3130 20367.9C3130 20374 3125.07 20378.9 3119 20378.9 3112.92 20378.9 3108 20374 3108 20367.9 3108 20361.8 3112.92 20356.9 3119 20356.9 3125.07 20356.9 3130 20361.8 3130 20367.9Z" stroke="#4472C4" stroke-width="3.4375" stroke-linejoin="round" stroke-miterlimit="10" fill="#4472C4"/><path d="M3134 20343.9C3134 20350 3129.07 20354.9 3123 20354.9 3116.92 20354.9 3112 20350 3112 20343.9 3112 20337.8 3116.92 20332.9 3123 20332.9 3129.07 20332.9 3134 20337.8 3134 20343.9Z" stroke="#4472C4" stroke-width="3.4375" stroke-linejoin="round" stroke-miterlimit="10" fill="#4472C4"/><path d="M3137 20438.9C3137 20445 3132.07 20449.9 3126 20449.9 3119.92 20449.9 3115 20445 3115 20438.9 3115 20432.8 3119.92 20427.9 3126 20427.9 3132.07 20427.9 3137 20432.8 3137 20438.9Z" stroke="#4472C4" stroke-width="3.4375" stroke-linejoin="round" stroke-miterlimit="10" fill="#4472C4"/><path d="M3141 20071.9C3141 20078 3136.07 20082.9 3130 20082.9 3123.92 20082.9 3119 20078 3119 20071.9 3119 20065.8 3123.92 20060.9 3130 20060.9 3136.07 20060.9 3141 20065.8 3141 20071.9Z" stroke="#4472C4" stroke-width="3.4375" stroke-linejoin="round" stroke-miterlimit="10" fill="#4472C4"/><path d="M3145 20546.9C3145 20553 3140.07 20557.9 3134 20557.9 3127.92 20557.9 3123 20553 3123 20546.9 3123 20540.8 3127.92 20535.9 3134 20535.9 3140.07 20535.9 3145 20540.8 3145 20546.9Z" stroke="#4472C4" stroke-width="3.4375" stroke-linejoin="round" stroke-miterlimit="10" fill="#4472C4"/><path d="M3149 20300.9C3149 20307 3144.07 20311.9 3138 20311.9 3131.92 20311.9 3127 20307 3127 20300.9 3127 20294.8 3131.92 20289.9 3138 20289.9 3144.07 20289.9 3149 20294.8 3149 20300.9Z" stroke="#4472C4" stroke-width="3.4375" stroke-linejoin="round" stroke-miterlimit="10" fill="#4472C4"/><path d="M3152 20327.9C3152 20334 3147.07 20338.9 3141 20338.9 3134.92 20338.9 3130 20334 3130 20327.9 3130 20321.8 3134.92 20316.9 3141 20316.9 3147.07 20316.9 3152 20321.8 3152 20327.9Z" stroke="#4472C4" stroke-width="3.4375" stroke-linejoin="round" stroke-miterlimit="10" fill="#4472C4"/><path d="M3156 20457.9C3156 20464 3151.07 20468.9 3145 20468.9 3138.92 20468.9 3134 20464 3134 20457.9 3134 20451.8 3138.92 20446.9 3145 20446.9 3151.07 20446.9 3156 20451.8 3156 20457.9Z" stroke="#4472C4" stroke-width="3.4375" stroke-linejoin="round" stroke-miterlimit="10" fill="#4472C4"/><path d="M3160 20225.9C3160 20232 3155.07 20236.9 3149 20236.9 3142.92 20236.9 3138 20232 3138 20225.9 3138 20219.8 3142.92 20214.9 3149 20214.9 3155.07 20214.9 3160 20219.8 3160 20225.9Z" stroke="#4472C4" stroke-width="3.4375" stroke-linejoin="round" stroke-miterlimit="10" fill="#4472C4"/><path d="M3163 20402.9C3163 20409 3158.07 20413.9 3152 20413.9 3145.92 20413.9 3141 20409 3141 20402.9 3141 20396.8 3145.92 20391.9 3152 20391.9 3158.07 20391.9 3163 20396.8 3163 20402.9Z" stroke="#4472C4" stroke-width="3.4375" stroke-linejoin="round" stroke-miterlimit="10" fill="#4472C4"/><path d="M3167 20329.9C3167 20336 3162.07 20340.9 3156 20340.9 3149.92 20340.9 3145 20336 3145 20329.9 3145 20323.8 3149.92 20318.9 3156 20318.9 3162.07 20318.9 3167 20323.8 3167 20329.9Z" stroke="#4472C4" stroke-width="3.4375" stroke-linejoin="round" stroke-miterlimit="10" fill="#4472C4"/><path d="M3171 20469.9C3171 20476 3166.07 20480.9 3160 20480.9 3153.92 20480.9 3149 20476 3149 20469.9 3149 20463.8 3153.92 20458.9 3160 20458.9 3166.07 20458.9 3171 20463.8 3171 20469.9Z" stroke="#4472C4" stroke-width="3.4375" stroke-linejoin="round" stroke-miterlimit="10" fill="#4472C4"/><path d="M3174 20572.9C3174 20579 3169.07 20583.9 3163 20583.9 3156.92 20583.9 3152 20579 3152 20572.9 3152 20566.8 3156.92 20561.9 3163 20561.9 3169.07 20561.9 3174 20566.8 3174 20572.9Z" stroke="#4472C4" stroke-width="3.4375" stroke-linejoin="round" stroke-miterlimit="10" fill="#4472C4"/><path d="M3178 20527.9C3178 20534 3173.07 20538.9 3167 20538.9 3160.92 20538.9 3156 20534 3156 20527.9 3156 20521.8 3160.92 20516.9 3167 20516.9 3173.07 20516.9 3178 20521.8 3178 20527.9Z" stroke="#4472C4" stroke-width="3.4375" stroke-linejoin="round" stroke-miterlimit="10" fill="#4472C4"/><path d="M3182 20456.9C3182 20463 3177.07 20467.9 3171 20467.9 3164.92 20467.9 3160 20463 3160 20456.9 3160 20450.8 3164.92 20445.9 3171 20445.9 3177.07 20445.9 3182 20450.8 3182 20456.9Z" stroke="#4472C4" stroke-width="3.4375" stroke-linejoin="round" stroke-miterlimit="10" fill="#4472C4"/><path d="M3185 20439.9C3185 20446 3180.07 20450.9 3174 20450.9 3167.92 20450.9 3163 20446 3163 20439.9 3163 20433.8 3167.92 20428.9 3174 20428.9 3180.07 20428.9 3185 20433.8 3185 20439.9Z" stroke="#4472C4" stroke-width="3.4375" stroke-linejoin="round" stroke-miterlimit="10" fill="#4472C4"/><path d="M3189 20438.9C3189 20445 3184.07 20449.9 3178 20449.9 3171.92 20449.9 3167 20445 3167 20438.9 3167 20432.8 3171.92 20427.9 3178 20427.9 3184.07 20427.9 3189 20432.8 3189 20438.9Z" stroke="#4472C4" stroke-width="3.4375" stroke-linejoin="round" stroke-miterlimit="10" fill="#4472C4"/><path d="M3193 20475.9C3193 20482 3188.07 20486.9 3182 20486.9 3175.92 20486.9 3171 20482 3171 20475.9 3171 20469.8 3175.92 20464.9 3182 20464.9 3188.07 20464.9 3193 20469.8 3193 20475.9Z" stroke="#4472C4" stroke-width="3.4375" stroke-linejoin="round" stroke-miterlimit="10" fill="#4472C4"/><path d="M3196 20361.9C3196 20368 3191.07 20372.9 3185 20372.9 3178.92 20372.9 3174 20368 3174 20361.9 3174 20355.8 3178.92 20350.9 3185 20350.9 3191.07 20350.9 3196 20355.8 3196 20361.9Z" stroke="#4472C4" stroke-width="3.4375" stroke-linejoin="round" stroke-miterlimit="10" fill="#4472C4"/><path d="M3200 20426.9C3200 20433 3195.07 20437.9 3189 20437.9 3182.92 20437.9 3178 20433 3178 20426.9 3178 20420.8 3182.92 20415.9 3189 20415.9 3195.07 20415.9 3200 20420.8 3200 20426.9Z" stroke="#4472C4" stroke-width="3.4375" stroke-linejoin="round" stroke-miterlimit="10" fill="#4472C4"/><path d="M3204 20504.9C3204 20511 3199.07 20515.9 3193 20515.9 3186.92 20515.9 3182 20511 3182 20504.9 3182 20498.8 3186.92 20493.9 3193 20493.9 3199.07 20493.9 3204 20498.8 3204 20504.9Z" stroke="#4472C4" stroke-width="3.4375" stroke-linejoin="round" stroke-miterlimit="10" fill="#4472C4"/><path d="M3207 20442.9C3207 20449 3202.07 20453.9 3196 20453.9 3189.92 20453.9 3185 20449 3185 20442.9 3185 20436.8 3189.92 20431.9 3196 20431.9 3202.07 20431.9 3207 20436.8 3207 20442.9Z" stroke="#4472C4" stroke-width="3.4375" stroke-linejoin="round" stroke-miterlimit="10" fill="#4472C4"/><path d="M3211 20545.9C3211 20552 3206.07 20556.9 3200 20556.9 3193.92 20556.9 3189 20552 3189 20545.9 3189 20539.8 3193.92 20534.9 3200 20534.9 3206.07 20534.9 3211 20539.8 3211 20545.9Z" stroke="#4472C4" stroke-width="3.4375" stroke-linejoin="round" stroke-miterlimit="10" fill="#4472C4"/><path d="M3215 20468.9C3215 20475 3210.07 20479.9 3204 20479.9 3197.92 20479.9 3193 20475 3193 20468.9 3193 20462.8 3197.92 20457.9 3204 20457.9 3210.07 20457.9 3215 20462.8 3215 20468.9Z" stroke="#4472C4" stroke-width="3.4375" stroke-linejoin="round" stroke-miterlimit="10" fill="#4472C4"/><path d="M3218 20479.9C3218 20486 3213.07 20490.9 3207 20490.9 3200.92 20490.9 3196 20486 3196 20479.9 3196 20473.8 3200.92 20468.9 3207 20468.9 3213.07 20468.9 3218 20473.8 3218 20479.9Z" stroke="#4472C4" stroke-width="3.4375" stroke-linejoin="round" stroke-miterlimit="10" fill="#4472C4"/><path d="M3222 20387.9C3222 20394 3217.07 20398.9 3211 20398.9 3204.92 20398.9 3200 20394 3200 20387.9 3200 20381.8 3204.92 20376.9 3211 20376.9 3217.07 20376.9 3222 20381.8 3222 20387.9Z" stroke="#4472C4" stroke-width="3.4375" stroke-linejoin="round" stroke-miterlimit="10" fill="#4472C4"/><path d="M3226 20424.9C3226 20431 3221.07 20435.9 3215 20435.9 3208.92 20435.9 3204 20431 3204 20424.9 3204 20418.8 3208.92 20413.9 3215 20413.9 3221.07 20413.9 3226 20418.8 3226 20424.9Z" stroke="#4472C4" stroke-width="3.4375" stroke-linejoin="round" stroke-miterlimit="10" fill="#4472C4"/><path d="M3229 20434.9C3229 20441 3224.07 20445.9 3218 20445.9 3211.92 20445.9 3207 20441 3207 20434.9 3207 20428.8 3211.92 20423.9 3218 20423.9 3224.07 20423.9 3229 20428.8 3229 20434.9Z" stroke="#4472C4" stroke-width="3.4375" stroke-linejoin="round" stroke-miterlimit="10" fill="#4472C4"/><path d="M3233 20445.9C3233 20452 3228.07 20456.9 3222 20456.9 3215.92 20456.9 3211 20452 3211 20445.9 3211 20439.8 3215.92 20434.9 3222 20434.9 3228.07 20434.9 3233 20439.8 3233 20445.9Z" stroke="#4472C4" stroke-width="3.4375" stroke-linejoin="round" stroke-miterlimit="10" fill="#4472C4"/><path d="M3237 20381.9C3237 20388 3232.07 20392.9 3226 20392.9 3219.92 20392.9 3215 20388 3215 20381.9 3215 20375.8 3219.92 20370.9 3226 20370.9 3232.07 20370.9 3237 20375.8 3237 20381.9Z" stroke="#4472C4" stroke-width="3.4375" stroke-linejoin="round" stroke-miterlimit="10" fill="#4472C4"/><path d="M3240 20478.9C3240 20485 3235.07 20489.9 3229 20489.9 3222.92 20489.9 3218 20485 3218 20478.9 3218 20472.8 3222.92 20467.9 3229 20467.9 3235.07 20467.9 3240 20472.8 3240 20478.9Z" stroke="#4472C4" stroke-width="3.4375" stroke-linejoin="round" stroke-miterlimit="10" fill="#4472C4"/><path d="M3244 20352.9C3244 20359 3239.07 20363.9 3233 20363.9 3226.92 20363.9 3222 20359 3222 20352.9 3222 20346.8 3226.92 20341.9 3233 20341.9 3239.07 20341.9 3244 20346.8 3244 20352.9Z" stroke="#4472C4" stroke-width="3.4375" stroke-linejoin="round" stroke-miterlimit="10" fill="#4472C4"/><path d="M3248 20485.9C3248 20492 3243.07 20496.9 3237 20496.9 3230.92 20496.9 3226 20492 3226 20485.9 3226 20479.8 3230.92 20474.9 3237 20474.9 3243.07 20474.9 3248 20479.8 3248 20485.9Z" stroke="#4472C4" stroke-width="3.4375" stroke-linejoin="round" stroke-miterlimit="10" fill="#4472C4"/><path d="M3251 20477.9C3251 20484 3246.07 20488.9 3240 20488.9 3233.92 20488.9 3229 20484 3229 20477.9 3229 20471.8 3233.92 20466.9 3240 20466.9 3246.07 20466.9 3251 20471.8 3251 20477.9Z" stroke="#4472C4" stroke-width="3.4375" stroke-linejoin="round" stroke-miterlimit="10" fill="#4472C4"/><path d="M3255 20572.9C3255 20579 3250.07 20583.9 3244 20583.9 3237.92 20583.9 3233 20579 3233 20572.9 3233 20566.8 3237.92 20561.9 3244 20561.9 3250.07 20561.9 3255 20566.8 3255 20572.9Z" stroke="#4472C4" stroke-width="3.4375" stroke-linejoin="round" stroke-miterlimit="10" fill="#4472C4"/><path d="M3259 20514.9C3259 20521 3254.07 20525.9 3248 20525.9 3241.92 20525.9 3237 20521 3237 20514.9 3237 20508.8 3241.92 20503.9 3248 20503.9 3254.07 20503.9 3259 20508.8 3259 20514.9Z" stroke="#4472C4" stroke-width="3.4375" stroke-linejoin="round" stroke-miterlimit="10" fill="#4472C4"/><path d="M3262 20553.9C3262 20560 3257.07 20564.9 3251 20564.9 3244.92 20564.9 3240 20560 3240 20553.9 3240 20547.8 3244.92 20542.9 3251 20542.9 3257.07 20542.9 3262 20547.8 3262 20553.9Z" stroke="#4472C4" stroke-width="3.4375" stroke-linejoin="round" stroke-miterlimit="10" fill="#4472C4"/><path d="M3266 20500.9C3266 20507 3261.07 20511.9 3255 20511.9 3248.92 20511.9 3244 20507 3244 20500.9 3244 20494.8 3248.92 20489.9 3255 20489.9 3261.07 20489.9 3266 20494.8 3266 20500.9Z" stroke="#4472C4" stroke-width="3.4375" stroke-linejoin="round" stroke-miterlimit="10" fill="#4472C4"/><path d="M3270 20487.9C3270 20494 3265.07 20498.9 3259 20498.9 3252.92 20498.9 3248 20494 3248 20487.9 3248 20481.8 3252.92 20476.9 3259 20476.9 3265.07 20476.9 3270 20481.8 3270 20487.9Z" stroke="#4472C4" stroke-width="3.4375" stroke-linejoin="round" stroke-miterlimit="10" fill="#4472C4"/><path d="M3273 20502.9C3273 20509 3268.07 20513.9 3262 20513.9 3255.92 20513.9 3251 20509 3251 20502.9 3251 20496.8 3255.92 20491.9 3262 20491.9 3268.07 20491.9 3273 20496.8 3273 20502.9Z" stroke="#4472C4" stroke-width="3.4375" stroke-linejoin="round" stroke-miterlimit="10" fill="#4472C4"/><path d="M3277 20491.9C3277 20498 3272.07 20502.9 3266 20502.9 3259.92 20502.9 3255 20498 3255 20491.9 3255 20485.8 3259.92 20480.9 3266 20480.9 3272.07 20480.9 3277 20485.8 3277 20491.9Z" stroke="#4472C4" stroke-width="3.4375" stroke-linejoin="round" stroke-miterlimit="10" fill="#4472C4"/><path d="M3281 20468.9C3281 20475 3276.07 20479.9 3270 20479.9 3263.92 20479.9 3259 20475 3259 20468.9 3259 20462.8 3263.92 20457.9 3270 20457.9 3276.07 20457.9 3281 20462.8 3281 20468.9Z" stroke="#4472C4" stroke-width="3.4375" stroke-linejoin="round" stroke-miterlimit="10" fill="#4472C4"/><path d="M3284 20436.9C3284 20443 3279.07 20447.9 3273 20447.9 3266.92 20447.9 3262 20443 3262 20436.9 3262 20430.8 3266.92 20425.9 3273 20425.9 3279.07 20425.9 3284 20430.8 3284 20436.9Z" stroke="#4472C4" stroke-width="3.4375" stroke-linejoin="round" stroke-miterlimit="10" fill="#4472C4"/><path d="M3288 20479.9C3288 20486 3283.07 20490.9 3277 20490.9 3270.92 20490.9 3266 20486 3266 20479.9 3266 20473.8 3270.92 20468.9 3277 20468.9 3283.07 20468.9 3288 20473.8 3288 20479.9Z" stroke="#4472C4" stroke-width="3.4375" stroke-linejoin="round" stroke-miterlimit="10" fill="#4472C4"/><path d="M3292 20530.9C3292 20537 3287.07 20541.9 3281 20541.9 3274.92 20541.9 3270 20537 3270 20530.9 3270 20524.8 3274.92 20519.9 3281 20519.9 3287.07 20519.9 3292 20524.8 3292 20530.9Z" stroke="#4472C4" stroke-width="3.4375" stroke-linejoin="round" stroke-miterlimit="10" fill="#4472C4"/><path d="M3295 20509.9C3295 20516 3290.07 20520.9 3284 20520.9 3277.92 20520.9 3273 20516 3273 20509.9 3273 20503.8 3277.92 20498.9 3284 20498.9 3290.07 20498.9 3295 20503.8 3295 20509.9Z" stroke="#4472C4" stroke-width="3.4375" stroke-linejoin="round" stroke-miterlimit="10" fill="#4472C4"/><path d="M3299 20554.9C3299 20561 3294.07 20565.9 3288 20565.9 3281.92 20565.9 3277 20561 3277 20554.9 3277 20548.8 3281.92 20543.9 3288 20543.9 3294.07 20543.9 3299 20548.8 3299 20554.9Z" stroke="#4472C4" stroke-width="3.4375" stroke-linejoin="round" stroke-miterlimit="10" fill="#4472C4"/><path d="M3303 20615.9C3303 20622 3298.07 20626.9 3292 20626.9 3285.92 20626.9 3281 20622 3281 20615.9 3281 20609.8 3285.92 20604.9 3292 20604.9 3298.07 20604.9 3303 20609.8 3303 20615.9Z" stroke="#4472C4" stroke-width="3.4375" stroke-linejoin="round" stroke-miterlimit="10" fill="#4472C4"/><path d="M3306 20517.9C3306 20524 3301.07 20528.9 3295 20528.9 3288.92 20528.9 3284 20524 3284 20517.9 3284 20511.8 3288.92 20506.9 3295 20506.9 3301.07 20506.9 3306 20511.8 3306 20517.9Z" stroke="#4472C4" stroke-width="3.4375" stroke-linejoin="round" stroke-miterlimit="10" fill="#4472C4"/><path d="M3310 20520.9C3310 20527 3305.07 20531.9 3299 20531.9 3292.92 20531.9 3288 20527 3288 20520.9 3288 20514.8 3292.92 20509.9 3299 20509.9 3305.07 20509.9 3310 20514.8 3310 20520.9Z" stroke="#4472C4" stroke-width="3.4375" stroke-linejoin="round" stroke-miterlimit="10" fill="#4472C4"/><path d="M3314 20549.9C3314 20556 3309.07 20560.9 3303 20560.9 3296.92 20560.9 3292 20556 3292 20549.9 3292 20543.8 3296.92 20538.9 3303 20538.9 3309.07 20538.9 3314 20543.8 3314 20549.9Z" stroke="#4472C4" stroke-width="3.4375" stroke-linejoin="round" stroke-miterlimit="10" fill="#4472C4"/><path d="M3317 20550.9C3317 20557 3312.07 20561.9 3306 20561.9 3299.92 20561.9 3295 20557 3295 20550.9 3295 20544.8 3299.92 20539.9 3306 20539.9 3312.07 20539.9 3317 20544.8 3317 20550.9Z" stroke="#4472C4" stroke-width="3.4375" stroke-linejoin="round" stroke-miterlimit="10" fill="#4472C4"/><path d="M3321 20489.9C3321 20496 3316.07 20500.9 3310 20500.9 3303.92 20500.9 3299 20496 3299 20489.9 3299 20483.8 3303.92 20478.9 3310 20478.9 3316.07 20478.9 3321 20483.8 3321 20489.9Z" stroke="#4472C4" stroke-width="3.4375" stroke-linejoin="round" stroke-miterlimit="10" fill="#4472C4"/><path d="M3325 20504.9C3325 20511 3320.07 20515.9 3314 20515.9 3307.92 20515.9 3303 20511 3303 20504.9 3303 20498.8 3307.92 20493.9 3314 20493.9 3320.07 20493.9 3325 20498.8 3325 20504.9Z" stroke="#4472C4" stroke-width="3.4375" stroke-linejoin="round" stroke-miterlimit="10" fill="#4472C4"/><path d="M3328 20525.9C3328 20532 3323.07 20536.9 3317 20536.9 3310.92 20536.9 3306 20532 3306 20525.9 3306 20519.8 3310.92 20514.9 3317 20514.9 3323.07 20514.9 3328 20519.8 3328 20525.9Z" stroke="#4472C4" stroke-width="3.4375" stroke-linejoin="round" stroke-miterlimit="10" fill="#4472C4"/><path d="M3332 20552.9C3332 20559 3327.07 20563.9 3321 20563.9 3314.92 20563.9 3310 20559 3310 20552.9 3310 20546.8 3314.92 20541.9 3321 20541.9 3327.07 20541.9 3332 20546.8 3332 20552.9Z" stroke="#4472C4" stroke-width="3.4375" stroke-linejoin="round" stroke-miterlimit="10" fill="#4472C4"/><path d="M3336 20548.9C3336 20555 3331.07 20559.9 3325 20559.9 3318.92 20559.9 3314 20555 3314 20548.9 3314 20542.8 3318.92 20537.9 3325 20537.9 3331.07 20537.9 3336 20542.8 3336 20548.9Z" stroke="#4472C4" stroke-width="3.4375" stroke-linejoin="round" stroke-miterlimit="10" fill="#4472C4"/><path d="M3339 20550.9C3339 20557 3334.07 20561.9 3328 20561.9 3321.92 20561.9 3317 20557 3317 20550.9 3317 20544.8 3321.92 20539.9 3328 20539.9 3334.07 20539.9 3339 20544.8 3339 20550.9Z" stroke="#4472C4" stroke-width="3.4375" stroke-linejoin="round" stroke-miterlimit="10" fill="#4472C4"/><path d="M3343 20534.9C3343 20541 3338.07 20545.9 3332 20545.9 3325.92 20545.9 3321 20541 3321 20534.9 3321 20528.8 3325.92 20523.9 3332 20523.9 3338.07 20523.9 3343 20528.8 3343 20534.9Z" stroke="#4472C4" stroke-width="3.4375" stroke-linejoin="round" stroke-miterlimit="10" fill="#4472C4"/><path d="M3347 20451.9C3347 20458 3342.07 20462.9 3336 20462.9 3329.92 20462.9 3325 20458 3325 20451.9 3325 20445.8 3329.92 20440.9 3336 20440.9 3342.07 20440.9 3347 20445.8 3347 20451.9Z" stroke="#4472C4" stroke-width="3.4375" stroke-linejoin="round" stroke-miterlimit="10" fill="#4472C4"/><path d="M3350 20552.9C3350 20559 3345.07 20563.9 3339 20563.9 3332.92 20563.9 3328 20559 3328 20552.9 3328 20546.8 3332.92 20541.9 3339 20541.9 3345.07 20541.9 3350 20546.8 3350 20552.9Z" stroke="#4472C4" stroke-width="3.4375" stroke-linejoin="round" stroke-miterlimit="10" fill="#4472C4"/><path d="M3354 20561.9C3354 20568 3349.07 20572.9 3343 20572.9 3336.92 20572.9 3332 20568 3332 20561.9 3332 20555.8 3336.92 20550.9 3343 20550.9 3349.07 20550.9 3354 20555.8 3354 20561.9Z" stroke="#4472C4" stroke-width="3.4375" stroke-linejoin="round" stroke-miterlimit="10" fill="#4472C4"/><path d="M3358 20569.9C3358 20576 3353.07 20580.9 3347 20580.9 3340.92 20580.9 3336 20576 3336 20569.9 3336 20563.8 3340.92 20558.9 3347 20558.9 3353.07 20558.9 3358 20563.8 3358 20569.9Z" stroke="#4472C4" stroke-width="3.4375" stroke-linejoin="round" stroke-miterlimit="10" fill="#4472C4"/><path d="M3361 20526.9C3361 20533 3356.07 20537.9 3350 20537.9 3343.92 20537.9 3339 20533 3339 20526.9 3339 20520.8 3343.92 20515.9 3350 20515.9 3356.07 20515.9 3361 20520.8 3361 20526.9Z" stroke="#4472C4" stroke-width="3.4375" stroke-linejoin="round" stroke-miterlimit="10" fill="#4472C4"/><path d="M3365 20504.9C3365 20511 3360.07 20515.9 3354 20515.9 3347.92 20515.9 3343 20511 3343 20504.9 3343 20498.8 3347.92 20493.9 3354 20493.9 3360.07 20493.9 3365 20498.8 3365 20504.9Z" stroke="#4472C4" stroke-width="3.4375" stroke-linejoin="round" stroke-miterlimit="10" fill="#4472C4"/><path d="M3369 20528.9C3369 20535 3364.07 20539.9 3358 20539.9 3351.92 20539.9 3347 20535 3347 20528.9 3347 20522.8 3351.92 20517.9 3358 20517.9 3364.07 20517.9 3369 20522.8 3369 20528.9Z" stroke="#4472C4" stroke-width="3.4375" stroke-linejoin="round" stroke-miterlimit="10" fill="#4472C4"/><path d="M3372 20452.9C3372 20459 3367.07 20463.9 3361 20463.9 3354.92 20463.9 3350 20459 3350 20452.9 3350 20446.8 3354.92 20441.9 3361 20441.9 3367.07 20441.9 3372 20446.8 3372 20452.9Z" stroke="#4472C4" stroke-width="3.4375" stroke-linejoin="round" stroke-miterlimit="10" fill="#4472C4"/><path d="M3376 20565.9C3376 20572 3371.07 20576.9 3365 20576.9 3358.92 20576.9 3354 20572 3354 20565.9 3354 20559.8 3358.92 20554.9 3365 20554.9 3371.07 20554.9 3376 20559.8 3376 20565.9Z" stroke="#4472C4" stroke-width="3.4375" stroke-linejoin="round" stroke-miterlimit="10" fill="#4472C4"/><path d="M3380 20512.9C3380 20519 3375.07 20523.9 3369 20523.9 3362.92 20523.9 3358 20519 3358 20512.9 3358 20506.8 3362.92 20501.9 3369 20501.9 3375.07 20501.9 3380 20506.8 3380 20512.9Z" stroke="#4472C4" stroke-width="3.4375" stroke-linejoin="round" stroke-miterlimit="10" fill="#4472C4"/><path d="M3383 20536.9C3383 20543 3378.07 20547.9 3372 20547.9 3365.92 20547.9 3361 20543 3361 20536.9 3361 20530.8 3365.92 20525.9 3372 20525.9 3378.07 20525.9 3383 20530.8 3383 20536.9Z" stroke="#4472C4" stroke-width="3.4375" stroke-linejoin="round" stroke-miterlimit="10" fill="#4472C4"/><path d="M3387 20517.9C3387 20524 3382.07 20528.9 3376 20528.9 3369.92 20528.9 3365 20524 3365 20517.9 3365 20511.8 3369.92 20506.9 3376 20506.9 3382.07 20506.9 3387 20511.8 3387 20517.9Z" stroke="#4472C4" stroke-width="3.4375" stroke-linejoin="round" stroke-miterlimit="10" fill="#4472C4"/><path d="M3391 20421.9C3391 20428 3386.07 20432.9 3380 20432.9 3373.92 20432.9 3369 20428 3369 20421.9 3369 20415.8 3373.92 20410.9 3380 20410.9 3386.07 20410.9 3391 20415.8 3391 20421.9Z" stroke="#4472C4" stroke-width="3.4375" stroke-linejoin="round" stroke-miterlimit="10" fill="#4472C4"/><path d="M3394 20479.9C3394 20486 3389.07 20490.9 3383 20490.9 3376.92 20490.9 3372 20486 3372 20479.9 3372 20473.8 3376.92 20468.9 3383 20468.9 3389.07 20468.9 3394 20473.8 3394 20479.9Z" stroke="#4472C4" stroke-width="3.4375" stroke-linejoin="round" stroke-miterlimit="10" fill="#4472C4"/><path d="M3398 20406.9C3398 20413 3393.07 20417.9 3387 20417.9 3380.92 20417.9 3376 20413 3376 20406.9 3376 20400.8 3380.92 20395.9 3387 20395.9 3393.07 20395.9 3398 20400.8 3398 20406.9Z" stroke="#4472C4" stroke-width="3.4375" stroke-linejoin="round" stroke-miterlimit="10" fill="#4472C4"/><path d="M3402 20434.9C3402 20441 3397.07 20445.9 3391 20445.9 3384.92 20445.9 3380 20441 3380 20434.9 3380 20428.8 3384.92 20423.9 3391 20423.9 3397.07 20423.9 3402 20428.8 3402 20434.9Z" stroke="#4472C4" stroke-width="3.4375" stroke-linejoin="round" stroke-miterlimit="10" fill="#4472C4"/><path d="M3405 20334.9C3405 20341 3400.07 20345.9 3394 20345.9 3387.92 20345.9 3383 20341 3383 20334.9 3383 20328.8 3387.92 20323.9 3394 20323.9 3400.07 20323.9 3405 20328.8 3405 20334.9Z" stroke="#4472C4" stroke-width="3.4375" stroke-linejoin="round" stroke-miterlimit="10" fill="#4472C4"/><path d="M3409 20514.9C3409 20521 3404.07 20525.9 3398 20525.9 3391.92 20525.9 3387 20521 3387 20514.9 3387 20508.8 3391.92 20503.9 3398 20503.9 3404.07 20503.9 3409 20508.8 3409 20514.9Z" stroke="#4472C4" stroke-width="3.4375" stroke-linejoin="round" stroke-miterlimit="10" fill="#4472C4"/><path d="M3413 20548.9C3413 20555 3408.07 20559.9 3402 20559.9 3395.92 20559.9 3391 20555 3391 20548.9 3391 20542.8 3395.92 20537.9 3402 20537.9 3408.07 20537.9 3413 20542.8 3413 20548.9Z" stroke="#4472C4" stroke-width="3.4375" stroke-linejoin="round" stroke-miterlimit="10" fill="#4472C4"/><path d="M3416 20583.9C3416 20590 3411.07 20594.9 3405 20594.9 3398.92 20594.9 3394 20590 3394 20583.9 3394 20577.8 3398.92 20572.9 3405 20572.9 3411.07 20572.9 3416 20577.8 3416 20583.9Z" stroke="#4472C4" stroke-width="3.4375" stroke-linejoin="round" stroke-miterlimit="10" fill="#4472C4"/><path d="M3420 20645.9C3420 20652 3415.07 20656.9 3409 20656.9 3402.92 20656.9 3398 20652 3398 20645.9 3398 20639.8 3402.92 20634.9 3409 20634.9 3415.07 20634.9 3420 20639.8 3420 20645.9Z" stroke="#4472C4" stroke-width="3.4375" stroke-linejoin="round" stroke-miterlimit="10" fill="#4472C4"/><path d="M3424 20685.9C3424 20692 3419.07 20696.9 3413 20696.9 3406.92 20696.9 3402 20692 3402 20685.9 3402 20679.8 3406.92 20674.9 3413 20674.9 3419.07 20674.9 3424 20679.8 3424 20685.9Z" stroke="#4472C4" stroke-width="3.4375" stroke-linejoin="round" stroke-miterlimit="10" fill="#4472C4"/><path d="M3427 20665.9C3427 20672 3422.07 20676.9 3416 20676.9 3409.92 20676.9 3405 20672 3405 20665.9 3405 20659.8 3409.92 20654.9 3416 20654.9 3422.07 20654.9 3427 20659.8 3427 20665.9Z" stroke="#4472C4" stroke-width="3.4375" stroke-linejoin="round" stroke-miterlimit="10" fill="#4472C4"/><path d="M3431 20634.9C3431 20641 3426.07 20645.9 3420 20645.9 3413.92 20645.9 3409 20641 3409 20634.9 3409 20628.8 3413.92 20623.9 3420 20623.9 3426.07 20623.9 3431 20628.8 3431 20634.9Z" stroke="#4472C4" stroke-width="3.4375" stroke-linejoin="round" stroke-miterlimit="10" fill="#4472C4"/><path d="M3435 20624.9C3435 20631 3430.07 20635.9 3424 20635.9 3417.92 20635.9 3413 20631 3413 20624.9 3413 20618.8 3417.92 20613.9 3424 20613.9 3430.07 20613.9 3435 20618.8 3435 20624.9Z" stroke="#4472C4" stroke-width="3.4375" stroke-linejoin="round" stroke-miterlimit="10" fill="#4472C4"/><path d="M3438 20557.9C3438 20564 3433.07 20568.9 3427 20568.9 3420.92 20568.9 3416 20564 3416 20557.9 3416 20551.8 3420.92 20546.9 3427 20546.9 3433.07 20546.9 3438 20551.8 3438 20557.9Z" stroke="#4472C4" stroke-width="3.4375" stroke-linejoin="round" stroke-miterlimit="10" fill="#4472C4"/><path d="M3442 20590.9C3442 20597 3437.07 20601.9 3431 20601.9 3424.92 20601.9 3420 20597 3420 20590.9 3420 20584.8 3424.92 20579.9 3431 20579.9 3437.07 20579.9 3442 20584.8 3442 20590.9Z" stroke="#4472C4" stroke-width="3.4375" stroke-linejoin="round" stroke-miterlimit="10" fill="#4472C4"/><path d="M3446 20653.9C3446 20660 3441.07 20664.9 3435 20664.9 3428.92 20664.9 3424 20660 3424 20653.9 3424 20647.8 3428.92 20642.9 3435 20642.9 3441.07 20642.9 3446 20647.8 3446 20653.9Z" stroke="#4472C4" stroke-width="3.4375" stroke-linejoin="round" stroke-miterlimit="10" fill="#4472C4"/><path d="M3449 20437.9C3449 20444 3444.07 20448.9 3438 20448.9 3431.92 20448.9 3427 20444 3427 20437.9 3427 20431.8 3431.92 20426.9 3438 20426.9 3444.07 20426.9 3449 20431.8 3449 20437.9Z" stroke="#4472C4" stroke-width="3.4375" stroke-linejoin="round" stroke-miterlimit="10" fill="#4472C4"/><path d="M3453 20514.9C3453 20521 3448.07 20525.9 3442 20525.9 3435.92 20525.9 3431 20521 3431 20514.9 3431 20508.8 3435.92 20503.9 3442 20503.9 3448.07 20503.9 3453 20508.8 3453 20514.9Z" stroke="#4472C4" stroke-width="3.4375" stroke-linejoin="round" stroke-miterlimit="10" fill="#4472C4"/><path d="M3457 20574.9C3457 20581 3452.07 20585.9 3446 20585.9 3439.92 20585.9 3435 20581 3435 20574.9 3435 20568.8 3439.92 20563.9 3446 20563.9 3452.07 20563.9 3457 20568.8 3457 20574.9Z" stroke="#4472C4" stroke-width="3.4375" stroke-linejoin="round" stroke-miterlimit="10" fill="#4472C4"/><path d="M3460 20670.9C3460 20677 3455.07 20681.9 3449 20681.9 3442.92 20681.9 3438 20677 3438 20670.9 3438 20664.8 3442.92 20659.9 3449 20659.9 3455.07 20659.9 3460 20664.8 3460 20670.9Z" stroke="#4472C4" stroke-width="3.4375" stroke-linejoin="round" stroke-miterlimit="10" fill="#4472C4"/><path d="M3464 20660.9C3464 20667 3459.07 20671.9 3453 20671.9 3446.92 20671.9 3442 20667 3442 20660.9 3442 20654.8 3446.92 20649.9 3453 20649.9 3459.07 20649.9 3464 20654.8 3464 20660.9Z" stroke="#4472C4" stroke-width="3.4375" stroke-linejoin="round" stroke-miterlimit="10" fill="#4472C4"/><path d="M3468 20639.9C3468 20646 3463.07 20650.9 3457 20650.9 3450.92 20650.9 3446 20646 3446 20639.9 3446 20633.8 3450.92 20628.9 3457 20628.9 3463.07 20628.9 3468 20633.8 3468 20639.9Z" stroke="#4472C4" stroke-width="3.4375" stroke-linejoin="round" stroke-miterlimit="10" fill="#4472C4"/><path d="M3471 20556.9C3471 20563 3466.07 20567.9 3460 20567.9 3453.92 20567.9 3449 20563 3449 20556.9 3449 20550.8 3453.92 20545.9 3460 20545.9 3466.07 20545.9 3471 20550.8 3471 20556.9Z" stroke="#4472C4" stroke-width="3.4375" stroke-linejoin="round" stroke-miterlimit="10" fill="#4472C4"/><path d="M3475 20580.9C3475 20587 3470.07 20591.9 3464 20591.9 3457.92 20591.9 3453 20587 3453 20580.9 3453 20574.8 3457.92 20569.9 3464 20569.9 3470.07 20569.9 3475 20574.8 3475 20580.9Z" stroke="#4472C4" stroke-width="3.4375" stroke-linejoin="round" stroke-miterlimit="10" fill="#4472C4"/><path d="M3479 20556.9C3479 20563 3474.07 20567.9 3468 20567.9 3461.92 20567.9 3457 20563 3457 20556.9 3457 20550.8 3461.92 20545.9 3468 20545.9 3474.07 20545.9 3479 20550.8 3479 20556.9Z" stroke="#4472C4" stroke-width="3.4375" stroke-linejoin="round" stroke-miterlimit="10" fill="#4472C4"/><path d="M3482 20515.9C3482 20522 3477.07 20526.9 3471 20526.9 3464.92 20526.9 3460 20522 3460 20515.9 3460 20509.8 3464.92 20504.9 3471 20504.9 3477.07 20504.9 3482 20509.8 3482 20515.9Z" stroke="#4472C4" stroke-width="3.4375" stroke-linejoin="round" stroke-miterlimit="10" fill="#4472C4"/><path d="M3486 20506.9C3486 20513 3481.07 20517.9 3475 20517.9 3468.92 20517.9 3464 20513 3464 20506.9 3464 20500.8 3468.92 20495.9 3475 20495.9 3481.07 20495.9 3486 20500.8 3486 20506.9Z" stroke="#4472C4" stroke-width="3.4375" stroke-linejoin="round" stroke-miterlimit="10" fill="#4472C4"/><path d="M3490 20533.9C3490 20540 3485.07 20544.9 3479 20544.9 3472.92 20544.9 3468 20540 3468 20533.9 3468 20527.8 3472.92 20522.9 3479 20522.9 3485.07 20522.9 3490 20527.8 3490 20533.9Z" stroke="#4472C4" stroke-width="3.4375" stroke-linejoin="round" stroke-miterlimit="10" fill="#4472C4"/><path d="M3493 20495.9C3493 20502 3488.07 20506.9 3482 20506.9 3475.92 20506.9 3471 20502 3471 20495.9 3471 20489.8 3475.92 20484.9 3482 20484.9 3488.07 20484.9 3493 20489.8 3493 20495.9Z" stroke="#4472C4" stroke-width="3.4375" stroke-linejoin="round" stroke-miterlimit="10" fill="#4472C4"/><path d="M3497 20465.9C3497 20472 3492.07 20476.9 3486 20476.9 3479.92 20476.9 3475 20472 3475 20465.9 3475 20459.8 3479.92 20454.9 3486 20454.9 3492.07 20454.9 3497 20459.8 3497 20465.9Z" stroke="#4472C4" stroke-width="3.4375" stroke-linejoin="round" stroke-miterlimit="10" fill="#4472C4"/><path d="M3501 20457.9C3501 20464 3496.07 20468.9 3490 20468.9 3483.92 20468.9 3479 20464 3479 20457.9 3479 20451.8 3483.92 20446.9 3490 20446.9 3496.07 20446.9 3501 20451.8 3501 20457.9Z" stroke="#4472C4" stroke-width="3.4375" stroke-linejoin="round" stroke-miterlimit="10" fill="#4472C4"/><path d="M3504 20539.9C3504 20546 3499.07 20550.9 3493 20550.9 3486.92 20550.9 3482 20546 3482 20539.9 3482 20533.8 3486.92 20528.9 3493 20528.9 3499.07 20528.9 3504 20533.8 3504 20539.9Z" stroke="#4472C4" stroke-width="3.4375" stroke-linejoin="round" stroke-miterlimit="10" fill="#4472C4"/><path d="M3508 20351.9C3508 20358 3503.07 20362.9 3497 20362.9 3490.92 20362.9 3486 20358 3486 20351.9 3486 20345.8 3490.92 20340.9 3497 20340.9 3503.07 20340.9 3508 20345.8 3508 20351.9Z" stroke="#4472C4" stroke-width="3.4375" stroke-linejoin="round" stroke-miterlimit="10" fill="#4472C4"/><path d="M3512 20444.9C3512 20451 3507.07 20455.9 3501 20455.9 3494.92 20455.9 3490 20451 3490 20444.9 3490 20438.8 3494.92 20433.9 3501 20433.9 3507.07 20433.9 3512 20438.8 3512 20444.9Z" stroke="#4472C4" stroke-width="3.4375" stroke-linejoin="round" stroke-miterlimit="10" fill="#4472C4"/><path d="M3515 20440.9C3515 20447 3510.07 20451.9 3504 20451.9 3497.92 20451.9 3493 20447 3493 20440.9 3493 20434.8 3497.92 20429.9 3504 20429.9 3510.07 20429.9 3515 20434.8 3515 20440.9Z" stroke="#4472C4" stroke-width="3.4375" stroke-linejoin="round" stroke-miterlimit="10" fill="#4472C4"/><path d="M3519 20371.9C3519 20378 3514.07 20382.9 3508 20382.9 3501.92 20382.9 3497 20378 3497 20371.9 3497 20365.8 3501.92 20360.9 3508 20360.9 3514.07 20360.9 3519 20365.8 3519 20371.9Z" stroke="#4472C4" stroke-width="3.4375" stroke-linejoin="round" stroke-miterlimit="10" fill="#4472C4"/><path d="M3523 20390.9C3523 20397 3518.07 20401.9 3512 20401.9 3505.92 20401.9 3501 20397 3501 20390.9 3501 20384.8 3505.92 20379.9 3512 20379.9 3518.07 20379.9 3523 20384.8 3523 20390.9Z" stroke="#4472C4" stroke-width="3.4375" stroke-linejoin="round" stroke-miterlimit="10" fill="#4472C4"/><path d="M3526 20412.9C3526 20419 3521.07 20423.9 3515 20423.9 3508.92 20423.9 3504 20419 3504 20412.9 3504 20406.8 3508.92 20401.9 3515 20401.9 3521.07 20401.9 3526 20406.8 3526 20412.9Z" stroke="#4472C4" stroke-width="3.4375" stroke-linejoin="round" stroke-miterlimit="10" fill="#4472C4"/><path d="M3530 20494.9C3530 20501 3525.07 20505.9 3519 20505.9 3512.92 20505.9 3508 20501 3508 20494.9 3508 20488.8 3512.92 20483.9 3519 20483.9 3525.07 20483.9 3530 20488.8 3530 20494.9Z" stroke="#4472C4" stroke-width="3.4375" stroke-linejoin="round" stroke-miterlimit="10" fill="#4472C4"/><path d="M3534 20442.9C3534 20449 3529.07 20453.9 3523 20453.9 3516.92 20453.9 3512 20449 3512 20442.9 3512 20436.8 3516.92 20431.9 3523 20431.9 3529.07 20431.9 3534 20436.8 3534 20442.9Z" stroke="#4472C4" stroke-width="3.4375" stroke-linejoin="round" stroke-miterlimit="10" fill="#4472C4"/><path d="M3537 20461.9C3537 20468 3532.07 20472.9 3526 20472.9 3519.92 20472.9 3515 20468 3515 20461.9 3515 20455.8 3519.92 20450.9 3526 20450.9 3532.07 20450.9 3537 20455.8 3537 20461.9Z" stroke="#4472C4" stroke-width="3.4375" stroke-linejoin="round" stroke-miterlimit="10" fill="#4472C4"/><path d="M3541 20402.9C3541 20409 3536.07 20413.9 3530 20413.9 3523.92 20413.9 3519 20409 3519 20402.9 3519 20396.8 3523.92 20391.9 3530 20391.9 3536.07 20391.9 3541 20396.8 3541 20402.9Z" stroke="#4472C4" stroke-width="3.4375" stroke-linejoin="round" stroke-miterlimit="10" fill="#4472C4"/><path d="M3545 20415.9C3545 20422 3540.07 20426.9 3534 20426.9 3527.92 20426.9 3523 20422 3523 20415.9 3523 20409.8 3527.92 20404.9 3534 20404.9 3540.07 20404.9 3545 20409.8 3545 20415.9Z" stroke="#4472C4" stroke-width="3.4375" stroke-linejoin="round" stroke-miterlimit="10" fill="#4472C4"/><path d="M3548 20464.9C3548 20471 3543.07 20475.9 3537 20475.9 3530.92 20475.9 3526 20471 3526 20464.9 3526 20458.8 3530.92 20453.9 3537 20453.9 3543.07 20453.9 3548 20458.8 3548 20464.9Z" stroke="#4472C4" stroke-width="3.4375" stroke-linejoin="round" stroke-miterlimit="10" fill="#4472C4"/><path d="M3552 20482.9C3552 20489 3547.07 20493.9 3541 20493.9 3534.92 20493.9 3530 20489 3530 20482.9 3530 20476.8 3534.92 20471.9 3541 20471.9 3547.07 20471.9 3552 20476.8 3552 20482.9Z" stroke="#4472C4" stroke-width="3.4375" stroke-linejoin="round" stroke-miterlimit="10" fill="#4472C4"/><path d="M3556 20581.9C3556 20588 3551.07 20592.9 3545 20592.9 3538.92 20592.9 3534 20588 3534 20581.9 3534 20575.8 3538.92 20570.9 3545 20570.9 3551.07 20570.9 3556 20575.8 3556 20581.9Z" stroke="#4472C4" stroke-width="3.4375" stroke-linejoin="round" stroke-miterlimit="10" fill="#4472C4"/><path d="M3559 20514.9C3559 20521 3554.07 20525.9 3548 20525.9 3541.92 20525.9 3537 20521 3537 20514.9 3537 20508.8 3541.92 20503.9 3548 20503.9 3554.07 20503.9 3559 20508.8 3559 20514.9Z" stroke="#4472C4" stroke-width="3.4375" stroke-linejoin="round" stroke-miterlimit="10" fill="#4472C4"/><path d="M3563 20433.9C3563 20440 3558.07 20444.9 3552 20444.9 3545.92 20444.9 3541 20440 3541 20433.9 3541 20427.8 3545.92 20422.9 3552 20422.9 3558.07 20422.9 3563 20427.8 3563 20433.9Z" stroke="#4472C4" stroke-width="3.4375" stroke-linejoin="round" stroke-miterlimit="10" fill="#4472C4"/><path d="M3567 20475.9C3567 20482 3562.07 20486.9 3556 20486.9 3549.92 20486.9 3545 20482 3545 20475.9 3545 20469.8 3549.92 20464.9 3556 20464.9 3562.07 20464.9 3567 20469.8 3567 20475.9Z" stroke="#4472C4" stroke-width="3.4375" stroke-linejoin="round" stroke-miterlimit="10" fill="#4472C4"/><path d="M3570 20418.9C3570 20425 3565.07 20429.9 3559 20429.9 3552.92 20429.9 3548 20425 3548 20418.9 3548 20412.8 3552.92 20407.9 3559 20407.9 3565.07 20407.9 3570 20412.8 3570 20418.9Z" stroke="#4472C4" stroke-width="3.4375" stroke-linejoin="round" stroke-miterlimit="10" fill="#4472C4"/><path d="M3574 20362.9C3574 20369 3569.07 20373.9 3563 20373.9 3556.92 20373.9 3552 20369 3552 20362.9 3552 20356.8 3556.92 20351.9 3563 20351.9 3569.07 20351.9 3574 20356.8 3574 20362.9Z" stroke="#4472C4" stroke-width="3.4375" stroke-linejoin="round" stroke-miterlimit="10" fill="#4472C4"/><path d="M3578 20507.9C3578 20514 3573.07 20518.9 3567 20518.9 3560.92 20518.9 3556 20514 3556 20507.9 3556 20501.8 3560.92 20496.9 3567 20496.9 3573.07 20496.9 3578 20501.8 3578 20507.9Z" stroke="#4472C4" stroke-width="3.4375" stroke-linejoin="round" stroke-miterlimit="10" fill="#4472C4"/><path d="M3581 20414.9C3581 20421 3576.07 20425.9 3570 20425.9 3563.92 20425.9 3559 20421 3559 20414.9 3559 20408.8 3563.92 20403.9 3570 20403.9 3576.07 20403.9 3581 20408.8 3581 20414.9Z" stroke="#4472C4" stroke-width="3.4375" stroke-linejoin="round" stroke-miterlimit="10" fill="#4472C4"/><path d="M3585 20368.9C3585 20375 3580.07 20379.9 3574 20379.9 3567.92 20379.9 3563 20375 3563 20368.9 3563 20362.8 3567.92 20357.9 3574 20357.9 3580.07 20357.9 3585 20362.8 3585 20368.9Z" stroke="#4472C4" stroke-width="3.4375" stroke-linejoin="round" stroke-miterlimit="10" fill="#4472C4"/><path d="M3589 20400.9C3589 20407 3584.07 20411.9 3578 20411.9 3571.92 20411.9 3567 20407 3567 20400.9 3567 20394.8 3571.92 20389.9 3578 20389.9 3584.07 20389.9 3589 20394.8 3589 20400.9Z" stroke="#4472C4" stroke-width="3.4375" stroke-linejoin="round" stroke-miterlimit="10" fill="#4472C4"/><path d="M3592 20343.9C3592 20350 3587.07 20354.9 3581 20354.9 3574.92 20354.9 3570 20350 3570 20343.9 3570 20337.8 3574.92 20332.9 3581 20332.9 3587.07 20332.9 3592 20337.8 3592 20343.9Z" stroke="#4472C4" stroke-width="3.4375" stroke-linejoin="round" stroke-miterlimit="10" fill="#4472C4"/><path d="M3596 20407.9C3596 20414 3591.07 20418.9 3585 20418.9 3578.92 20418.9 3574 20414 3574 20407.9 3574 20401.8 3578.92 20396.9 3585 20396.9 3591.07 20396.9 3596 20401.8 3596 20407.9Z" stroke="#4472C4" stroke-width="3.4375" stroke-linejoin="round" stroke-miterlimit="10" fill="#4472C4"/><path d="M3600 20426.9C3600 20433 3595.07 20437.9 3589 20437.9 3582.92 20437.9 3578 20433 3578 20426.9 3578 20420.8 3582.92 20415.9 3589 20415.9 3595.07 20415.9 3600 20420.8 3600 20426.9Z" stroke="#4472C4" stroke-width="3.4375" stroke-linejoin="round" stroke-miterlimit="10" fill="#4472C4"/><path d="M3603 20218.9C3603 20225 3598.07 20229.9 3592 20229.9 3585.92 20229.9 3581 20225 3581 20218.9 3581 20212.8 3585.92 20207.9 3592 20207.9 3598.07 20207.9 3603 20212.8 3603 20218.9Z" stroke="#4472C4" stroke-width="3.4375" stroke-linejoin="round" stroke-miterlimit="10" fill="#4472C4"/><path d="M3607 20212.9C3607 20219 3602.07 20223.9 3596 20223.9 3589.92 20223.9 3585 20219 3585 20212.9 3585 20206.8 3589.92 20201.9 3596 20201.9 3602.07 20201.9 3607 20206.8 3607 20212.9Z" stroke="#4472C4" stroke-width="3.4375" stroke-linejoin="round" stroke-miterlimit="10" fill="#4472C4"/><path d="M3611 20114.9C3611 20121 3606.07 20125.9 3600 20125.9 3593.92 20125.9 3589 20121 3589 20114.9 3589 20108.8 3593.92 20103.9 3600 20103.9 3606.07 20103.9 3611 20108.8 3611 20114.9Z" stroke="#4472C4" stroke-width="3.4375" stroke-linejoin="round" stroke-miterlimit="10" fill="#4472C4"/><path d="M3614 20238.9C3614 20245 3609.07 20249.9 3603 20249.9 3596.92 20249.9 3592 20245 3592 20238.9 3592 20232.8 3596.92 20227.9 3603 20227.9 3609.07 20227.9 3614 20232.8 3614 20238.9Z" stroke="#4472C4" stroke-width="3.4375" stroke-linejoin="round" stroke-miterlimit="10" fill="#4472C4"/><path d="M3618 20139.9C3618 20146 3613.07 20150.9 3607 20150.9 3600.92 20150.9 3596 20146 3596 20139.9 3596 20133.8 3600.92 20128.9 3607 20128.9 3613.07 20128.9 3618 20133.8 3618 20139.9Z" stroke="#4472C4" stroke-width="3.4375" stroke-linejoin="round" stroke-miterlimit="10" fill="#4472C4"/><path d="M3622 20256.9C3622 20263 3617.07 20267.9 3611 20267.9 3604.92 20267.9 3600 20263 3600 20256.9 3600 20250.8 3604.92 20245.9 3611 20245.9 3617.07 20245.9 3622 20250.8 3622 20256.9Z" stroke="#4472C4" stroke-width="3.4375" stroke-linejoin="round" stroke-miterlimit="10" fill="#4472C4"/><path d="M3625 20033.9C3625 20040 3620.07 20044.9 3614 20044.9 3607.92 20044.9 3603 20040 3603 20033.9 3603 20027.8 3607.92 20022.9 3614 20022.9 3620.07 20022.9 3625 20027.8 3625 20033.9Z" stroke="#4472C4" stroke-width="3.4375" stroke-linejoin="round" stroke-miterlimit="10" fill="#4472C4"/><path d="M3629 20168.9C3629 20175 3624.07 20179.9 3618 20179.9 3611.92 20179.9 3607 20175 3607 20168.9 3607 20162.8 3611.92 20157.9 3618 20157.9 3624.07 20157.9 3629 20162.8 3629 20168.9Z" stroke="#4472C4" stroke-width="3.4375" stroke-linejoin="round" stroke-miterlimit="10" fill="#4472C4"/><path d="M3633 20295.9C3633 20302 3628.07 20306.9 3622 20306.9 3615.92 20306.9 3611 20302 3611 20295.9 3611 20289.8 3615.92 20284.9 3622 20284.9 3628.07 20284.9 3633 20289.8 3633 20295.9Z" stroke="#4472C4" stroke-width="3.4375" stroke-linejoin="round" stroke-miterlimit="10" fill="#4472C4"/><path d="M3636 20306.9C3636 20313 3631.07 20317.9 3625 20317.9 3618.92 20317.9 3614 20313 3614 20306.9 3614 20300.8 3618.92 20295.9 3625 20295.9 3631.07 20295.9 3636 20300.8 3636 20306.9Z" stroke="#4472C4" stroke-width="3.4375" stroke-linejoin="round" stroke-miterlimit="10" fill="#4472C4"/><path d="M3640 20485.9C3640 20492 3635.07 20496.9 3629 20496.9 3622.92 20496.9 3618 20492 3618 20485.9 3618 20479.8 3622.92 20474.9 3629 20474.9 3635.07 20474.9 3640 20479.8 3640 20485.9Z" stroke="#4472C4" stroke-width="3.4375" stroke-linejoin="round" stroke-miterlimit="10" fill="#4472C4"/><path d="M3644 20463.9C3644 20470 3639.07 20474.9 3633 20474.9 3626.92 20474.9 3622 20470 3622 20463.9 3622 20457.8 3626.92 20452.9 3633 20452.9 3639.07 20452.9 3644 20457.8 3644 20463.9Z" stroke="#4472C4" stroke-width="3.4375" stroke-linejoin="round" stroke-miterlimit="10" fill="#4472C4"/><path d="M3647 20426.9C3647 20433 3642.07 20437.9 3636 20437.9 3629.92 20437.9 3625 20433 3625 20426.9 3625 20420.8 3629.92 20415.9 3636 20415.9 3642.07 20415.9 3647 20420.8 3647 20426.9Z" stroke="#4472C4" stroke-width="3.4375" stroke-linejoin="round" stroke-miterlimit="10" fill="#4472C4"/><path d="M3651 20513.9C3651 20520 3646.07 20524.9 3640 20524.9 3633.92 20524.9 3629 20520 3629 20513.9 3629 20507.8 3633.92 20502.9 3640 20502.9 3646.07 20502.9 3651 20507.8 3651 20513.9Z" stroke="#4472C4" stroke-width="3.4375" stroke-linejoin="round" stroke-miterlimit="10" fill="#4472C4"/><path d="M3655 20331.9C3655 20338 3650.07 20342.9 3644 20342.9 3637.92 20342.9 3633 20338 3633 20331.9 3633 20325.8 3637.92 20320.9 3644 20320.9 3650.07 20320.9 3655 20325.8 3655 20331.9Z" stroke="#4472C4" stroke-width="3.4375" stroke-linejoin="round" stroke-miterlimit="10" fill="#4472C4"/><path d="M3659 20394.9C3659 20401 3654.07 20405.9 3648 20405.9 3641.92 20405.9 3637 20401 3637 20394.9 3637 20388.8 3641.92 20383.9 3648 20383.9 3654.07 20383.9 3659 20388.8 3659 20394.9Z" stroke="#4472C4" stroke-width="3.4375" stroke-linejoin="round" stroke-miterlimit="10" fill="#4472C4"/><path d="M3662 20411.9C3662 20418 3657.07 20422.9 3651 20422.9 3644.92 20422.9 3640 20418 3640 20411.9 3640 20405.8 3644.92 20400.9 3651 20400.9 3657.07 20400.9 3662 20405.8 3662 20411.9Z" stroke="#4472C4" stroke-width="3.4375" stroke-linejoin="round" stroke-miterlimit="10" fill="#4472C4"/><path d="M3666 20382.9C3666 20389 3661.07 20393.9 3655 20393.9 3648.92 20393.9 3644 20389 3644 20382.9 3644 20376.8 3648.92 20371.9 3655 20371.9 3661.07 20371.9 3666 20376.8 3666 20382.9Z" stroke="#4472C4" stroke-width="3.4375" stroke-linejoin="round" stroke-miterlimit="10" fill="#4472C4"/><path d="M3670 20411.9C3670 20418 3665.07 20422.9 3659 20422.9 3652.92 20422.9 3648 20418 3648 20411.9 3648 20405.8 3652.92 20400.9 3659 20400.9 3665.07 20400.9 3670 20405.8 3670 20411.9Z" stroke="#4472C4" stroke-width="3.4375" stroke-linejoin="round" stroke-miterlimit="10" fill="#4472C4"/><path d="M3673 20380.9C3673 20387 3668.07 20391.9 3662 20391.9 3655.92 20391.9 3651 20387 3651 20380.9 3651 20374.8 3655.92 20369.9 3662 20369.9 3668.07 20369.9 3673 20374.8 3673 20380.9Z" stroke="#4472C4" stroke-width="3.4375" stroke-linejoin="round" stroke-miterlimit="10" fill="#4472C4"/><path d="M3677 20474.9C3677 20481 3672.07 20485.9 3666 20485.9 3659.92 20485.9 3655 20481 3655 20474.9 3655 20468.8 3659.92 20463.9 3666 20463.9 3672.07 20463.9 3677 20468.8 3677 20474.9Z" stroke="#4472C4" stroke-width="3.4375" stroke-linejoin="round" stroke-miterlimit="10" fill="#4472C4"/><path d="M3681 20489.9C3681 20496 3676.07 20500.9 3670 20500.9 3663.92 20500.9 3659 20496 3659 20489.9 3659 20483.8 3663.92 20478.9 3670 20478.9 3676.07 20478.9 3681 20483.8 3681 20489.9Z" stroke="#4472C4" stroke-width="3.4375" stroke-linejoin="round" stroke-miterlimit="10" fill="#4472C4"/><path d="M3684 20419.9C3684 20426 3679.07 20430.9 3673 20430.9 3666.92 20430.9 3662 20426 3662 20419.9 3662 20413.8 3666.92 20408.9 3673 20408.9 3679.07 20408.9 3684 20413.8 3684 20419.9Z" stroke="#4472C4" stroke-width="3.4375" stroke-linejoin="round" stroke-miterlimit="10" fill="#4472C4"/><path d="M3688 20476.9C3688 20483 3683.07 20487.9 3677 20487.9 3670.92 20487.9 3666 20483 3666 20476.9 3666 20470.8 3670.92 20465.9 3677 20465.9 3683.07 20465.9 3688 20470.8 3688 20476.9Z" stroke="#4472C4" stroke-width="3.4375" stroke-linejoin="round" stroke-miterlimit="10" fill="#4472C4"/><path d="M3692 20523.9C3692 20530 3687.07 20534.9 3681 20534.9 3674.92 20534.9 3670 20530 3670 20523.9 3670 20517.8 3674.92 20512.9 3681 20512.9 3687.07 20512.9 3692 20517.8 3692 20523.9Z" stroke="#4472C4" stroke-width="3.4375" stroke-linejoin="round" stroke-miterlimit="10" fill="#4472C4"/><path d="M3695 20349.9C3695 20356 3690.07 20360.9 3684 20360.9 3677.92 20360.9 3673 20356 3673 20349.9 3673 20343.8 3677.92 20338.9 3684 20338.9 3690.07 20338.9 3695 20343.8 3695 20349.9Z" stroke="#4472C4" stroke-width="3.4375" stroke-linejoin="round" stroke-miterlimit="10" fill="#4472C4"/><path d="M3699 20540.9C3699 20547 3694.07 20551.9 3688 20551.9 3681.92 20551.9 3677 20547 3677 20540.9 3677 20534.8 3681.92 20529.9 3688 20529.9 3694.07 20529.9 3699 20534.8 3699 20540.9Z" stroke="#4472C4" stroke-width="3.4375" stroke-linejoin="round" stroke-miterlimit="10" fill="#4472C4"/><path d="M3703 20512.9C3703 20519 3698.07 20523.9 3692 20523.9 3685.92 20523.9 3681 20519 3681 20512.9 3681 20506.8 3685.92 20501.9 3692 20501.9 3698.07 20501.9 3703 20506.8 3703 20512.9Z" stroke="#4472C4" stroke-width="3.4375" stroke-linejoin="round" stroke-miterlimit="10" fill="#4472C4"/><path d="M3706 20532.9C3706 20539 3701.07 20543.9 3695 20543.9 3688.92 20543.9 3684 20539 3684 20532.9 3684 20526.8 3688.92 20521.9 3695 20521.9 3701.07 20521.9 3706 20526.8 3706 20532.9Z" stroke="#4472C4" stroke-width="3.4375" stroke-linejoin="round" stroke-miterlimit="10" fill="#4472C4"/><path d="M3710 20502.9C3710 20509 3705.07 20513.9 3699 20513.9 3692.92 20513.9 3688 20509 3688 20502.9 3688 20496.8 3692.92 20491.9 3699 20491.9 3705.07 20491.9 3710 20496.8 3710 20502.9Z" stroke="#4472C4" stroke-width="3.4375" stroke-linejoin="round" stroke-miterlimit="10" fill="#4472C4"/><path d="M3714 20597.9C3714 20604 3709.07 20608.9 3703 20608.9 3696.92 20608.9 3692 20604 3692 20597.9 3692 20591.8 3696.92 20586.9 3703 20586.9 3709.07 20586.9 3714 20591.8 3714 20597.9Z" stroke="#4472C4" stroke-width="3.4375" stroke-linejoin="round" stroke-miterlimit="10" fill="#4472C4"/><path d="M3717 20542.9C3717 20549 3712.07 20553.9 3706 20553.9 3699.92 20553.9 3695 20549 3695 20542.9 3695 20536.8 3699.92 20531.9 3706 20531.9 3712.07 20531.9 3717 20536.8 3717 20542.9Z" stroke="#4472C4" stroke-width="3.4375" stroke-linejoin="round" stroke-miterlimit="10" fill="#4472C4"/><path d="M3721 20501.9C3721 20508 3716.07 20512.9 3710 20512.9 3703.92 20512.9 3699 20508 3699 20501.9 3699 20495.8 3703.92 20490.9 3710 20490.9 3716.07 20490.9 3721 20495.8 3721 20501.9Z" stroke="#4472C4" stroke-width="3.4375" stroke-linejoin="round" stroke-miterlimit="10" fill="#4472C4"/><path d="M3725 20379.9C3725 20386 3720.07 20390.9 3714 20390.9 3707.92 20390.9 3703 20386 3703 20379.9 3703 20373.8 3707.92 20368.9 3714 20368.9 3720.07 20368.9 3725 20373.8 3725 20379.9Z" stroke="#4472C4" stroke-width="3.4375" stroke-linejoin="round" stroke-miterlimit="10" fill="#4472C4"/><path d="M3728 20586.9C3728 20593 3723.07 20597.9 3717 20597.9 3710.92 20597.9 3706 20593 3706 20586.9 3706 20580.8 3710.92 20575.9 3717 20575.9 3723.07 20575.9 3728 20580.8 3728 20586.9Z" stroke="#4472C4" stroke-width="3.4375" stroke-linejoin="round" stroke-miterlimit="10" fill="#4472C4"/><path d="M3732 20469.9C3732 20476 3727.07 20480.9 3721 20480.9 3714.92 20480.9 3710 20476 3710 20469.9 3710 20463.8 3714.92 20458.9 3721 20458.9 3727.07 20458.9 3732 20463.8 3732 20469.9Z" stroke="#4472C4" stroke-width="3.4375" stroke-linejoin="round" stroke-miterlimit="10" fill="#4472C4"/><path d="M3736 20657.9C3736 20664 3731.07 20668.9 3725 20668.9 3718.92 20668.9 3714 20664 3714 20657.9 3714 20651.8 3718.92 20646.9 3725 20646.9 3731.07 20646.9 3736 20651.8 3736 20657.9Z" stroke="#4472C4" stroke-width="3.4375" stroke-linejoin="round" stroke-miterlimit="10" fill="#4472C4"/><path d="M3739 20641.9C3739 20648 3734.07 20652.9 3728 20652.9 3721.92 20652.9 3717 20648 3717 20641.9 3717 20635.8 3721.92 20630.9 3728 20630.9 3734.07 20630.9 3739 20635.8 3739 20641.9Z" stroke="#4472C4" stroke-width="3.4375" stroke-linejoin="round" stroke-miterlimit="10" fill="#4472C4"/><path d="M3743 20475.9C3743 20482 3738.07 20486.9 3732 20486.9 3725.92 20486.9 3721 20482 3721 20475.9 3721 20469.8 3725.92 20464.9 3732 20464.9 3738.07 20464.9 3743 20469.8 3743 20475.9Z" stroke="#4472C4" stroke-width="3.4375" stroke-linejoin="round" stroke-miterlimit="10" fill="#4472C4"/><path d="M3747 20455.9C3747 20462 3742.07 20466.9 3736 20466.9 3729.92 20466.9 3725 20462 3725 20455.9 3725 20449.8 3729.92 20444.9 3736 20444.9 3742.07 20444.9 3747 20449.8 3747 20455.9Z" stroke="#4472C4" stroke-width="3.4375" stroke-linejoin="round" stroke-miterlimit="10" fill="#4472C4"/><path d="M3750 20538.9C3750 20545 3745.07 20549.9 3739 20549.9 3732.92 20549.9 3728 20545 3728 20538.9 3728 20532.8 3732.92 20527.9 3739 20527.9 3745.07 20527.9 3750 20532.8 3750 20538.9Z" stroke="#4472C4" stroke-width="3.4375" stroke-linejoin="round" stroke-miterlimit="10" fill="#4472C4"/><path d="M3754 20531.9C3754 20538 3749.07 20542.9 3743 20542.9 3736.92 20542.9 3732 20538 3732 20531.9 3732 20525.8 3736.92 20520.9 3743 20520.9 3749.07 20520.9 3754 20525.8 3754 20531.9Z" stroke="#4472C4" stroke-width="3.4375" stroke-linejoin="round" stroke-miterlimit="10" fill="#4472C4"/><path d="M3758 20478.9C3758 20485 3753.07 20489.9 3747 20489.9 3740.92 20489.9 3736 20485 3736 20478.9 3736 20472.8 3740.92 20467.9 3747 20467.9 3753.07 20467.9 3758 20472.8 3758 20478.9Z" stroke="#4472C4" stroke-width="3.4375" stroke-linejoin="round" stroke-miterlimit="10" fill="#4472C4"/><path d="M3761 20680.9C3761 20687 3756.07 20691.9 3750 20691.9 3743.92 20691.9 3739 20687 3739 20680.9 3739 20674.8 3743.92 20669.9 3750 20669.9 3756.07 20669.9 3761 20674.8 3761 20680.9Z" stroke="#4472C4" stroke-width="3.4375" stroke-linejoin="round" stroke-miterlimit="10" fill="#4472C4"/><path d="M3765 20509.9C3765 20516 3760.07 20520.9 3754 20520.9 3747.92 20520.9 3743 20516 3743 20509.9 3743 20503.8 3747.92 20498.9 3754 20498.9 3760.07 20498.9 3765 20503.8 3765 20509.9Z" stroke="#4472C4" stroke-width="3.4375" stroke-linejoin="round" stroke-miterlimit="10" fill="#4472C4"/><path d="M3769 20507.9C3769 20514 3764.07 20518.9 3758 20518.9 3751.92 20518.9 3747 20514 3747 20507.9 3747 20501.8 3751.92 20496.9 3758 20496.9 3764.07 20496.9 3769 20501.8 3769 20507.9Z" stroke="#4472C4" stroke-width="3.4375" stroke-linejoin="round" stroke-miterlimit="10" fill="#4472C4"/><path d="M3772 20445.9C3772 20452 3767.07 20456.9 3761 20456.9 3754.92 20456.9 3750 20452 3750 20445.9 3750 20439.8 3754.92 20434.9 3761 20434.9 3767.07 20434.9 3772 20439.8 3772 20445.9Z" stroke="#4472C4" stroke-width="3.4375" stroke-linejoin="round" stroke-miterlimit="10" fill="#4472C4"/><path d="M3776 20573.9C3776 20580 3771.07 20584.9 3765 20584.9 3758.92 20584.9 3754 20580 3754 20573.9 3754 20567.8 3758.92 20562.9 3765 20562.9 3771.07 20562.9 3776 20567.8 3776 20573.9Z" stroke="#4472C4" stroke-width="3.4375" stroke-linejoin="round" stroke-miterlimit="10" fill="#4472C4"/><path d="M3780 20460.9C3780 20467 3775.07 20471.9 3769 20471.9 3762.92 20471.9 3758 20467 3758 20460.9 3758 20454.8 3762.92 20449.9 3769 20449.9 3775.07 20449.9 3780 20454.8 3780 20460.9Z" stroke="#4472C4" stroke-width="3.4375" stroke-linejoin="round" stroke-miterlimit="10" fill="#4472C4"/><path d="M3783 20579.9C3783 20586 3778.07 20590.9 3772 20590.9 3765.92 20590.9 3761 20586 3761 20579.9 3761 20573.8 3765.92 20568.9 3772 20568.9 3778.07 20568.9 3783 20573.8 3783 20579.9Z" stroke="#4472C4" stroke-width="3.4375" stroke-linejoin="round" stroke-miterlimit="10" fill="#4472C4"/><path d="M3787 20492.9C3787 20499 3782.07 20503.9 3776 20503.9 3769.92 20503.9 3765 20499 3765 20492.9 3765 20486.8 3769.92 20481.9 3776 20481.9 3782.07 20481.9 3787 20486.8 3787 20492.9Z" stroke="#4472C4" stroke-width="3.4375" stroke-linejoin="round" stroke-miterlimit="10" fill="#4472C4"/><path d="M3791 20528.9C3791 20535 3786.07 20539.9 3780 20539.9 3773.92 20539.9 3769 20535 3769 20528.9 3769 20522.8 3773.92 20517.9 3780 20517.9 3786.07 20517.9 3791 20522.8 3791 20528.9Z" stroke="#4472C4" stroke-width="3.4375" stroke-linejoin="round" stroke-miterlimit="10" fill="#4472C4"/><path d="M3794 20409.9C3794 20416 3789.07 20420.9 3783 20420.9 3776.92 20420.9 3772 20416 3772 20409.9 3772 20403.8 3776.92 20398.9 3783 20398.9 3789.07 20398.9 3794 20403.8 3794 20409.9Z" stroke="#4472C4" stroke-width="3.4375" stroke-linejoin="round" stroke-miterlimit="10" fill="#4472C4"/><path d="M3798 20405.9C3798 20412 3793.07 20416.9 3787 20416.9 3780.92 20416.9 3776 20412 3776 20405.9 3776 20399.8 3780.92 20394.9 3787 20394.9 3793.07 20394.9 3798 20399.8 3798 20405.9Z" stroke="#4472C4" stroke-width="3.4375" stroke-linejoin="round" stroke-miterlimit="10" fill="#4472C4"/><path d="M3802 20459.9C3802 20466 3797.07 20470.9 3791 20470.9 3784.92 20470.9 3780 20466 3780 20459.9 3780 20453.8 3784.92 20448.9 3791 20448.9 3797.07 20448.9 3802 20453.8 3802 20459.9Z" stroke="#4472C4" stroke-width="3.4375" stroke-linejoin="round" stroke-miterlimit="10" fill="#4472C4"/><path d="M3805 20386.9C3805 20393 3800.07 20397.9 3794 20397.9 3787.92 20397.9 3783 20393 3783 20386.9 3783 20380.8 3787.92 20375.9 3794 20375.9 3800.07 20375.9 3805 20380.8 3805 20386.9Z" stroke="#4472C4" stroke-width="3.4375" stroke-linejoin="round" stroke-miterlimit="10" fill="#4472C4"/><path d="M3809 20375.9C3809 20382 3804.07 20386.9 3798 20386.9 3791.92 20386.9 3787 20382 3787 20375.9 3787 20369.8 3791.92 20364.9 3798 20364.9 3804.07 20364.9 3809 20369.8 3809 20375.9Z" stroke="#4472C4" stroke-width="3.4375" stroke-linejoin="round" stroke-miterlimit="10" fill="#4472C4"/><path d="M3813 20328.9C3813 20335 3808.07 20339.9 3802 20339.9 3795.92 20339.9 3791 20335 3791 20328.9 3791 20322.8 3795.92 20317.9 3802 20317.9 3808.07 20317.9 3813 20322.8 3813 20328.9Z" stroke="#4472C4" stroke-width="3.4375" stroke-linejoin="round" stroke-miterlimit="10" fill="#4472C4"/><path d="M3816 20328.9C3816 20335 3811.07 20339.9 3805 20339.9 3798.92 20339.9 3794 20335 3794 20328.9 3794 20322.8 3798.92 20317.9 3805 20317.9 3811.07 20317.9 3816 20322.8 3816 20328.9Z" stroke="#4472C4" stroke-width="3.4375" stroke-linejoin="round" stroke-miterlimit="10" fill="#4472C4"/></g><g clip-path="url(#clip10)"><path d="M0 0 1100 9.99997" stroke="#C00000" stroke-width="6.875" stroke-linecap="round" stroke-linejoin="round" stroke-miterlimit="10" stroke-dasharray="0 13.75" fill="none" fill-rule="evenodd" transform="matrix(1 0 0 -1 2704.5 20468.5)"/></g><g clip-path="url(#clip11)"><text fill="#595959" font-family="Calibri,Calibri_MSFontService,sans-serif" font-weight="400" font-size="41" transform="matrix(1 0 0 1 3611.18 20066)">y = 65.468x + 555079</text></g><g clip-path="url(#clip12)"><text fill="#595959" font-family="Calibri,Calibri_MSFontService,sans-serif" font-weight="400" font-size="41" transform="matrix(1 0 0 1 2644.88 20749)">0</text></g><g clip-path="url(#clip13)"><text fill="#595959" font-family="Calibri,Calibri_MSFontService,sans-serif" font-weight="400" font-size="41" transform="matrix(1 0 0 1 2540.38 20652)">200000</text></g><g clip-path="url(#clip14)"><text fill="#595959" font-family="Calibri,Calibri_MSFontService,sans-serif" font-weight="400" font-size="41" transform="matrix(1 0 0 1 2540.38 20555)">400000</text></g><g clip-path="url(#clip15)"><text fill="#595959" font-family="Calibri,Calibri_MSFontService,sans-serif" font-weight="400" font-size="41" transform="matrix(1 0 0 1 2540.38 20458)">600000</text></g><g clip-path="url(#clip16)"><text fill="#595959" font-family="Calibri,Calibri_MSFontService,sans-serif" font-weight="400" font-size="41" transform="matrix(1 0 0 1 2540.38 20361)">800000</text></g><g clip-path="url(#clip17)"><text fill="#595959" font-family="Calibri,Calibri_MSFontService,sans-serif" font-weight="400" font-size="41" transform="matrix(1 0 0 1 2519.48 20264)">1000000</text></g><g clip-path="url(#clip18)"><text fill="#595959" font-family="Calibri,Calibri_MSFontService,sans-serif" font-weight="400" font-size="41" transform="matrix(1 0 0 1 2519.48 20167)">1200000</text></g><g clip-path="url(#clip19)"><text fill="#595959" font-family="Calibri,Calibri_MSFontService,sans-serif" font-weight="400" font-size="41" transform="matrix(1 0 0 1 2519.48 20070)">1400000</text></g><g clip-path="url(#clip20)"><text fill="#595959" font-family="Calibri,Calibri_MSFontService,sans-serif" font-weight="400" font-size="41" transform="matrix(1 0 0 1 2519.48 19973)">1600000</text></g><g clip-path="url(#clip21)"><text fill="#595959" font-family="Calibri,Calibri_MSFontService,sans-serif" font-weight="400" font-size="41" transform="matrix(1 0 0 1 2693.6 20803)">0</text></g><g clip-path="url(#clip22)"><text fill="#595959" font-family="Calibri,Calibri_MSFontService,sans-serif" font-weight="400" font-size="41" transform="matrix(1 0 0 1 2866.6 20803)">50</text></g><g clip-path="url(#clip23)"><text fill="#595959" font-family="Calibri,Calibri_MSFontService,sans-serif" font-weight="400" font-size="41" transform="matrix(1 0 0 1 3039.61 20803)">100</text></g><g clip-path="url(#clip24)"><text fill="#595959" font-family="Calibri,Calibri_MSFontService,sans-serif" font-weight="400" font-size="41" transform="matrix(1 0 0 1 3223.06 20803)">150</text></g><g clip-path="url(#clip25)"><text fill="#595959" font-family="Calibri,Calibri_MSFontService,sans-serif" font-weight="400" font-size="41" transform="matrix(1 0 0 1 3406.52 20803)">200</text></g><g clip-path="url(#clip26)"><text fill="#595959" font-family="Calibri,Calibri_MSFontService,sans-serif" font-weight="400" font-size="41" transform="matrix(1 0 0 1 3589.97 20803)">250</text></g><g clip-path="url(#clip27)"><text fill="#595959" font-family="Calibri,Calibri_MSFontService,sans-serif" font-weight="400" font-size="41" transform="matrix(1 0 0 1 3773.43 20803)">300</text></g><g clip-path="url(#clip28)"><text fill="#595959" font-family="Calibri,Calibri_MSFontService,sans-serif" font-weight="400" font-size="41" transform="matrix(1 0 0 1 3956.88 20803)">350</text></g><g clip-path="url(#clip29)"><text fill="#595959" font-family="Calibri,Calibri_MSFontService,sans-serif" font-weight="400" font-size="46" transform="matrix(6.12323e-17 -1 1 6.12323e-17 2493.79 20572)">Current Average Fitness</text></g><g clip-path="url(#clip30)"><text fill="#595959" font-family="Calibri,Calibri_MSFontService,sans-serif" font-weight="400" font-size="46" transform="matrix(1 0 0 1 3240.8 20872)">Generation</text></g><g clip-path="url(#clip31)"><text fill="#595959" font-family="Calibri,Calibri_MSFontService,sans-serif" font-weight="400" font-size="64" transform="matrix(1 0 0 1 2877.32 19887)">Average Fitness (BLUE pop)</text></g><rect x="2393.5" y="19791.5" width="1677" height="1150" stroke="#D9D9D9" stroke-width="3.4375" stroke-linejoin="round" stroke-miterlimit="10" fill="none"/></g></svg>