<svg width="1680" height="1153" xmlns="http://www.w3.org/2000/svg" xmlns:xlink="http://www.w3.org/1999/xlink" overflow="hidden"><defs><clipPath id="clip0"><rect x="2392" y="19790" width="1680" height="1153"/></clipPath><clipPath id="clip1"><rect x="2392" y="19791" width="1678" height="1150"/></clipPath><clipPath id="clip2"><rect x="2392" y="19791" width="1678" height="1150"/></clipPath><clipPath id="clip3"><rect x="2392" y="19791" width="1678" height="1150"/></clipPath><clipPath id="clip4"><rect x="2392" y="19791" width="1678" height="1150"/></clipPath><clipPath id="clip5"><rect x="2392" y="19791" width="1678" height="1150"/></clipPath><clipPath id="clip6"><rect x="2392" y="19791" width="1678" height="1150"/></clipPath><clipPath id="clip7"><rect x="2392" y="19791" width="1678" height="1150"/></clipPath><clipPath id="clip8"><rect x="2392" y="19791" width="1678" height="1150"/></clipPath><clipPath id="clip9"><rect x="2392" y="19791" width="1678" height="1150"/></clipPath><clipPath id="clip10"><rect x="2662" y="19961" width="1326" height="776"/></clipPath><clipPath id="clip11"><rect x="2392" y="19791" width="1678" height="1150"/></clipPath><clipPath id="clip12"><rect x="2392" y="19791" width="1678" height="1150"/></clipPath><clipPath id="clip13"><rect x="2392" y="19791" width="1678" height="1150"/></clipPath><clipPath id="clip14"><rect x="2392" y="19791" width="1678" height="1150"/></clipPath><clipPath id="clip15"><rect x="2392" y="19791" width="1678" height="1150"/></clipPath><clipPath id="clip16"><rect x="2392" y="19791" width="1678" height="1150"/></clipPath><clipPath id="clip17"><rect x="2392" y="19791" width="1678" height="1150"/></clipPath><clipPath id="clip18"><rect x="2392" y="19791" width="1678" height="1150"/></clipPath><clipPath id="clip19"><rect x="2392" y="19791" width="1678" height="1150"/></clipPath><clipPath id="clip20"><rect x="2392" y="19791" width="1678" height="1150"/></clipPath><clipPath id="clip21"><rect x="2392" y="19791" width="1678" height="1150"/></clipPath><clipPath id="clip22"><rect x="2392" y="19791" width="1678" height="1150"/></clipPath><clipPath id="clip23"><rect x="2392" y="19791" width="1678" height="1150"/></clipPath><clipPath id="clip24"><rect x="2392" y="19791" width="1678" height="1150"/></clipPath><clipPath id="clip25"><rect x="2392" y="19791" width="1678" height="1150"/></clipPath><clipPath id="clip26"><rect x="2392" y="19791" width="1678" height="1150"/></clipPath><clipPath id="clip27"><rect x="2392" y="19791" width="1678" height="1150"/></clipPath><clipPath id="clip28"><rect x="2392" y="19791" width="1678" height="1150"/></clipPath><clipPath id="clip29"><rect x="2392" y="19791" width="1678" height="1150"/></clipPath></defs><g clip-path="url(#clip0)" transform="translate(-2392 -19790)"><rect x="2393" y="19791" width="1677" height="1150" fill="#FFFFFF"/><g clip-path="url(#clip1)"><path d="M2662.5 20712.2 3988.5 20712.2M2662.5 20686.2 3988.5 20686.2M2662.5 20660.2 3988.5 20660.2M2662.5 20634.2 3988.5 20634.2M2662.5 20582.2 3988.5 20582.2M2662.5 20556.2 3988.5 20556.2M2662.5 20531.2 3988.5 20531.2M2662.5 20505.2 3988.5 20505.2M2662.5 20453.2 3988.5 20453.2M2662.5 20427.2 3988.5 20427.2M2662.5 20401.2 3988.5 20401.2M2662.5 20375.2 3988.5 20375.2M2662.5 20324.2 3988.5 20324.2M2662.5 20298.2 3988.5 20298.2M2662.5 20272.2 3988.5 20272.2M2662.5 20246.2 3988.5 20246.2M2662.5 20194.2 3988.5 20194.2M2662.5 20168.2 3988.5 20168.2M2662.5 20142.2 3988.5 20142.2M2662.5 20117.2 3988.5 20117.2M2662.5 20065.2 3988.5 20065.2M2662.5 20039.2 3988.5 20039.2M2662.5 20013.2 3988.5 20013.2M2662.5 19987.2 3988.5 19987.2" stroke="#F2F2F2" stroke-width="3.4375" stroke-linejoin="round" stroke-miterlimit="10" fill="none"/></g><g clip-path="url(#clip2)"><path d="M2662.5 20608.2 3988.5 20608.2M2662.5 20479.2 3988.5 20479.2M2662.5 20349.2 3988.5 20349.2M2662.5 20220.2 3988.5 20220.2M2662.5 20091.2 3988.5 20091.2M2662.5 19961.5 3988.5 19961.5" stroke="#D9D9D9" stroke-width="3.4375" stroke-linejoin="round" stroke-miterlimit="10" fill="none"/></g><g clip-path="url(#clip3)"><path d="M2700.59 19961.5 2700.59 20737.5M2737.59 19961.5 2737.59 20737.5M2775.59 19961.5 2775.59 20737.5M2813.59 19961.5 2813.59 20737.5M2889.59 19961.5 2889.59 20737.5M2927.6 19961.5 2927.6 20737.5M2965.6 19961.5 2965.6 20737.5M3003.6 19961.5 3003.6 20737.5M3078.6 19961.5 3078.6 20737.5M3116.6 19961.5 3116.6 20737.5M3154.6 19961.5 3154.6 20737.5M3192.6 19961.5 3192.6 20737.5M3268.61 19961.5 3268.61 20737.5M3306.61 19961.5 3306.61 20737.5M3344.61 19961.5 3344.61 20737.5M3381.61 19961.5 3381.61 20737.5M3457.61 19961.5 3457.61 20737.5M3495.61 19961.5 3495.61 20737.5M3533.62 19961.5 3533.62 20737.5M3571.62 19961.5 3571.62 20737.5M3647.62 19961.5 3647.62 20737.5M3685.62 19961.5 3685.62 20737.5M3722.62 19961.5 3722.62 20737.5M3760.62 19961.5 3760.62 20737.5M3836.63 19961.5 3836.63 20737.5M3874.63 19961.5 3874.63 20737.5M3912.63 19961.5 3912.63 20737.5M3950.63 19961.5 3950.63 20737.5" stroke="#F2F2F2" stroke-width="3.4375" stroke-linejoin="round" stroke-miterlimit="10" fill="none"/></g><g clip-path="url(#clip4)"><path d="M2851.59 19961.5 2851.59 20737.5M3041.6 19961.5 3041.6 20737.5M3230.61 19961.5 3230.61 20737.5M3419.61 19961.5 3419.61 20737.5M3609.62 19961.5 3609.62 20737.5M3798.62 19961.5 3798.62 20737.5M3988.5 19961.5 3988.5 20737.5" stroke="#D9D9D9" stroke-width="3.4375" stroke-linejoin="round" stroke-miterlimit="10" fill="none"/></g><g clip-path="url(#clip5)"><path d="M0 0 0.000360892 776" stroke="#BFBFBF" stroke-width="3.4375" stroke-linejoin="round" stroke-miterlimit="10" fill="none" fill-rule="evenodd" transform="matrix(1 0 0 -1 2662.5 20737.5)"/></g><g clip-path="url(#clip6)"><path d="M2649.5 20737.5 2662.5 20737.5M2649.5 20608.2 2662.5 20608.2M2649.5 20479.2 2662.5 20479.2M2649.5 20349.2 2662.5 20349.2M2649.5 20220.2 2662.5 20220.2M2649.5 20091.2 2662.5 20091.2M2649.5 19961.5 2662.5 19961.5" stroke="#BFBFBF" stroke-width="3.4375" stroke-linejoin="round" stroke-miterlimit="10" fill="none"/></g><g clip-path="url(#clip7)"><path d="M2662.5 20737.5 3988.5 20737.5" stroke="#BFBFBF" stroke-width="3.4375" stroke-linejoin="round" stroke-miterlimit="10" fill="none" fill-rule="evenodd"/></g><g clip-path="url(#clip8)"><path d="M2662.5 20737.5 2662.5 20750.5M2851.59 20737.5 2851.59 20750.5M3041.6 20737.5 3041.6 20750.5M3230.61 20737.5 3230.61 20750.5M3419.61 20737.5 3419.61 20750.5M3609.62 20737.5 3609.62 20750.5M3798.62 20737.5 3798.62 20750.5M3988.5 20737.5 3988.5 20750.5" stroke="#BFBFBF" stroke-width="3.4375" stroke-linejoin="round" stroke-miterlimit="10" fill="none"/></g><g clip-path="url(#clip9)"><path d="M2674 20380.9C2674 20387 2669.07 20391.9 2663 20391.9 2656.92 20391.9 2652 20387 2652 20380.9 2652 20374.8 2656.92 20369.9 2663 20369.9 2669.07 20369.9 2674 20374.8 2674 20380.9Z" stroke="#4472C4" stroke-width="3.4375" stroke-linejoin="round" stroke-miterlimit="10" fill="#4472C4"/><path d="M2678 20637.9C2678 20644 2673.07 20648.9 2667 20648.9 2660.92 20648.9 2656 20644 2656 20637.9 2656 20631.8 2660.92 20626.9 2667 20626.9 2673.07 20626.9 2678 20631.8 2678 20637.9Z" stroke="#4472C4" stroke-width="3.4375" stroke-linejoin="round" stroke-miterlimit="10" fill="#4472C4"/><path d="M2681 20629.9C2681 20636 2676.07 20640.9 2670 20640.9 2663.92 20640.9 2659 20636 2659 20629.9 2659 20623.8 2663.92 20618.9 2670 20618.9 2676.07 20618.9 2681 20623.8 2681 20629.9Z" stroke="#4472C4" stroke-width="3.4375" stroke-linejoin="round" stroke-miterlimit="10" fill="#4472C4"/><path d="M2685 20386.9C2685 20393 2680.07 20397.9 2674 20397.9 2667.92 20397.9 2663 20393 2663 20386.9 2663 20380.8 2667.92 20375.9 2674 20375.9 2680.07 20375.9 2685 20380.8 2685 20386.9Z" stroke="#4472C4" stroke-width="3.4375" stroke-linejoin="round" stroke-miterlimit="10" fill="#4472C4"/><path d="M2689 20640.9C2689 20647 2684.07 20651.9 2678 20651.9 2671.92 20651.9 2667 20647 2667 20640.9 2667 20634.8 2671.92 20629.9 2678 20629.9 2684.07 20629.9 2689 20634.8 2689 20640.9Z" stroke="#4472C4" stroke-width="3.4375" stroke-linejoin="round" stroke-miterlimit="10" fill="#4472C4"/><path d="M2693 20639.9C2693 20646 2688.07 20650.9 2682 20650.9 2675.92 20650.9 2671 20646 2671 20639.9 2671 20633.8 2675.92 20628.9 2682 20628.9 2688.07 20628.9 2693 20633.8 2693 20639.9Z" stroke="#4472C4" stroke-width="3.4375" stroke-linejoin="round" stroke-miterlimit="10" fill="#4472C4"/><path d="M2696 20664.9C2696 20671 2691.07 20675.9 2685 20675.9 2678.92 20675.9 2674 20671 2674 20664.9 2674 20658.8 2678.92 20653.9 2685 20653.9 2691.07 20653.9 2696 20658.8 2696 20664.9Z" stroke="#4472C4" stroke-width="3.4375" stroke-linejoin="round" stroke-miterlimit="10" fill="#4472C4"/><path d="M2700 20651.9C2700 20658 2695.07 20662.9 2689 20662.9 2682.92 20662.9 2678 20658 2678 20651.9 2678 20645.8 2682.92 20640.9 2689 20640.9 2695.07 20640.9 2700 20645.8 2700 20651.9Z" stroke="#4472C4" stroke-width="3.4375" stroke-linejoin="round" stroke-miterlimit="10" fill="#4472C4"/><path d="M2704 20380.9C2704 20387 2699.07 20391.9 2693 20391.9 2686.92 20391.9 2682 20387 2682 20380.9 2682 20374.8 2686.92 20369.9 2693 20369.9 2699.07 20369.9 2704 20374.8 2704 20380.9Z" stroke="#4472C4" stroke-width="3.4375" stroke-linejoin="round" stroke-miterlimit="10" fill="#4472C4"/><path d="M2708 20425.9C2708 20432 2703.07 20436.9 2697 20436.9 2690.92 20436.9 2686 20432 2686 20425.9 2686 20419.8 2690.92 20414.9 2697 20414.9 2703.07 20414.9 2708 20419.8 2708 20425.9Z" stroke="#4472C4" stroke-width="3.4375" stroke-linejoin="round" stroke-miterlimit="10" fill="#4472C4"/><path d="M2712 20707.9C2712 20714 2707.07 20718.9 2701 20718.9 2694.92 20718.9 2690 20714 2690 20707.9 2690 20701.8 2694.92 20696.9 2701 20696.9 2707.07 20696.9 2712 20701.8 2712 20707.9Z" stroke="#4472C4" stroke-width="3.4375" stroke-linejoin="round" stroke-miterlimit="10" fill="#4472C4"/><path d="M2715 20664.9C2715 20671 2710.07 20675.9 2704 20675.9 2697.92 20675.9 2693 20671 2693 20664.9 2693 20658.8 2697.92 20653.9 2704 20653.9 2710.07 20653.9 2715 20658.8 2715 20664.9Z" stroke="#4472C4" stroke-width="3.4375" stroke-linejoin="round" stroke-miterlimit="10" fill="#4472C4"/><path d="M2719 20431.9C2719 20438 2714.07 20442.9 2708 20442.9 2701.92 20442.9 2697 20438 2697 20431.9 2697 20425.8 2701.92 20420.9 2708 20420.9 2714.07 20420.9 2719 20425.8 2719 20431.9Z" stroke="#4472C4" stroke-width="3.4375" stroke-linejoin="round" stroke-miterlimit="10" fill="#4472C4"/><path d="M2723 20692.9C2723 20699 2718.07 20703.9 2712 20703.9 2705.92 20703.9 2701 20699 2701 20692.9 2701 20686.8 2705.92 20681.9 2712 20681.9 2718.07 20681.9 2723 20686.8 2723 20692.9Z" stroke="#4472C4" stroke-width="3.4375" stroke-linejoin="round" stroke-miterlimit="10" fill="#4472C4"/><path d="M2727 20659.9C2727 20666 2722.07 20670.9 2716 20670.9 2709.92 20670.9 2705 20666 2705 20659.9 2705 20653.8 2709.92 20648.9 2716 20648.9 2722.07 20648.9 2727 20653.8 2727 20659.9Z" stroke="#4472C4" stroke-width="3.4375" stroke-linejoin="round" stroke-miterlimit="10" fill="#4472C4"/><path d="M2731 20429.9C2731 20436 2726.07 20440.9 2720 20440.9 2713.92 20440.9 2709 20436 2709 20429.9 2709 20423.8 2713.92 20418.9 2720 20418.9 2726.07 20418.9 2731 20423.8 2731 20429.9Z" stroke="#4472C4" stroke-width="3.4375" stroke-linejoin="round" stroke-miterlimit="10" fill="#4472C4"/><path d="M2734 20437.9C2734 20444 2729.07 20448.9 2723 20448.9 2716.92 20448.9 2712 20444 2712 20437.9 2712 20431.8 2716.92 20426.9 2723 20426.9 2729.07 20426.9 2734 20431.8 2734 20437.9Z" stroke="#4472C4" stroke-width="3.4375" stroke-linejoin="round" stroke-miterlimit="10" fill="#4472C4"/><path d="M2738 20389.9C2738 20396 2733.07 20400.9 2727 20400.9 2720.92 20400.9 2716 20396 2716 20389.9 2716 20383.8 2720.92 20378.9 2727 20378.9 2733.07 20378.9 2738 20383.8 2738 20389.9Z" stroke="#4472C4" stroke-width="3.4375" stroke-linejoin="round" stroke-miterlimit="10" fill="#4472C4"/><path d="M2742 20387.9C2742 20394 2737.07 20398.9 2731 20398.9 2724.92 20398.9 2720 20394 2720 20387.9 2720 20381.8 2724.92 20376.9 2731 20376.9 2737.07 20376.9 2742 20381.8 2742 20387.9Z" stroke="#4472C4" stroke-width="3.4375" stroke-linejoin="round" stroke-miterlimit="10" fill="#4472C4"/><path d="M2746 20699.9C2746 20706 2741.07 20710.9 2735 20710.9 2728.92 20710.9 2724 20706 2724 20699.9 2724 20693.8 2728.92 20688.9 2735 20688.9 2741.07 20688.9 2746 20693.8 2746 20699.9Z" stroke="#4472C4" stroke-width="3.4375" stroke-linejoin="round" stroke-miterlimit="10" fill="#4472C4"/><path d="M2750 20624.9C2750 20631 2745.07 20635.9 2739 20635.9 2732.92 20635.9 2728 20631 2728 20624.9 2728 20618.8 2732.92 20613.9 2739 20613.9 2745.07 20613.9 2750 20618.8 2750 20624.9Z" stroke="#4472C4" stroke-width="3.4375" stroke-linejoin="round" stroke-miterlimit="10" fill="#4472C4"/><path d="M2753 20646.9C2753 20653 2748.07 20657.9 2742 20657.9 2735.92 20657.9 2731 20653 2731 20646.9 2731 20640.8 2735.92 20635.9 2742 20635.9 2748.07 20635.9 2753 20640.8 2753 20646.9Z" stroke="#4472C4" stroke-width="3.4375" stroke-linejoin="round" stroke-miterlimit="10" fill="#4472C4"/><path d="M2757 20670.9C2757 20677 2752.07 20681.9 2746 20681.9 2739.92 20681.9 2735 20677 2735 20670.9 2735 20664.8 2739.92 20659.9 2746 20659.9 2752.07 20659.9 2757 20664.8 2757 20670.9Z" stroke="#4472C4" stroke-width="3.4375" stroke-linejoin="round" stroke-miterlimit="10" fill="#4472C4"/><path d="M2761 20668.9C2761 20675 2756.07 20679.9 2750 20679.9 2743.92 20679.9 2739 20675 2739 20668.9 2739 20662.8 2743.92 20657.9 2750 20657.9 2756.07 20657.9 2761 20662.8 2761 20668.9Z" stroke="#4472C4" stroke-width="3.4375" stroke-linejoin="round" stroke-miterlimit="10" fill="#4472C4"/><path d="M2765 20688.9C2765 20695 2760.07 20699.9 2754 20699.9 2747.92 20699.9 2743 20695 2743 20688.9 2743 20682.8 2747.92 20677.9 2754 20677.9 2760.07 20677.9 2765 20682.8 2765 20688.9Z" stroke="#4472C4" stroke-width="3.4375" stroke-linejoin="round" stroke-miterlimit="10" fill="#4472C4"/><path d="M2768 20696.9C2768 20703 2763.07 20707.9 2757 20707.9 2750.92 20707.9 2746 20703 2746 20696.9 2746 20690.8 2750.92 20685.9 2757 20685.9 2763.07 20685.9 2768 20690.8 2768 20696.9Z" stroke="#4472C4" stroke-width="3.4375" stroke-linejoin="round" stroke-miterlimit="10" fill="#4472C4"/><path d="M2772 20620.9C2772 20627 2767.07 20631.9 2761 20631.9 2754.92 20631.9 2750 20627 2750 20620.9 2750 20614.8 2754.92 20609.9 2761 20609.9 2767.07 20609.9 2772 20614.8 2772 20620.9Z" stroke="#4472C4" stroke-width="3.4375" stroke-linejoin="round" stroke-miterlimit="10" fill="#4472C4"/><path d="M2776 20694.9C2776 20701 2771.07 20705.9 2765 20705.9 2758.92 20705.9 2754 20701 2754 20694.9 2754 20688.8 2758.92 20683.9 2765 20683.9 2771.07 20683.9 2776 20688.8 2776 20694.9Z" stroke="#4472C4" stroke-width="3.4375" stroke-linejoin="round" stroke-miterlimit="10" fill="#4472C4"/><path d="M2780 20683.9C2780 20690 2775.07 20694.9 2769 20694.9 2762.92 20694.9 2758 20690 2758 20683.9 2758 20677.8 2762.92 20672.9 2769 20672.9 2775.07 20672.9 2780 20677.8 2780 20683.9Z" stroke="#4472C4" stroke-width="3.4375" stroke-linejoin="round" stroke-miterlimit="10" fill="#4472C4"/><path d="M2784 20688.9C2784 20695 2779.07 20699.9 2773 20699.9 2766.92 20699.9 2762 20695 2762 20688.9 2762 20682.8 2766.92 20677.9 2773 20677.9 2779.07 20677.9 2784 20682.8 2784 20688.9Z" stroke="#4472C4" stroke-width="3.4375" stroke-linejoin="round" stroke-miterlimit="10" fill="#4472C4"/><path d="M2787 20653.9C2787 20660 2782.07 20664.9 2776 20664.9 2769.92 20664.9 2765 20660 2765 20653.9 2765 20647.8 2769.92 20642.9 2776 20642.9 2782.07 20642.9 2787 20647.8 2787 20653.9Z" stroke="#4472C4" stroke-width="3.4375" stroke-linejoin="round" stroke-miterlimit="10" fill="#4472C4"/><path d="M2791 20438.9C2791 20445 2786.07 20449.9 2780 20449.9 2773.92 20449.9 2769 20445 2769 20438.9 2769 20432.8 2773.92 20427.9 2780 20427.9 2786.07 20427.9 2791 20432.8 2791 20438.9Z" stroke="#4472C4" stroke-width="3.4375" stroke-linejoin="round" stroke-miterlimit="10" fill="#4472C4"/><path d="M2795 20427.9C2795 20434 2790.07 20438.9 2784 20438.9 2777.92 20438.9 2773 20434 2773 20427.9 2773 20421.8 2777.92 20416.9 2784 20416.9 2790.07 20416.9 2795 20421.8 2795 20427.9Z" stroke="#4472C4" stroke-width="3.4375" stroke-linejoin="round" stroke-miterlimit="10" fill="#4472C4"/><path d="M2799 20656.9C2799 20663 2794.07 20667.9 2788 20667.9 2781.92 20667.9 2777 20663 2777 20656.9 2777 20650.8 2781.92 20645.9 2788 20645.9 2794.07 20645.9 2799 20650.8 2799 20656.9Z" stroke="#4472C4" stroke-width="3.4375" stroke-linejoin="round" stroke-miterlimit="10" fill="#4472C4"/><path d="M2803 20420.9C2803 20427 2798.07 20431.9 2792 20431.9 2785.92 20431.9 2781 20427 2781 20420.9 2781 20414.8 2785.92 20409.9 2792 20409.9 2798.07 20409.9 2803 20414.8 2803 20420.9Z" stroke="#4472C4" stroke-width="3.4375" stroke-linejoin="round" stroke-miterlimit="10" fill="#4472C4"/><path d="M2806 20381.9C2806 20388 2801.07 20392.9 2795 20392.9 2788.92 20392.9 2784 20388 2784 20381.9 2784 20375.8 2788.92 20370.9 2795 20370.9 2801.07 20370.9 2806 20375.8 2806 20381.9Z" stroke="#4472C4" stroke-width="3.4375" stroke-linejoin="round" stroke-miterlimit="10" fill="#4472C4"/><path d="M2810 20419.9C2810 20426 2805.07 20430.9 2799 20430.9 2792.92 20430.9 2788 20426 2788 20419.9 2788 20413.8 2792.92 20408.9 2799 20408.9 2805.07 20408.9 2810 20413.8 2810 20419.9Z" stroke="#4472C4" stroke-width="3.4375" stroke-linejoin="round" stroke-miterlimit="10" fill="#4472C4"/><path d="M2814 20426.9C2814 20433 2809.07 20437.9 2803 20437.9 2796.92 20437.9 2792 20433 2792 20426.9 2792 20420.8 2796.92 20415.9 2803 20415.9 2809.07 20415.9 2814 20420.8 2814 20426.9Z" stroke="#4472C4" stroke-width="3.4375" stroke-linejoin="round" stroke-miterlimit="10" fill="#4472C4"/><path d="M2818 20413.9C2818 20420 2813.07 20424.9 2807 20424.9 2800.92 20424.9 2796 20420 2796 20413.9 2796 20407.8 2800.92 20402.9 2807 20402.9 2813.07 20402.9 2818 20407.8 2818 20413.9Z" stroke="#4472C4" stroke-width="3.4375" stroke-linejoin="round" stroke-miterlimit="10" fill="#4472C4"/><path d="M2822 20425.9C2822 20432 2817.07 20436.9 2811 20436.9 2804.92 20436.9 2800 20432 2800 20425.9 2800 20419.8 2804.92 20414.9 2811 20414.9 2817.07 20414.9 2822 20419.8 2822 20425.9Z" stroke="#4472C4" stroke-width="3.4375" stroke-linejoin="round" stroke-miterlimit="10" fill="#4472C4"/><path d="M2825 20633.9C2825 20640 2820.07 20644.9 2814 20644.9 2807.92 20644.9 2803 20640 2803 20633.9 2803 20627.8 2807.92 20622.9 2814 20622.9 2820.07 20622.9 2825 20627.8 2825 20633.9Z" stroke="#4472C4" stroke-width="3.4375" stroke-linejoin="round" stroke-miterlimit="10" fill="#4472C4"/><path d="M2829 20376.9C2829 20383 2824.07 20387.9 2818 20387.9 2811.92 20387.9 2807 20383 2807 20376.9 2807 20370.8 2811.92 20365.9 2818 20365.9 2824.07 20365.9 2829 20370.8 2829 20376.9Z" stroke="#4472C4" stroke-width="3.4375" stroke-linejoin="round" stroke-miterlimit="10" fill="#4472C4"/><path d="M2833 20379.9C2833 20386 2828.07 20390.9 2822 20390.9 2815.92 20390.9 2811 20386 2811 20379.9 2811 20373.8 2815.92 20368.9 2822 20368.9 2828.07 20368.9 2833 20373.8 2833 20379.9Z" stroke="#4472C4" stroke-width="3.4375" stroke-linejoin="round" stroke-miterlimit="10" fill="#4472C4"/><path d="M2837 20393.9C2837 20400 2832.07 20404.9 2826 20404.9 2819.92 20404.9 2815 20400 2815 20393.9 2815 20387.8 2819.92 20382.9 2826 20382.9 2832.07 20382.9 2837 20387.8 2837 20393.9Z" stroke="#4472C4" stroke-width="3.4375" stroke-linejoin="round" stroke-miterlimit="10" fill="#4472C4"/><path d="M2840 20392.9C2840 20399 2835.07 20403.9 2829 20403.9 2822.92 20403.9 2818 20399 2818 20392.9 2818 20386.8 2822.92 20381.9 2829 20381.9 2835.07 20381.9 2840 20386.8 2840 20392.9Z" stroke="#4472C4" stroke-width="3.4375" stroke-linejoin="round" stroke-miterlimit="10" fill="#4472C4"/><path d="M2844 20392.9C2844 20399 2839.07 20403.9 2833 20403.9 2826.92 20403.9 2822 20399 2822 20392.9 2822 20386.8 2826.92 20381.9 2833 20381.9 2839.07 20381.9 2844 20386.8 2844 20392.9Z" stroke="#4472C4" stroke-width="3.4375" stroke-linejoin="round" stroke-miterlimit="10" fill="#4472C4"/><path d="M2848 20392.9C2848 20399 2843.07 20403.9 2837 20403.9 2830.92 20403.9 2826 20399 2826 20392.9 2826 20386.8 2830.92 20381.9 2837 20381.9 2843.07 20381.9 2848 20386.8 2848 20392.9Z" stroke="#4472C4" stroke-width="3.4375" stroke-linejoin="round" stroke-miterlimit="10" fill="#4472C4"/><path d="M2852 20617.9C2852 20624 2847.07 20628.9 2841 20628.9 2834.92 20628.9 2830 20624 2830 20617.9 2830 20611.8 2834.92 20606.9 2841 20606.9 2847.07 20606.9 2852 20611.8 2852 20617.9Z" stroke="#4472C4" stroke-width="3.4375" stroke-linejoin="round" stroke-miterlimit="10" fill="#4472C4"/><path d="M2856 20613.9C2856 20620 2851.07 20624.9 2845 20624.9 2838.92 20624.9 2834 20620 2834 20613.9 2834 20607.8 2838.92 20602.9 2845 20602.9 2851.07 20602.9 2856 20607.8 2856 20613.9Z" stroke="#4472C4" stroke-width="3.4375" stroke-linejoin="round" stroke-miterlimit="10" fill="#4472C4"/><path d="M2859 20362.9C2859 20369 2854.07 20373.9 2848 20373.9 2841.92 20373.9 2837 20369 2837 20362.9 2837 20356.8 2841.92 20351.9 2848 20351.9 2854.07 20351.9 2859 20356.8 2859 20362.9Z" stroke="#4472C4" stroke-width="3.4375" stroke-linejoin="round" stroke-miterlimit="10" fill="#4472C4"/><path d="M2863 20373.9C2863 20380 2858.07 20384.9 2852 20384.9 2845.92 20384.9 2841 20380 2841 20373.9 2841 20367.8 2845.92 20362.9 2852 20362.9 2858.07 20362.9 2863 20367.8 2863 20373.9Z" stroke="#4472C4" stroke-width="3.4375" stroke-linejoin="round" stroke-miterlimit="10" fill="#4472C4"/><path d="M2867 20627.9C2867 20634 2862.07 20638.9 2856 20638.9 2849.92 20638.9 2845 20634 2845 20627.9 2845 20621.8 2849.92 20616.9 2856 20616.9 2862.07 20616.9 2867 20621.8 2867 20627.9Z" stroke="#4472C4" stroke-width="3.4375" stroke-linejoin="round" stroke-miterlimit="10" fill="#4472C4"/><path d="M2871 20693.9C2871 20700 2866.07 20704.9 2860 20704.9 2853.92 20704.9 2849 20700 2849 20693.9 2849 20687.8 2853.92 20682.9 2860 20682.9 2866.07 20682.9 2871 20687.8 2871 20693.9Z" stroke="#4472C4" stroke-width="3.4375" stroke-linejoin="round" stroke-miterlimit="10" fill="#4472C4"/><path d="M2875 20420.9C2875 20427 2870.07 20431.9 2864 20431.9 2857.92 20431.9 2853 20427 2853 20420.9 2853 20414.8 2857.92 20409.9 2864 20409.9 2870.07 20409.9 2875 20414.8 2875 20420.9Z" stroke="#4472C4" stroke-width="3.4375" stroke-linejoin="round" stroke-miterlimit="10" fill="#4472C4"/><path d="M2878 20379.9C2878 20386 2873.07 20390.9 2867 20390.9 2860.92 20390.9 2856 20386 2856 20379.9 2856 20373.8 2860.92 20368.9 2867 20368.9 2873.07 20368.9 2878 20373.8 2878 20379.9Z" stroke="#4472C4" stroke-width="3.4375" stroke-linejoin="round" stroke-miterlimit="10" fill="#4472C4"/><path d="M2882 20426.9C2882 20433 2877.07 20437.9 2871 20437.9 2864.92 20437.9 2860 20433 2860 20426.9 2860 20420.8 2864.92 20415.9 2871 20415.9 2877.07 20415.9 2882 20420.8 2882 20426.9Z" stroke="#4472C4" stroke-width="3.4375" stroke-linejoin="round" stroke-miterlimit="10" fill="#4472C4"/><path d="M2886 20391.9C2886 20398 2881.07 20402.9 2875 20402.9 2868.92 20402.9 2864 20398 2864 20391.9 2864 20385.8 2868.92 20380.9 2875 20380.9 2881.07 20380.9 2886 20385.8 2886 20391.9Z" stroke="#4472C4" stroke-width="3.4375" stroke-linejoin="round" stroke-miterlimit="10" fill="#4472C4"/><path d="M2890 20696.9C2890 20703 2885.07 20707.9 2879 20707.9 2872.92 20707.9 2868 20703 2868 20696.9 2868 20690.8 2872.92 20685.9 2879 20685.9 2885.07 20685.9 2890 20690.8 2890 20696.9Z" stroke="#4472C4" stroke-width="3.4375" stroke-linejoin="round" stroke-miterlimit="10" fill="#4472C4"/><path d="M2893 20425.9C2893 20432 2888.07 20436.9 2882 20436.9 2875.92 20436.9 2871 20432 2871 20425.9 2871 20419.8 2875.92 20414.9 2882 20414.9 2888.07 20414.9 2893 20419.8 2893 20425.9Z" stroke="#4472C4" stroke-width="3.4375" stroke-linejoin="round" stroke-miterlimit="10" fill="#4472C4"/><path d="M2897 20632.9C2897 20639 2892.07 20643.9 2886 20643.9 2879.92 20643.9 2875 20639 2875 20632.9 2875 20626.8 2879.92 20621.9 2886 20621.9 2892.07 20621.9 2897 20626.8 2897 20632.9Z" stroke="#4472C4" stroke-width="3.4375" stroke-linejoin="round" stroke-miterlimit="10" fill="#4472C4"/><path d="M2901 20692.9C2901 20699 2896.07 20703.9 2890 20703.9 2883.92 20703.9 2879 20699 2879 20692.9 2879 20686.8 2883.92 20681.9 2890 20681.9 2896.07 20681.9 2901 20686.8 2901 20692.9Z" stroke="#4472C4" stroke-width="3.4375" stroke-linejoin="round" stroke-miterlimit="10" fill="#4472C4"/><path d="M2905 20393.9C2905 20400 2900.07 20404.9 2894 20404.9 2887.92 20404.9 2883 20400 2883 20393.9 2883 20387.8 2887.92 20382.9 2894 20382.9 2900.07 20382.9 2905 20387.8 2905 20393.9Z" stroke="#4472C4" stroke-width="3.4375" stroke-linejoin="round" stroke-miterlimit="10" fill="#4472C4"/><path d="M2909 20378.9C2909 20385 2904.07 20389.9 2898 20389.9 2891.92 20389.9 2887 20385 2887 20378.9 2887 20372.8 2891.92 20367.9 2898 20367.9 2904.07 20367.9 2909 20372.8 2909 20378.9Z" stroke="#4472C4" stroke-width="3.4375" stroke-linejoin="round" stroke-miterlimit="10" fill="#4472C4"/><path d="M2912 20683.9C2912 20690 2907.07 20694.9 2901 20694.9 2894.92 20694.9 2890 20690 2890 20683.9 2890 20677.8 2894.92 20672.9 2901 20672.9 2907.07 20672.9 2912 20677.8 2912 20683.9Z" stroke="#4472C4" stroke-width="3.4375" stroke-linejoin="round" stroke-miterlimit="10" fill="#4472C4"/><path d="M2916 20672.9C2916 20679 2911.07 20683.9 2905 20683.9 2898.92 20683.9 2894 20679 2894 20672.9 2894 20666.8 2898.92 20661.9 2905 20661.9 2911.07 20661.9 2916 20666.8 2916 20672.9Z" stroke="#4472C4" stroke-width="3.4375" stroke-linejoin="round" stroke-miterlimit="10" fill="#4472C4"/><path d="M2920 20434.9C2920 20441 2915.07 20445.9 2909 20445.9 2902.92 20445.9 2898 20441 2898 20434.9 2898 20428.8 2902.92 20423.9 2909 20423.9 2915.07 20423.9 2920 20428.8 2920 20434.9Z" stroke="#4472C4" stroke-width="3.4375" stroke-linejoin="round" stroke-miterlimit="10" fill="#4472C4"/><path d="M2924 20374.9C2924 20381 2919.07 20385.9 2913 20385.9 2906.92 20385.9 2902 20381 2902 20374.9 2902 20368.8 2906.92 20363.9 2913 20363.9 2919.07 20363.9 2924 20368.8 2924 20374.9Z" stroke="#4472C4" stroke-width="3.4375" stroke-linejoin="round" stroke-miterlimit="10" fill="#4472C4"/><path d="M2928 20390.9C2928 20397 2923.07 20401.9 2917 20401.9 2910.92 20401.9 2906 20397 2906 20390.9 2906 20384.8 2910.92 20379.9 2917 20379.9 2923.07 20379.9 2928 20384.8 2928 20390.9Z" stroke="#4472C4" stroke-width="3.4375" stroke-linejoin="round" stroke-miterlimit="10" fill="#4472C4"/><path d="M2931 20371.9C2931 20378 2926.07 20382.9 2920 20382.9 2913.92 20382.9 2909 20378 2909 20371.9 2909 20365.8 2913.92 20360.9 2920 20360.9 2926.07 20360.9 2931 20365.8 2931 20371.9Z" stroke="#4472C4" stroke-width="3.4375" stroke-linejoin="round" stroke-miterlimit="10" fill="#4472C4"/><path d="M2935 20390.9C2935 20397 2930.07 20401.9 2924 20401.9 2917.92 20401.9 2913 20397 2913 20390.9 2913 20384.8 2917.92 20379.9 2924 20379.9 2930.07 20379.9 2935 20384.8 2935 20390.9Z" stroke="#4472C4" stroke-width="3.4375" stroke-linejoin="round" stroke-miterlimit="10" fill="#4472C4"/><path d="M2939 20387.9C2939 20394 2934.07 20398.9 2928 20398.9 2921.92 20398.9 2917 20394 2917 20387.9 2917 20381.8 2921.92 20376.9 2928 20376.9 2934.07 20376.9 2939 20381.8 2939 20387.9Z" stroke="#4472C4" stroke-width="3.4375" stroke-linejoin="round" stroke-miterlimit="10" fill="#4472C4"/><path d="M2943 20387.9C2943 20394 2938.07 20398.9 2932 20398.9 2925.92 20398.9 2921 20394 2921 20387.9 2921 20381.8 2925.92 20376.9 2932 20376.9 2938.07 20376.9 2943 20381.8 2943 20387.9Z" stroke="#4472C4" stroke-width="3.4375" stroke-linejoin="round" stroke-miterlimit="10" fill="#4472C4"/><path d="M2947 20387.9C2947 20394 2942.07 20398.9 2936 20398.9 2929.92 20398.9 2925 20394 2925 20387.9 2925 20381.8 2929.92 20376.9 2936 20376.9 2942.07 20376.9 2947 20381.8 2947 20387.9Z" stroke="#4472C4" stroke-width="3.4375" stroke-linejoin="round" stroke-miterlimit="10" fill="#4472C4"/><path d="M2950 20385.9C2950 20392 2945.07 20396.9 2939 20396.9 2932.92 20396.9 2928 20392 2928 20385.9 2928 20379.8 2932.92 20374.9 2939 20374.9 2945.07 20374.9 2950 20379.8 2950 20385.9Z" stroke="#4472C4" stroke-width="3.4375" stroke-linejoin="round" stroke-miterlimit="10" fill="#4472C4"/><path d="M2954 20387.9C2954 20394 2949.07 20398.9 2943 20398.9 2936.92 20398.9 2932 20394 2932 20387.9 2932 20381.8 2936.92 20376.9 2943 20376.9 2949.07 20376.9 2954 20381.8 2954 20387.9Z" stroke="#4472C4" stroke-width="3.4375" stroke-linejoin="round" stroke-miterlimit="10" fill="#4472C4"/><path d="M2958 20654.9C2958 20661 2953.07 20665.9 2947 20665.9 2940.92 20665.9 2936 20661 2936 20654.9 2936 20648.8 2940.92 20643.9 2947 20643.9 2953.07 20643.9 2958 20648.8 2958 20654.9Z" stroke="#4472C4" stroke-width="3.4375" stroke-linejoin="round" stroke-miterlimit="10" fill="#4472C4"/><path d="M2962 20705.9C2962 20712 2957.07 20716.9 2951 20716.9 2944.92 20716.9 2940 20712 2940 20705.9 2940 20699.8 2944.92 20694.9 2951 20694.9 2957.07 20694.9 2962 20699.8 2962 20705.9Z" stroke="#4472C4" stroke-width="3.4375" stroke-linejoin="round" stroke-miterlimit="10" fill="#4472C4"/><path d="M2965 20434.9C2965 20441 2960.07 20445.9 2954 20445.9 2947.92 20445.9 2943 20441 2943 20434.9 2943 20428.8 2947.92 20423.9 2954 20423.9 2960.07 20423.9 2965 20428.8 2965 20434.9Z" stroke="#4472C4" stroke-width="3.4375" stroke-linejoin="round" stroke-miterlimit="10" fill="#4472C4"/><path d="M2969 20381.9C2969 20388 2964.07 20392.9 2958 20392.9 2951.92 20392.9 2947 20388 2947 20381.9 2947 20375.8 2951.92 20370.9 2958 20370.9 2964.07 20370.9 2969 20375.8 2969 20381.9Z" stroke="#4472C4" stroke-width="3.4375" stroke-linejoin="round" stroke-miterlimit="10" fill="#4472C4"/><path d="M2973 20377.9C2973 20384 2968.07 20388.9 2962 20388.9 2955.92 20388.9 2951 20384 2951 20377.9 2951 20371.8 2955.92 20366.9 2962 20366.9 2968.07 20366.9 2973 20371.8 2973 20377.9Z" stroke="#4472C4" stroke-width="3.4375" stroke-linejoin="round" stroke-miterlimit="10" fill="#4472C4"/><path d="M2977 20387.9C2977 20394 2972.07 20398.9 2966 20398.9 2959.92 20398.9 2955 20394 2955 20387.9 2955 20381.8 2959.92 20376.9 2966 20376.9 2972.07 20376.9 2977 20381.8 2977 20387.9Z" stroke="#4472C4" stroke-width="3.4375" stroke-linejoin="round" stroke-miterlimit="10" fill="#4472C4"/><path d="M2981 20654.9C2981 20661 2976.07 20665.9 2970 20665.9 2963.92 20665.9 2959 20661 2959 20654.9 2959 20648.8 2963.92 20643.9 2970 20643.9 2976.07 20643.9 2981 20648.8 2981 20654.9Z" stroke="#4472C4" stroke-width="3.4375" stroke-linejoin="round" stroke-miterlimit="10" fill="#4472C4"/><path d="M2984 20660.9C2984 20667 2979.07 20671.9 2973 20671.9 2966.92 20671.9 2962 20667 2962 20660.9 2962 20654.8 2966.92 20649.9 2973 20649.9 2979.07 20649.9 2984 20654.8 2984 20660.9Z" stroke="#4472C4" stroke-width="3.4375" stroke-linejoin="round" stroke-miterlimit="10" fill="#4472C4"/><path d="M2988 20385.9C2988 20392 2983.07 20396.9 2977 20396.9 2970.92 20396.9 2966 20392 2966 20385.9 2966 20379.8 2970.92 20374.9 2977 20374.9 2983.07 20374.9 2988 20379.8 2988 20385.9Z" stroke="#4472C4" stroke-width="3.4375" stroke-linejoin="round" stroke-miterlimit="10" fill="#4472C4"/><path d="M2992 20646.9C2992 20653 2987.07 20657.9 2981 20657.9 2974.92 20657.9 2970 20653 2970 20646.9 2970 20640.8 2974.92 20635.9 2981 20635.9 2987.07 20635.9 2992 20640.8 2992 20646.9Z" stroke="#4472C4" stroke-width="3.4375" stroke-linejoin="round" stroke-miterlimit="10" fill="#4472C4"/><path d="M2996 20632.9C2996 20639 2991.07 20643.9 2985 20643.9 2978.92 20643.9 2974 20639 2974 20632.9 2974 20626.8 2978.92 20621.9 2985 20621.9 2991.07 20621.9 2996 20626.8 2996 20632.9Z" stroke="#4472C4" stroke-width="3.4375" stroke-linejoin="round" stroke-miterlimit="10" fill="#4472C4"/><path d="M3000 20618.9C3000 20625 2995.07 20629.9 2989 20629.9 2982.92 20629.9 2978 20625 2978 20618.9 2978 20612.8 2982.92 20607.9 2989 20607.9 2995.07 20607.9 3000 20612.8 3000 20618.9Z" stroke="#4472C4" stroke-width="3.4375" stroke-linejoin="round" stroke-miterlimit="10" fill="#4472C4"/><path d="M3003 20374.9C3003 20381 2998.07 20385.9 2992 20385.9 2985.92 20385.9 2981 20381 2981 20374.9 2981 20368.8 2985.92 20363.9 2992 20363.9 2998.07 20363.9 3003 20368.8 3003 20374.9Z" stroke="#4472C4" stroke-width="3.4375" stroke-linejoin="round" stroke-miterlimit="10" fill="#4472C4"/><path d="M3007 20424.9C3007 20431 3002.07 20435.9 2996 20435.9 2989.92 20435.9 2985 20431 2985 20424.9 2985 20418.8 2989.92 20413.9 2996 20413.9 3002.07 20413.9 3007 20418.8 3007 20424.9Z" stroke="#4472C4" stroke-width="3.4375" stroke-linejoin="round" stroke-miterlimit="10" fill="#4472C4"/><path d="M3011 20388.9C3011 20395 3006.07 20399.9 3000 20399.9 2993.92 20399.9 2989 20395 2989 20388.9 2989 20382.8 2993.92 20377.9 3000 20377.9 3006.07 20377.9 3011 20382.8 3011 20388.9Z" stroke="#4472C4" stroke-width="3.4375" stroke-linejoin="round" stroke-miterlimit="10" fill="#4472C4"/><path d="M3015 20393.9C3015 20400 3010.07 20404.9 3004 20404.9 2997.92 20404.9 2993 20400 2993 20393.9 2993 20387.8 2997.92 20382.9 3004 20382.9 3010.07 20382.9 3015 20387.8 3015 20393.9Z" stroke="#4472C4" stroke-width="3.4375" stroke-linejoin="round" stroke-miterlimit="10" fill="#4472C4"/><path d="M3019 20423.9C3019 20430 3014.07 20434.9 3008 20434.9 3001.92 20434.9 2997 20430 2997 20423.9 2997 20417.8 3001.92 20412.9 3008 20412.9 3014.07 20412.9 3019 20417.8 3019 20423.9Z" stroke="#4472C4" stroke-width="3.4375" stroke-linejoin="round" stroke-miterlimit="10" fill="#4472C4"/><path d="M3022 20424.9C3022 20431 3017.07 20435.9 3011 20435.9 3004.92 20435.9 3000 20431 3000 20424.9 3000 20418.8 3004.92 20413.9 3011 20413.9 3017.07 20413.9 3022 20418.8 3022 20424.9Z" stroke="#4472C4" stroke-width="3.4375" stroke-linejoin="round" stroke-miterlimit="10" fill="#4472C4"/><path d="M3026 20466.9C3026 20473 3021.07 20477.9 3015 20477.9 3008.92 20477.9 3004 20473 3004 20466.9 3004 20460.8 3008.92 20455.9 3015 20455.9 3021.07 20455.9 3026 20460.8 3026 20466.9Z" stroke="#4472C4" stroke-width="3.4375" stroke-linejoin="round" stroke-miterlimit="10" fill="#4472C4"/><path d="M3030 20628.9C3030 20635 3025.07 20639.9 3019 20639.9 3012.92 20639.9 3008 20635 3008 20628.9 3008 20622.8 3012.92 20617.9 3019 20617.9 3025.07 20617.9 3030 20622.8 3030 20628.9Z" stroke="#4472C4" stroke-width="3.4375" stroke-linejoin="round" stroke-miterlimit="10" fill="#4472C4"/><path d="M3034 20462.9C3034 20469 3029.07 20473.9 3023 20473.9 3016.92 20473.9 3012 20469 3012 20462.9 3012 20456.8 3016.92 20451.9 3023 20451.9 3029.07 20451.9 3034 20456.8 3034 20462.9Z" stroke="#4472C4" stroke-width="3.4375" stroke-linejoin="round" stroke-miterlimit="10" fill="#4472C4"/><path d="M3037 20426.9C3037 20433 3032.07 20437.9 3026 20437.9 3019.92 20437.9 3015 20433 3015 20426.9 3015 20420.8 3019.92 20415.9 3026 20415.9 3032.07 20415.9 3037 20420.8 3037 20426.9Z" stroke="#4472C4" stroke-width="3.4375" stroke-linejoin="round" stroke-miterlimit="10" fill="#4472C4"/><path d="M3041 20688.9C3041 20695 3036.07 20699.9 3030 20699.9 3023.92 20699.9 3019 20695 3019 20688.9 3019 20682.8 3023.92 20677.9 3030 20677.9 3036.07 20677.9 3041 20682.8 3041 20688.9Z" stroke="#4472C4" stroke-width="3.4375" stroke-linejoin="round" stroke-miterlimit="10" fill="#4472C4"/><path d="M3045 20367.9C3045 20374 3040.07 20378.9 3034 20378.9 3027.92 20378.9 3023 20374 3023 20367.9 3023 20361.8 3027.92 20356.9 3034 20356.9 3040.07 20356.9 3045 20361.8 3045 20367.9Z" stroke="#4472C4" stroke-width="3.4375" stroke-linejoin="round" stroke-miterlimit="10" fill="#4472C4"/><path d="M3049 20643.9C3049 20650 3044.07 20654.9 3038 20654.9 3031.92 20654.9 3027 20650 3027 20643.9 3027 20637.8 3031.92 20632.9 3038 20632.9 3044.07 20632.9 3049 20637.8 3049 20643.9Z" stroke="#4472C4" stroke-width="3.4375" stroke-linejoin="round" stroke-miterlimit="10" fill="#4472C4"/><path d="M3053 20660.9C3053 20667 3048.07 20671.9 3042 20671.9 3035.92 20671.9 3031 20667 3031 20660.9 3031 20654.8 3035.92 20649.9 3042 20649.9 3048.07 20649.9 3053 20654.8 3053 20660.9Z" stroke="#4472C4" stroke-width="3.4375" stroke-linejoin="round" stroke-miterlimit="10" fill="#4472C4"/><path d="M3056 20368.9C3056 20375 3051.07 20379.9 3045 20379.9 3038.92 20379.9 3034 20375 3034 20368.9 3034 20362.8 3038.92 20357.9 3045 20357.9 3051.07 20357.9 3056 20362.8 3056 20368.9Z" stroke="#4472C4" stroke-width="3.4375" stroke-linejoin="round" stroke-miterlimit="10" fill="#4472C4"/><path d="M3060 20683.9C3060 20690 3055.07 20694.9 3049 20694.9 3042.92 20694.9 3038 20690 3038 20683.9 3038 20677.8 3042.92 20672.9 3049 20672.9 3055.07 20672.9 3060 20677.8 3060 20683.9Z" stroke="#4472C4" stroke-width="3.4375" stroke-linejoin="round" stroke-miterlimit="10" fill="#4472C4"/><path d="M3064 20390.9C3064 20397 3059.07 20401.9 3053 20401.9 3046.92 20401.9 3042 20397 3042 20390.9 3042 20384.8 3046.92 20379.9 3053 20379.9 3059.07 20379.9 3064 20384.8 3064 20390.9Z" stroke="#4472C4" stroke-width="3.4375" stroke-linejoin="round" stroke-miterlimit="10" fill="#4472C4"/><path d="M3068 20375.9C3068 20382 3063.07 20386.9 3057 20386.9 3050.92 20386.9 3046 20382 3046 20375.9 3046 20369.8 3050.92 20364.9 3057 20364.9 3063.07 20364.9 3068 20369.8 3068 20375.9Z" stroke="#4472C4" stroke-width="3.4375" stroke-linejoin="round" stroke-miterlimit="10" fill="#4472C4"/><path d="M3072 20375.9C3072 20382 3067.07 20386.9 3061 20386.9 3054.92 20386.9 3050 20382 3050 20375.9 3050 20369.8 3054.92 20364.9 3061 20364.9 3067.07 20364.9 3072 20369.8 3072 20375.9Z" stroke="#4472C4" stroke-width="3.4375" stroke-linejoin="round" stroke-miterlimit="10" fill="#4472C4"/><path d="M3075 20686.9C3075 20693 3070.07 20697.9 3064 20697.9 3057.92 20697.9 3053 20693 3053 20686.9 3053 20680.8 3057.92 20675.9 3064 20675.9 3070.07 20675.9 3075 20680.8 3075 20686.9Z" stroke="#4472C4" stroke-width="3.4375" stroke-linejoin="round" stroke-miterlimit="10" fill="#4472C4"/><path d="M3079 20680.9C3079 20687 3074.07 20691.9 3068 20691.9 3061.92 20691.9 3057 20687 3057 20680.9 3057 20674.8 3061.92 20669.9 3068 20669.9 3074.07 20669.9 3079 20674.8 3079 20680.9Z" stroke="#4472C4" stroke-width="3.4375" stroke-linejoin="round" stroke-miterlimit="10" fill="#4472C4"/><path d="M3083 20622.9C3083 20629 3078.07 20633.9 3072 20633.9 3065.92 20633.9 3061 20629 3061 20622.9 3061 20616.8 3065.92 20611.9 3072 20611.9 3078.07 20611.9 3083 20616.8 3083 20622.9Z" stroke="#4472C4" stroke-width="3.4375" stroke-linejoin="round" stroke-miterlimit="10" fill="#4472C4"/><path d="M3087 20381.9C3087 20388 3082.07 20392.9 3076 20392.9 3069.92 20392.9 3065 20388 3065 20381.9 3065 20375.8 3069.92 20370.9 3076 20370.9 3082.07 20370.9 3087 20375.8 3087 20381.9Z" stroke="#4472C4" stroke-width="3.4375" stroke-linejoin="round" stroke-miterlimit="10" fill="#4472C4"/><path d="M3090 20691.9C3090 20698 3085.07 20702.9 3079 20702.9 3072.92 20702.9 3068 20698 3068 20691.9 3068 20685.8 3072.92 20680.9 3079 20680.9 3085.07 20680.9 3090 20685.8 3090 20691.9Z" stroke="#4472C4" stroke-width="3.4375" stroke-linejoin="round" stroke-miterlimit="10" fill="#4472C4"/><path d="M3094 20428.9C3094 20435 3089.07 20439.9 3083 20439.9 3076.92 20439.9 3072 20435 3072 20428.9 3072 20422.8 3076.92 20417.9 3083 20417.9 3089.07 20417.9 3094 20422.8 3094 20428.9Z" stroke="#4472C4" stroke-width="3.4375" stroke-linejoin="round" stroke-miterlimit="10" fill="#4472C4"/><path d="M3098 20424.9C3098 20431 3093.07 20435.9 3087 20435.9 3080.92 20435.9 3076 20431 3076 20424.9 3076 20418.8 3080.92 20413.9 3087 20413.9 3093.07 20413.9 3098 20418.8 3098 20424.9Z" stroke="#4472C4" stroke-width="3.4375" stroke-linejoin="round" stroke-miterlimit="10" fill="#4472C4"/><path d="M3102 20639.9C3102 20646 3097.07 20650.9 3091 20650.9 3084.92 20650.9 3080 20646 3080 20639.9 3080 20633.8 3084.92 20628.9 3091 20628.9 3097.07 20628.9 3102 20633.8 3102 20639.9Z" stroke="#4472C4" stroke-width="3.4375" stroke-linejoin="round" stroke-miterlimit="10" fill="#4472C4"/><path d="M3106 20622.9C3106 20629 3101.07 20633.9 3095 20633.9 3088.92 20633.9 3084 20629 3084 20622.9 3084 20616.8 3088.92 20611.9 3095 20611.9 3101.07 20611.9 3106 20616.8 3106 20622.9Z" stroke="#4472C4" stroke-width="3.4375" stroke-linejoin="round" stroke-miterlimit="10" fill="#4472C4"/><path d="M3109 20697.9C3109 20704 3104.07 20708.9 3098 20708.9 3091.92 20708.9 3087 20704 3087 20697.9 3087 20691.8 3091.92 20686.9 3098 20686.9 3104.07 20686.9 3109 20691.8 3109 20697.9Z" stroke="#4472C4" stroke-width="3.4375" stroke-linejoin="round" stroke-miterlimit="10" fill="#4472C4"/><path d="M3113 20694.9C3113 20701 3108.07 20705.9 3102 20705.9 3095.92 20705.9 3091 20701 3091 20694.9 3091 20688.8 3095.92 20683.9 3102 20683.9 3108.07 20683.9 3113 20688.8 3113 20694.9Z" stroke="#4472C4" stroke-width="3.4375" stroke-linejoin="round" stroke-miterlimit="10" fill="#4472C4"/><path d="M3117 20428.9C3117 20435 3112.07 20439.9 3106 20439.9 3099.92 20439.9 3095 20435 3095 20428.9 3095 20422.8 3099.92 20417.9 3106 20417.9 3112.07 20417.9 3117 20422.8 3117 20428.9Z" stroke="#4472C4" stroke-width="3.4375" stroke-linejoin="round" stroke-miterlimit="10" fill="#4472C4"/><path d="M3121 20638.9C3121 20645 3116.07 20649.9 3110 20649.9 3103.92 20649.9 3099 20645 3099 20638.9 3099 20632.8 3103.92 20627.9 3110 20627.9 3116.07 20627.9 3121 20632.8 3121 20638.9Z" stroke="#4472C4" stroke-width="3.4375" stroke-linejoin="round" stroke-miterlimit="10" fill="#4472C4"/><path d="M3125 20681.9C3125 20688 3120.07 20692.9 3114 20692.9 3107.92 20692.9 3103 20688 3103 20681.9 3103 20675.8 3107.92 20670.9 3114 20670.9 3120.07 20670.9 3125 20675.8 3125 20681.9Z" stroke="#4472C4" stroke-width="3.4375" stroke-linejoin="round" stroke-miterlimit="10" fill="#4472C4"/><path d="M3128 20387.9C3128 20394 3123.07 20398.9 3117 20398.9 3110.92 20398.9 3106 20394 3106 20387.9 3106 20381.8 3110.92 20376.9 3117 20376.9 3123.07 20376.9 3128 20381.8 3128 20387.9Z" stroke="#4472C4" stroke-width="3.4375" stroke-linejoin="round" stroke-miterlimit="10" fill="#4472C4"/><path d="M3132 20649.9C3132 20656 3127.07 20660.9 3121 20660.9 3114.92 20660.9 3110 20656 3110 20649.9 3110 20643.8 3114.92 20638.9 3121 20638.9 3127.07 20638.9 3132 20643.8 3132 20649.9Z" stroke="#4472C4" stroke-width="3.4375" stroke-linejoin="round" stroke-miterlimit="10" fill="#4472C4"/><path d="M3136 20628.9C3136 20635 3131.07 20639.9 3125 20639.9 3118.92 20639.9 3114 20635 3114 20628.9 3114 20622.8 3118.92 20617.9 3125 20617.9 3131.07 20617.9 3136 20622.8 3136 20628.9Z" stroke="#4472C4" stroke-width="3.4375" stroke-linejoin="round" stroke-miterlimit="10" fill="#4472C4"/><path d="M3140 20639.9C3140 20646 3135.07 20650.9 3129 20650.9 3122.92 20650.9 3118 20646 3118 20639.9 3118 20633.8 3122.92 20628.9 3129 20628.9 3135.07 20628.9 3140 20633.8 3140 20639.9Z" stroke="#4472C4" stroke-width="3.4375" stroke-linejoin="round" stroke-miterlimit="10" fill="#4472C4"/><path d="M3144 20383.9C3144 20390 3139.07 20394.9 3133 20394.9 3126.92 20394.9 3122 20390 3122 20383.9 3122 20377.8 3126.92 20372.9 3133 20372.9 3139.07 20372.9 3144 20377.8 3144 20383.9Z" stroke="#4472C4" stroke-width="3.4375" stroke-linejoin="round" stroke-miterlimit="10" fill="#4472C4"/><path d="M3147 20392.9C3147 20399 3142.07 20403.9 3136 20403.9 3129.92 20403.9 3125 20399 3125 20392.9 3125 20386.8 3129.92 20381.9 3136 20381.9 3142.07 20381.9 3147 20386.8 3147 20392.9Z" stroke="#4472C4" stroke-width="3.4375" stroke-linejoin="round" stroke-miterlimit="10" fill="#4472C4"/><path d="M3151 20376.9C3151 20383 3146.07 20387.9 3140 20387.9 3133.92 20387.9 3129 20383 3129 20376.9 3129 20370.8 3133.92 20365.9 3140 20365.9 3146.07 20365.9 3151 20370.8 3151 20376.9Z" stroke="#4472C4" stroke-width="3.4375" stroke-linejoin="round" stroke-miterlimit="10" fill="#4472C4"/><path d="M3155 20389.9C3155 20396 3150.07 20400.9 3144 20400.9 3137.92 20400.9 3133 20396 3133 20389.9 3133 20383.8 3137.92 20378.9 3144 20378.9 3150.07 20378.9 3155 20383.8 3155 20389.9Z" stroke="#4472C4" stroke-width="3.4375" stroke-linejoin="round" stroke-miterlimit="10" fill="#4472C4"/><path d="M3159 20639.9C3159 20646 3154.07 20650.9 3148 20650.9 3141.92 20650.9 3137 20646 3137 20639.9 3137 20633.8 3141.92 20628.9 3148 20628.9 3154.07 20628.9 3159 20633.8 3159 20639.9Z" stroke="#4472C4" stroke-width="3.4375" stroke-linejoin="round" stroke-miterlimit="10" fill="#4472C4"/><path d="M3162 20631.9C3162 20638 3157.07 20642.9 3151 20642.9 3144.92 20642.9 3140 20638 3140 20631.9 3140 20625.8 3144.92 20620.9 3151 20620.9 3157.07 20620.9 3162 20625.8 3162 20631.9Z" stroke="#4472C4" stroke-width="3.4375" stroke-linejoin="round" stroke-miterlimit="10" fill="#4472C4"/><path d="M3166 20426.9C3166 20433 3161.07 20437.9 3155 20437.9 3148.92 20437.9 3144 20433 3144 20426.9 3144 20420.8 3148.92 20415.9 3155 20415.9 3161.07 20415.9 3166 20420.8 3166 20426.9Z" stroke="#4472C4" stroke-width="3.4375" stroke-linejoin="round" stroke-miterlimit="10" fill="#4472C4"/><path d="M3170 20715.9C3170 20722 3165.07 20726.9 3159 20726.9 3152.92 20726.9 3148 20722 3148 20715.9 3148 20709.8 3152.92 20704.9 3159 20704.9 3165.07 20704.9 3170 20709.8 3170 20715.9Z" stroke="#4472C4" stroke-width="3.4375" stroke-linejoin="round" stroke-miterlimit="10" fill="#4472C4"/><path d="M3174 20423.9C3174 20430 3169.07 20434.9 3163 20434.9 3156.92 20434.9 3152 20430 3152 20423.9 3152 20417.8 3156.92 20412.9 3163 20412.9 3169.07 20412.9 3174 20417.8 3174 20423.9Z" stroke="#4472C4" stroke-width="3.4375" stroke-linejoin="round" stroke-miterlimit="10" fill="#4472C4"/><path d="M3178 20709.9C3178 20716 3173.07 20720.9 3167 20720.9 3160.92 20720.9 3156 20716 3156 20709.9 3156 20703.8 3160.92 20698.9 3167 20698.9 3173.07 20698.9 3178 20703.8 3178 20709.9Z" stroke="#4472C4" stroke-width="3.4375" stroke-linejoin="round" stroke-miterlimit="10" fill="#4472C4"/><path d="M3181 20426.9C3181 20433 3176.07 20437.9 3170 20437.9 3163.92 20437.9 3159 20433 3159 20426.9 3159 20420.8 3163.92 20415.9 3170 20415.9 3176.07 20415.9 3181 20420.8 3181 20426.9Z" stroke="#4472C4" stroke-width="3.4375" stroke-linejoin="round" stroke-miterlimit="10" fill="#4472C4"/><path d="M3185 20643.9C3185 20650 3180.07 20654.9 3174 20654.9 3167.92 20654.9 3163 20650 3163 20643.9 3163 20637.8 3167.92 20632.9 3174 20632.9 3180.07 20632.9 3185 20637.8 3185 20643.9Z" stroke="#4472C4" stroke-width="3.4375" stroke-linejoin="round" stroke-miterlimit="10" fill="#4472C4"/><path d="M3189 20448.9C3189 20455 3184.07 20459.9 3178 20459.9 3171.92 20459.9 3167 20455 3167 20448.9 3167 20442.8 3171.92 20437.9 3178 20437.9 3184.07 20437.9 3189 20442.8 3189 20448.9Z" stroke="#4472C4" stroke-width="3.4375" stroke-linejoin="round" stroke-miterlimit="10" fill="#4472C4"/><path d="M3193 20708.9C3193 20715 3188.07 20719.9 3182 20719.9 3175.92 20719.9 3171 20715 3171 20708.9 3171 20702.8 3175.92 20697.9 3182 20697.9 3188.07 20697.9 3193 20702.8 3193 20708.9Z" stroke="#4472C4" stroke-width="3.4375" stroke-linejoin="round" stroke-miterlimit="10" fill="#4472C4"/><path d="M3197 20678.9C3197 20685 3192.07 20689.9 3186 20689.9 3179.92 20689.9 3175 20685 3175 20678.9 3175 20672.8 3179.92 20667.9 3186 20667.9 3192.07 20667.9 3197 20672.8 3197 20678.9Z" stroke="#4472C4" stroke-width="3.4375" stroke-linejoin="round" stroke-miterlimit="10" fill="#4472C4"/><path d="M3200 20657.9C3200 20664 3195.07 20668.9 3189 20668.9 3182.92 20668.9 3178 20664 3178 20657.9 3178 20651.8 3182.92 20646.9 3189 20646.9 3195.07 20646.9 3200 20651.8 3200 20657.9Z" stroke="#4472C4" stroke-width="3.4375" stroke-linejoin="round" stroke-miterlimit="10" fill="#4472C4"/><path d="M3204 20392.9C3204 20399 3199.07 20403.9 3193 20403.9 3186.92 20403.9 3182 20399 3182 20392.9 3182 20386.8 3186.92 20381.9 3193 20381.9 3199.07 20381.9 3204 20386.8 3204 20392.9Z" stroke="#4472C4" stroke-width="3.4375" stroke-linejoin="round" stroke-miterlimit="10" fill="#4472C4"/><path d="M3208 20370.9C3208 20377 3203.07 20381.9 3197 20381.9 3190.92 20381.9 3186 20377 3186 20370.9 3186 20364.8 3190.92 20359.9 3197 20359.9 3203.07 20359.9 3208 20364.8 3208 20370.9Z" stroke="#4472C4" stroke-width="3.4375" stroke-linejoin="round" stroke-miterlimit="10" fill="#4472C4"/><path d="M3212 20382.9C3212 20389 3207.07 20393.9 3201 20393.9 3194.92 20393.9 3190 20389 3190 20382.9 3190 20376.8 3194.92 20371.9 3201 20371.9 3207.07 20371.9 3212 20376.8 3212 20382.9Z" stroke="#4472C4" stroke-width="3.4375" stroke-linejoin="round" stroke-miterlimit="10" fill="#4472C4"/><path d="M3216 20647.9C3216 20654 3211.07 20658.9 3205 20658.9 3198.92 20658.9 3194 20654 3194 20647.9 3194 20641.8 3198.92 20636.9 3205 20636.9 3211.07 20636.9 3216 20641.8 3216 20647.9Z" stroke="#4472C4" stroke-width="3.4375" stroke-linejoin="round" stroke-miterlimit="10" fill="#4472C4"/><path d="M3219 20436.9C3219 20443 3214.07 20447.9 3208 20447.9 3201.92 20447.9 3197 20443 3197 20436.9 3197 20430.8 3201.92 20425.9 3208 20425.9 3214.07 20425.9 3219 20430.8 3219 20436.9Z" stroke="#4472C4" stroke-width="3.4375" stroke-linejoin="round" stroke-miterlimit="10" fill="#4472C4"/><path d="M3223 20430.9C3223 20437 3218.07 20441.9 3212 20441.9 3205.92 20441.9 3201 20437 3201 20430.9 3201 20424.8 3205.92 20419.9 3212 20419.9 3218.07 20419.9 3223 20424.8 3223 20430.9Z" stroke="#4472C4" stroke-width="3.4375" stroke-linejoin="round" stroke-miterlimit="10" fill="#4472C4"/><path d="M3227 20429.9C3227 20436 3222.07 20440.9 3216 20440.9 3209.92 20440.9 3205 20436 3205 20429.9 3205 20423.8 3209.92 20418.9 3216 20418.9 3222.07 20418.9 3227 20423.8 3227 20429.9Z" stroke="#4472C4" stroke-width="3.4375" stroke-linejoin="round" stroke-miterlimit="10" fill="#4472C4"/><path d="M3231 20378.9C3231 20385 3226.07 20389.9 3220 20389.9 3213.92 20389.9 3209 20385 3209 20378.9 3209 20372.8 3213.92 20367.9 3220 20367.9 3226.07 20367.9 3231 20372.8 3231 20378.9Z" stroke="#4472C4" stroke-width="3.4375" stroke-linejoin="round" stroke-miterlimit="10" fill="#4472C4"/><path d="M3234 20423.9C3234 20430 3229.07 20434.9 3223 20434.9 3216.92 20434.9 3212 20430 3212 20423.9 3212 20417.8 3216.92 20412.9 3223 20412.9 3229.07 20412.9 3234 20417.8 3234 20423.9Z" stroke="#4472C4" stroke-width="3.4375" stroke-linejoin="round" stroke-miterlimit="10" fill="#4472C4"/><path d="M3238 20703.9C3238 20710 3233.07 20714.9 3227 20714.9 3220.92 20714.9 3216 20710 3216 20703.9 3216 20697.8 3220.92 20692.9 3227 20692.9 3233.07 20692.9 3238 20697.8 3238 20703.9Z" stroke="#4472C4" stroke-width="3.4375" stroke-linejoin="round" stroke-miterlimit="10" fill="#4472C4"/><path d="M3242 20435.9C3242 20442 3237.07 20446.9 3231 20446.9 3224.92 20446.9 3220 20442 3220 20435.9 3220 20429.8 3224.92 20424.9 3231 20424.9 3237.07 20424.9 3242 20429.8 3242 20435.9Z" stroke="#4472C4" stroke-width="3.4375" stroke-linejoin="round" stroke-miterlimit="10" fill="#4472C4"/><path d="M3246 20371.9C3246 20378 3241.07 20382.9 3235 20382.9 3228.92 20382.9 3224 20378 3224 20371.9 3224 20365.8 3228.92 20360.9 3235 20360.9 3241.07 20360.9 3246 20365.8 3246 20371.9Z" stroke="#4472C4" stroke-width="3.4375" stroke-linejoin="round" stroke-miterlimit="10" fill="#4472C4"/><path d="M3250 20703.9C3250 20710 3245.07 20714.9 3239 20714.9 3232.92 20714.9 3228 20710 3228 20703.9 3228 20697.8 3232.92 20692.9 3239 20692.9 3245.07 20692.9 3250 20697.8 3250 20703.9Z" stroke="#4472C4" stroke-width="3.4375" stroke-linejoin="round" stroke-miterlimit="10" fill="#4472C4"/><path d="M3253 20423.9C3253 20430 3248.07 20434.9 3242 20434.9 3235.92 20434.9 3231 20430 3231 20423.9 3231 20417.8 3235.92 20412.9 3242 20412.9 3248.07 20412.9 3253 20417.8 3253 20423.9Z" stroke="#4472C4" stroke-width="3.4375" stroke-linejoin="round" stroke-miterlimit="10" fill="#4472C4"/><path d="M3257 20360.9C3257 20367 3252.07 20371.9 3246 20371.9 3239.92 20371.9 3235 20367 3235 20360.9 3235 20354.8 3239.92 20349.9 3246 20349.9 3252.07 20349.9 3257 20354.8 3257 20360.9Z" stroke="#4472C4" stroke-width="3.4375" stroke-linejoin="round" stroke-miterlimit="10" fill="#4472C4"/><path d="M3261 20387.9C3261 20394 3256.07 20398.9 3250 20398.9 3243.92 20398.9 3239 20394 3239 20387.9 3239 20381.8 3243.92 20376.9 3250 20376.9 3256.07 20376.9 3261 20381.8 3261 20387.9Z" stroke="#4472C4" stroke-width="3.4375" stroke-linejoin="round" stroke-miterlimit="10" fill="#4472C4"/><path d="M3265 20676.9C3265 20683 3260.07 20687.9 3254 20687.9 3247.92 20687.9 3243 20683 3243 20676.9 3243 20670.8 3247.92 20665.9 3254 20665.9 3260.07 20665.9 3265 20670.8 3265 20676.9Z" stroke="#4472C4" stroke-width="3.4375" stroke-linejoin="round" stroke-miterlimit="10" fill="#4472C4"/><path d="M3269 20637.9C3269 20644 3264.07 20648.9 3258 20648.9 3251.92 20648.9 3247 20644 3247 20637.9 3247 20631.8 3251.92 20626.9 3258 20626.9 3264.07 20626.9 3269 20631.8 3269 20637.9Z" stroke="#4472C4" stroke-width="3.4375" stroke-linejoin="round" stroke-miterlimit="10" fill="#4472C4"/><path d="M3272 20380.9C3272 20387 3267.07 20391.9 3261 20391.9 3254.92 20391.9 3250 20387 3250 20380.9 3250 20374.8 3254.92 20369.9 3261 20369.9 3267.07 20369.9 3272 20374.8 3272 20380.9Z" stroke="#4472C4" stroke-width="3.4375" stroke-linejoin="round" stroke-miterlimit="10" fill="#4472C4"/><path d="M3276 20374.9C3276 20381 3271.07 20385.9 3265 20385.9 3258.92 20385.9 3254 20381 3254 20374.9 3254 20368.8 3258.92 20363.9 3265 20363.9 3271.07 20363.9 3276 20368.8 3276 20374.9Z" stroke="#4472C4" stroke-width="3.4375" stroke-linejoin="round" stroke-miterlimit="10" fill="#4472C4"/><path d="M3280 20428.9C3280 20435 3275.07 20439.9 3269 20439.9 3262.92 20439.9 3258 20435 3258 20428.9 3258 20422.8 3262.92 20417.9 3269 20417.9 3275.07 20417.9 3280 20422.8 3280 20428.9Z" stroke="#4472C4" stroke-width="3.4375" stroke-linejoin="round" stroke-miterlimit="10" fill="#4472C4"/><path d="M3284 20702.9C3284 20709 3279.07 20713.9 3273 20713.9 3266.92 20713.9 3262 20709 3262 20702.9 3262 20696.8 3266.92 20691.9 3273 20691.9 3279.07 20691.9 3284 20696.8 3284 20702.9Z" stroke="#4472C4" stroke-width="3.4375" stroke-linejoin="round" stroke-miterlimit="10" fill="#4472C4"/><path d="M3287 20430.9C3287 20437 3282.07 20441.9 3276 20441.9 3269.92 20441.9 3265 20437 3265 20430.9 3265 20424.8 3269.92 20419.9 3276 20419.9 3282.07 20419.9 3287 20424.8 3287 20430.9Z" stroke="#4472C4" stroke-width="3.4375" stroke-linejoin="round" stroke-miterlimit="10" fill="#4472C4"/><path d="M3291 20692.9C3291 20699 3286.07 20703.9 3280 20703.9 3273.92 20703.9 3269 20699 3269 20692.9 3269 20686.8 3273.92 20681.9 3280 20681.9 3286.07 20681.9 3291 20686.8 3291 20692.9Z" stroke="#4472C4" stroke-width="3.4375" stroke-linejoin="round" stroke-miterlimit="10" fill="#4472C4"/><path d="M3295 20362.9C3295 20369 3290.07 20373.9 3284 20373.9 3277.92 20373.9 3273 20369 3273 20362.9 3273 20356.8 3277.92 20351.9 3284 20351.9 3290.07 20351.9 3295 20356.8 3295 20362.9Z" stroke="#4472C4" stroke-width="3.4375" stroke-linejoin="round" stroke-miterlimit="10" fill="#4472C4"/><path d="M3299 20648.9C3299 20655 3294.07 20659.9 3288 20659.9 3281.92 20659.9 3277 20655 3277 20648.9 3277 20642.8 3281.92 20637.9 3288 20637.9 3294.07 20637.9 3299 20642.8 3299 20648.9Z" stroke="#4472C4" stroke-width="3.4375" stroke-linejoin="round" stroke-miterlimit="10" fill="#4472C4"/><path d="M3303 20647.9C3303 20654 3298.07 20658.9 3292 20658.9 3285.92 20658.9 3281 20654 3281 20647.9 3281 20641.8 3285.92 20636.9 3292 20636.9 3298.07 20636.9 3303 20641.8 3303 20647.9Z" stroke="#4472C4" stroke-width="3.4375" stroke-linejoin="round" stroke-miterlimit="10" fill="#4472C4"/><path d="M3306 20707.9C3306 20714 3301.07 20718.9 3295 20718.9 3288.92 20718.9 3284 20714 3284 20707.9 3284 20701.8 3288.92 20696.9 3295 20696.9 3301.07 20696.9 3306 20701.8 3306 20707.9Z" stroke="#4472C4" stroke-width="3.4375" stroke-linejoin="round" stroke-miterlimit="10" fill="#4472C4"/><path d="M3310 20395.9C3310 20402 3305.07 20406.9 3299 20406.9 3292.92 20406.9 3288 20402 3288 20395.9 3288 20389.8 3292.92 20384.9 3299 20384.9 3305.07 20384.9 3310 20389.8 3310 20395.9Z" stroke="#4472C4" stroke-width="3.4375" stroke-linejoin="round" stroke-miterlimit="10" fill="#4472C4"/><path d="M3314 20427.9C3314 20434 3309.07 20438.9 3303 20438.9 3296.92 20438.9 3292 20434 3292 20427.9 3292 20421.8 3296.92 20416.9 3303 20416.9 3309.07 20416.9 3314 20421.8 3314 20427.9Z" stroke="#4472C4" stroke-width="3.4375" stroke-linejoin="round" stroke-miterlimit="10" fill="#4472C4"/><path d="M3318 20374.9C3318 20381 3313.07 20385.9 3307 20385.9 3300.92 20385.9 3296 20381 3296 20374.9 3296 20368.8 3300.92 20363.9 3307 20363.9 3313.07 20363.9 3318 20368.8 3318 20374.9Z" stroke="#4472C4" stroke-width="3.4375" stroke-linejoin="round" stroke-miterlimit="10" fill="#4472C4"/><path d="M3322 20429.9C3322 20436 3317.07 20440.9 3311 20440.9 3304.92 20440.9 3300 20436 3300 20429.9 3300 20423.8 3304.92 20418.9 3311 20418.9 3317.07 20418.9 3322 20423.8 3322 20429.9Z" stroke="#4472C4" stroke-width="3.4375" stroke-linejoin="round" stroke-miterlimit="10" fill="#4472C4"/><path d="M3325 20428.9C3325 20435 3320.07 20439.9 3314 20439.9 3307.92 20439.9 3303 20435 3303 20428.9 3303 20422.8 3307.92 20417.9 3314 20417.9 3320.07 20417.9 3325 20422.8 3325 20428.9Z" stroke="#4472C4" stroke-width="3.4375" stroke-linejoin="round" stroke-miterlimit="10" fill="#4472C4"/><path d="M3329 20391.9C3329 20398 3324.07 20402.9 3318 20402.9 3311.92 20402.9 3307 20398 3307 20391.9 3307 20385.8 3311.92 20380.9 3318 20380.9 3324.07 20380.9 3329 20385.8 3329 20391.9Z" stroke="#4472C4" stroke-width="3.4375" stroke-linejoin="round" stroke-miterlimit="10" fill="#4472C4"/><path d="M3333 20378.9C3333 20385 3328.07 20389.9 3322 20389.9 3315.92 20389.9 3311 20385 3311 20378.9 3311 20372.8 3315.92 20367.9 3322 20367.9 3328.07 20367.9 3333 20372.8 3333 20378.9Z" stroke="#4472C4" stroke-width="3.4375" stroke-linejoin="round" stroke-miterlimit="10" fill="#4472C4"/><path d="M3337 20650.9C3337 20657 3332.07 20661.9 3326 20661.9 3319.92 20661.9 3315 20657 3315 20650.9 3315 20644.8 3319.92 20639.9 3326 20639.9 3332.07 20639.9 3337 20644.8 3337 20650.9Z" stroke="#4472C4" stroke-width="3.4375" stroke-linejoin="round" stroke-miterlimit="10" fill="#4472C4"/><path d="M3341 20705.9C3341 20712 3336.07 20716.9 3330 20716.9 3323.92 20716.9 3319 20712 3319 20705.9 3319 20699.8 3323.92 20694.9 3330 20694.9 3336.07 20694.9 3341 20699.8 3341 20705.9Z" stroke="#4472C4" stroke-width="3.4375" stroke-linejoin="round" stroke-miterlimit="10" fill="#4472C4"/><path d="M3344 20429.9C3344 20436 3339.07 20440.9 3333 20440.9 3326.92 20440.9 3322 20436 3322 20429.9 3322 20423.8 3326.92 20418.9 3333 20418.9 3339.07 20418.9 3344 20423.8 3344 20429.9Z" stroke="#4472C4" stroke-width="3.4375" stroke-linejoin="round" stroke-miterlimit="10" fill="#4472C4"/><path d="M3348 20693.9C3348 20700 3343.07 20704.9 3337 20704.9 3330.92 20704.9 3326 20700 3326 20693.9 3326 20687.8 3330.92 20682.9 3337 20682.9 3343.07 20682.9 3348 20687.8 3348 20693.9Z" stroke="#4472C4" stroke-width="3.4375" stroke-linejoin="round" stroke-miterlimit="10" fill="#4472C4"/><path d="M3352 20671.9C3352 20678 3347.07 20682.9 3341 20682.9 3334.92 20682.9 3330 20678 3330 20671.9 3330 20665.8 3334.92 20660.9 3341 20660.9 3347.07 20660.9 3352 20665.8 3352 20671.9Z" stroke="#4472C4" stroke-width="3.4375" stroke-linejoin="round" stroke-miterlimit="10" fill="#4472C4"/><path d="M3356 20427.9C3356 20434 3351.07 20438.9 3345 20438.9 3338.92 20438.9 3334 20434 3334 20427.9 3334 20421.8 3338.92 20416.9 3345 20416.9 3351.07 20416.9 3356 20421.8 3356 20427.9Z" stroke="#4472C4" stroke-width="3.4375" stroke-linejoin="round" stroke-miterlimit="10" fill="#4472C4"/><path d="M3359 20651.9C3359 20658 3354.07 20662.9 3348 20662.9 3341.92 20662.9 3337 20658 3337 20651.9 3337 20645.8 3341.92 20640.9 3348 20640.9 3354.07 20640.9 3359 20645.8 3359 20651.9Z" stroke="#4472C4" stroke-width="3.4375" stroke-linejoin="round" stroke-miterlimit="10" fill="#4472C4"/><path d="M3363 20712.9C3363 20719 3358.07 20723.9 3352 20723.9 3345.92 20723.9 3341 20719 3341 20712.9 3341 20706.8 3345.92 20701.9 3352 20701.9 3358.07 20701.9 3363 20706.8 3363 20712.9Z" stroke="#4472C4" stroke-width="3.4375" stroke-linejoin="round" stroke-miterlimit="10" fill="#4472C4"/><path d="M3367 20632.9C3367 20639 3362.07 20643.9 3356 20643.9 3349.92 20643.9 3345 20639 3345 20632.9 3345 20626.8 3349.92 20621.9 3356 20621.9 3362.07 20621.9 3367 20626.8 3367 20632.9Z" stroke="#4472C4" stroke-width="3.4375" stroke-linejoin="round" stroke-miterlimit="10" fill="#4472C4"/><path d="M3371 20379.9C3371 20386 3366.07 20390.9 3360 20390.9 3353.92 20390.9 3349 20386 3349 20379.9 3349 20373.8 3353.92 20368.9 3360 20368.9 3366.07 20368.9 3371 20373.8 3371 20379.9Z" stroke="#4472C4" stroke-width="3.4375" stroke-linejoin="round" stroke-miterlimit="10" fill="#4472C4"/><path d="M3375 20656.9C3375 20663 3370.07 20667.9 3364 20667.9 3357.92 20667.9 3353 20663 3353 20656.9 3353 20650.8 3357.92 20645.9 3364 20645.9 3370.07 20645.9 3375 20650.8 3375 20656.9Z" stroke="#4472C4" stroke-width="3.4375" stroke-linejoin="round" stroke-miterlimit="10" fill="#4472C4"/><path d="M3378 20709.9C3378 20716 3373.07 20720.9 3367 20720.9 3360.92 20720.9 3356 20716 3356 20709.9 3356 20703.8 3360.92 20698.9 3367 20698.9 3373.07 20698.9 3378 20703.8 3378 20709.9Z" stroke="#4472C4" stroke-width="3.4375" stroke-linejoin="round" stroke-miterlimit="10" fill="#4472C4"/><path d="M3382 20709.9C3382 20716 3377.07 20720.9 3371 20720.9 3364.92 20720.9 3360 20716 3360 20709.9 3360 20703.8 3364.92 20698.9 3371 20698.9 3377.07 20698.9 3382 20703.8 3382 20709.9Z" stroke="#4472C4" stroke-width="3.4375" stroke-linejoin="round" stroke-miterlimit="10" fill="#4472C4"/><path d="M3386 20618.9C3386 20625 3381.07 20629.9 3375 20629.9 3368.92 20629.9 3364 20625 3364 20618.9 3364 20612.8 3368.92 20607.9 3375 20607.9 3381.07 20607.9 3386 20612.8 3386 20618.9Z" stroke="#4472C4" stroke-width="3.4375" stroke-linejoin="round" stroke-miterlimit="10" fill="#4472C4"/><path d="M3390 20703.9C3390 20710 3385.07 20714.9 3379 20714.9 3372.92 20714.9 3368 20710 3368 20703.9 3368 20697.8 3372.92 20692.9 3379 20692.9 3385.07 20692.9 3390 20697.8 3390 20703.9Z" stroke="#4472C4" stroke-width="3.4375" stroke-linejoin="round" stroke-miterlimit="10" fill="#4472C4"/><path d="M3394 20619.9C3394 20626 3389.07 20630.9 3383 20630.9 3376.92 20630.9 3372 20626 3372 20619.9 3372 20613.8 3376.92 20608.9 3383 20608.9 3389.07 20608.9 3394 20613.8 3394 20619.9Z" stroke="#4472C4" stroke-width="3.4375" stroke-linejoin="round" stroke-miterlimit="10" fill="#4472C4"/><path d="M3397 20434.9C3397 20441 3392.07 20445.9 3386 20445.9 3379.92 20445.9 3375 20441 3375 20434.9 3375 20428.8 3379.92 20423.9 3386 20423.9 3392.07 20423.9 3397 20428.8 3397 20434.9Z" stroke="#4472C4" stroke-width="3.4375" stroke-linejoin="round" stroke-miterlimit="10" fill="#4472C4"/><path d="M3401 20602.9C3401 20609 3396.07 20613.9 3390 20613.9 3383.92 20613.9 3379 20609 3379 20602.9 3379 20596.8 3383.92 20591.9 3390 20591.9 3396.07 20591.9 3401 20596.8 3401 20602.9Z" stroke="#4472C4" stroke-width="3.4375" stroke-linejoin="round" stroke-miterlimit="10" fill="#4472C4"/><path d="M3405 20433.9C3405 20440 3400.07 20444.9 3394 20444.9 3387.92 20444.9 3383 20440 3383 20433.9 3383 20427.8 3387.92 20422.9 3394 20422.9 3400.07 20422.9 3405 20427.8 3405 20433.9Z" stroke="#4472C4" stroke-width="3.4375" stroke-linejoin="round" stroke-miterlimit="10" fill="#4472C4"/><path d="M3409 20708.9C3409 20715 3404.07 20719.9 3398 20719.9 3391.92 20719.9 3387 20715 3387 20708.9 3387 20702.8 3391.92 20697.9 3398 20697.9 3404.07 20697.9 3409 20702.8 3409 20708.9Z" stroke="#4472C4" stroke-width="3.4375" stroke-linejoin="round" stroke-miterlimit="10" fill="#4472C4"/><path d="M3413 20716.9C3413 20723 3408.07 20727.9 3402 20727.9 3395.92 20727.9 3391 20723 3391 20716.9 3391 20710.8 3395.92 20705.9 3402 20705.9 3408.07 20705.9 3413 20710.8 3413 20716.9Z" stroke="#4472C4" stroke-width="3.4375" stroke-linejoin="round" stroke-miterlimit="10" fill="#4472C4"/><path d="M3416 20702.9C3416 20709 3411.07 20713.9 3405 20713.9 3398.92 20713.9 3394 20709 3394 20702.9 3394 20696.8 3398.92 20691.9 3405 20691.9 3411.07 20691.9 3416 20696.8 3416 20702.9Z" stroke="#4472C4" stroke-width="3.4375" stroke-linejoin="round" stroke-miterlimit="10" fill="#4472C4"/><path d="M3420 20365.9C3420 20372 3415.07 20376.9 3409 20376.9 3402.92 20376.9 3398 20372 3398 20365.9 3398 20359.8 3402.92 20354.9 3409 20354.9 3415.07 20354.9 3420 20359.8 3420 20365.9Z" stroke="#4472C4" stroke-width="3.4375" stroke-linejoin="round" stroke-miterlimit="10" fill="#4472C4"/><path d="M3424 20634.9C3424 20641 3419.07 20645.9 3413 20645.9 3406.92 20645.9 3402 20641 3402 20634.9 3402 20628.8 3406.92 20623.9 3413 20623.9 3419.07 20623.9 3424 20628.8 3424 20634.9Z" stroke="#4472C4" stroke-width="3.4375" stroke-linejoin="round" stroke-miterlimit="10" fill="#4472C4"/><path d="M3428 20394.9C3428 20401 3423.07 20405.9 3417 20405.9 3410.92 20405.9 3406 20401 3406 20394.9 3406 20388.8 3410.92 20383.9 3417 20383.9 3423.07 20383.9 3428 20388.8 3428 20394.9Z" stroke="#4472C4" stroke-width="3.4375" stroke-linejoin="round" stroke-miterlimit="10" fill="#4472C4"/><path d="M3431 20376.9C3431 20383 3426.07 20387.9 3420 20387.9 3413.92 20387.9 3409 20383 3409 20376.9 3409 20370.8 3413.92 20365.9 3420 20365.9 3426.07 20365.9 3431 20370.8 3431 20376.9Z" stroke="#4472C4" stroke-width="3.4375" stroke-linejoin="round" stroke-miterlimit="10" fill="#4472C4"/><path d="M3435 20649.9C3435 20656 3430.07 20660.9 3424 20660.9 3417.92 20660.9 3413 20656 3413 20649.9 3413 20643.8 3417.92 20638.9 3424 20638.9 3430.07 20638.9 3435 20643.8 3435 20649.9Z" stroke="#4472C4" stroke-width="3.4375" stroke-linejoin="round" stroke-miterlimit="10" fill="#4472C4"/><path d="M3439 20631.9C3439 20638 3434.07 20642.9 3428 20642.9 3421.92 20642.9 3417 20638 3417 20631.9 3417 20625.8 3421.92 20620.9 3428 20620.9 3434.07 20620.9 3439 20625.8 3439 20631.9Z" stroke="#4472C4" stroke-width="3.4375" stroke-linejoin="round" stroke-miterlimit="10" fill="#4472C4"/><path d="M3443 20616.9C3443 20623 3438.07 20627.9 3432 20627.9 3425.92 20627.9 3421 20623 3421 20616.9 3421 20610.8 3425.92 20605.9 3432 20605.9 3438.07 20605.9 3443 20610.8 3443 20616.9Z" stroke="#4472C4" stroke-width="3.4375" stroke-linejoin="round" stroke-miterlimit="10" fill="#4472C4"/><path d="M3447 20381.9C3447 20388 3442.07 20392.9 3436 20392.9 3429.92 20392.9 3425 20388 3425 20381.9 3425 20375.8 3429.92 20370.9 3436 20370.9 3442.07 20370.9 3447 20375.8 3447 20381.9Z" stroke="#4472C4" stroke-width="3.4375" stroke-linejoin="round" stroke-miterlimit="10" fill="#4472C4"/><path d="M3450 20376.9C3450 20383 3445.07 20387.9 3439 20387.9 3432.92 20387.9 3428 20383 3428 20376.9 3428 20370.8 3432.92 20365.9 3439 20365.9 3445.07 20365.9 3450 20370.8 3450 20376.9Z" stroke="#4472C4" stroke-width="3.4375" stroke-linejoin="round" stroke-miterlimit="10" fill="#4472C4"/><path d="M3454 20625.9C3454 20632 3449.07 20636.9 3443 20636.9 3436.92 20636.9 3432 20632 3432 20625.9 3432 20619.8 3436.92 20614.9 3443 20614.9 3449.07 20614.9 3454 20619.8 3454 20625.9Z" stroke="#4472C4" stroke-width="3.4375" stroke-linejoin="round" stroke-miterlimit="10" fill="#4472C4"/><path d="M3458 20430.9C3458 20437 3453.07 20441.9 3447 20441.9 3440.92 20441.9 3436 20437 3436 20430.9 3436 20424.8 3440.92 20419.9 3447 20419.9 3453.07 20419.9 3458 20424.8 3458 20430.9Z" stroke="#4472C4" stroke-width="3.4375" stroke-linejoin="round" stroke-miterlimit="10" fill="#4472C4"/><path d="M3462 20630.9C3462 20637 3457.07 20641.9 3451 20641.9 3444.92 20641.9 3440 20637 3440 20630.9 3440 20624.8 3444.92 20619.9 3451 20619.9 3457.07 20619.9 3462 20624.8 3462 20630.9Z" stroke="#4472C4" stroke-width="3.4375" stroke-linejoin="round" stroke-miterlimit="10" fill="#4472C4"/><path d="M3466 20439.9C3466 20446 3461.07 20450.9 3455 20450.9 3448.92 20450.9 3444 20446 3444 20439.9 3444 20433.8 3448.92 20428.9 3455 20428.9 3461.07 20428.9 3466 20433.8 3466 20439.9Z" stroke="#4472C4" stroke-width="3.4375" stroke-linejoin="round" stroke-miterlimit="10" fill="#4472C4"/><path d="M3469 20638.9C3469 20645 3464.07 20649.9 3458 20649.9 3451.92 20649.9 3447 20645 3447 20638.9 3447 20632.8 3451.92 20627.9 3458 20627.9 3464.07 20627.9 3469 20632.8 3469 20638.9Z" stroke="#4472C4" stroke-width="3.4375" stroke-linejoin="round" stroke-miterlimit="10" fill="#4472C4"/><path d="M3473 20426.9C3473 20433 3468.07 20437.9 3462 20437.9 3455.92 20437.9 3451 20433 3451 20426.9 3451 20420.8 3455.92 20415.9 3462 20415.9 3468.07 20415.9 3473 20420.8 3473 20426.9Z" stroke="#4472C4" stroke-width="3.4375" stroke-linejoin="round" stroke-miterlimit="10" fill="#4472C4"/><path d="M3477 20375.9C3477 20382 3472.07 20386.9 3466 20386.9 3459.92 20386.9 3455 20382 3455 20375.9 3455 20369.8 3459.92 20364.9 3466 20364.9 3472.07 20364.9 3477 20369.8 3477 20375.9Z" stroke="#4472C4" stroke-width="3.4375" stroke-linejoin="round" stroke-miterlimit="10" fill="#4472C4"/><path d="M3481 20373.9C3481 20380 3476.07 20384.9 3470 20384.9 3463.92 20384.9 3459 20380 3459 20373.9 3459 20367.8 3463.92 20362.9 3470 20362.9 3476.07 20362.9 3481 20367.8 3481 20373.9Z" stroke="#4472C4" stroke-width="3.4375" stroke-linejoin="round" stroke-miterlimit="10" fill="#4472C4"/><path d="M3484 20377.9C3484 20384 3479.07 20388.9 3473 20388.9 3466.92 20388.9 3462 20384 3462 20377.9 3462 20371.8 3466.92 20366.9 3473 20366.9 3479.07 20366.9 3484 20371.8 3484 20377.9Z" stroke="#4472C4" stroke-width="3.4375" stroke-linejoin="round" stroke-miterlimit="10" fill="#4472C4"/><path d="M3488 20673.9C3488 20680 3483.07 20684.9 3477 20684.9 3470.92 20684.9 3466 20680 3466 20673.9 3466 20667.8 3470.92 20662.9 3477 20662.9 3483.07 20662.9 3488 20667.8 3488 20673.9Z" stroke="#4472C4" stroke-width="3.4375" stroke-linejoin="round" stroke-miterlimit="10" fill="#4472C4"/><path d="M3492 20703.9C3492 20710 3487.07 20714.9 3481 20714.9 3474.92 20714.9 3470 20710 3470 20703.9 3470 20697.8 3474.92 20692.9 3481 20692.9 3487.07 20692.9 3492 20697.8 3492 20703.9Z" stroke="#4472C4" stroke-width="3.4375" stroke-linejoin="round" stroke-miterlimit="10" fill="#4472C4"/><path d="M3496 20381.9C3496 20388 3491.07 20392.9 3485 20392.9 3478.92 20392.9 3474 20388 3474 20381.9 3474 20375.8 3478.92 20370.9 3485 20370.9 3491.07 20370.9 3496 20375.8 3496 20381.9Z" stroke="#4472C4" stroke-width="3.4375" stroke-linejoin="round" stroke-miterlimit="10" fill="#4472C4"/><path d="M3500 20445.9C3500 20452 3495.07 20456.9 3489 20456.9 3482.92 20456.9 3478 20452 3478 20445.9 3478 20439.8 3482.92 20434.9 3489 20434.9 3495.07 20434.9 3500 20439.8 3500 20445.9Z" stroke="#4472C4" stroke-width="3.4375" stroke-linejoin="round" stroke-miterlimit="10" fill="#4472C4"/><path d="M3503 20429.9C3503 20436 3498.07 20440.9 3492 20440.9 3485.92 20440.9 3481 20436 3481 20429.9 3481 20423.8 3485.92 20418.9 3492 20418.9 3498.07 20418.9 3503 20423.8 3503 20429.9Z" stroke="#4472C4" stroke-width="3.4375" stroke-linejoin="round" stroke-miterlimit="10" fill="#4472C4"/><path d="M3507 20627.9C3507 20634 3502.07 20638.9 3496 20638.9 3489.92 20638.9 3485 20634 3485 20627.9 3485 20621.8 3489.92 20616.9 3496 20616.9 3502.07 20616.9 3507 20621.8 3507 20627.9Z" stroke="#4472C4" stroke-width="3.4375" stroke-linejoin="round" stroke-miterlimit="10" fill="#4472C4"/><path d="M3511 20371.9C3511 20378 3506.07 20382.9 3500 20382.9 3493.92 20382.9 3489 20378 3489 20371.9 3489 20365.8 3493.92 20360.9 3500 20360.9 3506.07 20360.9 3511 20365.8 3511 20371.9Z" stroke="#4472C4" stroke-width="3.4375" stroke-linejoin="round" stroke-miterlimit="10" fill="#4472C4"/><path d="M3515 20701.9C3515 20708 3510.07 20712.9 3504 20712.9 3497.92 20712.9 3493 20708 3493 20701.9 3493 20695.8 3497.92 20690.9 3504 20690.9 3510.07 20690.9 3515 20695.8 3515 20701.9Z" stroke="#4472C4" stroke-width="3.4375" stroke-linejoin="round" stroke-miterlimit="10" fill="#4472C4"/><path d="M3519 20425.9C3519 20432 3514.07 20436.9 3508 20436.9 3501.92 20436.9 3497 20432 3497 20425.9 3497 20419.8 3501.92 20414.9 3508 20414.9 3514.07 20414.9 3519 20419.8 3519 20425.9Z" stroke="#4472C4" stroke-width="3.4375" stroke-linejoin="round" stroke-miterlimit="10" fill="#4472C4"/><path d="M3522 20625.9C3522 20632 3517.07 20636.9 3511 20636.9 3504.92 20636.9 3500 20632 3500 20625.9 3500 20619.8 3504.92 20614.9 3511 20614.9 3517.07 20614.9 3522 20619.8 3522 20625.9Z" stroke="#4472C4" stroke-width="3.4375" stroke-linejoin="round" stroke-miterlimit="10" fill="#4472C4"/><path d="M3526 20382.9C3526 20389 3521.07 20393.9 3515 20393.9 3508.92 20393.9 3504 20389 3504 20382.9 3504 20376.8 3508.92 20371.9 3515 20371.9 3521.07 20371.9 3526 20376.8 3526 20382.9Z" stroke="#4472C4" stroke-width="3.4375" stroke-linejoin="round" stroke-miterlimit="10" fill="#4472C4"/><path d="M3530 20428.9C3530 20435 3525.07 20439.9 3519 20439.9 3512.92 20439.9 3508 20435 3508 20428.9 3508 20422.8 3512.92 20417.9 3519 20417.9 3525.07 20417.9 3530 20422.8 3530 20428.9Z" stroke="#4472C4" stroke-width="3.4375" stroke-linejoin="round" stroke-miterlimit="10" fill="#4472C4"/><path d="M3534 20437.9C3534 20444 3529.07 20448.9 3523 20448.9 3516.92 20448.9 3512 20444 3512 20437.9 3512 20431.8 3516.92 20426.9 3523 20426.9 3529.07 20426.9 3534 20431.8 3534 20437.9Z" stroke="#4472C4" stroke-width="3.4375" stroke-linejoin="round" stroke-miterlimit="10" fill="#4472C4"/><path d="M3538 20705.9C3538 20712 3533.07 20716.9 3527 20716.9 3520.92 20716.9 3516 20712 3516 20705.9 3516 20699.8 3520.92 20694.9 3527 20694.9 3533.07 20694.9 3538 20699.8 3538 20705.9Z" stroke="#4472C4" stroke-width="3.4375" stroke-linejoin="round" stroke-miterlimit="10" fill="#4472C4"/><path d="M3541 20636.9C3541 20643 3536.07 20647.9 3530 20647.9 3523.92 20647.9 3519 20643 3519 20636.9 3519 20630.8 3523.92 20625.9 3530 20625.9 3536.07 20625.9 3541 20630.8 3541 20636.9Z" stroke="#4472C4" stroke-width="3.4375" stroke-linejoin="round" stroke-miterlimit="10" fill="#4472C4"/><path d="M3545 20661.9C3545 20668 3540.07 20672.9 3534 20672.9 3527.92 20672.9 3523 20668 3523 20661.9 3523 20655.8 3527.92 20650.9 3534 20650.9 3540.07 20650.9 3545 20655.8 3545 20661.9Z" stroke="#4472C4" stroke-width="3.4375" stroke-linejoin="round" stroke-miterlimit="10" fill="#4472C4"/><path d="M3549 20657.9C3549 20664 3544.07 20668.9 3538 20668.9 3531.92 20668.9 3527 20664 3527 20657.9 3527 20651.8 3531.92 20646.9 3538 20646.9 3544.07 20646.9 3549 20651.8 3549 20657.9Z" stroke="#4472C4" stroke-width="3.4375" stroke-linejoin="round" stroke-miterlimit="10" fill="#4472C4"/><path d="M3553 20429.9C3553 20436 3548.07 20440.9 3542 20440.9 3535.92 20440.9 3531 20436 3531 20429.9 3531 20423.8 3535.92 20418.9 3542 20418.9 3548.07 20418.9 3553 20423.8 3553 20429.9Z" stroke="#4472C4" stroke-width="3.4375" stroke-linejoin="round" stroke-miterlimit="10" fill="#4472C4"/><path d="M3556 20690.9C3556 20697 3551.07 20701.9 3545 20701.9 3538.92 20701.9 3534 20697 3534 20690.9 3534 20684.8 3538.92 20679.9 3545 20679.9 3551.07 20679.9 3556 20684.8 3556 20690.9Z" stroke="#4472C4" stroke-width="3.4375" stroke-linejoin="round" stroke-miterlimit="10" fill="#4472C4"/><path d="M3560 20426.9C3560 20433 3555.07 20437.9 3549 20437.9 3542.92 20437.9 3538 20433 3538 20426.9 3538 20420.8 3542.92 20415.9 3549 20415.9 3555.07 20415.9 3560 20420.8 3560 20426.9Z" stroke="#4472C4" stroke-width="3.4375" stroke-linejoin="round" stroke-miterlimit="10" fill="#4472C4"/><path d="M3564 20638.9C3564 20645 3559.07 20649.9 3553 20649.9 3546.92 20649.9 3542 20645 3542 20638.9 3542 20632.8 3546.92 20627.9 3553 20627.9 3559.07 20627.9 3564 20632.8 3564 20638.9Z" stroke="#4472C4" stroke-width="3.4375" stroke-linejoin="round" stroke-miterlimit="10" fill="#4472C4"/><path d="M3568 20377.9C3568 20384 3563.07 20388.9 3557 20388.9 3550.92 20388.9 3546 20384 3546 20377.9 3546 20371.8 3550.92 20366.9 3557 20366.9 3563.07 20366.9 3568 20371.8 3568 20377.9Z" stroke="#4472C4" stroke-width="3.4375" stroke-linejoin="round" stroke-miterlimit="10" fill="#4472C4"/><path d="M3572 20426.9C3572 20433 3567.07 20437.9 3561 20437.9 3554.92 20437.9 3550 20433 3550 20426.9 3550 20420.8 3554.92 20415.9 3561 20415.9 3567.07 20415.9 3572 20420.8 3572 20426.9Z" stroke="#4472C4" stroke-width="3.4375" stroke-linejoin="round" stroke-miterlimit="10" fill="#4472C4"/><path d="M3575 20375.9C3575 20382 3570.07 20386.9 3564 20386.9 3557.92 20386.9 3553 20382 3553 20375.9 3553 20369.8 3557.92 20364.9 3564 20364.9 3570.07 20364.9 3575 20369.8 3575 20375.9Z" stroke="#4472C4" stroke-width="3.4375" stroke-linejoin="round" stroke-miterlimit="10" fill="#4472C4"/><path d="M3579 20659.9C3579 20666 3574.07 20670.9 3568 20670.9 3561.92 20670.9 3557 20666 3557 20659.9 3557 20653.8 3561.92 20648.9 3568 20648.9 3574.07 20648.9 3579 20653.8 3579 20659.9Z" stroke="#4472C4" stroke-width="3.4375" stroke-linejoin="round" stroke-miterlimit="10" fill="#4472C4"/><path d="M3583 20390.9C3583 20397 3578.07 20401.9 3572 20401.9 3565.92 20401.9 3561 20397 3561 20390.9 3561 20384.8 3565.92 20379.9 3572 20379.9 3578.07 20379.9 3583 20384.8 3583 20390.9Z" stroke="#4472C4" stroke-width="3.4375" stroke-linejoin="round" stroke-miterlimit="10" fill="#4472C4"/><path d="M3587 20391.9C3587 20398 3582.07 20402.9 3576 20402.9 3569.92 20402.9 3565 20398 3565 20391.9 3565 20385.8 3569.92 20380.9 3576 20380.9 3582.07 20380.9 3587 20385.8 3587 20391.9Z" stroke="#4472C4" stroke-width="3.4375" stroke-linejoin="round" stroke-miterlimit="10" fill="#4472C4"/><path d="M3591 20412.9C3591 20419 3586.07 20423.9 3580 20423.9 3573.92 20423.9 3569 20419 3569 20412.9 3569 20406.8 3573.92 20401.9 3580 20401.9 3586.07 20401.9 3591 20406.8 3591 20412.9Z" stroke="#4472C4" stroke-width="3.4375" stroke-linejoin="round" stroke-miterlimit="10" fill="#4472C4"/><path d="M3594 20427.9C3594 20434 3589.07 20438.9 3583 20438.9 3576.92 20438.9 3572 20434 3572 20427.9 3572 20421.8 3576.92 20416.9 3583 20416.9 3589.07 20416.9 3594 20421.8 3594 20427.9Z" stroke="#4472C4" stroke-width="3.4375" stroke-linejoin="round" stroke-miterlimit="10" fill="#4472C4"/><path d="M3598 20430.9C3598 20437 3593.07 20441.9 3587 20441.9 3580.92 20441.9 3576 20437 3576 20430.9 3576 20424.8 3580.92 20419.9 3587 20419.9 3593.07 20419.9 3598 20424.8 3598 20430.9Z" stroke="#4472C4" stroke-width="3.4375" stroke-linejoin="round" stroke-miterlimit="10" fill="#4472C4"/><path d="M3602 20637.9C3602 20644 3597.07 20648.9 3591 20648.9 3584.92 20648.9 3580 20644 3580 20637.9 3580 20631.8 3584.92 20626.9 3591 20626.9 3597.07 20626.9 3602 20631.8 3602 20637.9Z" stroke="#4472C4" stroke-width="3.4375" stroke-linejoin="round" stroke-miterlimit="10" fill="#4472C4"/><path d="M3606 20394.9C3606 20401 3601.07 20405.9 3595 20405.9 3588.92 20405.9 3584 20401 3584 20394.9 3584 20388.8 3588.92 20383.9 3595 20383.9 3601.07 20383.9 3606 20388.8 3606 20394.9Z" stroke="#4472C4" stroke-width="3.4375" stroke-linejoin="round" stroke-miterlimit="10" fill="#4472C4"/><path d="M3610 20708.9C3610 20715 3605.07 20719.9 3599 20719.9 3592.92 20719.9 3588 20715 3588 20708.9 3588 20702.8 3592.92 20697.9 3599 20697.9 3605.07 20697.9 3610 20702.8 3610 20708.9Z" stroke="#4472C4" stroke-width="3.4375" stroke-linejoin="round" stroke-miterlimit="10" fill="#4472C4"/><path d="M3613 20644.9C3613 20651 3608.07 20655.9 3602 20655.9 3595.92 20655.9 3591 20651 3591 20644.9 3591 20638.8 3595.92 20633.9 3602 20633.9 3608.07 20633.9 3613 20638.8 3613 20644.9Z" stroke="#4472C4" stroke-width="3.4375" stroke-linejoin="round" stroke-miterlimit="10" fill="#4472C4"/><path d="M3617 20361.9C3617 20368 3612.07 20372.9 3606 20372.9 3599.92 20372.9 3595 20368 3595 20361.9 3595 20355.8 3599.92 20350.9 3606 20350.9 3612.07 20350.9 3617 20355.8 3617 20361.9Z" stroke="#4472C4" stroke-width="3.4375" stroke-linejoin="round" stroke-miterlimit="10" fill="#4472C4"/><path d="M3621 20694.9C3621 20701 3616.07 20705.9 3610 20705.9 3603.92 20705.9 3599 20701 3599 20694.9 3599 20688.8 3603.92 20683.9 3610 20683.9 3616.07 20683.9 3621 20688.8 3621 20694.9Z" stroke="#4472C4" stroke-width="3.4375" stroke-linejoin="round" stroke-miterlimit="10" fill="#4472C4"/><path d="M3625 20381.9C3625 20388 3620.07 20392.9 3614 20392.9 3607.92 20392.9 3603 20388 3603 20381.9 3603 20375.8 3607.92 20370.9 3614 20370.9 3620.07 20370.9 3625 20375.8 3625 20381.9Z" stroke="#4472C4" stroke-width="3.4375" stroke-linejoin="round" stroke-miterlimit="10" fill="#4472C4"/><path d="M3628 20423.9C3628 20430 3623.07 20434.9 3617 20434.9 3610.92 20434.9 3606 20430 3606 20423.9 3606 20417.8 3610.92 20412.9 3617 20412.9 3623.07 20412.9 3628 20417.8 3628 20423.9Z" stroke="#4472C4" stroke-width="3.4375" stroke-linejoin="round" stroke-miterlimit="10" fill="#4472C4"/><path d="M3632 20367.9C3632 20374 3627.07 20378.9 3621 20378.9 3614.92 20378.9 3610 20374 3610 20367.9 3610 20361.8 3614.92 20356.9 3621 20356.9 3627.07 20356.9 3632 20361.8 3632 20367.9Z" stroke="#4472C4" stroke-width="3.4375" stroke-linejoin="round" stroke-miterlimit="10" fill="#4472C4"/><path d="M3636 20426.9C3636 20433 3631.07 20437.9 3625 20437.9 3618.92 20437.9 3614 20433 3614 20426.9 3614 20420.8 3618.92 20415.9 3625 20415.9 3631.07 20415.9 3636 20420.8 3636 20426.9Z" stroke="#4472C4" stroke-width="3.4375" stroke-linejoin="round" stroke-miterlimit="10" fill="#4472C4"/><path d="M3640 20687.9C3640 20694 3635.07 20698.9 3629 20698.9 3622.92 20698.9 3618 20694 3618 20687.9 3618 20681.8 3622.92 20676.9 3629 20676.9 3635.07 20676.9 3640 20681.8 3640 20687.9Z" stroke="#4472C4" stroke-width="3.4375" stroke-linejoin="round" stroke-miterlimit="10" fill="#4472C4"/><path d="M3644 20641.9C3644 20648 3639.07 20652.9 3633 20652.9 3626.92 20652.9 3622 20648 3622 20641.9 3622 20635.8 3626.92 20630.9 3633 20630.9 3639.07 20630.9 3644 20635.8 3644 20641.9Z" stroke="#4472C4" stroke-width="3.4375" stroke-linejoin="round" stroke-miterlimit="10" fill="#4472C4"/><path d="M3647 20435.9C3647 20442 3642.07 20446.9 3636 20446.9 3629.92 20446.9 3625 20442 3625 20435.9 3625 20429.8 3629.92 20424.9 3636 20424.9 3642.07 20424.9 3647 20429.8 3647 20435.9Z" stroke="#4472C4" stroke-width="3.4375" stroke-linejoin="round" stroke-miterlimit="10" fill="#4472C4"/><path d="M3651 20391.9C3651 20398 3646.07 20402.9 3640 20402.9 3633.92 20402.9 3629 20398 3629 20391.9 3629 20385.8 3633.92 20380.9 3640 20380.9 3646.07 20380.9 3651 20385.8 3651 20391.9Z" stroke="#4472C4" stroke-width="3.4375" stroke-linejoin="round" stroke-miterlimit="10" fill="#4472C4"/><path d="M3655 20418.9C3655 20425 3650.07 20429.9 3644 20429.9 3637.92 20429.9 3633 20425 3633 20418.9 3633 20412.8 3637.92 20407.9 3644 20407.9 3650.07 20407.9 3655 20412.8 3655 20418.9Z" stroke="#4472C4" stroke-width="3.4375" stroke-linejoin="round" stroke-miterlimit="10" fill="#4472C4"/><path d="M3659 20368.9C3659 20375 3654.07 20379.9 3648 20379.9 3641.92 20379.9 3637 20375 3637 20368.9 3637 20362.8 3641.92 20357.9 3648 20357.9 3654.07 20357.9 3659 20362.8 3659 20368.9Z" stroke="#4472C4" stroke-width="3.4375" stroke-linejoin="round" stroke-miterlimit="10" fill="#4472C4"/><path d="M3663 20692.9C3663 20699 3658.07 20703.9 3652 20703.9 3645.92 20703.9 3641 20699 3641 20692.9 3641 20686.8 3645.92 20681.9 3652 20681.9 3658.07 20681.9 3663 20686.8 3663 20692.9Z" stroke="#4472C4" stroke-width="3.4375" stroke-linejoin="round" stroke-miterlimit="10" fill="#4472C4"/><path d="M3666 20426.9C3666 20433 3661.07 20437.9 3655 20437.9 3648.92 20437.9 3644 20433 3644 20426.9 3644 20420.8 3648.92 20415.9 3655 20415.9 3661.07 20415.9 3666 20420.8 3666 20426.9Z" stroke="#4472C4" stroke-width="3.4375" stroke-linejoin="round" stroke-miterlimit="10" fill="#4472C4"/><path d="M3670 20394.9C3670 20401 3665.07 20405.9 3659 20405.9 3652.92 20405.9 3648 20401 3648 20394.9 3648 20388.8 3652.92 20383.9 3659 20383.9 3665.07 20383.9 3670 20388.8 3670 20394.9Z" stroke="#4472C4" stroke-width="3.4375" stroke-linejoin="round" stroke-miterlimit="10" fill="#4472C4"/><path d="M3674 20376.9C3674 20383 3669.07 20387.9 3663 20387.9 3656.92 20387.9 3652 20383 3652 20376.9 3652 20370.8 3656.92 20365.9 3663 20365.9 3669.07 20365.9 3674 20370.8 3674 20376.9Z" stroke="#4472C4" stroke-width="3.4375" stroke-linejoin="round" stroke-miterlimit="10" fill="#4472C4"/><path d="M3678 20433.9C3678 20440 3673.07 20444.9 3667 20444.9 3660.92 20444.9 3656 20440 3656 20433.9 3656 20427.8 3660.92 20422.9 3667 20422.9 3673.07 20422.9 3678 20427.8 3678 20433.9Z" stroke="#4472C4" stroke-width="3.4375" stroke-linejoin="round" stroke-miterlimit="10" fill="#4472C4"/><path d="M3681 20422.9C3681 20429 3676.07 20433.9 3670 20433.9 3663.92 20433.9 3659 20429 3659 20422.9 3659 20416.8 3663.92 20411.9 3670 20411.9 3676.07 20411.9 3681 20416.8 3681 20422.9Z" stroke="#4472C4" stroke-width="3.4375" stroke-linejoin="round" stroke-miterlimit="10" fill="#4472C4"/><path d="M3685 20374.9C3685 20381 3680.07 20385.9 3674 20385.9 3667.92 20385.9 3663 20381 3663 20374.9 3663 20368.8 3667.92 20363.9 3674 20363.9 3680.07 20363.9 3685 20368.8 3685 20374.9Z" stroke="#4472C4" stroke-width="3.4375" stroke-linejoin="round" stroke-miterlimit="10" fill="#4472C4"/><path d="M3689 20381.9C3689 20388 3684.07 20392.9 3678 20392.9 3671.92 20392.9 3667 20388 3667 20381.9 3667 20375.8 3671.92 20370.9 3678 20370.9 3684.07 20370.9 3689 20375.8 3689 20381.9Z" stroke="#4472C4" stroke-width="3.4375" stroke-linejoin="round" stroke-miterlimit="10" fill="#4472C4"/><path d="M3693 20376.9C3693 20383 3688.07 20387.9 3682 20387.9 3675.92 20387.9 3671 20383 3671 20376.9 3671 20370.8 3675.92 20365.9 3682 20365.9 3688.07 20365.9 3693 20370.8 3693 20376.9Z" stroke="#4472C4" stroke-width="3.4375" stroke-linejoin="round" stroke-miterlimit="10" fill="#4472C4"/><path d="M3697 20395.9C3697 20402 3692.07 20406.9 3686 20406.9 3679.92 20406.9 3675 20402 3675 20395.9 3675 20389.8 3679.92 20384.9 3686 20384.9 3692.07 20384.9 3697 20389.8 3697 20395.9Z" stroke="#4472C4" stroke-width="3.4375" stroke-linejoin="round" stroke-miterlimit="10" fill="#4472C4"/><path d="M3700 20638.9C3700 20645 3695.07 20649.9 3689 20649.9 3682.92 20649.9 3678 20645 3678 20638.9 3678 20632.8 3682.92 20627.9 3689 20627.9 3695.07 20627.9 3700 20632.8 3700 20638.9Z" stroke="#4472C4" stroke-width="3.4375" stroke-linejoin="round" stroke-miterlimit="10" fill="#4472C4"/><path d="M3704 20647.9C3704 20654 3699.07 20658.9 3693 20658.9 3686.92 20658.9 3682 20654 3682 20647.9 3682 20641.8 3686.92 20636.9 3693 20636.9 3699.07 20636.9 3704 20641.8 3704 20647.9Z" stroke="#4472C4" stroke-width="3.4375" stroke-linejoin="round" stroke-miterlimit="10" fill="#4472C4"/><path d="M3708 20632.9C3708 20639 3703.07 20643.9 3697 20643.9 3690.92 20643.9 3686 20639 3686 20632.9 3686 20626.8 3690.92 20621.9 3697 20621.9 3703.07 20621.9 3708 20626.8 3708 20632.9Z" stroke="#4472C4" stroke-width="3.4375" stroke-linejoin="round" stroke-miterlimit="10" fill="#4472C4"/><path d="M3712 20379.9C3712 20386 3707.07 20390.9 3701 20390.9 3694.92 20390.9 3690 20386 3690 20379.9 3690 20373.8 3694.92 20368.9 3701 20368.9 3707.07 20368.9 3712 20373.8 3712 20379.9Z" stroke="#4472C4" stroke-width="3.4375" stroke-linejoin="round" stroke-miterlimit="10" fill="#4472C4"/><path d="M3716 20641.9C3716 20648 3711.07 20652.9 3705 20652.9 3698.92 20652.9 3694 20648 3694 20641.9 3694 20635.8 3698.92 20630.9 3705 20630.9 3711.07 20630.9 3716 20635.8 3716 20641.9Z" stroke="#4472C4" stroke-width="3.4375" stroke-linejoin="round" stroke-miterlimit="10" fill="#4472C4"/><path d="M3719 20371.9C3719 20378 3714.07 20382.9 3708 20382.9 3701.92 20382.9 3697 20378 3697 20371.9 3697 20365.8 3701.92 20360.9 3708 20360.9 3714.07 20360.9 3719 20365.8 3719 20371.9Z" stroke="#4472C4" stroke-width="3.4375" stroke-linejoin="round" stroke-miterlimit="10" fill="#4472C4"/><path d="M3723 20105.9C3723 20112 3718.07 20116.9 3712 20116.9 3705.92 20116.9 3701 20112 3701 20105.9 3701 20099.8 3705.92 20094.9 3712 20094.9 3718.07 20094.9 3723 20099.8 3723 20105.9Z" stroke="#4472C4" stroke-width="3.4375" stroke-linejoin="round" stroke-miterlimit="10" fill="#4472C4"/><path d="M3727 20385.9C3727 20392 3722.07 20396.9 3716 20396.9 3709.92 20396.9 3705 20392 3705 20385.9 3705 20379.8 3709.92 20374.9 3716 20374.9 3722.07 20374.9 3727 20379.8 3727 20385.9Z" stroke="#4472C4" stroke-width="3.4375" stroke-linejoin="round" stroke-miterlimit="10" fill="#4472C4"/><path d="M3731 20389.9C3731 20396 3726.07 20400.9 3720 20400.9 3713.92 20400.9 3709 20396 3709 20389.9 3709 20383.8 3713.92 20378.9 3720 20378.9 3726.07 20378.9 3731 20383.8 3731 20389.9Z" stroke="#4472C4" stroke-width="3.4375" stroke-linejoin="round" stroke-miterlimit="10" fill="#4472C4"/><path d="M3735 20422.9C3735 20429 3730.07 20433.9 3724 20433.9 3717.92 20433.9 3713 20429 3713 20422.9 3713 20416.8 3717.92 20411.9 3724 20411.9 3730.07 20411.9 3735 20416.8 3735 20422.9Z" stroke="#4472C4" stroke-width="3.4375" stroke-linejoin="round" stroke-miterlimit="10" fill="#4472C4"/><path d="M3738 20420.9C3738 20427 3733.07 20431.9 3727 20431.9 3720.92 20431.9 3716 20427 3716 20420.9 3716 20414.8 3720.92 20409.9 3727 20409.9 3733.07 20409.9 3738 20414.8 3738 20420.9Z" stroke="#4472C4" stroke-width="3.4375" stroke-linejoin="round" stroke-miterlimit="10" fill="#4472C4"/><path d="M3742 20653.9C3742 20660 3737.07 20664.9 3731 20664.9 3724.92 20664.9 3720 20660 3720 20653.9 3720 20647.8 3724.92 20642.9 3731 20642.9 3737.07 20642.9 3742 20647.8 3742 20653.9Z" stroke="#4472C4" stroke-width="3.4375" stroke-linejoin="round" stroke-miterlimit="10" fill="#4472C4"/><path d="M3746 20392.9C3746 20399 3741.07 20403.9 3735 20403.9 3728.92 20403.9 3724 20399 3724 20392.9 3724 20386.8 3728.92 20381.9 3735 20381.9 3741.07 20381.9 3746 20386.8 3746 20392.9Z" stroke="#4472C4" stroke-width="3.4375" stroke-linejoin="round" stroke-miterlimit="10" fill="#4472C4"/><path d="M3750 20394.9C3750 20401 3745.07 20405.9 3739 20405.9 3732.92 20405.9 3728 20401 3728 20394.9 3728 20388.8 3732.92 20383.9 3739 20383.9 3745.07 20383.9 3750 20388.8 3750 20394.9Z" stroke="#4472C4" stroke-width="3.4375" stroke-linejoin="round" stroke-miterlimit="10" fill="#4472C4"/><path d="M3753 20376.9C3753 20383 3748.07 20387.9 3742 20387.9 3735.92 20387.9 3731 20383 3731 20376.9 3731 20370.8 3735.92 20365.9 3742 20365.9 3748.07 20365.9 3753 20370.8 3753 20376.9Z" stroke="#4472C4" stroke-width="3.4375" stroke-linejoin="round" stroke-miterlimit="10" fill="#4472C4"/><path d="M3757 20385.9C3757 20392 3752.07 20396.9 3746 20396.9 3739.92 20396.9 3735 20392 3735 20385.9 3735 20379.8 3739.92 20374.9 3746 20374.9 3752.07 20374.9 3757 20379.8 3757 20385.9Z" stroke="#4472C4" stroke-width="3.4375" stroke-linejoin="round" stroke-miterlimit="10" fill="#4472C4"/><path d="M3761 20373.9C3761 20380 3756.07 20384.9 3750 20384.9 3743.92 20384.9 3739 20380 3739 20373.9 3739 20367.8 3743.92 20362.9 3750 20362.9 3756.07 20362.9 3761 20367.8 3761 20373.9Z" stroke="#4472C4" stroke-width="3.4375" stroke-linejoin="round" stroke-miterlimit="10" fill="#4472C4"/><path d="M3765 20414.9C3765 20421 3760.07 20425.9 3754 20425.9 3747.92 20425.9 3743 20421 3743 20414.9 3743 20408.8 3747.92 20403.9 3754 20403.9 3760.07 20403.9 3765 20408.8 3765 20414.9Z" stroke="#4472C4" stroke-width="3.4375" stroke-linejoin="round" stroke-miterlimit="10" fill="#4472C4"/><path d="M3769 20375.9C3769 20382 3764.07 20386.9 3758 20386.9 3751.92 20386.9 3747 20382 3747 20375.9 3747 20369.8 3751.92 20364.9 3758 20364.9 3764.07 20364.9 3769 20369.8 3769 20375.9Z" stroke="#4472C4" stroke-width="3.4375" stroke-linejoin="round" stroke-miterlimit="10" fill="#4472C4"/><path d="M3772 20369.9C3772 20376 3767.07 20380.9 3761 20380.9 3754.92 20380.9 3750 20376 3750 20369.9 3750 20363.8 3754.92 20358.9 3761 20358.9 3767.07 20358.9 3772 20363.8 3772 20369.9Z" stroke="#4472C4" stroke-width="3.4375" stroke-linejoin="round" stroke-miterlimit="10" fill="#4472C4"/><path d="M3776 20368.9C3776 20375 3771.07 20379.9 3765 20379.9 3758.92 20379.9 3754 20375 3754 20368.9 3754 20362.8 3758.92 20357.9 3765 20357.9 3771.07 20357.9 3776 20362.8 3776 20368.9Z" stroke="#4472C4" stroke-width="3.4375" stroke-linejoin="round" stroke-miterlimit="10" fill="#4472C4"/><path d="M3780 20358.9C3780 20365 3775.07 20369.9 3769 20369.9 3762.92 20369.9 3758 20365 3758 20358.9 3758 20352.8 3762.92 20347.9 3769 20347.9 3775.07 20347.9 3780 20352.8 3780 20358.9Z" stroke="#4472C4" stroke-width="3.4375" stroke-linejoin="round" stroke-miterlimit="10" fill="#4472C4"/><path d="M3784 20390.9C3784 20397 3779.07 20401.9 3773 20401.9 3766.92 20401.9 3762 20397 3762 20390.9 3762 20384.8 3766.92 20379.9 3773 20379.9 3779.07 20379.9 3784 20384.8 3784 20390.9Z" stroke="#4472C4" stroke-width="3.4375" stroke-linejoin="round" stroke-miterlimit="10" fill="#4472C4"/><path d="M3788 20395.9C3788 20402 3783.07 20406.9 3777 20406.9 3770.92 20406.9 3766 20402 3766 20395.9 3766 20389.8 3770.92 20384.9 3777 20384.9 3783.07 20384.9 3788 20389.8 3788 20395.9Z" stroke="#4472C4" stroke-width="3.4375" stroke-linejoin="round" stroke-miterlimit="10" fill="#4472C4"/><path d="M3791 20395.9C3791 20402 3786.07 20406.9 3780 20406.9 3773.92 20406.9 3769 20402 3769 20395.9 3769 20389.8 3773.92 20384.9 3780 20384.9 3786.07 20384.9 3791 20389.8 3791 20395.9Z" stroke="#4472C4" stroke-width="3.4375" stroke-linejoin="round" stroke-miterlimit="10" fill="#4472C4"/><path d="M3795 20395.9C3795 20402 3790.07 20406.9 3784 20406.9 3777.92 20406.9 3773 20402 3773 20395.9 3773 20389.8 3777.92 20384.9 3784 20384.9 3790.07 20384.9 3795 20389.8 3795 20395.9Z" stroke="#4472C4" stroke-width="3.4375" stroke-linejoin="round" stroke-miterlimit="10" fill="#4472C4"/><path d="M3799 20643.9C3799 20650 3794.07 20654.9 3788 20654.9 3781.92 20654.9 3777 20650 3777 20643.9 3777 20637.8 3781.92 20632.9 3788 20632.9 3794.07 20632.9 3799 20637.8 3799 20643.9Z" stroke="#4472C4" stroke-width="3.4375" stroke-linejoin="round" stroke-miterlimit="10" fill="#4472C4"/><path d="M3803 20629.9C3803 20636 3798.07 20640.9 3792 20640.9 3785.92 20640.9 3781 20636 3781 20629.9 3781 20623.8 3785.92 20618.9 3792 20618.9 3798.07 20618.9 3803 20623.8 3803 20629.9Z" stroke="#4472C4" stroke-width="3.4375" stroke-linejoin="round" stroke-miterlimit="10" fill="#4472C4"/><path d="M3807 20429.9C3807 20436 3802.07 20440.9 3796 20440.9 3789.92 20440.9 3785 20436 3785 20429.9 3785 20423.8 3789.92 20418.9 3796 20418.9 3802.07 20418.9 3807 20423.8 3807 20429.9Z" stroke="#4472C4" stroke-width="3.4375" stroke-linejoin="round" stroke-miterlimit="10" fill="#4472C4"/><path d="M3810 20429.9C3810 20436 3805.07 20440.9 3799 20440.9 3792.92 20440.9 3788 20436 3788 20429.9 3788 20423.8 3792.92 20418.9 3799 20418.9 3805.07 20418.9 3810 20423.8 3810 20429.9Z" stroke="#4472C4" stroke-width="3.4375" stroke-linejoin="round" stroke-miterlimit="10" fill="#4472C4"/></g><g clip-path="url(#clip10)"><path d="M0 0 1136 68.0001" stroke="#C00000" stroke-width="6.875" stroke-linecap="round" stroke-linejoin="round" stroke-miterlimit="10" stroke-dasharray="0 13.75" fill="none" fill-rule="evenodd" transform="matrix(1 0 0 -1 2662.5 20543.5)"/></g><g clip-path="url(#clip11)"><text fill="#595959" font-family="Calibri,Calibri_MSFontService,sans-serif" font-weight="400" font-size="41" transform="matrix(1 0 0 1 3629.45 20003)">y = 17.637x + 15000</text></g><g clip-path="url(#clip12)"><text fill="#595959" font-family="Calibri,Calibri_MSFontService,sans-serif" font-weight="400" font-size="41" transform="matrix(1 0 0 1 2603.08 20749)">0</text></g><g clip-path="url(#clip13)"><text fill="#595959" font-family="Calibri,Calibri_MSFontService,sans-serif" font-weight="400" font-size="41" transform="matrix(1 0 0 1 2519.48 20620)">10000</text></g><g clip-path="url(#clip14)"><text fill="#595959" font-family="Calibri,Calibri_MSFontService,sans-serif" font-weight="400" font-size="41" transform="matrix(1 0 0 1 2519.48 20491)">20000</text></g><g clip-path="url(#clip15)"><text fill="#595959" font-family="Calibri,Calibri_MSFontService,sans-serif" font-weight="400" font-size="41" transform="matrix(1 0 0 1 2519.48 20361)">30000</text></g><g clip-path="url(#clip16)"><text fill="#595959" font-family="Calibri,Calibri_MSFontService,sans-serif" font-weight="400" font-size="41" transform="matrix(1 0 0 1 2519.48 20232)">40000</text></g><g clip-path="url(#clip17)"><text fill="#595959" font-family="Calibri,Calibri_MSFontService,sans-serif" font-weight="400" font-size="41" transform="matrix(1 0 0 1 2519.48 20102)">50000</text></g><g clip-path="url(#clip18)"><text fill="#595959" font-family="Calibri,Calibri_MSFontService,sans-serif" font-weight="400" font-size="41" transform="matrix(1 0 0 1 2519.48 19973)">60000</text></g><g clip-path="url(#clip19)"><text fill="#595959" font-family="Calibri,Calibri_MSFontService,sans-serif" font-weight="400" font-size="41" transform="matrix(1 0 0 1 2651.8 20803)">0</text></g><g clip-path="url(#clip20)"><text fill="#595959" font-family="Calibri,Calibri_MSFontService,sans-serif" font-weight="400" font-size="41" transform="matrix(1 0 0 1 2830.77 20803)">50</text></g><g clip-path="url(#clip21)"><text fill="#595959" font-family="Calibri,Calibri_MSFontService,sans-serif" font-weight="400" font-size="41" transform="matrix(1 0 0 1 3009.75 20803)">100</text></g><g clip-path="url(#clip22)"><text fill="#595959" font-family="Calibri,Calibri_MSFontService,sans-serif" font-weight="400" font-size="41" transform="matrix(1 0 0 1 3199.18 20803)">150</text></g><g clip-path="url(#clip23)"><text fill="#595959" font-family="Calibri,Calibri_MSFontService,sans-serif" font-weight="400" font-size="41" transform="matrix(1 0 0 1 3388.6 20803)">200</text></g><g clip-path="url(#clip24)"><text fill="#595959" font-family="Calibri,Calibri_MSFontService,sans-serif" font-weight="400" font-size="41" transform="matrix(1 0 0 1 3578.03 20803)">250</text></g><g clip-path="url(#clip25)"><text fill="#595959" font-family="Calibri,Calibri_MSFontService,sans-serif" font-weight="400" font-size="41" transform="matrix(1 0 0 1 3767.46 20803)">300</text></g><g clip-path="url(#clip26)"><text fill="#595959" font-family="Calibri,Calibri_MSFontService,sans-serif" font-weight="400" font-size="41" transform="matrix(1 0 0 1 3956.88 20803)">350</text></g><g clip-path="url(#clip27)"><text fill="#595959" font-family="Calibri,Calibri_MSFontService,sans-serif" font-weight="400" font-size="46" transform="matrix(6.12323e-17 -1 1 6.12323e-17 2493.79 20537)">Current Best Fitness</text></g><g clip-path="url(#clip28)"><text fill="#595959" font-family="Calibri,Calibri_MSFontService,sans-serif" font-weight="400" font-size="46" transform="matrix(1 0 0 1 3219.9 20872)">Generation</text></g><g clip-path="url(#clip29)"><text fill="#595959" font-family="Calibri,Calibri_MSFontService,sans-serif" font-weight="400" font-size="64" transform="matrix(1 0 0 1 2939.45 19887)">Best Fitness (RED pop)</text></g><rect x="2393.5" y="19791.5" width="1677" height="1150" stroke="#D9D9D9" stroke-width="3.4375" stroke-linejoin="round" stroke-miterlimit="10" fill="none"/></g></svg>