<svg width="1949" height="1160" xmlns="http://www.w3.org/2000/svg" xmlns:xlink="http://www.w3.org/1999/xlink" overflow="hidden"><defs><clipPath id="clip0"><rect x="2013" y="14146" width="1949" height="1160"/></clipPath><clipPath id="clip1"><rect x="2014" y="14147" width="1946" height="1156"/></clipPath><clipPath id="clip2"><rect x="2014" y="14147" width="1946" height="1156"/></clipPath><clipPath id="clip3"><rect x="2014" y="14147" width="1946" height="1156"/></clipPath><clipPath id="clip4"><rect x="2014" y="14147" width="1946" height="1156"/></clipPath><clipPath id="clip5"><rect x="2014" y="14147" width="1946" height="1156"/></clipPath><clipPath id="clip6"><rect x="2014" y="14147" width="1946" height="1156"/></clipPath><clipPath id="clip7"><rect x="2014" y="14147" width="1946" height="1156"/></clipPath><clipPath id="clip8"><rect x="2014" y="14147" width="1946" height="1156"/></clipPath><clipPath id="clip9"><rect x="2014" y="14147" width="1946" height="1156"/></clipPath><clipPath id="clip10"><rect x="2296" y="14317" width="1582" height="866"/></clipPath><clipPath id="clip11"><rect x="2014" y="14147" width="1946" height="1156"/></clipPath><clipPath id="clip12"><rect x="2014" y="14147" width="1946" height="1156"/></clipPath><clipPath id="clip13"><rect x="2014" y="14147" width="1946" height="1156"/></clipPath><clipPath id="clip14"><rect x="2014" y="14147" width="1946" height="1156"/></clipPath><clipPath id="clip15"><rect x="2014" y="14147" width="1946" height="1156"/></clipPath><clipPath id="clip16"><rect x="2014" y="14147" width="1946" height="1156"/></clipPath><clipPath id="clip17"><rect x="2014" y="14147" width="1946" height="1156"/></clipPath><clipPath id="clip18"><rect x="2014" y="14147" width="1946" height="1156"/></clipPath><clipPath id="clip19"><rect x="2014" y="14147" width="1946" height="1156"/></clipPath><clipPath id="clip20"><rect x="2014" y="14147" width="1946" height="1156"/></clipPath><clipPath id="clip21"><rect x="2014" y="14147" width="1946" height="1156"/></clipPath><clipPath id="clip22"><rect x="2014" y="14147" width="1946" height="1156"/></clipPath><clipPath id="clip23"><rect x="2014" y="14147" width="1946" height="1156"/></clipPath><clipPath id="clip24"><rect x="2014" y="14147" width="1946" height="1156"/></clipPath><clipPath id="clip25"><rect x="2014" y="14147" width="1946" height="1156"/></clipPath><clipPath id="clip26"><rect x="2014" y="14147" width="1946" height="1156"/></clipPath><clipPath id="clip27"><rect x="2014" y="14147" width="1946" height="1156"/></clipPath><clipPath id="clip28"><rect x="2014" y="14147" width="1946" height="1156"/></clipPath><clipPath id="clip29"><rect x="2014" y="14147" width="1946" height="1156"/></clipPath><clipPath id="clip30"><rect x="2014" y="14147" width="1946" height="1156"/></clipPath><clipPath id="clip31"><rect x="2014" y="14147" width="1946" height="1156"/></clipPath><clipPath id="clip32"><rect x="2014" y="14147" width="1946" height="1156"/></clipPath></defs><g clip-path="url(#clip0)" transform="translate(-2013 -14146)"><rect x="2014" y="14147" width="1946" height="1157" fill="#FFFFFF"/><g clip-path="url(#clip1)"><path d="M2296.5 15168 3878.5 15168M2296.5 15152 3878.5 15152M2296.5 15136 3878.5 15136M2296.5 15121 3878.5 15121M2296.5 15089 3878.5 15089M2296.5 15073 3878.5 15073M2296.5 15058 3878.5 15058M2296.5 15042 3878.5 15042M2296.5 15010 3878.5 15010M2296.5 14995 3878.5 14995M2296.5 14979 3878.5 14979M2296.5 14963 3878.5 14963M2296.5 14932 3878.5 14932M2296.5 14916 3878.5 14916M2296.5 14900 3878.5 14900M2296.5 14884 3878.5 14884M2296.5 14853 3878.5 14853M2296.5 14837 3878.5 14837M2296.5 14821 3878.5 14821M2296.5 14805 3878.5 14805M2296.5 14774 3878.5 14774M2296.5 14758 3878.5 14758M2296.5 14742 3878.5 14742M2296.5 14727 3878.5 14727M2296.5 14695 3878.5 14695M2296.5 14679 3878.5 14679M2296.5 14664 3878.5 14664M2296.5 14648 3878.5 14648M2296.5 14616 3878.5 14616M2296.5 14601 3878.5 14601M2296.5 14585 3878.5 14585M2296.5 14569 3878.5 14569M2296.5 14538 3878.5 14538M2296.5 14522 3878.5 14522M2296.5 14506 3878.5 14506M2296.5 14490 3878.5 14490M2296.5 14459 3878.5 14459M2296.5 14443 3878.5 14443M2296.5 14427 3878.5 14427M2296.5 14412 3878.5 14412M2296.5 14380 3878.5 14380M2296.5 14364 3878.5 14364M2296.5 14349 3878.5 14349M2296.5 14333 3878.5 14333" stroke="#F2F2F2" stroke-width="3.4375" stroke-linejoin="round" stroke-miterlimit="10" fill="none"/></g><g clip-path="url(#clip2)"><path d="M2296.5 15183.5 3878.5 15183.5M2296.5 15105 3878.5 15105M2296.5 15026 3878.5 15026M2296.5 14869 3878.5 14869M2296.5 14790 3878.5 14790M2296.5 14711 3878.5 14711M2296.5 14632 3878.5 14632M2296.5 14553 3878.5 14553M2296.5 14475 3878.5 14475M2296.5 14396 3878.5 14396M2296.5 14317.5 3878.5 14317.5" stroke="#D9D9D9" stroke-width="3.4375" stroke-linejoin="round" stroke-miterlimit="10" fill="none"/></g><g clip-path="url(#clip3)"><path d="M2359.58 14317.5 2359.58 15183.5M2423.58 14317.5 2423.58 15183.5M2486.58 14317.5 2486.58 15183.5M2549.58 14317.5 2549.58 15183.5M2676.59 14317.5 2676.59 15183.5M2739.59 14317.5 2739.59 15183.5M2802.59 14317.5 2802.59 15183.5M2865.59 14317.5 2865.59 15183.5M2992.6 14317.5 2992.6 15183.5M3055.6 14317.5 3055.6 15183.5M3119.6 14317.5 3119.6 15183.5M3182.6 14317.5 3182.6 15183.5M3308.61 14317.5 3308.61 15183.5M3372.61 14317.5 3372.61 15183.5M3435.61 14317.5 3435.61 15183.5M3498.61 14317.5 3498.61 15183.5M3625.62 14317.5 3625.62 15183.5M3688.62 14317.5 3688.62 15183.5M3751.62 14317.5 3751.62 15183.5M3814.63 14317.5 3814.63 15183.5" stroke="#F2F2F2" stroke-width="3.4375" stroke-linejoin="round" stroke-miterlimit="10" fill="none"/></g><g clip-path="url(#clip4)"><path d="M2612.59 14317.5 2612.59 15183.5M2929.6 14317.5 2929.6 15183.5M3245.61 14317.5 3245.61 15183.5M3561.62 14317.5 3561.62 15183.5M3878.5 14317.5 3878.5 15183.5" stroke="#D9D9D9" stroke-width="3.4375" stroke-linejoin="round" stroke-miterlimit="10" fill="none"/></g><g clip-path="url(#clip5)"><path d="M0 0 0.000360892 866" stroke="#BFBFBF" stroke-width="3.4375" stroke-linejoin="round" stroke-miterlimit="10" fill="none" fill-rule="evenodd" transform="matrix(1 0 0 -1 2296.5 15183.5)"/></g><g clip-path="url(#clip6)"><path d="M2283.5 15183.5 2296.5 15183.5M2283.5 15105 2296.5 15105M2283.5 15026 2296.5 15026M2283.5 14947 2296.5 14947M2283.5 14869 2296.5 14869M2283.5 14790 2296.5 14790M2283.5 14711 2296.5 14711M2283.5 14632 2296.5 14632M2283.5 14553 2296.5 14553M2283.5 14475 2296.5 14475M2283.5 14396 2296.5 14396M2283.5 14317.5 2296.5 14317.5" stroke="#BFBFBF" stroke-width="3.4375" stroke-linejoin="round" stroke-miterlimit="10" fill="none"/></g><g clip-path="url(#clip7)"><path d="M2296.5 14947.5 3878.5 14947.5" stroke="#BFBFBF" stroke-width="3.4375" stroke-linejoin="round" stroke-miterlimit="10" fill="none" fill-rule="evenodd"/></g><g clip-path="url(#clip8)"><path d="M2296.5 14947.5 2296.5 14960.5M2612.59 14947.5 2612.59 14960.5M2929.6 14947.5 2929.6 14960.5M3245.61 14947.5 3245.61 14960.5M3561.62 14947.5 3561.62 14960.5M3878.5 14947.5 3878.5 14960.5" stroke="#BFBFBF" stroke-width="3.4375" stroke-linejoin="round" stroke-miterlimit="10" fill="none"/></g><g clip-path="url(#clip9)"><path d="M2307.87 15079.5C2307.87 15085.6 2302.95 15090.5 2296.88 15090.5 2290.8 15090.5 2285.88 15085.6 2285.88 15079.5 2285.88 15073.5 2290.8 15068.5 2296.88 15068.5 2302.95 15068.5 2307.87 15073.5 2307.87 15079.5Z" stroke="#4472C4" stroke-width="3.4375" stroke-linejoin="round" stroke-miterlimit="10" fill="#4472C4"/><path d="M2314.87 14666.5C2314.87 14672.6 2309.95 14677.5 2303.87 14677.5 2297.8 14677.5 2292.88 14672.6 2292.88 14666.5 2292.88 14660.5 2297.8 14655.5 2303.87 14655.5 2309.95 14655.5 2314.87 14660.5 2314.87 14666.5Z" stroke="#4472C4" stroke-width="3.4375" stroke-linejoin="round" stroke-miterlimit="10" fill="#4472C4"/><path d="M2320.87 14701.5C2320.87 14707.6 2315.95 14712.5 2309.88 14712.5 2303.8 14712.5 2298.88 14707.6 2298.88 14701.5 2298.88 14695.5 2303.8 14690.5 2309.88 14690.5 2315.95 14690.5 2320.87 14695.5 2320.87 14701.5Z" stroke="#4472C4" stroke-width="3.4375" stroke-linejoin="round" stroke-miterlimit="10" fill="#4472C4"/><path d="M2326.87 14776.5C2326.87 14782.6 2321.95 14787.5 2315.88 14787.5 2309.8 14787.5 2304.88 14782.6 2304.88 14776.5 2304.88 14770.5 2309.8 14765.5 2315.88 14765.5 2321.95 14765.5 2326.87 14770.5 2326.87 14776.5Z" stroke="#4472C4" stroke-width="3.4375" stroke-linejoin="round" stroke-miterlimit="10" fill="#4472C4"/><path d="M2333.87 14740.5C2333.87 14746.6 2328.95 14751.5 2322.87 14751.5 2316.8 14751.5 2311.88 14746.6 2311.88 14740.5 2311.88 14734.5 2316.8 14729.5 2322.87 14729.5 2328.95 14729.5 2333.87 14734.5 2333.87 14740.5Z" stroke="#4472C4" stroke-width="3.4375" stroke-linejoin="round" stroke-miterlimit="10" fill="#4472C4"/><path d="M2339.87 14769.5C2339.87 14775.6 2334.95 14780.5 2328.88 14780.5 2322.8 14780.5 2317.88 14775.6 2317.88 14769.5 2317.88 14763.5 2322.8 14758.5 2328.88 14758.5 2334.95 14758.5 2339.87 14763.5 2339.87 14769.5Z" stroke="#4472C4" stroke-width="3.4375" stroke-linejoin="round" stroke-miterlimit="10" fill="#4472C4"/><path d="M2345.87 14772.5C2345.87 14778.6 2340.95 14783.5 2334.87 14783.5 2328.8 14783.5 2323.88 14778.6 2323.88 14772.5 2323.88 14766.5 2328.8 14761.5 2334.87 14761.5 2340.95 14761.5 2345.87 14766.5 2345.87 14772.5Z" stroke="#4472C4" stroke-width="3.4375" stroke-linejoin="round" stroke-miterlimit="10" fill="#4472C4"/><path d="M2352.87 14725.5C2352.87 14731.6 2347.95 14736.5 2341.88 14736.5 2335.8 14736.5 2330.88 14731.6 2330.88 14725.5 2330.88 14719.5 2335.8 14714.5 2341.88 14714.5 2347.95 14714.5 2352.87 14719.5 2352.87 14725.5Z" stroke="#4472C4" stroke-width="3.4375" stroke-linejoin="round" stroke-miterlimit="10" fill="#4472C4"/><path d="M2358.87 14688.5C2358.87 14694.6 2353.95 14699.5 2347.87 14699.5 2341.8 14699.5 2336.88 14694.6 2336.88 14688.5 2336.88 14682.5 2341.8 14677.5 2347.87 14677.5 2353.95 14677.5 2358.87 14682.5 2358.87 14688.5Z" stroke="#4472C4" stroke-width="3.4375" stroke-linejoin="round" stroke-miterlimit="10" fill="#4472C4"/><path d="M2364.87 14770.5C2364.87 14776.6 2359.95 14781.5 2353.88 14781.5 2347.8 14781.5 2342.88 14776.6 2342.88 14770.5 2342.88 14764.5 2347.8 14759.5 2353.88 14759.5 2359.95 14759.5 2364.87 14764.5 2364.87 14770.5Z" stroke="#4472C4" stroke-width="3.4375" stroke-linejoin="round" stroke-miterlimit="10" fill="#4472C4"/><path d="M2371.87 14820.5C2371.87 14826.6 2366.95 14831.5 2360.88 14831.5 2354.8 14831.5 2349.88 14826.6 2349.88 14820.5 2349.88 14814.5 2354.8 14809.5 2360.88 14809.5 2366.95 14809.5 2371.87 14814.5 2371.87 14820.5Z" stroke="#4472C4" stroke-width="3.4375" stroke-linejoin="round" stroke-miterlimit="10" fill="#4472C4"/><path d="M2377.87 14745.5C2377.87 14751.6 2372.95 14756.5 2366.87 14756.5 2360.8 14756.5 2355.88 14751.6 2355.88 14745.5 2355.88 14739.5 2360.8 14734.5 2366.87 14734.5 2372.95 14734.5 2377.87 14739.5 2377.87 14745.5Z" stroke="#4472C4" stroke-width="3.4375" stroke-linejoin="round" stroke-miterlimit="10" fill="#4472C4"/><path d="M2383.87 14790.5C2383.87 14796.6 2378.95 14801.5 2372.88 14801.5 2366.8 14801.5 2361.88 14796.6 2361.88 14790.5 2361.88 14784.5 2366.8 14779.5 2372.88 14779.5 2378.95 14779.5 2383.87 14784.5 2383.87 14790.5Z" stroke="#4472C4" stroke-width="3.4375" stroke-linejoin="round" stroke-miterlimit="10" fill="#4472C4"/><path d="M2389.87 14834.5C2389.87 14840.6 2384.95 14845.5 2378.87 14845.5 2372.8 14845.5 2367.88 14840.6 2367.88 14834.5 2367.88 14828.5 2372.8 14823.5 2378.87 14823.5 2384.95 14823.5 2389.87 14828.5 2389.87 14834.5Z" stroke="#4472C4" stroke-width="3.4375" stroke-linejoin="round" stroke-miterlimit="10" fill="#4472C4"/><path d="M2396.87 14788.5C2396.87 14794.6 2391.95 14799.5 2385.88 14799.5 2379.8 14799.5 2374.88 14794.6 2374.88 14788.5 2374.88 14782.5 2379.8 14777.5 2385.88 14777.5 2391.95 14777.5 2396.87 14782.5 2396.87 14788.5Z" stroke="#4472C4" stroke-width="3.4375" stroke-linejoin="round" stroke-miterlimit="10" fill="#4472C4"/><path d="M2402.87 14717.5C2402.87 14723.6 2397.95 14728.5 2391.87 14728.5 2385.8 14728.5 2380.88 14723.6 2380.88 14717.5 2380.88 14711.5 2385.8 14706.5 2391.87 14706.5 2397.95 14706.5 2402.87 14711.5 2402.87 14717.5Z" stroke="#4472C4" stroke-width="3.4375" stroke-linejoin="round" stroke-miterlimit="10" fill="#4472C4"/><path d="M2408.87 14742.5C2408.87 14748.6 2403.95 14753.5 2397.88 14753.5 2391.8 14753.5 2386.88 14748.6 2386.88 14742.5 2386.88 14736.5 2391.8 14731.5 2397.88 14731.5 2403.95 14731.5 2408.87 14736.5 2408.87 14742.5Z" stroke="#4472C4" stroke-width="3.4375" stroke-linejoin="round" stroke-miterlimit="10" fill="#4472C4"/><path d="M2415.87 14755.5C2415.87 14761.6 2410.95 14766.5 2404.88 14766.5 2398.8 14766.5 2393.88 14761.6 2393.88 14755.5 2393.88 14749.5 2398.8 14744.5 2404.88 14744.5 2410.95 14744.5 2415.87 14749.5 2415.87 14755.5Z" stroke="#4472C4" stroke-width="3.4375" stroke-linejoin="round" stroke-miterlimit="10" fill="#4472C4"/><path d="M2421.87 14780.5C2421.87 14786.6 2416.95 14791.5 2410.87 14791.5 2404.8 14791.5 2399.88 14786.6 2399.88 14780.5 2399.88 14774.5 2404.8 14769.5 2410.87 14769.5 2416.95 14769.5 2421.87 14774.5 2421.87 14780.5Z" stroke="#4472C4" stroke-width="3.4375" stroke-linejoin="round" stroke-miterlimit="10" fill="#4472C4"/><path d="M2427.87 14727.5C2427.87 14733.6 2422.95 14738.5 2416.88 14738.5 2410.8 14738.5 2405.88 14733.6 2405.88 14727.5 2405.88 14721.5 2410.8 14716.5 2416.88 14716.5 2422.95 14716.5 2427.87 14721.5 2427.87 14727.5Z" stroke="#4472C4" stroke-width="3.4375" stroke-linejoin="round" stroke-miterlimit="10" fill="#4472C4"/><path d="M2434.87 14755.5C2434.87 14761.6 2429.95 14766.5 2423.87 14766.5 2417.8 14766.5 2412.88 14761.6 2412.88 14755.5 2412.88 14749.5 2417.8 14744.5 2423.87 14744.5 2429.95 14744.5 2434.87 14749.5 2434.87 14755.5Z" stroke="#4472C4" stroke-width="3.4375" stroke-linejoin="round" stroke-miterlimit="10" fill="#4472C4"/><path d="M2440.87 14764.5C2440.87 14770.6 2435.95 14775.5 2429.88 14775.5 2423.8 14775.5 2418.88 14770.6 2418.88 14764.5 2418.88 14758.5 2423.8 14753.5 2429.88 14753.5 2435.95 14753.5 2440.87 14758.5 2440.87 14764.5Z" stroke="#4472C4" stroke-width="3.4375" stroke-linejoin="round" stroke-miterlimit="10" fill="#4472C4"/><path d="M2446.87 14784.5C2446.87 14790.6 2441.95 14795.5 2435.87 14795.5 2429.8 14795.5 2424.88 14790.6 2424.88 14784.5 2424.88 14778.5 2429.8 14773.5 2435.87 14773.5 2441.95 14773.5 2446.87 14778.5 2446.87 14784.5Z" stroke="#4472C4" stroke-width="3.4375" stroke-linejoin="round" stroke-miterlimit="10" fill="#4472C4"/><path d="M2453.87 14724.5C2453.87 14730.6 2448.95 14735.5 2442.88 14735.5 2436.8 14735.5 2431.88 14730.6 2431.88 14724.5 2431.88 14718.5 2436.8 14713.5 2442.88 14713.5 2448.95 14713.5 2453.87 14718.5 2453.87 14724.5Z" stroke="#4472C4" stroke-width="3.4375" stroke-linejoin="round" stroke-miterlimit="10" fill="#4472C4"/><path d="M2459.87 14776.5C2459.87 14782.6 2454.95 14787.5 2448.88 14787.5 2442.8 14787.5 2437.88 14782.6 2437.88 14776.5 2437.88 14770.5 2442.8 14765.5 2448.88 14765.5 2454.95 14765.5 2459.87 14770.5 2459.87 14776.5Z" stroke="#4472C4" stroke-width="3.4375" stroke-linejoin="round" stroke-miterlimit="10" fill="#4472C4"/><path d="M2465.87 14715.5C2465.87 14721.6 2460.95 14726.5 2454.87 14726.5 2448.8 14726.5 2443.88 14721.6 2443.88 14715.5 2443.88 14709.5 2448.8 14704.5 2454.87 14704.5 2460.95 14704.5 2465.87 14709.5 2465.87 14715.5Z" stroke="#4472C4" stroke-width="3.4375" stroke-linejoin="round" stroke-miterlimit="10" fill="#4472C4"/><path d="M2472.87 14687.5C2472.87 14693.6 2467.95 14698.5 2461.88 14698.5 2455.8 14698.5 2450.88 14693.6 2450.88 14687.5 2450.88 14681.5 2455.8 14676.5 2461.88 14676.5 2467.95 14676.5 2472.87 14681.5 2472.87 14687.5Z" stroke="#4472C4" stroke-width="3.4375" stroke-linejoin="round" stroke-miterlimit="10" fill="#4472C4"/><path d="M2478.87 14758.5C2478.87 14764.6 2473.95 14769.5 2467.87 14769.5 2461.8 14769.5 2456.88 14764.6 2456.88 14758.5 2456.88 14752.5 2461.8 14747.5 2467.87 14747.5 2473.95 14747.5 2478.87 14752.5 2478.87 14758.5Z" stroke="#4472C4" stroke-width="3.4375" stroke-linejoin="round" stroke-miterlimit="10" fill="#4472C4"/><path d="M2484.87 14750.5C2484.87 14756.6 2479.95 14761.5 2473.88 14761.5 2467.8 14761.5 2462.88 14756.6 2462.88 14750.5 2462.88 14744.5 2467.8 14739.5 2473.88 14739.5 2479.95 14739.5 2484.87 14744.5 2484.87 14750.5Z" stroke="#4472C4" stroke-width="3.4375" stroke-linejoin="round" stroke-miterlimit="10" fill="#4472C4"/><path d="M2491.87 14747.5C2491.87 14753.6 2486.95 14758.5 2480.88 14758.5 2474.8 14758.5 2469.88 14753.6 2469.88 14747.5 2469.88 14741.5 2474.8 14736.5 2480.88 14736.5 2486.95 14736.5 2491.87 14741.5 2491.87 14747.5Z" stroke="#4472C4" stroke-width="3.4375" stroke-linejoin="round" stroke-miterlimit="10" fill="#4472C4"/><path d="M2497.87 14750.5C2497.87 14756.6 2492.95 14761.5 2486.88 14761.5 2480.8 14761.5 2475.88 14756.6 2475.88 14750.5 2475.88 14744.5 2480.8 14739.5 2486.88 14739.5 2492.95 14739.5 2497.87 14744.5 2497.87 14750.5Z" stroke="#4472C4" stroke-width="3.4375" stroke-linejoin="round" stroke-miterlimit="10" fill="#4472C4"/><path d="M2503.87 14701.5C2503.87 14707.6 2498.95 14712.5 2492.88 14712.5 2486.8 14712.5 2481.88 14707.6 2481.88 14701.5 2481.88 14695.5 2486.8 14690.5 2492.88 14690.5 2498.95 14690.5 2503.87 14695.5 2503.87 14701.5Z" stroke="#4472C4" stroke-width="3.4375" stroke-linejoin="round" stroke-miterlimit="10" fill="#4472C4"/><path d="M2510.87 14728.5C2510.87 14734.6 2505.95 14739.5 2499.87 14739.5 2493.8 14739.5 2488.88 14734.6 2488.88 14728.5 2488.88 14722.5 2493.8 14717.5 2499.87 14717.5 2505.95 14717.5 2510.87 14722.5 2510.87 14728.5Z" stroke="#4472C4" stroke-width="3.4375" stroke-linejoin="round" stroke-miterlimit="10" fill="#4472C4"/><path d="M2516.87 14766.5C2516.87 14772.6 2511.95 14777.5 2505.88 14777.5 2499.8 14777.5 2494.88 14772.6 2494.88 14766.5 2494.88 14760.5 2499.8 14755.5 2505.88 14755.5 2511.95 14755.5 2516.87 14760.5 2516.87 14766.5Z" stroke="#4472C4" stroke-width="3.4375" stroke-linejoin="round" stroke-miterlimit="10" fill="#4472C4"/><path d="M2522.87 14720.5C2522.87 14726.6 2517.95 14731.5 2511.87 14731.5 2505.8 14731.5 2500.88 14726.6 2500.88 14720.5 2500.88 14714.5 2505.8 14709.5 2511.87 14709.5 2517.95 14709.5 2522.87 14714.5 2522.87 14720.5Z" stroke="#4472C4" stroke-width="3.4375" stroke-linejoin="round" stroke-miterlimit="10" fill="#4472C4"/><path d="M2529.87 14693.5C2529.87 14699.6 2524.95 14704.5 2518.88 14704.5 2512.8 14704.5 2507.88 14699.6 2507.88 14693.5 2507.88 14687.5 2512.8 14682.5 2518.88 14682.5 2524.95 14682.5 2529.87 14687.5 2529.87 14693.5Z" stroke="#4472C4" stroke-width="3.4375" stroke-linejoin="round" stroke-miterlimit="10" fill="#4472C4"/><path d="M2535.87 14696.5C2535.87 14702.6 2530.95 14707.5 2524.88 14707.5 2518.8 14707.5 2513.88 14702.6 2513.88 14696.5 2513.88 14690.5 2518.8 14685.5 2524.88 14685.5 2530.95 14685.5 2535.87 14690.5 2535.87 14696.5Z" stroke="#4472C4" stroke-width="3.4375" stroke-linejoin="round" stroke-miterlimit="10" fill="#4472C4"/><path d="M2541.87 14729.5C2541.87 14735.6 2536.95 14740.5 2530.88 14740.5 2524.8 14740.5 2519.88 14735.6 2519.88 14729.5 2519.88 14723.5 2524.8 14718.5 2530.88 14718.5 2536.95 14718.5 2541.87 14723.5 2541.87 14729.5Z" stroke="#4472C4" stroke-width="3.4375" stroke-linejoin="round" stroke-miterlimit="10" fill="#4472C4"/><path d="M2548.87 14672.5C2548.87 14678.6 2543.95 14683.5 2537.88 14683.5 2531.8 14683.5 2526.88 14678.6 2526.88 14672.5 2526.88 14666.5 2531.8 14661.5 2537.88 14661.5 2543.95 14661.5 2548.87 14666.5 2548.87 14672.5Z" stroke="#4472C4" stroke-width="3.4375" stroke-linejoin="round" stroke-miterlimit="10" fill="#4472C4"/><path d="M2554.87 14753.5C2554.87 14759.6 2549.95 14764.5 2543.87 14764.5 2537.8 14764.5 2532.88 14759.6 2532.88 14753.5 2532.88 14747.5 2537.8 14742.5 2543.87 14742.5 2549.95 14742.5 2554.87 14747.5 2554.87 14753.5Z" stroke="#4472C4" stroke-width="3.4375" stroke-linejoin="round" stroke-miterlimit="10" fill="#4472C4"/><path d="M2560.87 14738.5C2560.87 14744.6 2555.95 14749.5 2549.88 14749.5 2543.8 14749.5 2538.88 14744.6 2538.88 14738.5 2538.88 14732.5 2543.8 14727.5 2549.88 14727.5 2555.95 14727.5 2560.87 14732.5 2560.87 14738.5Z" stroke="#4472C4" stroke-width="3.4375" stroke-linejoin="round" stroke-miterlimit="10" fill="#4472C4"/><path d="M2567.87 14729.5C2567.87 14735.6 2562.95 14740.5 2556.87 14740.5 2550.8 14740.5 2545.88 14735.6 2545.88 14729.5 2545.88 14723.5 2550.8 14718.5 2556.87 14718.5 2562.95 14718.5 2567.87 14723.5 2567.87 14729.5Z" stroke="#4472C4" stroke-width="3.4375" stroke-linejoin="round" stroke-miterlimit="10" fill="#4472C4"/><path d="M2573.87 14717.5C2573.87 14723.6 2568.95 14728.5 2562.88 14728.5 2556.8 14728.5 2551.88 14723.6 2551.88 14717.5 2551.88 14711.5 2556.8 14706.5 2562.88 14706.5 2568.95 14706.5 2573.87 14711.5 2573.87 14717.5Z" stroke="#4472C4" stroke-width="3.4375" stroke-linejoin="round" stroke-miterlimit="10" fill="#4472C4"/><path d="M2579.87 14685.5C2579.87 14691.6 2574.95 14696.5 2568.88 14696.5 2562.8 14696.5 2557.88 14691.6 2557.88 14685.5 2557.88 14679.5 2562.8 14674.5 2568.88 14674.5 2574.95 14674.5 2579.87 14679.5 2579.87 14685.5Z" stroke="#4472C4" stroke-width="3.4375" stroke-linejoin="round" stroke-miterlimit="10" fill="#4472C4"/><path d="M2586.87 14776.5C2586.87 14782.6 2581.95 14787.5 2575.87 14787.5 2569.8 14787.5 2564.88 14782.6 2564.88 14776.5 2564.88 14770.5 2569.8 14765.5 2575.87 14765.5 2581.95 14765.5 2586.87 14770.5 2586.87 14776.5Z" stroke="#4472C4" stroke-width="3.4375" stroke-linejoin="round" stroke-miterlimit="10" fill="#4472C4"/><path d="M2592.87 14757.5C2592.87 14763.6 2587.95 14768.5 2581.88 14768.5 2575.8 14768.5 2570.88 14763.6 2570.88 14757.5 2570.88 14751.5 2575.8 14746.5 2581.88 14746.5 2587.95 14746.5 2592.87 14751.5 2592.87 14757.5Z" stroke="#4472C4" stroke-width="3.4375" stroke-linejoin="round" stroke-miterlimit="10" fill="#4472C4"/><path d="M2598.87 14698.5C2598.87 14704.6 2593.95 14709.5 2587.87 14709.5 2581.8 14709.5 2576.88 14704.6 2576.88 14698.5 2576.88 14692.5 2581.8 14687.5 2587.87 14687.5 2593.95 14687.5 2598.87 14692.5 2598.87 14698.5Z" stroke="#4472C4" stroke-width="3.4375" stroke-linejoin="round" stroke-miterlimit="10" fill="#4472C4"/><path d="M2605.87 14788.5C2605.87 14794.6 2600.95 14799.5 2594.88 14799.5 2588.8 14799.5 2583.88 14794.6 2583.88 14788.5 2583.88 14782.5 2588.8 14777.5 2594.88 14777.5 2600.95 14777.5 2605.87 14782.5 2605.87 14788.5Z" stroke="#4472C4" stroke-width="3.4375" stroke-linejoin="round" stroke-miterlimit="10" fill="#4472C4"/><path d="M2611.87 14705.5C2611.87 14711.6 2606.95 14716.5 2600.87 14716.5 2594.8 14716.5 2589.88 14711.6 2589.88 14705.5 2589.88 14699.5 2594.8 14694.5 2600.87 14694.5 2606.95 14694.5 2611.87 14699.5 2611.87 14705.5Z" stroke="#4472C4" stroke-width="3.4375" stroke-linejoin="round" stroke-miterlimit="10" fill="#4472C4"/><path d="M2617.87 14675.5C2617.87 14681.6 2612.95 14686.5 2606.88 14686.5 2600.8 14686.5 2595.88 14681.6 2595.88 14675.5 2595.88 14669.5 2600.8 14664.5 2606.88 14664.5 2612.95 14664.5 2617.87 14669.5 2617.87 14675.5Z" stroke="#4472C4" stroke-width="3.4375" stroke-linejoin="round" stroke-miterlimit="10" fill="#4472C4"/><path d="M2624.87 14717.5C2624.87 14723.6 2619.95 14728.5 2613.88 14728.5 2607.8 14728.5 2602.88 14723.6 2602.88 14717.5 2602.88 14711.5 2607.8 14706.5 2613.88 14706.5 2619.95 14706.5 2624.87 14711.5 2624.87 14717.5Z" stroke="#4472C4" stroke-width="3.4375" stroke-linejoin="round" stroke-miterlimit="10" fill="#4472C4"/><path d="M2630.87 14720.5C2630.87 14726.6 2625.95 14731.5 2619.87 14731.5 2613.8 14731.5 2608.88 14726.6 2608.88 14720.5 2608.88 14714.5 2613.8 14709.5 2619.87 14709.5 2625.95 14709.5 2630.87 14714.5 2630.87 14720.5Z" stroke="#4472C4" stroke-width="3.4375" stroke-linejoin="round" stroke-miterlimit="10" fill="#4472C4"/><path d="M2636.87 14780.5C2636.87 14786.6 2631.95 14791.5 2625.88 14791.5 2619.8 14791.5 2614.88 14786.6 2614.88 14780.5 2614.88 14774.5 2619.8 14769.5 2625.88 14769.5 2631.95 14769.5 2636.87 14774.5 2636.87 14780.5Z" stroke="#4472C4" stroke-width="3.4375" stroke-linejoin="round" stroke-miterlimit="10" fill="#4472C4"/><path d="M2643.87 14755.5C2643.87 14761.6 2638.95 14766.5 2632.87 14766.5 2626.8 14766.5 2621.88 14761.6 2621.88 14755.5 2621.88 14749.5 2626.8 14744.5 2632.87 14744.5 2638.95 14744.5 2643.87 14749.5 2643.87 14755.5Z" stroke="#4472C4" stroke-width="3.4375" stroke-linejoin="round" stroke-miterlimit="10" fill="#4472C4"/><path d="M2649.87 14731.5C2649.87 14737.6 2644.95 14742.5 2638.88 14742.5 2632.8 14742.5 2627.88 14737.6 2627.88 14731.5 2627.88 14725.5 2632.8 14720.5 2638.88 14720.5 2644.95 14720.5 2649.87 14725.5 2649.87 14731.5Z" stroke="#4472C4" stroke-width="3.4375" stroke-linejoin="round" stroke-miterlimit="10" fill="#4472C4"/><path d="M2655.87 14764.5C2655.87 14770.6 2650.95 14775.5 2644.87 14775.5 2638.8 14775.5 2633.88 14770.6 2633.88 14764.5 2633.88 14758.5 2638.8 14753.5 2644.87 14753.5 2650.95 14753.5 2655.87 14758.5 2655.87 14764.5Z" stroke="#4472C4" stroke-width="3.4375" stroke-linejoin="round" stroke-miterlimit="10" fill="#4472C4"/><path d="M2662.87 14761.5C2662.87 14767.6 2657.95 14772.5 2651.88 14772.5 2645.8 14772.5 2640.88 14767.6 2640.88 14761.5 2640.88 14755.5 2645.8 14750.5 2651.88 14750.5 2657.95 14750.5 2662.87 14755.5 2662.87 14761.5Z" stroke="#4472C4" stroke-width="3.4375" stroke-linejoin="round" stroke-miterlimit="10" fill="#4472C4"/><path d="M2668.87 14703.5C2668.87 14709.6 2663.95 14714.5 2657.88 14714.5 2651.8 14714.5 2646.88 14709.6 2646.88 14703.5 2646.88 14697.5 2651.8 14692.5 2657.88 14692.5 2663.95 14692.5 2668.87 14697.5 2668.87 14703.5Z" stroke="#4472C4" stroke-width="3.4375" stroke-linejoin="round" stroke-miterlimit="10" fill="#4472C4"/><path d="M2674.87 14698.5C2674.87 14704.6 2669.95 14709.5 2663.87 14709.5 2657.8 14709.5 2652.88 14704.6 2652.88 14698.5 2652.88 14692.5 2657.8 14687.5 2663.87 14687.5 2669.95 14687.5 2674.87 14692.5 2674.87 14698.5Z" stroke="#4472C4" stroke-width="3.4375" stroke-linejoin="round" stroke-miterlimit="10" fill="#4472C4"/><path d="M2680.87 14694.5C2680.87 14700.6 2675.95 14705.5 2669.88 14705.5 2663.8 14705.5 2658.88 14700.6 2658.88 14694.5 2658.88 14688.5 2663.8 14683.5 2669.88 14683.5 2675.95 14683.5 2680.87 14688.5 2680.87 14694.5Z" stroke="#4472C4" stroke-width="3.4375" stroke-linejoin="round" stroke-miterlimit="10" fill="#4472C4"/><path d="M2687.87 14705.5C2687.87 14711.6 2682.95 14716.5 2676.87 14716.5 2670.8 14716.5 2665.88 14711.6 2665.88 14705.5 2665.88 14699.5 2670.8 14694.5 2676.87 14694.5 2682.95 14694.5 2687.87 14699.5 2687.87 14705.5Z" stroke="#4472C4" stroke-width="3.4375" stroke-linejoin="round" stroke-miterlimit="10" fill="#4472C4"/><path d="M2693.87 14730.5C2693.87 14736.6 2688.95 14741.5 2682.88 14741.5 2676.8 14741.5 2671.88 14736.6 2671.88 14730.5 2671.88 14724.5 2676.8 14719.5 2682.88 14719.5 2688.95 14719.5 2693.87 14724.5 2693.87 14730.5Z" stroke="#4472C4" stroke-width="3.4375" stroke-linejoin="round" stroke-miterlimit="10" fill="#4472C4"/><path d="M2699.87 14686.5C2699.87 14692.6 2694.95 14697.5 2688.87 14697.5 2682.8 14697.5 2677.88 14692.6 2677.88 14686.5 2677.88 14680.5 2682.8 14675.5 2688.87 14675.5 2694.95 14675.5 2699.87 14680.5 2699.87 14686.5Z" stroke="#4472C4" stroke-width="3.4375" stroke-linejoin="round" stroke-miterlimit="10" fill="#4472C4"/><path d="M2706.87 14703.5C2706.87 14709.6 2701.95 14714.5 2695.88 14714.5 2689.8 14714.5 2684.88 14709.6 2684.88 14703.5 2684.88 14697.5 2689.8 14692.5 2695.88 14692.5 2701.95 14692.5 2706.87 14697.5 2706.87 14703.5Z" stroke="#4472C4" stroke-width="3.4375" stroke-linejoin="round" stroke-miterlimit="10" fill="#4472C4"/><path d="M2712.87 14720.5C2712.87 14726.6 2707.95 14731.5 2701.88 14731.5 2695.8 14731.5 2690.88 14726.6 2690.88 14720.5 2690.88 14714.5 2695.8 14709.5 2701.88 14709.5 2707.95 14709.5 2712.87 14714.5 2712.87 14720.5Z" stroke="#4472C4" stroke-width="3.4375" stroke-linejoin="round" stroke-miterlimit="10" fill="#4472C4"/><path d="M2718.87 14698.5C2718.87 14704.6 2713.95 14709.5 2707.87 14709.5 2701.8 14709.5 2696.88 14704.6 2696.88 14698.5 2696.88 14692.5 2701.8 14687.5 2707.87 14687.5 2713.95 14687.5 2718.87 14692.5 2718.87 14698.5Z" stroke="#4472C4" stroke-width="3.4375" stroke-linejoin="round" stroke-miterlimit="10" fill="#4472C4"/><path d="M2725.87 14706.5C2725.87 14712.6 2720.95 14717.5 2714.88 14717.5 2708.8 14717.5 2703.88 14712.6 2703.88 14706.5 2703.88 14700.5 2708.8 14695.5 2714.88 14695.5 2720.95 14695.5 2725.87 14700.5 2725.87 14706.5Z" stroke="#4472C4" stroke-width="3.4375" stroke-linejoin="round" stroke-miterlimit="10" fill="#4472C4"/><path d="M2731.87 14674.5C2731.87 14680.6 2726.95 14685.5 2720.87 14685.5 2714.8 14685.5 2709.88 14680.6 2709.88 14674.5 2709.88 14668.5 2714.8 14663.5 2720.87 14663.5 2726.95 14663.5 2731.87 14668.5 2731.87 14674.5Z" stroke="#4472C4" stroke-width="3.4375" stroke-linejoin="round" stroke-miterlimit="10" fill="#4472C4"/><path d="M2737.87 14675.5C2737.87 14681.6 2732.95 14686.5 2726.88 14686.5 2720.8 14686.5 2715.88 14681.6 2715.88 14675.5 2715.88 14669.5 2720.8 14664.5 2726.88 14664.5 2732.95 14664.5 2737.87 14669.5 2737.87 14675.5Z" stroke="#4472C4" stroke-width="3.4375" stroke-linejoin="round" stroke-miterlimit="10" fill="#4472C4"/><path d="M2744.87 14740.5C2744.87 14746.6 2739.95 14751.5 2733.88 14751.5 2727.8 14751.5 2722.88 14746.6 2722.88 14740.5 2722.88 14734.5 2727.8 14729.5 2733.88 14729.5 2739.95 14729.5 2744.87 14734.5 2744.87 14740.5Z" stroke="#4472C4" stroke-width="3.4375" stroke-linejoin="round" stroke-miterlimit="10" fill="#4472C4"/><path d="M2750.87 14744.5C2750.87 14750.6 2745.95 14755.5 2739.88 14755.5 2733.8 14755.5 2728.88 14750.6 2728.88 14744.5 2728.88 14738.5 2733.8 14733.5 2739.88 14733.5 2745.95 14733.5 2750.87 14738.5 2750.87 14744.5Z" stroke="#4472C4" stroke-width="3.4375" stroke-linejoin="round" stroke-miterlimit="10" fill="#4472C4"/><path d="M2756.87 14701.5C2756.87 14707.6 2751.95 14712.5 2745.88 14712.5 2739.8 14712.5 2734.88 14707.6 2734.88 14701.5 2734.88 14695.5 2739.8 14690.5 2745.88 14690.5 2751.95 14690.5 2756.87 14695.5 2756.87 14701.5Z" stroke="#4472C4" stroke-width="3.4375" stroke-linejoin="round" stroke-miterlimit="10" fill="#4472C4"/><path d="M2763.87 14696.5C2763.87 14702.6 2758.95 14707.5 2752.87 14707.5 2746.8 14707.5 2741.88 14702.6 2741.88 14696.5 2741.88 14690.5 2746.8 14685.5 2752.87 14685.5 2758.95 14685.5 2763.87 14690.5 2763.87 14696.5Z" stroke="#4472C4" stroke-width="3.4375" stroke-linejoin="round" stroke-miterlimit="10" fill="#4472C4"/><path d="M2769.87 14706.5C2769.87 14712.6 2764.95 14717.5 2758.88 14717.5 2752.8 14717.5 2747.88 14712.6 2747.88 14706.5 2747.88 14700.5 2752.8 14695.5 2758.88 14695.5 2764.95 14695.5 2769.87 14700.5 2769.87 14706.5Z" stroke="#4472C4" stroke-width="3.4375" stroke-linejoin="round" stroke-miterlimit="10" fill="#4472C4"/><path d="M2775.87 14743.5C2775.87 14749.6 2770.95 14754.5 2764.87 14754.5 2758.8 14754.5 2753.88 14749.6 2753.88 14743.5 2753.88 14737.5 2758.8 14732.5 2764.87 14732.5 2770.95 14732.5 2775.87 14737.5 2775.87 14743.5Z" stroke="#4472C4" stroke-width="3.4375" stroke-linejoin="round" stroke-miterlimit="10" fill="#4472C4"/><path d="M2782.87 14691.5C2782.87 14697.6 2777.95 14702.5 2771.88 14702.5 2765.8 14702.5 2760.88 14697.6 2760.88 14691.5 2760.88 14685.5 2765.8 14680.5 2771.88 14680.5 2777.95 14680.5 2782.87 14685.5 2782.87 14691.5Z" stroke="#4472C4" stroke-width="3.4375" stroke-linejoin="round" stroke-miterlimit="10" fill="#4472C4"/><path d="M2788.87 14741.5C2788.87 14747.6 2783.95 14752.5 2777.88 14752.5 2771.8 14752.5 2766.88 14747.6 2766.88 14741.5 2766.88 14735.5 2771.8 14730.5 2777.88 14730.5 2783.95 14730.5 2788.87 14735.5 2788.87 14741.5Z" stroke="#4472C4" stroke-width="3.4375" stroke-linejoin="round" stroke-miterlimit="10" fill="#4472C4"/><path d="M2794.87 14628.5C2794.87 14634.6 2789.95 14639.5 2783.88 14639.5 2777.8 14639.5 2772.88 14634.6 2772.88 14628.5 2772.88 14622.5 2777.8 14617.5 2783.88 14617.5 2789.95 14617.5 2794.87 14622.5 2794.87 14628.5Z" stroke="#4472C4" stroke-width="3.4375" stroke-linejoin="round" stroke-miterlimit="10" fill="#4472C4"/><path d="M2801.87 14705.5C2801.87 14711.6 2796.95 14716.5 2790.88 14716.5 2784.8 14716.5 2779.88 14711.6 2779.88 14705.5 2779.88 14699.5 2784.8 14694.5 2790.88 14694.5 2796.95 14694.5 2801.87 14699.5 2801.87 14705.5Z" stroke="#4472C4" stroke-width="3.4375" stroke-linejoin="round" stroke-miterlimit="10" fill="#4472C4"/><path d="M2807.87 14687.5C2807.87 14693.6 2802.95 14698.5 2796.87 14698.5 2790.8 14698.5 2785.88 14693.6 2785.88 14687.5 2785.88 14681.5 2790.8 14676.5 2796.87 14676.5 2802.95 14676.5 2807.87 14681.5 2807.87 14687.5Z" stroke="#4472C4" stroke-width="3.4375" stroke-linejoin="round" stroke-miterlimit="10" fill="#4472C4"/><path d="M2813.87 14642.5C2813.87 14648.6 2808.95 14653.5 2802.88 14653.5 2796.8 14653.5 2791.88 14648.6 2791.88 14642.5 2791.88 14636.5 2796.8 14631.5 2802.88 14631.5 2808.95 14631.5 2813.87 14636.5 2813.87 14642.5Z" stroke="#4472C4" stroke-width="3.4375" stroke-linejoin="round" stroke-miterlimit="10" fill="#4472C4"/><path d="M2820.87 14689.5C2820.87 14695.6 2815.95 14700.5 2809.87 14700.5 2803.8 14700.5 2798.88 14695.6 2798.88 14689.5 2798.88 14683.5 2803.8 14678.5 2809.87 14678.5 2815.95 14678.5 2820.87 14683.5 2820.87 14689.5Z" stroke="#4472C4" stroke-width="3.4375" stroke-linejoin="round" stroke-miterlimit="10" fill="#4472C4"/><path d="M2826.87 14680.5C2826.87 14686.6 2821.95 14691.5 2815.88 14691.5 2809.8 14691.5 2804.88 14686.6 2804.88 14680.5 2804.88 14674.5 2809.8 14669.5 2815.88 14669.5 2821.95 14669.5 2826.87 14674.5 2826.87 14680.5Z" stroke="#4472C4" stroke-width="3.4375" stroke-linejoin="round" stroke-miterlimit="10" fill="#4472C4"/><path d="M2832.87 14655.5C2832.87 14661.6 2827.95 14666.5 2821.88 14666.5 2815.8 14666.5 2810.88 14661.6 2810.88 14655.5 2810.88 14649.5 2815.8 14644.5 2821.88 14644.5 2827.95 14644.5 2832.87 14649.5 2832.87 14655.5Z" stroke="#4472C4" stroke-width="3.4375" stroke-linejoin="round" stroke-miterlimit="10" fill="#4472C4"/><path d="M2839.87 14624.5C2839.87 14630.6 2834.95 14635.5 2828.87 14635.5 2822.8 14635.5 2817.88 14630.6 2817.88 14624.5 2817.88 14618.5 2822.8 14613.5 2828.87 14613.5 2834.95 14613.5 2839.87 14618.5 2839.87 14624.5Z" stroke="#4472C4" stroke-width="3.4375" stroke-linejoin="round" stroke-miterlimit="10" fill="#4472C4"/><path d="M2845.87 14623.5C2845.87 14629.6 2840.95 14634.5 2834.88 14634.5 2828.8 14634.5 2823.88 14629.6 2823.88 14623.5 2823.88 14617.5 2828.8 14612.5 2834.88 14612.5 2840.95 14612.5 2845.87 14617.5 2845.87 14623.5Z" stroke="#4472C4" stroke-width="3.4375" stroke-linejoin="round" stroke-miterlimit="10" fill="#4472C4"/><path d="M2851.87 14556.5C2851.87 14562.6 2846.95 14567.5 2840.87 14567.5 2834.8 14567.5 2829.88 14562.6 2829.88 14556.5 2829.88 14550.5 2834.8 14545.5 2840.87 14545.5 2846.95 14545.5 2851.87 14550.5 2851.87 14556.5Z" stroke="#4472C4" stroke-width="3.4375" stroke-linejoin="round" stroke-miterlimit="10" fill="#4472C4"/><path d="M2858.87 14686.5C2858.87 14692.6 2853.95 14697.5 2847.88 14697.5 2841.8 14697.5 2836.88 14692.6 2836.88 14686.5 2836.88 14680.5 2841.8 14675.5 2847.88 14675.5 2853.95 14675.5 2858.87 14680.5 2858.87 14686.5Z" stroke="#4472C4" stroke-width="3.4375" stroke-linejoin="round" stroke-miterlimit="10" fill="#4472C4"/><path d="M2864.87 14582.5C2864.87 14588.6 2859.95 14593.5 2853.87 14593.5 2847.8 14593.5 2842.88 14588.6 2842.88 14582.5 2842.88 14576.5 2847.8 14571.5 2853.87 14571.5 2859.95 14571.5 2864.87 14576.5 2864.87 14582.5Z" stroke="#4472C4" stroke-width="3.4375" stroke-linejoin="round" stroke-miterlimit="10" fill="#4472C4"/><path d="M2870.87 14594.5C2870.87 14600.6 2865.95 14605.5 2859.88 14605.5 2853.8 14605.5 2848.88 14600.6 2848.88 14594.5 2848.88 14588.5 2853.8 14583.5 2859.88 14583.5 2865.95 14583.5 2870.87 14588.5 2870.87 14594.5Z" stroke="#4472C4" stroke-width="3.4375" stroke-linejoin="round" stroke-miterlimit="10" fill="#4472C4"/><path d="M2877.87 14721.5C2877.87 14727.6 2872.95 14732.5 2866.88 14732.5 2860.8 14732.5 2855.88 14727.6 2855.88 14721.5 2855.88 14715.5 2860.8 14710.5 2866.88 14710.5 2872.95 14710.5 2877.87 14715.5 2877.87 14721.5Z" stroke="#4472C4" stroke-width="3.4375" stroke-linejoin="round" stroke-miterlimit="10" fill="#4472C4"/><path d="M2883.87 14595.5C2883.87 14601.6 2878.95 14606.5 2872.87 14606.5 2866.8 14606.5 2861.88 14601.6 2861.88 14595.5 2861.88 14589.5 2866.8 14584.5 2872.87 14584.5 2878.95 14584.5 2883.87 14589.5 2883.87 14595.5Z" stroke="#4472C4" stroke-width="3.4375" stroke-linejoin="round" stroke-miterlimit="10" fill="#4472C4"/><path d="M2889.87 14501.5C2889.87 14507.6 2884.95 14512.5 2878.88 14512.5 2872.8 14512.5 2867.88 14507.6 2867.88 14501.5 2867.88 14495.5 2872.8 14490.5 2878.88 14490.5 2884.95 14490.5 2889.87 14495.5 2889.87 14501.5Z" stroke="#4472C4" stroke-width="3.4375" stroke-linejoin="round" stroke-miterlimit="10" fill="#4472C4"/><path d="M2896.87 14524.5C2896.87 14530.6 2891.95 14535.5 2885.87 14535.5 2879.8 14535.5 2874.88 14530.6 2874.88 14524.5 2874.88 14518.5 2879.8 14513.5 2885.87 14513.5 2891.95 14513.5 2896.87 14518.5 2896.87 14524.5Z" stroke="#4472C4" stroke-width="3.4375" stroke-linejoin="round" stroke-miterlimit="10" fill="#4472C4"/><path d="M2902.87 14490.5C2902.87 14496.6 2897.95 14501.5 2891.88 14501.5 2885.8 14501.5 2880.88 14496.6 2880.88 14490.5 2880.88 14484.5 2885.8 14479.5 2891.88 14479.5 2897.95 14479.5 2902.87 14484.5 2902.87 14490.5Z" stroke="#4472C4" stroke-width="3.4375" stroke-linejoin="round" stroke-miterlimit="10" fill="#4472C4"/><path d="M2908.87 14540.5C2908.87 14546.6 2903.95 14551.5 2897.87 14551.5 2891.8 14551.5 2886.88 14546.6 2886.88 14540.5 2886.88 14534.5 2891.8 14529.5 2897.87 14529.5 2903.95 14529.5 2908.87 14534.5 2908.87 14540.5Z" stroke="#4472C4" stroke-width="3.4375" stroke-linejoin="round" stroke-miterlimit="10" fill="#4472C4"/><path d="M2915.87 14537.5C2915.87 14543.6 2910.95 14548.5 2904.88 14548.5 2898.8 14548.5 2893.88 14543.6 2893.88 14537.5 2893.88 14531.5 2898.8 14526.5 2904.88 14526.5 2910.95 14526.5 2915.87 14531.5 2915.87 14537.5Z" stroke="#4472C4" stroke-width="3.4375" stroke-linejoin="round" stroke-miterlimit="10" fill="#4472C4"/><path d="M2921.87 14479.5C2921.87 14485.6 2916.95 14490.5 2910.88 14490.5 2904.8 14490.5 2899.88 14485.6 2899.88 14479.5 2899.88 14473.5 2904.8 14468.5 2910.88 14468.5 2916.95 14468.5 2921.87 14473.5 2921.87 14479.5Z" stroke="#4472C4" stroke-width="3.4375" stroke-linejoin="round" stroke-miterlimit="10" fill="#4472C4"/><path d="M2927.87 14436.5C2927.87 14442.6 2922.95 14447.5 2916.87 14447.5 2910.8 14447.5 2905.88 14442.6 2905.88 14436.5 2905.88 14430.5 2910.8 14425.5 2916.87 14425.5 2922.95 14425.5 2927.87 14430.5 2927.87 14436.5Z" stroke="#4472C4" stroke-width="3.4375" stroke-linejoin="round" stroke-miterlimit="10" fill="#4472C4"/><path d="M2934.87 14515.5C2934.87 14521.6 2929.95 14526.5 2923.88 14526.5 2917.8 14526.5 2912.88 14521.6 2912.88 14515.5 2912.88 14509.5 2917.8 14504.5 2923.88 14504.5 2929.95 14504.5 2934.87 14509.5 2934.87 14515.5Z" stroke="#4472C4" stroke-width="3.4375" stroke-linejoin="round" stroke-miterlimit="10" fill="#4472C4"/><path d="M2940.87 14480.5C2940.87 14486.6 2935.95 14491.5 2929.87 14491.5 2923.8 14491.5 2918.88 14486.6 2918.88 14480.5 2918.88 14474.5 2923.8 14469.5 2929.87 14469.5 2935.95 14469.5 2940.87 14474.5 2940.87 14480.5Z" stroke="#4472C4" stroke-width="3.4375" stroke-linejoin="round" stroke-miterlimit="10" fill="#4472C4"/><path d="M2946.87 14423.5C2946.87 14429.6 2941.95 14434.5 2935.88 14434.5 2929.8 14434.5 2924.88 14429.6 2924.88 14423.5 2924.88 14417.5 2929.8 14412.5 2935.88 14412.5 2941.95 14412.5 2946.87 14417.5 2946.87 14423.5Z" stroke="#4472C4" stroke-width="3.4375" stroke-linejoin="round" stroke-miterlimit="10" fill="#4472C4"/><path d="M2952.87 14521.5C2952.87 14527.6 2947.95 14532.5 2941.87 14532.5 2935.8 14532.5 2930.88 14527.6 2930.88 14521.5 2930.88 14515.5 2935.8 14510.5 2941.87 14510.5 2947.95 14510.5 2952.87 14515.5 2952.87 14521.5Z" stroke="#4472C4" stroke-width="3.4375" stroke-linejoin="round" stroke-miterlimit="10" fill="#4472C4"/><path d="M2959.87 14490.5C2959.87 14496.6 2954.95 14501.5 2948.88 14501.5 2942.8 14501.5 2937.88 14496.6 2937.88 14490.5 2937.88 14484.5 2942.8 14479.5 2948.88 14479.5 2954.95 14479.5 2959.87 14484.5 2959.87 14490.5Z" stroke="#4472C4" stroke-width="3.4375" stroke-linejoin="round" stroke-miterlimit="10" fill="#4472C4"/><path d="M2965.87 14451.5C2965.87 14457.6 2960.95 14462.5 2954.88 14462.5 2948.8 14462.5 2943.88 14457.6 2943.88 14451.5 2943.88 14445.5 2948.8 14440.5 2954.88 14440.5 2960.95 14440.5 2965.87 14445.5 2965.87 14451.5Z" stroke="#4472C4" stroke-width="3.4375" stroke-linejoin="round" stroke-miterlimit="10" fill="#4472C4"/><path d="M2971.87 14510.5C2971.87 14516.6 2966.95 14521.5 2960.87 14521.5 2954.8 14521.5 2949.88 14516.6 2949.88 14510.5 2949.88 14504.5 2954.8 14499.5 2960.87 14499.5 2966.95 14499.5 2971.87 14504.5 2971.87 14510.5Z" stroke="#4472C4" stroke-width="3.4375" stroke-linejoin="round" stroke-miterlimit="10" fill="#4472C4"/><path d="M2978.87 14526.5C2978.87 14532.6 2973.95 14537.5 2967.88 14537.5 2961.8 14537.5 2956.88 14532.6 2956.88 14526.5 2956.88 14520.5 2961.8 14515.5 2967.88 14515.5 2973.95 14515.5 2978.87 14520.5 2978.87 14526.5Z" stroke="#4472C4" stroke-width="3.4375" stroke-linejoin="round" stroke-miterlimit="10" fill="#4472C4"/><path d="M2984.87 14500.5C2984.87 14506.6 2979.95 14511.5 2973.87 14511.5 2967.8 14511.5 2962.88 14506.6 2962.88 14500.5 2962.88 14494.5 2967.8 14489.5 2973.87 14489.5 2979.95 14489.5 2984.87 14494.5 2984.87 14500.5Z" stroke="#4472C4" stroke-width="3.4375" stroke-linejoin="round" stroke-miterlimit="10" fill="#4472C4"/><path d="M2990.87 14508.5C2990.87 14514.6 2985.95 14519.5 2979.88 14519.5 2973.8 14519.5 2968.88 14514.6 2968.88 14508.5 2968.88 14502.5 2973.8 14497.5 2979.88 14497.5 2985.95 14497.5 2990.87 14502.5 2990.87 14508.5Z" stroke="#4472C4" stroke-width="3.4375" stroke-linejoin="round" stroke-miterlimit="10" fill="#4472C4"/><path d="M2997.87 14501.5C2997.87 14507.6 2992.95 14512.5 2986.88 14512.5 2980.8 14512.5 2975.88 14507.6 2975.88 14501.5 2975.88 14495.5 2980.8 14490.5 2986.88 14490.5 2992.95 14490.5 2997.87 14495.5 2997.87 14501.5Z" stroke="#4472C4" stroke-width="3.4375" stroke-linejoin="round" stroke-miterlimit="10" fill="#4472C4"/><path d="M3003.87 14417.5C3003.87 14423.6 2998.95 14428.5 2992.88 14428.5 2986.8 14428.5 2981.88 14423.6 2981.88 14417.5 2981.88 14411.5 2986.8 14406.5 2992.88 14406.5 2998.95 14406.5 3003.87 14411.5 3003.87 14417.5Z" stroke="#4472C4" stroke-width="3.4375" stroke-linejoin="round" stroke-miterlimit="10" fill="#4472C4"/><path d="M3009.87 14509.5C3009.87 14515.6 3004.95 14520.5 2998.88 14520.5 2992.8 14520.5 2987.88 14515.6 2987.88 14509.5 2987.88 14503.5 2992.8 14498.5 2998.88 14498.5 3004.95 14498.5 3009.87 14503.5 3009.87 14509.5Z" stroke="#4472C4" stroke-width="3.4375" stroke-linejoin="round" stroke-miterlimit="10" fill="#4472C4"/><path d="M3016.87 14465.5C3016.87 14471.6 3011.95 14476.5 3005.87 14476.5 2999.8 14476.5 2994.88 14471.6 2994.88 14465.5 2994.88 14459.5 2999.8 14454.5 3005.87 14454.5 3011.95 14454.5 3016.87 14459.5 3016.87 14465.5Z" stroke="#4472C4" stroke-width="3.4375" stroke-linejoin="round" stroke-miterlimit="10" fill="#4472C4"/><path d="M3022.87 14584.5C3022.87 14590.6 3017.95 14595.5 3011.88 14595.5 3005.8 14595.5 3000.88 14590.6 3000.88 14584.5 3000.88 14578.5 3005.8 14573.5 3011.88 14573.5 3017.95 14573.5 3022.87 14578.5 3022.87 14584.5Z" stroke="#4472C4" stroke-width="3.4375" stroke-linejoin="round" stroke-miterlimit="10" fill="#4472C4"/><path d="M3028.87 14508.5C3028.87 14514.6 3023.95 14519.5 3017.87 14519.5 3011.8 14519.5 3006.88 14514.6 3006.88 14508.5 3006.88 14502.5 3011.8 14497.5 3017.87 14497.5 3023.95 14497.5 3028.87 14502.5 3028.87 14508.5Z" stroke="#4472C4" stroke-width="3.4375" stroke-linejoin="round" stroke-miterlimit="10" fill="#4472C4"/><path d="M3035.87 14445.5C3035.87 14451.6 3030.95 14456.5 3024.88 14456.5 3018.8 14456.5 3013.88 14451.6 3013.88 14445.5 3013.88 14439.5 3018.8 14434.5 3024.88 14434.5 3030.95 14434.5 3035.87 14439.5 3035.87 14445.5Z" stroke="#4472C4" stroke-width="3.4375" stroke-linejoin="round" stroke-miterlimit="10" fill="#4472C4"/><path d="M3041.87 14435.5C3041.87 14441.6 3036.95 14446.5 3030.88 14446.5 3024.8 14446.5 3019.88 14441.6 3019.88 14435.5 3019.88 14429.5 3024.8 14424.5 3030.88 14424.5 3036.95 14424.5 3041.87 14429.5 3041.87 14435.5Z" stroke="#4472C4" stroke-width="3.4375" stroke-linejoin="round" stroke-miterlimit="10" fill="#4472C4"/><path d="M3047.87 14536.5C3047.87 14542.6 3042.95 14547.5 3036.88 14547.5 3030.8 14547.5 3025.88 14542.6 3025.88 14536.5 3025.88 14530.5 3030.8 14525.5 3036.88 14525.5 3042.95 14525.5 3047.87 14530.5 3047.87 14536.5Z" stroke="#4472C4" stroke-width="3.4375" stroke-linejoin="round" stroke-miterlimit="10" fill="#4472C4"/><path d="M3054.87 14509.5C3054.87 14515.6 3049.95 14520.5 3043.88 14520.5 3037.8 14520.5 3032.88 14515.6 3032.88 14509.5 3032.88 14503.5 3037.8 14498.5 3043.88 14498.5 3049.95 14498.5 3054.87 14503.5 3054.87 14509.5Z" stroke="#4472C4" stroke-width="3.4375" stroke-linejoin="round" stroke-miterlimit="10" fill="#4472C4"/><path d="M3060.87 14507.5C3060.87 14513.6 3055.95 14518.5 3049.87 14518.5 3043.8 14518.5 3038.88 14513.6 3038.88 14507.5 3038.88 14501.5 3043.8 14496.5 3049.87 14496.5 3055.95 14496.5 3060.87 14501.5 3060.87 14507.5Z" stroke="#4472C4" stroke-width="3.4375" stroke-linejoin="round" stroke-miterlimit="10" fill="#4472C4"/><path d="M3066.87 14510.5C3066.87 14516.6 3061.95 14521.5 3055.88 14521.5 3049.8 14521.5 3044.88 14516.6 3044.88 14510.5 3044.88 14504.5 3049.8 14499.5 3055.88 14499.5 3061.95 14499.5 3066.87 14504.5 3066.87 14510.5Z" stroke="#4472C4" stroke-width="3.4375" stroke-linejoin="round" stroke-miterlimit="10" fill="#4472C4"/><path d="M3073.87 14567.5C3073.87 14573.6 3068.95 14578.5 3062.87 14578.5 3056.8 14578.5 3051.88 14573.6 3051.88 14567.5 3051.88 14561.5 3056.8 14556.5 3062.87 14556.5 3068.95 14556.5 3073.87 14561.5 3073.87 14567.5Z" stroke="#4472C4" stroke-width="3.4375" stroke-linejoin="round" stroke-miterlimit="10" fill="#4472C4"/><path d="M3079.87 14474.5C3079.87 14480.6 3074.95 14485.5 3068.88 14485.5 3062.8 14485.5 3057.88 14480.6 3057.88 14474.5 3057.88 14468.5 3062.8 14463.5 3068.88 14463.5 3074.95 14463.5 3079.87 14468.5 3079.87 14474.5Z" stroke="#4472C4" stroke-width="3.4375" stroke-linejoin="round" stroke-miterlimit="10" fill="#4472C4"/><path d="M3085.87 14538.5C3085.87 14544.6 3080.95 14549.5 3074.88 14549.5 3068.8 14549.5 3063.88 14544.6 3063.88 14538.5 3063.88 14532.5 3068.8 14527.5 3074.88 14527.5 3080.95 14527.5 3085.87 14532.5 3085.87 14538.5Z" stroke="#4472C4" stroke-width="3.4375" stroke-linejoin="round" stroke-miterlimit="10" fill="#4472C4"/><path d="M3092.87 14543.5C3092.87 14549.6 3087.95 14554.5 3081.87 14554.5 3075.8 14554.5 3070.88 14549.6 3070.88 14543.5 3070.88 14537.5 3075.8 14532.5 3081.87 14532.5 3087.95 14532.5 3092.87 14537.5 3092.87 14543.5Z" stroke="#4472C4" stroke-width="3.4375" stroke-linejoin="round" stroke-miterlimit="10" fill="#4472C4"/><path d="M3098.87 14556.5C3098.87 14562.6 3093.95 14567.5 3087.88 14567.5 3081.8 14567.5 3076.88 14562.6 3076.88 14556.5 3076.88 14550.5 3081.8 14545.5 3087.88 14545.5 3093.95 14545.5 3098.87 14550.5 3098.87 14556.5Z" stroke="#4472C4" stroke-width="3.4375" stroke-linejoin="round" stroke-miterlimit="10" fill="#4472C4"/><path d="M3104.87 14511.5C3104.87 14517.6 3099.95 14522.5 3093.87 14522.5 3087.8 14522.5 3082.88 14517.6 3082.88 14511.5 3082.88 14505.5 3087.8 14500.5 3093.87 14500.5 3099.95 14500.5 3104.87 14505.5 3104.87 14511.5Z" stroke="#4472C4" stroke-width="3.4375" stroke-linejoin="round" stroke-miterlimit="10" fill="#4472C4"/><path d="M3111.87 14536.5C3111.87 14542.6 3106.95 14547.5 3100.88 14547.5 3094.8 14547.5 3089.88 14542.6 3089.88 14536.5 3089.88 14530.5 3094.8 14525.5 3100.88 14525.5 3106.95 14525.5 3111.87 14530.5 3111.87 14536.5Z" stroke="#4472C4" stroke-width="3.4375" stroke-linejoin="round" stroke-miterlimit="10" fill="#4472C4"/><path d="M3117.87 14528.5C3117.87 14534.6 3112.95 14539.5 3106.87 14539.5 3100.8 14539.5 3095.88 14534.6 3095.88 14528.5 3095.88 14522.5 3100.8 14517.5 3106.87 14517.5 3112.95 14517.5 3117.87 14522.5 3117.87 14528.5Z" stroke="#4472C4" stroke-width="3.4375" stroke-linejoin="round" stroke-miterlimit="10" fill="#4472C4"/><path d="M3123.87 14508.5C3123.87 14514.6 3118.95 14519.5 3112.88 14519.5 3106.8 14519.5 3101.88 14514.6 3101.88 14508.5 3101.88 14502.5 3106.8 14497.5 3112.88 14497.5 3118.95 14497.5 3123.87 14502.5 3123.87 14508.5Z" stroke="#4472C4" stroke-width="3.4375" stroke-linejoin="round" stroke-miterlimit="10" fill="#4472C4"/><path d="M3130.87 14510.5C3130.87 14516.6 3125.95 14521.5 3119.88 14521.5 3113.8 14521.5 3108.88 14516.6 3108.88 14510.5 3108.88 14504.5 3113.8 14499.5 3119.88 14499.5 3125.95 14499.5 3130.87 14504.5 3130.87 14510.5Z" stroke="#4472C4" stroke-width="3.4375" stroke-linejoin="round" stroke-miterlimit="10" fill="#4472C4"/><path d="M3136.87 14498.5C3136.87 14504.6 3131.95 14509.5 3125.87 14509.5 3119.8 14509.5 3114.88 14504.6 3114.88 14498.5 3114.88 14492.5 3119.8 14487.5 3125.87 14487.5 3131.95 14487.5 3136.87 14492.5 3136.87 14498.5Z" stroke="#4472C4" stroke-width="3.4375" stroke-linejoin="round" stroke-miterlimit="10" fill="#4472C4"/><path d="M3142.87 14551.5C3142.87 14557.6 3137.95 14562.5 3131.88 14562.5 3125.8 14562.5 3120.88 14557.6 3120.88 14551.5 3120.88 14545.5 3125.8 14540.5 3131.88 14540.5 3137.95 14540.5 3142.87 14545.5 3142.87 14551.5Z" stroke="#4472C4" stroke-width="3.4375" stroke-linejoin="round" stroke-miterlimit="10" fill="#4472C4"/><path d="M3149.87 14545.5C3149.87 14551.6 3144.95 14556.5 3138.87 14556.5 3132.8 14556.5 3127.88 14551.6 3127.88 14545.5 3127.88 14539.5 3132.8 14534.5 3138.87 14534.5 3144.95 14534.5 3149.87 14539.5 3149.87 14545.5Z" stroke="#4472C4" stroke-width="3.4375" stroke-linejoin="round" stroke-miterlimit="10" fill="#4472C4"/><path d="M3155.87 14502.5C3155.87 14508.6 3150.95 14513.5 3144.88 14513.5 3138.8 14513.5 3133.88 14508.6 3133.88 14502.5 3133.88 14496.5 3138.8 14491.5 3144.88 14491.5 3150.95 14491.5 3155.87 14496.5 3155.87 14502.5Z" stroke="#4472C4" stroke-width="3.4375" stroke-linejoin="round" stroke-miterlimit="10" fill="#4472C4"/><path d="M3161.87 14445.5C3161.87 14451.6 3156.95 14456.5 3150.87 14456.5 3144.8 14456.5 3139.88 14451.6 3139.88 14445.5 3139.88 14439.5 3144.8 14434.5 3150.87 14434.5 3156.95 14434.5 3161.87 14439.5 3161.87 14445.5Z" stroke="#4472C4" stroke-width="3.4375" stroke-linejoin="round" stroke-miterlimit="10" fill="#4472C4"/><path d="M3168.87 14487.5C3168.87 14493.6 3163.95 14498.5 3157.88 14498.5 3151.8 14498.5 3146.88 14493.6 3146.88 14487.5 3146.88 14481.5 3151.8 14476.5 3157.88 14476.5 3163.95 14476.5 3168.87 14481.5 3168.87 14487.5Z" stroke="#4472C4" stroke-width="3.4375" stroke-linejoin="round" stroke-miterlimit="10" fill="#4472C4"/><path d="M3174.87 14535.5C3174.87 14541.6 3169.95 14546.5 3163.88 14546.5 3157.8 14546.5 3152.88 14541.6 3152.88 14535.5 3152.88 14529.5 3157.8 14524.5 3163.88 14524.5 3169.95 14524.5 3174.87 14529.5 3174.87 14535.5Z" stroke="#4472C4" stroke-width="3.4375" stroke-linejoin="round" stroke-miterlimit="10" fill="#4472C4"/><path d="M3180.87 14523.5C3180.87 14529.6 3175.95 14534.5 3169.87 14534.5 3163.8 14534.5 3158.88 14529.6 3158.88 14523.5 3158.88 14517.5 3163.8 14512.5 3169.87 14512.5 3175.95 14512.5 3180.87 14517.5 3180.87 14523.5Z" stroke="#4472C4" stroke-width="3.4375" stroke-linejoin="round" stroke-miterlimit="10" fill="#4472C4"/><path d="M3187.87 14540.5C3187.87 14546.6 3182.95 14551.5 3176.88 14551.5 3170.8 14551.5 3165.88 14546.6 3165.88 14540.5 3165.88 14534.5 3170.8 14529.5 3176.88 14529.5 3182.95 14529.5 3187.87 14534.5 3187.87 14540.5Z" stroke="#4472C4" stroke-width="3.4375" stroke-linejoin="round" stroke-miterlimit="10" fill="#4472C4"/><path d="M3193.87 14478.5C3193.87 14484.6 3188.95 14489.5 3182.87 14489.5 3176.8 14489.5 3171.88 14484.6 3171.88 14478.5 3171.88 14472.5 3176.8 14467.5 3182.87 14467.5 3188.95 14467.5 3193.87 14472.5 3193.87 14478.5Z" stroke="#4472C4" stroke-width="3.4375" stroke-linejoin="round" stroke-miterlimit="10" fill="#4472C4"/><path d="M3199.87 14501.5C3199.87 14507.6 3194.95 14512.5 3188.88 14512.5 3182.8 14512.5 3177.88 14507.6 3177.88 14501.5 3177.88 14495.5 3182.8 14490.5 3188.88 14490.5 3194.95 14490.5 3199.87 14495.5 3199.87 14501.5Z" stroke="#4472C4" stroke-width="3.4375" stroke-linejoin="round" stroke-miterlimit="10" fill="#4472C4"/><path d="M3206.87 14520.5C3206.87 14526.6 3201.95 14531.5 3195.88 14531.5 3189.8 14531.5 3184.88 14526.6 3184.88 14520.5 3184.88 14514.5 3189.8 14509.5 3195.88 14509.5 3201.95 14509.5 3206.87 14514.5 3206.87 14520.5Z" stroke="#4472C4" stroke-width="3.4375" stroke-linejoin="round" stroke-miterlimit="10" fill="#4472C4"/><path d="M3212.87 14508.5C3212.87 14514.6 3207.95 14519.5 3201.88 14519.5 3195.8 14519.5 3190.88 14514.6 3190.88 14508.5 3190.88 14502.5 3195.8 14497.5 3201.88 14497.5 3207.95 14497.5 3212.87 14502.5 3212.87 14508.5Z" stroke="#4472C4" stroke-width="3.4375" stroke-linejoin="round" stroke-miterlimit="10" fill="#4472C4"/><path d="M3218.87 14467.5C3218.87 14473.6 3213.95 14478.5 3207.88 14478.5 3201.8 14478.5 3196.88 14473.6 3196.88 14467.5 3196.88 14461.5 3201.8 14456.5 3207.88 14456.5 3213.95 14456.5 3218.87 14461.5 3218.87 14467.5Z" stroke="#4472C4" stroke-width="3.4375" stroke-linejoin="round" stroke-miterlimit="10" fill="#4472C4"/><path d="M3225.87 14505.5C3225.87 14511.6 3220.95 14516.5 3214.87 14516.5 3208.8 14516.5 3203.88 14511.6 3203.88 14505.5 3203.88 14499.5 3208.8 14494.5 3214.87 14494.5 3220.95 14494.5 3225.87 14499.5 3225.87 14505.5Z" stroke="#4472C4" stroke-width="3.4375" stroke-linejoin="round" stroke-miterlimit="10" fill="#4472C4"/><path d="M3231.87 14571.5C3231.87 14577.6 3226.95 14582.5 3220.88 14582.5 3214.8 14582.5 3209.88 14577.6 3209.88 14571.5 3209.88 14565.5 3214.8 14560.5 3220.88 14560.5 3226.95 14560.5 3231.87 14565.5 3231.87 14571.5Z" stroke="#4472C4" stroke-width="3.4375" stroke-linejoin="round" stroke-miterlimit="10" fill="#4472C4"/><path d="M3237.87 14506.5C3237.87 14512.6 3232.95 14517.5 3226.87 14517.5 3220.8 14517.5 3215.88 14512.6 3215.88 14506.5 3215.88 14500.5 3220.8 14495.5 3226.87 14495.5 3232.95 14495.5 3237.87 14500.5 3237.87 14506.5Z" stroke="#4472C4" stroke-width="3.4375" stroke-linejoin="round" stroke-miterlimit="10" fill="#4472C4"/><path d="M3243.87 14564.5C3243.87 14570.6 3238.95 14575.5 3232.88 14575.5 3226.8 14575.5 3221.88 14570.6 3221.88 14564.5 3221.88 14558.5 3226.8 14553.5 3232.88 14553.5 3238.95 14553.5 3243.87 14558.5 3243.87 14564.5Z" stroke="#4472C4" stroke-width="3.4375" stroke-linejoin="round" stroke-miterlimit="10" fill="#4472C4"/><path d="M3250.87 14506.5C3250.87 14512.6 3245.95 14517.5 3239.88 14517.5 3233.8 14517.5 3228.88 14512.6 3228.88 14506.5 3228.88 14500.5 3233.8 14495.5 3239.88 14495.5 3245.95 14495.5 3250.87 14500.5 3250.87 14506.5Z" stroke="#4472C4" stroke-width="3.4375" stroke-linejoin="round" stroke-miterlimit="10" fill="#4472C4"/><path d="M3256.87 14567.5C3256.87 14573.6 3251.95 14578.5 3245.88 14578.5 3239.8 14578.5 3234.88 14573.6 3234.88 14567.5 3234.88 14561.5 3239.8 14556.5 3245.88 14556.5 3251.95 14556.5 3256.87 14561.5 3256.87 14567.5Z" stroke="#4472C4" stroke-width="3.4375" stroke-linejoin="round" stroke-miterlimit="10" fill="#4472C4"/><path d="M3262.87 14515.5C3262.87 14521.6 3257.95 14526.5 3251.88 14526.5 3245.8 14526.5 3240.88 14521.6 3240.88 14515.5 3240.88 14509.5 3245.8 14504.5 3251.88 14504.5 3257.95 14504.5 3262.87 14509.5 3262.87 14515.5Z" stroke="#4472C4" stroke-width="3.4375" stroke-linejoin="round" stroke-miterlimit="10" fill="#4472C4"/><path d="M3269.87 14539.5C3269.87 14545.6 3264.95 14550.5 3258.87 14550.5 3252.8 14550.5 3247.88 14545.6 3247.88 14539.5 3247.88 14533.5 3252.8 14528.5 3258.87 14528.5 3264.95 14528.5 3269.87 14533.5 3269.87 14539.5Z" stroke="#4472C4" stroke-width="3.4375" stroke-linejoin="round" stroke-miterlimit="10" fill="#4472C4"/><path d="M3275.87 14515.5C3275.87 14521.6 3270.95 14526.5 3264.88 14526.5 3258.8 14526.5 3253.88 14521.6 3253.88 14515.5 3253.88 14509.5 3258.8 14504.5 3264.88 14504.5 3270.95 14504.5 3275.87 14509.5 3275.87 14515.5Z" stroke="#4472C4" stroke-width="3.4375" stroke-linejoin="round" stroke-miterlimit="10" fill="#4472C4"/><path d="M3281.87 14491.5C3281.87 14497.6 3276.95 14502.5 3270.87 14502.5 3264.8 14502.5 3259.88 14497.6 3259.88 14491.5 3259.88 14485.5 3264.8 14480.5 3270.87 14480.5 3276.95 14480.5 3281.87 14485.5 3281.87 14491.5Z" stroke="#4472C4" stroke-width="3.4375" stroke-linejoin="round" stroke-miterlimit="10" fill="#4472C4"/><path d="M3288.87 14530.5C3288.87 14536.6 3283.95 14541.5 3277.88 14541.5 3271.8 14541.5 3266.88 14536.6 3266.88 14530.5 3266.88 14524.5 3271.8 14519.5 3277.88 14519.5 3283.95 14519.5 3288.87 14524.5 3288.87 14530.5Z" stroke="#4472C4" stroke-width="3.4375" stroke-linejoin="round" stroke-miterlimit="10" fill="#4472C4"/><path d="M3294.87 14541.5C3294.87 14547.6 3289.95 14552.5 3283.88 14552.5 3277.8 14552.5 3272.88 14547.6 3272.88 14541.5 3272.88 14535.5 3277.8 14530.5 3283.88 14530.5 3289.95 14530.5 3294.87 14535.5 3294.87 14541.5Z" stroke="#4472C4" stroke-width="3.4375" stroke-linejoin="round" stroke-miterlimit="10" fill="#4472C4"/><path d="M3300.87 14482.5C3300.87 14488.6 3295.95 14493.5 3289.88 14493.5 3283.8 14493.5 3278.88 14488.6 3278.88 14482.5 3278.88 14476.5 3283.8 14471.5 3289.88 14471.5 3295.95 14471.5 3300.87 14476.5 3300.87 14482.5Z" stroke="#4472C4" stroke-width="3.4375" stroke-linejoin="round" stroke-miterlimit="10" fill="#4472C4"/><path d="M3307.87 14563.5C3307.87 14569.6 3302.95 14574.5 3296.88 14574.5 3290.8 14574.5 3285.88 14569.6 3285.88 14563.5 3285.88 14557.5 3290.8 14552.5 3296.88 14552.5 3302.95 14552.5 3307.87 14557.5 3307.87 14563.5Z" stroke="#4472C4" stroke-width="3.4375" stroke-linejoin="round" stroke-miterlimit="10" fill="#4472C4"/><path d="M3313.87 14586.5C3313.87 14592.6 3308.95 14597.5 3302.87 14597.5 3296.8 14597.5 3291.88 14592.6 3291.88 14586.5 3291.88 14580.5 3296.8 14575.5 3302.87 14575.5 3308.95 14575.5 3313.87 14580.5 3313.87 14586.5Z" stroke="#4472C4" stroke-width="3.4375" stroke-linejoin="round" stroke-miterlimit="10" fill="#4472C4"/><path d="M3319.87 14559.5C3319.87 14565.6 3314.95 14570.5 3308.88 14570.5 3302.8 14570.5 3297.88 14565.6 3297.88 14559.5 3297.88 14553.5 3302.8 14548.5 3308.88 14548.5 3314.95 14548.5 3319.87 14553.5 3319.87 14559.5Z" stroke="#4472C4" stroke-width="3.4375" stroke-linejoin="round" stroke-miterlimit="10" fill="#4472C4"/><path d="M3326.87 14524.5C3326.87 14530.6 3321.95 14535.5 3315.87 14535.5 3309.8 14535.5 3304.88 14530.6 3304.88 14524.5 3304.88 14518.5 3309.8 14513.5 3315.87 14513.5 3321.95 14513.5 3326.87 14518.5 3326.87 14524.5Z" stroke="#4472C4" stroke-width="3.4375" stroke-linejoin="round" stroke-miterlimit="10" fill="#4472C4"/><path d="M3332.87 14527.5C3332.87 14533.6 3327.95 14538.5 3321.88 14538.5 3315.8 14538.5 3310.88 14533.6 3310.88 14527.5 3310.88 14521.5 3315.8 14516.5 3321.88 14516.5 3327.95 14516.5 3332.87 14521.5 3332.87 14527.5Z" stroke="#4472C4" stroke-width="3.4375" stroke-linejoin="round" stroke-miterlimit="10" fill="#4472C4"/><path d="M3338.87 14501.5C3338.87 14507.6 3333.95 14512.5 3327.88 14512.5 3321.8 14512.5 3316.88 14507.6 3316.88 14501.5 3316.88 14495.5 3321.8 14490.5 3327.88 14490.5 3333.95 14490.5 3338.87 14495.5 3338.87 14501.5Z" stroke="#4472C4" stroke-width="3.4375" stroke-linejoin="round" stroke-miterlimit="10" fill="#4472C4"/><path d="M3345.87 14433.5C3345.87 14439.6 3340.95 14444.5 3334.87 14444.5 3328.8 14444.5 3323.88 14439.6 3323.88 14433.5 3323.88 14427.5 3328.8 14422.5 3334.87 14422.5 3340.95 14422.5 3345.87 14427.5 3345.87 14433.5Z" stroke="#4472C4" stroke-width="3.4375" stroke-linejoin="round" stroke-miterlimit="10" fill="#4472C4"/><path d="M3351.87 14470.5C3351.87 14476.6 3346.95 14481.5 3340.88 14481.5 3334.8 14481.5 3329.88 14476.6 3329.88 14470.5 3329.88 14464.5 3334.8 14459.5 3340.88 14459.5 3346.95 14459.5 3351.87 14464.5 3351.87 14470.5Z" stroke="#4472C4" stroke-width="3.4375" stroke-linejoin="round" stroke-miterlimit="10" fill="#4472C4"/><path d="M3357.87 14502.5C3357.87 14508.6 3352.95 14513.5 3346.87 14513.5 3340.8 14513.5 3335.88 14508.6 3335.88 14502.5 3335.88 14496.5 3340.8 14491.5 3346.87 14491.5 3352.95 14491.5 3357.87 14496.5 3357.87 14502.5Z" stroke="#4472C4" stroke-width="3.4375" stroke-linejoin="round" stroke-miterlimit="10" fill="#4472C4"/><path d="M3364.87 14531.5C3364.87 14537.6 3359.95 14542.5 3353.88 14542.5 3347.8 14542.5 3342.88 14537.6 3342.88 14531.5 3342.88 14525.5 3347.8 14520.5 3353.88 14520.5 3359.95 14520.5 3364.87 14525.5 3364.87 14531.5Z" stroke="#4472C4" stroke-width="3.4375" stroke-linejoin="round" stroke-miterlimit="10" fill="#4472C4"/><path d="M3370.87 14523.5C3370.87 14529.6 3365.95 14534.5 3359.87 14534.5 3353.8 14534.5 3348.88 14529.6 3348.88 14523.5 3348.88 14517.5 3353.8 14512.5 3359.87 14512.5 3365.95 14512.5 3370.87 14517.5 3370.87 14523.5Z" stroke="#4472C4" stroke-width="3.4375" stroke-linejoin="round" stroke-miterlimit="10" fill="#4472C4"/><path d="M3376.87 14583.5C3376.87 14589.6 3371.95 14594.5 3365.88 14594.5 3359.8 14594.5 3354.88 14589.6 3354.88 14583.5 3354.88 14577.5 3359.8 14572.5 3365.88 14572.5 3371.95 14572.5 3376.87 14577.5 3376.87 14583.5Z" stroke="#4472C4" stroke-width="3.4375" stroke-linejoin="round" stroke-miterlimit="10" fill="#4472C4"/><path d="M3383.87 14550.5C3383.87 14556.6 3378.95 14561.5 3372.88 14561.5 3366.8 14561.5 3361.88 14556.6 3361.88 14550.5 3361.88 14544.5 3366.8 14539.5 3372.88 14539.5 3378.95 14539.5 3383.87 14544.5 3383.87 14550.5Z" stroke="#4472C4" stroke-width="3.4375" stroke-linejoin="round" stroke-miterlimit="10" fill="#4472C4"/><path d="M3389.87 14585.5C3389.87 14591.6 3384.95 14596.5 3378.87 14596.5 3372.8 14596.5 3367.88 14591.6 3367.88 14585.5 3367.88 14579.5 3372.8 14574.5 3378.87 14574.5 3384.95 14574.5 3389.87 14579.5 3389.87 14585.5Z" stroke="#4472C4" stroke-width="3.4375" stroke-linejoin="round" stroke-miterlimit="10" fill="#4472C4"/><path d="M3395.87 14550.5C3395.87 14556.6 3390.95 14561.5 3384.88 14561.5 3378.8 14561.5 3373.88 14556.6 3373.88 14550.5 3373.88 14544.5 3378.8 14539.5 3384.88 14539.5 3390.95 14539.5 3395.87 14544.5 3395.87 14550.5Z" stroke="#4472C4" stroke-width="3.4375" stroke-linejoin="round" stroke-miterlimit="10" fill="#4472C4"/><path d="M3402.87 14482.5C3402.87 14488.6 3397.95 14493.5 3391.87 14493.5 3385.8 14493.5 3380.88 14488.6 3380.88 14482.5 3380.88 14476.5 3385.8 14471.5 3391.87 14471.5 3397.95 14471.5 3402.87 14476.5 3402.87 14482.5Z" stroke="#4472C4" stroke-width="3.4375" stroke-linejoin="round" stroke-miterlimit="10" fill="#4472C4"/><path d="M3408.87 14518.5C3408.87 14524.6 3403.95 14529.5 3397.88 14529.5 3391.8 14529.5 3386.88 14524.6 3386.88 14518.5 3386.88 14512.5 3391.8 14507.5 3397.88 14507.5 3403.95 14507.5 3408.87 14512.5 3408.87 14518.5Z" stroke="#4472C4" stroke-width="3.4375" stroke-linejoin="round" stroke-miterlimit="10" fill="#4472C4"/><path d="M3414.87 14555.5C3414.87 14561.6 3409.95 14566.5 3403.87 14566.5 3397.8 14566.5 3392.88 14561.6 3392.88 14555.5 3392.88 14549.5 3397.8 14544.5 3403.87 14544.5 3409.95 14544.5 3414.87 14549.5 3414.87 14555.5Z" stroke="#4472C4" stroke-width="3.4375" stroke-linejoin="round" stroke-miterlimit="10" fill="#4472C4"/><path d="M3421.87 14520.5C3421.87 14526.6 3416.95 14531.5 3410.88 14531.5 3404.8 14531.5 3399.88 14526.6 3399.88 14520.5 3399.88 14514.5 3404.8 14509.5 3410.88 14509.5 3416.95 14509.5 3421.87 14514.5 3421.87 14520.5Z" stroke="#4472C4" stroke-width="3.4375" stroke-linejoin="round" stroke-miterlimit="10" fill="#4472C4"/><path d="M3427.87 14520.5C3427.87 14526.6 3422.95 14531.5 3416.88 14531.5 3410.8 14531.5 3405.88 14526.6 3405.88 14520.5 3405.88 14514.5 3410.8 14509.5 3416.88 14509.5 3422.95 14509.5 3427.87 14514.5 3427.87 14520.5Z" stroke="#4472C4" stroke-width="3.4375" stroke-linejoin="round" stroke-miterlimit="10" fill="#4472C4"/><path d="M3433.87 14475.5C3433.87 14481.6 3428.95 14486.5 3422.87 14486.5 3416.8 14486.5 3411.88 14481.6 3411.88 14475.5 3411.88 14469.5 3416.8 14464.5 3422.87 14464.5 3428.95 14464.5 3433.87 14469.5 3433.87 14475.5Z" stroke="#4472C4" stroke-width="3.4375" stroke-linejoin="round" stroke-miterlimit="10" fill="#4472C4"/><path d="M3440.87 14549.5C3440.87 14555.6 3435.95 14560.5 3429.88 14560.5 3423.8 14560.5 3418.88 14555.6 3418.88 14549.5 3418.88 14543.5 3423.8 14538.5 3429.88 14538.5 3435.95 14538.5 3440.87 14543.5 3440.87 14549.5Z" stroke="#4472C4" stroke-width="3.4375" stroke-linejoin="round" stroke-miterlimit="10" fill="#4472C4"/><path d="M3446.87 14581.5C3446.87 14587.6 3441.95 14592.5 3435.87 14592.5 3429.8 14592.5 3424.88 14587.6 3424.88 14581.5 3424.88 14575.5 3429.8 14570.5 3435.87 14570.5 3441.95 14570.5 3446.87 14575.5 3446.87 14581.5Z" stroke="#4472C4" stroke-width="3.4375" stroke-linejoin="round" stroke-miterlimit="10" fill="#4472C4"/><path d="M3452.87 14522.5C3452.87 14528.6 3447.95 14533.5 3441.88 14533.5 3435.8 14533.5 3430.88 14528.6 3430.88 14522.5 3430.88 14516.5 3435.8 14511.5 3441.88 14511.5 3447.95 14511.5 3452.87 14516.5 3452.87 14522.5Z" stroke="#4472C4" stroke-width="3.4375" stroke-linejoin="round" stroke-miterlimit="10" fill="#4472C4"/><path d="M3459.87 14558.5C3459.87 14564.6 3454.95 14569.5 3448.88 14569.5 3442.8 14569.5 3437.88 14564.6 3437.88 14558.5 3437.88 14552.5 3442.8 14547.5 3448.88 14547.5 3454.95 14547.5 3459.87 14552.5 3459.87 14558.5Z" stroke="#4472C4" stroke-width="3.4375" stroke-linejoin="round" stroke-miterlimit="10" fill="#4472C4"/><path d="M3465.87 14516.5C3465.87 14522.6 3460.95 14527.5 3454.88 14527.5 3448.8 14527.5 3443.88 14522.6 3443.88 14516.5 3443.88 14510.5 3448.8 14505.5 3454.88 14505.5 3460.95 14505.5 3465.87 14510.5 3465.87 14516.5Z" stroke="#4472C4" stroke-width="3.4375" stroke-linejoin="round" stroke-miterlimit="10" fill="#4472C4"/><path d="M3471.87 14489.5C3471.87 14495.6 3466.95 14500.5 3460.88 14500.5 3454.8 14500.5 3449.88 14495.6 3449.88 14489.5 3449.88 14483.5 3454.8 14478.5 3460.88 14478.5 3466.95 14478.5 3471.87 14483.5 3471.87 14489.5Z" stroke="#4472C4" stroke-width="3.4375" stroke-linejoin="round" stroke-miterlimit="10" fill="#4472C4"/><path d="M3478.87 14553.5C3478.87 14559.6 3473.95 14564.5 3467.87 14564.5 3461.8 14564.5 3456.88 14559.6 3456.88 14553.5 3456.88 14547.5 3461.8 14542.5 3467.87 14542.5 3473.95 14542.5 3478.87 14547.5 3478.87 14553.5Z" stroke="#4472C4" stroke-width="3.4375" stroke-linejoin="round" stroke-miterlimit="10" fill="#4472C4"/><path d="M3484.87 14515.5C3484.87 14521.6 3479.95 14526.5 3473.88 14526.5 3467.8 14526.5 3462.88 14521.6 3462.88 14515.5 3462.88 14509.5 3467.8 14504.5 3473.88 14504.5 3479.95 14504.5 3484.87 14509.5 3484.87 14515.5Z" stroke="#4472C4" stroke-width="3.4375" stroke-linejoin="round" stroke-miterlimit="10" fill="#4472C4"/><path d="M3490.87 14554.5C3490.87 14560.6 3485.95 14565.5 3479.87 14565.5 3473.8 14565.5 3468.88 14560.6 3468.88 14554.5 3468.88 14548.5 3473.8 14543.5 3479.87 14543.5 3485.95 14543.5 3490.87 14548.5 3490.87 14554.5Z" stroke="#4472C4" stroke-width="3.4375" stroke-linejoin="round" stroke-miterlimit="10" fill="#4472C4"/><path d="M3497.87 14474.5C3497.87 14480.6 3492.95 14485.5 3486.88 14485.5 3480.8 14485.5 3475.88 14480.6 3475.88 14474.5 3475.88 14468.5 3480.8 14463.5 3486.88 14463.5 3492.95 14463.5 3497.87 14468.5 3497.87 14474.5Z" stroke="#4472C4" stroke-width="3.4375" stroke-linejoin="round" stroke-miterlimit="10" fill="#4472C4"/><path d="M3503.87 14587.5C3503.87 14593.6 3498.95 14598.5 3492.88 14598.5 3486.8 14598.5 3481.88 14593.6 3481.88 14587.5 3481.88 14581.5 3486.8 14576.5 3492.88 14576.5 3498.95 14576.5 3503.87 14581.5 3503.87 14587.5Z" stroke="#4472C4" stroke-width="3.4375" stroke-linejoin="round" stroke-miterlimit="10" fill="#4472C4"/><path d="M3509.87 14601.5C3509.87 14607.6 3504.95 14612.5 3498.88 14612.5 3492.8 14612.5 3487.88 14607.6 3487.88 14601.5 3487.88 14595.5 3492.8 14590.5 3498.88 14590.5 3504.95 14590.5 3509.87 14595.5 3509.87 14601.5Z" stroke="#4472C4" stroke-width="3.4375" stroke-linejoin="round" stroke-miterlimit="10" fill="#4472C4"/><path d="M3516.87 14594.5C3516.87 14600.6 3511.95 14605.5 3505.88 14605.5 3499.8 14605.5 3494.88 14600.6 3494.88 14594.5 3494.88 14588.5 3499.8 14583.5 3505.88 14583.5 3511.95 14583.5 3516.87 14588.5 3516.87 14594.5Z" stroke="#4472C4" stroke-width="3.4375" stroke-linejoin="round" stroke-miterlimit="10" fill="#4472C4"/><path d="M3522.87 14540.5C3522.87 14546.6 3517.95 14551.5 3511.87 14551.5 3505.8 14551.5 3500.88 14546.6 3500.88 14540.5 3500.88 14534.5 3505.8 14529.5 3511.87 14529.5 3517.95 14529.5 3522.87 14534.5 3522.87 14540.5Z" stroke="#4472C4" stroke-width="3.4375" stroke-linejoin="round" stroke-miterlimit="10" fill="#4472C4"/><path d="M3528.87 14627.5C3528.87 14633.6 3523.95 14638.5 3517.88 14638.5 3511.8 14638.5 3506.88 14633.6 3506.88 14627.5 3506.88 14621.5 3511.8 14616.5 3517.88 14616.5 3523.95 14616.5 3528.87 14621.5 3528.87 14627.5Z" stroke="#4472C4" stroke-width="3.4375" stroke-linejoin="round" stroke-miterlimit="10" fill="#4472C4"/><path d="M3534.87 14547.5C3534.87 14553.6 3529.95 14558.5 3523.87 14558.5 3517.8 14558.5 3512.88 14553.6 3512.88 14547.5 3512.88 14541.5 3517.8 14536.5 3523.87 14536.5 3529.95 14536.5 3534.87 14541.5 3534.87 14547.5Z" stroke="#4472C4" stroke-width="3.4375" stroke-linejoin="round" stroke-miterlimit="10" fill="#4472C4"/><path d="M3541.87 14597.5C3541.87 14603.6 3536.95 14608.5 3530.88 14608.5 3524.8 14608.5 3519.88 14603.6 3519.88 14597.5 3519.88 14591.5 3524.8 14586.5 3530.88 14586.5 3536.95 14586.5 3541.87 14591.5 3541.87 14597.5Z" stroke="#4472C4" stroke-width="3.4375" stroke-linejoin="round" stroke-miterlimit="10" fill="#4472C4"/><path d="M3547.87 14597.5C3547.87 14603.6 3542.95 14608.5 3536.88 14608.5 3530.8 14608.5 3525.88 14603.6 3525.88 14597.5 3525.88 14591.5 3530.8 14586.5 3536.88 14586.5 3542.95 14586.5 3547.87 14591.5 3547.87 14597.5Z" stroke="#4472C4" stroke-width="3.4375" stroke-linejoin="round" stroke-miterlimit="10" fill="#4472C4"/><path d="M3553.87 14560.5C3553.87 14566.6 3548.95 14571.5 3542.88 14571.5 3536.8 14571.5 3531.88 14566.6 3531.88 14560.5 3531.88 14554.5 3536.8 14549.5 3542.88 14549.5 3548.95 14549.5 3553.87 14554.5 3553.87 14560.5Z" stroke="#4472C4" stroke-width="3.4375" stroke-linejoin="round" stroke-miterlimit="10" fill="#4472C4"/><path d="M3560.87 14579.5C3560.87 14585.6 3555.95 14590.5 3549.88 14590.5 3543.8 14590.5 3538.88 14585.6 3538.88 14579.5 3538.88 14573.5 3543.8 14568.5 3549.88 14568.5 3555.95 14568.5 3560.87 14573.5 3560.87 14579.5Z" stroke="#4472C4" stroke-width="3.4375" stroke-linejoin="round" stroke-miterlimit="10" fill="#4472C4"/><path d="M3566.87 14551.5C3566.87 14557.6 3561.95 14562.5 3555.87 14562.5 3549.8 14562.5 3544.88 14557.6 3544.88 14551.5 3544.88 14545.5 3549.8 14540.5 3555.87 14540.5 3561.95 14540.5 3566.87 14545.5 3566.87 14551.5Z" stroke="#4472C4" stroke-width="3.4375" stroke-linejoin="round" stroke-miterlimit="10" fill="#4472C4"/><path d="M3572.87 14568.5C3572.87 14574.6 3567.95 14579.5 3561.88 14579.5 3555.8 14579.5 3550.88 14574.6 3550.88 14568.5 3550.88 14562.5 3555.8 14557.5 3561.88 14557.5 3567.95 14557.5 3572.87 14562.5 3572.87 14568.5Z" stroke="#4472C4" stroke-width="3.4375" stroke-linejoin="round" stroke-miterlimit="10" fill="#4472C4"/><path d="M3579.87 14480.5C3579.87 14486.6 3574.95 14491.5 3568.87 14491.5 3562.8 14491.5 3557.88 14486.6 3557.88 14480.5 3557.88 14474.5 3562.8 14469.5 3568.87 14469.5 3574.95 14469.5 3579.87 14474.5 3579.87 14480.5Z" stroke="#4472C4" stroke-width="3.4375" stroke-linejoin="round" stroke-miterlimit="10" fill="#4472C4"/><path d="M3585.87 14550.5C3585.87 14556.6 3580.95 14561.5 3574.88 14561.5 3568.8 14561.5 3563.88 14556.6 3563.88 14550.5 3563.88 14544.5 3568.8 14539.5 3574.88 14539.5 3580.95 14539.5 3585.87 14544.5 3585.87 14550.5Z" stroke="#4472C4" stroke-width="3.4375" stroke-linejoin="round" stroke-miterlimit="10" fill="#4472C4"/><path d="M3591.87 14580.5C3591.87 14586.6 3586.95 14591.5 3580.88 14591.5 3574.8 14591.5 3569.88 14586.6 3569.88 14580.5 3569.88 14574.5 3574.8 14569.5 3580.88 14569.5 3586.95 14569.5 3591.87 14574.5 3591.87 14580.5Z" stroke="#4472C4" stroke-width="3.4375" stroke-linejoin="round" stroke-miterlimit="10" fill="#4472C4"/><path d="M3598.87 14588.5C3598.87 14594.6 3593.95 14599.5 3587.87 14599.5 3581.8 14599.5 3576.88 14594.6 3576.88 14588.5 3576.88 14582.5 3581.8 14577.5 3587.87 14577.5 3593.95 14577.5 3598.87 14582.5 3598.87 14588.5Z" stroke="#4472C4" stroke-width="3.4375" stroke-linejoin="round" stroke-miterlimit="10" fill="#4472C4"/><path d="M3604.87 14557.5C3604.87 14563.6 3599.95 14568.5 3593.88 14568.5 3587.8 14568.5 3582.88 14563.6 3582.88 14557.5 3582.88 14551.5 3587.8 14546.5 3593.88 14546.5 3599.95 14546.5 3604.87 14551.5 3604.87 14557.5Z" stroke="#4472C4" stroke-width="3.4375" stroke-linejoin="round" stroke-miterlimit="10" fill="#4472C4"/><path d="M3610.87 14576.5C3610.87 14582.6 3605.95 14587.5 3599.87 14587.5 3593.8 14587.5 3588.88 14582.6 3588.88 14576.5 3588.88 14570.5 3593.8 14565.5 3599.87 14565.5 3605.95 14565.5 3610.87 14570.5 3610.87 14576.5Z" stroke="#4472C4" stroke-width="3.4375" stroke-linejoin="round" stroke-miterlimit="10" fill="#4472C4"/><path d="M3617.87 14581.5C3617.87 14587.6 3612.95 14592.5 3606.88 14592.5 3600.8 14592.5 3595.88 14587.6 3595.88 14581.5 3595.88 14575.5 3600.8 14570.5 3606.88 14570.5 3612.95 14570.5 3617.87 14575.5 3617.87 14581.5Z" stroke="#4472C4" stroke-width="3.4375" stroke-linejoin="round" stroke-miterlimit="10" fill="#4472C4"/><path d="M3623.87 14477.5C3623.87 14483.6 3618.95 14488.5 3612.87 14488.5 3606.8 14488.5 3601.88 14483.6 3601.88 14477.5 3601.88 14471.5 3606.8 14466.5 3612.87 14466.5 3618.95 14466.5 3623.87 14471.5 3623.87 14477.5Z" stroke="#4472C4" stroke-width="3.4375" stroke-linejoin="round" stroke-miterlimit="10" fill="#4472C4"/><path d="M3629.87 14571.5C3629.87 14577.6 3624.95 14582.5 3618.88 14582.5 3612.8 14582.5 3607.88 14577.6 3607.88 14571.5 3607.88 14565.5 3612.8 14560.5 3618.88 14560.5 3624.95 14560.5 3629.87 14565.5 3629.87 14571.5Z" stroke="#4472C4" stroke-width="3.4375" stroke-linejoin="round" stroke-miterlimit="10" fill="#4472C4"/><path d="M3636.87 14575.5C3636.87 14581.6 3631.95 14586.5 3625.88 14586.5 3619.8 14586.5 3614.88 14581.6 3614.88 14575.5 3614.88 14569.5 3619.8 14564.5 3625.88 14564.5 3631.95 14564.5 3636.87 14569.5 3636.87 14575.5Z" stroke="#4472C4" stroke-width="3.4375" stroke-linejoin="round" stroke-miterlimit="10" fill="#4472C4"/><path d="M3642.87 14628.5C3642.87 14634.6 3637.95 14639.5 3631.87 14639.5 3625.8 14639.5 3620.88 14634.6 3620.88 14628.5 3620.88 14622.5 3625.8 14617.5 3631.87 14617.5 3637.95 14617.5 3642.87 14622.5 3642.87 14628.5Z" stroke="#4472C4" stroke-width="3.4375" stroke-linejoin="round" stroke-miterlimit="10" fill="#4472C4"/><path d="M3648.87 14544.5C3648.87 14550.6 3643.95 14555.5 3637.88 14555.5 3631.8 14555.5 3626.88 14550.6 3626.88 14544.5 3626.88 14538.5 3631.8 14533.5 3637.88 14533.5 3643.95 14533.5 3648.87 14538.5 3648.87 14544.5Z" stroke="#4472C4" stroke-width="3.4375" stroke-linejoin="round" stroke-miterlimit="10" fill="#4472C4"/><path d="M3655.87 14511.5C3655.87 14517.6 3650.95 14522.5 3644.87 14522.5 3638.8 14522.5 3633.88 14517.6 3633.88 14511.5 3633.88 14505.5 3638.8 14500.5 3644.87 14500.5 3650.95 14500.5 3655.87 14505.5 3655.87 14511.5Z" stroke="#4472C4" stroke-width="3.4375" stroke-linejoin="round" stroke-miterlimit="10" fill="#4472C4"/><path d="M3661.87 14507.5C3661.87 14513.6 3656.95 14518.5 3650.88 14518.5 3644.8 14518.5 3639.88 14513.6 3639.88 14507.5 3639.88 14501.5 3644.8 14496.5 3650.88 14496.5 3656.95 14496.5 3661.87 14501.5 3661.87 14507.5Z" stroke="#4472C4" stroke-width="3.4375" stroke-linejoin="round" stroke-miterlimit="10" fill="#4472C4"/><path d="M3667.87 14503.5C3667.87 14509.6 3662.95 14514.5 3656.87 14514.5 3650.8 14514.5 3645.88 14509.6 3645.88 14503.5 3645.88 14497.5 3650.8 14492.5 3656.87 14492.5 3662.95 14492.5 3667.87 14497.5 3667.87 14503.5Z" stroke="#4472C4" stroke-width="3.4375" stroke-linejoin="round" stroke-miterlimit="10" fill="#4472C4"/><path d="M3674.87 14464.5C3674.87 14470.6 3669.95 14475.5 3663.88 14475.5 3657.8 14475.5 3652.88 14470.6 3652.88 14464.5 3652.88 14458.5 3657.8 14453.5 3663.88 14453.5 3669.95 14453.5 3674.87 14458.5 3674.87 14464.5Z" stroke="#4472C4" stroke-width="3.4375" stroke-linejoin="round" stroke-miterlimit="10" fill="#4472C4"/><path d="M3680.87 14466.5C3680.87 14472.6 3675.95 14477.5 3669.88 14477.5 3663.8 14477.5 3658.88 14472.6 3658.88 14466.5 3658.88 14460.5 3663.8 14455.5 3669.88 14455.5 3675.95 14455.5 3680.87 14460.5 3680.87 14466.5Z" stroke="#4472C4" stroke-width="3.4375" stroke-linejoin="round" stroke-miterlimit="10" fill="#4472C4"/><path d="M3686.87 14474.5C3686.87 14480.6 3681.95 14485.5 3675.87 14485.5 3669.8 14485.5 3664.88 14480.6 3664.88 14474.5 3664.88 14468.5 3669.8 14463.5 3675.87 14463.5 3681.95 14463.5 3686.87 14468.5 3686.87 14474.5Z" stroke="#4472C4" stroke-width="3.4375" stroke-linejoin="round" stroke-miterlimit="10" fill="#4472C4"/><path d="M3693.87 14465.5C3693.87 14471.6 3688.95 14476.5 3682.88 14476.5 3676.8 14476.5 3671.88 14471.6 3671.88 14465.5 3671.88 14459.5 3676.8 14454.5 3682.88 14454.5 3688.95 14454.5 3693.87 14459.5 3693.87 14465.5Z" stroke="#4472C4" stroke-width="3.4375" stroke-linejoin="round" stroke-miterlimit="10" fill="#4472C4"/><path d="M3699.87 14465.5C3699.87 14471.6 3694.95 14476.5 3688.87 14476.5 3682.8 14476.5 3677.88 14471.6 3677.88 14465.5 3677.88 14459.5 3682.8 14454.5 3688.87 14454.5 3694.95 14454.5 3699.87 14459.5 3699.87 14465.5Z" stroke="#4472C4" stroke-width="3.4375" stroke-linejoin="round" stroke-miterlimit="10" fill="#4472C4"/></g><g clip-path="url(#clip10)"><path d="M0 0 1392 293" stroke="#C00000" stroke-width="6.875" stroke-linecap="round" stroke-linejoin="round" stroke-miterlimit="10" stroke-dasharray="0 13.75" fill="none" fill-rule="evenodd" transform="matrix(1 0 0 -1 2296.5 14752.5)"/></g><g clip-path="url(#clip11)"><text fill="#595959" font-family="Calibri,Calibri_MSFontService,sans-serif" font-weight="400" font-size="41" transform="matrix(1 0 0 1 3533.13 14359)">y = 84,57x + 12360</text></g><g clip-path="url(#clip12)"><text fill="#595959" font-family="Calibri,Calibri_MSFontService,sans-serif" font-weight="400" font-size="41" transform="matrix(1 0 0 1 2141.36 15195)">-15000</text></g><g clip-path="url(#clip13)"><text fill="#595959" font-family="Calibri,Calibri_MSFontService,sans-serif" font-weight="400" font-size="41" transform="matrix(1 0 0 1 2141.36 15116)">-10000</text></g><g clip-path="url(#clip14)"><text fill="#595959" font-family="Calibri,Calibri_MSFontService,sans-serif" font-weight="400" font-size="41" transform="matrix(1 0 0 1 2162.26 15038)">-5000</text></g><g clip-path="url(#clip15)"><text fill="#595959" font-family="Calibri,Calibri_MSFontService,sans-serif" font-weight="400" font-size="41" transform="matrix(1 0 0 1 2237.58 14959)">0</text></g><g clip-path="url(#clip16)"><text fill="#595959" font-family="Calibri,Calibri_MSFontService,sans-serif" font-weight="400" font-size="41" transform="matrix(1 0 0 1 2174.88 14880)">5000</text></g><g clip-path="url(#clip17)"><text fill="#595959" font-family="Calibri,Calibri_MSFontService,sans-serif" font-weight="400" font-size="41" transform="matrix(1 0 0 1 2153.98 14801)">10000</text></g><g clip-path="url(#clip18)"><text fill="#595959" font-family="Calibri,Calibri_MSFontService,sans-serif" font-weight="400" font-size="41" transform="matrix(1 0 0 1 2153.98 14722)">15000</text></g><g clip-path="url(#clip19)"><text fill="#595959" font-family="Calibri,Calibri_MSFontService,sans-serif" font-weight="400" font-size="41" transform="matrix(1 0 0 1 2153.98 14644)">20000</text></g><g clip-path="url(#clip20)"><text fill="#595959" font-family="Calibri,Calibri_MSFontService,sans-serif" font-weight="400" font-size="41" transform="matrix(1 0 0 1 2153.98 14565)">25000</text></g><g clip-path="url(#clip21)"><text fill="#595959" font-family="Calibri,Calibri_MSFontService,sans-serif" font-weight="400" font-size="41" transform="matrix(1 0 0 1 2153.98 14486)">30000</text></g><g clip-path="url(#clip22)"><text fill="#595959" font-family="Calibri,Calibri_MSFontService,sans-serif" font-weight="400" font-size="41" transform="matrix(1 0 0 1 2153.98 14407)">35000</text></g><g clip-path="url(#clip23)"><text fill="#595959" font-family="Calibri,Calibri_MSFontService,sans-serif" font-weight="400" font-size="41" transform="matrix(1 0 0 1 2153.98 14329)">40000</text></g><g clip-path="url(#clip24)"><text fill="#595959" font-family="Calibri,Calibri_MSFontService,sans-serif" font-weight="400" font-size="41" transform="matrix(1 0 0 1 2286.3 15012)">0</text></g><g clip-path="url(#clip25)"><text fill="#595959" font-family="Calibri,Calibri_MSFontService,sans-serif" font-weight="400" font-size="41" transform="matrix(1 0 0 1 2592.15 15012)">50</text></g><g clip-path="url(#clip26)"><text fill="#595959" font-family="Calibri,Calibri_MSFontService,sans-serif" font-weight="400" font-size="41" transform="matrix(1 0 0 1 2897.99 15012)">100</text></g><g clip-path="url(#clip27)"><text fill="#595959" font-family="Calibri,Calibri_MSFontService,sans-serif" font-weight="400" font-size="41" transform="matrix(1 0 0 1 3214.29 15012)">150</text></g><g clip-path="url(#clip28)"><text fill="#595959" font-family="Calibri,Calibri_MSFontService,sans-serif" font-weight="400" font-size="41" transform="matrix(1 0 0 1 3530.59 15012)">200</text></g><g clip-path="url(#clip29)"><text fill="#595959" font-family="Calibri,Calibri_MSFontService,sans-serif" font-weight="400" font-size="41" transform="matrix(1 0 0 1 3846.88 15012)">250</text></g><g clip-path="url(#clip30)"><text fill="#595959" font-family="Calibri,Calibri_MSFontService,sans-serif" font-weight="400" font-size="46" transform="matrix(6.12323e-17 -1 1 6.12323e-17 2115.67 14973)">Current Average Fitness</text></g><g clip-path="url(#clip31)"><text fill="#595959" font-family="Calibri,Calibri_MSFontService,sans-serif" font-weight="400" font-size="46" transform="matrix(1 0 0 1 2982.16 15235)">Generation</text></g><g clip-path="url(#clip32)"><text fill="#595959" font-family="Calibri,Calibri_MSFontService,sans-serif" font-weight="400" font-size="64" transform="matrix(1 0 0 1 2646.93 14242)">Average Fitness (RED pop)</text></g><rect x="2014.5" y="14147.5" width="1946" height="1157" stroke="#D9D9D9" stroke-width="3.4375" stroke-linejoin="round" stroke-miterlimit="10" fill="none"/></g></svg>