<svg width="1993" height="1190" xmlns="http://www.w3.org/2000/svg" xmlns:xlink="http://www.w3.org/1999/xlink" overflow="hidden"><defs><clipPath id="clip0"><rect x="2271" y="13428" width="1993" height="1190"/></clipPath><clipPath id="clip1"><rect x="2272" y="13428" width="1990" height="1188"/></clipPath><clipPath id="clip2"><rect x="2272" y="13428" width="1990" height="1188"/></clipPath><clipPath id="clip3"><rect x="2272" y="13428" width="1990" height="1188"/></clipPath><clipPath id="clip4"><rect x="2272" y="13428" width="1990" height="1188"/></clipPath><clipPath id="clip5"><rect x="2272" y="13428" width="1990" height="1188"/></clipPath><clipPath id="clip6"><rect x="2272" y="13428" width="1990" height="1188"/></clipPath><clipPath id="clip7"><rect x="2272" y="13428" width="1990" height="1188"/></clipPath><clipPath id="clip8"><rect x="2272" y="13428" width="1990" height="1188"/></clipPath><clipPath id="clip9"><rect x="2272" y="13428" width="1990" height="1188"/></clipPath><clipPath id="clip10"><rect x="2562" y="13598" width="1618" height="814"/></clipPath><clipPath id="clip11"><rect x="2272" y="13428" width="1990" height="1188"/></clipPath><clipPath id="clip12"><rect x="2272" y="13428" width="1990" height="1188"/></clipPath><clipPath id="clip13"><rect x="2272" y="13428" width="1990" height="1188"/></clipPath><clipPath id="clip14"><rect x="2272" y="13428" width="1990" height="1188"/></clipPath><clipPath id="clip15"><rect x="2272" y="13428" width="1990" height="1188"/></clipPath><clipPath id="clip16"><rect x="2272" y="13428" width="1990" height="1188"/></clipPath><clipPath id="clip17"><rect x="2272" y="13428" width="1990" height="1188"/></clipPath><clipPath id="clip18"><rect x="2272" y="13428" width="1990" height="1188"/></clipPath><clipPath id="clip19"><rect x="2272" y="13428" width="1990" height="1188"/></clipPath><clipPath id="clip20"><rect x="2272" y="13428" width="1990" height="1188"/></clipPath><clipPath id="clip21"><rect x="2272" y="13428" width="1990" height="1188"/></clipPath><clipPath id="clip22"><rect x="2272" y="13428" width="1990" height="1188"/></clipPath><clipPath id="clip23"><rect x="2272" y="13428" width="1990" height="1188"/></clipPath><clipPath id="clip24"><rect x="2272" y="13428" width="1990" height="1188"/></clipPath><clipPath id="clip25"><rect x="2272" y="13428" width="1990" height="1188"/></clipPath><clipPath id="clip26"><rect x="2272" y="13428" width="1990" height="1188"/></clipPath><clipPath id="clip27"><rect x="2272" y="13428" width="1990" height="1188"/></clipPath><clipPath id="clip28"><rect x="2272" y="13428" width="1990" height="1188"/></clipPath><clipPath id="clip29"><rect x="2272" y="13428" width="1990" height="1188"/></clipPath><clipPath id="clip30"><rect x="2272" y="13428" width="1990" height="1188"/></clipPath><clipPath id="clip31"><rect x="2272" y="13428" width="1990" height="1188"/></clipPath></defs><g clip-path="url(#clip0)" transform="translate(-2271 -13428)"><rect x="2272" y="13429" width="1990" height="1187" fill="#FFFFFF"/><g clip-path="url(#clip1)"><path d="M2562.5 14396 4180.5 14396M2562.5 14380 4180.5 14380M2562.5 14364 4180.5 14364M2562.5 14348 4180.5 14348M2562.5 14315 4180.5 14315M2562.5 14299 4180.5 14299M2562.5 14283 4180.5 14283M2562.5 14266 4180.5 14266M2562.5 14234 4180.5 14234M2562.5 14217 4180.5 14217M2562.5 14201 4180.5 14201M2562.5 14185 4180.5 14185M2562.5 14152 4180.5 14152M2562.5 14136 4180.5 14136M2562.5 14120 4180.5 14120M2562.5 14103 4180.5 14103M2562.5 14071 4180.5 14071M2562.5 14055 4180.5 14055M2562.5 14038 4180.5 14038M2562.5 14022 4180.5 14022M2562.5 13989 4180.5 13989M2562.5 13973 4180.5 13973M2562.5 13957 4180.5 13957M2562.5 13941 4180.5 13941M2562.5 13908 4180.5 13908M2562.5 13892 4180.5 13892M2562.5 13875 4180.5 13875M2562.5 13859 4180.5 13859M2562.5 13827 4180.5 13827M2562.5 13810 4180.5 13810M2562.5 13794 4180.5 13794M2562.5 13778 4180.5 13778M2562.5 13745 4180.5 13745M2562.5 13729 4180.5 13729M2562.5 13713 4180.5 13713M2562.5 13695.9 4180.5 13695.9M2562.5 13663.9 4180.5 13663.9M2562.5 13646.9 4180.5 13646.9M2562.5 13630.9 4180.5 13630.9M2562.5 13614.9 4180.5 13614.9" stroke="#F2F2F2" stroke-width="3.4375" stroke-linejoin="round" stroke-miterlimit="10" fill="none"/></g><g clip-path="url(#clip2)"><path d="M2562.5 14331 4180.5 14331M2562.5 14250 4180.5 14250M2562.5 14169 4180.5 14169M2562.5 14087 4180.5 14087M2562.5 14006 4180.5 14006M2562.5 13924 4180.5 13924M2562.5 13843 4180.5 13843M2562.5 13761 4180.5 13761M2562.5 13679.9 4180.5 13679.9M2562.5 13598.5 4180.5 13598.5" stroke="#D9D9D9" stroke-width="3.4375" stroke-linejoin="round" stroke-miterlimit="10" fill="none"/></g><g clip-path="url(#clip3)"><path d="M2627.59 13598.5 2627.59 14412.5M2692.59 13598.5 2692.59 14412.5M2756.59 13598.5 2756.59 14412.5M2821.59 13598.5 2821.59 14412.5M2951.6 13598.5 2951.6 14412.5M3015.6 13598.5 3015.6 14412.5M3080.6 13598.5 3080.6 14412.5M3145.6 13598.5 3145.6 14412.5M3274.61 13598.5 3274.61 14412.5M3339.61 13598.5 3339.61 14412.5M3404.61 13598.5 3404.61 14412.5M3468.61 13598.5 3468.61 14412.5M3598.62 13598.5 3598.62 14412.5M3662.62 13598.5 3662.62 14412.5M3727.62 13598.5 3727.62 14412.5M3792.62 13598.5 3792.62 14412.5M3921.63 13598.5 3921.63 14412.5M3986.63 13598.5 3986.63 14412.5M4051.63 13598.5 4051.63 14412.5M4115.64 13598.5 4115.64 14412.5" stroke="#F2F2F2" stroke-width="3.4375" stroke-linejoin="round" stroke-miterlimit="10" fill="none"/></g><g clip-path="url(#clip4)"><path d="M2886.59 13598.5 2886.59 14412.5M3209.61 13598.5 3209.61 14412.5M3533.62 13598.5 3533.62 14412.5M3857.63 13598.5 3857.63 14412.5M4180.5 13598.5 4180.5 14412.5" stroke="#D9D9D9" stroke-width="3.4375" stroke-linejoin="round" stroke-miterlimit="10" fill="none"/></g><g clip-path="url(#clip5)"><path d="M0 0 0.000360892 814" stroke="#BFBFBF" stroke-width="3.4375" stroke-linejoin="round" stroke-miterlimit="10" fill="none" fill-rule="evenodd" transform="matrix(1 0 0 -1 2562.5 14412.5)"/></g><g clip-path="url(#clip6)"><path d="M2549.5 14412.5 2562.5 14412.5M2549.5 14331 2562.5 14331M2549.5 14250 2562.5 14250M2549.5 14169 2562.5 14169M2549.5 14087 2562.5 14087M2549.5 14006 2562.5 14006M2549.5 13924 2562.5 13924M2549.5 13843 2562.5 13843M2549.5 13761 2562.5 13761M2549.5 13679.9 2562.5 13679.9M2549.5 13598.5 2562.5 13598.5" stroke="#BFBFBF" stroke-width="3.4375" stroke-linejoin="round" stroke-miterlimit="10" fill="none"/></g><g clip-path="url(#clip7)"><path d="M2562.5 14412.5 4180.5 14412.5" stroke="#BFBFBF" stroke-width="3.4375" stroke-linejoin="round" stroke-miterlimit="10" fill="none" fill-rule="evenodd"/></g><g clip-path="url(#clip8)"><path d="M2562.5 14412.5 2562.5 14425.5M2886.59 14412.5 2886.59 14425.5M3209.61 14412.5 3209.61 14425.5M3533.62 14412.5 3533.62 14425.5M3857.63 14412.5 3857.63 14425.5M4180.5 14412.5 4180.5 14425.5" stroke="#BFBFBF" stroke-width="3.4375" stroke-linejoin="round" stroke-miterlimit="10" fill="none"/></g><g clip-path="url(#clip9)"><path d="M2573.69 14197.1C2573.69 14203.2 2568.76 14208.1 2562.69 14208.1 2556.61 14208.1 2551.69 14203.2 2551.69 14197.1 2551.69 14191 2556.61 14186.1 2562.69 14186.1 2568.76 14186.1 2573.69 14191 2573.69 14197.1Z" stroke="#4472C4" stroke-width="3.4375" stroke-linejoin="round" stroke-miterlimit="10" fill="#4472C4"/><path d="M2580.69 14196.1C2580.69 14202.2 2575.76 14207.1 2569.69 14207.1 2563.61 14207.1 2558.69 14202.2 2558.69 14196.1 2558.69 14190 2563.61 14185.1 2569.69 14185.1 2575.76 14185.1 2580.69 14190 2580.69 14196.1Z" stroke="#4472C4" stroke-width="3.4375" stroke-linejoin="round" stroke-miterlimit="10" fill="#4472C4"/><path d="M2586.69 14195.1C2586.69 14201.2 2581.76 14206.1 2575.69 14206.1 2569.61 14206.1 2564.69 14201.2 2564.69 14195.1 2564.69 14189 2569.61 14184.1 2575.69 14184.1 2581.76 14184.1 2586.69 14189 2586.69 14195.1Z" stroke="#4472C4" stroke-width="3.4375" stroke-linejoin="round" stroke-miterlimit="10" fill="#4472C4"/><path d="M2593.69 14195.1C2593.69 14201.2 2588.76 14206.1 2582.69 14206.1 2576.61 14206.1 2571.69 14201.2 2571.69 14195.1 2571.69 14189 2576.61 14184.1 2582.69 14184.1 2588.76 14184.1 2593.69 14189 2593.69 14195.1Z" stroke="#4472C4" stroke-width="3.4375" stroke-linejoin="round" stroke-miterlimit="10" fill="#4472C4"/><path d="M2599.69 14193.1C2599.69 14199.2 2594.76 14204.1 2588.69 14204.1 2582.61 14204.1 2577.69 14199.2 2577.69 14193.1 2577.69 14187 2582.61 14182.1 2588.69 14182.1 2594.76 14182.1 2599.69 14187 2599.69 14193.1Z" stroke="#4472C4" stroke-width="3.4375" stroke-linejoin="round" stroke-miterlimit="10" fill="#4472C4"/><path d="M2606.69 14192.1C2606.69 14198.2 2601.76 14203.1 2595.69 14203.1 2589.61 14203.1 2584.69 14198.2 2584.69 14192.1 2584.69 14186 2589.61 14181.1 2595.69 14181.1 2601.76 14181.1 2606.69 14186 2606.69 14192.1Z" stroke="#4472C4" stroke-width="3.4375" stroke-linejoin="round" stroke-miterlimit="10" fill="#4472C4"/><path d="M2612.69 14193.1C2612.69 14199.2 2607.76 14204.1 2601.69 14204.1 2595.61 14204.1 2590.69 14199.2 2590.69 14193.1 2590.69 14187 2595.61 14182.1 2601.69 14182.1 2607.76 14182.1 2612.69 14187 2612.69 14193.1Z" stroke="#4472C4" stroke-width="3.4375" stroke-linejoin="round" stroke-miterlimit="10" fill="#4472C4"/><path d="M2619.69 14193.1C2619.69 14199.2 2614.76 14204.1 2608.69 14204.1 2602.61 14204.1 2597.69 14199.2 2597.69 14193.1 2597.69 14187 2602.61 14182.1 2608.69 14182.1 2614.76 14182.1 2619.69 14187 2619.69 14193.1Z" stroke="#4472C4" stroke-width="3.4375" stroke-linejoin="round" stroke-miterlimit="10" fill="#4472C4"/><path d="M2625.69 14193.1C2625.69 14199.2 2620.76 14204.1 2614.69 14204.1 2608.61 14204.1 2603.69 14199.2 2603.69 14193.1 2603.69 14187 2608.61 14182.1 2614.69 14182.1 2620.76 14182.1 2625.69 14187 2625.69 14193.1Z" stroke="#4472C4" stroke-width="3.4375" stroke-linejoin="round" stroke-miterlimit="10" fill="#4472C4"/><path d="M2632.69 14190.1C2632.69 14196.2 2627.76 14201.1 2621.69 14201.1 2615.61 14201.1 2610.69 14196.2 2610.69 14190.1 2610.69 14184 2615.61 14179.1 2621.69 14179.1 2627.76 14179.1 2632.69 14184 2632.69 14190.1Z" stroke="#4472C4" stroke-width="3.4375" stroke-linejoin="round" stroke-miterlimit="10" fill="#4472C4"/><path d="M2638.69 14194.1C2638.69 14200.2 2633.76 14205.1 2627.69 14205.1 2621.61 14205.1 2616.69 14200.2 2616.69 14194.1 2616.69 14188 2621.61 14183.1 2627.69 14183.1 2633.76 14183.1 2638.69 14188 2638.69 14194.1Z" stroke="#4472C4" stroke-width="3.4375" stroke-linejoin="round" stroke-miterlimit="10" fill="#4472C4"/><path d="M2645.69 14194.1C2645.69 14200.2 2640.76 14205.1 2634.69 14205.1 2628.61 14205.1 2623.69 14200.2 2623.69 14194.1 2623.69 14188 2628.61 14183.1 2634.69 14183.1 2640.76 14183.1 2645.69 14188 2645.69 14194.1Z" stroke="#4472C4" stroke-width="3.4375" stroke-linejoin="round" stroke-miterlimit="10" fill="#4472C4"/><path d="M2651.69 14191.1C2651.69 14197.2 2646.76 14202.1 2640.69 14202.1 2634.61 14202.1 2629.69 14197.2 2629.69 14191.1 2629.69 14185 2634.61 14180.1 2640.69 14180.1 2646.76 14180.1 2651.69 14185 2651.69 14191.1Z" stroke="#4472C4" stroke-width="3.4375" stroke-linejoin="round" stroke-miterlimit="10" fill="#4472C4"/><path d="M2657.69 14192.1C2657.69 14198.2 2652.76 14203.1 2646.69 14203.1 2640.61 14203.1 2635.69 14198.2 2635.69 14192.1 2635.69 14186 2640.61 14181.1 2646.69 14181.1 2652.76 14181.1 2657.69 14186 2657.69 14192.1Z" stroke="#4472C4" stroke-width="3.4375" stroke-linejoin="round" stroke-miterlimit="10" fill="#4472C4"/><path d="M2664.69 14194.1C2664.69 14200.2 2659.76 14205.1 2653.69 14205.1 2647.61 14205.1 2642.69 14200.2 2642.69 14194.1 2642.69 14188 2647.61 14183.1 2653.69 14183.1 2659.76 14183.1 2664.69 14188 2664.69 14194.1Z" stroke="#4472C4" stroke-width="3.4375" stroke-linejoin="round" stroke-miterlimit="10" fill="#4472C4"/><path d="M2670.69 14191.1C2670.69 14197.2 2665.76 14202.1 2659.69 14202.1 2653.61 14202.1 2648.69 14197.2 2648.69 14191.1 2648.69 14185 2653.61 14180.1 2659.69 14180.1 2665.76 14180.1 2670.69 14185 2670.69 14191.1Z" stroke="#4472C4" stroke-width="3.4375" stroke-linejoin="round" stroke-miterlimit="10" fill="#4472C4"/><path d="M2677.69 14191.1C2677.69 14197.2 2672.76 14202.1 2666.69 14202.1 2660.61 14202.1 2655.69 14197.2 2655.69 14191.1 2655.69 14185 2660.61 14180.1 2666.69 14180.1 2672.76 14180.1 2677.69 14185 2677.69 14191.1Z" stroke="#4472C4" stroke-width="3.4375" stroke-linejoin="round" stroke-miterlimit="10" fill="#4472C4"/><path d="M2683.69 14192.1C2683.69 14198.2 2678.76 14203.1 2672.69 14203.1 2666.61 14203.1 2661.69 14198.2 2661.69 14192.1 2661.69 14186 2666.61 14181.1 2672.69 14181.1 2678.76 14181.1 2683.69 14186 2683.69 14192.1Z" stroke="#4472C4" stroke-width="3.4375" stroke-linejoin="round" stroke-miterlimit="10" fill="#4472C4"/><path d="M2690.69 14194.1C2690.69 14200.2 2685.76 14205.1 2679.69 14205.1 2673.61 14205.1 2668.69 14200.2 2668.69 14194.1 2668.69 14188 2673.61 14183.1 2679.69 14183.1 2685.76 14183.1 2690.69 14188 2690.69 14194.1Z" stroke="#4472C4" stroke-width="3.4375" stroke-linejoin="round" stroke-miterlimit="10" fill="#4472C4"/><path d="M2696.69 14192.1C2696.69 14198.2 2691.76 14203.1 2685.69 14203.1 2679.61 14203.1 2674.69 14198.2 2674.69 14192.1 2674.69 14186 2679.61 14181.1 2685.69 14181.1 2691.76 14181.1 2696.69 14186 2696.69 14192.1Z" stroke="#4472C4" stroke-width="3.4375" stroke-linejoin="round" stroke-miterlimit="10" fill="#4472C4"/><path d="M2703.69 14193.1C2703.69 14199.2 2698.76 14204.1 2692.69 14204.1 2686.61 14204.1 2681.69 14199.2 2681.69 14193.1 2681.69 14187 2686.61 14182.1 2692.69 14182.1 2698.76 14182.1 2703.69 14187 2703.69 14193.1Z" stroke="#4472C4" stroke-width="3.4375" stroke-linejoin="round" stroke-miterlimit="10" fill="#4472C4"/><path d="M2709.69 14190.1C2709.69 14196.2 2704.76 14201.1 2698.69 14201.1 2692.61 14201.1 2687.69 14196.2 2687.69 14190.1 2687.69 14184 2692.61 14179.1 2698.69 14179.1 2704.76 14179.1 2709.69 14184 2709.69 14190.1Z" stroke="#4472C4" stroke-width="3.4375" stroke-linejoin="round" stroke-miterlimit="10" fill="#4472C4"/><path d="M2716.69 14194.1C2716.69 14200.2 2711.76 14205.1 2705.69 14205.1 2699.61 14205.1 2694.69 14200.2 2694.69 14194.1 2694.69 14188 2699.61 14183.1 2705.69 14183.1 2711.76 14183.1 2716.69 14188 2716.69 14194.1Z" stroke="#4472C4" stroke-width="3.4375" stroke-linejoin="round" stroke-miterlimit="10" fill="#4472C4"/><path d="M2722.69 14193.1C2722.69 14199.2 2717.76 14204.1 2711.69 14204.1 2705.61 14204.1 2700.69 14199.2 2700.69 14193.1 2700.69 14187 2705.61 14182.1 2711.69 14182.1 2717.76 14182.1 2722.69 14187 2722.69 14193.1Z" stroke="#4472C4" stroke-width="3.4375" stroke-linejoin="round" stroke-miterlimit="10" fill="#4472C4"/><path d="M2729.69 14189.1C2729.69 14195.2 2724.76 14200.1 2718.69 14200.1 2712.61 14200.1 2707.69 14195.2 2707.69 14189.1 2707.69 14183 2712.61 14178.1 2718.69 14178.1 2724.76 14178.1 2729.69 14183 2729.69 14189.1Z" stroke="#4472C4" stroke-width="3.4375" stroke-linejoin="round" stroke-miterlimit="10" fill="#4472C4"/><path d="M2735.69 14185.1C2735.69 14191.2 2730.76 14196.1 2724.69 14196.1 2718.61 14196.1 2713.69 14191.2 2713.69 14185.1 2713.69 14179 2718.61 14174.1 2724.69 14174.1 2730.76 14174.1 2735.69 14179 2735.69 14185.1Z" stroke="#4472C4" stroke-width="3.4375" stroke-linejoin="round" stroke-miterlimit="10" fill="#4472C4"/><path d="M2742.69 14187.1C2742.69 14193.2 2737.76 14198.1 2731.69 14198.1 2725.61 14198.1 2720.69 14193.2 2720.69 14187.1 2720.69 14181 2725.61 14176.1 2731.69 14176.1 2737.76 14176.1 2742.69 14181 2742.69 14187.1Z" stroke="#4472C4" stroke-width="3.4375" stroke-linejoin="round" stroke-miterlimit="10" fill="#4472C4"/><path d="M2748.69 14182.1C2748.69 14188.2 2743.76 14193.1 2737.69 14193.1 2731.61 14193.1 2726.69 14188.2 2726.69 14182.1 2726.69 14176 2731.61 14171.1 2737.69 14171.1 2743.76 14171.1 2748.69 14176 2748.69 14182.1Z" stroke="#4472C4" stroke-width="3.4375" stroke-linejoin="round" stroke-miterlimit="10" fill="#4472C4"/><path d="M2755.69 14186.1C2755.69 14192.2 2750.76 14197.1 2744.69 14197.1 2738.61 14197.1 2733.69 14192.2 2733.69 14186.1 2733.69 14180 2738.61 14175.1 2744.69 14175.1 2750.76 14175.1 2755.69 14180 2755.69 14186.1Z" stroke="#4472C4" stroke-width="3.4375" stroke-linejoin="round" stroke-miterlimit="10" fill="#4472C4"/><path d="M2761.69 14190.1C2761.69 14196.2 2756.76 14201.1 2750.69 14201.1 2744.61 14201.1 2739.69 14196.2 2739.69 14190.1 2739.69 14184 2744.61 14179.1 2750.69 14179.1 2756.76 14179.1 2761.69 14184 2761.69 14190.1Z" stroke="#4472C4" stroke-width="3.4375" stroke-linejoin="round" stroke-miterlimit="10" fill="#4472C4"/><path d="M2767.69 14190.1C2767.69 14196.2 2762.76 14201.1 2756.69 14201.1 2750.61 14201.1 2745.69 14196.2 2745.69 14190.1 2745.69 14184 2750.61 14179.1 2756.69 14179.1 2762.76 14179.1 2767.69 14184 2767.69 14190.1Z" stroke="#4472C4" stroke-width="3.4375" stroke-linejoin="round" stroke-miterlimit="10" fill="#4472C4"/><path d="M2774.69 14186.1C2774.69 14192.2 2769.76 14197.1 2763.69 14197.1 2757.61 14197.1 2752.69 14192.2 2752.69 14186.1 2752.69 14180 2757.61 14175.1 2763.69 14175.1 2769.76 14175.1 2774.69 14180 2774.69 14186.1Z" stroke="#4472C4" stroke-width="3.4375" stroke-linejoin="round" stroke-miterlimit="10" fill="#4472C4"/><path d="M2780.69 14182.1C2780.69 14188.2 2775.76 14193.1 2769.69 14193.1 2763.61 14193.1 2758.69 14188.2 2758.69 14182.1 2758.69 14176 2763.61 14171.1 2769.69 14171.1 2775.76 14171.1 2780.69 14176 2780.69 14182.1Z" stroke="#4472C4" stroke-width="3.4375" stroke-linejoin="round" stroke-miterlimit="10" fill="#4472C4"/><path d="M2787.69 14190.1C2787.69 14196.2 2782.76 14201.1 2776.69 14201.1 2770.61 14201.1 2765.69 14196.2 2765.69 14190.1 2765.69 14184 2770.61 14179.1 2776.69 14179.1 2782.76 14179.1 2787.69 14184 2787.69 14190.1Z" stroke="#4472C4" stroke-width="3.4375" stroke-linejoin="round" stroke-miterlimit="10" fill="#4472C4"/><path d="M2793.69 14190.1C2793.69 14196.2 2788.76 14201.1 2782.69 14201.1 2776.61 14201.1 2771.69 14196.2 2771.69 14190.1 2771.69 14184 2776.61 14179.1 2782.69 14179.1 2788.76 14179.1 2793.69 14184 2793.69 14190.1Z" stroke="#4472C4" stroke-width="3.4375" stroke-linejoin="round" stroke-miterlimit="10" fill="#4472C4"/><path d="M2800.69 14188.1C2800.69 14194.2 2795.76 14199.1 2789.69 14199.1 2783.61 14199.1 2778.69 14194.2 2778.69 14188.1 2778.69 14182 2783.61 14177.1 2789.69 14177.1 2795.76 14177.1 2800.69 14182 2800.69 14188.1Z" stroke="#4472C4" stroke-width="3.4375" stroke-linejoin="round" stroke-miterlimit="10" fill="#4472C4"/><path d="M2806.69 14186.1C2806.69 14192.2 2801.76 14197.1 2795.69 14197.1 2789.61 14197.1 2784.69 14192.2 2784.69 14186.1 2784.69 14180 2789.61 14175.1 2795.69 14175.1 2801.76 14175.1 2806.69 14180 2806.69 14186.1Z" stroke="#4472C4" stroke-width="3.4375" stroke-linejoin="round" stroke-miterlimit="10" fill="#4472C4"/><path d="M2813.69 14189.1C2813.69 14195.2 2808.76 14200.1 2802.69 14200.1 2796.61 14200.1 2791.69 14195.2 2791.69 14189.1 2791.69 14183 2796.61 14178.1 2802.69 14178.1 2808.76 14178.1 2813.69 14183 2813.69 14189.1Z" stroke="#4472C4" stroke-width="3.4375" stroke-linejoin="round" stroke-miterlimit="10" fill="#4472C4"/><path d="M2819.69 14189.1C2819.69 14195.2 2814.76 14200.1 2808.69 14200.1 2802.61 14200.1 2797.69 14195.2 2797.69 14189.1 2797.69 14183 2802.61 14178.1 2808.69 14178.1 2814.76 14178.1 2819.69 14183 2819.69 14189.1Z" stroke="#4472C4" stroke-width="3.4375" stroke-linejoin="round" stroke-miterlimit="10" fill="#4472C4"/><path d="M2826.69 14187.1C2826.69 14193.2 2821.76 14198.1 2815.69 14198.1 2809.61 14198.1 2804.69 14193.2 2804.69 14187.1 2804.69 14181 2809.61 14176.1 2815.69 14176.1 2821.76 14176.1 2826.69 14181 2826.69 14187.1Z" stroke="#4472C4" stroke-width="3.4375" stroke-linejoin="round" stroke-miterlimit="10" fill="#4472C4"/><path d="M2832.69 14187.1C2832.69 14193.2 2827.76 14198.1 2821.69 14198.1 2815.61 14198.1 2810.69 14193.2 2810.69 14187.1 2810.69 14181 2815.61 14176.1 2821.69 14176.1 2827.76 14176.1 2832.69 14181 2832.69 14187.1Z" stroke="#4472C4" stroke-width="3.4375" stroke-linejoin="round" stroke-miterlimit="10" fill="#4472C4"/><path d="M2839.69 14183.1C2839.69 14189.2 2834.76 14194.1 2828.69 14194.1 2822.61 14194.1 2817.69 14189.2 2817.69 14183.1 2817.69 14177 2822.61 14172.1 2828.69 14172.1 2834.76 14172.1 2839.69 14177 2839.69 14183.1Z" stroke="#4472C4" stroke-width="3.4375" stroke-linejoin="round" stroke-miterlimit="10" fill="#4472C4"/><path d="M2845.69 14185.1C2845.69 14191.2 2840.76 14196.1 2834.69 14196.1 2828.61 14196.1 2823.69 14191.2 2823.69 14185.1 2823.69 14179 2828.61 14174.1 2834.69 14174.1 2840.76 14174.1 2845.69 14179 2845.69 14185.1Z" stroke="#4472C4" stroke-width="3.4375" stroke-linejoin="round" stroke-miterlimit="10" fill="#4472C4"/><path d="M2852.69 14184.1C2852.69 14190.2 2847.76 14195.1 2841.69 14195.1 2835.61 14195.1 2830.69 14190.2 2830.69 14184.1 2830.69 14178 2835.61 14173.1 2841.69 14173.1 2847.76 14173.1 2852.69 14178 2852.69 14184.1Z" stroke="#4472C4" stroke-width="3.4375" stroke-linejoin="round" stroke-miterlimit="10" fill="#4472C4"/><path d="M2858.69 14182.1C2858.69 14188.2 2853.76 14193.1 2847.69 14193.1 2841.61 14193.1 2836.69 14188.2 2836.69 14182.1 2836.69 14176 2841.61 14171.1 2847.69 14171.1 2853.76 14171.1 2858.69 14176 2858.69 14182.1Z" stroke="#4472C4" stroke-width="3.4375" stroke-linejoin="round" stroke-miterlimit="10" fill="#4472C4"/><path d="M2865.69 14171.1C2865.69 14177.2 2860.76 14182.1 2854.69 14182.1 2848.61 14182.1 2843.69 14177.2 2843.69 14171.1 2843.69 14165 2848.61 14160.1 2854.69 14160.1 2860.76 14160.1 2865.69 14165 2865.69 14171.1Z" stroke="#4472C4" stroke-width="3.4375" stroke-linejoin="round" stroke-miterlimit="10" fill="#4472C4"/><path d="M2871.69 14182.1C2871.69 14188.2 2866.76 14193.1 2860.69 14193.1 2854.61 14193.1 2849.69 14188.2 2849.69 14182.1 2849.69 14176 2854.61 14171.1 2860.69 14171.1 2866.76 14171.1 2871.69 14176 2871.69 14182.1Z" stroke="#4472C4" stroke-width="3.4375" stroke-linejoin="round" stroke-miterlimit="10" fill="#4472C4"/><path d="M2878.69 14184.1C2878.69 14190.2 2873.76 14195.1 2867.69 14195.1 2861.61 14195.1 2856.69 14190.2 2856.69 14184.1 2856.69 14178 2861.61 14173.1 2867.69 14173.1 2873.76 14173.1 2878.69 14178 2878.69 14184.1Z" stroke="#4472C4" stroke-width="3.4375" stroke-linejoin="round" stroke-miterlimit="10" fill="#4472C4"/><path d="M2884.69 14184.1C2884.69 14190.2 2879.76 14195.1 2873.69 14195.1 2867.61 14195.1 2862.69 14190.2 2862.69 14184.1 2862.69 14178 2867.61 14173.1 2873.69 14173.1 2879.76 14173.1 2884.69 14178 2884.69 14184.1Z" stroke="#4472C4" stroke-width="3.4375" stroke-linejoin="round" stroke-miterlimit="10" fill="#4472C4"/><path d="M2890.69 14171.1C2890.69 14177.2 2885.76 14182.1 2879.69 14182.1 2873.61 14182.1 2868.69 14177.2 2868.69 14171.1 2868.69 14165 2873.61 14160.1 2879.69 14160.1 2885.76 14160.1 2890.69 14165 2890.69 14171.1Z" stroke="#4472C4" stroke-width="3.4375" stroke-linejoin="round" stroke-miterlimit="10" fill="#4472C4"/><path d="M2897.69 14171.1C2897.69 14177.2 2892.76 14182.1 2886.69 14182.1 2880.61 14182.1 2875.69 14177.2 2875.69 14171.1 2875.69 14165 2880.61 14160.1 2886.69 14160.1 2892.76 14160.1 2897.69 14165 2897.69 14171.1Z" stroke="#4472C4" stroke-width="3.4375" stroke-linejoin="round" stroke-miterlimit="10" fill="#4472C4"/><path d="M2903.69 14182.1C2903.69 14188.2 2898.76 14193.1 2892.69 14193.1 2886.61 14193.1 2881.69 14188.2 2881.69 14182.1 2881.69 14176 2886.61 14171.1 2892.69 14171.1 2898.76 14171.1 2903.69 14176 2903.69 14182.1Z" stroke="#4472C4" stroke-width="3.4375" stroke-linejoin="round" stroke-miterlimit="10" fill="#4472C4"/><path d="M2910.69 14184.1C2910.69 14190.2 2905.76 14195.1 2899.69 14195.1 2893.61 14195.1 2888.69 14190.2 2888.69 14184.1 2888.69 14178 2893.61 14173.1 2899.69 14173.1 2905.76 14173.1 2910.69 14178 2910.69 14184.1Z" stroke="#4472C4" stroke-width="3.4375" stroke-linejoin="round" stroke-miterlimit="10" fill="#4472C4"/><path d="M2916.69 14171.1C2916.69 14177.2 2911.76 14182.1 2905.69 14182.1 2899.61 14182.1 2894.69 14177.2 2894.69 14171.1 2894.69 14165 2899.61 14160.1 2905.69 14160.1 2911.76 14160.1 2916.69 14165 2916.69 14171.1Z" stroke="#4472C4" stroke-width="3.4375" stroke-linejoin="round" stroke-miterlimit="10" fill="#4472C4"/><path d="M2923.69 14171.1C2923.69 14177.2 2918.76 14182.1 2912.69 14182.1 2906.61 14182.1 2901.69 14177.2 2901.69 14171.1 2901.69 14165 2906.61 14160.1 2912.69 14160.1 2918.76 14160.1 2923.69 14165 2923.69 14171.1Z" stroke="#4472C4" stroke-width="3.4375" stroke-linejoin="round" stroke-miterlimit="10" fill="#4472C4"/><path d="M2929.69 14183.1C2929.69 14189.2 2924.76 14194.1 2918.69 14194.1 2912.61 14194.1 2907.69 14189.2 2907.69 14183.1 2907.69 14177 2912.61 14172.1 2918.69 14172.1 2924.76 14172.1 2929.69 14177 2929.69 14183.1Z" stroke="#4472C4" stroke-width="3.4375" stroke-linejoin="round" stroke-miterlimit="10" fill="#4472C4"/><path d="M2936.69 14183.1C2936.69 14189.2 2931.76 14194.1 2925.69 14194.1 2919.61 14194.1 2914.69 14189.2 2914.69 14183.1 2914.69 14177 2919.61 14172.1 2925.69 14172.1 2931.76 14172.1 2936.69 14177 2936.69 14183.1Z" stroke="#4472C4" stroke-width="3.4375" stroke-linejoin="round" stroke-miterlimit="10" fill="#4472C4"/><path d="M2942.69 14005.1C2942.69 14011.2 2937.76 14016.1 2931.69 14016.1 2925.61 14016.1 2920.69 14011.2 2920.69 14005.1 2920.69 13999 2925.61 13994.1 2931.69 13994.1 2937.76 13994.1 2942.69 13999 2942.69 14005.1Z" stroke="#4472C4" stroke-width="3.4375" stroke-linejoin="round" stroke-miterlimit="10" fill="#4472C4"/><path d="M2949.69 14004.1C2949.69 14010.2 2944.76 14015.1 2938.69 14015.1 2932.61 14015.1 2927.69 14010.2 2927.69 14004.1 2927.69 13998 2932.61 13993.1 2938.69 13993.1 2944.76 13993.1 2949.69 13998 2949.69 14004.1Z" stroke="#4472C4" stroke-width="3.4375" stroke-linejoin="round" stroke-miterlimit="10" fill="#4472C4"/><path d="M2955.69 14175.1C2955.69 14181.2 2950.76 14186.1 2944.69 14186.1 2938.61 14186.1 2933.69 14181.2 2933.69 14175.1 2933.69 14169 2938.61 14164.1 2944.69 14164.1 2950.76 14164.1 2955.69 14169 2955.69 14175.1Z" stroke="#4472C4" stroke-width="3.4375" stroke-linejoin="round" stroke-miterlimit="10" fill="#4472C4"/><path d="M2962.69 13821.1C2962.69 13827.2 2957.76 13832.1 2951.69 13832.1 2945.61 13832.1 2940.69 13827.2 2940.69 13821.1 2940.69 13815 2945.61 13810.1 2951.69 13810.1 2957.76 13810.1 2962.69 13815 2962.69 13821.1Z" stroke="#4472C4" stroke-width="3.4375" stroke-linejoin="round" stroke-miterlimit="10" fill="#4472C4"/><path d="M2968.69 14176.1C2968.69 14182.2 2963.76 14187.1 2957.69 14187.1 2951.61 14187.1 2946.69 14182.2 2946.69 14176.1 2946.69 14170 2951.61 14165.1 2957.69 14165.1 2963.76 14165.1 2968.69 14170 2968.69 14176.1Z" stroke="#4472C4" stroke-width="3.4375" stroke-linejoin="round" stroke-miterlimit="10" fill="#4472C4"/><path d="M2975.69 13831.1C2975.69 13837.2 2970.76 13842.1 2964.69 13842.1 2958.61 13842.1 2953.69 13837.2 2953.69 13831.1 2953.69 13825 2958.61 13820.1 2964.69 13820.1 2970.76 13820.1 2975.69 13825 2975.69 13831.1Z" stroke="#4472C4" stroke-width="3.4375" stroke-linejoin="round" stroke-miterlimit="10" fill="#4472C4"/><path d="M2981.69 14176.1C2981.69 14182.2 2976.76 14187.1 2970.69 14187.1 2964.61 14187.1 2959.69 14182.2 2959.69 14176.1 2959.69 14170 2964.61 14165.1 2970.69 14165.1 2976.76 14165.1 2981.69 14170 2981.69 14176.1Z" stroke="#4472C4" stroke-width="3.4375" stroke-linejoin="round" stroke-miterlimit="10" fill="#4472C4"/><path d="M2988.69 14011.1C2988.69 14017.2 2983.76 14022.1 2977.69 14022.1 2971.61 14022.1 2966.69 14017.2 2966.69 14011.1 2966.69 14005 2971.61 14000.1 2977.69 14000.1 2983.76 14000.1 2988.69 14005 2988.69 14011.1Z" stroke="#4472C4" stroke-width="3.4375" stroke-linejoin="round" stroke-miterlimit="10" fill="#4472C4"/><path d="M2994.69 13831.1C2994.69 13837.2 2989.76 13842.1 2983.69 13842.1 2977.61 13842.1 2972.69 13837.2 2972.69 13831.1 2972.69 13825 2977.61 13820.1 2983.69 13820.1 2989.76 13820.1 2994.69 13825 2994.69 13831.1Z" stroke="#4472C4" stroke-width="3.4375" stroke-linejoin="round" stroke-miterlimit="10" fill="#4472C4"/><path d="M3000.69 14040.1C3000.69 14046.2 2995.76 14051.1 2989.69 14051.1 2983.61 14051.1 2978.69 14046.2 2978.69 14040.1 2978.69 14034 2983.61 14029.1 2989.69 14029.1 2995.76 14029.1 3000.69 14034 3000.69 14040.1Z" stroke="#4472C4" stroke-width="3.4375" stroke-linejoin="round" stroke-miterlimit="10" fill="#4472C4"/><path d="M3007.69 14169.1C3007.69 14175.2 3002.76 14180.1 2996.69 14180.1 2990.61 14180.1 2985.69 14175.2 2985.69 14169.1 2985.69 14163 2990.61 14158.1 2996.69 14158.1 3002.76 14158.1 3007.69 14163 3007.69 14169.1Z" stroke="#4472C4" stroke-width="3.4375" stroke-linejoin="round" stroke-miterlimit="10" fill="#4472C4"/><path d="M3013.69 14034.1C3013.69 14040.2 3008.76 14045.1 3002.69 14045.1 2996.61 14045.1 2991.69 14040.2 2991.69 14034.1 2991.69 14028 2996.61 14023.1 3002.69 14023.1 3008.76 14023.1 3013.69 14028 3013.69 14034.1Z" stroke="#4472C4" stroke-width="3.4375" stroke-linejoin="round" stroke-miterlimit="10" fill="#4472C4"/><path d="M3020.69 13831.1C3020.69 13837.2 3015.76 13842.1 3009.69 13842.1 3003.61 13842.1 2998.69 13837.2 2998.69 13831.1 2998.69 13825 3003.61 13820.1 3009.69 13820.1 3015.76 13820.1 3020.69 13825 3020.69 13831.1Z" stroke="#4472C4" stroke-width="3.4375" stroke-linejoin="round" stroke-miterlimit="10" fill="#4472C4"/><path d="M3026.69 14176.1C3026.69 14182.2 3021.76 14187.1 3015.69 14187.1 3009.61 14187.1 3004.69 14182.2 3004.69 14176.1 3004.69 14170 3009.61 14165.1 3015.69 14165.1 3021.76 14165.1 3026.69 14170 3026.69 14176.1Z" stroke="#4472C4" stroke-width="3.4375" stroke-linejoin="round" stroke-miterlimit="10" fill="#4472C4"/><path d="M3033.69 14177.1C3033.69 14183.2 3028.76 14188.1 3022.69 14188.1 3016.61 14188.1 3011.69 14183.2 3011.69 14177.1 3011.69 14171 3016.61 14166.1 3022.69 14166.1 3028.76 14166.1 3033.69 14171 3033.69 14177.1Z" stroke="#4472C4" stroke-width="3.4375" stroke-linejoin="round" stroke-miterlimit="10" fill="#4472C4"/><path d="M3039.69 14167.1C3039.69 14173.2 3034.76 14178.1 3028.69 14178.1 3022.61 14178.1 3017.69 14173.2 3017.69 14167.1 3017.69 14161 3022.61 14156.1 3028.69 14156.1 3034.76 14156.1 3039.69 14161 3039.69 14167.1Z" stroke="#4472C4" stroke-width="3.4375" stroke-linejoin="round" stroke-miterlimit="10" fill="#4472C4"/><path d="M3046.69 13997.1C3046.69 14003.2 3041.76 14008.1 3035.69 14008.1 3029.61 14008.1 3024.69 14003.2 3024.69 13997.1 3024.69 13991 3029.61 13986.1 3035.69 13986.1 3041.76 13986.1 3046.69 13991 3046.69 13997.1Z" stroke="#4472C4" stroke-width="3.4375" stroke-linejoin="round" stroke-miterlimit="10" fill="#4472C4"/><path d="M3052.69 13831.1C3052.69 13837.2 3047.76 13842.1 3041.69 13842.1 3035.61 13842.1 3030.69 13837.2 3030.69 13831.1 3030.69 13825 3035.61 13820.1 3041.69 13820.1 3047.76 13820.1 3052.69 13825 3052.69 13831.1Z" stroke="#4472C4" stroke-width="3.4375" stroke-linejoin="round" stroke-miterlimit="10" fill="#4472C4"/><path d="M3059.69 14000.1C3059.69 14006.2 3054.76 14011.1 3048.69 14011.1 3042.61 14011.1 3037.69 14006.2 3037.69 14000.1 3037.69 13994 3042.61 13989.1 3048.69 13989.1 3054.76 13989.1 3059.69 13994 3059.69 14000.1Z" stroke="#4472C4" stroke-width="3.4375" stroke-linejoin="round" stroke-miterlimit="10" fill="#4472C4"/><path d="M3065.69 14177.1C3065.69 14183.2 3060.76 14188.1 3054.69 14188.1 3048.61 14188.1 3043.69 14183.2 3043.69 14177.1 3043.69 14171 3048.61 14166.1 3054.69 14166.1 3060.76 14166.1 3065.69 14171 3065.69 14177.1Z" stroke="#4472C4" stroke-width="3.4375" stroke-linejoin="round" stroke-miterlimit="10" fill="#4472C4"/><path d="M3072.69 14000.1C3072.69 14006.2 3067.76 14011.1 3061.69 14011.1 3055.61 14011.1 3050.69 14006.2 3050.69 14000.1 3050.69 13994 3055.61 13989.1 3061.69 13989.1 3067.76 13989.1 3072.69 13994 3072.69 14000.1Z" stroke="#4472C4" stroke-width="3.4375" stroke-linejoin="round" stroke-miterlimit="10" fill="#4472C4"/><path d="M3078.69 14006.1C3078.69 14012.2 3073.76 14017.1 3067.69 14017.1 3061.61 14017.1 3056.69 14012.2 3056.69 14006.1 3056.69 14000 3061.61 13995.1 3067.69 13995.1 3073.76 13995.1 3078.69 14000 3078.69 14006.1Z" stroke="#4472C4" stroke-width="3.4375" stroke-linejoin="round" stroke-miterlimit="10" fill="#4472C4"/><path d="M3085.69 13831.1C3085.69 13837.2 3080.76 13842.1 3074.69 13842.1 3068.61 13842.1 3063.69 13837.2 3063.69 13831.1 3063.69 13825 3068.61 13820.1 3074.69 13820.1 3080.76 13820.1 3085.69 13825 3085.69 13831.1Z" stroke="#4472C4" stroke-width="3.4375" stroke-linejoin="round" stroke-miterlimit="10" fill="#4472C4"/><path d="M3091.69 14010.1C3091.69 14016.2 3086.76 14021.1 3080.69 14021.1 3074.61 14021.1 3069.69 14016.2 3069.69 14010.1 3069.69 14004 3074.61 13999.1 3080.69 13999.1 3086.76 13999.1 3091.69 14004 3091.69 14010.1Z" stroke="#4472C4" stroke-width="3.4375" stroke-linejoin="round" stroke-miterlimit="10" fill="#4472C4"/><path d="M3098.69 14005.1C3098.69 14011.2 3093.76 14016.1 3087.69 14016.1 3081.61 14016.1 3076.69 14011.2 3076.69 14005.1 3076.69 13999 3081.61 13994.1 3087.69 13994.1 3093.76 13994.1 3098.69 13999 3098.69 14005.1Z" stroke="#4472C4" stroke-width="3.4375" stroke-linejoin="round" stroke-miterlimit="10" fill="#4472C4"/><path d="M3104.69 13988.1C3104.69 13994.2 3099.76 13999.1 3093.69 13999.1 3087.61 13999.1 3082.69 13994.2 3082.69 13988.1 3082.69 13982 3087.61 13977.1 3093.69 13977.1 3099.76 13977.1 3104.69 13982 3104.69 13988.1Z" stroke="#4472C4" stroke-width="3.4375" stroke-linejoin="round" stroke-miterlimit="10" fill="#4472C4"/><path d="M3110.69 13992.1C3110.69 13998.2 3105.76 14003.1 3099.69 14003.1 3093.61 14003.1 3088.69 13998.2 3088.69 13992.1 3088.69 13986 3093.61 13981.1 3099.69 13981.1 3105.76 13981.1 3110.69 13986 3110.69 13992.1Z" stroke="#4472C4" stroke-width="3.4375" stroke-linejoin="round" stroke-miterlimit="10" fill="#4472C4"/><path d="M3117.69 13832.1C3117.69 13838.2 3112.76 13843.1 3106.69 13843.1 3100.61 13843.1 3095.69 13838.2 3095.69 13832.1 3095.69 13826 3100.61 13821.1 3106.69 13821.1 3112.76 13821.1 3117.69 13826 3117.69 13832.1Z" stroke="#4472C4" stroke-width="3.4375" stroke-linejoin="round" stroke-miterlimit="10" fill="#4472C4"/><path d="M3123.69 13831.1C3123.69 13837.2 3118.76 13842.1 3112.69 13842.1 3106.61 13842.1 3101.69 13837.2 3101.69 13831.1 3101.69 13825 3106.61 13820.1 3112.69 13820.1 3118.76 13820.1 3123.69 13825 3123.69 13831.1Z" stroke="#4472C4" stroke-width="3.4375" stroke-linejoin="round" stroke-miterlimit="10" fill="#4472C4"/><path d="M3130.69 13863.1C3130.69 13869.2 3125.76 13874.1 3119.69 13874.1 3113.61 13874.1 3108.69 13869.2 3108.69 13863.1 3108.69 13857 3113.61 13852.1 3119.69 13852.1 3125.76 13852.1 3130.69 13857 3130.69 13863.1Z" stroke="#4472C4" stroke-width="3.4375" stroke-linejoin="round" stroke-miterlimit="10" fill="#4472C4"/><path d="M3136.69 14012.1C3136.69 14018.2 3131.76 14023.1 3125.69 14023.1 3119.61 14023.1 3114.69 14018.2 3114.69 14012.1 3114.69 14006 3119.61 14001.1 3125.69 14001.1 3131.76 14001.1 3136.69 14006 3136.69 14012.1Z" stroke="#4472C4" stroke-width="3.4375" stroke-linejoin="round" stroke-miterlimit="10" fill="#4472C4"/><path d="M3143.69 13830.1C3143.69 13836.2 3138.76 13841.1 3132.69 13841.1 3126.61 13841.1 3121.69 13836.2 3121.69 13830.1 3121.69 13824 3126.61 13819.1 3132.69 13819.1 3138.76 13819.1 3143.69 13824 3143.69 13830.1Z" stroke="#4472C4" stroke-width="3.4375" stroke-linejoin="round" stroke-miterlimit="10" fill="#4472C4"/><path d="M3149.69 13986.1C3149.69 13992.2 3144.76 13997.1 3138.69 13997.1 3132.61 13997.1 3127.69 13992.2 3127.69 13986.1 3127.69 13980 3132.61 13975.1 3138.69 13975.1 3144.76 13975.1 3149.69 13980 3149.69 13986.1Z" stroke="#4472C4" stroke-width="3.4375" stroke-linejoin="round" stroke-miterlimit="10" fill="#4472C4"/><path d="M3156.69 14182.1C3156.69 14188.2 3151.76 14193.1 3145.69 14193.1 3139.61 14193.1 3134.69 14188.2 3134.69 14182.1 3134.69 14176 3139.61 14171.1 3145.69 14171.1 3151.76 14171.1 3156.69 14176 3156.69 14182.1Z" stroke="#4472C4" stroke-width="3.4375" stroke-linejoin="round" stroke-miterlimit="10" fill="#4472C4"/><path d="M3162.69 13832.1C3162.69 13838.2 3157.76 13843.1 3151.69 13843.1 3145.61 13843.1 3140.69 13838.2 3140.69 13832.1 3140.69 13826 3145.61 13821.1 3151.69 13821.1 3157.76 13821.1 3162.69 13826 3162.69 13832.1Z" stroke="#4472C4" stroke-width="3.4375" stroke-linejoin="round" stroke-miterlimit="10" fill="#4472C4"/><path d="M3169.69 13824.1C3169.69 13830.2 3164.76 13835.1 3158.69 13835.1 3152.61 13835.1 3147.69 13830.2 3147.69 13824.1 3147.69 13818 3152.61 13813.1 3158.69 13813.1 3164.76 13813.1 3169.69 13818 3169.69 13824.1Z" stroke="#4472C4" stroke-width="3.4375" stroke-linejoin="round" stroke-miterlimit="10" fill="#4472C4"/><path d="M3175.69 13822.1C3175.69 13828.2 3170.76 13833.1 3164.69 13833.1 3158.61 13833.1 3153.69 13828.2 3153.69 13822.1 3153.69 13816 3158.61 13811.1 3164.69 13811.1 3170.76 13811.1 3175.69 13816 3175.69 13822.1Z" stroke="#4472C4" stroke-width="3.4375" stroke-linejoin="round" stroke-miterlimit="10" fill="#4472C4"/><path d="M3182.69 13825.1C3182.69 13831.2 3177.76 13836.1 3171.69 13836.1 3165.61 13836.1 3160.69 13831.2 3160.69 13825.1 3160.69 13819 3165.61 13814.1 3171.69 13814.1 3177.76 13814.1 3182.69 13819 3182.69 13825.1Z" stroke="#4472C4" stroke-width="3.4375" stroke-linejoin="round" stroke-miterlimit="10" fill="#4472C4"/><path d="M3188.69 13831.1C3188.69 13837.2 3183.76 13842.1 3177.69 13842.1 3171.61 13842.1 3166.69 13837.2 3166.69 13831.1 3166.69 13825 3171.61 13820.1 3177.69 13820.1 3183.76 13820.1 3188.69 13825 3188.69 13831.1Z" stroke="#4472C4" stroke-width="3.4375" stroke-linejoin="round" stroke-miterlimit="10" fill="#4472C4"/><path d="M3195.69 13824.1C3195.69 13830.2 3190.76 13835.1 3184.69 13835.1 3178.61 13835.1 3173.69 13830.2 3173.69 13824.1 3173.69 13818 3178.61 13813.1 3184.69 13813.1 3190.76 13813.1 3195.69 13818 3195.69 13824.1Z" stroke="#4472C4" stroke-width="3.4375" stroke-linejoin="round" stroke-miterlimit="10" fill="#4472C4"/><path d="M3201.69 13823.1C3201.69 13829.2 3196.76 13834.1 3190.69 13834.1 3184.61 13834.1 3179.69 13829.2 3179.69 13823.1 3179.69 13817 3184.61 13812.1 3190.69 13812.1 3196.76 13812.1 3201.69 13817 3201.69 13823.1Z" stroke="#4472C4" stroke-width="3.4375" stroke-linejoin="round" stroke-miterlimit="10" fill="#4472C4"/><path d="M3208.69 13826.1C3208.69 13832.2 3203.76 13837.1 3197.69 13837.1 3191.61 13837.1 3186.69 13832.2 3186.69 13826.1 3186.69 13820 3191.61 13815.1 3197.69 13815.1 3203.76 13815.1 3208.69 13820 3208.69 13826.1Z" stroke="#4472C4" stroke-width="3.4375" stroke-linejoin="round" stroke-miterlimit="10" fill="#4472C4"/><path d="M3214.69 13994.1C3214.69 14000.2 3209.76 14005.1 3203.69 14005.1 3197.61 14005.1 3192.69 14000.2 3192.69 13994.1 3192.69 13988 3197.61 13983.1 3203.69 13983.1 3209.76 13983.1 3214.69 13988 3214.69 13994.1Z" stroke="#4472C4" stroke-width="3.4375" stroke-linejoin="round" stroke-miterlimit="10" fill="#4472C4"/><path d="M3220.69 13830.1C3220.69 13836.2 3215.76 13841.1 3209.69 13841.1 3203.61 13841.1 3198.69 13836.2 3198.69 13830.1 3198.69 13824 3203.61 13819.1 3209.69 13819.1 3215.76 13819.1 3220.69 13824 3220.69 13830.1Z" stroke="#4472C4" stroke-width="3.4375" stroke-linejoin="round" stroke-miterlimit="10" fill="#4472C4"/><path d="M3227.69 13827.1C3227.69 13833.2 3222.76 13838.1 3216.69 13838.1 3210.61 13838.1 3205.69 13833.2 3205.69 13827.1 3205.69 13821 3210.61 13816.1 3216.69 13816.1 3222.76 13816.1 3227.69 13821 3227.69 13827.1Z" stroke="#4472C4" stroke-width="3.4375" stroke-linejoin="round" stroke-miterlimit="10" fill="#4472C4"/><path d="M3233.69 13826.1C3233.69 13832.2 3228.76 13837.1 3222.69 13837.1 3216.61 13837.1 3211.69 13832.2 3211.69 13826.1 3211.69 13820 3216.61 13815.1 3222.69 13815.1 3228.76 13815.1 3233.69 13820 3233.69 13826.1Z" stroke="#4472C4" stroke-width="3.4375" stroke-linejoin="round" stroke-miterlimit="10" fill="#4472C4"/><path d="M3240.69 13820.1C3240.69 13826.2 3235.76 13831.1 3229.69 13831.1 3223.61 13831.1 3218.69 13826.2 3218.69 13820.1 3218.69 13814 3223.61 13809.1 3229.69 13809.1 3235.76 13809.1 3240.69 13814 3240.69 13820.1Z" stroke="#4472C4" stroke-width="3.4375" stroke-linejoin="round" stroke-miterlimit="10" fill="#4472C4"/><path d="M3246.69 13821.1C3246.69 13827.2 3241.76 13832.1 3235.69 13832.1 3229.61 13832.1 3224.69 13827.2 3224.69 13821.1 3224.69 13815 3229.61 13810.1 3235.69 13810.1 3241.76 13810.1 3246.69 13815 3246.69 13821.1Z" stroke="#4472C4" stroke-width="3.4375" stroke-linejoin="round" stroke-miterlimit="10" fill="#4472C4"/><path d="M3253.69 13823.1C3253.69 13829.2 3248.76 13834.1 3242.69 13834.1 3236.61 13834.1 3231.69 13829.2 3231.69 13823.1 3231.69 13817 3236.61 13812.1 3242.69 13812.1 3248.76 13812.1 3253.69 13817 3253.69 13823.1Z" stroke="#4472C4" stroke-width="3.4375" stroke-linejoin="round" stroke-miterlimit="10" fill="#4472C4"/><path d="M3259.69 13830.1C3259.69 13836.2 3254.76 13841.1 3248.69 13841.1 3242.61 13841.1 3237.69 13836.2 3237.69 13830.1 3237.69 13824 3242.61 13819.1 3248.69 13819.1 3254.76 13819.1 3259.69 13824 3259.69 13830.1Z" stroke="#4472C4" stroke-width="3.4375" stroke-linejoin="round" stroke-miterlimit="10" fill="#4472C4"/><path d="M3266.69 13822.1C3266.69 13828.2 3261.76 13833.1 3255.69 13833.1 3249.61 13833.1 3244.69 13828.2 3244.69 13822.1 3244.69 13816 3249.61 13811.1 3255.69 13811.1 3261.76 13811.1 3266.69 13816 3266.69 13822.1Z" stroke="#4472C4" stroke-width="3.4375" stroke-linejoin="round" stroke-miterlimit="10" fill="#4472C4"/><path d="M3272.69 13826.1C3272.69 13832.2 3267.76 13837.1 3261.69 13837.1 3255.61 13837.1 3250.69 13832.2 3250.69 13826.1 3250.69 13820 3255.61 13815.1 3261.69 13815.1 3267.76 13815.1 3272.69 13820 3272.69 13826.1Z" stroke="#4472C4" stroke-width="3.4375" stroke-linejoin="round" stroke-miterlimit="10" fill="#4472C4"/><path d="M3279.69 13822.1C3279.69 13828.2 3274.76 13833.1 3268.69 13833.1 3262.61 13833.1 3257.69 13828.2 3257.69 13822.1 3257.69 13816 3262.61 13811.1 3268.69 13811.1 3274.76 13811.1 3279.69 13816 3279.69 13822.1Z" stroke="#4472C4" stroke-width="3.4375" stroke-linejoin="round" stroke-miterlimit="10" fill="#4472C4"/><path d="M3285.69 13823.1C3285.69 13829.2 3280.76 13834.1 3274.69 13834.1 3268.61 13834.1 3263.69 13829.2 3263.69 13823.1 3263.69 13817 3268.61 13812.1 3274.69 13812.1 3280.76 13812.1 3285.69 13817 3285.69 13823.1Z" stroke="#4472C4" stroke-width="3.4375" stroke-linejoin="round" stroke-miterlimit="10" fill="#4472C4"/><path d="M3292.69 13820.1C3292.69 13826.2 3287.76 13831.1 3281.69 13831.1 3275.61 13831.1 3270.69 13826.2 3270.69 13820.1 3270.69 13814 3275.61 13809.1 3281.69 13809.1 3287.76 13809.1 3292.69 13814 3292.69 13820.1Z" stroke="#4472C4" stroke-width="3.4375" stroke-linejoin="round" stroke-miterlimit="10" fill="#4472C4"/><path d="M3298.69 13824.1C3298.69 13830.2 3293.76 13835.1 3287.69 13835.1 3281.61 13835.1 3276.69 13830.2 3276.69 13824.1 3276.69 13818 3281.61 13813.1 3287.69 13813.1 3293.76 13813.1 3298.69 13818 3298.69 13824.1Z" stroke="#4472C4" stroke-width="3.4375" stroke-linejoin="round" stroke-miterlimit="10" fill="#4472C4"/><path d="M3305.69 13991.1C3305.69 13997.2 3300.76 14002.1 3294.69 14002.1 3288.61 14002.1 3283.69 13997.2 3283.69 13991.1 3283.69 13985 3288.61 13980.1 3294.69 13980.1 3300.76 13980.1 3305.69 13985 3305.69 13991.1Z" stroke="#4472C4" stroke-width="3.4375" stroke-linejoin="round" stroke-miterlimit="10" fill="#4472C4"/><path d="M3311.69 13830.1C3311.69 13836.2 3306.76 13841.1 3300.69 13841.1 3294.61 13841.1 3289.69 13836.2 3289.69 13830.1 3289.69 13824 3294.61 13819.1 3300.69 13819.1 3306.76 13819.1 3311.69 13824 3311.69 13830.1Z" stroke="#4472C4" stroke-width="3.4375" stroke-linejoin="round" stroke-miterlimit="10" fill="#4472C4"/><path d="M3318.69 13824.1C3318.69 13830.2 3313.76 13835.1 3307.69 13835.1 3301.61 13835.1 3296.69 13830.2 3296.69 13824.1 3296.69 13818 3301.61 13813.1 3307.69 13813.1 3313.76 13813.1 3318.69 13818 3318.69 13824.1Z" stroke="#4472C4" stroke-width="3.4375" stroke-linejoin="round" stroke-miterlimit="10" fill="#4472C4"/><path d="M3324.69 13651.1C3324.69 13657.2 3319.76 13662.1 3313.69 13662.1 3307.61 13662.1 3302.69 13657.2 3302.69 13651.1 3302.69 13645 3307.61 13640.1 3313.69 13640.1 3319.76 13640.1 3324.69 13645 3324.69 13651.1Z" stroke="#4472C4" stroke-width="3.4375" stroke-linejoin="round" stroke-miterlimit="10" fill="#4472C4"/><path d="M3331.69 13827.1C3331.69 13833.2 3326.76 13838.1 3320.69 13838.1 3314.61 13838.1 3309.69 13833.2 3309.69 13827.1 3309.69 13821 3314.61 13816.1 3320.69 13816.1 3326.76 13816.1 3331.69 13821 3331.69 13827.1Z" stroke="#4472C4" stroke-width="3.4375" stroke-linejoin="round" stroke-miterlimit="10" fill="#4472C4"/><path d="M3337.69 13831.1C3337.69 13837.2 3332.76 13842.1 3326.69 13842.1 3320.61 13842.1 3315.69 13837.2 3315.69 13831.1 3315.69 13825 3320.61 13820.1 3326.69 13820.1 3332.76 13820.1 3337.69 13825 3337.69 13831.1Z" stroke="#4472C4" stroke-width="3.4375" stroke-linejoin="round" stroke-miterlimit="10" fill="#4472C4"/><path d="M3343.69 13831.1C3343.69 13837.2 3338.76 13842.1 3332.69 13842.1 3326.61 13842.1 3321.69 13837.2 3321.69 13831.1 3321.69 13825 3326.61 13820.1 3332.69 13820.1 3338.76 13820.1 3343.69 13825 3343.69 13831.1Z" stroke="#4472C4" stroke-width="3.4375" stroke-linejoin="round" stroke-miterlimit="10" fill="#4472C4"/><path d="M3350.69 13826.1C3350.69 13832.2 3345.76 13837.1 3339.69 13837.1 3333.61 13837.1 3328.69 13832.2 3328.69 13826.1 3328.69 13820 3333.61 13815.1 3339.69 13815.1 3345.76 13815.1 3350.69 13820 3350.69 13826.1Z" stroke="#4472C4" stroke-width="3.4375" stroke-linejoin="round" stroke-miterlimit="10" fill="#4472C4"/><path d="M3356.69 13831.1C3356.69 13837.2 3351.76 13842.1 3345.69 13842.1 3339.61 13842.1 3334.69 13837.2 3334.69 13831.1 3334.69 13825 3339.61 13820.1 3345.69 13820.1 3351.76 13820.1 3356.69 13825 3356.69 13831.1Z" stroke="#4472C4" stroke-width="3.4375" stroke-linejoin="round" stroke-miterlimit="10" fill="#4472C4"/><path d="M3363.69 13819.1C3363.69 13825.2 3358.76 13830.1 3352.69 13830.1 3346.61 13830.1 3341.69 13825.2 3341.69 13819.1 3341.69 13813 3346.61 13808.1 3352.69 13808.1 3358.76 13808.1 3363.69 13813 3363.69 13819.1Z" stroke="#4472C4" stroke-width="3.4375" stroke-linejoin="round" stroke-miterlimit="10" fill="#4472C4"/><path d="M3369.69 13825.1C3369.69 13831.2 3364.76 13836.1 3358.69 13836.1 3352.61 13836.1 3347.69 13831.2 3347.69 13825.1 3347.69 13819 3352.61 13814.1 3358.69 13814.1 3364.76 13814.1 3369.69 13819 3369.69 13825.1Z" stroke="#4472C4" stroke-width="3.4375" stroke-linejoin="round" stroke-miterlimit="10" fill="#4472C4"/><path d="M3376.69 13824.1C3376.69 13830.2 3371.76 13835.1 3365.69 13835.1 3359.61 13835.1 3354.69 13830.2 3354.69 13824.1 3354.69 13818 3359.61 13813.1 3365.69 13813.1 3371.76 13813.1 3376.69 13818 3376.69 13824.1Z" stroke="#4472C4" stroke-width="3.4375" stroke-linejoin="round" stroke-miterlimit="10" fill="#4472C4"/><path d="M3382.69 13829.1C3382.69 13835.2 3377.76 13840.1 3371.69 13840.1 3365.61 13840.1 3360.69 13835.2 3360.69 13829.1 3360.69 13823 3365.61 13818.1 3371.69 13818.1 3377.76 13818.1 3382.69 13823 3382.69 13829.1Z" stroke="#4472C4" stroke-width="3.4375" stroke-linejoin="round" stroke-miterlimit="10" fill="#4472C4"/><path d="M3389.69 13824.1C3389.69 13830.2 3384.76 13835.1 3378.69 13835.1 3372.61 13835.1 3367.69 13830.2 3367.69 13824.1 3367.69 13818 3372.61 13813.1 3378.69 13813.1 3384.76 13813.1 3389.69 13818 3389.69 13824.1Z" stroke="#4472C4" stroke-width="3.4375" stroke-linejoin="round" stroke-miterlimit="10" fill="#4472C4"/><path d="M3395.69 14001.1C3395.69 14007.2 3390.76 14012.1 3384.69 14012.1 3378.61 14012.1 3373.69 14007.2 3373.69 14001.1 3373.69 13995 3378.61 13990.1 3384.69 13990.1 3390.76 13990.1 3395.69 13995 3395.69 14001.1Z" stroke="#4472C4" stroke-width="3.4375" stroke-linejoin="round" stroke-miterlimit="10" fill="#4472C4"/><path d="M3402.69 13820.1C3402.69 13826.2 3397.76 13831.1 3391.69 13831.1 3385.61 13831.1 3380.69 13826.2 3380.69 13820.1 3380.69 13814 3385.61 13809.1 3391.69 13809.1 3397.76 13809.1 3402.69 13814 3402.69 13820.1Z" stroke="#4472C4" stroke-width="3.4375" stroke-linejoin="round" stroke-miterlimit="10" fill="#4472C4"/><path d="M3408.69 13825.1C3408.69 13831.2 3403.76 13836.1 3397.69 13836.1 3391.61 13836.1 3386.69 13831.2 3386.69 13825.1 3386.69 13819 3391.61 13814.1 3397.69 13814.1 3403.76 13814.1 3408.69 13819 3408.69 13825.1Z" stroke="#4472C4" stroke-width="3.4375" stroke-linejoin="round" stroke-miterlimit="10" fill="#4472C4"/><path d="M3415.69 13830.1C3415.69 13836.2 3410.76 13841.1 3404.69 13841.1 3398.61 13841.1 3393.69 13836.2 3393.69 13830.1 3393.69 13824 3398.61 13819.1 3404.69 13819.1 3410.76 13819.1 3415.69 13824 3415.69 13830.1Z" stroke="#4472C4" stroke-width="3.4375" stroke-linejoin="round" stroke-miterlimit="10" fill="#4472C4"/><path d="M3421.69 13828.1C3421.69 13834.2 3416.76 13839.1 3410.69 13839.1 3404.61 13839.1 3399.69 13834.2 3399.69 13828.1 3399.69 13822 3404.61 13817.1 3410.69 13817.1 3416.76 13817.1 3421.69 13822 3421.69 13828.1Z" stroke="#4472C4" stroke-width="3.4375" stroke-linejoin="round" stroke-miterlimit="10" fill="#4472C4"/><path d="M3428.69 14003.1C3428.69 14009.2 3423.76 14014.1 3417.69 14014.1 3411.61 14014.1 3406.69 14009.2 3406.69 14003.1 3406.69 13997 3411.61 13992.1 3417.69 13992.1 3423.76 13992.1 3428.69 13997 3428.69 14003.1Z" stroke="#4472C4" stroke-width="3.4375" stroke-linejoin="round" stroke-miterlimit="10" fill="#4472C4"/><path d="M3434.69 13827.1C3434.69 13833.2 3429.76 13838.1 3423.69 13838.1 3417.61 13838.1 3412.69 13833.2 3412.69 13827.1 3412.69 13821 3417.61 13816.1 3423.69 13816.1 3429.76 13816.1 3434.69 13821 3434.69 13827.1Z" stroke="#4472C4" stroke-width="3.4375" stroke-linejoin="round" stroke-miterlimit="10" fill="#4472C4"/><path d="M3441.69 13824.1C3441.69 13830.2 3436.76 13835.1 3430.69 13835.1 3424.61 13835.1 3419.69 13830.2 3419.69 13824.1 3419.69 13818 3424.61 13813.1 3430.69 13813.1 3436.76 13813.1 3441.69 13818 3441.69 13824.1Z" stroke="#4472C4" stroke-width="3.4375" stroke-linejoin="round" stroke-miterlimit="10" fill="#4472C4"/><path d="M3447.69 13825.1C3447.69 13831.2 3442.76 13836.1 3436.69 13836.1 3430.61 13836.1 3425.69 13831.2 3425.69 13825.1 3425.69 13819 3430.61 13814.1 3436.69 13814.1 3442.76 13814.1 3447.69 13819 3447.69 13825.1Z" stroke="#4472C4" stroke-width="3.4375" stroke-linejoin="round" stroke-miterlimit="10" fill="#4472C4"/><path d="M3453.69 13828.1C3453.69 13834.2 3448.76 13839.1 3442.69 13839.1 3436.61 13839.1 3431.69 13834.2 3431.69 13828.1 3431.69 13822 3436.61 13817.1 3442.69 13817.1 3448.76 13817.1 3453.69 13822 3453.69 13828.1Z" stroke="#4472C4" stroke-width="3.4375" stroke-linejoin="round" stroke-miterlimit="10" fill="#4472C4"/><path d="M3460.69 13823.1C3460.69 13829.2 3455.76 13834.1 3449.69 13834.1 3443.61 13834.1 3438.69 13829.2 3438.69 13823.1 3438.69 13817 3443.61 13812.1 3449.69 13812.1 3455.76 13812.1 3460.69 13817 3460.69 13823.1Z" stroke="#4472C4" stroke-width="3.4375" stroke-linejoin="round" stroke-miterlimit="10" fill="#4472C4"/><path d="M3466.69 13831.1C3466.69 13837.2 3461.76 13842.1 3455.69 13842.1 3449.61 13842.1 3444.69 13837.2 3444.69 13831.1 3444.69 13825 3449.61 13820.1 3455.69 13820.1 3461.76 13820.1 3466.69 13825 3466.69 13831.1Z" stroke="#4472C4" stroke-width="3.4375" stroke-linejoin="round" stroke-miterlimit="10" fill="#4472C4"/><path d="M3473.69 13821.1C3473.69 13827.2 3468.76 13832.1 3462.69 13832.1 3456.61 13832.1 3451.69 13827.2 3451.69 13821.1 3451.69 13815 3456.61 13810.1 3462.69 13810.1 3468.76 13810.1 3473.69 13815 3473.69 13821.1Z" stroke="#4472C4" stroke-width="3.4375" stroke-linejoin="round" stroke-miterlimit="10" fill="#4472C4"/><path d="M3479.69 13825.1C3479.69 13831.2 3474.76 13836.1 3468.69 13836.1 3462.61 13836.1 3457.69 13831.2 3457.69 13825.1 3457.69 13819 3462.61 13814.1 3468.69 13814.1 3474.76 13814.1 3479.69 13819 3479.69 13825.1Z" stroke="#4472C4" stroke-width="3.4375" stroke-linejoin="round" stroke-miterlimit="10" fill="#4472C4"/><path d="M3486.69 13831.1C3486.69 13837.2 3481.76 13842.1 3475.69 13842.1 3469.61 13842.1 3464.69 13837.2 3464.69 13831.1 3464.69 13825 3469.61 13820.1 3475.69 13820.1 3481.76 13820.1 3486.69 13825 3486.69 13831.1Z" stroke="#4472C4" stroke-width="3.4375" stroke-linejoin="round" stroke-miterlimit="10" fill="#4472C4"/><path d="M3492.69 13999.1C3492.69 14005.2 3487.76 14010.1 3481.69 14010.1 3475.61 14010.1 3470.69 14005.2 3470.69 13999.1 3470.69 13993 3475.61 13988.1 3481.69 13988.1 3487.76 13988.1 3492.69 13993 3492.69 13999.1Z" stroke="#4472C4" stroke-width="3.4375" stroke-linejoin="round" stroke-miterlimit="10" fill="#4472C4"/><path d="M3499.69 13831.1C3499.69 13837.2 3494.76 13842.1 3488.69 13842.1 3482.61 13842.1 3477.69 13837.2 3477.69 13831.1 3477.69 13825 3482.61 13820.1 3488.69 13820.1 3494.76 13820.1 3499.69 13825 3499.69 13831.1Z" stroke="#4472C4" stroke-width="3.4375" stroke-linejoin="round" stroke-miterlimit="10" fill="#4472C4"/><path d="M3505.69 13829.1C3505.69 13835.2 3500.76 13840.1 3494.69 13840.1 3488.61 13840.1 3483.69 13835.2 3483.69 13829.1 3483.69 13823 3488.61 13818.1 3494.69 13818.1 3500.76 13818.1 3505.69 13823 3505.69 13829.1Z" stroke="#4472C4" stroke-width="3.4375" stroke-linejoin="round" stroke-miterlimit="10" fill="#4472C4"/><path d="M3512.69 13827.1C3512.69 13833.2 3507.76 13838.1 3501.69 13838.1 3495.61 13838.1 3490.69 13833.2 3490.69 13827.1 3490.69 13821 3495.61 13816.1 3501.69 13816.1 3507.76 13816.1 3512.69 13821 3512.69 13827.1Z" stroke="#4472C4" stroke-width="3.4375" stroke-linejoin="round" stroke-miterlimit="10" fill="#4472C4"/><path d="M3518.69 13828.1C3518.69 13834.2 3513.76 13839.1 3507.69 13839.1 3501.61 13839.1 3496.69 13834.2 3496.69 13828.1 3496.69 13822 3501.61 13817.1 3507.69 13817.1 3513.76 13817.1 3518.69 13822 3518.69 13828.1Z" stroke="#4472C4" stroke-width="3.4375" stroke-linejoin="round" stroke-miterlimit="10" fill="#4472C4"/><path d="M3525.69 13825.1C3525.69 13831.2 3520.76 13836.1 3514.69 13836.1 3508.61 13836.1 3503.69 13831.2 3503.69 13825.1 3503.69 13819 3508.61 13814.1 3514.69 13814.1 3520.76 13814.1 3525.69 13819 3525.69 13825.1Z" stroke="#4472C4" stroke-width="3.4375" stroke-linejoin="round" stroke-miterlimit="10" fill="#4472C4"/><path d="M3531.69 13829.1C3531.69 13835.2 3526.76 13840.1 3520.69 13840.1 3514.61 13840.1 3509.69 13835.2 3509.69 13829.1 3509.69 13823 3514.61 13818.1 3520.69 13818.1 3526.76 13818.1 3531.69 13823 3531.69 13829.1Z" stroke="#4472C4" stroke-width="3.4375" stroke-linejoin="round" stroke-miterlimit="10" fill="#4472C4"/><path d="M3538.69 13820.1C3538.69 13826.2 3533.76 13831.1 3527.69 13831.1 3521.61 13831.1 3516.69 13826.2 3516.69 13820.1 3516.69 13814 3521.61 13809.1 3527.69 13809.1 3533.76 13809.1 3538.69 13814 3538.69 13820.1Z" stroke="#4472C4" stroke-width="3.4375" stroke-linejoin="round" stroke-miterlimit="10" fill="#4472C4"/><path d="M3544.69 13829.1C3544.69 13835.2 3539.76 13840.1 3533.69 13840.1 3527.61 13840.1 3522.69 13835.2 3522.69 13829.1 3522.69 13823 3527.61 13818.1 3533.69 13818.1 3539.76 13818.1 3544.69 13823 3544.69 13829.1Z" stroke="#4472C4" stroke-width="3.4375" stroke-linejoin="round" stroke-miterlimit="10" fill="#4472C4"/><path d="M3551.69 13827.1C3551.69 13833.2 3546.76 13838.1 3540.69 13838.1 3534.61 13838.1 3529.69 13833.2 3529.69 13827.1 3529.69 13821 3534.61 13816.1 3540.69 13816.1 3546.76 13816.1 3551.69 13821 3551.69 13827.1Z" stroke="#4472C4" stroke-width="3.4375" stroke-linejoin="round" stroke-miterlimit="10" fill="#4472C4"/><path d="M3557.69 13831.1C3557.69 13837.2 3552.76 13842.1 3546.69 13842.1 3540.61 13842.1 3535.69 13837.2 3535.69 13831.1 3535.69 13825 3540.61 13820.1 3546.69 13820.1 3552.76 13820.1 3557.69 13825 3557.69 13831.1Z" stroke="#4472C4" stroke-width="3.4375" stroke-linejoin="round" stroke-miterlimit="10" fill="#4472C4"/><path d="M3563.69 13994.1C3563.69 14000.2 3558.76 14005.1 3552.69 14005.1 3546.61 14005.1 3541.69 14000.2 3541.69 13994.1 3541.69 13988 3546.61 13983.1 3552.69 13983.1 3558.76 13983.1 3563.69 13988 3563.69 13994.1Z" stroke="#4472C4" stroke-width="3.4375" stroke-linejoin="round" stroke-miterlimit="10" fill="#4472C4"/><path d="M3570.69 13829.1C3570.69 13835.2 3565.76 13840.1 3559.69 13840.1 3553.61 13840.1 3548.69 13835.2 3548.69 13829.1 3548.69 13823 3553.61 13818.1 3559.69 13818.1 3565.76 13818.1 3570.69 13823 3570.69 13829.1Z" stroke="#4472C4" stroke-width="3.4375" stroke-linejoin="round" stroke-miterlimit="10" fill="#4472C4"/><path d="M3576.69 13829.1C3576.69 13835.2 3571.76 13840.1 3565.69 13840.1 3559.61 13840.1 3554.69 13835.2 3554.69 13829.1 3554.69 13823 3559.61 13818.1 3565.69 13818.1 3571.76 13818.1 3576.69 13823 3576.69 13829.1Z" stroke="#4472C4" stroke-width="3.4375" stroke-linejoin="round" stroke-miterlimit="10" fill="#4472C4"/><path d="M3583.69 13830.1C3583.69 13836.2 3578.76 13841.1 3572.69 13841.1 3566.61 13841.1 3561.69 13836.2 3561.69 13830.1 3561.69 13824 3566.61 13819.1 3572.69 13819.1 3578.76 13819.1 3583.69 13824 3583.69 13830.1Z" stroke="#4472C4" stroke-width="3.4375" stroke-linejoin="round" stroke-miterlimit="10" fill="#4472C4"/><path d="M3589.69 13831.1C3589.69 13837.2 3584.76 13842.1 3578.69 13842.1 3572.61 13842.1 3567.69 13837.2 3567.69 13831.1 3567.69 13825 3572.61 13820.1 3578.69 13820.1 3584.76 13820.1 3589.69 13825 3589.69 13831.1Z" stroke="#4472C4" stroke-width="3.4375" stroke-linejoin="round" stroke-miterlimit="10" fill="#4472C4"/><path d="M3596.69 13831.1C3596.69 13837.2 3591.76 13842.1 3585.69 13842.1 3579.61 13842.1 3574.69 13837.2 3574.69 13831.1 3574.69 13825 3579.61 13820.1 3585.69 13820.1 3591.76 13820.1 3596.69 13825 3596.69 13831.1Z" stroke="#4472C4" stroke-width="3.4375" stroke-linejoin="round" stroke-miterlimit="10" fill="#4472C4"/><path d="M3602.69 13828.1C3602.69 13834.2 3597.76 13839.1 3591.69 13839.1 3585.61 13839.1 3580.69 13834.2 3580.69 13828.1 3580.69 13822 3585.61 13817.1 3591.69 13817.1 3597.76 13817.1 3602.69 13822 3602.69 13828.1Z" stroke="#4472C4" stroke-width="3.4375" stroke-linejoin="round" stroke-miterlimit="10" fill="#4472C4"/><path d="M3609.69 14008.1C3609.69 14014.2 3604.76 14019.1 3598.69 14019.1 3592.61 14019.1 3587.69 14014.2 3587.69 14008.1 3587.69 14002 3592.61 13997.1 3598.69 13997.1 3604.76 13997.1 3609.69 14002 3609.69 14008.1Z" stroke="#4472C4" stroke-width="3.4375" stroke-linejoin="round" stroke-miterlimit="10" fill="#4472C4"/><path d="M3615.69 13830.1C3615.69 13836.2 3610.76 13841.1 3604.69 13841.1 3598.61 13841.1 3593.69 13836.2 3593.69 13830.1 3593.69 13824 3598.61 13819.1 3604.69 13819.1 3610.76 13819.1 3615.69 13824 3615.69 13830.1Z" stroke="#4472C4" stroke-width="3.4375" stroke-linejoin="round" stroke-miterlimit="10" fill="#4472C4"/><path d="M3622.69 13824.1C3622.69 13830.2 3617.76 13835.1 3611.69 13835.1 3605.61 13835.1 3600.69 13830.2 3600.69 13824.1 3600.69 13818 3605.61 13813.1 3611.69 13813.1 3617.76 13813.1 3622.69 13818 3622.69 13824.1Z" stroke="#4472C4" stroke-width="3.4375" stroke-linejoin="round" stroke-miterlimit="10" fill="#4472C4"/><path d="M3628.69 13826.1C3628.69 13832.2 3623.76 13837.1 3617.69 13837.1 3611.61 13837.1 3606.69 13832.2 3606.69 13826.1 3606.69 13820 3611.61 13815.1 3617.69 13815.1 3623.76 13815.1 3628.69 13820 3628.69 13826.1Z" stroke="#4472C4" stroke-width="3.4375" stroke-linejoin="round" stroke-miterlimit="10" fill="#4472C4"/><path d="M3635.69 13825.1C3635.69 13831.2 3630.76 13836.1 3624.69 13836.1 3618.61 13836.1 3613.69 13831.2 3613.69 13825.1 3613.69 13819 3618.61 13814.1 3624.69 13814.1 3630.76 13814.1 3635.69 13819 3635.69 13825.1Z" stroke="#4472C4" stroke-width="3.4375" stroke-linejoin="round" stroke-miterlimit="10" fill="#4472C4"/><path d="M3641.69 13820.1C3641.69 13826.2 3636.76 13831.1 3630.69 13831.1 3624.61 13831.1 3619.69 13826.2 3619.69 13820.1 3619.69 13814 3624.61 13809.1 3630.69 13809.1 3636.76 13809.1 3641.69 13814 3641.69 13820.1Z" stroke="#4472C4" stroke-width="3.4375" stroke-linejoin="round" stroke-miterlimit="10" fill="#4472C4"/><path d="M3648.69 13823.1C3648.69 13829.2 3643.76 13834.1 3637.69 13834.1 3631.61 13834.1 3626.69 13829.2 3626.69 13823.1 3626.69 13817 3631.61 13812.1 3637.69 13812.1 3643.76 13812.1 3648.69 13817 3648.69 13823.1Z" stroke="#4472C4" stroke-width="3.4375" stroke-linejoin="round" stroke-miterlimit="10" fill="#4472C4"/><path d="M3654.69 13822.1C3654.69 13828.2 3649.76 13833.1 3643.69 13833.1 3637.61 13833.1 3632.69 13828.2 3632.69 13822.1 3632.69 13816 3637.61 13811.1 3643.69 13811.1 3649.76 13811.1 3654.69 13816 3654.69 13822.1Z" stroke="#4472C4" stroke-width="3.4375" stroke-linejoin="round" stroke-miterlimit="10" fill="#4472C4"/><path d="M3661.69 13830.1C3661.69 13836.2 3656.76 13841.1 3650.69 13841.1 3644.61 13841.1 3639.69 13836.2 3639.69 13830.1 3639.69 13824 3644.61 13819.1 3650.69 13819.1 3656.76 13819.1 3661.69 13824 3661.69 13830.1Z" stroke="#4472C4" stroke-width="3.4375" stroke-linejoin="round" stroke-miterlimit="10" fill="#4472C4"/><path d="M3667.69 13830.1C3667.69 13836.2 3662.76 13841.1 3656.69 13841.1 3650.61 13841.1 3645.69 13836.2 3645.69 13830.1 3645.69 13824 3650.61 13819.1 3656.69 13819.1 3662.76 13819.1 3667.69 13824 3667.69 13830.1Z" stroke="#4472C4" stroke-width="3.4375" stroke-linejoin="round" stroke-miterlimit="10" fill="#4472C4"/><path d="M3674.69 13823.1C3674.69 13829.2 3669.76 13834.1 3663.69 13834.1 3657.61 13834.1 3652.69 13829.2 3652.69 13823.1 3652.69 13817 3657.61 13812.1 3663.69 13812.1 3669.76 13812.1 3674.69 13817 3674.69 13823.1Z" stroke="#4472C4" stroke-width="3.4375" stroke-linejoin="round" stroke-miterlimit="10" fill="#4472C4"/><path d="M3680.69 13828.1C3680.69 13834.2 3675.76 13839.1 3669.69 13839.1 3663.61 13839.1 3658.69 13834.2 3658.69 13828.1 3658.69 13822 3663.61 13817.1 3669.69 13817.1 3675.76 13817.1 3680.69 13822 3680.69 13828.1Z" stroke="#4472C4" stroke-width="3.4375" stroke-linejoin="round" stroke-miterlimit="10" fill="#4472C4"/><path d="M3686.69 13826.1C3686.69 13832.2 3681.76 13837.1 3675.69 13837.1 3669.61 13837.1 3664.69 13832.2 3664.69 13826.1 3664.69 13820 3669.61 13815.1 3675.69 13815.1 3681.76 13815.1 3686.69 13820 3686.69 13826.1Z" stroke="#4472C4" stroke-width="3.4375" stroke-linejoin="round" stroke-miterlimit="10" fill="#4472C4"/><path d="M3693.69 13827.1C3693.69 13833.2 3688.76 13838.1 3682.69 13838.1 3676.61 13838.1 3671.69 13833.2 3671.69 13827.1 3671.69 13821 3676.61 13816.1 3682.69 13816.1 3688.76 13816.1 3693.69 13821 3693.69 13827.1Z" stroke="#4472C4" stroke-width="3.4375" stroke-linejoin="round" stroke-miterlimit="10" fill="#4472C4"/><path d="M3699.69 13828.1C3699.69 13834.2 3694.76 13839.1 3688.69 13839.1 3682.61 13839.1 3677.69 13834.2 3677.69 13828.1 3677.69 13822 3682.61 13817.1 3688.69 13817.1 3694.76 13817.1 3699.69 13822 3699.69 13828.1Z" stroke="#4472C4" stroke-width="3.4375" stroke-linejoin="round" stroke-miterlimit="10" fill="#4472C4"/><path d="M3706.69 13829.1C3706.69 13835.2 3701.76 13840.1 3695.69 13840.1 3689.61 13840.1 3684.69 13835.2 3684.69 13829.1 3684.69 13823 3689.61 13818.1 3695.69 13818.1 3701.76 13818.1 3706.69 13823 3706.69 13829.1Z" stroke="#4472C4" stroke-width="3.4375" stroke-linejoin="round" stroke-miterlimit="10" fill="#4472C4"/><path d="M3712.69 13820.1C3712.69 13826.2 3707.76 13831.1 3701.69 13831.1 3695.61 13831.1 3690.69 13826.2 3690.69 13820.1 3690.69 13814 3695.61 13809.1 3701.69 13809.1 3707.76 13809.1 3712.69 13814 3712.69 13820.1Z" stroke="#4472C4" stroke-width="3.4375" stroke-linejoin="round" stroke-miterlimit="10" fill="#4472C4"/><path d="M3719.69 13992.1C3719.69 13998.2 3714.76 14003.1 3708.69 14003.1 3702.61 14003.1 3697.69 13998.2 3697.69 13992.1 3697.69 13986 3702.61 13981.1 3708.69 13981.1 3714.76 13981.1 3719.69 13986 3719.69 13992.1Z" stroke="#4472C4" stroke-width="3.4375" stroke-linejoin="round" stroke-miterlimit="10" fill="#4472C4"/><path d="M3725.69 13821.1C3725.69 13827.2 3720.76 13832.1 3714.69 13832.1 3708.61 13832.1 3703.69 13827.2 3703.69 13821.1 3703.69 13815 3708.61 13810.1 3714.69 13810.1 3720.76 13810.1 3725.69 13815 3725.69 13821.1Z" stroke="#4472C4" stroke-width="3.4375" stroke-linejoin="round" stroke-miterlimit="10" fill="#4472C4"/><path d="M3732.69 13829.1C3732.69 13835.2 3727.76 13840.1 3721.69 13840.1 3715.61 13840.1 3710.69 13835.2 3710.69 13829.1 3710.69 13823 3715.61 13818.1 3721.69 13818.1 3727.76 13818.1 3732.69 13823 3732.69 13829.1Z" stroke="#4472C4" stroke-width="3.4375" stroke-linejoin="round" stroke-miterlimit="10" fill="#4472C4"/><path d="M3738.69 14001.1C3738.69 14007.2 3733.76 14012.1 3727.69 14012.1 3721.61 14012.1 3716.69 14007.2 3716.69 14001.1 3716.69 13995 3721.61 13990.1 3727.69 13990.1 3733.76 13990.1 3738.69 13995 3738.69 14001.1Z" stroke="#4472C4" stroke-width="3.4375" stroke-linejoin="round" stroke-miterlimit="10" fill="#4472C4"/><path d="M3745.69 13822.1C3745.69 13828.2 3740.76 13833.1 3734.69 13833.1 3728.61 13833.1 3723.69 13828.2 3723.69 13822.1 3723.69 13816 3728.61 13811.1 3734.69 13811.1 3740.76 13811.1 3745.69 13816 3745.69 13822.1Z" stroke="#4472C4" stroke-width="3.4375" stroke-linejoin="round" stroke-miterlimit="10" fill="#4472C4"/><path d="M3751.69 13830.1C3751.69 13836.2 3746.76 13841.1 3740.69 13841.1 3734.61 13841.1 3729.69 13836.2 3729.69 13830.1 3729.69 13824 3734.61 13819.1 3740.69 13819.1 3746.76 13819.1 3751.69 13824 3751.69 13830.1Z" stroke="#4472C4" stroke-width="3.4375" stroke-linejoin="round" stroke-miterlimit="10" fill="#4472C4"/><path d="M3758.69 13825.1C3758.69 13831.2 3753.76 13836.1 3747.69 13836.1 3741.61 13836.1 3736.69 13831.2 3736.69 13825.1 3736.69 13819 3741.61 13814.1 3747.69 13814.1 3753.76 13814.1 3758.69 13819 3758.69 13825.1Z" stroke="#4472C4" stroke-width="3.4375" stroke-linejoin="round" stroke-miterlimit="10" fill="#4472C4"/><path d="M3764.69 13824.1C3764.69 13830.2 3759.76 13835.1 3753.69 13835.1 3747.61 13835.1 3742.69 13830.2 3742.69 13824.1 3742.69 13818 3747.61 13813.1 3753.69 13813.1 3759.76 13813.1 3764.69 13818 3764.69 13824.1Z" stroke="#4472C4" stroke-width="3.4375" stroke-linejoin="round" stroke-miterlimit="10" fill="#4472C4"/><path d="M3771.69 13823.1C3771.69 13829.2 3766.76 13834.1 3760.69 13834.1 3754.61 13834.1 3749.69 13829.2 3749.69 13823.1 3749.69 13817 3754.61 13812.1 3760.69 13812.1 3766.76 13812.1 3771.69 13817 3771.69 13823.1Z" stroke="#4472C4" stroke-width="3.4375" stroke-linejoin="round" stroke-miterlimit="10" fill="#4472C4"/><path d="M3777.69 13830.1C3777.69 13836.2 3772.76 13841.1 3766.69 13841.1 3760.61 13841.1 3755.69 13836.2 3755.69 13830.1 3755.69 13824 3760.61 13819.1 3766.69 13819.1 3772.76 13819.1 3777.69 13824 3777.69 13830.1Z" stroke="#4472C4" stroke-width="3.4375" stroke-linejoin="round" stroke-miterlimit="10" fill="#4472C4"/><path d="M3784.69 13826.1C3784.69 13832.2 3779.76 13837.1 3773.69 13837.1 3767.61 13837.1 3762.69 13832.2 3762.69 13826.1 3762.69 13820 3767.61 13815.1 3773.69 13815.1 3779.76 13815.1 3784.69 13820 3784.69 13826.1Z" stroke="#4472C4" stroke-width="3.4375" stroke-linejoin="round" stroke-miterlimit="10" fill="#4472C4"/><path d="M3790.69 13831.1C3790.69 13837.2 3785.76 13842.1 3779.69 13842.1 3773.61 13842.1 3768.69 13837.2 3768.69 13831.1 3768.69 13825 3773.61 13820.1 3779.69 13820.1 3785.76 13820.1 3790.69 13825 3790.69 13831.1Z" stroke="#4472C4" stroke-width="3.4375" stroke-linejoin="round" stroke-miterlimit="10" fill="#4472C4"/><path d="M3796.69 13829.1C3796.69 13835.2 3791.76 13840.1 3785.69 13840.1 3779.61 13840.1 3774.69 13835.2 3774.69 13829.1 3774.69 13823 3779.61 13818.1 3785.69 13818.1 3791.76 13818.1 3796.69 13823 3796.69 13829.1Z" stroke="#4472C4" stroke-width="3.4375" stroke-linejoin="round" stroke-miterlimit="10" fill="#4472C4"/><path d="M3803.69 13827.1C3803.69 13833.2 3798.76 13838.1 3792.69 13838.1 3786.61 13838.1 3781.69 13833.2 3781.69 13827.1 3781.69 13821 3786.61 13816.1 3792.69 13816.1 3798.76 13816.1 3803.69 13821 3803.69 13827.1Z" stroke="#4472C4" stroke-width="3.4375" stroke-linejoin="round" stroke-miterlimit="10" fill="#4472C4"/><path d="M3809.69 13831.1C3809.69 13837.2 3804.76 13842.1 3798.69 13842.1 3792.61 13842.1 3787.69 13837.2 3787.69 13831.1 3787.69 13825 3792.61 13820.1 3798.69 13820.1 3804.76 13820.1 3809.69 13825 3809.69 13831.1Z" stroke="#4472C4" stroke-width="3.4375" stroke-linejoin="round" stroke-miterlimit="10" fill="#4472C4"/><path d="M3816.69 13828.1C3816.69 13834.2 3811.76 13839.1 3805.69 13839.1 3799.61 13839.1 3794.69 13834.2 3794.69 13828.1 3794.69 13822 3799.61 13817.1 3805.69 13817.1 3811.76 13817.1 3816.69 13822 3816.69 13828.1Z" stroke="#4472C4" stroke-width="3.4375" stroke-linejoin="round" stroke-miterlimit="10" fill="#4472C4"/><path d="M3822.69 13822.1C3822.69 13828.2 3817.76 13833.1 3811.69 13833.1 3805.61 13833.1 3800.69 13828.2 3800.69 13822.1 3800.69 13816 3805.61 13811.1 3811.69 13811.1 3817.76 13811.1 3822.69 13816 3822.69 13822.1Z" stroke="#4472C4" stroke-width="3.4375" stroke-linejoin="round" stroke-miterlimit="10" fill="#4472C4"/><path d="M3829.69 13831.1C3829.69 13837.2 3824.76 13842.1 3818.69 13842.1 3812.61 13842.1 3807.69 13837.2 3807.69 13831.1 3807.69 13825 3812.61 13820.1 3818.69 13820.1 3824.76 13820.1 3829.69 13825 3829.69 13831.1Z" stroke="#4472C4" stroke-width="3.4375" stroke-linejoin="round" stroke-miterlimit="10" fill="#4472C4"/><path d="M3835.69 13824.1C3835.69 13830.2 3830.76 13835.1 3824.69 13835.1 3818.61 13835.1 3813.69 13830.2 3813.69 13824.1 3813.69 13818 3818.61 13813.1 3824.69 13813.1 3830.76 13813.1 3835.69 13818 3835.69 13824.1Z" stroke="#4472C4" stroke-width="3.4375" stroke-linejoin="round" stroke-miterlimit="10" fill="#4472C4"/><path d="M3842.69 13828.1C3842.69 13834.2 3837.76 13839.1 3831.69 13839.1 3825.61 13839.1 3820.69 13834.2 3820.69 13828.1 3820.69 13822 3825.61 13817.1 3831.69 13817.1 3837.76 13817.1 3842.69 13822 3842.69 13828.1Z" stroke="#4472C4" stroke-width="3.4375" stroke-linejoin="round" stroke-miterlimit="10" fill="#4472C4"/><path d="M3848.69 13832.1C3848.69 13838.2 3843.76 13843.1 3837.69 13843.1 3831.61 13843.1 3826.69 13838.2 3826.69 13832.1 3826.69 13826 3831.61 13821.1 3837.69 13821.1 3843.76 13821.1 3848.69 13826 3848.69 13832.1Z" stroke="#4472C4" stroke-width="3.4375" stroke-linejoin="round" stroke-miterlimit="10" fill="#4472C4"/><path d="M3855.69 13829.1C3855.69 13835.2 3850.76 13840.1 3844.69 13840.1 3838.61 13840.1 3833.69 13835.2 3833.69 13829.1 3833.69 13823 3838.61 13818.1 3844.69 13818.1 3850.76 13818.1 3855.69 13823 3855.69 13829.1Z" stroke="#4472C4" stroke-width="3.4375" stroke-linejoin="round" stroke-miterlimit="10" fill="#4472C4"/><path d="M3861.69 13831.1C3861.69 13837.2 3856.76 13842.1 3850.69 13842.1 3844.61 13842.1 3839.69 13837.2 3839.69 13831.1 3839.69 13825 3844.61 13820.1 3850.69 13820.1 3856.76 13820.1 3861.69 13825 3861.69 13831.1Z" stroke="#4472C4" stroke-width="3.4375" stroke-linejoin="round" stroke-miterlimit="10" fill="#4472C4"/><path d="M3868.69 13832.1C3868.69 13838.2 3863.76 13843.1 3857.69 13843.1 3851.61 13843.1 3846.69 13838.2 3846.69 13832.1 3846.69 13826 3851.61 13821.1 3857.69 13821.1 3863.76 13821.1 3868.69 13826 3868.69 13832.1Z" stroke="#4472C4" stroke-width="3.4375" stroke-linejoin="round" stroke-miterlimit="10" fill="#4472C4"/><path d="M3874.69 13825.1C3874.69 13831.2 3869.76 13836.1 3863.69 13836.1 3857.61 13836.1 3852.69 13831.2 3852.69 13825.1 3852.69 13819 3857.61 13814.1 3863.69 13814.1 3869.76 13814.1 3874.69 13819 3874.69 13825.1Z" stroke="#4472C4" stroke-width="3.4375" stroke-linejoin="round" stroke-miterlimit="10" fill="#4472C4"/><path d="M3881.69 13824.1C3881.69 13830.2 3876.76 13835.1 3870.69 13835.1 3864.61 13835.1 3859.69 13830.2 3859.69 13824.1 3859.69 13818 3864.61 13813.1 3870.69 13813.1 3876.76 13813.1 3881.69 13818 3881.69 13824.1Z" stroke="#4472C4" stroke-width="3.4375" stroke-linejoin="round" stroke-miterlimit="10" fill="#4472C4"/><path d="M3887.69 13832.1C3887.69 13838.2 3882.76 13843.1 3876.69 13843.1 3870.61 13843.1 3865.69 13838.2 3865.69 13832.1 3865.69 13826 3870.61 13821.1 3876.69 13821.1 3882.76 13821.1 3887.69 13826 3887.69 13832.1Z" stroke="#4472C4" stroke-width="3.4375" stroke-linejoin="round" stroke-miterlimit="10" fill="#4472C4"/><path d="M3894.69 13832.1C3894.69 13838.2 3889.76 13843.1 3883.69 13843.1 3877.61 13843.1 3872.69 13838.2 3872.69 13832.1 3872.69 13826 3877.61 13821.1 3883.69 13821.1 3889.76 13821.1 3894.69 13826 3894.69 13832.1Z" stroke="#4472C4" stroke-width="3.4375" stroke-linejoin="round" stroke-miterlimit="10" fill="#4472C4"/><path d="M3900.69 13831.1C3900.69 13837.2 3895.76 13842.1 3889.69 13842.1 3883.61 13842.1 3878.69 13837.2 3878.69 13831.1 3878.69 13825 3883.61 13820.1 3889.69 13820.1 3895.76 13820.1 3900.69 13825 3900.69 13831.1Z" stroke="#4472C4" stroke-width="3.4375" stroke-linejoin="round" stroke-miterlimit="10" fill="#4472C4"/><path d="M3906.69 13831.1C3906.69 13837.2 3901.76 13842.1 3895.69 13842.1 3889.61 13842.1 3884.69 13837.2 3884.69 13831.1 3884.69 13825 3889.61 13820.1 3895.69 13820.1 3901.76 13820.1 3906.69 13825 3906.69 13831.1Z" stroke="#4472C4" stroke-width="3.4375" stroke-linejoin="round" stroke-miterlimit="10" fill="#4472C4"/><path d="M3913.69 13824.1C3913.69 13830.2 3908.76 13835.1 3902.69 13835.1 3896.61 13835.1 3891.69 13830.2 3891.69 13824.1 3891.69 13818 3896.61 13813.1 3902.69 13813.1 3908.76 13813.1 3913.69 13818 3913.69 13824.1Z" stroke="#4472C4" stroke-width="3.4375" stroke-linejoin="round" stroke-miterlimit="10" fill="#4472C4"/><path d="M3919.69 13826.1C3919.69 13832.2 3914.76 13837.1 3908.69 13837.1 3902.61 13837.1 3897.69 13832.2 3897.69 13826.1 3897.69 13820 3902.61 13815.1 3908.69 13815.1 3914.76 13815.1 3919.69 13820 3919.69 13826.1Z" stroke="#4472C4" stroke-width="3.4375" stroke-linejoin="round" stroke-miterlimit="10" fill="#4472C4"/><path d="M3926.69 13831.1C3926.69 13837.2 3921.76 13842.1 3915.69 13842.1 3909.61 13842.1 3904.69 13837.2 3904.69 13831.1 3904.69 13825 3909.61 13820.1 3915.69 13820.1 3921.76 13820.1 3926.69 13825 3926.69 13831.1Z" stroke="#4472C4" stroke-width="3.4375" stroke-linejoin="round" stroke-miterlimit="10" fill="#4472C4"/><path d="M3932.69 13830.1C3932.69 13836.2 3927.76 13841.1 3921.69 13841.1 3915.61 13841.1 3910.69 13836.2 3910.69 13830.1 3910.69 13824 3915.61 13819.1 3921.69 13819.1 3927.76 13819.1 3932.69 13824 3932.69 13830.1Z" stroke="#4472C4" stroke-width="3.4375" stroke-linejoin="round" stroke-miterlimit="10" fill="#4472C4"/><path d="M3939.69 13833.1C3939.69 13839.2 3934.76 13844.1 3928.69 13844.1 3922.61 13844.1 3917.69 13839.2 3917.69 13833.1 3917.69 13827 3922.61 13822.1 3928.69 13822.1 3934.76 13822.1 3939.69 13827 3939.69 13833.1Z" stroke="#4472C4" stroke-width="3.4375" stroke-linejoin="round" stroke-miterlimit="10" fill="#4472C4"/><path d="M3945.69 13997.1C3945.69 14003.2 3940.76 14008.1 3934.69 14008.1 3928.61 14008.1 3923.69 14003.2 3923.69 13997.1 3923.69 13991 3928.61 13986.1 3934.69 13986.1 3940.76 13986.1 3945.69 13991 3945.69 13997.1Z" stroke="#4472C4" stroke-width="3.4375" stroke-linejoin="round" stroke-miterlimit="10" fill="#4472C4"/><path d="M3952.69 13820.1C3952.69 13826.2 3947.76 13831.1 3941.69 13831.1 3935.61 13831.1 3930.69 13826.2 3930.69 13820.1 3930.69 13814 3935.61 13809.1 3941.69 13809.1 3947.76 13809.1 3952.69 13814 3952.69 13820.1Z" stroke="#4472C4" stroke-width="3.4375" stroke-linejoin="round" stroke-miterlimit="10" fill="#4472C4"/><path d="M3958.69 13831.1C3958.69 13837.2 3953.76 13842.1 3947.69 13842.1 3941.61 13842.1 3936.69 13837.2 3936.69 13831.1 3936.69 13825 3941.61 13820.1 3947.69 13820.1 3953.76 13820.1 3958.69 13825 3958.69 13831.1Z" stroke="#4472C4" stroke-width="3.4375" stroke-linejoin="round" stroke-miterlimit="10" fill="#4472C4"/><path d="M3965.69 13830.1C3965.69 13836.2 3960.76 13841.1 3954.69 13841.1 3948.61 13841.1 3943.69 13836.2 3943.69 13830.1 3943.69 13824 3948.61 13819.1 3954.69 13819.1 3960.76 13819.1 3965.69 13824 3965.69 13830.1Z" stroke="#4472C4" stroke-width="3.4375" stroke-linejoin="round" stroke-miterlimit="10" fill="#4472C4"/><path d="M3971.69 13828.1C3971.69 13834.2 3966.76 13839.1 3960.69 13839.1 3954.61 13839.1 3949.69 13834.2 3949.69 13828.1 3949.69 13822 3954.61 13817.1 3960.69 13817.1 3966.76 13817.1 3971.69 13822 3971.69 13828.1Z" stroke="#4472C4" stroke-width="3.4375" stroke-linejoin="round" stroke-miterlimit="10" fill="#4472C4"/><path d="M3978.69 13822.1C3978.69 13828.2 3973.76 13833.1 3967.69 13833.1 3961.61 13833.1 3956.69 13828.2 3956.69 13822.1 3956.69 13816 3961.61 13811.1 3967.69 13811.1 3973.76 13811.1 3978.69 13816 3978.69 13822.1Z" stroke="#4472C4" stroke-width="3.4375" stroke-linejoin="round" stroke-miterlimit="10" fill="#4472C4"/><path d="M3984.69 13826.1C3984.69 13832.2 3979.76 13837.1 3973.69 13837.1 3967.61 13837.1 3962.69 13832.2 3962.69 13826.1 3962.69 13820 3967.61 13815.1 3973.69 13815.1 3979.76 13815.1 3984.69 13820 3984.69 13826.1Z" stroke="#4472C4" stroke-width="3.4375" stroke-linejoin="round" stroke-miterlimit="10" fill="#4472C4"/><path d="M3991.69 13823.1C3991.69 13829.2 3986.76 13834.1 3980.69 13834.1 3974.61 13834.1 3969.69 13829.2 3969.69 13823.1 3969.69 13817 3974.61 13812.1 3980.69 13812.1 3986.76 13812.1 3991.69 13817 3991.69 13823.1Z" stroke="#4472C4" stroke-width="3.4375" stroke-linejoin="round" stroke-miterlimit="10" fill="#4472C4"/><path d="M3997.69 13823.1C3997.69 13829.2 3992.76 13834.1 3986.69 13834.1 3980.61 13834.1 3975.69 13829.2 3975.69 13823.1 3975.69 13817 3980.61 13812.1 3986.69 13812.1 3992.76 13812.1 3997.69 13817 3997.69 13823.1Z" stroke="#4472C4" stroke-width="3.4375" stroke-linejoin="round" stroke-miterlimit="10" fill="#4472C4"/></g><g clip-path="url(#clip10)"><path d="M0 0 1424 451" stroke="#C00000" stroke-width="6.875" stroke-linecap="round" stroke-linejoin="round" stroke-miterlimit="10" stroke-dasharray="0 13.75" fill="none" fill-rule="evenodd" transform="matrix(1 0 0 -1 2562.5 14179.5)"/></g><g clip-path="url(#clip11)"><text fill="#595959" font-family="Calibri,Calibri_MSFontService,sans-serif" font-weight="400" font-size="41" transform="matrix(1 0 0 1 3833.42 13668)">y = 251,91x + 28654</text></g><g clip-path="url(#clip12)"><text fill="#595959" font-family="Calibri,Calibri_MSFontService,sans-serif" font-weight="400" font-size="41" transform="matrix(1 0 0 1 2503.67 14424)">0</text></g><g clip-path="url(#clip13)"><text fill="#595959" font-family="Calibri,Calibri_MSFontService,sans-serif" font-weight="400" font-size="41" transform="matrix(1 0 0 1 2420.07 14343)">10000</text></g><g clip-path="url(#clip14)"><text fill="#595959" font-family="Calibri,Calibri_MSFontService,sans-serif" font-weight="400" font-size="41" transform="matrix(1 0 0 1 2420.07 14261)">20000</text></g><g clip-path="url(#clip15)"><text fill="#595959" font-family="Calibri,Calibri_MSFontService,sans-serif" font-weight="400" font-size="41" transform="matrix(1 0 0 1 2420.07 14180)">30000</text></g><g clip-path="url(#clip16)"><text fill="#595959" font-family="Calibri,Calibri_MSFontService,sans-serif" font-weight="400" font-size="41" transform="matrix(1 0 0 1 2420.07 14099)">40000</text></g><g clip-path="url(#clip17)"><text fill="#595959" font-family="Calibri,Calibri_MSFontService,sans-serif" font-weight="400" font-size="41" transform="matrix(1 0 0 1 2420.07 14017)">50000</text></g><g clip-path="url(#clip18)"><text fill="#595959" font-family="Calibri,Calibri_MSFontService,sans-serif" font-weight="400" font-size="41" transform="matrix(1 0 0 1 2420.07 13936)">60000</text></g><g clip-path="url(#clip19)"><text fill="#595959" font-family="Calibri,Calibri_MSFontService,sans-serif" font-weight="400" font-size="41" transform="matrix(1 0 0 1 2420.07 13854)">70000</text></g><g clip-path="url(#clip20)"><text fill="#595959" font-family="Calibri,Calibri_MSFontService,sans-serif" font-weight="400" font-size="41" transform="matrix(1 0 0 1 2420.07 13773)">80000</text></g><g clip-path="url(#clip21)"><text fill="#595959" font-family="Calibri,Calibri_MSFontService,sans-serif" font-weight="400" font-size="41" transform="matrix(1 0 0 1 2420.07 13692)">90000</text></g><g clip-path="url(#clip22)"><text fill="#595959" font-family="Calibri,Calibri_MSFontService,sans-serif" font-weight="400" font-size="41" transform="matrix(1 0 0 1 2399.17 13610)">100000</text></g><g clip-path="url(#clip23)"><text fill="#595959" font-family="Calibri,Calibri_MSFontService,sans-serif" font-weight="400" font-size="41" transform="matrix(1 0 0 1 2552.39 14478)">0</text></g><g clip-path="url(#clip24)"><text fill="#595959" font-family="Calibri,Calibri_MSFontService,sans-serif" font-weight="400" font-size="41" transform="matrix(1 0 0 1 2865.51 14478)">50</text></g><g clip-path="url(#clip25)"><text fill="#595959" font-family="Calibri,Calibri_MSFontService,sans-serif" font-weight="400" font-size="41" transform="matrix(1 0 0 1 3178.64 14478)">100</text></g><g clip-path="url(#clip26)"><text fill="#595959" font-family="Calibri,Calibri_MSFontService,sans-serif" font-weight="400" font-size="41" transform="matrix(1 0 0 1 3502.22 14478)">150</text></g><g clip-path="url(#clip27)"><text fill="#595959" font-family="Calibri,Calibri_MSFontService,sans-serif" font-weight="400" font-size="41" transform="matrix(1 0 0 1 3825.8 14478)">200</text></g><g clip-path="url(#clip28)"><text fill="#595959" font-family="Calibri,Calibri_MSFontService,sans-serif" font-weight="400" font-size="41" transform="matrix(1 0 0 1 4149.38 14478)">250</text></g><g clip-path="url(#clip29)"><text fill="#595959" font-family="Calibri,Calibri_MSFontService,sans-serif" font-weight="400" font-size="46" transform="matrix(6.12323e-17 -1 1 6.12323e-17 2373.48 14193)">Current Best Fitness</text></g><g clip-path="url(#clip30)"><text fill="#595959" font-family="Calibri,Calibri_MSFontService,sans-serif" font-weight="400" font-size="46" transform="matrix(1 0 0 1 3266.45 14547)">Generation</text></g><g clip-path="url(#clip31)"><text fill="#595959" font-family="Calibri,Calibri_MSFontService,sans-serif" font-weight="400" font-size="64" transform="matrix(1 0 0 1 2976.47 13524)">Best Fitness (RED Pop)</text></g><rect x="2272.5" y="13429.5" width="1990" height="1187" stroke="#D9D9D9" stroke-width="3.4375" stroke-linejoin="round" stroke-miterlimit="10" fill="none"/></g></svg>