<svg width="1756" height="993" xmlns="http://www.w3.org/2000/svg" xmlns:xlink="http://www.w3.org/1999/xlink" overflow="hidden"><defs><clipPath id="clip0"><rect x="1883" y="13868" width="1756" height="993"/></clipPath><clipPath id="clip1"><rect x="1883" y="13868" width="1753" height="990"/></clipPath><clipPath id="clip2"><rect x="1883" y="13868" width="1753" height="990"/></clipPath><clipPath id="clip3"><rect x="1883" y="13868" width="1753" height="990"/></clipPath><clipPath id="clip4"><rect x="1883" y="13868" width="1753" height="990"/></clipPath><clipPath id="clip5"><rect x="1883" y="13868" width="1753" height="990"/></clipPath><clipPath id="clip6"><rect x="1883" y="13868" width="1753" height="990"/></clipPath><clipPath id="clip7"><rect x="1883" y="13868" width="1753" height="990"/></clipPath><clipPath id="clip8"><rect x="1883" y="13868" width="1753" height="990"/></clipPath><clipPath id="clip9"><rect x="1883" y="13868" width="1753" height="990"/></clipPath><clipPath id="clip10"><rect x="2174" y="14038" width="1381" height="700"/></clipPath><clipPath id="clip11"><rect x="1883" y="13868" width="1753" height="990"/></clipPath><clipPath id="clip12"><rect x="1883" y="13868" width="1753" height="990"/></clipPath><clipPath id="clip13"><rect x="1883" y="13868" width="1753" height="990"/></clipPath><clipPath id="clip14"><rect x="1883" y="13868" width="1753" height="990"/></clipPath><clipPath id="clip15"><rect x="1883" y="13868" width="1753" height="990"/></clipPath><clipPath id="clip16"><rect x="1883" y="13868" width="1753" height="990"/></clipPath><clipPath id="clip17"><rect x="1883" y="13868" width="1753" height="990"/></clipPath><clipPath id="clip18"><rect x="1883" y="13868" width="1753" height="990"/></clipPath><clipPath id="clip19"><rect x="1883" y="13868" width="1753" height="990"/></clipPath><clipPath id="clip20"><rect x="1883" y="13868" width="1753" height="990"/></clipPath><clipPath id="clip21"><rect x="1883" y="13868" width="1753" height="990"/></clipPath><clipPath id="clip22"><rect x="1883" y="13868" width="1753" height="990"/></clipPath><clipPath id="clip23"><rect x="1883" y="13868" width="1753" height="990"/></clipPath><clipPath id="clip24"><rect x="1883" y="13868" width="1753" height="990"/></clipPath><clipPath id="clip25"><rect x="1883" y="13868" width="1753" height="990"/></clipPath><clipPath id="clip26"><rect x="1883" y="13868" width="1753" height="990"/></clipPath><clipPath id="clip27"><rect x="1883" y="13868" width="1753" height="990"/></clipPath><clipPath id="clip28"><rect x="1883" y="13868" width="1753" height="990"/></clipPath><clipPath id="clip29"><rect x="1883" y="13868" width="1753" height="990"/></clipPath><clipPath id="clip30"><rect x="1883" y="13868" width="1753" height="990"/></clipPath></defs><g clip-path="url(#clip0)" transform="translate(-1883 -13868)"><rect x="1884" y="13869" width="1753" height="990" fill="#FFFFFF"/><g clip-path="url(#clip1)"><path d="M2174.5 14723 3555.5 14723M2174.5 14707 3555.5 14707M2174.5 14692 3555.5 14692M2174.5 14676 3555.5 14676M2174.5 14645 3555.5 14645M2174.5 14630 3555.5 14630M2174.5 14614 3555.5 14614M2174.5 14599 3555.5 14599M2174.5 14567 3555.5 14567M2174.5 14552 3555.5 14552M2174.5 14536 3555.5 14536M2174.5 14521 3555.5 14521M2174.5 14490 3555.5 14490M2174.5 14474 3555.5 14474M2174.5 14459 3555.5 14459M2174.5 14443 3555.5 14443M2174.5 14412 3555.5 14412M2174.5 14396 3555.5 14396M2174.5 14381 3555.5 14381M2174.5 14365 3555.5 14365M2174.5 14334 3555.5 14334M2174.5 14319 3555.5 14319M2174.5 14303 3555.5 14303M2174.5 14287 3555.5 14287M2174.5 14256 3555.5 14256M2174.5 14241 3555.5 14241M2174.5 14225 3555.5 14225M2174.5 14210 3555.5 14210M2174.5 14179 3555.5 14179M2174.5 14163 3555.5 14163M2174.5 14147 3555.5 14147M2174.5 14132 3555.5 14132M2174.5 14101 3555.5 14101M2174.5 14085 3555.5 14085M2174.5 14070 3555.5 14070M2174.5 14054 3555.5 14054" stroke="#F2F2F2" stroke-width="3.4375" stroke-linejoin="round" stroke-miterlimit="10" fill="none"/></g><g clip-path="url(#clip2)"><path d="M2174.5 14738.5 3555.5 14738.5M2174.5 14661 3555.5 14661M2174.5 14505 3555.5 14505M2174.5 14427 3555.5 14427M2174.5 14350 3555.5 14350M2174.5 14272 3555.5 14272M2174.5 14194 3555.5 14194M2174.5 14116 3555.5 14116M2174.5 14038.5 3555.5 14038.5" stroke="#D9D9D9" stroke-width="3.4375" stroke-linejoin="round" stroke-miterlimit="10" fill="none"/></g><g clip-path="url(#clip3)"><path d="M2229.57 14038.5 2229.57 14738.5M2284.57 14038.5 2284.57 14738.5M2340.58 14038.5 2340.58 14738.5M2395.58 14038.5 2395.58 14738.5M2505.58 14038.5 2505.58 14738.5M2560.58 14038.5 2560.58 14738.5M2616.59 14038.5 2616.59 14738.5M2671.59 14038.5 2671.59 14738.5M2781.59 14038.5 2781.59 14738.5M2837.59 14038.5 2837.59 14738.5M2892.59 14038.5 2892.59 14738.5M2947.6 14038.5 2947.6 14738.5M3057.6 14038.5 3057.6 14738.5M3113.6 14038.5 3113.6 14738.5M3168.6 14038.5 3168.6 14738.5M3223.61 14038.5 3223.61 14738.5M3334.61 14038.5 3334.61 14738.5M3389.61 14038.5 3389.61 14738.5M3444.61 14038.5 3444.61 14738.5M3499.61 14038.5 3499.61 14738.5" stroke="#F2F2F2" stroke-width="3.4375" stroke-linejoin="round" stroke-miterlimit="10" fill="none"/></g><g clip-path="url(#clip4)"><path d="M2450.58 14038.5 2450.58 14738.5M2726.59 14038.5 2726.59 14738.5M3002.6 14038.5 3002.6 14738.5M3278.61 14038.5 3278.61 14738.5M3555.5 14038.5 3555.5 14738.5" stroke="#D9D9D9" stroke-width="3.4375" stroke-linejoin="round" stroke-miterlimit="10" fill="none"/></g><g clip-path="url(#clip5)"><path d="M0 0 0.000360892 700" stroke="#BFBFBF" stroke-width="3.4375" stroke-linejoin="round" stroke-miterlimit="10" fill="none" fill-rule="evenodd" transform="matrix(1 0 0 -1 2174.5 14738.5)"/></g><g clip-path="url(#clip6)"><path d="M2161.5 14738.5 2174.5 14738.5M2161.5 14661 2174.5 14661M2161.5 14583 2174.5 14583M2161.5 14505 2174.5 14505M2161.5 14427 2174.5 14427M2161.5 14350 2174.5 14350M2161.5 14272 2174.5 14272M2161.5 14194 2174.5 14194M2161.5 14116 2174.5 14116M2161.5 14038.5 2174.5 14038.5" stroke="#BFBFBF" stroke-width="3.4375" stroke-linejoin="round" stroke-miterlimit="10" fill="none"/></g><g clip-path="url(#clip7)"><path d="M2174.5 14582.5 3555.5 14582.5" stroke="#BFBFBF" stroke-width="3.4375" stroke-linejoin="round" stroke-miterlimit="10" fill="none" fill-rule="evenodd"/></g><g clip-path="url(#clip8)"><path d="M2174.5 14582.5 2174.5 14596.5M2450.58 14582.5 2450.58 14596.5M2726.59 14582.5 2726.59 14596.5M3002.6 14582.5 3002.6 14596.5M3278.61 14582.5 3278.61 14596.5M3555.5 14582.5 3555.5 14596.5" stroke="#BFBFBF" stroke-width="3.4375" stroke-linejoin="round" stroke-miterlimit="10" fill="none"/></g><g clip-path="url(#clip9)"><path d="M2185.25 14684.1C2185.25 14690.2 2180.32 14695.1 2174.25 14695.1 2168.17 14695.1 2163.25 14690.2 2163.25 14684.1 2163.25 14678 2168.17 14673.1 2174.25 14673.1 2180.32 14673.1 2185.25 14678 2185.25 14684.1Z" stroke="#4472C4" stroke-width="3.4375" stroke-linejoin="round" stroke-miterlimit="10" fill="#4472C4"/><path d="M2190.25 14270.1C2190.25 14276.2 2185.32 14281.1 2179.25 14281.1 2173.17 14281.1 2168.25 14276.2 2168.25 14270.1 2168.25 14264 2173.17 14259.1 2179.25 14259.1 2185.32 14259.1 2190.25 14264 2190.25 14270.1Z" stroke="#4472C4" stroke-width="3.4375" stroke-linejoin="round" stroke-miterlimit="10" fill="#4472C4"/><path d="M2196.25 14121.1C2196.25 14127.2 2191.32 14132.1 2185.25 14132.1 2179.17 14132.1 2174.25 14127.2 2174.25 14121.1 2174.25 14115 2179.17 14110.1 2185.25 14110.1 2191.32 14110.1 2196.25 14115 2196.25 14121.1Z" stroke="#4472C4" stroke-width="3.4375" stroke-linejoin="round" stroke-miterlimit="10" fill="#4472C4"/><path d="M2201.25 14246.1C2201.25 14252.2 2196.32 14257.1 2190.25 14257.1 2184.17 14257.1 2179.25 14252.2 2179.25 14246.1 2179.25 14240 2184.17 14235.1 2190.25 14235.1 2196.32 14235.1 2201.25 14240 2201.25 14246.1Z" stroke="#4472C4" stroke-width="3.4375" stroke-linejoin="round" stroke-miterlimit="10" fill="#4472C4"/><path d="M2207.25 14414.1C2207.25 14420.2 2202.32 14425.1 2196.25 14425.1 2190.17 14425.1 2185.25 14420.2 2185.25 14414.1 2185.25 14408 2190.17 14403.1 2196.25 14403.1 2202.32 14403.1 2207.25 14408 2207.25 14414.1Z" stroke="#4472C4" stroke-width="3.4375" stroke-linejoin="round" stroke-miterlimit="10" fill="#4472C4"/><path d="M2213.25 14419.1C2213.25 14425.2 2208.32 14430.1 2202.25 14430.1 2196.17 14430.1 2191.25 14425.2 2191.25 14419.1 2191.25 14413 2196.17 14408.1 2202.25 14408.1 2208.32 14408.1 2213.25 14413 2213.25 14419.1Z" stroke="#4472C4" stroke-width="3.4375" stroke-linejoin="round" stroke-miterlimit="10" fill="#4472C4"/><path d="M2218.25 14447.1C2218.25 14453.2 2213.32 14458.1 2207.25 14458.1 2201.17 14458.1 2196.25 14453.2 2196.25 14447.1 2196.25 14441 2201.17 14436.1 2207.25 14436.1 2213.32 14436.1 2218.25 14441 2218.25 14447.1Z" stroke="#4472C4" stroke-width="3.4375" stroke-linejoin="round" stroke-miterlimit="10" fill="#4472C4"/><path d="M2224.25 14390.1C2224.25 14396.2 2219.32 14401.1 2213.25 14401.1 2207.17 14401.1 2202.25 14396.2 2202.25 14390.1 2202.25 14384 2207.17 14379.1 2213.25 14379.1 2219.32 14379.1 2224.25 14384 2224.25 14390.1Z" stroke="#4472C4" stroke-width="3.4375" stroke-linejoin="round" stroke-miterlimit="10" fill="#4472C4"/><path d="M2229.25 14462.1C2229.25 14468.2 2224.32 14473.1 2218.25 14473.1 2212.17 14473.1 2207.25 14468.2 2207.25 14462.1 2207.25 14456 2212.17 14451.1 2218.25 14451.1 2224.32 14451.1 2229.25 14456 2229.25 14462.1Z" stroke="#4472C4" stroke-width="3.4375" stroke-linejoin="round" stroke-miterlimit="10" fill="#4472C4"/><path d="M2235.25 14373.1C2235.25 14379.2 2230.32 14384.1 2224.25 14384.1 2218.17 14384.1 2213.25 14379.2 2213.25 14373.1 2213.25 14367 2218.17 14362.1 2224.25 14362.1 2230.32 14362.1 2235.25 14367 2235.25 14373.1Z" stroke="#4472C4" stroke-width="3.4375" stroke-linejoin="round" stroke-miterlimit="10" fill="#4472C4"/><path d="M2240.25 14414.1C2240.25 14420.2 2235.32 14425.1 2229.25 14425.1 2223.17 14425.1 2218.25 14420.2 2218.25 14414.1 2218.25 14408 2223.17 14403.1 2229.25 14403.1 2235.32 14403.1 2240.25 14408 2240.25 14414.1Z" stroke="#4472C4" stroke-width="3.4375" stroke-linejoin="round" stroke-miterlimit="10" fill="#4472C4"/><path d="M2246.25 14429.1C2246.25 14435.2 2241.32 14440.1 2235.25 14440.1 2229.17 14440.1 2224.25 14435.2 2224.25 14429.1 2224.25 14423 2229.17 14418.1 2235.25 14418.1 2241.32 14418.1 2246.25 14423 2246.25 14429.1Z" stroke="#4472C4" stroke-width="3.4375" stroke-linejoin="round" stroke-miterlimit="10" fill="#4472C4"/><path d="M2251.25 14447.1C2251.25 14453.2 2246.32 14458.1 2240.25 14458.1 2234.17 14458.1 2229.25 14453.2 2229.25 14447.1 2229.25 14441 2234.17 14436.1 2240.25 14436.1 2246.32 14436.1 2251.25 14441 2251.25 14447.1Z" stroke="#4472C4" stroke-width="3.4375" stroke-linejoin="round" stroke-miterlimit="10" fill="#4472C4"/><path d="M2257.25 14395.1C2257.25 14401.2 2252.32 14406.1 2246.25 14406.1 2240.17 14406.1 2235.25 14401.2 2235.25 14395.1 2235.25 14389 2240.17 14384.1 2246.25 14384.1 2252.32 14384.1 2257.25 14389 2257.25 14395.1Z" stroke="#4472C4" stroke-width="3.4375" stroke-linejoin="round" stroke-miterlimit="10" fill="#4472C4"/><path d="M2262.25 14321.1C2262.25 14327.2 2257.32 14332.1 2251.25 14332.1 2245.17 14332.1 2240.25 14327.2 2240.25 14321.1 2240.25 14315 2245.17 14310.1 2251.25 14310.1 2257.32 14310.1 2262.25 14315 2262.25 14321.1Z" stroke="#4472C4" stroke-width="3.4375" stroke-linejoin="round" stroke-miterlimit="10" fill="#4472C4"/><path d="M2268.25 14310.1C2268.25 14316.2 2263.32 14321.1 2257.25 14321.1 2251.17 14321.1 2246.25 14316.2 2246.25 14310.1 2246.25 14304 2251.17 14299.1 2257.25 14299.1 2263.32 14299.1 2268.25 14304 2268.25 14310.1Z" stroke="#4472C4" stroke-width="3.4375" stroke-linejoin="round" stroke-miterlimit="10" fill="#4472C4"/><path d="M2273.25 14300.1C2273.25 14306.2 2268.32 14311.1 2262.25 14311.1 2256.17 14311.1 2251.25 14306.2 2251.25 14300.1 2251.25 14294 2256.17 14289.1 2262.25 14289.1 2268.32 14289.1 2273.25 14294 2273.25 14300.1Z" stroke="#4472C4" stroke-width="3.4375" stroke-linejoin="round" stroke-miterlimit="10" fill="#4472C4"/><path d="M2279.25 14306.1C2279.25 14312.2 2274.32 14317.1 2268.25 14317.1 2262.17 14317.1 2257.25 14312.2 2257.25 14306.1 2257.25 14300 2262.17 14295.1 2268.25 14295.1 2274.32 14295.1 2279.25 14300 2279.25 14306.1Z" stroke="#4472C4" stroke-width="3.4375" stroke-linejoin="round" stroke-miterlimit="10" fill="#4472C4"/><path d="M2284.25 14321.1C2284.25 14327.2 2279.32 14332.1 2273.25 14332.1 2267.17 14332.1 2262.25 14327.2 2262.25 14321.1 2262.25 14315 2267.17 14310.1 2273.25 14310.1 2279.32 14310.1 2284.25 14315 2284.25 14321.1Z" stroke="#4472C4" stroke-width="3.4375" stroke-linejoin="round" stroke-miterlimit="10" fill="#4472C4"/><path d="M2290.25 14331.1C2290.25 14337.2 2285.32 14342.1 2279.25 14342.1 2273.17 14342.1 2268.25 14337.2 2268.25 14331.1 2268.25 14325 2273.17 14320.1 2279.25 14320.1 2285.32 14320.1 2290.25 14325 2290.25 14331.1Z" stroke="#4472C4" stroke-width="3.4375" stroke-linejoin="round" stroke-miterlimit="10" fill="#4472C4"/><path d="M2295.25 14313.1C2295.25 14319.2 2290.32 14324.1 2284.25 14324.1 2278.17 14324.1 2273.25 14319.2 2273.25 14313.1 2273.25 14307 2278.17 14302.1 2284.25 14302.1 2290.32 14302.1 2295.25 14307 2295.25 14313.1Z" stroke="#4472C4" stroke-width="3.4375" stroke-linejoin="round" stroke-miterlimit="10" fill="#4472C4"/><path d="M2301.25 14318.1C2301.25 14324.2 2296.32 14329.1 2290.25 14329.1 2284.17 14329.1 2279.25 14324.2 2279.25 14318.1 2279.25 14312 2284.17 14307.1 2290.25 14307.1 2296.32 14307.1 2301.25 14312 2301.25 14318.1Z" stroke="#4472C4" stroke-width="3.4375" stroke-linejoin="round" stroke-miterlimit="10" fill="#4472C4"/><path d="M2306.25 14322.1C2306.25 14328.2 2301.32 14333.1 2295.25 14333.1 2289.17 14333.1 2284.25 14328.2 2284.25 14322.1 2284.25 14316 2289.17 14311.1 2295.25 14311.1 2301.32 14311.1 2306.25 14316 2306.25 14322.1Z" stroke="#4472C4" stroke-width="3.4375" stroke-linejoin="round" stroke-miterlimit="10" fill="#4472C4"/><path d="M2312.25 14308.1C2312.25 14314.2 2307.32 14319.1 2301.25 14319.1 2295.17 14319.1 2290.25 14314.2 2290.25 14308.1 2290.25 14302 2295.17 14297.1 2301.25 14297.1 2307.32 14297.1 2312.25 14302 2312.25 14308.1Z" stroke="#4472C4" stroke-width="3.4375" stroke-linejoin="round" stroke-miterlimit="10" fill="#4472C4"/><path d="M2317.25 14393.1C2317.25 14399.2 2312.32 14404.1 2306.25 14404.1 2300.17 14404.1 2295.25 14399.2 2295.25 14393.1 2295.25 14387 2300.17 14382.1 2306.25 14382.1 2312.32 14382.1 2317.25 14387 2317.25 14393.1Z" stroke="#4472C4" stroke-width="3.4375" stroke-linejoin="round" stroke-miterlimit="10" fill="#4472C4"/><path d="M2323.25 14382.1C2323.25 14388.2 2318.32 14393.1 2312.25 14393.1 2306.17 14393.1 2301.25 14388.2 2301.25 14382.1 2301.25 14376 2306.17 14371.1 2312.25 14371.1 2318.32 14371.1 2323.25 14376 2323.25 14382.1Z" stroke="#4472C4" stroke-width="3.4375" stroke-linejoin="round" stroke-miterlimit="10" fill="#4472C4"/><path d="M2328.25 14409.1C2328.25 14415.2 2323.32 14420.1 2317.25 14420.1 2311.17 14420.1 2306.25 14415.2 2306.25 14409.1 2306.25 14403 2311.17 14398.1 2317.25 14398.1 2323.32 14398.1 2328.25 14403 2328.25 14409.1Z" stroke="#4472C4" stroke-width="3.4375" stroke-linejoin="round" stroke-miterlimit="10" fill="#4472C4"/><path d="M2334.25 14347.1C2334.25 14353.2 2329.32 14358.1 2323.25 14358.1 2317.17 14358.1 2312.25 14353.2 2312.25 14347.1 2312.25 14341 2317.17 14336.1 2323.25 14336.1 2329.32 14336.1 2334.25 14341 2334.25 14347.1Z" stroke="#4472C4" stroke-width="3.4375" stroke-linejoin="round" stroke-miterlimit="10" fill="#4472C4"/><path d="M2340.25 14323.1C2340.25 14329.2 2335.32 14334.1 2329.25 14334.1 2323.17 14334.1 2318.25 14329.2 2318.25 14323.1 2318.25 14317 2323.17 14312.1 2329.25 14312.1 2335.32 14312.1 2340.25 14317 2340.25 14323.1Z" stroke="#4472C4" stroke-width="3.4375" stroke-linejoin="round" stroke-miterlimit="10" fill="#4472C4"/><path d="M2345.25 14320.1C2345.25 14326.2 2340.32 14331.1 2334.25 14331.1 2328.17 14331.1 2323.25 14326.2 2323.25 14320.1 2323.25 14314 2328.17 14309.1 2334.25 14309.1 2340.32 14309.1 2345.25 14314 2345.25 14320.1Z" stroke="#4472C4" stroke-width="3.4375" stroke-linejoin="round" stroke-miterlimit="10" fill="#4472C4"/><path d="M2351.25 14329.1C2351.25 14335.2 2346.32 14340.1 2340.25 14340.1 2334.17 14340.1 2329.25 14335.2 2329.25 14329.1 2329.25 14323 2334.17 14318.1 2340.25 14318.1 2346.32 14318.1 2351.25 14323 2351.25 14329.1Z" stroke="#4472C4" stroke-width="3.4375" stroke-linejoin="round" stroke-miterlimit="10" fill="#4472C4"/><path d="M2356.25 14334.1C2356.25 14340.2 2351.32 14345.1 2345.25 14345.1 2339.17 14345.1 2334.25 14340.2 2334.25 14334.1 2334.25 14328 2339.17 14323.1 2345.25 14323.1 2351.32 14323.1 2356.25 14328 2356.25 14334.1Z" stroke="#4472C4" stroke-width="3.4375" stroke-linejoin="round" stroke-miterlimit="10" fill="#4472C4"/><path d="M2362.25 14345.1C2362.25 14351.2 2357.32 14356.1 2351.25 14356.1 2345.17 14356.1 2340.25 14351.2 2340.25 14345.1 2340.25 14339 2345.17 14334.1 2351.25 14334.1 2357.32 14334.1 2362.25 14339 2362.25 14345.1Z" stroke="#4472C4" stroke-width="3.4375" stroke-linejoin="round" stroke-miterlimit="10" fill="#4472C4"/><path d="M2367.25 14272.1C2367.25 14278.2 2362.32 14283.1 2356.25 14283.1 2350.17 14283.1 2345.25 14278.2 2345.25 14272.1 2345.25 14266 2350.17 14261.1 2356.25 14261.1 2362.32 14261.1 2367.25 14266 2367.25 14272.1Z" stroke="#4472C4" stroke-width="3.4375" stroke-linejoin="round" stroke-miterlimit="10" fill="#4472C4"/><path d="M2373.25 14323.1C2373.25 14329.2 2368.32 14334.1 2362.25 14334.1 2356.17 14334.1 2351.25 14329.2 2351.25 14323.1 2351.25 14317 2356.17 14312.1 2362.25 14312.1 2368.32 14312.1 2373.25 14317 2373.25 14323.1Z" stroke="#4472C4" stroke-width="3.4375" stroke-linejoin="round" stroke-miterlimit="10" fill="#4472C4"/><path d="M2378.25 14354.1C2378.25 14360.2 2373.32 14365.1 2367.25 14365.1 2361.17 14365.1 2356.25 14360.2 2356.25 14354.1 2356.25 14348 2361.17 14343.1 2367.25 14343.1 2373.32 14343.1 2378.25 14348 2378.25 14354.1Z" stroke="#4472C4" stroke-width="3.4375" stroke-linejoin="round" stroke-miterlimit="10" fill="#4472C4"/><path d="M2384.25 14322.1C2384.25 14328.2 2379.32 14333.1 2373.25 14333.1 2367.17 14333.1 2362.25 14328.2 2362.25 14322.1 2362.25 14316 2367.17 14311.1 2373.25 14311.1 2379.32 14311.1 2384.25 14316 2384.25 14322.1Z" stroke="#4472C4" stroke-width="3.4375" stroke-linejoin="round" stroke-miterlimit="10" fill="#4472C4"/><path d="M2389.25 14380.1C2389.25 14386.2 2384.32 14391.1 2378.25 14391.1 2372.17 14391.1 2367.25 14386.2 2367.25 14380.1 2367.25 14374 2372.17 14369.1 2378.25 14369.1 2384.32 14369.1 2389.25 14374 2389.25 14380.1Z" stroke="#4472C4" stroke-width="3.4375" stroke-linejoin="round" stroke-miterlimit="10" fill="#4472C4"/><path d="M2395.25 14316.1C2395.25 14322.2 2390.32 14327.1 2384.25 14327.1 2378.17 14327.1 2373.25 14322.2 2373.25 14316.1 2373.25 14310 2378.17 14305.1 2384.25 14305.1 2390.32 14305.1 2395.25 14310 2395.25 14316.1Z" stroke="#4472C4" stroke-width="3.4375" stroke-linejoin="round" stroke-miterlimit="10" fill="#4472C4"/><path d="M2400.25 14399.1C2400.25 14405.2 2395.32 14410.1 2389.25 14410.1 2383.17 14410.1 2378.25 14405.2 2378.25 14399.1 2378.25 14393 2383.17 14388.1 2389.25 14388.1 2395.32 14388.1 2400.25 14393 2400.25 14399.1Z" stroke="#4472C4" stroke-width="3.4375" stroke-linejoin="round" stroke-miterlimit="10" fill="#4472C4"/><path d="M2406.25 14379.1C2406.25 14385.2 2401.32 14390.1 2395.25 14390.1 2389.17 14390.1 2384.25 14385.2 2384.25 14379.1 2384.25 14373 2389.17 14368.1 2395.25 14368.1 2401.32 14368.1 2406.25 14373 2406.25 14379.1Z" stroke="#4472C4" stroke-width="3.4375" stroke-linejoin="round" stroke-miterlimit="10" fill="#4472C4"/><path d="M2411.25 14314.1C2411.25 14320.2 2406.32 14325.1 2400.25 14325.1 2394.17 14325.1 2389.25 14320.2 2389.25 14314.1 2389.25 14308 2394.17 14303.1 2400.25 14303.1 2406.32 14303.1 2411.25 14308 2411.25 14314.1Z" stroke="#4472C4" stroke-width="3.4375" stroke-linejoin="round" stroke-miterlimit="10" fill="#4472C4"/><path d="M2417.25 14366.1C2417.25 14372.2 2412.32 14377.1 2406.25 14377.1 2400.17 14377.1 2395.25 14372.2 2395.25 14366.1 2395.25 14360 2400.17 14355.1 2406.25 14355.1 2412.32 14355.1 2417.25 14360 2417.25 14366.1Z" stroke="#4472C4" stroke-width="3.4375" stroke-linejoin="round" stroke-miterlimit="10" fill="#4472C4"/><path d="M2422.25 14365.1C2422.25 14371.2 2417.32 14376.1 2411.25 14376.1 2405.17 14376.1 2400.25 14371.2 2400.25 14365.1 2400.25 14359 2405.17 14354.1 2411.25 14354.1 2417.32 14354.1 2422.25 14359 2422.25 14365.1Z" stroke="#4472C4" stroke-width="3.4375" stroke-linejoin="round" stroke-miterlimit="10" fill="#4472C4"/><path d="M2428.25 14310.1C2428.25 14316.2 2423.32 14321.1 2417.25 14321.1 2411.17 14321.1 2406.25 14316.2 2406.25 14310.1 2406.25 14304 2411.17 14299.1 2417.25 14299.1 2423.32 14299.1 2428.25 14304 2428.25 14310.1Z" stroke="#4472C4" stroke-width="3.4375" stroke-linejoin="round" stroke-miterlimit="10" fill="#4472C4"/><path d="M2433.25 14343.1C2433.25 14349.2 2428.32 14354.1 2422.25 14354.1 2416.17 14354.1 2411.25 14349.2 2411.25 14343.1 2411.25 14337 2416.17 14332.1 2422.25 14332.1 2428.32 14332.1 2433.25 14337 2433.25 14343.1Z" stroke="#4472C4" stroke-width="3.4375" stroke-linejoin="round" stroke-miterlimit="10" fill="#4472C4"/><path d="M2439.25 14329.1C2439.25 14335.2 2434.32 14340.1 2428.25 14340.1 2422.17 14340.1 2417.25 14335.2 2417.25 14329.1 2417.25 14323 2422.17 14318.1 2428.25 14318.1 2434.32 14318.1 2439.25 14323 2439.25 14329.1Z" stroke="#4472C4" stroke-width="3.4375" stroke-linejoin="round" stroke-miterlimit="10" fill="#4472C4"/><path d="M2444.25 14324.1C2444.25 14330.2 2439.32 14335.1 2433.25 14335.1 2427.17 14335.1 2422.25 14330.2 2422.25 14324.1 2422.25 14318 2427.17 14313.1 2433.25 14313.1 2439.32 14313.1 2444.25 14318 2444.25 14324.1Z" stroke="#4472C4" stroke-width="3.4375" stroke-linejoin="round" stroke-miterlimit="10" fill="#4472C4"/><path d="M2450.25 14270.1C2450.25 14276.2 2445.32 14281.1 2439.25 14281.1 2433.17 14281.1 2428.25 14276.2 2428.25 14270.1 2428.25 14264 2433.17 14259.1 2439.25 14259.1 2445.32 14259.1 2450.25 14264 2450.25 14270.1Z" stroke="#4472C4" stroke-width="3.4375" stroke-linejoin="round" stroke-miterlimit="10" fill="#4472C4"/><path d="M2456.25 14379.1C2456.25 14385.2 2451.32 14390.1 2445.25 14390.1 2439.17 14390.1 2434.25 14385.2 2434.25 14379.1 2434.25 14373 2439.17 14368.1 2445.25 14368.1 2451.32 14368.1 2456.25 14373 2456.25 14379.1Z" stroke="#4472C4" stroke-width="3.4375" stroke-linejoin="round" stroke-miterlimit="10" fill="#4472C4"/><path d="M2461.25 14329.1C2461.25 14335.2 2456.32 14340.1 2450.25 14340.1 2444.17 14340.1 2439.25 14335.2 2439.25 14329.1 2439.25 14323 2444.17 14318.1 2450.25 14318.1 2456.32 14318.1 2461.25 14323 2461.25 14329.1Z" stroke="#4472C4" stroke-width="3.4375" stroke-linejoin="round" stroke-miterlimit="10" fill="#4472C4"/><path d="M2467.25 14293.1C2467.25 14299.2 2462.32 14304.1 2456.25 14304.1 2450.17 14304.1 2445.25 14299.2 2445.25 14293.1 2445.25 14287 2450.17 14282.1 2456.25 14282.1 2462.32 14282.1 2467.25 14287 2467.25 14293.1Z" stroke="#4472C4" stroke-width="3.4375" stroke-linejoin="round" stroke-miterlimit="10" fill="#4472C4"/><path d="M2472.25 14311.1C2472.25 14317.2 2467.32 14322.1 2461.25 14322.1 2455.17 14322.1 2450.25 14317.2 2450.25 14311.1 2450.25 14305 2455.17 14300.1 2461.25 14300.1 2467.32 14300.1 2472.25 14305 2472.25 14311.1Z" stroke="#4472C4" stroke-width="3.4375" stroke-linejoin="round" stroke-miterlimit="10" fill="#4472C4"/><path d="M2478.25 14356.1C2478.25 14362.2 2473.32 14367.1 2467.25 14367.1 2461.17 14367.1 2456.25 14362.2 2456.25 14356.1 2456.25 14350 2461.17 14345.1 2467.25 14345.1 2473.32 14345.1 2478.25 14350 2478.25 14356.1Z" stroke="#4472C4" stroke-width="3.4375" stroke-linejoin="round" stroke-miterlimit="10" fill="#4472C4"/><path d="M2483.25 14337.1C2483.25 14343.2 2478.32 14348.1 2472.25 14348.1 2466.17 14348.1 2461.25 14343.2 2461.25 14337.1 2461.25 14331 2466.17 14326.1 2472.25 14326.1 2478.32 14326.1 2483.25 14331 2483.25 14337.1Z" stroke="#4472C4" stroke-width="3.4375" stroke-linejoin="round" stroke-miterlimit="10" fill="#4472C4"/><path d="M2489.25 14328.1C2489.25 14334.2 2484.32 14339.1 2478.25 14339.1 2472.17 14339.1 2467.25 14334.2 2467.25 14328.1 2467.25 14322 2472.17 14317.1 2478.25 14317.1 2484.32 14317.1 2489.25 14322 2489.25 14328.1Z" stroke="#4472C4" stroke-width="3.4375" stroke-linejoin="round" stroke-miterlimit="10" fill="#4472C4"/><path d="M2494.25 14354.1C2494.25 14360.2 2489.32 14365.1 2483.25 14365.1 2477.17 14365.1 2472.25 14360.2 2472.25 14354.1 2472.25 14348 2477.17 14343.1 2483.25 14343.1 2489.32 14343.1 2494.25 14348 2494.25 14354.1Z" stroke="#4472C4" stroke-width="3.4375" stroke-linejoin="round" stroke-miterlimit="10" fill="#4472C4"/><path d="M2500.25 14307.1C2500.25 14313.2 2495.32 14318.1 2489.25 14318.1 2483.17 14318.1 2478.25 14313.2 2478.25 14307.1 2478.25 14301 2483.17 14296.1 2489.25 14296.1 2495.32 14296.1 2500.25 14301 2500.25 14307.1Z" stroke="#4472C4" stroke-width="3.4375" stroke-linejoin="round" stroke-miterlimit="10" fill="#4472C4"/><path d="M2505.25 14317.1C2505.25 14323.2 2500.32 14328.1 2494.25 14328.1 2488.17 14328.1 2483.25 14323.2 2483.25 14317.1 2483.25 14311 2488.17 14306.1 2494.25 14306.1 2500.32 14306.1 2505.25 14311 2505.25 14317.1Z" stroke="#4472C4" stroke-width="3.4375" stroke-linejoin="round" stroke-miterlimit="10" fill="#4472C4"/><path d="M2511.25 14336.1C2511.25 14342.2 2506.32 14347.1 2500.25 14347.1 2494.17 14347.1 2489.25 14342.2 2489.25 14336.1 2489.25 14330 2494.17 14325.1 2500.25 14325.1 2506.32 14325.1 2511.25 14330 2511.25 14336.1Z" stroke="#4472C4" stroke-width="3.4375" stroke-linejoin="round" stroke-miterlimit="10" fill="#4472C4"/><path d="M2516.25 14323.1C2516.25 14329.2 2511.32 14334.1 2505.25 14334.1 2499.17 14334.1 2494.25 14329.2 2494.25 14323.1 2494.25 14317 2499.17 14312.1 2505.25 14312.1 2511.32 14312.1 2516.25 14317 2516.25 14323.1Z" stroke="#4472C4" stroke-width="3.4375" stroke-linejoin="round" stroke-miterlimit="10" fill="#4472C4"/><path d="M2522.25 14302.1C2522.25 14308.2 2517.32 14313.1 2511.25 14313.1 2505.17 14313.1 2500.25 14308.2 2500.25 14302.1 2500.25 14296 2505.17 14291.1 2511.25 14291.1 2517.32 14291.1 2522.25 14296 2522.25 14302.1Z" stroke="#4472C4" stroke-width="3.4375" stroke-linejoin="round" stroke-miterlimit="10" fill="#4472C4"/><path d="M2527.25 14349.1C2527.25 14355.2 2522.32 14360.1 2516.25 14360.1 2510.17 14360.1 2505.25 14355.2 2505.25 14349.1 2505.25 14343 2510.17 14338.1 2516.25 14338.1 2522.32 14338.1 2527.25 14343 2527.25 14349.1Z" stroke="#4472C4" stroke-width="3.4375" stroke-linejoin="round" stroke-miterlimit="10" fill="#4472C4"/><path d="M2533.25 14277.1C2533.25 14283.2 2528.32 14288.1 2522.25 14288.1 2516.17 14288.1 2511.25 14283.2 2511.25 14277.1 2511.25 14271 2516.17 14266.1 2522.25 14266.1 2528.32 14266.1 2533.25 14271 2533.25 14277.1Z" stroke="#4472C4" stroke-width="3.4375" stroke-linejoin="round" stroke-miterlimit="10" fill="#4472C4"/><path d="M2538.25 14275.1C2538.25 14281.2 2533.32 14286.1 2527.25 14286.1 2521.17 14286.1 2516.25 14281.2 2516.25 14275.1 2516.25 14269 2521.17 14264.1 2527.25 14264.1 2533.32 14264.1 2538.25 14269 2538.25 14275.1Z" stroke="#4472C4" stroke-width="3.4375" stroke-linejoin="round" stroke-miterlimit="10" fill="#4472C4"/><path d="M2544.25 14330.1C2544.25 14336.2 2539.32 14341.1 2533.25 14341.1 2527.17 14341.1 2522.25 14336.2 2522.25 14330.1 2522.25 14324 2527.17 14319.1 2533.25 14319.1 2539.32 14319.1 2544.25 14324 2544.25 14330.1Z" stroke="#4472C4" stroke-width="3.4375" stroke-linejoin="round" stroke-miterlimit="10" fill="#4472C4"/><path d="M2549.25 14299.1C2549.25 14305.2 2544.32 14310.1 2538.25 14310.1 2532.17 14310.1 2527.25 14305.2 2527.25 14299.1 2527.25 14293 2532.17 14288.1 2538.25 14288.1 2544.32 14288.1 2549.25 14293 2549.25 14299.1Z" stroke="#4472C4" stroke-width="3.4375" stroke-linejoin="round" stroke-miterlimit="10" fill="#4472C4"/><path d="M2555.25 14279.1C2555.25 14285.2 2550.32 14290.1 2544.25 14290.1 2538.17 14290.1 2533.25 14285.2 2533.25 14279.1 2533.25 14273 2538.17 14268.1 2544.25 14268.1 2550.32 14268.1 2555.25 14273 2555.25 14279.1Z" stroke="#4472C4" stroke-width="3.4375" stroke-linejoin="round" stroke-miterlimit="10" fill="#4472C4"/><path d="M2560.25 14313.1C2560.25 14319.2 2555.32 14324.1 2549.25 14324.1 2543.17 14324.1 2538.25 14319.2 2538.25 14313.1 2538.25 14307 2543.17 14302.1 2549.25 14302.1 2555.32 14302.1 2560.25 14307 2560.25 14313.1Z" stroke="#4472C4" stroke-width="3.4375" stroke-linejoin="round" stroke-miterlimit="10" fill="#4472C4"/><path d="M2566.25 14274.1C2566.25 14280.2 2561.32 14285.1 2555.25 14285.1 2549.17 14285.1 2544.25 14280.2 2544.25 14274.1 2544.25 14268 2549.17 14263.1 2555.25 14263.1 2561.32 14263.1 2566.25 14268 2566.25 14274.1Z" stroke="#4472C4" stroke-width="3.4375" stroke-linejoin="round" stroke-miterlimit="10" fill="#4472C4"/><path d="M2571.25 14313.1C2571.25 14319.2 2566.32 14324.1 2560.25 14324.1 2554.17 14324.1 2549.25 14319.2 2549.25 14313.1 2549.25 14307 2554.17 14302.1 2560.25 14302.1 2566.32 14302.1 2571.25 14307 2571.25 14313.1Z" stroke="#4472C4" stroke-width="3.4375" stroke-linejoin="round" stroke-miterlimit="10" fill="#4472C4"/><path d="M2577.25 14275.1C2577.25 14281.2 2572.32 14286.1 2566.25 14286.1 2560.17 14286.1 2555.25 14281.2 2555.25 14275.1 2555.25 14269 2560.17 14264.1 2566.25 14264.1 2572.32 14264.1 2577.25 14269 2577.25 14275.1Z" stroke="#4472C4" stroke-width="3.4375" stroke-linejoin="round" stroke-miterlimit="10" fill="#4472C4"/><path d="M2583.25 14291.1C2583.25 14297.2 2578.32 14302.1 2572.25 14302.1 2566.17 14302.1 2561.25 14297.2 2561.25 14291.1 2561.25 14285 2566.17 14280.1 2572.25 14280.1 2578.32 14280.1 2583.25 14285 2583.25 14291.1Z" stroke="#4472C4" stroke-width="3.4375" stroke-linejoin="round" stroke-miterlimit="10" fill="#4472C4"/><path d="M2588.25 14346.1C2588.25 14352.2 2583.32 14357.1 2577.25 14357.1 2571.17 14357.1 2566.25 14352.2 2566.25 14346.1 2566.25 14340 2571.17 14335.1 2577.25 14335.1 2583.32 14335.1 2588.25 14340 2588.25 14346.1Z" stroke="#4472C4" stroke-width="3.4375" stroke-linejoin="round" stroke-miterlimit="10" fill="#4472C4"/><path d="M2594.25 14309.1C2594.25 14315.2 2589.32 14320.1 2583.25 14320.1 2577.17 14320.1 2572.25 14315.2 2572.25 14309.1 2572.25 14303 2577.17 14298.1 2583.25 14298.1 2589.32 14298.1 2594.25 14303 2594.25 14309.1Z" stroke="#4472C4" stroke-width="3.4375" stroke-linejoin="round" stroke-miterlimit="10" fill="#4472C4"/><path d="M2599.25 14311.1C2599.25 14317.2 2594.32 14322.1 2588.25 14322.1 2582.17 14322.1 2577.25 14317.2 2577.25 14311.1 2577.25 14305 2582.17 14300.1 2588.25 14300.1 2594.32 14300.1 2599.25 14305 2599.25 14311.1Z" stroke="#4472C4" stroke-width="3.4375" stroke-linejoin="round" stroke-miterlimit="10" fill="#4472C4"/><path d="M2605.25 14313.1C2605.25 14319.2 2600.32 14324.1 2594.25 14324.1 2588.17 14324.1 2583.25 14319.2 2583.25 14313.1 2583.25 14307 2588.17 14302.1 2594.25 14302.1 2600.32 14302.1 2605.25 14307 2605.25 14313.1Z" stroke="#4472C4" stroke-width="3.4375" stroke-linejoin="round" stroke-miterlimit="10" fill="#4472C4"/><path d="M2610.25 14302.1C2610.25 14308.2 2605.32 14313.1 2599.25 14313.1 2593.17 14313.1 2588.25 14308.2 2588.25 14302.1 2588.25 14296 2593.17 14291.1 2599.25 14291.1 2605.32 14291.1 2610.25 14296 2610.25 14302.1Z" stroke="#4472C4" stroke-width="3.4375" stroke-linejoin="round" stroke-miterlimit="10" fill="#4472C4"/><path d="M2616.25 14314.1C2616.25 14320.2 2611.32 14325.1 2605.25 14325.1 2599.17 14325.1 2594.25 14320.2 2594.25 14314.1 2594.25 14308 2599.17 14303.1 2605.25 14303.1 2611.32 14303.1 2616.25 14308 2616.25 14314.1Z" stroke="#4472C4" stroke-width="3.4375" stroke-linejoin="round" stroke-miterlimit="10" fill="#4472C4"/><path d="M2621.25 14294.1C2621.25 14300.2 2616.32 14305.1 2610.25 14305.1 2604.17 14305.1 2599.25 14300.2 2599.25 14294.1 2599.25 14288 2604.17 14283.1 2610.25 14283.1 2616.32 14283.1 2621.25 14288 2621.25 14294.1Z" stroke="#4472C4" stroke-width="3.4375" stroke-linejoin="round" stroke-miterlimit="10" fill="#4472C4"/><path d="M2627.25 14333.1C2627.25 14339.2 2622.32 14344.1 2616.25 14344.1 2610.17 14344.1 2605.25 14339.2 2605.25 14333.1 2605.25 14327 2610.17 14322.1 2616.25 14322.1 2622.32 14322.1 2627.25 14327 2627.25 14333.1Z" stroke="#4472C4" stroke-width="3.4375" stroke-linejoin="round" stroke-miterlimit="10" fill="#4472C4"/><path d="M2632.25 14338.1C2632.25 14344.2 2627.32 14349.1 2621.25 14349.1 2615.17 14349.1 2610.25 14344.2 2610.25 14338.1 2610.25 14332 2615.17 14327.1 2621.25 14327.1 2627.32 14327.1 2632.25 14332 2632.25 14338.1Z" stroke="#4472C4" stroke-width="3.4375" stroke-linejoin="round" stroke-miterlimit="10" fill="#4472C4"/><path d="M2638.25 14263.1C2638.25 14269.2 2633.32 14274.1 2627.25 14274.1 2621.17 14274.1 2616.25 14269.2 2616.25 14263.1 2616.25 14257 2621.17 14252.1 2627.25 14252.1 2633.32 14252.1 2638.25 14257 2638.25 14263.1Z" stroke="#4472C4" stroke-width="3.4375" stroke-linejoin="round" stroke-miterlimit="10" fill="#4472C4"/><path d="M2643.25 14306.1C2643.25 14312.2 2638.32 14317.1 2632.25 14317.1 2626.17 14317.1 2621.25 14312.2 2621.25 14306.1 2621.25 14300 2626.17 14295.1 2632.25 14295.1 2638.32 14295.1 2643.25 14300 2643.25 14306.1Z" stroke="#4472C4" stroke-width="3.4375" stroke-linejoin="round" stroke-miterlimit="10" fill="#4472C4"/><path d="M2649.25 14303.1C2649.25 14309.2 2644.32 14314.1 2638.25 14314.1 2632.17 14314.1 2627.25 14309.2 2627.25 14303.1 2627.25 14297 2632.17 14292.1 2638.25 14292.1 2644.32 14292.1 2649.25 14297 2649.25 14303.1Z" stroke="#4472C4" stroke-width="3.4375" stroke-linejoin="round" stroke-miterlimit="10" fill="#4472C4"/><path d="M2654.25 14323.1C2654.25 14329.2 2649.32 14334.1 2643.25 14334.1 2637.17 14334.1 2632.25 14329.2 2632.25 14323.1 2632.25 14317 2637.17 14312.1 2643.25 14312.1 2649.32 14312.1 2654.25 14317 2654.25 14323.1Z" stroke="#4472C4" stroke-width="3.4375" stroke-linejoin="round" stroke-miterlimit="10" fill="#4472C4"/><path d="M2660.25 14293.1C2660.25 14299.2 2655.32 14304.1 2649.25 14304.1 2643.17 14304.1 2638.25 14299.2 2638.25 14293.1 2638.25 14287 2643.17 14282.1 2649.25 14282.1 2655.32 14282.1 2660.25 14287 2660.25 14293.1Z" stroke="#4472C4" stroke-width="3.4375" stroke-linejoin="round" stroke-miterlimit="10" fill="#4472C4"/><path d="M2665.25 14309.1C2665.25 14315.2 2660.32 14320.1 2654.25 14320.1 2648.17 14320.1 2643.25 14315.2 2643.25 14309.1 2643.25 14303 2648.17 14298.1 2654.25 14298.1 2660.32 14298.1 2665.25 14303 2665.25 14309.1Z" stroke="#4472C4" stroke-width="3.4375" stroke-linejoin="round" stroke-miterlimit="10" fill="#4472C4"/><path d="M2671.25 14301.1C2671.25 14307.2 2666.32 14312.1 2660.25 14312.1 2654.17 14312.1 2649.25 14307.2 2649.25 14301.1 2649.25 14295 2654.17 14290.1 2660.25 14290.1 2666.32 14290.1 2671.25 14295 2671.25 14301.1Z" stroke="#4472C4" stroke-width="3.4375" stroke-linejoin="round" stroke-miterlimit="10" fill="#4472C4"/><path d="M2676.25 14309.1C2676.25 14315.2 2671.32 14320.1 2665.25 14320.1 2659.17 14320.1 2654.25 14315.2 2654.25 14309.1 2654.25 14303 2659.17 14298.1 2665.25 14298.1 2671.32 14298.1 2676.25 14303 2676.25 14309.1Z" stroke="#4472C4" stroke-width="3.4375" stroke-linejoin="round" stroke-miterlimit="10" fill="#4472C4"/><path d="M2682.25 14306.1C2682.25 14312.2 2677.32 14317.1 2671.25 14317.1 2665.17 14317.1 2660.25 14312.2 2660.25 14306.1 2660.25 14300 2665.17 14295.1 2671.25 14295.1 2677.32 14295.1 2682.25 14300 2682.25 14306.1Z" stroke="#4472C4" stroke-width="3.4375" stroke-linejoin="round" stroke-miterlimit="10" fill="#4472C4"/><path d="M2687.25 14314.1C2687.25 14320.2 2682.32 14325.1 2676.25 14325.1 2670.17 14325.1 2665.25 14320.2 2665.25 14314.1 2665.25 14308 2670.17 14303.1 2676.25 14303.1 2682.32 14303.1 2687.25 14308 2687.25 14314.1Z" stroke="#4472C4" stroke-width="3.4375" stroke-linejoin="round" stroke-miterlimit="10" fill="#4472C4"/><path d="M2693.25 14328.1C2693.25 14334.2 2688.32 14339.1 2682.25 14339.1 2676.17 14339.1 2671.25 14334.2 2671.25 14328.1 2671.25 14322 2676.17 14317.1 2682.25 14317.1 2688.32 14317.1 2693.25 14322 2693.25 14328.1Z" stroke="#4472C4" stroke-width="3.4375" stroke-linejoin="round" stroke-miterlimit="10" fill="#4472C4"/><path d="M2699.25 14294.1C2699.25 14300.2 2694.32 14305.1 2688.25 14305.1 2682.17 14305.1 2677.25 14300.2 2677.25 14294.1 2677.25 14288 2682.17 14283.1 2688.25 14283.1 2694.32 14283.1 2699.25 14288 2699.25 14294.1Z" stroke="#4472C4" stroke-width="3.4375" stroke-linejoin="round" stroke-miterlimit="10" fill="#4472C4"/><path d="M2704.25 14271.1C2704.25 14277.2 2699.32 14282.1 2693.25 14282.1 2687.17 14282.1 2682.25 14277.2 2682.25 14271.1 2682.25 14265 2687.17 14260.1 2693.25 14260.1 2699.32 14260.1 2704.25 14265 2704.25 14271.1Z" stroke="#4472C4" stroke-width="3.4375" stroke-linejoin="round" stroke-miterlimit="10" fill="#4472C4"/><path d="M2710.25 14308.1C2710.25 14314.2 2705.32 14319.1 2699.25 14319.1 2693.17 14319.1 2688.25 14314.2 2688.25 14308.1 2688.25 14302 2693.17 14297.1 2699.25 14297.1 2705.32 14297.1 2710.25 14302 2710.25 14308.1Z" stroke="#4472C4" stroke-width="3.4375" stroke-linejoin="round" stroke-miterlimit="10" fill="#4472C4"/><path d="M2715.25 14281.1C2715.25 14287.2 2710.32 14292.1 2704.25 14292.1 2698.17 14292.1 2693.25 14287.2 2693.25 14281.1 2693.25 14275 2698.17 14270.1 2704.25 14270.1 2710.32 14270.1 2715.25 14275 2715.25 14281.1Z" stroke="#4472C4" stroke-width="3.4375" stroke-linejoin="round" stroke-miterlimit="10" fill="#4472C4"/><path d="M2721.25 14299.1C2721.25 14305.2 2716.32 14310.1 2710.25 14310.1 2704.17 14310.1 2699.25 14305.2 2699.25 14299.1 2699.25 14293 2704.17 14288.1 2710.25 14288.1 2716.32 14288.1 2721.25 14293 2721.25 14299.1Z" stroke="#4472C4" stroke-width="3.4375" stroke-linejoin="round" stroke-miterlimit="10" fill="#4472C4"/><path d="M2726.25 14317.1C2726.25 14323.2 2721.32 14328.1 2715.25 14328.1 2709.17 14328.1 2704.25 14323.2 2704.25 14317.1 2704.25 14311 2709.17 14306.1 2715.25 14306.1 2721.32 14306.1 2726.25 14311 2726.25 14317.1Z" stroke="#4472C4" stroke-width="3.4375" stroke-linejoin="round" stroke-miterlimit="10" fill="#4472C4"/><path d="M2732.25 14345.1C2732.25 14351.2 2727.32 14356.1 2721.25 14356.1 2715.17 14356.1 2710.25 14351.2 2710.25 14345.1 2710.25 14339 2715.17 14334.1 2721.25 14334.1 2727.32 14334.1 2732.25 14339 2732.25 14345.1Z" stroke="#4472C4" stroke-width="3.4375" stroke-linejoin="round" stroke-miterlimit="10" fill="#4472C4"/><path d="M2737.25 14261.1C2737.25 14267.2 2732.32 14272.1 2726.25 14272.1 2720.17 14272.1 2715.25 14267.2 2715.25 14261.1 2715.25 14255 2720.17 14250.1 2726.25 14250.1 2732.32 14250.1 2737.25 14255 2737.25 14261.1Z" stroke="#4472C4" stroke-width="3.4375" stroke-linejoin="round" stroke-miterlimit="10" fill="#4472C4"/><path d="M2743.25 14290.1C2743.25 14296.2 2738.32 14301.1 2732.25 14301.1 2726.17 14301.1 2721.25 14296.2 2721.25 14290.1 2721.25 14284 2726.17 14279.1 2732.25 14279.1 2738.32 14279.1 2743.25 14284 2743.25 14290.1Z" stroke="#4472C4" stroke-width="3.4375" stroke-linejoin="round" stroke-miterlimit="10" fill="#4472C4"/><path d="M2748.25 14304.1C2748.25 14310.2 2743.32 14315.1 2737.25 14315.1 2731.17 14315.1 2726.25 14310.2 2726.25 14304.1 2726.25 14298 2731.17 14293.1 2737.25 14293.1 2743.32 14293.1 2748.25 14298 2748.25 14304.1Z" stroke="#4472C4" stroke-width="3.4375" stroke-linejoin="round" stroke-miterlimit="10" fill="#4472C4"/><path d="M2754.25 14287.1C2754.25 14293.2 2749.32 14298.1 2743.25 14298.1 2737.17 14298.1 2732.25 14293.2 2732.25 14287.1 2732.25 14281 2737.17 14276.1 2743.25 14276.1 2749.32 14276.1 2754.25 14281 2754.25 14287.1Z" stroke="#4472C4" stroke-width="3.4375" stroke-linejoin="round" stroke-miterlimit="10" fill="#4472C4"/><path d="M2759.25 14237.1C2759.25 14243.2 2754.32 14248.1 2748.25 14248.1 2742.17 14248.1 2737.25 14243.2 2737.25 14237.1 2737.25 14231 2742.17 14226.1 2748.25 14226.1 2754.32 14226.1 2759.25 14231 2759.25 14237.1Z" stroke="#4472C4" stroke-width="3.4375" stroke-linejoin="round" stroke-miterlimit="10" fill="#4472C4"/><path d="M2765.25 14308.1C2765.25 14314.2 2760.32 14319.1 2754.25 14319.1 2748.17 14319.1 2743.25 14314.2 2743.25 14308.1 2743.25 14302 2748.17 14297.1 2754.25 14297.1 2760.32 14297.1 2765.25 14302 2765.25 14308.1Z" stroke="#4472C4" stroke-width="3.4375" stroke-linejoin="round" stroke-miterlimit="10" fill="#4472C4"/><path d="M2770.25 14367.1C2770.25 14373.2 2765.32 14378.1 2759.25 14378.1 2753.17 14378.1 2748.25 14373.2 2748.25 14367.1 2748.25 14361 2753.17 14356.1 2759.25 14356.1 2765.32 14356.1 2770.25 14361 2770.25 14367.1Z" stroke="#4472C4" stroke-width="3.4375" stroke-linejoin="round" stroke-miterlimit="10" fill="#4472C4"/><path d="M2776.25 14283.1C2776.25 14289.2 2771.32 14294.1 2765.25 14294.1 2759.17 14294.1 2754.25 14289.2 2754.25 14283.1 2754.25 14277 2759.17 14272.1 2765.25 14272.1 2771.32 14272.1 2776.25 14277 2776.25 14283.1Z" stroke="#4472C4" stroke-width="3.4375" stroke-linejoin="round" stroke-miterlimit="10" fill="#4472C4"/><path d="M2781.25 14309.1C2781.25 14315.2 2776.32 14320.1 2770.25 14320.1 2764.17 14320.1 2759.25 14315.2 2759.25 14309.1 2759.25 14303 2764.17 14298.1 2770.25 14298.1 2776.32 14298.1 2781.25 14303 2781.25 14309.1Z" stroke="#4472C4" stroke-width="3.4375" stroke-linejoin="round" stroke-miterlimit="10" fill="#4472C4"/><path d="M2787.25 14327.1C2787.25 14333.2 2782.32 14338.1 2776.25 14338.1 2770.17 14338.1 2765.25 14333.2 2765.25 14327.1 2765.25 14321 2770.17 14316.1 2776.25 14316.1 2782.32 14316.1 2787.25 14321 2787.25 14327.1Z" stroke="#4472C4" stroke-width="3.4375" stroke-linejoin="round" stroke-miterlimit="10" fill="#4472C4"/><path d="M2792.25 14268.1C2792.25 14274.2 2787.32 14279.1 2781.25 14279.1 2775.17 14279.1 2770.25 14274.2 2770.25 14268.1 2770.25 14262 2775.17 14257.1 2781.25 14257.1 2787.32 14257.1 2792.25 14262 2792.25 14268.1Z" stroke="#4472C4" stroke-width="3.4375" stroke-linejoin="round" stroke-miterlimit="10" fill="#4472C4"/><path d="M2798.25 14316.1C2798.25 14322.2 2793.32 14327.1 2787.25 14327.1 2781.17 14327.1 2776.25 14322.2 2776.25 14316.1 2776.25 14310 2781.17 14305.1 2787.25 14305.1 2793.32 14305.1 2798.25 14310 2798.25 14316.1Z" stroke="#4472C4" stroke-width="3.4375" stroke-linejoin="round" stroke-miterlimit="10" fill="#4472C4"/><path d="M2803.25 14254.1C2803.25 14260.2 2798.32 14265.1 2792.25 14265.1 2786.17 14265.1 2781.25 14260.2 2781.25 14254.1 2781.25 14248 2786.17 14243.1 2792.25 14243.1 2798.32 14243.1 2803.25 14248 2803.25 14254.1Z" stroke="#4472C4" stroke-width="3.4375" stroke-linejoin="round" stroke-miterlimit="10" fill="#4472C4"/><path d="M2809.25 14336.1C2809.25 14342.2 2804.32 14347.1 2798.25 14347.1 2792.17 14347.1 2787.25 14342.2 2787.25 14336.1 2787.25 14330 2792.17 14325.1 2798.25 14325.1 2804.32 14325.1 2809.25 14330 2809.25 14336.1Z" stroke="#4472C4" stroke-width="3.4375" stroke-linejoin="round" stroke-miterlimit="10" fill="#4472C4"/><path d="M2815.25 14302.1C2815.25 14308.2 2810.32 14313.1 2804.25 14313.1 2798.17 14313.1 2793.25 14308.2 2793.25 14302.1 2793.25 14296 2798.17 14291.1 2804.25 14291.1 2810.32 14291.1 2815.25 14296 2815.25 14302.1Z" stroke="#4472C4" stroke-width="3.4375" stroke-linejoin="round" stroke-miterlimit="10" fill="#4472C4"/><path d="M2820.25 14321.1C2820.25 14327.2 2815.32 14332.1 2809.25 14332.1 2803.17 14332.1 2798.25 14327.2 2798.25 14321.1 2798.25 14315 2803.17 14310.1 2809.25 14310.1 2815.32 14310.1 2820.25 14315 2820.25 14321.1Z" stroke="#4472C4" stroke-width="3.4375" stroke-linejoin="round" stroke-miterlimit="10" fill="#4472C4"/><path d="M2826.25 14305.1C2826.25 14311.2 2821.32 14316.1 2815.25 14316.1 2809.17 14316.1 2804.25 14311.2 2804.25 14305.1 2804.25 14299 2809.17 14294.1 2815.25 14294.1 2821.32 14294.1 2826.25 14299 2826.25 14305.1Z" stroke="#4472C4" stroke-width="3.4375" stroke-linejoin="round" stroke-miterlimit="10" fill="#4472C4"/><path d="M2831.25 14262.1C2831.25 14268.2 2826.32 14273.1 2820.25 14273.1 2814.17 14273.1 2809.25 14268.2 2809.25 14262.1 2809.25 14256 2814.17 14251.1 2820.25 14251.1 2826.32 14251.1 2831.25 14256 2831.25 14262.1Z" stroke="#4472C4" stroke-width="3.4375" stroke-linejoin="round" stroke-miterlimit="10" fill="#4472C4"/><path d="M2837.25 14232.1C2837.25 14238.2 2832.32 14243.1 2826.25 14243.1 2820.17 14243.1 2815.25 14238.2 2815.25 14232.1 2815.25 14226 2820.17 14221.1 2826.25 14221.1 2832.32 14221.1 2837.25 14226 2837.25 14232.1Z" stroke="#4472C4" stroke-width="3.4375" stroke-linejoin="round" stroke-miterlimit="10" fill="#4472C4"/><path d="M2842.25 14264.1C2842.25 14270.2 2837.32 14275.1 2831.25 14275.1 2825.17 14275.1 2820.25 14270.2 2820.25 14264.1 2820.25 14258 2825.17 14253.1 2831.25 14253.1 2837.32 14253.1 2842.25 14258 2842.25 14264.1Z" stroke="#4472C4" stroke-width="3.4375" stroke-linejoin="round" stroke-miterlimit="10" fill="#4472C4"/><path d="M2848.25 14274.1C2848.25 14280.2 2843.32 14285.1 2837.25 14285.1 2831.17 14285.1 2826.25 14280.2 2826.25 14274.1 2826.25 14268 2831.17 14263.1 2837.25 14263.1 2843.32 14263.1 2848.25 14268 2848.25 14274.1Z" stroke="#4472C4" stroke-width="3.4375" stroke-linejoin="round" stroke-miterlimit="10" fill="#4472C4"/><path d="M2853.25 14332.1C2853.25 14338.2 2848.32 14343.1 2842.25 14343.1 2836.17 14343.1 2831.25 14338.2 2831.25 14332.1 2831.25 14326 2836.17 14321.1 2842.25 14321.1 2848.32 14321.1 2853.25 14326 2853.25 14332.1Z" stroke="#4472C4" stroke-width="3.4375" stroke-linejoin="round" stroke-miterlimit="10" fill="#4472C4"/><path d="M2859.25 14353.1C2859.25 14359.2 2854.32 14364.1 2848.25 14364.1 2842.17 14364.1 2837.25 14359.2 2837.25 14353.1 2837.25 14347 2842.17 14342.1 2848.25 14342.1 2854.32 14342.1 2859.25 14347 2859.25 14353.1Z" stroke="#4472C4" stroke-width="3.4375" stroke-linejoin="round" stroke-miterlimit="10" fill="#4472C4"/><path d="M2864.25 14264.1C2864.25 14270.2 2859.32 14275.1 2853.25 14275.1 2847.17 14275.1 2842.25 14270.2 2842.25 14264.1 2842.25 14258 2847.17 14253.1 2853.25 14253.1 2859.32 14253.1 2864.25 14258 2864.25 14264.1Z" stroke="#4472C4" stroke-width="3.4375" stroke-linejoin="round" stroke-miterlimit="10" fill="#4472C4"/><path d="M2870.25 14255.1C2870.25 14261.2 2865.32 14266.1 2859.25 14266.1 2853.17 14266.1 2848.25 14261.2 2848.25 14255.1 2848.25 14249 2853.17 14244.1 2859.25 14244.1 2865.32 14244.1 2870.25 14249 2870.25 14255.1Z" stroke="#4472C4" stroke-width="3.4375" stroke-linejoin="round" stroke-miterlimit="10" fill="#4472C4"/><path d="M2875.25 14336.1C2875.25 14342.2 2870.32 14347.1 2864.25 14347.1 2858.17 14347.1 2853.25 14342.2 2853.25 14336.1 2853.25 14330 2858.17 14325.1 2864.25 14325.1 2870.32 14325.1 2875.25 14330 2875.25 14336.1Z" stroke="#4472C4" stroke-width="3.4375" stroke-linejoin="round" stroke-miterlimit="10" fill="#4472C4"/><path d="M2881.25 14249.1C2881.25 14255.2 2876.32 14260.1 2870.25 14260.1 2864.17 14260.1 2859.25 14255.2 2859.25 14249.1 2859.25 14243 2864.17 14238.1 2870.25 14238.1 2876.32 14238.1 2881.25 14243 2881.25 14249.1Z" stroke="#4472C4" stroke-width="3.4375" stroke-linejoin="round" stroke-miterlimit="10" fill="#4472C4"/><path d="M2886.25 14305.1C2886.25 14311.2 2881.32 14316.1 2875.25 14316.1 2869.17 14316.1 2864.25 14311.2 2864.25 14305.1 2864.25 14299 2869.17 14294.1 2875.25 14294.1 2881.32 14294.1 2886.25 14299 2886.25 14305.1Z" stroke="#4472C4" stroke-width="3.4375" stroke-linejoin="round" stroke-miterlimit="10" fill="#4472C4"/><path d="M2892.25 14359.1C2892.25 14365.2 2887.32 14370.1 2881.25 14370.1 2875.17 14370.1 2870.25 14365.2 2870.25 14359.1 2870.25 14353 2875.17 14348.1 2881.25 14348.1 2887.32 14348.1 2892.25 14353 2892.25 14359.1Z" stroke="#4472C4" stroke-width="3.4375" stroke-linejoin="round" stroke-miterlimit="10" fill="#4472C4"/><path d="M2897.25 14275.1C2897.25 14281.2 2892.32 14286.1 2886.25 14286.1 2880.17 14286.1 2875.25 14281.2 2875.25 14275.1 2875.25 14269 2880.17 14264.1 2886.25 14264.1 2892.32 14264.1 2897.25 14269 2897.25 14275.1Z" stroke="#4472C4" stroke-width="3.4375" stroke-linejoin="round" stroke-miterlimit="10" fill="#4472C4"/><path d="M2903.25 14334.1C2903.25 14340.2 2898.32 14345.1 2892.25 14345.1 2886.17 14345.1 2881.25 14340.2 2881.25 14334.1 2881.25 14328 2886.17 14323.1 2892.25 14323.1 2898.32 14323.1 2903.25 14328 2903.25 14334.1Z" stroke="#4472C4" stroke-width="3.4375" stroke-linejoin="round" stroke-miterlimit="10" fill="#4472C4"/><path d="M2908.25 14289.1C2908.25 14295.2 2903.32 14300.1 2897.25 14300.1 2891.17 14300.1 2886.25 14295.2 2886.25 14289.1 2886.25 14283 2891.17 14278.1 2897.25 14278.1 2903.32 14278.1 2908.25 14283 2908.25 14289.1Z" stroke="#4472C4" stroke-width="3.4375" stroke-linejoin="round" stroke-miterlimit="10" fill="#4472C4"/><path d="M2914.25 14380.1C2914.25 14386.2 2909.32 14391.1 2903.25 14391.1 2897.17 14391.1 2892.25 14386.2 2892.25 14380.1 2892.25 14374 2897.17 14369.1 2903.25 14369.1 2909.32 14369.1 2914.25 14374 2914.25 14380.1Z" stroke="#4472C4" stroke-width="3.4375" stroke-linejoin="round" stroke-miterlimit="10" fill="#4472C4"/><path d="M2919.25 14294.1C2919.25 14300.2 2914.32 14305.1 2908.25 14305.1 2902.17 14305.1 2897.25 14300.2 2897.25 14294.1 2897.25 14288 2902.17 14283.1 2908.25 14283.1 2914.32 14283.1 2919.25 14288 2919.25 14294.1Z" stroke="#4472C4" stroke-width="3.4375" stroke-linejoin="round" stroke-miterlimit="10" fill="#4472C4"/><path d="M2925.25 14244.1C2925.25 14250.2 2920.32 14255.1 2914.25 14255.1 2908.17 14255.1 2903.25 14250.2 2903.25 14244.1 2903.25 14238 2908.17 14233.1 2914.25 14233.1 2920.32 14233.1 2925.25 14238 2925.25 14244.1Z" stroke="#4472C4" stroke-width="3.4375" stroke-linejoin="round" stroke-miterlimit="10" fill="#4472C4"/><path d="M2930.25 14259.1C2930.25 14265.2 2925.32 14270.1 2919.25 14270.1 2913.17 14270.1 2908.25 14265.2 2908.25 14259.1 2908.25 14253 2913.17 14248.1 2919.25 14248.1 2925.32 14248.1 2930.25 14253 2930.25 14259.1Z" stroke="#4472C4" stroke-width="3.4375" stroke-linejoin="round" stroke-miterlimit="10" fill="#4472C4"/><path d="M2936.25 14280.1C2936.25 14286.2 2931.32 14291.1 2925.25 14291.1 2919.17 14291.1 2914.25 14286.2 2914.25 14280.1 2914.25 14274 2919.17 14269.1 2925.25 14269.1 2931.32 14269.1 2936.25 14274 2936.25 14280.1Z" stroke="#4472C4" stroke-width="3.4375" stroke-linejoin="round" stroke-miterlimit="10" fill="#4472C4"/><path d="M2942.25 14271.1C2942.25 14277.2 2937.32 14282.1 2931.25 14282.1 2925.17 14282.1 2920.25 14277.2 2920.25 14271.1 2920.25 14265 2925.17 14260.1 2931.25 14260.1 2937.32 14260.1 2942.25 14265 2942.25 14271.1Z" stroke="#4472C4" stroke-width="3.4375" stroke-linejoin="round" stroke-miterlimit="10" fill="#4472C4"/><path d="M2947.25 14301.1C2947.25 14307.2 2942.32 14312.1 2936.25 14312.1 2930.17 14312.1 2925.25 14307.2 2925.25 14301.1 2925.25 14295 2930.17 14290.1 2936.25 14290.1 2942.32 14290.1 2947.25 14295 2947.25 14301.1Z" stroke="#4472C4" stroke-width="3.4375" stroke-linejoin="round" stroke-miterlimit="10" fill="#4472C4"/><path d="M2953.25 14328.1C2953.25 14334.2 2948.32 14339.1 2942.25 14339.1 2936.17 14339.1 2931.25 14334.2 2931.25 14328.1 2931.25 14322 2936.17 14317.1 2942.25 14317.1 2948.32 14317.1 2953.25 14322 2953.25 14328.1Z" stroke="#4472C4" stroke-width="3.4375" stroke-linejoin="round" stroke-miterlimit="10" fill="#4472C4"/><path d="M2958.25 14325.1C2958.25 14331.2 2953.32 14336.1 2947.25 14336.1 2941.17 14336.1 2936.25 14331.2 2936.25 14325.1 2936.25 14319 2941.17 14314.1 2947.25 14314.1 2953.32 14314.1 2958.25 14319 2958.25 14325.1Z" stroke="#4472C4" stroke-width="3.4375" stroke-linejoin="round" stroke-miterlimit="10" fill="#4472C4"/><path d="M2964.25 14322.1C2964.25 14328.2 2959.32 14333.1 2953.25 14333.1 2947.17 14333.1 2942.25 14328.2 2942.25 14322.1 2942.25 14316 2947.17 14311.1 2953.25 14311.1 2959.32 14311.1 2964.25 14316 2964.25 14322.1Z" stroke="#4472C4" stroke-width="3.4375" stroke-linejoin="round" stroke-miterlimit="10" fill="#4472C4"/><path d="M2969.25 14348.1C2969.25 14354.2 2964.32 14359.1 2958.25 14359.1 2952.17 14359.1 2947.25 14354.2 2947.25 14348.1 2947.25 14342 2952.17 14337.1 2958.25 14337.1 2964.32 14337.1 2969.25 14342 2969.25 14348.1Z" stroke="#4472C4" stroke-width="3.4375" stroke-linejoin="round" stroke-miterlimit="10" fill="#4472C4"/><path d="M2975.25 14396.1C2975.25 14402.2 2970.32 14407.1 2964.25 14407.1 2958.17 14407.1 2953.25 14402.2 2953.25 14396.1 2953.25 14390 2958.17 14385.1 2964.25 14385.1 2970.32 14385.1 2975.25 14390 2975.25 14396.1Z" stroke="#4472C4" stroke-width="3.4375" stroke-linejoin="round" stroke-miterlimit="10" fill="#4472C4"/><path d="M2980.25 14314.1C2980.25 14320.2 2975.32 14325.1 2969.25 14325.1 2963.17 14325.1 2958.25 14320.2 2958.25 14314.1 2958.25 14308 2963.17 14303.1 2969.25 14303.1 2975.32 14303.1 2980.25 14308 2980.25 14314.1Z" stroke="#4472C4" stroke-width="3.4375" stroke-linejoin="round" stroke-miterlimit="10" fill="#4472C4"/><path d="M2986.25 14350.1C2986.25 14356.2 2981.32 14361.1 2975.25 14361.1 2969.17 14361.1 2964.25 14356.2 2964.25 14350.1 2964.25 14344 2969.17 14339.1 2975.25 14339.1 2981.32 14339.1 2986.25 14344 2986.25 14350.1Z" stroke="#4472C4" stroke-width="3.4375" stroke-linejoin="round" stroke-miterlimit="10" fill="#4472C4"/><path d="M2991.25 14349.1C2991.25 14355.2 2986.32 14360.1 2980.25 14360.1 2974.17 14360.1 2969.25 14355.2 2969.25 14349.1 2969.25 14343 2974.17 14338.1 2980.25 14338.1 2986.32 14338.1 2991.25 14343 2991.25 14349.1Z" stroke="#4472C4" stroke-width="3.4375" stroke-linejoin="round" stroke-miterlimit="10" fill="#4472C4"/><path d="M2997.25 14272.1C2997.25 14278.2 2992.32 14283.1 2986.25 14283.1 2980.17 14283.1 2975.25 14278.2 2975.25 14272.1 2975.25 14266 2980.17 14261.1 2986.25 14261.1 2992.32 14261.1 2997.25 14266 2997.25 14272.1Z" stroke="#4472C4" stroke-width="3.4375" stroke-linejoin="round" stroke-miterlimit="10" fill="#4472C4"/><path d="M3002.25 14371.1C3002.25 14377.2 2997.32 14382.1 2991.25 14382.1 2985.17 14382.1 2980.25 14377.2 2980.25 14371.1 2980.25 14365 2985.17 14360.1 2991.25 14360.1 2997.32 14360.1 3002.25 14365 3002.25 14371.1Z" stroke="#4472C4" stroke-width="3.4375" stroke-linejoin="round" stroke-miterlimit="10" fill="#4472C4"/><path d="M3008.25 14314.1C3008.25 14320.2 3003.32 14325.1 2997.25 14325.1 2991.17 14325.1 2986.25 14320.2 2986.25 14314.1 2986.25 14308 2991.17 14303.1 2997.25 14303.1 3003.32 14303.1 3008.25 14308 3008.25 14314.1Z" stroke="#4472C4" stroke-width="3.4375" stroke-linejoin="round" stroke-miterlimit="10" fill="#4472C4"/><path d="M3013.25 14295.1C3013.25 14301.2 3008.32 14306.1 3002.25 14306.1 2996.17 14306.1 2991.25 14301.2 2991.25 14295.1 2991.25 14289 2996.17 14284.1 3002.25 14284.1 3008.32 14284.1 3013.25 14289 3013.25 14295.1Z" stroke="#4472C4" stroke-width="3.4375" stroke-linejoin="round" stroke-miterlimit="10" fill="#4472C4"/><path d="M3019.25 14350.1C3019.25 14356.2 3014.32 14361.1 3008.25 14361.1 3002.17 14361.1 2997.25 14356.2 2997.25 14350.1 2997.25 14344 3002.17 14339.1 3008.25 14339.1 3014.32 14339.1 3019.25 14344 3019.25 14350.1Z" stroke="#4472C4" stroke-width="3.4375" stroke-linejoin="round" stroke-miterlimit="10" fill="#4472C4"/><path d="M3024.25 14324.1C3024.25 14330.2 3019.32 14335.1 3013.25 14335.1 3007.17 14335.1 3002.25 14330.2 3002.25 14324.1 3002.25 14318 3007.17 14313.1 3013.25 14313.1 3019.32 14313.1 3024.25 14318 3024.25 14324.1Z" stroke="#4472C4" stroke-width="3.4375" stroke-linejoin="round" stroke-miterlimit="10" fill="#4472C4"/><path d="M3030.25 14340.1C3030.25 14346.2 3025.32 14351.1 3019.25 14351.1 3013.17 14351.1 3008.25 14346.2 3008.25 14340.1 3008.25 14334 3013.17 14329.1 3019.25 14329.1 3025.32 14329.1 3030.25 14334 3030.25 14340.1Z" stroke="#4472C4" stroke-width="3.4375" stroke-linejoin="round" stroke-miterlimit="10" fill="#4472C4"/><path d="M3035.25 14306.1C3035.25 14312.2 3030.32 14317.1 3024.25 14317.1 3018.17 14317.1 3013.25 14312.2 3013.25 14306.1 3013.25 14300 3018.17 14295.1 3024.25 14295.1 3030.32 14295.1 3035.25 14300 3035.25 14306.1Z" stroke="#4472C4" stroke-width="3.4375" stroke-linejoin="round" stroke-miterlimit="10" fill="#4472C4"/><path d="M3041.25 14301.1C3041.25 14307.2 3036.32 14312.1 3030.25 14312.1 3024.17 14312.1 3019.25 14307.2 3019.25 14301.1 3019.25 14295 3024.17 14290.1 3030.25 14290.1 3036.32 14290.1 3041.25 14295 3041.25 14301.1Z" stroke="#4472C4" stroke-width="3.4375" stroke-linejoin="round" stroke-miterlimit="10" fill="#4472C4"/><path d="M3046.25 14299.1C3046.25 14305.2 3041.32 14310.1 3035.25 14310.1 3029.17 14310.1 3024.25 14305.2 3024.25 14299.1 3024.25 14293 3029.17 14288.1 3035.25 14288.1 3041.32 14288.1 3046.25 14293 3046.25 14299.1Z" stroke="#4472C4" stroke-width="3.4375" stroke-linejoin="round" stroke-miterlimit="10" fill="#4472C4"/><path d="M3052.25 14305.1C3052.25 14311.2 3047.32 14316.1 3041.25 14316.1 3035.17 14316.1 3030.25 14311.2 3030.25 14305.1 3030.25 14299 3035.17 14294.1 3041.25 14294.1 3047.32 14294.1 3052.25 14299 3052.25 14305.1Z" stroke="#4472C4" stroke-width="3.4375" stroke-linejoin="round" stroke-miterlimit="10" fill="#4472C4"/><path d="M3058.25 14282.1C3058.25 14288.2 3053.32 14293.1 3047.25 14293.1 3041.17 14293.1 3036.25 14288.2 3036.25 14282.1 3036.25 14276 3041.17 14271.1 3047.25 14271.1 3053.32 14271.1 3058.25 14276 3058.25 14282.1Z" stroke="#4472C4" stroke-width="3.4375" stroke-linejoin="round" stroke-miterlimit="10" fill="#4472C4"/><path d="M3063.25 14312.1C3063.25 14318.2 3058.32 14323.1 3052.25 14323.1 3046.17 14323.1 3041.25 14318.2 3041.25 14312.1 3041.25 14306 3046.17 14301.1 3052.25 14301.1 3058.32 14301.1 3063.25 14306 3063.25 14312.1Z" stroke="#4472C4" stroke-width="3.4375" stroke-linejoin="round" stroke-miterlimit="10" fill="#4472C4"/><path d="M3069.25 14251.1C3069.25 14257.2 3064.32 14262.1 3058.25 14262.1 3052.17 14262.1 3047.25 14257.2 3047.25 14251.1 3047.25 14245 3052.17 14240.1 3058.25 14240.1 3064.32 14240.1 3069.25 14245 3069.25 14251.1Z" stroke="#4472C4" stroke-width="3.4375" stroke-linejoin="round" stroke-miterlimit="10" fill="#4472C4"/><path d="M3074.25 14324.1C3074.25 14330.2 3069.32 14335.1 3063.25 14335.1 3057.17 14335.1 3052.25 14330.2 3052.25 14324.1 3052.25 14318 3057.17 14313.1 3063.25 14313.1 3069.32 14313.1 3074.25 14318 3074.25 14324.1Z" stroke="#4472C4" stroke-width="3.4375" stroke-linejoin="round" stroke-miterlimit="10" fill="#4472C4"/><path d="M3080.25 14260.1C3080.25 14266.2 3075.32 14271.1 3069.25 14271.1 3063.17 14271.1 3058.25 14266.2 3058.25 14260.1 3058.25 14254 3063.17 14249.1 3069.25 14249.1 3075.32 14249.1 3080.25 14254 3080.25 14260.1Z" stroke="#4472C4" stroke-width="3.4375" stroke-linejoin="round" stroke-miterlimit="10" fill="#4472C4"/><path d="M3085.25 14304.1C3085.25 14310.2 3080.32 14315.1 3074.25 14315.1 3068.17 14315.1 3063.25 14310.2 3063.25 14304.1 3063.25 14298 3068.17 14293.1 3074.25 14293.1 3080.32 14293.1 3085.25 14298 3085.25 14304.1Z" stroke="#4472C4" stroke-width="3.4375" stroke-linejoin="round" stroke-miterlimit="10" fill="#4472C4"/><path d="M3091.25 14274.1C3091.25 14280.2 3086.32 14285.1 3080.25 14285.1 3074.17 14285.1 3069.25 14280.2 3069.25 14274.1 3069.25 14268 3074.17 14263.1 3080.25 14263.1 3086.32 14263.1 3091.25 14268 3091.25 14274.1Z" stroke="#4472C4" stroke-width="3.4375" stroke-linejoin="round" stroke-miterlimit="10" fill="#4472C4"/><path d="M3096.25 14345.1C3096.25 14351.2 3091.32 14356.1 3085.25 14356.1 3079.17 14356.1 3074.25 14351.2 3074.25 14345.1 3074.25 14339 3079.17 14334.1 3085.25 14334.1 3091.32 14334.1 3096.25 14339 3096.25 14345.1Z" stroke="#4472C4" stroke-width="3.4375" stroke-linejoin="round" stroke-miterlimit="10" fill="#4472C4"/><path d="M3102.25 14260.1C3102.25 14266.2 3097.32 14271.1 3091.25 14271.1 3085.17 14271.1 3080.25 14266.2 3080.25 14260.1 3080.25 14254 3085.17 14249.1 3091.25 14249.1 3097.32 14249.1 3102.25 14254 3102.25 14260.1Z" stroke="#4472C4" stroke-width="3.4375" stroke-linejoin="round" stroke-miterlimit="10" fill="#4472C4"/><path d="M3107.25 14310.1C3107.25 14316.2 3102.32 14321.1 3096.25 14321.1 3090.17 14321.1 3085.25 14316.2 3085.25 14310.1 3085.25 14304 3090.17 14299.1 3096.25 14299.1 3102.32 14299.1 3107.25 14304 3107.25 14310.1Z" stroke="#4472C4" stroke-width="3.4375" stroke-linejoin="round" stroke-miterlimit="10" fill="#4472C4"/><path d="M3113.25 14272.1C3113.25 14278.2 3108.32 14283.1 3102.25 14283.1 3096.17 14283.1 3091.25 14278.2 3091.25 14272.1 3091.25 14266 3096.17 14261.1 3102.25 14261.1 3108.32 14261.1 3113.25 14266 3113.25 14272.1Z" stroke="#4472C4" stroke-width="3.4375" stroke-linejoin="round" stroke-miterlimit="10" fill="#4472C4"/><path d="M3118.25 14267.1C3118.25 14273.2 3113.32 14278.1 3107.25 14278.1 3101.17 14278.1 3096.25 14273.2 3096.25 14267.1 3096.25 14261 3101.17 14256.1 3107.25 14256.1 3113.32 14256.1 3118.25 14261 3118.25 14267.1Z" stroke="#4472C4" stroke-width="3.4375" stroke-linejoin="round" stroke-miterlimit="10" fill="#4472C4"/><path d="M3124.25 14347.1C3124.25 14353.2 3119.32 14358.1 3113.25 14358.1 3107.17 14358.1 3102.25 14353.2 3102.25 14347.1 3102.25 14341 3107.17 14336.1 3113.25 14336.1 3119.32 14336.1 3124.25 14341 3124.25 14347.1Z" stroke="#4472C4" stroke-width="3.4375" stroke-linejoin="round" stroke-miterlimit="10" fill="#4472C4"/><path d="M3129.25 14289.1C3129.25 14295.2 3124.32 14300.1 3118.25 14300.1 3112.17 14300.1 3107.25 14295.2 3107.25 14289.1 3107.25 14283 3112.17 14278.1 3118.25 14278.1 3124.32 14278.1 3129.25 14283 3129.25 14289.1Z" stroke="#4472C4" stroke-width="3.4375" stroke-linejoin="round" stroke-miterlimit="10" fill="#4472C4"/><path d="M3135.25 14275.1C3135.25 14281.2 3130.32 14286.1 3124.25 14286.1 3118.17 14286.1 3113.25 14281.2 3113.25 14275.1 3113.25 14269 3118.17 14264.1 3124.25 14264.1 3130.32 14264.1 3135.25 14269 3135.25 14275.1Z" stroke="#4472C4" stroke-width="3.4375" stroke-linejoin="round" stroke-miterlimit="10" fill="#4472C4"/><path d="M3140.25 14344.1C3140.25 14350.2 3135.32 14355.1 3129.25 14355.1 3123.17 14355.1 3118.25 14350.2 3118.25 14344.1 3118.25 14338 3123.17 14333.1 3129.25 14333.1 3135.32 14333.1 3140.25 14338 3140.25 14344.1Z" stroke="#4472C4" stroke-width="3.4375" stroke-linejoin="round" stroke-miterlimit="10" fill="#4472C4"/><path d="M3146.25 14245.1C3146.25 14251.2 3141.32 14256.1 3135.25 14256.1 3129.17 14256.1 3124.25 14251.2 3124.25 14245.1 3124.25 14239 3129.17 14234.1 3135.25 14234.1 3141.32 14234.1 3146.25 14239 3146.25 14245.1Z" stroke="#4472C4" stroke-width="3.4375" stroke-linejoin="round" stroke-miterlimit="10" fill="#4472C4"/><path d="M3151.25 14374.1C3151.25 14380.2 3146.32 14385.1 3140.25 14385.1 3134.17 14385.1 3129.25 14380.2 3129.25 14374.1 3129.25 14368 3134.17 14363.1 3140.25 14363.1 3146.32 14363.1 3151.25 14368 3151.25 14374.1Z" stroke="#4472C4" stroke-width="3.4375" stroke-linejoin="round" stroke-miterlimit="10" fill="#4472C4"/><path d="M3157.25 14279.1C3157.25 14285.2 3152.32 14290.1 3146.25 14290.1 3140.17 14290.1 3135.25 14285.2 3135.25 14279.1 3135.25 14273 3140.17 14268.1 3146.25 14268.1 3152.32 14268.1 3157.25 14273 3157.25 14279.1Z" stroke="#4472C4" stroke-width="3.4375" stroke-linejoin="round" stroke-miterlimit="10" fill="#4472C4"/><path d="M3162.25 14324.1C3162.25 14330.2 3157.32 14335.1 3151.25 14335.1 3145.17 14335.1 3140.25 14330.2 3140.25 14324.1 3140.25 14318 3145.17 14313.1 3151.25 14313.1 3157.32 14313.1 3162.25 14318 3162.25 14324.1Z" stroke="#4472C4" stroke-width="3.4375" stroke-linejoin="round" stroke-miterlimit="10" fill="#4472C4"/><path d="M3168.25 14301.1C3168.25 14307.2 3163.32 14312.1 3157.25 14312.1 3151.17 14312.1 3146.25 14307.2 3146.25 14301.1 3146.25 14295 3151.17 14290.1 3157.25 14290.1 3163.32 14290.1 3168.25 14295 3168.25 14301.1Z" stroke="#4472C4" stroke-width="3.4375" stroke-linejoin="round" stroke-miterlimit="10" fill="#4472C4"/><path d="M3173.25 14272.1C3173.25 14278.2 3168.32 14283.1 3162.25 14283.1 3156.17 14283.1 3151.25 14278.2 3151.25 14272.1 3151.25 14266 3156.17 14261.1 3162.25 14261.1 3168.32 14261.1 3173.25 14266 3173.25 14272.1Z" stroke="#4472C4" stroke-width="3.4375" stroke-linejoin="round" stroke-miterlimit="10" fill="#4472C4"/><path d="M3179.25 14242.1C3179.25 14248.2 3174.32 14253.1 3168.25 14253.1 3162.17 14253.1 3157.25 14248.2 3157.25 14242.1 3157.25 14236 3162.17 14231.1 3168.25 14231.1 3174.32 14231.1 3179.25 14236 3179.25 14242.1Z" stroke="#4472C4" stroke-width="3.4375" stroke-linejoin="round" stroke-miterlimit="10" fill="#4472C4"/><path d="M3185.25 14357.1C3185.25 14363.2 3180.32 14368.1 3174.25 14368.1 3168.17 14368.1 3163.25 14363.2 3163.25 14357.1 3163.25 14351 3168.17 14346.1 3174.25 14346.1 3180.32 14346.1 3185.25 14351 3185.25 14357.1Z" stroke="#4472C4" stroke-width="3.4375" stroke-linejoin="round" stroke-miterlimit="10" fill="#4472C4"/><path d="M3190.25 14296.1C3190.25 14302.2 3185.32 14307.1 3179.25 14307.1 3173.17 14307.1 3168.25 14302.2 3168.25 14296.1 3168.25 14290 3173.17 14285.1 3179.25 14285.1 3185.32 14285.1 3190.25 14290 3190.25 14296.1Z" stroke="#4472C4" stroke-width="3.4375" stroke-linejoin="round" stroke-miterlimit="10" fill="#4472C4"/><path d="M3196.25 14359.1C3196.25 14365.2 3191.32 14370.1 3185.25 14370.1 3179.17 14370.1 3174.25 14365.2 3174.25 14359.1 3174.25 14353 3179.17 14348.1 3185.25 14348.1 3191.32 14348.1 3196.25 14353 3196.25 14359.1Z" stroke="#4472C4" stroke-width="3.4375" stroke-linejoin="round" stroke-miterlimit="10" fill="#4472C4"/><path d="M3201.25 14350.1C3201.25 14356.2 3196.32 14361.1 3190.25 14361.1 3184.17 14361.1 3179.25 14356.2 3179.25 14350.1 3179.25 14344 3184.17 14339.1 3190.25 14339.1 3196.32 14339.1 3201.25 14344 3201.25 14350.1Z" stroke="#4472C4" stroke-width="3.4375" stroke-linejoin="round" stroke-miterlimit="10" fill="#4472C4"/><path d="M3207.25 14307.1C3207.25 14313.2 3202.32 14318.1 3196.25 14318.1 3190.17 14318.1 3185.25 14313.2 3185.25 14307.1 3185.25 14301 3190.17 14296.1 3196.25 14296.1 3202.32 14296.1 3207.25 14301 3207.25 14307.1Z" stroke="#4472C4" stroke-width="3.4375" stroke-linejoin="round" stroke-miterlimit="10" fill="#4472C4"/><path d="M3212.25 14300.1C3212.25 14306.2 3207.32 14311.1 3201.25 14311.1 3195.17 14311.1 3190.25 14306.2 3190.25 14300.1 3190.25 14294 3195.17 14289.1 3201.25 14289.1 3207.32 14289.1 3212.25 14294 3212.25 14300.1Z" stroke="#4472C4" stroke-width="3.4375" stroke-linejoin="round" stroke-miterlimit="10" fill="#4472C4"/><path d="M3218.25 14300.1C3218.25 14306.2 3213.32 14311.1 3207.25 14311.1 3201.17 14311.1 3196.25 14306.2 3196.25 14300.1 3196.25 14294 3201.17 14289.1 3207.25 14289.1 3213.32 14289.1 3218.25 14294 3218.25 14300.1Z" stroke="#4472C4" stroke-width="3.4375" stroke-linejoin="round" stroke-miterlimit="10" fill="#4472C4"/><path d="M3223.25 14316.1C3223.25 14322.2 3218.32 14327.1 3212.25 14327.1 3206.17 14327.1 3201.25 14322.2 3201.25 14316.1 3201.25 14310 3206.17 14305.1 3212.25 14305.1 3218.32 14305.1 3223.25 14310 3223.25 14316.1Z" stroke="#4472C4" stroke-width="3.4375" stroke-linejoin="round" stroke-miterlimit="10" fill="#4472C4"/><path d="M3229.25 14350.1C3229.25 14356.2 3224.32 14361.1 3218.25 14361.1 3212.17 14361.1 3207.25 14356.2 3207.25 14350.1 3207.25 14344 3212.17 14339.1 3218.25 14339.1 3224.32 14339.1 3229.25 14344 3229.25 14350.1Z" stroke="#4472C4" stroke-width="3.4375" stroke-linejoin="round" stroke-miterlimit="10" fill="#4472C4"/><path d="M3234.25 14270.1C3234.25 14276.2 3229.32 14281.1 3223.25 14281.1 3217.17 14281.1 3212.25 14276.2 3212.25 14270.1 3212.25 14264 3217.17 14259.1 3223.25 14259.1 3229.32 14259.1 3234.25 14264 3234.25 14270.1Z" stroke="#4472C4" stroke-width="3.4375" stroke-linejoin="round" stroke-miterlimit="10" fill="#4472C4"/><path d="M3240.25 14352.1C3240.25 14358.2 3235.32 14363.1 3229.25 14363.1 3223.17 14363.1 3218.25 14358.2 3218.25 14352.1 3218.25 14346 3223.17 14341.1 3229.25 14341.1 3235.32 14341.1 3240.25 14346 3240.25 14352.1Z" stroke="#4472C4" stroke-width="3.4375" stroke-linejoin="round" stroke-miterlimit="10" fill="#4472C4"/><path d="M3245.25 14338.1C3245.25 14344.2 3240.32 14349.1 3234.25 14349.1 3228.17 14349.1 3223.25 14344.2 3223.25 14338.1 3223.25 14332 3228.17 14327.1 3234.25 14327.1 3240.32 14327.1 3245.25 14332 3245.25 14338.1Z" stroke="#4472C4" stroke-width="3.4375" stroke-linejoin="round" stroke-miterlimit="10" fill="#4472C4"/><path d="M3251.25 14285.1C3251.25 14291.2 3246.32 14296.1 3240.25 14296.1 3234.17 14296.1 3229.25 14291.2 3229.25 14285.1 3229.25 14279 3234.17 14274.1 3240.25 14274.1 3246.32 14274.1 3251.25 14279 3251.25 14285.1Z" stroke="#4472C4" stroke-width="3.4375" stroke-linejoin="round" stroke-miterlimit="10" fill="#4472C4"/><path d="M3256.25 14324.1C3256.25 14330.2 3251.32 14335.1 3245.25 14335.1 3239.17 14335.1 3234.25 14330.2 3234.25 14324.1 3234.25 14318 3239.17 14313.1 3245.25 14313.1 3251.32 14313.1 3256.25 14318 3256.25 14324.1Z" stroke="#4472C4" stroke-width="3.4375" stroke-linejoin="round" stroke-miterlimit="10" fill="#4472C4"/><path d="M3262.25 14231.1C3262.25 14237.2 3257.32 14242.1 3251.25 14242.1 3245.17 14242.1 3240.25 14237.2 3240.25 14231.1 3240.25 14225 3245.17 14220.1 3251.25 14220.1 3257.32 14220.1 3262.25 14225 3262.25 14231.1Z" stroke="#4472C4" stroke-width="3.4375" stroke-linejoin="round" stroke-miterlimit="10" fill="#4472C4"/><path d="M3267.25 14320.1C3267.25 14326.2 3262.32 14331.1 3256.25 14331.1 3250.17 14331.1 3245.25 14326.2 3245.25 14320.1 3245.25 14314 3250.17 14309.1 3256.25 14309.1 3262.32 14309.1 3267.25 14314 3267.25 14320.1Z" stroke="#4472C4" stroke-width="3.4375" stroke-linejoin="round" stroke-miterlimit="10" fill="#4472C4"/><path d="M3273.25 14325.1C3273.25 14331.2 3268.32 14336.1 3262.25 14336.1 3256.17 14336.1 3251.25 14331.2 3251.25 14325.1 3251.25 14319 3256.17 14314.1 3262.25 14314.1 3268.32 14314.1 3273.25 14319 3273.25 14325.1Z" stroke="#4472C4" stroke-width="3.4375" stroke-linejoin="round" stroke-miterlimit="10" fill="#4472C4"/><path d="M3278.25 14281.1C3278.25 14287.2 3273.32 14292.1 3267.25 14292.1 3261.17 14292.1 3256.25 14287.2 3256.25 14281.1 3256.25 14275 3261.17 14270.1 3267.25 14270.1 3273.32 14270.1 3278.25 14275 3278.25 14281.1Z" stroke="#4472C4" stroke-width="3.4375" stroke-linejoin="round" stroke-miterlimit="10" fill="#4472C4"/><path d="M3284.25 14332.1C3284.25 14338.2 3279.32 14343.1 3273.25 14343.1 3267.17 14343.1 3262.25 14338.2 3262.25 14332.1 3262.25 14326 3267.17 14321.1 3273.25 14321.1 3279.32 14321.1 3284.25 14326 3284.25 14332.1Z" stroke="#4472C4" stroke-width="3.4375" stroke-linejoin="round" stroke-miterlimit="10" fill="#4472C4"/><path d="M3289.25 14292.1C3289.25 14298.2 3284.32 14303.1 3278.25 14303.1 3272.17 14303.1 3267.25 14298.2 3267.25 14292.1 3267.25 14286 3272.17 14281.1 3278.25 14281.1 3284.32 14281.1 3289.25 14286 3289.25 14292.1Z" stroke="#4472C4" stroke-width="3.4375" stroke-linejoin="round" stroke-miterlimit="10" fill="#4472C4"/><path d="M3295.25 14302.1C3295.25 14308.2 3290.32 14313.1 3284.25 14313.1 3278.17 14313.1 3273.25 14308.2 3273.25 14302.1 3273.25 14296 3278.17 14291.1 3284.25 14291.1 3290.32 14291.1 3295.25 14296 3295.25 14302.1Z" stroke="#4472C4" stroke-width="3.4375" stroke-linejoin="round" stroke-miterlimit="10" fill="#4472C4"/><path d="M3301.25 14293.1C3301.25 14299.2 3296.32 14304.1 3290.25 14304.1 3284.17 14304.1 3279.25 14299.2 3279.25 14293.1 3279.25 14287 3284.17 14282.1 3290.25 14282.1 3296.32 14282.1 3301.25 14287 3301.25 14293.1Z" stroke="#4472C4" stroke-width="3.4375" stroke-linejoin="round" stroke-miterlimit="10" fill="#4472C4"/><path d="M3306.25 14332.1C3306.25 14338.2 3301.32 14343.1 3295.25 14343.1 3289.17 14343.1 3284.25 14338.2 3284.25 14332.1 3284.25 14326 3289.17 14321.1 3295.25 14321.1 3301.32 14321.1 3306.25 14326 3306.25 14332.1Z" stroke="#4472C4" stroke-width="3.4375" stroke-linejoin="round" stroke-miterlimit="10" fill="#4472C4"/><path d="M3312.25 14296.1C3312.25 14302.2 3307.32 14307.1 3301.25 14307.1 3295.17 14307.1 3290.25 14302.2 3290.25 14296.1 3290.25 14290 3295.17 14285.1 3301.25 14285.1 3307.32 14285.1 3312.25 14290 3312.25 14296.1Z" stroke="#4472C4" stroke-width="3.4375" stroke-linejoin="round" stroke-miterlimit="10" fill="#4472C4"/><path d="M3317.25 14327.1C3317.25 14333.2 3312.32 14338.1 3306.25 14338.1 3300.17 14338.1 3295.25 14333.2 3295.25 14327.1 3295.25 14321 3300.17 14316.1 3306.25 14316.1 3312.32 14316.1 3317.25 14321 3317.25 14327.1Z" stroke="#4472C4" stroke-width="3.4375" stroke-linejoin="round" stroke-miterlimit="10" fill="#4472C4"/><path d="M3323.25 14364.1C3323.25 14370.2 3318.32 14375.1 3312.25 14375.1 3306.17 14375.1 3301.25 14370.2 3301.25 14364.1 3301.25 14358 3306.17 14353.1 3312.25 14353.1 3318.32 14353.1 3323.25 14358 3323.25 14364.1Z" stroke="#4472C4" stroke-width="3.4375" stroke-linejoin="round" stroke-miterlimit="10" fill="#4472C4"/><path d="M3328.25 14280.1C3328.25 14286.2 3323.32 14291.1 3317.25 14291.1 3311.17 14291.1 3306.25 14286.2 3306.25 14280.1 3306.25 14274 3311.17 14269.1 3317.25 14269.1 3323.32 14269.1 3328.25 14274 3328.25 14280.1Z" stroke="#4472C4" stroke-width="3.4375" stroke-linejoin="round" stroke-miterlimit="10" fill="#4472C4"/><path d="M3334.25 14319.1C3334.25 14325.2 3329.32 14330.1 3323.25 14330.1 3317.17 14330.1 3312.25 14325.2 3312.25 14319.1 3312.25 14313 3317.17 14308.1 3323.25 14308.1 3329.32 14308.1 3334.25 14313 3334.25 14319.1Z" stroke="#4472C4" stroke-width="3.4375" stroke-linejoin="round" stroke-miterlimit="10" fill="#4472C4"/><path d="M3339.25 14307.1C3339.25 14313.2 3334.32 14318.1 3328.25 14318.1 3322.17 14318.1 3317.25 14313.2 3317.25 14307.1 3317.25 14301 3322.17 14296.1 3328.25 14296.1 3334.32 14296.1 3339.25 14301 3339.25 14307.1Z" stroke="#4472C4" stroke-width="3.4375" stroke-linejoin="round" stroke-miterlimit="10" fill="#4472C4"/><path d="M3345.25 14357.1C3345.25 14363.2 3340.32 14368.1 3334.25 14368.1 3328.17 14368.1 3323.25 14363.2 3323.25 14357.1 3323.25 14351 3328.17 14346.1 3334.25 14346.1 3340.32 14346.1 3345.25 14351 3345.25 14357.1Z" stroke="#4472C4" stroke-width="3.4375" stroke-linejoin="round" stroke-miterlimit="10" fill="#4472C4"/><path d="M3350.25 14256.1C3350.25 14262.2 3345.32 14267.1 3339.25 14267.1 3333.17 14267.1 3328.25 14262.2 3328.25 14256.1 3328.25 14250 3333.17 14245.1 3339.25 14245.1 3345.32 14245.1 3350.25 14250 3350.25 14256.1Z" stroke="#4472C4" stroke-width="3.4375" stroke-linejoin="round" stroke-miterlimit="10" fill="#4472C4"/><path d="M3356.25 14296.1C3356.25 14302.2 3351.32 14307.1 3345.25 14307.1 3339.17 14307.1 3334.25 14302.2 3334.25 14296.1 3334.25 14290 3339.17 14285.1 3345.25 14285.1 3351.32 14285.1 3356.25 14290 3356.25 14296.1Z" stroke="#4472C4" stroke-width="3.4375" stroke-linejoin="round" stroke-miterlimit="10" fill="#4472C4"/><path d="M3361.25 14345.1C3361.25 14351.2 3356.32 14356.1 3350.25 14356.1 3344.17 14356.1 3339.25 14351.2 3339.25 14345.1 3339.25 14339 3344.17 14334.1 3350.25 14334.1 3356.32 14334.1 3361.25 14339 3361.25 14345.1Z" stroke="#4472C4" stroke-width="3.4375" stroke-linejoin="round" stroke-miterlimit="10" fill="#4472C4"/><path d="M3367.25 14281.1C3367.25 14287.2 3362.32 14292.1 3356.25 14292.1 3350.17 14292.1 3345.25 14287.2 3345.25 14281.1 3345.25 14275 3350.17 14270.1 3356.25 14270.1 3362.32 14270.1 3367.25 14275 3367.25 14281.1Z" stroke="#4472C4" stroke-width="3.4375" stroke-linejoin="round" stroke-miterlimit="10" fill="#4472C4"/><path d="M3372.25 14282.1C3372.25 14288.2 3367.32 14293.1 3361.25 14293.1 3355.17 14293.1 3350.25 14288.2 3350.25 14282.1 3350.25 14276 3355.17 14271.1 3361.25 14271.1 3367.32 14271.1 3372.25 14276 3372.25 14282.1Z" stroke="#4472C4" stroke-width="3.4375" stroke-linejoin="round" stroke-miterlimit="10" fill="#4472C4"/><path d="M3378.25 14291.1C3378.25 14297.2 3373.32 14302.1 3367.25 14302.1 3361.17 14302.1 3356.25 14297.2 3356.25 14291.1 3356.25 14285 3361.17 14280.1 3367.25 14280.1 3373.32 14280.1 3378.25 14285 3378.25 14291.1Z" stroke="#4472C4" stroke-width="3.4375" stroke-linejoin="round" stroke-miterlimit="10" fill="#4472C4"/><path d="M3383.25 14327.1C3383.25 14333.2 3378.32 14338.1 3372.25 14338.1 3366.17 14338.1 3361.25 14333.2 3361.25 14327.1 3361.25 14321 3366.17 14316.1 3372.25 14316.1 3378.32 14316.1 3383.25 14321 3383.25 14327.1Z" stroke="#4472C4" stroke-width="3.4375" stroke-linejoin="round" stroke-miterlimit="10" fill="#4472C4"/><path d="M3389.25 14387.1C3389.25 14393.2 3384.32 14398.1 3378.25 14398.1 3372.17 14398.1 3367.25 14393.2 3367.25 14387.1 3367.25 14381 3372.17 14376.1 3378.25 14376.1 3384.32 14376.1 3389.25 14381 3389.25 14387.1Z" stroke="#4472C4" stroke-width="3.4375" stroke-linejoin="round" stroke-miterlimit="10" fill="#4472C4"/><path d="M3394.25 14278.1C3394.25 14284.2 3389.32 14289.1 3383.25 14289.1 3377.17 14289.1 3372.25 14284.2 3372.25 14278.1 3372.25 14272 3377.17 14267.1 3383.25 14267.1 3389.32 14267.1 3394.25 14272 3394.25 14278.1Z" stroke="#4472C4" stroke-width="3.4375" stroke-linejoin="round" stroke-miterlimit="10" fill="#4472C4"/><path d="M3400.25 14345.1C3400.25 14351.2 3395.32 14356.1 3389.25 14356.1 3383.17 14356.1 3378.25 14351.2 3378.25 14345.1 3378.25 14339 3383.17 14334.1 3389.25 14334.1 3395.32 14334.1 3400.25 14339 3400.25 14345.1Z" stroke="#4472C4" stroke-width="3.4375" stroke-linejoin="round" stroke-miterlimit="10" fill="#4472C4"/><path d="M3405.25 14333.1C3405.25 14339.2 3400.32 14344.1 3394.25 14344.1 3388.17 14344.1 3383.25 14339.2 3383.25 14333.1 3383.25 14327 3388.17 14322.1 3394.25 14322.1 3400.32 14322.1 3405.25 14327 3405.25 14333.1Z" stroke="#4472C4" stroke-width="3.4375" stroke-linejoin="round" stroke-miterlimit="10" fill="#4472C4"/><path d="M3411.25 14298.1C3411.25 14304.2 3406.32 14309.1 3400.25 14309.1 3394.17 14309.1 3389.25 14304.2 3389.25 14298.1 3389.25 14292 3394.17 14287.1 3400.25 14287.1 3406.32 14287.1 3411.25 14292 3411.25 14298.1Z" stroke="#4472C4" stroke-width="3.4375" stroke-linejoin="round" stroke-miterlimit="10" fill="#4472C4"/><path d="M3416.25 14329.1C3416.25 14335.2 3411.32 14340.1 3405.25 14340.1 3399.17 14340.1 3394.25 14335.2 3394.25 14329.1 3394.25 14323 3399.17 14318.1 3405.25 14318.1 3411.32 14318.1 3416.25 14323 3416.25 14329.1Z" stroke="#4472C4" stroke-width="3.4375" stroke-linejoin="round" stroke-miterlimit="10" fill="#4472C4"/><path d="M3422.25 14332.1C3422.25 14338.2 3417.32 14343.1 3411.25 14343.1 3405.17 14343.1 3400.25 14338.2 3400.25 14332.1 3400.25 14326 3405.17 14321.1 3411.25 14321.1 3417.32 14321.1 3422.25 14326 3422.25 14332.1Z" stroke="#4472C4" stroke-width="3.4375" stroke-linejoin="round" stroke-miterlimit="10" fill="#4472C4"/><path d="M3428.25 14302.1C3428.25 14308.2 3423.32 14313.1 3417.25 14313.1 3411.17 14313.1 3406.25 14308.2 3406.25 14302.1 3406.25 14296 3411.17 14291.1 3417.25 14291.1 3423.32 14291.1 3428.25 14296 3428.25 14302.1Z" stroke="#4472C4" stroke-width="3.4375" stroke-linejoin="round" stroke-miterlimit="10" fill="#4472C4"/><path d="M3433.25 14338.1C3433.25 14344.2 3428.32 14349.1 3422.25 14349.1 3416.17 14349.1 3411.25 14344.2 3411.25 14338.1 3411.25 14332 3416.17 14327.1 3422.25 14327.1 3428.32 14327.1 3433.25 14332 3433.25 14338.1Z" stroke="#4472C4" stroke-width="3.4375" stroke-linejoin="round" stroke-miterlimit="10" fill="#4472C4"/><path d="M3439.25 14258.1C3439.25 14264.2 3434.32 14269.1 3428.25 14269.1 3422.17 14269.1 3417.25 14264.2 3417.25 14258.1 3417.25 14252 3422.17 14247.1 3428.25 14247.1 3434.32 14247.1 3439.25 14252 3439.25 14258.1Z" stroke="#4472C4" stroke-width="3.4375" stroke-linejoin="round" stroke-miterlimit="10" fill="#4472C4"/><path d="M3444.25 14289.1C3444.25 14295.2 3439.32 14300.1 3433.25 14300.1 3427.17 14300.1 3422.25 14295.2 3422.25 14289.1 3422.25 14283 3427.17 14278.1 3433.25 14278.1 3439.32 14278.1 3444.25 14283 3444.25 14289.1Z" stroke="#4472C4" stroke-width="3.4375" stroke-linejoin="round" stroke-miterlimit="10" fill="#4472C4"/><path d="M3450.25 14316.1C3450.25 14322.2 3445.32 14327.1 3439.25 14327.1 3433.17 14327.1 3428.25 14322.2 3428.25 14316.1 3428.25 14310 3433.17 14305.1 3439.25 14305.1 3445.32 14305.1 3450.25 14310 3450.25 14316.1Z" stroke="#4472C4" stroke-width="3.4375" stroke-linejoin="round" stroke-miterlimit="10" fill="#4472C4"/><path d="M3455.25 14316.1C3455.25 14322.2 3450.32 14327.1 3444.25 14327.1 3438.17 14327.1 3433.25 14322.2 3433.25 14316.1 3433.25 14310 3438.17 14305.1 3444.25 14305.1 3450.32 14305.1 3455.25 14310 3455.25 14316.1Z" stroke="#4472C4" stroke-width="3.4375" stroke-linejoin="round" stroke-miterlimit="10" fill="#4472C4"/></g><g clip-path="url(#clip10)"><path d="M0 0 1270 46.0001" stroke="#C00000" stroke-width="6.875" stroke-linecap="round" stroke-linejoin="round" stroke-miterlimit="10" stroke-dasharray="0 13.75" fill="none" fill-rule="evenodd" transform="matrix(1 0 0 -1 2174.5 14340.5)"/></g><g clip-path="url(#clip11)"><text fill="#595959" font-family="Calibri,Calibri_MSFontService,sans-serif" font-weight="400" font-size="41" transform="matrix(1 0 0 1 3212.92 14089)">y = 51,275x + 62406</text></g><g clip-path="url(#clip12)"><text fill="#595959" font-family="Calibri,Calibri_MSFontService,sans-serif" font-weight="400" font-size="41" transform="matrix(1 0 0 1 2019 14750)">-40000</text></g><g clip-path="url(#clip13)"><text fill="#595959" font-family="Calibri,Calibri_MSFontService,sans-serif" font-weight="400" font-size="41" transform="matrix(1 0 0 1 2019 14672)">-20000</text></g><g clip-path="url(#clip14)"><text fill="#595959" font-family="Calibri,Calibri_MSFontService,sans-serif" font-weight="400" font-size="41" transform="matrix(1 0 0 1 2115.23 14595)">0</text></g><g clip-path="url(#clip15)"><text fill="#595959" font-family="Calibri,Calibri_MSFontService,sans-serif" font-weight="400" font-size="41" transform="matrix(1 0 0 1 2031.63 14517)">20000</text></g><g clip-path="url(#clip16)"><text fill="#595959" font-family="Calibri,Calibri_MSFontService,sans-serif" font-weight="400" font-size="41" transform="matrix(1 0 0 1 2031.63 14439)">40000</text></g><g clip-path="url(#clip17)"><text fill="#595959" font-family="Calibri,Calibri_MSFontService,sans-serif" font-weight="400" font-size="41" transform="matrix(1 0 0 1 2031.63 14361)">60000</text></g><g clip-path="url(#clip18)"><text fill="#595959" font-family="Calibri,Calibri_MSFontService,sans-serif" font-weight="400" font-size="41" transform="matrix(1 0 0 1 2031.63 14283)">80000</text></g><g clip-path="url(#clip19)"><text fill="#595959" font-family="Calibri,Calibri_MSFontService,sans-serif" font-weight="400" font-size="41" transform="matrix(1 0 0 1 2010.73 14206)">100000</text></g><g clip-path="url(#clip20)"><text fill="#595959" font-family="Calibri,Calibri_MSFontService,sans-serif" font-weight="400" font-size="41" transform="matrix(1 0 0 1 2010.73 14128)">120000</text></g><g clip-path="url(#clip21)"><text fill="#595959" font-family="Calibri,Calibri_MSFontService,sans-serif" font-weight="400" font-size="41" transform="matrix(1 0 0 1 2010.73 14050)">140000</text></g><g clip-path="url(#clip22)"><text fill="#595959" font-family="Calibri,Calibri_MSFontService,sans-serif" font-weight="400" font-size="41" transform="matrix(1 0 0 1 2163.95 14648)">0</text></g><g clip-path="url(#clip23)"><text fill="#595959" font-family="Calibri,Calibri_MSFontService,sans-serif" font-weight="400" font-size="41" transform="matrix(1 0 0 1 2429.64 14648)">50</text></g><g clip-path="url(#clip24)"><text fill="#595959" font-family="Calibri,Calibri_MSFontService,sans-serif" font-weight="400" font-size="41" transform="matrix(1 0 0 1 2695.33 14648)">100</text></g><g clip-path="url(#clip25)"><text fill="#595959" font-family="Calibri,Calibri_MSFontService,sans-serif" font-weight="400" font-size="41" transform="matrix(1 0 0 1 2971.47 14648)">150</text></g><g clip-path="url(#clip26)"><text fill="#595959" font-family="Calibri,Calibri_MSFontService,sans-serif" font-weight="400" font-size="41" transform="matrix(1 0 0 1 3247.62 14648)">200</text></g><g clip-path="url(#clip27)"><text fill="#595959" font-family="Calibri,Calibri_MSFontService,sans-serif" font-weight="400" font-size="41" transform="matrix(1 0 0 1 3523.76 14648)">250</text></g><g clip-path="url(#clip28)"><text fill="#595959" font-family="Calibri,Calibri_MSFontService,sans-serif" font-weight="400" font-size="46" transform="matrix(6.12323e-17 -1 1 6.12323e-17 1985.04 14611)">Current Average Fitness</text></g><g clip-path="url(#clip29)"><text fill="#595959" font-family="Calibri,Calibri_MSFontService,sans-serif" font-weight="400" font-size="46" transform="matrix(1 0 0 1 2759.42 14789)">Generation</text></g><g clip-path="url(#clip30)"><text fill="#595959" font-family="Calibri,Calibri_MSFontService,sans-serif" font-weight="400" font-size="64" transform="matrix(1 0 0 1 2420.98 13964)">Average Fitness (RED Pop)</text></g><rect x="1884.5" y="13869.5" width="1753" height="990" stroke="#D9D9D9" stroke-width="3.4375" stroke-linejoin="round" stroke-miterlimit="10" fill="none"/></g></svg>