<svg width="1653" height="993" xmlns="http://www.w3.org/2000/svg" xmlns:xlink="http://www.w3.org/1999/xlink" overflow="hidden"><defs><clipPath id="clip0"><rect x="2326" y="14950" width="1653" height="993"/></clipPath><clipPath id="clip1"><rect x="2327" y="14951" width="1650" height="990"/></clipPath><clipPath id="clip2"><rect x="2327" y="14951" width="1650" height="990"/></clipPath><clipPath id="clip3"><rect x="2327" y="14951" width="1650" height="990"/></clipPath><clipPath id="clip4"><rect x="2327" y="14951" width="1650" height="990"/></clipPath><clipPath id="clip5"><rect x="2327" y="14951" width="1650" height="990"/></clipPath><clipPath id="clip6"><rect x="2327" y="14951" width="1650" height="990"/></clipPath><clipPath id="clip7"><rect x="2327" y="14951" width="1650" height="990"/></clipPath><clipPath id="clip8"><rect x="2327" y="14951" width="1650" height="990"/></clipPath><clipPath id="clip9"><rect x="2327" y="14951" width="1650" height="990"/></clipPath><clipPath id="clip10"><rect x="2617" y="15121" width="1278" height="616"/></clipPath><clipPath id="clip11"><rect x="2327" y="14951" width="1650" height="990"/></clipPath><clipPath id="clip12"><rect x="2327" y="14951" width="1650" height="990"/></clipPath><clipPath id="clip13"><rect x="2327" y="14951" width="1650" height="990"/></clipPath><clipPath id="clip14"><rect x="2327" y="14951" width="1650" height="990"/></clipPath><clipPath id="clip15"><rect x="2327" y="14951" width="1650" height="990"/></clipPath><clipPath id="clip16"><rect x="2327" y="14951" width="1650" height="990"/></clipPath><clipPath id="clip17"><rect x="2327" y="14951" width="1650" height="990"/></clipPath><clipPath id="clip18"><rect x="2327" y="14951" width="1650" height="990"/></clipPath><clipPath id="clip19"><rect x="2327" y="14951" width="1650" height="990"/></clipPath><clipPath id="clip20"><rect x="2327" y="14951" width="1650" height="990"/></clipPath><clipPath id="clip21"><rect x="2327" y="14951" width="1650" height="990"/></clipPath><clipPath id="clip22"><rect x="2327" y="14951" width="1650" height="990"/></clipPath><clipPath id="clip23"><rect x="2327" y="14951" width="1650" height="990"/></clipPath><clipPath id="clip24"><rect x="2327" y="14951" width="1650" height="990"/></clipPath><clipPath id="clip25"><rect x="2327" y="14951" width="1650" height="990"/></clipPath><clipPath id="clip26"><rect x="2327" y="14951" width="1650" height="990"/></clipPath><clipPath id="clip27"><rect x="2327" y="14951" width="1650" height="990"/></clipPath></defs><g clip-path="url(#clip0)" transform="translate(-2326 -14950)"><rect x="2327" y="14951" width="1650" height="990" fill="#FFFFFF"/><g clip-path="url(#clip1)"><path d="M2617.5 15717 3895.5 15717M2617.5 15697 3895.5 15697M2617.5 15676 3895.5 15676M2617.5 15656 3895.5 15656M2617.5 15615 3895.5 15615M2617.5 15594 3895.5 15594M2617.5 15573 3895.5 15573M2617.5 15553 3895.5 15553M2617.5 15512 3895.5 15512M2617.5 15491 3895.5 15491M2617.5 15471 3895.5 15471M2617.5 15450 3895.5 15450M2617.5 15409 3895.5 15409M2617.5 15389 3895.5 15389M2617.5 15368 3895.5 15368M2617.5 15347 3895.5 15347M2617.5 15306 3895.5 15306M2617.5 15286 3895.5 15286M2617.5 15265 3895.5 15265M2617.5 15245 3895.5 15245M2617.5 15204 3895.5 15204M2617.5 15183 3895.5 15183M2617.5 15163 3895.5 15163M2617.5 15142 3895.5 15142" stroke="#F2F2F2" stroke-width="3.4375" stroke-linejoin="round" stroke-miterlimit="10" fill="none"/></g><g clip-path="url(#clip2)"><path d="M2617.5 15635 3895.5 15635M2617.5 15532 3895.5 15532M2617.5 15430 3895.5 15430M2617.5 15327 3895.5 15327M2617.5 15224 3895.5 15224M2617.5 15121.5 3895.5 15121.5" stroke="#D9D9D9" stroke-width="3.4375" stroke-linejoin="round" stroke-miterlimit="10" fill="none"/></g><g clip-path="url(#clip3)"><path d="M2668.59 15121.5 2668.59 15737.5M2719.59 15121.5 2719.59 15737.5M2771.59 15121.5 2771.59 15737.5M2822.59 15121.5 2822.59 15737.5M2924.6 15121.5 2924.6 15737.5M2975.6 15121.5 2975.6 15737.5M3026.6 15121.5 3026.6 15737.5M3077.6 15121.5 3077.6 15737.5M3179.6 15121.5 3179.6 15737.5M3230.61 15121.5 3230.61 15737.5M3282.61 15121.5 3282.61 15737.5M3333.61 15121.5 3333.61 15737.5M3435.61 15121.5 3435.61 15737.5M3486.61 15121.5 3486.61 15737.5M3537.62 15121.5 3537.62 15737.5M3588.62 15121.5 3588.62 15737.5M3690.62 15121.5 3690.62 15737.5M3741.62 15121.5 3741.62 15737.5M3793.62 15121.5 3793.62 15737.5M3844.63 15121.5 3844.63 15737.5" stroke="#F2F2F2" stroke-width="3.4375" stroke-linejoin="round" stroke-miterlimit="10" fill="none"/></g><g clip-path="url(#clip4)"><path d="M2873.59 15121.5 2873.59 15737.5M3128.6 15121.5 3128.6 15737.5M3384.61 15121.5 3384.61 15737.5M3639.62 15121.5 3639.62 15737.5M3895.5 15121.5 3895.5 15737.5" stroke="#D9D9D9" stroke-width="3.4375" stroke-linejoin="round" stroke-miterlimit="10" fill="none"/></g><g clip-path="url(#clip5)"><path d="M0 0 0.000360892 616" stroke="#BFBFBF" stroke-width="3.4375" stroke-linejoin="round" stroke-miterlimit="10" fill="none" fill-rule="evenodd" transform="matrix(1 0 0 -1 2617.5 15737.5)"/></g><g clip-path="url(#clip6)"><path d="M2604.5 15737.5 2617.5 15737.5M2604.5 15635 2617.5 15635M2604.5 15532 2617.5 15532M2604.5 15430 2617.5 15430M2604.5 15327 2617.5 15327M2604.5 15224 2617.5 15224M2604.5 15121.5 2617.5 15121.5" stroke="#BFBFBF" stroke-width="3.4375" stroke-linejoin="round" stroke-miterlimit="10" fill="none"/></g><g clip-path="url(#clip7)"><path d="M2617.5 15737.5 3895.5 15737.5" stroke="#BFBFBF" stroke-width="3.4375" stroke-linejoin="round" stroke-miterlimit="10" fill="none" fill-rule="evenodd"/></g><g clip-path="url(#clip8)"><path d="M2617.5 15737.5 2617.5 15750.5M2873.59 15737.5 2873.59 15750.5M3128.6 15737.5 3128.6 15750.5M3384.61 15737.5 3384.61 15750.5M3639.62 15737.5 3639.62 15750.5M3895.5 15737.5 3895.5 15750.5" stroke="#BFBFBF" stroke-width="3.4375" stroke-linejoin="round" stroke-miterlimit="10" fill="none"/></g><g clip-path="url(#clip9)"><path d="M2628.69 15492.9C2628.69 15499 2623.76 15503.9 2617.69 15503.9 2611.61 15503.9 2606.69 15499 2606.69 15492.9 2606.69 15486.8 2611.61 15481.9 2617.69 15481.9 2623.76 15481.9 2628.69 15486.8 2628.69 15492.9Z" stroke="#4472C4" stroke-width="3.4375" stroke-linejoin="round" stroke-miterlimit="10" fill="#4472C4"/><path d="M2633.69 15490.9C2633.69 15497 2628.76 15501.9 2622.69 15501.9 2616.61 15501.9 2611.69 15497 2611.69 15490.9 2611.69 15484.8 2616.61 15479.9 2622.69 15479.9 2628.76 15479.9 2633.69 15484.8 2633.69 15490.9Z" stroke="#4472C4" stroke-width="3.4375" stroke-linejoin="round" stroke-miterlimit="10" fill="#4472C4"/><path d="M2639.69 15490.9C2639.69 15497 2634.76 15501.9 2628.69 15501.9 2622.61 15501.9 2617.69 15497 2617.69 15490.9 2617.69 15484.8 2622.61 15479.9 2628.69 15479.9 2634.76 15479.9 2639.69 15484.8 2639.69 15490.9Z" stroke="#4472C4" stroke-width="3.4375" stroke-linejoin="round" stroke-miterlimit="10" fill="#4472C4"/><path d="M2644.69 15489.9C2644.69 15496 2639.76 15500.9 2633.69 15500.9 2627.61 15500.9 2622.69 15496 2622.69 15489.9 2622.69 15483.8 2627.61 15478.9 2633.69 15478.9 2639.76 15478.9 2644.69 15483.8 2644.69 15489.9Z" stroke="#4472C4" stroke-width="3.4375" stroke-linejoin="round" stroke-miterlimit="10" fill="#4472C4"/><path d="M2649.69 15489.9C2649.69 15496 2644.76 15500.9 2638.69 15500.9 2632.61 15500.9 2627.69 15496 2627.69 15489.9 2627.69 15483.8 2632.61 15478.9 2638.69 15478.9 2644.76 15478.9 2649.69 15483.8 2649.69 15489.9Z" stroke="#4472C4" stroke-width="3.4375" stroke-linejoin="round" stroke-miterlimit="10" fill="#4472C4"/><path d="M2654.69 15489.9C2654.69 15496 2649.76 15500.9 2643.69 15500.9 2637.61 15500.9 2632.69 15496 2632.69 15489.9 2632.69 15483.8 2637.61 15478.9 2643.69 15478.9 2649.76 15478.9 2654.69 15483.8 2654.69 15489.9Z" stroke="#4472C4" stroke-width="3.4375" stroke-linejoin="round" stroke-miterlimit="10" fill="#4472C4"/><path d="M2659.69 15489.9C2659.69 15496 2654.76 15500.9 2648.69 15500.9 2642.61 15500.9 2637.69 15496 2637.69 15489.9 2637.69 15483.8 2642.61 15478.9 2648.69 15478.9 2654.76 15478.9 2659.69 15483.8 2659.69 15489.9Z" stroke="#4472C4" stroke-width="3.4375" stroke-linejoin="round" stroke-miterlimit="10" fill="#4472C4"/><path d="M2664.69 15488.9C2664.69 15495 2659.76 15499.9 2653.69 15499.9 2647.61 15499.9 2642.69 15495 2642.69 15488.9 2642.69 15482.8 2647.61 15477.9 2653.69 15477.9 2659.76 15477.9 2664.69 15482.8 2664.69 15488.9Z" stroke="#4472C4" stroke-width="3.4375" stroke-linejoin="round" stroke-miterlimit="10" fill="#4472C4"/><path d="M2669.69 15488.9C2669.69 15495 2664.76 15499.9 2658.69 15499.9 2652.61 15499.9 2647.69 15495 2647.69 15488.9 2647.69 15482.8 2652.61 15477.9 2658.69 15477.9 2664.76 15477.9 2669.69 15482.8 2669.69 15488.9Z" stroke="#4472C4" stroke-width="3.4375" stroke-linejoin="round" stroke-miterlimit="10" fill="#4472C4"/><path d="M2674.69 15466.9C2674.69 15473 2669.76 15477.9 2663.69 15477.9 2657.61 15477.9 2652.69 15473 2652.69 15466.9 2652.69 15460.8 2657.61 15455.9 2663.69 15455.9 2669.76 15455.9 2674.69 15460.8 2674.69 15466.9Z" stroke="#4472C4" stroke-width="3.4375" stroke-linejoin="round" stroke-miterlimit="10" fill="#4472C4"/><path d="M2679.69 15467.9C2679.69 15474 2674.76 15478.9 2668.69 15478.9 2662.61 15478.9 2657.69 15474 2657.69 15467.9 2657.69 15461.8 2662.61 15456.9 2668.69 15456.9 2674.76 15456.9 2679.69 15461.8 2679.69 15467.9Z" stroke="#4472C4" stroke-width="3.4375" stroke-linejoin="round" stroke-miterlimit="10" fill="#4472C4"/><path d="M2685.69 15466.9C2685.69 15473 2680.76 15477.9 2674.69 15477.9 2668.61 15477.9 2663.69 15473 2663.69 15466.9 2663.69 15460.8 2668.61 15455.9 2674.69 15455.9 2680.76 15455.9 2685.69 15460.8 2685.69 15466.9Z" stroke="#4472C4" stroke-width="3.4375" stroke-linejoin="round" stroke-miterlimit="10" fill="#4472C4"/><path d="M2690.69 15467.9C2690.69 15474 2685.76 15478.9 2679.69 15478.9 2673.61 15478.9 2668.69 15474 2668.69 15467.9 2668.69 15461.8 2673.61 15456.9 2679.69 15456.9 2685.76 15456.9 2690.69 15461.8 2690.69 15467.9Z" stroke="#4472C4" stroke-width="3.4375" stroke-linejoin="round" stroke-miterlimit="10" fill="#4472C4"/><path d="M2695.69 15465.9C2695.69 15472 2690.76 15476.9 2684.69 15476.9 2678.61 15476.9 2673.69 15472 2673.69 15465.9 2673.69 15459.8 2678.61 15454.9 2684.69 15454.9 2690.76 15454.9 2695.69 15459.8 2695.69 15465.9Z" stroke="#4472C4" stroke-width="3.4375" stroke-linejoin="round" stroke-miterlimit="10" fill="#4472C4"/><path d="M2700.69 15465.9C2700.69 15472 2695.76 15476.9 2689.69 15476.9 2683.61 15476.9 2678.69 15472 2678.69 15465.9 2678.69 15459.8 2683.61 15454.9 2689.69 15454.9 2695.76 15454.9 2700.69 15459.8 2700.69 15465.9Z" stroke="#4472C4" stroke-width="3.4375" stroke-linejoin="round" stroke-miterlimit="10" fill="#4472C4"/><path d="M2705.69 15466.9C2705.69 15473 2700.76 15477.9 2694.69 15477.9 2688.61 15477.9 2683.69 15473 2683.69 15466.9 2683.69 15460.8 2688.61 15455.9 2694.69 15455.9 2700.76 15455.9 2705.69 15460.8 2705.69 15466.9Z" stroke="#4472C4" stroke-width="3.4375" stroke-linejoin="round" stroke-miterlimit="10" fill="#4472C4"/><path d="M2710.69 15464.9C2710.69 15471 2705.76 15475.9 2699.69 15475.9 2693.61 15475.9 2688.69 15471 2688.69 15464.9 2688.69 15458.8 2693.61 15453.9 2699.69 15453.9 2705.76 15453.9 2710.69 15458.8 2710.69 15464.9Z" stroke="#4472C4" stroke-width="3.4375" stroke-linejoin="round" stroke-miterlimit="10" fill="#4472C4"/><path d="M2715.69 15465.9C2715.69 15472 2710.76 15476.9 2704.69 15476.9 2698.61 15476.9 2693.69 15472 2693.69 15465.9 2693.69 15459.8 2698.61 15454.9 2704.69 15454.9 2710.76 15454.9 2715.69 15459.8 2715.69 15465.9Z" stroke="#4472C4" stroke-width="3.4375" stroke-linejoin="round" stroke-miterlimit="10" fill="#4472C4"/><path d="M2720.69 15464.9C2720.69 15471 2715.76 15475.9 2709.69 15475.9 2703.61 15475.9 2698.69 15471 2698.69 15464.9 2698.69 15458.8 2703.61 15453.9 2709.69 15453.9 2715.76 15453.9 2720.69 15458.8 2720.69 15464.9Z" stroke="#4472C4" stroke-width="3.4375" stroke-linejoin="round" stroke-miterlimit="10" fill="#4472C4"/><path d="M2725.69 15464.9C2725.69 15471 2720.76 15475.9 2714.69 15475.9 2708.61 15475.9 2703.69 15471 2703.69 15464.9 2703.69 15458.8 2708.61 15453.9 2714.69 15453.9 2720.76 15453.9 2725.69 15458.8 2725.69 15464.9Z" stroke="#4472C4" stroke-width="3.4375" stroke-linejoin="round" stroke-miterlimit="10" fill="#4472C4"/><path d="M2731.69 15465.9C2731.69 15472 2726.76 15476.9 2720.69 15476.9 2714.61 15476.9 2709.69 15472 2709.69 15465.9 2709.69 15459.8 2714.61 15454.9 2720.69 15454.9 2726.76 15454.9 2731.69 15459.8 2731.69 15465.9Z" stroke="#4472C4" stroke-width="3.4375" stroke-linejoin="round" stroke-miterlimit="10" fill="#4472C4"/><path d="M2736.69 15465.9C2736.69 15472 2731.76 15476.9 2725.69 15476.9 2719.61 15476.9 2714.69 15472 2714.69 15465.9 2714.69 15459.8 2719.61 15454.9 2725.69 15454.9 2731.76 15454.9 2736.69 15459.8 2736.69 15465.9Z" stroke="#4472C4" stroke-width="3.4375" stroke-linejoin="round" stroke-miterlimit="10" fill="#4472C4"/><path d="M2741.69 15465.9C2741.69 15472 2736.76 15476.9 2730.69 15476.9 2724.61 15476.9 2719.69 15472 2719.69 15465.9 2719.69 15459.8 2724.61 15454.9 2730.69 15454.9 2736.76 15454.9 2741.69 15459.8 2741.69 15465.9Z" stroke="#4472C4" stroke-width="3.4375" stroke-linejoin="round" stroke-miterlimit="10" fill="#4472C4"/><path d="M2746.69 15465.9C2746.69 15472 2741.76 15476.9 2735.69 15476.9 2729.61 15476.9 2724.69 15472 2724.69 15465.9 2724.69 15459.8 2729.61 15454.9 2735.69 15454.9 2741.76 15454.9 2746.69 15459.8 2746.69 15465.9Z" stroke="#4472C4" stroke-width="3.4375" stroke-linejoin="round" stroke-miterlimit="10" fill="#4472C4"/><path d="M2751.69 15465.9C2751.69 15472 2746.76 15476.9 2740.69 15476.9 2734.61 15476.9 2729.69 15472 2729.69 15465.9 2729.69 15459.8 2734.61 15454.9 2740.69 15454.9 2746.76 15454.9 2751.69 15459.8 2751.69 15465.9Z" stroke="#4472C4" stroke-width="3.4375" stroke-linejoin="round" stroke-miterlimit="10" fill="#4472C4"/><path d="M2756.69 15465.9C2756.69 15472 2751.76 15476.9 2745.69 15476.9 2739.61 15476.9 2734.69 15472 2734.69 15465.9 2734.69 15459.8 2739.61 15454.9 2745.69 15454.9 2751.76 15454.9 2756.69 15459.8 2756.69 15465.9Z" stroke="#4472C4" stroke-width="3.4375" stroke-linejoin="round" stroke-miterlimit="10" fill="#4472C4"/><path d="M2761.69 15465.9C2761.69 15472 2756.76 15476.9 2750.69 15476.9 2744.61 15476.9 2739.69 15472 2739.69 15465.9 2739.69 15459.8 2744.61 15454.9 2750.69 15454.9 2756.76 15454.9 2761.69 15459.8 2761.69 15465.9Z" stroke="#4472C4" stroke-width="3.4375" stroke-linejoin="round" stroke-miterlimit="10" fill="#4472C4"/><path d="M2766.69 15464.9C2766.69 15471 2761.76 15475.9 2755.69 15475.9 2749.61 15475.9 2744.69 15471 2744.69 15464.9 2744.69 15458.8 2749.61 15453.9 2755.69 15453.9 2761.76 15453.9 2766.69 15458.8 2766.69 15464.9Z" stroke="#4472C4" stroke-width="3.4375" stroke-linejoin="round" stroke-miterlimit="10" fill="#4472C4"/><path d="M2771.69 15464.9C2771.69 15471 2766.76 15475.9 2760.69 15475.9 2754.61 15475.9 2749.69 15471 2749.69 15464.9 2749.69 15458.8 2754.61 15453.9 2760.69 15453.9 2766.76 15453.9 2771.69 15458.8 2771.69 15464.9Z" stroke="#4472C4" stroke-width="3.4375" stroke-linejoin="round" stroke-miterlimit="10" fill="#4472C4"/><path d="M2777.69 15464.9C2777.69 15471 2772.76 15475.9 2766.69 15475.9 2760.61 15475.9 2755.69 15471 2755.69 15464.9 2755.69 15458.8 2760.61 15453.9 2766.69 15453.9 2772.76 15453.9 2777.69 15458.8 2777.69 15464.9Z" stroke="#4472C4" stroke-width="3.4375" stroke-linejoin="round" stroke-miterlimit="10" fill="#4472C4"/><path d="M2782.69 15464.9C2782.69 15471 2777.76 15475.9 2771.69 15475.9 2765.61 15475.9 2760.69 15471 2760.69 15464.9 2760.69 15458.8 2765.61 15453.9 2771.69 15453.9 2777.76 15453.9 2782.69 15458.8 2782.69 15464.9Z" stroke="#4472C4" stroke-width="3.4375" stroke-linejoin="round" stroke-miterlimit="10" fill="#4472C4"/><path d="M2787.69 15464.9C2787.69 15471 2782.76 15475.9 2776.69 15475.9 2770.61 15475.9 2765.69 15471 2765.69 15464.9 2765.69 15458.8 2770.61 15453.9 2776.69 15453.9 2782.76 15453.9 2787.69 15458.8 2787.69 15464.9Z" stroke="#4472C4" stroke-width="3.4375" stroke-linejoin="round" stroke-miterlimit="10" fill="#4472C4"/><path d="M2792.69 15465.9C2792.69 15472 2787.76 15476.9 2781.69 15476.9 2775.61 15476.9 2770.69 15472 2770.69 15465.9 2770.69 15459.8 2775.61 15454.9 2781.69 15454.9 2787.76 15454.9 2792.69 15459.8 2792.69 15465.9Z" stroke="#4472C4" stroke-width="3.4375" stroke-linejoin="round" stroke-miterlimit="10" fill="#4472C4"/><path d="M2797.69 15464.9C2797.69 15471 2792.76 15475.9 2786.69 15475.9 2780.61 15475.9 2775.69 15471 2775.69 15464.9 2775.69 15458.8 2780.61 15453.9 2786.69 15453.9 2792.76 15453.9 2797.69 15458.8 2797.69 15464.9Z" stroke="#4472C4" stroke-width="3.4375" stroke-linejoin="round" stroke-miterlimit="10" fill="#4472C4"/><path d="M2802.69 15465.9C2802.69 15472 2797.76 15476.9 2791.69 15476.9 2785.61 15476.9 2780.69 15472 2780.69 15465.9 2780.69 15459.8 2785.61 15454.9 2791.69 15454.9 2797.76 15454.9 2802.69 15459.8 2802.69 15465.9Z" stroke="#4472C4" stroke-width="3.4375" stroke-linejoin="round" stroke-miterlimit="10" fill="#4472C4"/><path d="M2807.69 15464.9C2807.69 15471 2802.76 15475.9 2796.69 15475.9 2790.61 15475.9 2785.69 15471 2785.69 15464.9 2785.69 15458.8 2790.61 15453.9 2796.69 15453.9 2802.76 15453.9 2807.69 15458.8 2807.69 15464.9Z" stroke="#4472C4" stroke-width="3.4375" stroke-linejoin="round" stroke-miterlimit="10" fill="#4472C4"/><path d="M2812.69 15464.9C2812.69 15471 2807.76 15475.9 2801.69 15475.9 2795.61 15475.9 2790.69 15471 2790.69 15464.9 2790.69 15458.8 2795.61 15453.9 2801.69 15453.9 2807.76 15453.9 2812.69 15458.8 2812.69 15464.9Z" stroke="#4472C4" stroke-width="3.4375" stroke-linejoin="round" stroke-miterlimit="10" fill="#4472C4"/><path d="M2817.69 15464.9C2817.69 15471 2812.76 15475.9 2806.69 15475.9 2800.61 15475.9 2795.69 15471 2795.69 15464.9 2795.69 15458.8 2800.61 15453.9 2806.69 15453.9 2812.76 15453.9 2817.69 15458.8 2817.69 15464.9Z" stroke="#4472C4" stroke-width="3.4375" stroke-linejoin="round" stroke-miterlimit="10" fill="#4472C4"/><path d="M2823.69 15464.9C2823.69 15471 2818.76 15475.9 2812.69 15475.9 2806.61 15475.9 2801.69 15471 2801.69 15464.9 2801.69 15458.8 2806.61 15453.9 2812.69 15453.9 2818.76 15453.9 2823.69 15458.8 2823.69 15464.9Z" stroke="#4472C4" stroke-width="3.4375" stroke-linejoin="round" stroke-miterlimit="10" fill="#4472C4"/><path d="M2828.69 15464.9C2828.69 15471 2823.76 15475.9 2817.69 15475.9 2811.61 15475.9 2806.69 15471 2806.69 15464.9 2806.69 15458.8 2811.61 15453.9 2817.69 15453.9 2823.76 15453.9 2828.69 15458.8 2828.69 15464.9Z" stroke="#4472C4" stroke-width="3.4375" stroke-linejoin="round" stroke-miterlimit="10" fill="#4472C4"/><path d="M2833.69 15465.9C2833.69 15472 2828.76 15476.9 2822.69 15476.9 2816.61 15476.9 2811.69 15472 2811.69 15465.9 2811.69 15459.8 2816.61 15454.9 2822.69 15454.9 2828.76 15454.9 2833.69 15459.8 2833.69 15465.9Z" stroke="#4472C4" stroke-width="3.4375" stroke-linejoin="round" stroke-miterlimit="10" fill="#4472C4"/><path d="M2838.69 15464.9C2838.69 15471 2833.76 15475.9 2827.69 15475.9 2821.61 15475.9 2816.69 15471 2816.69 15464.9 2816.69 15458.8 2821.61 15453.9 2827.69 15453.9 2833.76 15453.9 2838.69 15458.8 2838.69 15464.9Z" stroke="#4472C4" stroke-width="3.4375" stroke-linejoin="round" stroke-miterlimit="10" fill="#4472C4"/><path d="M2843.69 15465.9C2843.69 15472 2838.76 15476.9 2832.69 15476.9 2826.61 15476.9 2821.69 15472 2821.69 15465.9 2821.69 15459.8 2826.61 15454.9 2832.69 15454.9 2838.76 15454.9 2843.69 15459.8 2843.69 15465.9Z" stroke="#4472C4" stroke-width="3.4375" stroke-linejoin="round" stroke-miterlimit="10" fill="#4472C4"/><path d="M2848.69 15464.9C2848.69 15471 2843.76 15475.9 2837.69 15475.9 2831.61 15475.9 2826.69 15471 2826.69 15464.9 2826.69 15458.8 2831.61 15453.9 2837.69 15453.9 2843.76 15453.9 2848.69 15458.8 2848.69 15464.9Z" stroke="#4472C4" stroke-width="3.4375" stroke-linejoin="round" stroke-miterlimit="10" fill="#4472C4"/><path d="M2853.69 15465.9C2853.69 15472 2848.76 15476.9 2842.69 15476.9 2836.61 15476.9 2831.69 15472 2831.69 15465.9 2831.69 15459.8 2836.61 15454.9 2842.69 15454.9 2848.76 15454.9 2853.69 15459.8 2853.69 15465.9Z" stroke="#4472C4" stroke-width="3.4375" stroke-linejoin="round" stroke-miterlimit="10" fill="#4472C4"/><path d="M2858.69 15464.9C2858.69 15471 2853.76 15475.9 2847.69 15475.9 2841.61 15475.9 2836.69 15471 2836.69 15464.9 2836.69 15458.8 2841.61 15453.9 2847.69 15453.9 2853.76 15453.9 2858.69 15458.8 2858.69 15464.9Z" stroke="#4472C4" stroke-width="3.4375" stroke-linejoin="round" stroke-miterlimit="10" fill="#4472C4"/><path d="M2863.69 15464.9C2863.69 15471 2858.76 15475.9 2852.69 15475.9 2846.61 15475.9 2841.69 15471 2841.69 15464.9 2841.69 15458.8 2846.61 15453.9 2852.69 15453.9 2858.76 15453.9 2863.69 15458.8 2863.69 15464.9Z" stroke="#4472C4" stroke-width="3.4375" stroke-linejoin="round" stroke-miterlimit="10" fill="#4472C4"/><path d="M2869.69 15463.9C2869.69 15470 2864.76 15474.9 2858.69 15474.9 2852.61 15474.9 2847.69 15470 2847.69 15463.9 2847.69 15457.8 2852.61 15452.9 2858.69 15452.9 2864.76 15452.9 2869.69 15457.8 2869.69 15463.9Z" stroke="#4472C4" stroke-width="3.4375" stroke-linejoin="round" stroke-miterlimit="10" fill="#4472C4"/><path d="M2874.69 15464.9C2874.69 15471 2869.76 15475.9 2863.69 15475.9 2857.61 15475.9 2852.69 15471 2852.69 15464.9 2852.69 15458.8 2857.61 15453.9 2863.69 15453.9 2869.76 15453.9 2874.69 15458.8 2874.69 15464.9Z" stroke="#4472C4" stroke-width="3.4375" stroke-linejoin="round" stroke-miterlimit="10" fill="#4472C4"/><path d="M2879.69 15464.9C2879.69 15471 2874.76 15475.9 2868.69 15475.9 2862.61 15475.9 2857.69 15471 2857.69 15464.9 2857.69 15458.8 2862.61 15453.9 2868.69 15453.9 2874.76 15453.9 2879.69 15458.8 2879.69 15464.9Z" stroke="#4472C4" stroke-width="3.4375" stroke-linejoin="round" stroke-miterlimit="10" fill="#4472C4"/><path d="M2884.69 15464.9C2884.69 15471 2879.76 15475.9 2873.69 15475.9 2867.61 15475.9 2862.69 15471 2862.69 15464.9 2862.69 15458.8 2867.61 15453.9 2873.69 15453.9 2879.76 15453.9 2884.69 15458.8 2884.69 15464.9Z" stroke="#4472C4" stroke-width="3.4375" stroke-linejoin="round" stroke-miterlimit="10" fill="#4472C4"/><path d="M2889.69 15463.9C2889.69 15470 2884.76 15474.9 2878.69 15474.9 2872.61 15474.9 2867.69 15470 2867.69 15463.9 2867.69 15457.8 2872.61 15452.9 2878.69 15452.9 2884.76 15452.9 2889.69 15457.8 2889.69 15463.9Z" stroke="#4472C4" stroke-width="3.4375" stroke-linejoin="round" stroke-miterlimit="10" fill="#4472C4"/><path d="M2894.69 15465.9C2894.69 15472 2889.76 15476.9 2883.69 15476.9 2877.61 15476.9 2872.69 15472 2872.69 15465.9 2872.69 15459.8 2877.61 15454.9 2883.69 15454.9 2889.76 15454.9 2894.69 15459.8 2894.69 15465.9Z" stroke="#4472C4" stroke-width="3.4375" stroke-linejoin="round" stroke-miterlimit="10" fill="#4472C4"/><path d="M2899.69 15464.9C2899.69 15471 2894.76 15475.9 2888.69 15475.9 2882.61 15475.9 2877.69 15471 2877.69 15464.9 2877.69 15458.8 2882.61 15453.9 2888.69 15453.9 2894.76 15453.9 2899.69 15458.8 2899.69 15464.9Z" stroke="#4472C4" stroke-width="3.4375" stroke-linejoin="round" stroke-miterlimit="10" fill="#4472C4"/><path d="M2904.69 15465.9C2904.69 15472 2899.76 15476.9 2893.69 15476.9 2887.61 15476.9 2882.69 15472 2882.69 15465.9 2882.69 15459.8 2887.61 15454.9 2893.69 15454.9 2899.76 15454.9 2904.69 15459.8 2904.69 15465.9Z" stroke="#4472C4" stroke-width="3.4375" stroke-linejoin="round" stroke-miterlimit="10" fill="#4472C4"/><path d="M2909.69 15465.9C2909.69 15472 2904.76 15476.9 2898.69 15476.9 2892.61 15476.9 2887.69 15472 2887.69 15465.9 2887.69 15459.8 2892.61 15454.9 2898.69 15454.9 2904.76 15454.9 2909.69 15459.8 2909.69 15465.9Z" stroke="#4472C4" stroke-width="3.4375" stroke-linejoin="round" stroke-miterlimit="10" fill="#4472C4"/><path d="M2915.69 15465.9C2915.69 15472 2910.76 15476.9 2904.69 15476.9 2898.61 15476.9 2893.69 15472 2893.69 15465.9 2893.69 15459.8 2898.61 15454.9 2904.69 15454.9 2910.76 15454.9 2915.69 15459.8 2915.69 15465.9Z" stroke="#4472C4" stroke-width="3.4375" stroke-linejoin="round" stroke-miterlimit="10" fill="#4472C4"/><path d="M2920.69 15464.9C2920.69 15471 2915.76 15475.9 2909.69 15475.9 2903.61 15475.9 2898.69 15471 2898.69 15464.9 2898.69 15458.8 2903.61 15453.9 2909.69 15453.9 2915.76 15453.9 2920.69 15458.8 2920.69 15464.9Z" stroke="#4472C4" stroke-width="3.4375" stroke-linejoin="round" stroke-miterlimit="10" fill="#4472C4"/><path d="M2925.69 15465.9C2925.69 15472 2920.76 15476.9 2914.69 15476.9 2908.61 15476.9 2903.69 15472 2903.69 15465.9 2903.69 15459.8 2908.61 15454.9 2914.69 15454.9 2920.76 15454.9 2925.69 15459.8 2925.69 15465.9Z" stroke="#4472C4" stroke-width="3.4375" stroke-linejoin="round" stroke-miterlimit="10" fill="#4472C4"/><path d="M2930.69 15465.9C2930.69 15472 2925.76 15476.9 2919.69 15476.9 2913.61 15476.9 2908.69 15472 2908.69 15465.9 2908.69 15459.8 2913.61 15454.9 2919.69 15454.9 2925.76 15454.9 2930.69 15459.8 2930.69 15465.9Z" stroke="#4472C4" stroke-width="3.4375" stroke-linejoin="round" stroke-miterlimit="10" fill="#4472C4"/><path d="M2935.69 15463.9C2935.69 15470 2930.76 15474.9 2924.69 15474.9 2918.61 15474.9 2913.69 15470 2913.69 15463.9 2913.69 15457.8 2918.61 15452.9 2924.69 15452.9 2930.76 15452.9 2935.69 15457.8 2935.69 15463.9Z" stroke="#4472C4" stroke-width="3.4375" stroke-linejoin="round" stroke-miterlimit="10" fill="#4472C4"/><path d="M2940.69 15463.9C2940.69 15470 2935.76 15474.9 2929.69 15474.9 2923.61 15474.9 2918.69 15470 2918.69 15463.9 2918.69 15457.8 2923.61 15452.9 2929.69 15452.9 2935.76 15452.9 2940.69 15457.8 2940.69 15463.9Z" stroke="#4472C4" stroke-width="3.4375" stroke-linejoin="round" stroke-miterlimit="10" fill="#4472C4"/><path d="M2945.69 15464.9C2945.69 15471 2940.76 15475.9 2934.69 15475.9 2928.61 15475.9 2923.69 15471 2923.69 15464.9 2923.69 15458.8 2928.61 15453.9 2934.69 15453.9 2940.76 15453.9 2945.69 15458.8 2945.69 15464.9Z" stroke="#4472C4" stroke-width="3.4375" stroke-linejoin="round" stroke-miterlimit="10" fill="#4472C4"/><path d="M2950.69 15464.9C2950.69 15471 2945.76 15475.9 2939.69 15475.9 2933.61 15475.9 2928.69 15471 2928.69 15464.9 2928.69 15458.8 2933.61 15453.9 2939.69 15453.9 2945.76 15453.9 2950.69 15458.8 2950.69 15464.9Z" stroke="#4472C4" stroke-width="3.4375" stroke-linejoin="round" stroke-miterlimit="10" fill="#4472C4"/><path d="M2955.69 15464.9C2955.69 15471 2950.76 15475.9 2944.69 15475.9 2938.61 15475.9 2933.69 15471 2933.69 15464.9 2933.69 15458.8 2938.61 15453.9 2944.69 15453.9 2950.76 15453.9 2955.69 15458.8 2955.69 15464.9Z" stroke="#4472C4" stroke-width="3.4375" stroke-linejoin="round" stroke-miterlimit="10" fill="#4472C4"/><path d="M2961.69 15463.9C2961.69 15470 2956.76 15474.9 2950.69 15474.9 2944.61 15474.9 2939.69 15470 2939.69 15463.9 2939.69 15457.8 2944.61 15452.9 2950.69 15452.9 2956.76 15452.9 2961.69 15457.8 2961.69 15463.9Z" stroke="#4472C4" stroke-width="3.4375" stroke-linejoin="round" stroke-miterlimit="10" fill="#4472C4"/><path d="M2966.69 15464.9C2966.69 15471 2961.76 15475.9 2955.69 15475.9 2949.61 15475.9 2944.69 15471 2944.69 15464.9 2944.69 15458.8 2949.61 15453.9 2955.69 15453.9 2961.76 15453.9 2966.69 15458.8 2966.69 15464.9Z" stroke="#4472C4" stroke-width="3.4375" stroke-linejoin="round" stroke-miterlimit="10" fill="#4472C4"/><path d="M2971.69 15463.9C2971.69 15470 2966.76 15474.9 2960.69 15474.9 2954.61 15474.9 2949.69 15470 2949.69 15463.9 2949.69 15457.8 2954.61 15452.9 2960.69 15452.9 2966.76 15452.9 2971.69 15457.8 2971.69 15463.9Z" stroke="#4472C4" stroke-width="3.4375" stroke-linejoin="round" stroke-miterlimit="10" fill="#4472C4"/><path d="M2976.69 15464.9C2976.69 15471 2971.76 15475.9 2965.69 15475.9 2959.61 15475.9 2954.69 15471 2954.69 15464.9 2954.69 15458.8 2959.61 15453.9 2965.69 15453.9 2971.76 15453.9 2976.69 15458.8 2976.69 15464.9Z" stroke="#4472C4" stroke-width="3.4375" stroke-linejoin="round" stroke-miterlimit="10" fill="#4472C4"/><path d="M2981.69 15464.9C2981.69 15471 2976.76 15475.9 2970.69 15475.9 2964.61 15475.9 2959.69 15471 2959.69 15464.9 2959.69 15458.8 2964.61 15453.9 2970.69 15453.9 2976.76 15453.9 2981.69 15458.8 2981.69 15464.9Z" stroke="#4472C4" stroke-width="3.4375" stroke-linejoin="round" stroke-miterlimit="10" fill="#4472C4"/><path d="M2986.69 15464.9C2986.69 15471 2981.76 15475.9 2975.69 15475.9 2969.61 15475.9 2964.69 15471 2964.69 15464.9 2964.69 15458.8 2969.61 15453.9 2975.69 15453.9 2981.76 15453.9 2986.69 15458.8 2986.69 15464.9Z" stroke="#4472C4" stroke-width="3.4375" stroke-linejoin="round" stroke-miterlimit="10" fill="#4472C4"/><path d="M2991.69 15465.9C2991.69 15472 2986.76 15476.9 2980.69 15476.9 2974.61 15476.9 2969.69 15472 2969.69 15465.9 2969.69 15459.8 2974.61 15454.9 2980.69 15454.9 2986.76 15454.9 2991.69 15459.8 2991.69 15465.9Z" stroke="#4472C4" stroke-width="3.4375" stroke-linejoin="round" stroke-miterlimit="10" fill="#4472C4"/><path d="M2996.69 15463.9C2996.69 15470 2991.76 15474.9 2985.69 15474.9 2979.61 15474.9 2974.69 15470 2974.69 15463.9 2974.69 15457.8 2979.61 15452.9 2985.69 15452.9 2991.76 15452.9 2996.69 15457.8 2996.69 15463.9Z" stroke="#4472C4" stroke-width="3.4375" stroke-linejoin="round" stroke-miterlimit="10" fill="#4472C4"/><path d="M3001.69 15464.9C3001.69 15471 2996.76 15475.9 2990.69 15475.9 2984.61 15475.9 2979.69 15471 2979.69 15464.9 2979.69 15458.8 2984.61 15453.9 2990.69 15453.9 2996.76 15453.9 3001.69 15458.8 3001.69 15464.9Z" stroke="#4472C4" stroke-width="3.4375" stroke-linejoin="round" stroke-miterlimit="10" fill="#4472C4"/><path d="M3007.69 15463.9C3007.69 15470 3002.76 15474.9 2996.69 15474.9 2990.61 15474.9 2985.69 15470 2985.69 15463.9 2985.69 15457.8 2990.61 15452.9 2996.69 15452.9 3002.76 15452.9 3007.69 15457.8 3007.69 15463.9Z" stroke="#4472C4" stroke-width="3.4375" stroke-linejoin="round" stroke-miterlimit="10" fill="#4472C4"/><path d="M3012.69 15463.9C3012.69 15470 3007.76 15474.9 3001.69 15474.9 2995.61 15474.9 2990.69 15470 2990.69 15463.9 2990.69 15457.8 2995.61 15452.9 3001.69 15452.9 3007.76 15452.9 3012.69 15457.8 3012.69 15463.9Z" stroke="#4472C4" stroke-width="3.4375" stroke-linejoin="round" stroke-miterlimit="10" fill="#4472C4"/><path d="M3017.69 15463.9C3017.69 15470 3012.76 15474.9 3006.69 15474.9 3000.61 15474.9 2995.69 15470 2995.69 15463.9 2995.69 15457.8 3000.61 15452.9 3006.69 15452.9 3012.76 15452.9 3017.69 15457.8 3017.69 15463.9Z" stroke="#4472C4" stroke-width="3.4375" stroke-linejoin="round" stroke-miterlimit="10" fill="#4472C4"/><path d="M3022.69 15464.9C3022.69 15471 3017.76 15475.9 3011.69 15475.9 3005.61 15475.9 3000.69 15471 3000.69 15464.9 3000.69 15458.8 3005.61 15453.9 3011.69 15453.9 3017.76 15453.9 3022.69 15458.8 3022.69 15464.9Z" stroke="#4472C4" stroke-width="3.4375" stroke-linejoin="round" stroke-miterlimit="10" fill="#4472C4"/><path d="M3027.69 15463.9C3027.69 15470 3022.76 15474.9 3016.69 15474.9 3010.61 15474.9 3005.69 15470 3005.69 15463.9 3005.69 15457.8 3010.61 15452.9 3016.69 15452.9 3022.76 15452.9 3027.69 15457.8 3027.69 15463.9Z" stroke="#4472C4" stroke-width="3.4375" stroke-linejoin="round" stroke-miterlimit="10" fill="#4472C4"/><path d="M3032.69 15463.9C3032.69 15470 3027.76 15474.9 3021.69 15474.9 3015.61 15474.9 3010.69 15470 3010.69 15463.9 3010.69 15457.8 3015.61 15452.9 3021.69 15452.9 3027.76 15452.9 3032.69 15457.8 3032.69 15463.9Z" stroke="#4472C4" stroke-width="3.4375" stroke-linejoin="round" stroke-miterlimit="10" fill="#4472C4"/><path d="M3037.69 15464.9C3037.69 15471 3032.76 15475.9 3026.69 15475.9 3020.61 15475.9 3015.69 15471 3015.69 15464.9 3015.69 15458.8 3020.61 15453.9 3026.69 15453.9 3032.76 15453.9 3037.69 15458.8 3037.69 15464.9Z" stroke="#4472C4" stroke-width="3.4375" stroke-linejoin="round" stroke-miterlimit="10" fill="#4472C4"/><path d="M3042.69 15464.9C3042.69 15471 3037.76 15475.9 3031.69 15475.9 3025.61 15475.9 3020.69 15471 3020.69 15464.9 3020.69 15458.8 3025.61 15453.9 3031.69 15453.9 3037.76 15453.9 3042.69 15458.8 3042.69 15464.9Z" stroke="#4472C4" stroke-width="3.4375" stroke-linejoin="round" stroke-miterlimit="10" fill="#4472C4"/><path d="M3047.69 15464.9C3047.69 15471 3042.76 15475.9 3036.69 15475.9 3030.61 15475.9 3025.69 15471 3025.69 15464.9 3025.69 15458.8 3030.61 15453.9 3036.69 15453.9 3042.76 15453.9 3047.69 15458.8 3047.69 15464.9Z" stroke="#4472C4" stroke-width="3.4375" stroke-linejoin="round" stroke-miterlimit="10" fill="#4472C4"/><path d="M3052.69 15464.9C3052.69 15471 3047.76 15475.9 3041.69 15475.9 3035.61 15475.9 3030.69 15471 3030.69 15464.9 3030.69 15458.8 3035.61 15453.9 3041.69 15453.9 3047.76 15453.9 3052.69 15458.8 3052.69 15464.9Z" stroke="#4472C4" stroke-width="3.4375" stroke-linejoin="round" stroke-miterlimit="10" fill="#4472C4"/><path d="M3058.69 15463.9C3058.69 15470 3053.76 15474.9 3047.69 15474.9 3041.61 15474.9 3036.69 15470 3036.69 15463.9 3036.69 15457.8 3041.61 15452.9 3047.69 15452.9 3053.76 15452.9 3058.69 15457.8 3058.69 15463.9Z" stroke="#4472C4" stroke-width="3.4375" stroke-linejoin="round" stroke-miterlimit="10" fill="#4472C4"/><path d="M3063.69 15464.9C3063.69 15471 3058.76 15475.9 3052.69 15475.9 3046.61 15475.9 3041.69 15471 3041.69 15464.9 3041.69 15458.8 3046.61 15453.9 3052.69 15453.9 3058.76 15453.9 3063.69 15458.8 3063.69 15464.9Z" stroke="#4472C4" stroke-width="3.4375" stroke-linejoin="round" stroke-miterlimit="10" fill="#4472C4"/><path d="M3068.69 15464.9C3068.69 15471 3063.76 15475.9 3057.69 15475.9 3051.61 15475.9 3046.69 15471 3046.69 15464.9 3046.69 15458.8 3051.61 15453.9 3057.69 15453.9 3063.76 15453.9 3068.69 15458.8 3068.69 15464.9Z" stroke="#4472C4" stroke-width="3.4375" stroke-linejoin="round" stroke-miterlimit="10" fill="#4472C4"/><path d="M3073.69 15464.9C3073.69 15471 3068.76 15475.9 3062.69 15475.9 3056.61 15475.9 3051.69 15471 3051.69 15464.9 3051.69 15458.8 3056.61 15453.9 3062.69 15453.9 3068.76 15453.9 3073.69 15458.8 3073.69 15464.9Z" stroke="#4472C4" stroke-width="3.4375" stroke-linejoin="round" stroke-miterlimit="10" fill="#4472C4"/><path d="M3078.69 15463.9C3078.69 15470 3073.76 15474.9 3067.69 15474.9 3061.61 15474.9 3056.69 15470 3056.69 15463.9 3056.69 15457.8 3061.61 15452.9 3067.69 15452.9 3073.76 15452.9 3078.69 15457.8 3078.69 15463.9Z" stroke="#4472C4" stroke-width="3.4375" stroke-linejoin="round" stroke-miterlimit="10" fill="#4472C4"/><path d="M3083.69 15464.9C3083.69 15471 3078.76 15475.9 3072.69 15475.9 3066.61 15475.9 3061.69 15471 3061.69 15464.9 3061.69 15458.8 3066.61 15453.9 3072.69 15453.9 3078.76 15453.9 3083.69 15458.8 3083.69 15464.9Z" stroke="#4472C4" stroke-width="3.4375" stroke-linejoin="round" stroke-miterlimit="10" fill="#4472C4"/><path d="M3088.69 15463.9C3088.69 15470 3083.76 15474.9 3077.69 15474.9 3071.61 15474.9 3066.69 15470 3066.69 15463.9 3066.69 15457.8 3071.61 15452.9 3077.69 15452.9 3083.76 15452.9 3088.69 15457.8 3088.69 15463.9Z" stroke="#4472C4" stroke-width="3.4375" stroke-linejoin="round" stroke-miterlimit="10" fill="#4472C4"/><path d="M3093.69 15464.9C3093.69 15471 3088.76 15475.9 3082.69 15475.9 3076.61 15475.9 3071.69 15471 3071.69 15464.9 3071.69 15458.8 3076.61 15453.9 3082.69 15453.9 3088.76 15453.9 3093.69 15458.8 3093.69 15464.9Z" stroke="#4472C4" stroke-width="3.4375" stroke-linejoin="round" stroke-miterlimit="10" fill="#4472C4"/><path d="M3098.69 15463.9C3098.69 15470 3093.76 15474.9 3087.69 15474.9 3081.61 15474.9 3076.69 15470 3076.69 15463.9 3076.69 15457.8 3081.61 15452.9 3087.69 15452.9 3093.76 15452.9 3098.69 15457.8 3098.69 15463.9Z" stroke="#4472C4" stroke-width="3.4375" stroke-linejoin="round" stroke-miterlimit="10" fill="#4472C4"/><path d="M3104.69 15463.9C3104.69 15470 3099.76 15474.9 3093.69 15474.9 3087.61 15474.9 3082.69 15470 3082.69 15463.9 3082.69 15457.8 3087.61 15452.9 3093.69 15452.9 3099.76 15452.9 3104.69 15457.8 3104.69 15463.9Z" stroke="#4472C4" stroke-width="3.4375" stroke-linejoin="round" stroke-miterlimit="10" fill="#4472C4"/><path d="M3109.69 15463.9C3109.69 15470 3104.76 15474.9 3098.69 15474.9 3092.61 15474.9 3087.69 15470 3087.69 15463.9 3087.69 15457.8 3092.61 15452.9 3098.69 15452.9 3104.76 15452.9 3109.69 15457.8 3109.69 15463.9Z" stroke="#4472C4" stroke-width="3.4375" stroke-linejoin="round" stroke-miterlimit="10" fill="#4472C4"/><path d="M3114.69 15463.9C3114.69 15470 3109.76 15474.9 3103.69 15474.9 3097.61 15474.9 3092.69 15470 3092.69 15463.9 3092.69 15457.8 3097.61 15452.9 3103.69 15452.9 3109.76 15452.9 3114.69 15457.8 3114.69 15463.9Z" stroke="#4472C4" stroke-width="3.4375" stroke-linejoin="round" stroke-miterlimit="10" fill="#4472C4"/><path d="M3119.69 15463.9C3119.69 15470 3114.76 15474.9 3108.69 15474.9 3102.61 15474.9 3097.69 15470 3097.69 15463.9 3097.69 15457.8 3102.61 15452.9 3108.69 15452.9 3114.76 15452.9 3119.69 15457.8 3119.69 15463.9Z" stroke="#4472C4" stroke-width="3.4375" stroke-linejoin="round" stroke-miterlimit="10" fill="#4472C4"/><path d="M3124.69 15462.9C3124.69 15469 3119.76 15473.9 3113.69 15473.9 3107.61 15473.9 3102.69 15469 3102.69 15462.9 3102.69 15456.8 3107.61 15451.9 3113.69 15451.9 3119.76 15451.9 3124.69 15456.8 3124.69 15462.9Z" stroke="#4472C4" stroke-width="3.4375" stroke-linejoin="round" stroke-miterlimit="10" fill="#4472C4"/><path d="M3129.69 15463.9C3129.69 15470 3124.76 15474.9 3118.69 15474.9 3112.61 15474.9 3107.69 15470 3107.69 15463.9 3107.69 15457.8 3112.61 15452.9 3118.69 15452.9 3124.76 15452.9 3129.69 15457.8 3129.69 15463.9Z" stroke="#4472C4" stroke-width="3.4375" stroke-linejoin="round" stroke-miterlimit="10" fill="#4472C4"/><path d="M3134.69 15463.9C3134.69 15470 3129.76 15474.9 3123.69 15474.9 3117.61 15474.9 3112.69 15470 3112.69 15463.9 3112.69 15457.8 3117.61 15452.9 3123.69 15452.9 3129.76 15452.9 3134.69 15457.8 3134.69 15463.9Z" stroke="#4472C4" stroke-width="3.4375" stroke-linejoin="round" stroke-miterlimit="10" fill="#4472C4"/><path d="M3139.69 15463.9C3139.69 15470 3134.76 15474.9 3128.69 15474.9 3122.61 15474.9 3117.69 15470 3117.69 15463.9 3117.69 15457.8 3122.61 15452.9 3128.69 15452.9 3134.76 15452.9 3139.69 15457.8 3139.69 15463.9Z" stroke="#4472C4" stroke-width="3.4375" stroke-linejoin="round" stroke-miterlimit="10" fill="#4472C4"/><path d="M3144.69 15463.9C3144.69 15470 3139.76 15474.9 3133.69 15474.9 3127.61 15474.9 3122.69 15470 3122.69 15463.9 3122.69 15457.8 3127.61 15452.9 3133.69 15452.9 3139.76 15452.9 3144.69 15457.8 3144.69 15463.9Z" stroke="#4472C4" stroke-width="3.4375" stroke-linejoin="round" stroke-miterlimit="10" fill="#4472C4"/><path d="M3150.69 15463.9C3150.69 15470 3145.76 15474.9 3139.69 15474.9 3133.61 15474.9 3128.69 15470 3128.69 15463.9 3128.69 15457.8 3133.61 15452.9 3139.69 15452.9 3145.76 15452.9 3150.69 15457.8 3150.69 15463.9Z" stroke="#4472C4" stroke-width="3.4375" stroke-linejoin="round" stroke-miterlimit="10" fill="#4472C4"/><path d="M3155.69 15463.9C3155.69 15470 3150.76 15474.9 3144.69 15474.9 3138.61 15474.9 3133.69 15470 3133.69 15463.9 3133.69 15457.8 3138.61 15452.9 3144.69 15452.9 3150.76 15452.9 3155.69 15457.8 3155.69 15463.9Z" stroke="#4472C4" stroke-width="3.4375" stroke-linejoin="round" stroke-miterlimit="10" fill="#4472C4"/><path d="M3160.69 15463.9C3160.69 15470 3155.76 15474.9 3149.69 15474.9 3143.61 15474.9 3138.69 15470 3138.69 15463.9 3138.69 15457.8 3143.61 15452.9 3149.69 15452.9 3155.76 15452.9 3160.69 15457.8 3160.69 15463.9Z" stroke="#4472C4" stroke-width="3.4375" stroke-linejoin="round" stroke-miterlimit="10" fill="#4472C4"/><path d="M3165.69 15463.9C3165.69 15470 3160.76 15474.9 3154.69 15474.9 3148.61 15474.9 3143.69 15470 3143.69 15463.9 3143.69 15457.8 3148.61 15452.9 3154.69 15452.9 3160.76 15452.9 3165.69 15457.8 3165.69 15463.9Z" stroke="#4472C4" stroke-width="3.4375" stroke-linejoin="round" stroke-miterlimit="10" fill="#4472C4"/><path d="M3170.69 15463.9C3170.69 15470 3165.76 15474.9 3159.69 15474.9 3153.61 15474.9 3148.69 15470 3148.69 15463.9 3148.69 15457.8 3153.61 15452.9 3159.69 15452.9 3165.76 15452.9 3170.69 15457.8 3170.69 15463.9Z" stroke="#4472C4" stroke-width="3.4375" stroke-linejoin="round" stroke-miterlimit="10" fill="#4472C4"/><path d="M3175.69 15463.9C3175.69 15470 3170.76 15474.9 3164.69 15474.9 3158.61 15474.9 3153.69 15470 3153.69 15463.9 3153.69 15457.8 3158.61 15452.9 3164.69 15452.9 3170.76 15452.9 3175.69 15457.8 3175.69 15463.9Z" stroke="#4472C4" stroke-width="3.4375" stroke-linejoin="round" stroke-miterlimit="10" fill="#4472C4"/><path d="M3180.69 15463.9C3180.69 15470 3175.76 15474.9 3169.69 15474.9 3163.61 15474.9 3158.69 15470 3158.69 15463.9 3158.69 15457.8 3163.61 15452.9 3169.69 15452.9 3175.76 15452.9 3180.69 15457.8 3180.69 15463.9Z" stroke="#4472C4" stroke-width="3.4375" stroke-linejoin="round" stroke-miterlimit="10" fill="#4472C4"/><path d="M3185.69 15463.9C3185.69 15470 3180.76 15474.9 3174.69 15474.9 3168.61 15474.9 3163.69 15470 3163.69 15463.9 3163.69 15457.8 3168.61 15452.9 3174.69 15452.9 3180.76 15452.9 3185.69 15457.8 3185.69 15463.9Z" stroke="#4472C4" stroke-width="3.4375" stroke-linejoin="round" stroke-miterlimit="10" fill="#4472C4"/><path d="M3190.69 15463.9C3190.69 15470 3185.76 15474.9 3179.69 15474.9 3173.61 15474.9 3168.69 15470 3168.69 15463.9 3168.69 15457.8 3173.61 15452.9 3179.69 15452.9 3185.76 15452.9 3190.69 15457.8 3190.69 15463.9Z" stroke="#4472C4" stroke-width="3.4375" stroke-linejoin="round" stroke-miterlimit="10" fill="#4472C4"/><path d="M3196.69 15463.9C3196.69 15470 3191.76 15474.9 3185.69 15474.9 3179.61 15474.9 3174.69 15470 3174.69 15463.9 3174.69 15457.8 3179.61 15452.9 3185.69 15452.9 3191.76 15452.9 3196.69 15457.8 3196.69 15463.9Z" stroke="#4472C4" stroke-width="3.4375" stroke-linejoin="round" stroke-miterlimit="10" fill="#4472C4"/><path d="M3201.69 15463.9C3201.69 15470 3196.76 15474.9 3190.69 15474.9 3184.61 15474.9 3179.69 15470 3179.69 15463.9 3179.69 15457.8 3184.61 15452.9 3190.69 15452.9 3196.76 15452.9 3201.69 15457.8 3201.69 15463.9Z" stroke="#4472C4" stroke-width="3.4375" stroke-linejoin="round" stroke-miterlimit="10" fill="#4472C4"/><path d="M3206.69 15464.9C3206.69 15471 3201.76 15475.9 3195.69 15475.9 3189.61 15475.9 3184.69 15471 3184.69 15464.9 3184.69 15458.8 3189.61 15453.9 3195.69 15453.9 3201.76 15453.9 3206.69 15458.8 3206.69 15464.9Z" stroke="#4472C4" stroke-width="3.4375" stroke-linejoin="round" stroke-miterlimit="10" fill="#4472C4"/><path d="M3211.69 15463.9C3211.69 15470 3206.76 15474.9 3200.69 15474.9 3194.61 15474.9 3189.69 15470 3189.69 15463.9 3189.69 15457.8 3194.61 15452.9 3200.69 15452.9 3206.76 15452.9 3211.69 15457.8 3211.69 15463.9Z" stroke="#4472C4" stroke-width="3.4375" stroke-linejoin="round" stroke-miterlimit="10" fill="#4472C4"/><path d="M3216.69 15464.9C3216.69 15471 3211.76 15475.9 3205.69 15475.9 3199.61 15475.9 3194.69 15471 3194.69 15464.9 3194.69 15458.8 3199.61 15453.9 3205.69 15453.9 3211.76 15453.9 3216.69 15458.8 3216.69 15464.9Z" stroke="#4472C4" stroke-width="3.4375" stroke-linejoin="round" stroke-miterlimit="10" fill="#4472C4"/><path d="M3221.69 15463.9C3221.69 15470 3216.76 15474.9 3210.69 15474.9 3204.61 15474.9 3199.69 15470 3199.69 15463.9 3199.69 15457.8 3204.61 15452.9 3210.69 15452.9 3216.76 15452.9 3221.69 15457.8 3221.69 15463.9Z" stroke="#4472C4" stroke-width="3.4375" stroke-linejoin="round" stroke-miterlimit="10" fill="#4472C4"/><path d="M3226.69 15464.9C3226.69 15471 3221.76 15475.9 3215.69 15475.9 3209.61 15475.9 3204.69 15471 3204.69 15464.9 3204.69 15458.8 3209.61 15453.9 3215.69 15453.9 3221.76 15453.9 3226.69 15458.8 3226.69 15464.9Z" stroke="#4472C4" stroke-width="3.4375" stroke-linejoin="round" stroke-miterlimit="10" fill="#4472C4"/><path d="M3231.69 15463.9C3231.69 15470 3226.76 15474.9 3220.69 15474.9 3214.61 15474.9 3209.69 15470 3209.69 15463.9 3209.69 15457.8 3214.61 15452.9 3220.69 15452.9 3226.76 15452.9 3231.69 15457.8 3231.69 15463.9Z" stroke="#4472C4" stroke-width="3.4375" stroke-linejoin="round" stroke-miterlimit="10" fill="#4472C4"/><path d="M3236.69 15463.9C3236.69 15470 3231.76 15474.9 3225.69 15474.9 3219.61 15474.9 3214.69 15470 3214.69 15463.9 3214.69 15457.8 3219.61 15452.9 3225.69 15452.9 3231.76 15452.9 3236.69 15457.8 3236.69 15463.9Z" stroke="#4472C4" stroke-width="3.4375" stroke-linejoin="round" stroke-miterlimit="10" fill="#4472C4"/><path d="M3242.69 15464.9C3242.69 15471 3237.76 15475.9 3231.69 15475.9 3225.61 15475.9 3220.69 15471 3220.69 15464.9 3220.69 15458.8 3225.61 15453.9 3231.69 15453.9 3237.76 15453.9 3242.69 15458.8 3242.69 15464.9Z" stroke="#4472C4" stroke-width="3.4375" stroke-linejoin="round" stroke-miterlimit="10" fill="#4472C4"/><path d="M3247.69 15464.9C3247.69 15471 3242.76 15475.9 3236.69 15475.9 3230.61 15475.9 3225.69 15471 3225.69 15464.9 3225.69 15458.8 3230.61 15453.9 3236.69 15453.9 3242.76 15453.9 3247.69 15458.8 3247.69 15464.9Z" stroke="#4472C4" stroke-width="3.4375" stroke-linejoin="round" stroke-miterlimit="10" fill="#4472C4"/><path d="M3252.69 15463.9C3252.69 15470 3247.76 15474.9 3241.69 15474.9 3235.61 15474.9 3230.69 15470 3230.69 15463.9 3230.69 15457.8 3235.61 15452.9 3241.69 15452.9 3247.76 15452.9 3252.69 15457.8 3252.69 15463.9Z" stroke="#4472C4" stroke-width="3.4375" stroke-linejoin="round" stroke-miterlimit="10" fill="#4472C4"/><path d="M3257.69 15465.9C3257.69 15472 3252.76 15476.9 3246.69 15476.9 3240.61 15476.9 3235.69 15472 3235.69 15465.9 3235.69 15459.8 3240.61 15454.9 3246.69 15454.9 3252.76 15454.9 3257.69 15459.8 3257.69 15465.9Z" stroke="#4472C4" stroke-width="3.4375" stroke-linejoin="round" stroke-miterlimit="10" fill="#4472C4"/><path d="M3262.69 15464.9C3262.69 15471 3257.76 15475.9 3251.69 15475.9 3245.61 15475.9 3240.69 15471 3240.69 15464.9 3240.69 15458.8 3245.61 15453.9 3251.69 15453.9 3257.76 15453.9 3262.69 15458.8 3262.69 15464.9Z" stroke="#4472C4" stroke-width="3.4375" stroke-linejoin="round" stroke-miterlimit="10" fill="#4472C4"/><path d="M3267.69 15463.9C3267.69 15470 3262.76 15474.9 3256.69 15474.9 3250.61 15474.9 3245.69 15470 3245.69 15463.9 3245.69 15457.8 3250.61 15452.9 3256.69 15452.9 3262.76 15452.9 3267.69 15457.8 3267.69 15463.9Z" stroke="#4472C4" stroke-width="3.4375" stroke-linejoin="round" stroke-miterlimit="10" fill="#4472C4"/><path d="M3272.69 15463.9C3272.69 15470 3267.76 15474.9 3261.69 15474.9 3255.61 15474.9 3250.69 15470 3250.69 15463.9 3250.69 15457.8 3255.61 15452.9 3261.69 15452.9 3267.76 15452.9 3272.69 15457.8 3272.69 15463.9Z" stroke="#4472C4" stroke-width="3.4375" stroke-linejoin="round" stroke-miterlimit="10" fill="#4472C4"/><path d="M3277.69 15463.9C3277.69 15470 3272.76 15474.9 3266.69 15474.9 3260.61 15474.9 3255.69 15470 3255.69 15463.9 3255.69 15457.8 3260.61 15452.9 3266.69 15452.9 3272.76 15452.9 3277.69 15457.8 3277.69 15463.9Z" stroke="#4472C4" stroke-width="3.4375" stroke-linejoin="round" stroke-miterlimit="10" fill="#4472C4"/><path d="M3282.69 15464.9C3282.69 15471 3277.76 15475.9 3271.69 15475.9 3265.61 15475.9 3260.69 15471 3260.69 15464.9 3260.69 15458.8 3265.61 15453.9 3271.69 15453.9 3277.76 15453.9 3282.69 15458.8 3282.69 15464.9Z" stroke="#4472C4" stroke-width="3.4375" stroke-linejoin="round" stroke-miterlimit="10" fill="#4472C4"/><path d="M3288.69 15465.9C3288.69 15472 3283.76 15476.9 3277.69 15476.9 3271.61 15476.9 3266.69 15472 3266.69 15465.9 3266.69 15459.8 3271.61 15454.9 3277.69 15454.9 3283.76 15454.9 3288.69 15459.8 3288.69 15465.9Z" stroke="#4472C4" stroke-width="3.4375" stroke-linejoin="round" stroke-miterlimit="10" fill="#4472C4"/><path d="M3293.69 15463.9C3293.69 15470 3288.76 15474.9 3282.69 15474.9 3276.61 15474.9 3271.69 15470 3271.69 15463.9 3271.69 15457.8 3276.61 15452.9 3282.69 15452.9 3288.76 15452.9 3293.69 15457.8 3293.69 15463.9Z" stroke="#4472C4" stroke-width="3.4375" stroke-linejoin="round" stroke-miterlimit="10" fill="#4472C4"/><path d="M3298.69 15462.9C3298.69 15469 3293.76 15473.9 3287.69 15473.9 3281.61 15473.9 3276.69 15469 3276.69 15462.9 3276.69 15456.8 3281.61 15451.9 3287.69 15451.9 3293.76 15451.9 3298.69 15456.8 3298.69 15462.9Z" stroke="#4472C4" stroke-width="3.4375" stroke-linejoin="round" stroke-miterlimit="10" fill="#4472C4"/><path d="M3303.69 15462.9C3303.69 15469 3298.76 15473.9 3292.69 15473.9 3286.61 15473.9 3281.69 15469 3281.69 15462.9 3281.69 15456.8 3286.61 15451.9 3292.69 15451.9 3298.76 15451.9 3303.69 15456.8 3303.69 15462.9Z" stroke="#4472C4" stroke-width="3.4375" stroke-linejoin="round" stroke-miterlimit="10" fill="#4472C4"/><path d="M3308.69 15464.9C3308.69 15471 3303.76 15475.9 3297.69 15475.9 3291.61 15475.9 3286.69 15471 3286.69 15464.9 3286.69 15458.8 3291.61 15453.9 3297.69 15453.9 3303.76 15453.9 3308.69 15458.8 3308.69 15464.9Z" stroke="#4472C4" stroke-width="3.4375" stroke-linejoin="round" stroke-miterlimit="10" fill="#4472C4"/><path d="M3313.69 15463.9C3313.69 15470 3308.76 15474.9 3302.69 15474.9 3296.61 15474.9 3291.69 15470 3291.69 15463.9 3291.69 15457.8 3296.61 15452.9 3302.69 15452.9 3308.76 15452.9 3313.69 15457.8 3313.69 15463.9Z" stroke="#4472C4" stroke-width="3.4375" stroke-linejoin="round" stroke-miterlimit="10" fill="#4472C4"/><path d="M3318.69 15464.9C3318.69 15471 3313.76 15475.9 3307.69 15475.9 3301.61 15475.9 3296.69 15471 3296.69 15464.9 3296.69 15458.8 3301.61 15453.9 3307.69 15453.9 3313.76 15453.9 3318.69 15458.8 3318.69 15464.9Z" stroke="#4472C4" stroke-width="3.4375" stroke-linejoin="round" stroke-miterlimit="10" fill="#4472C4"/><path d="M3323.69 15463.9C3323.69 15470 3318.76 15474.9 3312.69 15474.9 3306.61 15474.9 3301.69 15470 3301.69 15463.9 3301.69 15457.8 3306.61 15452.9 3312.69 15452.9 3318.76 15452.9 3323.69 15457.8 3323.69 15463.9Z" stroke="#4472C4" stroke-width="3.4375" stroke-linejoin="round" stroke-miterlimit="10" fill="#4472C4"/><path d="M3328.69 15464.9C3328.69 15471 3323.76 15475.9 3317.69 15475.9 3311.61 15475.9 3306.69 15471 3306.69 15464.9 3306.69 15458.8 3311.61 15453.9 3317.69 15453.9 3323.76 15453.9 3328.69 15458.8 3328.69 15464.9Z" stroke="#4472C4" stroke-width="3.4375" stroke-linejoin="round" stroke-miterlimit="10" fill="#4472C4"/><path d="M3334.69 15464.9C3334.69 15471 3329.76 15475.9 3323.69 15475.9 3317.61 15475.9 3312.69 15471 3312.69 15464.9 3312.69 15458.8 3317.61 15453.9 3323.69 15453.9 3329.76 15453.9 3334.69 15458.8 3334.69 15464.9Z" stroke="#4472C4" stroke-width="3.4375" stroke-linejoin="round" stroke-miterlimit="10" fill="#4472C4"/><path d="M3339.69 15464.9C3339.69 15471 3334.76 15475.9 3328.69 15475.9 3322.61 15475.9 3317.69 15471 3317.69 15464.9 3317.69 15458.8 3322.61 15453.9 3328.69 15453.9 3334.76 15453.9 3339.69 15458.8 3339.69 15464.9Z" stroke="#4472C4" stroke-width="3.4375" stroke-linejoin="round" stroke-miterlimit="10" fill="#4472C4"/><path d="M3344.69 15463.9C3344.69 15470 3339.76 15474.9 3333.69 15474.9 3327.61 15474.9 3322.69 15470 3322.69 15463.9 3322.69 15457.8 3327.61 15452.9 3333.69 15452.9 3339.76 15452.9 3344.69 15457.8 3344.69 15463.9Z" stroke="#4472C4" stroke-width="3.4375" stroke-linejoin="round" stroke-miterlimit="10" fill="#4472C4"/><path d="M3349.69 15463.9C3349.69 15470 3344.76 15474.9 3338.69 15474.9 3332.61 15474.9 3327.69 15470 3327.69 15463.9 3327.69 15457.8 3332.61 15452.9 3338.69 15452.9 3344.76 15452.9 3349.69 15457.8 3349.69 15463.9Z" stroke="#4472C4" stroke-width="3.4375" stroke-linejoin="round" stroke-miterlimit="10" fill="#4472C4"/><path d="M3354.69 15461.9C3354.69 15468 3349.76 15472.9 3343.69 15472.9 3337.61 15472.9 3332.69 15468 3332.69 15461.9 3332.69 15455.8 3337.61 15450.9 3343.69 15450.9 3349.76 15450.9 3354.69 15455.8 3354.69 15461.9Z" stroke="#4472C4" stroke-width="3.4375" stroke-linejoin="round" stroke-miterlimit="10" fill="#4472C4"/><path d="M3359.69 15462.9C3359.69 15469 3354.76 15473.9 3348.69 15473.9 3342.61 15473.9 3337.69 15469 3337.69 15462.9 3337.69 15456.8 3342.61 15451.9 3348.69 15451.9 3354.76 15451.9 3359.69 15456.8 3359.69 15462.9Z" stroke="#4472C4" stroke-width="3.4375" stroke-linejoin="round" stroke-miterlimit="10" fill="#4472C4"/><path d="M3364.69 15462.9C3364.69 15469 3359.76 15473.9 3353.69 15473.9 3347.61 15473.9 3342.69 15469 3342.69 15462.9 3342.69 15456.8 3347.61 15451.9 3353.69 15451.9 3359.76 15451.9 3364.69 15456.8 3364.69 15462.9Z" stroke="#4472C4" stroke-width="3.4375" stroke-linejoin="round" stroke-miterlimit="10" fill="#4472C4"/><path d="M3369.69 15461.9C3369.69 15468 3364.76 15472.9 3358.69 15472.9 3352.61 15472.9 3347.69 15468 3347.69 15461.9 3347.69 15455.8 3352.61 15450.9 3358.69 15450.9 3364.76 15450.9 3369.69 15455.8 3369.69 15461.9Z" stroke="#4472C4" stroke-width="3.4375" stroke-linejoin="round" stroke-miterlimit="10" fill="#4472C4"/><path d="M3374.69 15461.9C3374.69 15468 3369.76 15472.9 3363.69 15472.9 3357.61 15472.9 3352.69 15468 3352.69 15461.9 3352.69 15455.8 3357.61 15450.9 3363.69 15450.9 3369.76 15450.9 3374.69 15455.8 3374.69 15461.9Z" stroke="#4472C4" stroke-width="3.4375" stroke-linejoin="round" stroke-miterlimit="10" fill="#4472C4"/><path d="M3380.69 15460.9C3380.69 15467 3375.76 15471.9 3369.69 15471.9 3363.61 15471.9 3358.69 15467 3358.69 15460.9 3358.69 15454.8 3363.61 15449.9 3369.69 15449.9 3375.76 15449.9 3380.69 15454.8 3380.69 15460.9Z" stroke="#4472C4" stroke-width="3.4375" stroke-linejoin="round" stroke-miterlimit="10" fill="#4472C4"/><path d="M3385.69 15459.9C3385.69 15466 3380.76 15470.9 3374.69 15470.9 3368.61 15470.9 3363.69 15466 3363.69 15459.9 3363.69 15453.8 3368.61 15448.9 3374.69 15448.9 3380.76 15448.9 3385.69 15453.8 3385.69 15459.9Z" stroke="#4472C4" stroke-width="3.4375" stroke-linejoin="round" stroke-miterlimit="10" fill="#4472C4"/><path d="M3390.69 15457.9C3390.69 15464 3385.76 15468.9 3379.69 15468.9 3373.61 15468.9 3368.69 15464 3368.69 15457.9 3368.69 15451.8 3373.61 15446.9 3379.69 15446.9 3385.76 15446.9 3390.69 15451.8 3390.69 15457.9Z" stroke="#4472C4" stroke-width="3.4375" stroke-linejoin="round" stroke-miterlimit="10" fill="#4472C4"/><path d="M3395.69 15460.9C3395.69 15467 3390.76 15471.9 3384.69 15471.9 3378.61 15471.9 3373.69 15467 3373.69 15460.9 3373.69 15454.8 3378.61 15449.9 3384.69 15449.9 3390.76 15449.9 3395.69 15454.8 3395.69 15460.9Z" stroke="#4472C4" stroke-width="3.4375" stroke-linejoin="round" stroke-miterlimit="10" fill="#4472C4"/><path d="M3400.69 15459.9C3400.69 15466 3395.76 15470.9 3389.69 15470.9 3383.61 15470.9 3378.69 15466 3378.69 15459.9 3378.69 15453.8 3383.61 15448.9 3389.69 15448.9 3395.76 15448.9 3400.69 15453.8 3400.69 15459.9Z" stroke="#4472C4" stroke-width="3.4375" stroke-linejoin="round" stroke-miterlimit="10" fill="#4472C4"/><path d="M3405.69 15244.9C3405.69 15251 3400.76 15255.9 3394.69 15255.9 3388.61 15255.9 3383.69 15251 3383.69 15244.9 3383.69 15238.8 3388.61 15233.9 3394.69 15233.9 3400.76 15233.9 3405.69 15238.8 3405.69 15244.9Z" stroke="#4472C4" stroke-width="3.4375" stroke-linejoin="round" stroke-miterlimit="10" fill="#4472C4"/><path d="M3410.69 15245.9C3410.69 15252 3405.76 15256.9 3399.69 15256.9 3393.61 15256.9 3388.69 15252 3388.69 15245.9 3388.69 15239.8 3393.61 15234.9 3399.69 15234.9 3405.76 15234.9 3410.69 15239.8 3410.69 15245.9Z" stroke="#4472C4" stroke-width="3.4375" stroke-linejoin="round" stroke-miterlimit="10" fill="#4472C4"/><path d="M3415.69 15459.9C3415.69 15466 3410.76 15470.9 3404.69 15470.9 3398.61 15470.9 3393.69 15466 3393.69 15459.9 3393.69 15453.8 3398.61 15448.9 3404.69 15448.9 3410.76 15448.9 3415.69 15453.8 3415.69 15459.9Z" stroke="#4472C4" stroke-width="3.4375" stroke-linejoin="round" stroke-miterlimit="10" fill="#4472C4"/><path d="M3420.69 15245.9C3420.69 15252 3415.76 15256.9 3409.69 15256.9 3403.61 15256.9 3398.69 15252 3398.69 15245.9 3398.69 15239.8 3403.61 15234.9 3409.69 15234.9 3415.76 15234.9 3420.69 15239.8 3420.69 15245.9Z" stroke="#4472C4" stroke-width="3.4375" stroke-linejoin="round" stroke-miterlimit="10" fill="#4472C4"/><path d="M3426.69 15244.9C3426.69 15251 3421.76 15255.9 3415.69 15255.9 3409.61 15255.9 3404.69 15251 3404.69 15244.9 3404.69 15238.8 3409.61 15233.9 3415.69 15233.9 3421.76 15233.9 3426.69 15238.8 3426.69 15244.9Z" stroke="#4472C4" stroke-width="3.4375" stroke-linejoin="round" stroke-miterlimit="10" fill="#4472C4"/><path d="M3431.69 15458.9C3431.69 15465 3426.76 15469.9 3420.69 15469.9 3414.61 15469.9 3409.69 15465 3409.69 15458.9 3409.69 15452.8 3414.61 15447.9 3420.69 15447.9 3426.76 15447.9 3431.69 15452.8 3431.69 15458.9Z" stroke="#4472C4" stroke-width="3.4375" stroke-linejoin="round" stroke-miterlimit="10" fill="#4472C4"/><path d="M3436.69 15244.9C3436.69 15251 3431.76 15255.9 3425.69 15255.9 3419.61 15255.9 3414.69 15251 3414.69 15244.9 3414.69 15238.8 3419.61 15233.9 3425.69 15233.9 3431.76 15233.9 3436.69 15238.8 3436.69 15244.9Z" stroke="#4472C4" stroke-width="3.4375" stroke-linejoin="round" stroke-miterlimit="10" fill="#4472C4"/><path d="M3441.69 15245.9C3441.69 15252 3436.76 15256.9 3430.69 15256.9 3424.61 15256.9 3419.69 15252 3419.69 15245.9 3419.69 15239.8 3424.61 15234.9 3430.69 15234.9 3436.76 15234.9 3441.69 15239.8 3441.69 15245.9Z" stroke="#4472C4" stroke-width="3.4375" stroke-linejoin="round" stroke-miterlimit="10" fill="#4472C4"/><path d="M3446.69 15458.9C3446.69 15465 3441.76 15469.9 3435.69 15469.9 3429.61 15469.9 3424.69 15465 3424.69 15458.9 3424.69 15452.8 3429.61 15447.9 3435.69 15447.9 3441.76 15447.9 3446.69 15452.8 3446.69 15458.9Z" stroke="#4472C4" stroke-width="3.4375" stroke-linejoin="round" stroke-miterlimit="10" fill="#4472C4"/><path d="M3451.69 15459.9C3451.69 15466 3446.76 15470.9 3440.69 15470.9 3434.61 15470.9 3429.69 15466 3429.69 15459.9 3429.69 15453.8 3434.61 15448.9 3440.69 15448.9 3446.76 15448.9 3451.69 15453.8 3451.69 15459.9Z" stroke="#4472C4" stroke-width="3.4375" stroke-linejoin="round" stroke-miterlimit="10" fill="#4472C4"/><path d="M3456.69 15245.9C3456.69 15252 3451.76 15256.9 3445.69 15256.9 3439.61 15256.9 3434.69 15252 3434.69 15245.9 3434.69 15239.8 3439.61 15234.9 3445.69 15234.9 3451.76 15234.9 3456.69 15239.8 3456.69 15245.9Z" stroke="#4472C4" stroke-width="3.4375" stroke-linejoin="round" stroke-miterlimit="10" fill="#4472C4"/><path d="M3461.69 15244.9C3461.69 15251 3456.76 15255.9 3450.69 15255.9 3444.61 15255.9 3439.69 15251 3439.69 15244.9 3439.69 15238.8 3444.61 15233.9 3450.69 15233.9 3456.76 15233.9 3461.69 15238.8 3461.69 15244.9Z" stroke="#4472C4" stroke-width="3.4375" stroke-linejoin="round" stroke-miterlimit="10" fill="#4472C4"/><path d="M3466.69 15245.9C3466.69 15252 3461.76 15256.9 3455.69 15256.9 3449.61 15256.9 3444.69 15252 3444.69 15245.9 3444.69 15239.8 3449.61 15234.9 3455.69 15234.9 3461.76 15234.9 3466.69 15239.8 3466.69 15245.9Z" stroke="#4472C4" stroke-width="3.4375" stroke-linejoin="round" stroke-miterlimit="10" fill="#4472C4"/><path d="M3472.69 15245.9C3472.69 15252 3467.76 15256.9 3461.69 15256.9 3455.61 15256.9 3450.69 15252 3450.69 15245.9 3450.69 15239.8 3455.61 15234.9 3461.69 15234.9 3467.76 15234.9 3472.69 15239.8 3472.69 15245.9Z" stroke="#4472C4" stroke-width="3.4375" stroke-linejoin="round" stroke-miterlimit="10" fill="#4472C4"/><path d="M3477.69 15245.9C3477.69 15252 3472.76 15256.9 3466.69 15256.9 3460.61 15256.9 3455.69 15252 3455.69 15245.9 3455.69 15239.8 3460.61 15234.9 3466.69 15234.9 3472.76 15234.9 3477.69 15239.8 3477.69 15245.9Z" stroke="#4472C4" stroke-width="3.4375" stroke-linejoin="round" stroke-miterlimit="10" fill="#4472C4"/><path d="M3482.69 15460.9C3482.69 15467 3477.76 15471.9 3471.69 15471.9 3465.61 15471.9 3460.69 15467 3460.69 15460.9 3460.69 15454.8 3465.61 15449.9 3471.69 15449.9 3477.76 15449.9 3482.69 15454.8 3482.69 15460.9Z" stroke="#4472C4" stroke-width="3.4375" stroke-linejoin="round" stroke-miterlimit="10" fill="#4472C4"/><path d="M3487.69 15244.9C3487.69 15251 3482.76 15255.9 3476.69 15255.9 3470.61 15255.9 3465.69 15251 3465.69 15244.9 3465.69 15238.8 3470.61 15233.9 3476.69 15233.9 3482.76 15233.9 3487.69 15238.8 3487.69 15244.9Z" stroke="#4472C4" stroke-width="3.4375" stroke-linejoin="round" stroke-miterlimit="10" fill="#4472C4"/><path d="M3492.69 15243.9C3492.69 15250 3487.76 15254.9 3481.69 15254.9 3475.61 15254.9 3470.69 15250 3470.69 15243.9 3470.69 15237.8 3475.61 15232.9 3481.69 15232.9 3487.76 15232.9 3492.69 15237.8 3492.69 15243.9Z" stroke="#4472C4" stroke-width="3.4375" stroke-linejoin="round" stroke-miterlimit="10" fill="#4472C4"/><path d="M3497.69 15458.9C3497.69 15465 3492.76 15469.9 3486.69 15469.9 3480.61 15469.9 3475.69 15465 3475.69 15458.9 3475.69 15452.8 3480.61 15447.9 3486.69 15447.9 3492.76 15447.9 3497.69 15452.8 3497.69 15458.9Z" stroke="#4472C4" stroke-width="3.4375" stroke-linejoin="round" stroke-miterlimit="10" fill="#4472C4"/><path d="M3502.69 15458.9C3502.69 15465 3497.76 15469.9 3491.69 15469.9 3485.61 15469.9 3480.69 15465 3480.69 15458.9 3480.69 15452.8 3485.61 15447.9 3491.69 15447.9 3497.76 15447.9 3502.69 15452.8 3502.69 15458.9Z" stroke="#4472C4" stroke-width="3.4375" stroke-linejoin="round" stroke-miterlimit="10" fill="#4472C4"/><path d="M3507.69 15456.9C3507.69 15463 3502.76 15467.9 3496.69 15467.9 3490.61 15467.9 3485.69 15463 3485.69 15456.9 3485.69 15450.8 3490.61 15445.9 3496.69 15445.9 3502.76 15445.9 3507.69 15450.8 3507.69 15456.9Z" stroke="#4472C4" stroke-width="3.4375" stroke-linejoin="round" stroke-miterlimit="10" fill="#4472C4"/><path d="M3512.69 15457.9C3512.69 15464 3507.76 15468.9 3501.69 15468.9 3495.61 15468.9 3490.69 15464 3490.69 15457.9 3490.69 15451.8 3495.61 15446.9 3501.69 15446.9 3507.76 15446.9 3512.69 15451.8 3512.69 15457.9Z" stroke="#4472C4" stroke-width="3.4375" stroke-linejoin="round" stroke-miterlimit="10" fill="#4472C4"/><path d="M3518.69 15242.9C3518.69 15249 3513.76 15253.9 3507.69 15253.9 3501.61 15253.9 3496.69 15249 3496.69 15242.9 3496.69 15236.8 3501.61 15231.9 3507.69 15231.9 3513.76 15231.9 3518.69 15236.8 3518.69 15242.9Z" stroke="#4472C4" stroke-width="3.4375" stroke-linejoin="round" stroke-miterlimit="10" fill="#4472C4"/><path d="M3523.69 15457.9C3523.69 15464 3518.76 15468.9 3512.69 15468.9 3506.61 15468.9 3501.69 15464 3501.69 15457.9 3501.69 15451.8 3506.61 15446.9 3512.69 15446.9 3518.76 15446.9 3523.69 15451.8 3523.69 15457.9Z" stroke="#4472C4" stroke-width="3.4375" stroke-linejoin="round" stroke-miterlimit="10" fill="#4472C4"/><path d="M3528.69 15244.9C3528.69 15251 3523.76 15255.9 3517.69 15255.9 3511.61 15255.9 3506.69 15251 3506.69 15244.9 3506.69 15238.8 3511.61 15233.9 3517.69 15233.9 3523.76 15233.9 3528.69 15238.8 3528.69 15244.9Z" stroke="#4472C4" stroke-width="3.4375" stroke-linejoin="round" stroke-miterlimit="10" fill="#4472C4"/><path d="M3533.69 15243.9C3533.69 15250 3528.76 15254.9 3522.69 15254.9 3516.61 15254.9 3511.69 15250 3511.69 15243.9 3511.69 15237.8 3516.61 15232.9 3522.69 15232.9 3528.76 15232.9 3533.69 15237.8 3533.69 15243.9Z" stroke="#4472C4" stroke-width="3.4375" stroke-linejoin="round" stroke-miterlimit="10" fill="#4472C4"/><path d="M3538.69 15457.9C3538.69 15464 3533.76 15468.9 3527.69 15468.9 3521.61 15468.9 3516.69 15464 3516.69 15457.9 3516.69 15451.8 3521.61 15446.9 3527.69 15446.9 3533.76 15446.9 3538.69 15451.8 3538.69 15457.9Z" stroke="#4472C4" stroke-width="3.4375" stroke-linejoin="round" stroke-miterlimit="10" fill="#4472C4"/><path d="M3543.69 15244.9C3543.69 15251 3538.76 15255.9 3532.69 15255.9 3526.61 15255.9 3521.69 15251 3521.69 15244.9 3521.69 15238.8 3526.61 15233.9 3532.69 15233.9 3538.76 15233.9 3543.69 15238.8 3543.69 15244.9Z" stroke="#4472C4" stroke-width="3.4375" stroke-linejoin="round" stroke-miterlimit="10" fill="#4472C4"/><path d="M3548.69 15245.9C3548.69 15252 3543.76 15256.9 3537.69 15256.9 3531.61 15256.9 3526.69 15252 3526.69 15245.9 3526.69 15239.8 3531.61 15234.9 3537.69 15234.9 3543.76 15234.9 3548.69 15239.8 3548.69 15245.9Z" stroke="#4472C4" stroke-width="3.4375" stroke-linejoin="round" stroke-miterlimit="10" fill="#4472C4"/><path d="M3553.69 15458.9C3553.69 15465 3548.76 15469.9 3542.69 15469.9 3536.61 15469.9 3531.69 15465 3531.69 15458.9 3531.69 15452.8 3536.61 15447.9 3542.69 15447.9 3548.76 15447.9 3553.69 15452.8 3553.69 15458.9Z" stroke="#4472C4" stroke-width="3.4375" stroke-linejoin="round" stroke-miterlimit="10" fill="#4472C4"/><path d="M3558.69 15246.9C3558.69 15253 3553.76 15257.9 3547.69 15257.9 3541.61 15257.9 3536.69 15253 3536.69 15246.9 3536.69 15240.8 3541.61 15235.9 3547.69 15235.9 3553.76 15235.9 3558.69 15240.8 3558.69 15246.9Z" stroke="#4472C4" stroke-width="3.4375" stroke-linejoin="round" stroke-miterlimit="10" fill="#4472C4"/><path d="M3564.69 15457.9C3564.69 15464 3559.76 15468.9 3553.69 15468.9 3547.61 15468.9 3542.69 15464 3542.69 15457.9 3542.69 15451.8 3547.61 15446.9 3553.69 15446.9 3559.76 15446.9 3564.69 15451.8 3564.69 15457.9Z" stroke="#4472C4" stroke-width="3.4375" stroke-linejoin="round" stroke-miterlimit="10" fill="#4472C4"/><path d="M3569.69 15245.9C3569.69 15252 3564.76 15256.9 3558.69 15256.9 3552.61 15256.9 3547.69 15252 3547.69 15245.9 3547.69 15239.8 3552.61 15234.9 3558.69 15234.9 3564.76 15234.9 3569.69 15239.8 3569.69 15245.9Z" stroke="#4472C4" stroke-width="3.4375" stroke-linejoin="round" stroke-miterlimit="10" fill="#4472C4"/><path d="M3574.69 15245.9C3574.69 15252 3569.76 15256.9 3563.69 15256.9 3557.61 15256.9 3552.69 15252 3552.69 15245.9 3552.69 15239.8 3557.61 15234.9 3563.69 15234.9 3569.76 15234.9 3574.69 15239.8 3574.69 15245.9Z" stroke="#4472C4" stroke-width="3.4375" stroke-linejoin="round" stroke-miterlimit="10" fill="#4472C4"/><path d="M3579.69 15457.9C3579.69 15464 3574.76 15468.9 3568.69 15468.9 3562.61 15468.9 3557.69 15464 3557.69 15457.9 3557.69 15451.8 3562.61 15446.9 3568.69 15446.9 3574.76 15446.9 3579.69 15451.8 3579.69 15457.9Z" stroke="#4472C4" stroke-width="3.4375" stroke-linejoin="round" stroke-miterlimit="10" fill="#4472C4"/><path d="M3584.69 15244.9C3584.69 15251 3579.76 15255.9 3573.69 15255.9 3567.61 15255.9 3562.69 15251 3562.69 15244.9 3562.69 15238.8 3567.61 15233.9 3573.69 15233.9 3579.76 15233.9 3584.69 15238.8 3584.69 15244.9Z" stroke="#4472C4" stroke-width="3.4375" stroke-linejoin="round" stroke-miterlimit="10" fill="#4472C4"/><path d="M3589.69 15458.9C3589.69 15465 3584.76 15469.9 3578.69 15469.9 3572.61 15469.9 3567.69 15465 3567.69 15458.9 3567.69 15452.8 3572.61 15447.9 3578.69 15447.9 3584.76 15447.9 3589.69 15452.8 3589.69 15458.9Z" stroke="#4472C4" stroke-width="3.4375" stroke-linejoin="round" stroke-miterlimit="10" fill="#4472C4"/><path d="M3594.69 15457.9C3594.69 15464 3589.76 15468.9 3583.69 15468.9 3577.61 15468.9 3572.69 15464 3572.69 15457.9 3572.69 15451.8 3577.61 15446.9 3583.69 15446.9 3589.76 15446.9 3594.69 15451.8 3594.69 15457.9Z" stroke="#4472C4" stroke-width="3.4375" stroke-linejoin="round" stroke-miterlimit="10" fill="#4472C4"/><path d="M3599.69 15244.9C3599.69 15251 3594.76 15255.9 3588.69 15255.9 3582.61 15255.9 3577.69 15251 3577.69 15244.9 3577.69 15238.8 3582.61 15233.9 3588.69 15233.9 3594.76 15233.9 3599.69 15238.8 3599.69 15244.9Z" stroke="#4472C4" stroke-width="3.4375" stroke-linejoin="round" stroke-miterlimit="10" fill="#4472C4"/><path d="M3604.69 15457.9C3604.69 15464 3599.76 15468.9 3593.69 15468.9 3587.61 15468.9 3582.69 15464 3582.69 15457.9 3582.69 15451.8 3587.61 15446.9 3593.69 15446.9 3599.76 15446.9 3604.69 15451.8 3604.69 15457.9Z" stroke="#4472C4" stroke-width="3.4375" stroke-linejoin="round" stroke-miterlimit="10" fill="#4472C4"/><path d="M3610.69 15240.9C3610.69 15247 3605.76 15251.9 3599.69 15251.9 3593.61 15251.9 3588.69 15247 3588.69 15240.9 3588.69 15234.8 3593.61 15229.9 3599.69 15229.9 3605.76 15229.9 3610.69 15234.8 3610.69 15240.9Z" stroke="#4472C4" stroke-width="3.4375" stroke-linejoin="round" stroke-miterlimit="10" fill="#4472C4"/><path d="M3615.69 15457.9C3615.69 15464 3610.76 15468.9 3604.69 15468.9 3598.61 15468.9 3593.69 15464 3593.69 15457.9 3593.69 15451.8 3598.61 15446.9 3604.69 15446.9 3610.76 15446.9 3615.69 15451.8 3615.69 15457.9Z" stroke="#4472C4" stroke-width="3.4375" stroke-linejoin="round" stroke-miterlimit="10" fill="#4472C4"/><path d="M3620.69 15245.9C3620.69 15252 3615.76 15256.9 3609.69 15256.9 3603.61 15256.9 3598.69 15252 3598.69 15245.9 3598.69 15239.8 3603.61 15234.9 3609.69 15234.9 3615.76 15234.9 3620.69 15239.8 3620.69 15245.9Z" stroke="#4472C4" stroke-width="3.4375" stroke-linejoin="round" stroke-miterlimit="10" fill="#4472C4"/><path d="M3625.69 15245.9C3625.69 15252 3620.76 15256.9 3614.69 15256.9 3608.61 15256.9 3603.69 15252 3603.69 15245.9 3603.69 15239.8 3608.61 15234.9 3614.69 15234.9 3620.76 15234.9 3625.69 15239.8 3625.69 15245.9Z" stroke="#4472C4" stroke-width="3.4375" stroke-linejoin="round" stroke-miterlimit="10" fill="#4472C4"/><path d="M3630.69 15457.9C3630.69 15464 3625.76 15468.9 3619.69 15468.9 3613.61 15468.9 3608.69 15464 3608.69 15457.9 3608.69 15451.8 3613.61 15446.9 3619.69 15446.9 3625.76 15446.9 3630.69 15451.8 3630.69 15457.9Z" stroke="#4472C4" stroke-width="3.4375" stroke-linejoin="round" stroke-miterlimit="10" fill="#4472C4"/><path d="M3635.69 15245.9C3635.69 15252 3630.76 15256.9 3624.69 15256.9 3618.61 15256.9 3613.69 15252 3613.69 15245.9 3613.69 15239.8 3618.61 15234.9 3624.69 15234.9 3630.76 15234.9 3635.69 15239.8 3635.69 15245.9Z" stroke="#4472C4" stroke-width="3.4375" stroke-linejoin="round" stroke-miterlimit="10" fill="#4472C4"/><path d="M3640.69 15457.9C3640.69 15464 3635.76 15468.9 3629.69 15468.9 3623.61 15468.9 3618.69 15464 3618.69 15457.9 3618.69 15451.8 3623.61 15446.9 3629.69 15446.9 3635.76 15446.9 3640.69 15451.8 3640.69 15457.9Z" stroke="#4472C4" stroke-width="3.4375" stroke-linejoin="round" stroke-miterlimit="10" fill="#4472C4"/><path d="M3645.69 15457.9C3645.69 15464 3640.76 15468.9 3634.69 15468.9 3628.61 15468.9 3623.69 15464 3623.69 15457.9 3623.69 15451.8 3628.61 15446.9 3634.69 15446.9 3640.76 15446.9 3645.69 15451.8 3645.69 15457.9Z" stroke="#4472C4" stroke-width="3.4375" stroke-linejoin="round" stroke-miterlimit="10" fill="#4472C4"/><path d="M3650.69 15241.9C3650.69 15248 3645.76 15252.9 3639.69 15252.9 3633.61 15252.9 3628.69 15248 3628.69 15241.9 3628.69 15235.8 3633.61 15230.9 3639.69 15230.9 3645.76 15230.9 3650.69 15235.8 3650.69 15241.9Z" stroke="#4472C4" stroke-width="3.4375" stroke-linejoin="round" stroke-miterlimit="10" fill="#4472C4"/><path d="M3656.69 15456.9C3656.69 15463 3651.76 15467.9 3645.69 15467.9 3639.61 15467.9 3634.69 15463 3634.69 15456.9 3634.69 15450.8 3639.61 15445.9 3645.69 15445.9 3651.76 15445.9 3656.69 15450.8 3656.69 15456.9Z" stroke="#4472C4" stroke-width="3.4375" stroke-linejoin="round" stroke-miterlimit="10" fill="#4472C4"/><path d="M3661.69 15456.9C3661.69 15463 3656.76 15467.9 3650.69 15467.9 3644.61 15467.9 3639.69 15463 3639.69 15456.9 3639.69 15450.8 3644.61 15445.9 3650.69 15445.9 3656.76 15445.9 3661.69 15450.8 3661.69 15456.9Z" stroke="#4472C4" stroke-width="3.4375" stroke-linejoin="round" stroke-miterlimit="10" fill="#4472C4"/><path d="M3666.69 15457.9C3666.69 15464 3661.76 15468.9 3655.69 15468.9 3649.61 15468.9 3644.69 15464 3644.69 15457.9 3644.69 15451.8 3649.61 15446.9 3655.69 15446.9 3661.76 15446.9 3666.69 15451.8 3666.69 15457.9Z" stroke="#4472C4" stroke-width="3.4375" stroke-linejoin="round" stroke-miterlimit="10" fill="#4472C4"/><path d="M3671.69 15243.9C3671.69 15250 3666.76 15254.9 3660.69 15254.9 3654.61 15254.9 3649.69 15250 3649.69 15243.9 3649.69 15237.8 3654.61 15232.9 3660.69 15232.9 3666.76 15232.9 3671.69 15237.8 3671.69 15243.9Z" stroke="#4472C4" stroke-width="3.4375" stroke-linejoin="round" stroke-miterlimit="10" fill="#4472C4"/><path d="M3676.69 15458.9C3676.69 15465 3671.76 15469.9 3665.69 15469.9 3659.61 15469.9 3654.69 15465 3654.69 15458.9 3654.69 15452.8 3659.61 15447.9 3665.69 15447.9 3671.76 15447.9 3676.69 15452.8 3676.69 15458.9Z" stroke="#4472C4" stroke-width="3.4375" stroke-linejoin="round" stroke-miterlimit="10" fill="#4472C4"/><path d="M3681.69 15245.9C3681.69 15252 3676.76 15256.9 3670.69 15256.9 3664.61 15256.9 3659.69 15252 3659.69 15245.9 3659.69 15239.8 3664.61 15234.9 3670.69 15234.9 3676.76 15234.9 3681.69 15239.8 3681.69 15245.9Z" stroke="#4472C4" stroke-width="3.4375" stroke-linejoin="round" stroke-miterlimit="10" fill="#4472C4"/><path d="M3686.69 15243.9C3686.69 15250 3681.76 15254.9 3675.69 15254.9 3669.61 15254.9 3664.69 15250 3664.69 15243.9 3664.69 15237.8 3669.61 15232.9 3675.69 15232.9 3681.76 15232.9 3686.69 15237.8 3686.69 15243.9Z" stroke="#4472C4" stroke-width="3.4375" stroke-linejoin="round" stroke-miterlimit="10" fill="#4472C4"/><path d="M3691.69 15242.9C3691.69 15249 3686.76 15253.9 3680.69 15253.9 3674.61 15253.9 3669.69 15249 3669.69 15242.9 3669.69 15236.8 3674.61 15231.9 3680.69 15231.9 3686.76 15231.9 3691.69 15236.8 3691.69 15242.9Z" stroke="#4472C4" stroke-width="3.4375" stroke-linejoin="round" stroke-miterlimit="10" fill="#4472C4"/><path d="M3696.69 15245.9C3696.69 15252 3691.76 15256.9 3685.69 15256.9 3679.61 15256.9 3674.69 15252 3674.69 15245.9 3674.69 15239.8 3679.61 15234.9 3685.69 15234.9 3691.76 15234.9 3696.69 15239.8 3696.69 15245.9Z" stroke="#4472C4" stroke-width="3.4375" stroke-linejoin="round" stroke-miterlimit="10" fill="#4472C4"/><path d="M3702.69 15456.9C3702.69 15463 3697.76 15467.9 3691.69 15467.9 3685.61 15467.9 3680.69 15463 3680.69 15456.9 3680.69 15450.8 3685.61 15445.9 3691.69 15445.9 3697.76 15445.9 3702.69 15450.8 3702.69 15456.9Z" stroke="#4472C4" stroke-width="3.4375" stroke-linejoin="round" stroke-miterlimit="10" fill="#4472C4"/><path d="M3707.69 15243.9C3707.69 15250 3702.76 15254.9 3696.69 15254.9 3690.61 15254.9 3685.69 15250 3685.69 15243.9 3685.69 15237.8 3690.61 15232.9 3696.69 15232.9 3702.76 15232.9 3707.69 15237.8 3707.69 15243.9Z" stroke="#4472C4" stroke-width="3.4375" stroke-linejoin="round" stroke-miterlimit="10" fill="#4472C4"/><path d="M3712.69 15242.9C3712.69 15249 3707.76 15253.9 3701.69 15253.9 3695.61 15253.9 3690.69 15249 3690.69 15242.9 3690.69 15236.8 3695.61 15231.9 3701.69 15231.9 3707.76 15231.9 3712.69 15236.8 3712.69 15242.9Z" stroke="#4472C4" stroke-width="3.4375" stroke-linejoin="round" stroke-miterlimit="10" fill="#4472C4"/><path d="M3717.69 15459.9C3717.69 15466 3712.76 15470.9 3706.69 15470.9 3700.61 15470.9 3695.69 15466 3695.69 15459.9 3695.69 15453.8 3700.61 15448.9 3706.69 15448.9 3712.76 15448.9 3717.69 15453.8 3717.69 15459.9Z" stroke="#4472C4" stroke-width="3.4375" stroke-linejoin="round" stroke-miterlimit="10" fill="#4472C4"/><path d="M3722.69 15245.9C3722.69 15252 3717.76 15256.9 3711.69 15256.9 3705.61 15256.9 3700.69 15252 3700.69 15245.9 3700.69 15239.8 3705.61 15234.9 3711.69 15234.9 3717.76 15234.9 3722.69 15239.8 3722.69 15245.9Z" stroke="#4472C4" stroke-width="3.4375" stroke-linejoin="round" stroke-miterlimit="10" fill="#4472C4"/><path d="M3727.69 15244.9C3727.69 15251 3722.76 15255.9 3716.69 15255.9 3710.61 15255.9 3705.69 15251 3705.69 15244.9 3705.69 15238.8 3710.61 15233.9 3716.69 15233.9 3722.76 15233.9 3727.69 15238.8 3727.69 15244.9Z" stroke="#4472C4" stroke-width="3.4375" stroke-linejoin="round" stroke-miterlimit="10" fill="#4472C4"/><path d="M3732.69 15244.9C3732.69 15251 3727.76 15255.9 3721.69 15255.9 3715.61 15255.9 3710.69 15251 3710.69 15244.9 3710.69 15238.8 3715.61 15233.9 3721.69 15233.9 3727.76 15233.9 3732.69 15238.8 3732.69 15244.9Z" stroke="#4472C4" stroke-width="3.4375" stroke-linejoin="round" stroke-miterlimit="10" fill="#4472C4"/><path d="M3737.69 15246.9C3737.69 15253 3732.76 15257.9 3726.69 15257.9 3720.61 15257.9 3715.69 15253 3715.69 15246.9 3715.69 15240.8 3720.61 15235.9 3726.69 15235.9 3732.76 15235.9 3737.69 15240.8 3737.69 15246.9Z" stroke="#4472C4" stroke-width="3.4375" stroke-linejoin="round" stroke-miterlimit="10" fill="#4472C4"/><path d="M3742.69 15245.9C3742.69 15252 3737.76 15256.9 3731.69 15256.9 3725.61 15256.9 3720.69 15252 3720.69 15245.9 3720.69 15239.8 3725.61 15234.9 3731.69 15234.9 3737.76 15234.9 3742.69 15239.8 3742.69 15245.9Z" stroke="#4472C4" stroke-width="3.4375" stroke-linejoin="round" stroke-miterlimit="10" fill="#4472C4"/><path d="M3748.69 15244.9C3748.69 15251 3743.76 15255.9 3737.69 15255.9 3731.61 15255.9 3726.69 15251 3726.69 15244.9 3726.69 15238.8 3731.61 15233.9 3737.69 15233.9 3743.76 15233.9 3748.69 15238.8 3748.69 15244.9Z" stroke="#4472C4" stroke-width="3.4375" stroke-linejoin="round" stroke-miterlimit="10" fill="#4472C4"/><path d="M3753.69 15242.9C3753.69 15249 3748.76 15253.9 3742.69 15253.9 3736.61 15253.9 3731.69 15249 3731.69 15242.9 3731.69 15236.8 3736.61 15231.9 3742.69 15231.9 3748.76 15231.9 3753.69 15236.8 3753.69 15242.9Z" stroke="#4472C4" stroke-width="3.4375" stroke-linejoin="round" stroke-miterlimit="10" fill="#4472C4"/><path d="M3758.69 15457.9C3758.69 15464 3753.76 15468.9 3747.69 15468.9 3741.61 15468.9 3736.69 15464 3736.69 15457.9 3736.69 15451.8 3741.61 15446.9 3747.69 15446.9 3753.76 15446.9 3758.69 15451.8 3758.69 15457.9Z" stroke="#4472C4" stroke-width="3.4375" stroke-linejoin="round" stroke-miterlimit="10" fill="#4472C4"/><path d="M3763.69 15457.9C3763.69 15464 3758.76 15468.9 3752.69 15468.9 3746.61 15468.9 3741.69 15464 3741.69 15457.9 3741.69 15451.8 3746.61 15446.9 3752.69 15446.9 3758.76 15446.9 3763.69 15451.8 3763.69 15457.9Z" stroke="#4472C4" stroke-width="3.4375" stroke-linejoin="round" stroke-miterlimit="10" fill="#4472C4"/><path d="M3768.69 15458.9C3768.69 15465 3763.76 15469.9 3757.69 15469.9 3751.61 15469.9 3746.69 15465 3746.69 15458.9 3746.69 15452.8 3751.61 15447.9 3757.69 15447.9 3763.76 15447.9 3768.69 15452.8 3768.69 15458.9Z" stroke="#4472C4" stroke-width="3.4375" stroke-linejoin="round" stroke-miterlimit="10" fill="#4472C4"/><path d="M3773.69 15244.9C3773.69 15251 3768.76 15255.9 3762.69 15255.9 3756.61 15255.9 3751.69 15251 3751.69 15244.9 3751.69 15238.8 3756.61 15233.9 3762.69 15233.9 3768.76 15233.9 3773.69 15238.8 3773.69 15244.9Z" stroke="#4472C4" stroke-width="3.4375" stroke-linejoin="round" stroke-miterlimit="10" fill="#4472C4"/><path d="M3778.69 15457.9C3778.69 15464 3773.76 15468.9 3767.69 15468.9 3761.61 15468.9 3756.69 15464 3756.69 15457.9 3756.69 15451.8 3761.61 15446.9 3767.69 15446.9 3773.76 15446.9 3778.69 15451.8 3778.69 15457.9Z" stroke="#4472C4" stroke-width="3.4375" stroke-linejoin="round" stroke-miterlimit="10" fill="#4472C4"/><path d="M3783.69 15458.9C3783.69 15465 3778.76 15469.9 3772.69 15469.9 3766.61 15469.9 3761.69 15465 3761.69 15458.9 3761.69 15452.8 3766.61 15447.9 3772.69 15447.9 3778.76 15447.9 3783.69 15452.8 3783.69 15458.9Z" stroke="#4472C4" stroke-width="3.4375" stroke-linejoin="round" stroke-miterlimit="10" fill="#4472C4"/><path d="M3788.69 15244.9C3788.69 15251 3783.76 15255.9 3777.69 15255.9 3771.61 15255.9 3766.69 15251 3766.69 15244.9 3766.69 15238.8 3771.61 15233.9 3777.69 15233.9 3783.76 15233.9 3788.69 15238.8 3788.69 15244.9Z" stroke="#4472C4" stroke-width="3.4375" stroke-linejoin="round" stroke-miterlimit="10" fill="#4472C4"/><path d="M3793.69 15244.9C3793.69 15251 3788.76 15255.9 3782.69 15255.9 3776.61 15255.9 3771.69 15251 3771.69 15244.9 3771.69 15238.8 3776.61 15233.9 3782.69 15233.9 3788.76 15233.9 3793.69 15238.8 3793.69 15244.9Z" stroke="#4472C4" stroke-width="3.4375" stroke-linejoin="round" stroke-miterlimit="10" fill="#4472C4"/><path d="M3799.69 15244.9C3799.69 15251 3794.76 15255.9 3788.69 15255.9 3782.61 15255.9 3777.69 15251 3777.69 15244.9 3777.69 15238.8 3782.61 15233.9 3788.69 15233.9 3794.76 15233.9 3799.69 15238.8 3799.69 15244.9Z" stroke="#4472C4" stroke-width="3.4375" stroke-linejoin="round" stroke-miterlimit="10" fill="#4472C4"/><path d="M3804.69 15244.9C3804.69 15251 3799.76 15255.9 3793.69 15255.9 3787.61 15255.9 3782.69 15251 3782.69 15244.9 3782.69 15238.8 3787.61 15233.9 3793.69 15233.9 3799.76 15233.9 3804.69 15238.8 3804.69 15244.9Z" stroke="#4472C4" stroke-width="3.4375" stroke-linejoin="round" stroke-miterlimit="10" fill="#4472C4"/></g><g clip-path="url(#clip10)"><path d="M0 0 1176 187" stroke="#C00000" stroke-width="6.875" stroke-linecap="round" stroke-linejoin="round" stroke-miterlimit="10" stroke-dasharray="0 13.75" fill="none" fill-rule="evenodd" transform="matrix(1 0 0 -1 2617.5 15513.5)"/></g><g clip-path="url(#clip11)"><text fill="#595959" font-family="Calibri,Calibri_MSFontService,sans-serif" font-weight="400" font-size="41" transform="matrix(1 0 0 1 3518.85 15162)">y = 395,53x + 109404</text></g><g clip-path="url(#clip12)"><text fill="#595959" font-family="Calibri,Calibri_MSFontService,sans-serif" font-weight="400" font-size="41" transform="matrix(1 0 0 1 2558.67 15749)">0</text></g><g clip-path="url(#clip13)"><text fill="#595959" font-family="Calibri,Calibri_MSFontService,sans-serif" font-weight="400" font-size="41" transform="matrix(1 0 0 1 2475.07 15647)">50000</text></g><g clip-path="url(#clip14)"><text fill="#595959" font-family="Calibri,Calibri_MSFontService,sans-serif" font-weight="400" font-size="41" transform="matrix(1 0 0 1 2454.17 15544)">100000</text></g><g clip-path="url(#clip15)"><text fill="#595959" font-family="Calibri,Calibri_MSFontService,sans-serif" font-weight="400" font-size="41" transform="matrix(1 0 0 1 2454.17 15441)">150000</text></g><g clip-path="url(#clip16)"><text fill="#595959" font-family="Calibri,Calibri_MSFontService,sans-serif" font-weight="400" font-size="41" transform="matrix(1 0 0 1 2454.17 15338)">200000</text></g><g clip-path="url(#clip17)"><text fill="#595959" font-family="Calibri,Calibri_MSFontService,sans-serif" font-weight="400" font-size="41" transform="matrix(1 0 0 1 2454.17 15236)">250000</text></g><g clip-path="url(#clip18)"><text fill="#595959" font-family="Calibri,Calibri_MSFontService,sans-serif" font-weight="400" font-size="41" transform="matrix(1 0 0 1 2454.17 15133)">300000</text></g><g clip-path="url(#clip19)"><text fill="#595959" font-family="Calibri,Calibri_MSFontService,sans-serif" font-weight="400" font-size="41" transform="matrix(1 0 0 1 2607.39 15803)">0</text></g><g clip-path="url(#clip20)"><text fill="#595959" font-family="Calibri,Calibri_MSFontService,sans-serif" font-weight="400" font-size="41" transform="matrix(1 0 0 1 2852.45 15803)">50</text></g><g clip-path="url(#clip21)"><text fill="#595959" font-family="Calibri,Calibri_MSFontService,sans-serif" font-weight="400" font-size="41" transform="matrix(1 0 0 1 3097.52 15803)">100</text></g><g clip-path="url(#clip22)"><text fill="#595959" font-family="Calibri,Calibri_MSFontService,sans-serif" font-weight="400" font-size="41" transform="matrix(1 0 0 1 3353.04 15803)">150</text></g><g clip-path="url(#clip23)"><text fill="#595959" font-family="Calibri,Calibri_MSFontService,sans-serif" font-weight="400" font-size="41" transform="matrix(1 0 0 1 3608.55 15803)">200</text></g><g clip-path="url(#clip24)"><text fill="#595959" font-family="Calibri,Calibri_MSFontService,sans-serif" font-weight="400" font-size="41" transform="matrix(1 0 0 1 3864.07 15803)">250</text></g><g clip-path="url(#clip25)"><text fill="#595959" font-family="Calibri,Calibri_MSFontService,sans-serif" font-weight="400" font-size="46" transform="matrix(6.12323e-17 -1 1 6.12323e-17 2428.48 15617)">Current Best Fitness</text></g><g clip-path="url(#clip26)"><text fill="#595959" font-family="Calibri,Calibri_MSFontService,sans-serif" font-weight="400" font-size="46" transform="matrix(1 0 0 1 3151.29 15872)">Generation</text></g><g clip-path="url(#clip27)"><text fill="#595959" font-family="Calibri,Calibri_MSFontService,sans-serif" font-weight="400" font-size="64" transform="matrix(1 0 0 1 2861.32 15047)">Best Fitness (RED Pop)</text></g><rect x="2327.5" y="14951.5" width="1650" height="990" stroke="#D9D9D9" stroke-width="3.4375" stroke-linejoin="round" stroke-miterlimit="10" fill="none"/></g></svg>