<svg width="1652" height="993" xmlns="http://www.w3.org/2000/svg" xmlns:xlink="http://www.w3.org/1999/xlink" overflow="hidden"><defs><clipPath id="clip0"><rect x="2117" y="13328" width="1652" height="993"/></clipPath><clipPath id="clip1"><rect x="2117" y="13328" width="1650" height="990"/></clipPath><clipPath id="clip2"><rect x="2117" y="13328" width="1650" height="990"/></clipPath><clipPath id="clip3"><rect x="2117" y="13328" width="1650" height="990"/></clipPath><clipPath id="clip4"><rect x="2117" y="13328" width="1650" height="990"/></clipPath><clipPath id="clip5"><rect x="2117" y="13328" width="1650" height="990"/></clipPath><clipPath id="clip6"><rect x="2117" y="13328" width="1650" height="990"/></clipPath><clipPath id="clip7"><rect x="2117" y="13328" width="1650" height="990"/></clipPath><clipPath id="clip8"><rect x="2117" y="13328" width="1650" height="990"/></clipPath><clipPath id="clip9"><rect x="2117" y="13328" width="1650" height="990"/></clipPath><clipPath id="clip10"><rect x="2399" y="13498" width="1286" height="700"/></clipPath><clipPath id="clip11"><rect x="2117" y="13328" width="1650" height="990"/></clipPath><clipPath id="clip12"><rect x="2117" y="13328" width="1650" height="990"/></clipPath><clipPath id="clip13"><rect x="2117" y="13328" width="1650" height="990"/></clipPath><clipPath id="clip14"><rect x="2117" y="13328" width="1650" height="990"/></clipPath><clipPath id="clip15"><rect x="2117" y="13328" width="1650" height="990"/></clipPath><clipPath id="clip16"><rect x="2117" y="13328" width="1650" height="990"/></clipPath><clipPath id="clip17"><rect x="2117" y="13328" width="1650" height="990"/></clipPath><clipPath id="clip18"><rect x="2117" y="13328" width="1650" height="990"/></clipPath><clipPath id="clip19"><rect x="2117" y="13328" width="1650" height="990"/></clipPath><clipPath id="clip20"><rect x="2117" y="13328" width="1650" height="990"/></clipPath><clipPath id="clip21"><rect x="2117" y="13328" width="1650" height="990"/></clipPath><clipPath id="clip22"><rect x="2117" y="13328" width="1650" height="990"/></clipPath><clipPath id="clip23"><rect x="2117" y="13328" width="1650" height="990"/></clipPath><clipPath id="clip24"><rect x="2117" y="13328" width="1650" height="990"/></clipPath><clipPath id="clip25"><rect x="2117" y="13328" width="1650" height="990"/></clipPath><clipPath id="clip26"><rect x="2117" y="13328" width="1650" height="990"/></clipPath><clipPath id="clip27"><rect x="2117" y="13328" width="1650" height="990"/></clipPath><clipPath id="clip28"><rect x="2117" y="13328" width="1650" height="990"/></clipPath><clipPath id="clip29"><rect x="2117" y="13328" width="1650" height="990"/></clipPath><clipPath id="clip30"><rect x="2117" y="13328" width="1650" height="990"/></clipPath></defs><g clip-path="url(#clip0)" transform="translate(-2117 -13328)"><rect x="2118" y="13329" width="1649" height="990" fill="#FFFFFF"/><g clip-path="url(#clip1)"><path d="M2399.5 14183 3685.5 14183M2399.5 14168 3685.5 14168M2399.5 14152 3685.5 14152M2399.5 14137 3685.5 14137M2399.5 14106 3685.5 14106M2399.5 14090 3685.5 14090M2399.5 14074 3685.5 14074M2399.5 14059 3685.5 14059M2399.5 14028 3685.5 14028M2399.5 14012 3685.5 14012M2399.5 13997 3685.5 13997M2399.5 13981 3685.5 13981M2399.5 13950 3685.5 13950M2399.5 13934 3685.5 13934M2399.5 13919 3685.5 13919M2399.5 13903 3685.5 13903M2399.5 13872 3685.5 13872M2399.5 13857 3685.5 13857M2399.5 13841 3685.5 13841M2399.5 13826 3685.5 13826M2399.5 13794 3685.5 13794M2399.5 13779 3685.5 13779M2399.5 13763 3685.5 13763M2399.5 13748 3685.5 13748M2399.5 13717 3685.5 13717M2399.5 13701 3685.5 13701M2399.5 13685.9 3685.5 13685.9M2399.5 13669.9 3685.5 13669.9M2399.5 13638.9 3685.5 13638.9M2399.5 13622.9 3685.5 13622.9M2399.5 13607.9 3685.5 13607.9M2399.5 13591.9 3685.5 13591.9M2399.5 13560.9 3685.5 13560.9M2399.5 13545.9 3685.5 13545.9M2399.5 13529.9 3685.5 13529.9M2399.5 13514.9 3685.5 13514.9" stroke="#F2F2F2" stroke-width="3.4375" stroke-linejoin="round" stroke-miterlimit="10" fill="none"/></g><g clip-path="url(#clip2)"><path d="M2399.5 14198.5 3685.5 14198.5M2399.5 14121 3685.5 14121M2399.5 14043 3685.5 14043M2399.5 13888 3685.5 13888M2399.5 13810 3685.5 13810M2399.5 13732 3685.5 13732M2399.5 13653.9 3685.5 13653.9M2399.5 13576.9 3685.5 13576.9M2399.5 13498.5 3685.5 13498.5" stroke="#D9D9D9" stroke-width="3.4375" stroke-linejoin="round" stroke-miterlimit="10" fill="none"/></g><g clip-path="url(#clip3)"><path d="M2451.58 13498.5 2451.58 14198.5M2502.58 13498.5 2502.58 14198.5M2554.58 13498.5 2554.58 14198.5M2605.59 13498.5 2605.59 14198.5M2708.59 13498.5 2708.59 14198.5M2759.59 13498.5 2759.59 14198.5M2811.59 13498.5 2811.59 14198.5M2862.59 13498.5 2862.59 14198.5M2965.6 13498.5 2965.6 14198.5M3016.6 13498.5 3016.6 14198.5M3068.6 13498.5 3068.6 14198.5M3119.6 13498.5 3119.6 14198.5M3222.61 13498.5 3222.61 14198.5M3274.61 13498.5 3274.61 14198.5M3325.61 13498.5 3325.61 14198.5M3377.61 13498.5 3377.61 14198.5M3479.61 13498.5 3479.61 14198.5M3531.62 13498.5 3531.62 14198.5M3582.62 13498.5 3582.62 14198.5M3634.62 13498.5 3634.62 14198.5" stroke="#F2F2F2" stroke-width="3.4375" stroke-linejoin="round" stroke-miterlimit="10" fill="none"/></g><g clip-path="url(#clip4)"><path d="M2656.59 13498.5 2656.59 14198.5M2914.6 13498.5 2914.6 14198.5M3171.6 13498.5 3171.6 14198.5M3428.61 13498.5 3428.61 14198.5M3685.5 13498.5 3685.5 14198.5" stroke="#D9D9D9" stroke-width="3.4375" stroke-linejoin="round" stroke-miterlimit="10" fill="none"/></g><g clip-path="url(#clip5)"><path d="M0 0 0.000360892 700" stroke="#BFBFBF" stroke-width="3.4375" stroke-linejoin="round" stroke-miterlimit="10" fill="none" fill-rule="evenodd" transform="matrix(1 0 0 -1 2399.5 14198.5)"/></g><g clip-path="url(#clip6)"><path d="M2386.5 14198.5 2399.5 14198.5M2386.5 14121 2399.5 14121M2386.5 14043 2399.5 14043M2386.5 13966 2399.5 13966M2386.5 13888 2399.5 13888M2386.5 13810 2399.5 13810M2386.5 13732 2399.5 13732M2386.5 13653.9 2399.5 13653.9M2386.5 13576.9 2399.5 13576.9M2386.5 13498.5 2399.5 13498.5" stroke="#BFBFBF" stroke-width="3.4375" stroke-linejoin="round" stroke-miterlimit="10" fill="none"/></g><g clip-path="url(#clip7)"><path d="M2399.5 13965.5 3685.5 13965.5" stroke="#BFBFBF" stroke-width="3.4375" stroke-linejoin="round" stroke-miterlimit="10" fill="none" fill-rule="evenodd"/></g><g clip-path="url(#clip8)"><path d="M2399.5 13965.5 2399.5 13978.5M2656.59 13965.5 2656.59 13978.5M2914.6 13965.5 2914.6 13978.5M3171.6 13965.5 3171.6 13978.5M3428.61 13965.5 3428.61 13978.5M3685.5 13965.5 3685.5 13978.5" stroke="#BFBFBF" stroke-width="3.4375" stroke-linejoin="round" stroke-miterlimit="10" fill="none"/></g><g clip-path="url(#clip9)"><path d="M2411 14096.4C2411 14102.5 2406.07 14107.4 2400 14107.4 2393.92 14107.4 2389 14102.5 2389 14096.4 2389 14090.3 2393.92 14085.4 2400 14085.4 2406.07 14085.4 2411 14090.3 2411 14096.4Z" stroke="#4472C4" stroke-width="3.4375" stroke-linejoin="round" stroke-miterlimit="10" fill="#4472C4"/><path d="M2417 13687.4C2417 13693.5 2412.07 13698.4 2406 13698.4 2399.92 13698.4 2395 13693.5 2395 13687.4 2395 13681.3 2399.92 13676.4 2406 13676.4 2412.07 13676.4 2417 13681.3 2417 13687.4Z" stroke="#4472C4" stroke-width="3.4375" stroke-linejoin="round" stroke-miterlimit="10" fill="#4472C4"/><path d="M2422 13573.4C2422 13579.5 2417.07 13584.4 2411 13584.4 2404.92 13584.4 2400 13579.5 2400 13573.4 2400 13567.3 2404.92 13562.4 2411 13562.4 2417.07 13562.4 2422 13567.3 2422 13573.4Z" stroke="#4472C4" stroke-width="3.4375" stroke-linejoin="round" stroke-miterlimit="10" fill="#4472C4"/><path d="M2427 13574.4C2427 13580.5 2422.07 13585.4 2416 13585.4 2409.92 13585.4 2405 13580.5 2405 13574.4 2405 13568.3 2409.92 13563.4 2416 13563.4 2422.07 13563.4 2427 13568.3 2427 13574.4Z" stroke="#4472C4" stroke-width="3.4375" stroke-linejoin="round" stroke-miterlimit="10" fill="#4472C4"/><path d="M2432 13571.4C2432 13577.5 2427.07 13582.4 2421 13582.4 2414.92 13582.4 2410 13577.5 2410 13571.4 2410 13565.3 2414.92 13560.4 2421 13560.4 2427.07 13560.4 2432 13565.3 2432 13571.4Z" stroke="#4472C4" stroke-width="3.4375" stroke-linejoin="round" stroke-miterlimit="10" fill="#4472C4"/><path d="M2437 13583.4C2437 13589.5 2432.07 13594.4 2426 13594.4 2419.92 13594.4 2415 13589.5 2415 13583.4 2415 13577.3 2419.92 13572.4 2426 13572.4 2432.07 13572.4 2437 13577.3 2437 13583.4Z" stroke="#4472C4" stroke-width="3.4375" stroke-linejoin="round" stroke-miterlimit="10" fill="#4472C4"/><path d="M2442 13743.4C2442 13749.5 2437.07 13754.4 2431 13754.4 2424.92 13754.4 2420 13749.5 2420 13743.4 2420 13737.3 2424.92 13732.4 2431 13732.4 2437.07 13732.4 2442 13737.3 2442 13743.4Z" stroke="#4472C4" stroke-width="3.4375" stroke-linejoin="round" stroke-miterlimit="10" fill="#4472C4"/><path d="M2447 13717.4C2447 13723.5 2442.07 13728.4 2436 13728.4 2429.92 13728.4 2425 13723.5 2425 13717.4 2425 13711.3 2429.92 13706.4 2436 13706.4 2442.07 13706.4 2447 13711.3 2447 13717.4Z" stroke="#4472C4" stroke-width="3.4375" stroke-linejoin="round" stroke-miterlimit="10" fill="#4472C4"/><path d="M2453 13750.4C2453 13756.5 2448.07 13761.4 2442 13761.4 2435.92 13761.4 2431 13756.5 2431 13750.4 2431 13744.3 2435.92 13739.4 2442 13739.4 2448.07 13739.4 2453 13744.3 2453 13750.4Z" stroke="#4472C4" stroke-width="3.4375" stroke-linejoin="round" stroke-miterlimit="10" fill="#4472C4"/><path d="M2458 13753.4C2458 13759.5 2453.07 13764.4 2447 13764.4 2440.92 13764.4 2436 13759.5 2436 13753.4 2436 13747.3 2440.92 13742.4 2447 13742.4 2453.07 13742.4 2458 13747.3 2458 13753.4Z" stroke="#4472C4" stroke-width="3.4375" stroke-linejoin="round" stroke-miterlimit="10" fill="#4472C4"/><path d="M2463 13684.4C2463 13690.5 2458.07 13695.4 2452 13695.4 2445.92 13695.4 2441 13690.5 2441 13684.4 2441 13678.3 2445.92 13673.4 2452 13673.4 2458.07 13673.4 2463 13678.3 2463 13684.4Z" stroke="#4472C4" stroke-width="3.4375" stroke-linejoin="round" stroke-miterlimit="10" fill="#4472C4"/><path d="M2468 13768.4C2468 13774.5 2463.07 13779.4 2457 13779.4 2450.92 13779.4 2446 13774.5 2446 13768.4 2446 13762.3 2450.92 13757.4 2457 13757.4 2463.07 13757.4 2468 13762.3 2468 13768.4Z" stroke="#4472C4" stroke-width="3.4375" stroke-linejoin="round" stroke-miterlimit="10" fill="#4472C4"/><path d="M2473 13713.4C2473 13719.5 2468.07 13724.4 2462 13724.4 2455.92 13724.4 2451 13719.5 2451 13713.4 2451 13707.3 2455.92 13702.4 2462 13702.4 2468.07 13702.4 2473 13707.3 2473 13713.4Z" stroke="#4472C4" stroke-width="3.4375" stroke-linejoin="round" stroke-miterlimit="10" fill="#4472C4"/><path d="M2478 13747.4C2478 13753.5 2473.07 13758.4 2467 13758.4 2460.92 13758.4 2456 13753.5 2456 13747.4 2456 13741.3 2460.92 13736.4 2467 13736.4 2473.07 13736.4 2478 13741.3 2478 13747.4Z" stroke="#4472C4" stroke-width="3.4375" stroke-linejoin="round" stroke-miterlimit="10" fill="#4472C4"/><path d="M2483 13681.4C2483 13687.5 2478.07 13692.4 2472 13692.4 2465.92 13692.4 2461 13687.5 2461 13681.4 2461 13675.3 2465.92 13670.4 2472 13670.4 2478.07 13670.4 2483 13675.3 2483 13681.4Z" stroke="#4472C4" stroke-width="3.4375" stroke-linejoin="round" stroke-miterlimit="10" fill="#4472C4"/><path d="M2489 13724.4C2489 13730.5 2484.07 13735.4 2478 13735.4 2471.92 13735.4 2467 13730.5 2467 13724.4 2467 13718.3 2471.92 13713.4 2478 13713.4 2484.07 13713.4 2489 13718.3 2489 13724.4Z" stroke="#4472C4" stroke-width="3.4375" stroke-linejoin="round" stroke-miterlimit="10" fill="#4472C4"/><path d="M2494 13789.4C2494 13795.5 2489.07 13800.4 2483 13800.4 2476.92 13800.4 2472 13795.5 2472 13789.4 2472 13783.3 2476.92 13778.4 2483 13778.4 2489.07 13778.4 2494 13783.3 2494 13789.4Z" stroke="#4472C4" stroke-width="3.4375" stroke-linejoin="round" stroke-miterlimit="10" fill="#4472C4"/><path d="M2499 13782.4C2499 13788.5 2494.07 13793.4 2488 13793.4 2481.92 13793.4 2477 13788.5 2477 13782.4 2477 13776.3 2481.92 13771.4 2488 13771.4 2494.07 13771.4 2499 13776.3 2499 13782.4Z" stroke="#4472C4" stroke-width="3.4375" stroke-linejoin="round" stroke-miterlimit="10" fill="#4472C4"/><path d="M2504 13776.4C2504 13782.5 2499.07 13787.4 2493 13787.4 2486.92 13787.4 2482 13782.5 2482 13776.4 2482 13770.3 2486.92 13765.4 2493 13765.4 2499.07 13765.4 2504 13770.3 2504 13776.4Z" stroke="#4472C4" stroke-width="3.4375" stroke-linejoin="round" stroke-miterlimit="10" fill="#4472C4"/><path d="M2509 13760.4C2509 13766.5 2504.07 13771.4 2498 13771.4 2491.92 13771.4 2487 13766.5 2487 13760.4 2487 13754.3 2491.92 13749.4 2498 13749.4 2504.07 13749.4 2509 13754.3 2509 13760.4Z" stroke="#4472C4" stroke-width="3.4375" stroke-linejoin="round" stroke-miterlimit="10" fill="#4472C4"/><path d="M2514 13823.4C2514 13829.5 2509.07 13834.4 2503 13834.4 2496.92 13834.4 2492 13829.5 2492 13823.4 2492 13817.3 2496.92 13812.4 2503 13812.4 2509.07 13812.4 2514 13817.3 2514 13823.4Z" stroke="#4472C4" stroke-width="3.4375" stroke-linejoin="round" stroke-miterlimit="10" fill="#4472C4"/><path d="M2519 13683.4C2519 13689.5 2514.07 13694.4 2508 13694.4 2501.92 13694.4 2497 13689.5 2497 13683.4 2497 13677.3 2501.92 13672.4 2508 13672.4 2514.07 13672.4 2519 13677.3 2519 13683.4Z" stroke="#4472C4" stroke-width="3.4375" stroke-linejoin="round" stroke-miterlimit="10" fill="#4472C4"/><path d="M2525 13770.4C2525 13776.5 2520.07 13781.4 2514 13781.4 2507.92 13781.4 2503 13776.5 2503 13770.4 2503 13764.3 2507.92 13759.4 2514 13759.4 2520.07 13759.4 2525 13764.3 2525 13770.4Z" stroke="#4472C4" stroke-width="3.4375" stroke-linejoin="round" stroke-miterlimit="10" fill="#4472C4"/><path d="M2530 13709.4C2530 13715.5 2525.07 13720.4 2519 13720.4 2512.92 13720.4 2508 13715.5 2508 13709.4 2508 13703.3 2512.92 13698.4 2519 13698.4 2525.07 13698.4 2530 13703.3 2530 13709.4Z" stroke="#4472C4" stroke-width="3.4375" stroke-linejoin="round" stroke-miterlimit="10" fill="#4472C4"/><path d="M2535 13810.4C2535 13816.5 2530.07 13821.4 2524 13821.4 2517.92 13821.4 2513 13816.5 2513 13810.4 2513 13804.3 2517.92 13799.4 2524 13799.4 2530.07 13799.4 2535 13804.3 2535 13810.4Z" stroke="#4472C4" stroke-width="3.4375" stroke-linejoin="round" stroke-miterlimit="10" fill="#4472C4"/><path d="M2540 13790.4C2540 13796.5 2535.07 13801.4 2529 13801.4 2522.92 13801.4 2518 13796.5 2518 13790.4 2518 13784.3 2522.92 13779.4 2529 13779.4 2535.07 13779.4 2540 13784.3 2540 13790.4Z" stroke="#4472C4" stroke-width="3.4375" stroke-linejoin="round" stroke-miterlimit="10" fill="#4472C4"/><path d="M2545 13714.4C2545 13720.5 2540.07 13725.4 2534 13725.4 2527.92 13725.4 2523 13720.5 2523 13714.4 2523 13708.3 2527.92 13703.4 2534 13703.4 2540.07 13703.4 2545 13708.3 2545 13714.4Z" stroke="#4472C4" stroke-width="3.4375" stroke-linejoin="round" stroke-miterlimit="10" fill="#4472C4"/><path d="M2550 13778.4C2550 13784.5 2545.07 13789.4 2539 13789.4 2532.92 13789.4 2528 13784.5 2528 13778.4 2528 13772.3 2532.92 13767.4 2539 13767.4 2545.07 13767.4 2550 13772.3 2550 13778.4Z" stroke="#4472C4" stroke-width="3.4375" stroke-linejoin="round" stroke-miterlimit="10" fill="#4472C4"/><path d="M2555 13802.4C2555 13808.5 2550.07 13813.4 2544 13813.4 2537.92 13813.4 2533 13808.5 2533 13802.4 2533 13796.3 2537.92 13791.4 2544 13791.4 2550.07 13791.4 2555 13796.3 2555 13802.4Z" stroke="#4472C4" stroke-width="3.4375" stroke-linejoin="round" stroke-miterlimit="10" fill="#4472C4"/><path d="M2561 13746.4C2561 13752.5 2556.07 13757.4 2550 13757.4 2543.92 13757.4 2539 13752.5 2539 13746.4 2539 13740.3 2543.92 13735.4 2550 13735.4 2556.07 13735.4 2561 13740.3 2561 13746.4Z" stroke="#4472C4" stroke-width="3.4375" stroke-linejoin="round" stroke-miterlimit="10" fill="#4472C4"/><path d="M2566 13732.4C2566 13738.5 2561.07 13743.4 2555 13743.4 2548.92 13743.4 2544 13738.5 2544 13732.4 2544 13726.3 2548.92 13721.4 2555 13721.4 2561.07 13721.4 2566 13726.3 2566 13732.4Z" stroke="#4472C4" stroke-width="3.4375" stroke-linejoin="round" stroke-miterlimit="10" fill="#4472C4"/><path d="M2571 13756.4C2571 13762.5 2566.07 13767.4 2560 13767.4 2553.92 13767.4 2549 13762.5 2549 13756.4 2549 13750.3 2553.92 13745.4 2560 13745.4 2566.07 13745.4 2571 13750.3 2571 13756.4Z" stroke="#4472C4" stroke-width="3.4375" stroke-linejoin="round" stroke-miterlimit="10" fill="#4472C4"/><path d="M2576 13767.4C2576 13773.5 2571.07 13778.4 2565 13778.4 2558.92 13778.4 2554 13773.5 2554 13767.4 2554 13761.3 2558.92 13756.4 2565 13756.4 2571.07 13756.4 2576 13761.3 2576 13767.4Z" stroke="#4472C4" stroke-width="3.4375" stroke-linejoin="round" stroke-miterlimit="10" fill="#4472C4"/><path d="M2581 13801.4C2581 13807.5 2576.07 13812.4 2570 13812.4 2563.92 13812.4 2559 13807.5 2559 13801.4 2559 13795.3 2563.92 13790.4 2570 13790.4 2576.07 13790.4 2581 13795.3 2581 13801.4Z" stroke="#4472C4" stroke-width="3.4375" stroke-linejoin="round" stroke-miterlimit="10" fill="#4472C4"/><path d="M2586 13738.4C2586 13744.5 2581.07 13749.4 2575 13749.4 2568.92 13749.4 2564 13744.5 2564 13738.4 2564 13732.3 2568.92 13727.4 2575 13727.4 2581.07 13727.4 2586 13732.3 2586 13738.4Z" stroke="#4472C4" stroke-width="3.4375" stroke-linejoin="round" stroke-miterlimit="10" fill="#4472C4"/><path d="M2591 13792.4C2591 13798.5 2586.07 13803.4 2580 13803.4 2573.92 13803.4 2569 13798.5 2569 13792.4 2569 13786.3 2573.92 13781.4 2580 13781.4 2586.07 13781.4 2591 13786.3 2591 13792.4Z" stroke="#4472C4" stroke-width="3.4375" stroke-linejoin="round" stroke-miterlimit="10" fill="#4472C4"/><path d="M2597 13735.4C2597 13741.5 2592.07 13746.4 2586 13746.4 2579.92 13746.4 2575 13741.5 2575 13735.4 2575 13729.3 2579.92 13724.4 2586 13724.4 2592.07 13724.4 2597 13729.3 2597 13735.4Z" stroke="#4472C4" stroke-width="3.4375" stroke-linejoin="round" stroke-miterlimit="10" fill="#4472C4"/><path d="M2602 13778.4C2602 13784.5 2597.07 13789.4 2591 13789.4 2584.92 13789.4 2580 13784.5 2580 13778.4 2580 13772.3 2584.92 13767.4 2591 13767.4 2597.07 13767.4 2602 13772.3 2602 13778.4Z" stroke="#4472C4" stroke-width="3.4375" stroke-linejoin="round" stroke-miterlimit="10" fill="#4472C4"/><path d="M2607 13822.4C2607 13828.5 2602.07 13833.4 2596 13833.4 2589.92 13833.4 2585 13828.5 2585 13822.4 2585 13816.3 2589.92 13811.4 2596 13811.4 2602.07 13811.4 2607 13816.3 2607 13822.4Z" stroke="#4472C4" stroke-width="3.4375" stroke-linejoin="round" stroke-miterlimit="10" fill="#4472C4"/><path d="M2612 13734.4C2612 13740.5 2607.07 13745.4 2601 13745.4 2594.92 13745.4 2590 13740.5 2590 13734.4 2590 13728.3 2594.92 13723.4 2601 13723.4 2607.07 13723.4 2612 13728.3 2612 13734.4Z" stroke="#4472C4" stroke-width="3.4375" stroke-linejoin="round" stroke-miterlimit="10" fill="#4472C4"/><path d="M2617 13812.4C2617 13818.5 2612.07 13823.4 2606 13823.4 2599.92 13823.4 2595 13818.5 2595 13812.4 2595 13806.3 2599.92 13801.4 2606 13801.4 2612.07 13801.4 2617 13806.3 2617 13812.4Z" stroke="#4472C4" stroke-width="3.4375" stroke-linejoin="round" stroke-miterlimit="10" fill="#4472C4"/><path d="M2622 13772.4C2622 13778.5 2617.07 13783.4 2611 13783.4 2604.92 13783.4 2600 13778.5 2600 13772.4 2600 13766.3 2604.92 13761.4 2611 13761.4 2617.07 13761.4 2622 13766.3 2622 13772.4Z" stroke="#4472C4" stroke-width="3.4375" stroke-linejoin="round" stroke-miterlimit="10" fill="#4472C4"/><path d="M2627 13728.4C2627 13734.5 2622.07 13739.4 2616 13739.4 2609.92 13739.4 2605 13734.5 2605 13728.4 2605 13722.3 2609.92 13717.4 2616 13717.4 2622.07 13717.4 2627 13722.3 2627 13728.4Z" stroke="#4472C4" stroke-width="3.4375" stroke-linejoin="round" stroke-miterlimit="10" fill="#4472C4"/><path d="M2633 13772.4C2633 13778.5 2628.07 13783.4 2622 13783.4 2615.92 13783.4 2611 13778.5 2611 13772.4 2611 13766.3 2615.92 13761.4 2622 13761.4 2628.07 13761.4 2633 13766.3 2633 13772.4Z" stroke="#4472C4" stroke-width="3.4375" stroke-linejoin="round" stroke-miterlimit="10" fill="#4472C4"/><path d="M2638 13786.4C2638 13792.5 2633.07 13797.4 2627 13797.4 2620.92 13797.4 2616 13792.5 2616 13786.4 2616 13780.3 2620.92 13775.4 2627 13775.4 2633.07 13775.4 2638 13780.3 2638 13786.4Z" stroke="#4472C4" stroke-width="3.4375" stroke-linejoin="round" stroke-miterlimit="10" fill="#4472C4"/><path d="M2643 13738.4C2643 13744.5 2638.07 13749.4 2632 13749.4 2625.92 13749.4 2621 13744.5 2621 13738.4 2621 13732.3 2625.92 13727.4 2632 13727.4 2638.07 13727.4 2643 13732.3 2643 13738.4Z" stroke="#4472C4" stroke-width="3.4375" stroke-linejoin="round" stroke-miterlimit="10" fill="#4472C4"/><path d="M2648 13782.4C2648 13788.5 2643.07 13793.4 2637 13793.4 2630.92 13793.4 2626 13788.5 2626 13782.4 2626 13776.3 2630.92 13771.4 2637 13771.4 2643.07 13771.4 2648 13776.3 2648 13782.4Z" stroke="#4472C4" stroke-width="3.4375" stroke-linejoin="round" stroke-miterlimit="10" fill="#4472C4"/><path d="M2653 13754.4C2653 13760.5 2648.07 13765.4 2642 13765.4 2635.92 13765.4 2631 13760.5 2631 13754.4 2631 13748.3 2635.92 13743.4 2642 13743.4 2648.07 13743.4 2653 13748.3 2653 13754.4Z" stroke="#4472C4" stroke-width="3.4375" stroke-linejoin="round" stroke-miterlimit="10" fill="#4472C4"/><path d="M2658 13749.4C2658 13755.5 2653.07 13760.4 2647 13760.4 2640.92 13760.4 2636 13755.5 2636 13749.4 2636 13743.3 2640.92 13738.4 2647 13738.4 2653.07 13738.4 2658 13743.3 2658 13749.4Z" stroke="#4472C4" stroke-width="3.4375" stroke-linejoin="round" stroke-miterlimit="10" fill="#4472C4"/><path d="M2663 13747.4C2663 13753.5 2658.07 13758.4 2652 13758.4 2645.92 13758.4 2641 13753.5 2641 13747.4 2641 13741.3 2645.92 13736.4 2652 13736.4 2658.07 13736.4 2663 13741.3 2663 13747.4Z" stroke="#4472C4" stroke-width="3.4375" stroke-linejoin="round" stroke-miterlimit="10" fill="#4472C4"/><path d="M2669 13757.4C2669 13763.5 2664.07 13768.4 2658 13768.4 2651.92 13768.4 2647 13763.5 2647 13757.4 2647 13751.3 2651.92 13746.4 2658 13746.4 2664.07 13746.4 2669 13751.3 2669 13757.4Z" stroke="#4472C4" stroke-width="3.4375" stroke-linejoin="round" stroke-miterlimit="10" fill="#4472C4"/><path d="M2674 13751.4C2674 13757.5 2669.07 13762.4 2663 13762.4 2656.92 13762.4 2652 13757.5 2652 13751.4 2652 13745.3 2656.92 13740.4 2663 13740.4 2669.07 13740.4 2674 13745.3 2674 13751.4Z" stroke="#4472C4" stroke-width="3.4375" stroke-linejoin="round" stroke-miterlimit="10" fill="#4472C4"/><path d="M2679 13780.4C2679 13786.5 2674.07 13791.4 2668 13791.4 2661.92 13791.4 2657 13786.5 2657 13780.4 2657 13774.3 2661.92 13769.4 2668 13769.4 2674.07 13769.4 2679 13774.3 2679 13780.4Z" stroke="#4472C4" stroke-width="3.4375" stroke-linejoin="round" stroke-miterlimit="10" fill="#4472C4"/><path d="M2684 13781.4C2684 13787.5 2679.07 13792.4 2673 13792.4 2666.92 13792.4 2662 13787.5 2662 13781.4 2662 13775.3 2666.92 13770.4 2673 13770.4 2679.07 13770.4 2684 13775.3 2684 13781.4Z" stroke="#4472C4" stroke-width="3.4375" stroke-linejoin="round" stroke-miterlimit="10" fill="#4472C4"/><path d="M2689 13768.4C2689 13774.5 2684.07 13779.4 2678 13779.4 2671.92 13779.4 2667 13774.5 2667 13768.4 2667 13762.3 2671.92 13757.4 2678 13757.4 2684.07 13757.4 2689 13762.3 2689 13768.4Z" stroke="#4472C4" stroke-width="3.4375" stroke-linejoin="round" stroke-miterlimit="10" fill="#4472C4"/><path d="M2694 13743.4C2694 13749.5 2689.07 13754.4 2683 13754.4 2676.92 13754.4 2672 13749.5 2672 13743.4 2672 13737.3 2676.92 13732.4 2683 13732.4 2689.07 13732.4 2694 13737.3 2694 13743.4Z" stroke="#4472C4" stroke-width="3.4375" stroke-linejoin="round" stroke-miterlimit="10" fill="#4472C4"/><path d="M2699 13812.4C2699 13818.5 2694.07 13823.4 2688 13823.4 2681.92 13823.4 2677 13818.5 2677 13812.4 2677 13806.3 2681.92 13801.4 2688 13801.4 2694.07 13801.4 2699 13806.3 2699 13812.4Z" stroke="#4472C4" stroke-width="3.4375" stroke-linejoin="round" stroke-miterlimit="10" fill="#4472C4"/><path d="M2705 13730.4C2705 13736.5 2700.07 13741.4 2694 13741.4 2687.92 13741.4 2683 13736.5 2683 13730.4 2683 13724.3 2687.92 13719.4 2694 13719.4 2700.07 13719.4 2705 13724.3 2705 13730.4Z" stroke="#4472C4" stroke-width="3.4375" stroke-linejoin="round" stroke-miterlimit="10" fill="#4472C4"/><path d="M2710 13753.4C2710 13759.5 2705.07 13764.4 2699 13764.4 2692.92 13764.4 2688 13759.5 2688 13753.4 2688 13747.3 2692.92 13742.4 2699 13742.4 2705.07 13742.4 2710 13747.3 2710 13753.4Z" stroke="#4472C4" stroke-width="3.4375" stroke-linejoin="round" stroke-miterlimit="10" fill="#4472C4"/><path d="M2715 13764.4C2715 13770.5 2710.07 13775.4 2704 13775.4 2697.92 13775.4 2693 13770.5 2693 13764.4 2693 13758.3 2697.92 13753.4 2704 13753.4 2710.07 13753.4 2715 13758.3 2715 13764.4Z" stroke="#4472C4" stroke-width="3.4375" stroke-linejoin="round" stroke-miterlimit="10" fill="#4472C4"/><path d="M2720 13769.4C2720 13775.5 2715.07 13780.4 2709 13780.4 2702.92 13780.4 2698 13775.5 2698 13769.4 2698 13763.3 2702.92 13758.4 2709 13758.4 2715.07 13758.4 2720 13763.3 2720 13769.4Z" stroke="#4472C4" stroke-width="3.4375" stroke-linejoin="round" stroke-miterlimit="10" fill="#4472C4"/><path d="M2725 13762.4C2725 13768.5 2720.07 13773.4 2714 13773.4 2707.92 13773.4 2703 13768.5 2703 13762.4 2703 13756.3 2707.92 13751.4 2714 13751.4 2720.07 13751.4 2725 13756.3 2725 13762.4Z" stroke="#4472C4" stroke-width="3.4375" stroke-linejoin="round" stroke-miterlimit="10" fill="#4472C4"/><path d="M2730 13706.4C2730 13712.5 2725.07 13717.4 2719 13717.4 2712.92 13717.4 2708 13712.5 2708 13706.4 2708 13700.3 2712.92 13695.4 2719 13695.4 2725.07 13695.4 2730 13700.3 2730 13706.4Z" stroke="#4472C4" stroke-width="3.4375" stroke-linejoin="round" stroke-miterlimit="10" fill="#4472C4"/><path d="M2735 13817.4C2735 13823.5 2730.07 13828.4 2724 13828.4 2717.92 13828.4 2713 13823.5 2713 13817.4 2713 13811.3 2717.92 13806.4 2724 13806.4 2730.07 13806.4 2735 13811.3 2735 13817.4Z" stroke="#4472C4" stroke-width="3.4375" stroke-linejoin="round" stroke-miterlimit="10" fill="#4472C4"/><path d="M2741 13820.4C2741 13826.5 2736.07 13831.4 2730 13831.4 2723.92 13831.4 2719 13826.5 2719 13820.4 2719 13814.3 2723.92 13809.4 2730 13809.4 2736.07 13809.4 2741 13814.3 2741 13820.4Z" stroke="#4472C4" stroke-width="3.4375" stroke-linejoin="round" stroke-miterlimit="10" fill="#4472C4"/><path d="M2746 13789.4C2746 13795.5 2741.07 13800.4 2735 13800.4 2728.92 13800.4 2724 13795.5 2724 13789.4 2724 13783.3 2728.92 13778.4 2735 13778.4 2741.07 13778.4 2746 13783.3 2746 13789.4Z" stroke="#4472C4" stroke-width="3.4375" stroke-linejoin="round" stroke-miterlimit="10" fill="#4472C4"/><path d="M2751 13737.4C2751 13743.5 2746.07 13748.4 2740 13748.4 2733.92 13748.4 2729 13743.5 2729 13737.4 2729 13731.3 2733.92 13726.4 2740 13726.4 2746.07 13726.4 2751 13731.3 2751 13737.4Z" stroke="#4472C4" stroke-width="3.4375" stroke-linejoin="round" stroke-miterlimit="10" fill="#4472C4"/><path d="M2756 13781.4C2756 13787.5 2751.07 13792.4 2745 13792.4 2738.92 13792.4 2734 13787.5 2734 13781.4 2734 13775.3 2738.92 13770.4 2745 13770.4 2751.07 13770.4 2756 13775.3 2756 13781.4Z" stroke="#4472C4" stroke-width="3.4375" stroke-linejoin="round" stroke-miterlimit="10" fill="#4472C4"/><path d="M2761 13786.4C2761 13792.5 2756.07 13797.4 2750 13797.4 2743.92 13797.4 2739 13792.5 2739 13786.4 2739 13780.3 2743.92 13775.4 2750 13775.4 2756.07 13775.4 2761 13780.3 2761 13786.4Z" stroke="#4472C4" stroke-width="3.4375" stroke-linejoin="round" stroke-miterlimit="10" fill="#4472C4"/><path d="M2766 13746.4C2766 13752.5 2761.07 13757.4 2755 13757.4 2748.92 13757.4 2744 13752.5 2744 13746.4 2744 13740.3 2748.92 13735.4 2755 13735.4 2761.07 13735.4 2766 13740.3 2766 13746.4Z" stroke="#4472C4" stroke-width="3.4375" stroke-linejoin="round" stroke-miterlimit="10" fill="#4472C4"/><path d="M2771 13776.4C2771 13782.5 2766.07 13787.4 2760 13787.4 2753.92 13787.4 2749 13782.5 2749 13776.4 2749 13770.3 2753.92 13765.4 2760 13765.4 2766.07 13765.4 2771 13770.3 2771 13776.4Z" stroke="#4472C4" stroke-width="3.4375" stroke-linejoin="round" stroke-miterlimit="10" fill="#4472C4"/><path d="M2777 13793.4C2777 13799.5 2772.07 13804.4 2766 13804.4 2759.92 13804.4 2755 13799.5 2755 13793.4 2755 13787.3 2759.92 13782.4 2766 13782.4 2772.07 13782.4 2777 13787.3 2777 13793.4Z" stroke="#4472C4" stroke-width="3.4375" stroke-linejoin="round" stroke-miterlimit="10" fill="#4472C4"/><path d="M2782 13777.4C2782 13783.5 2777.07 13788.4 2771 13788.4 2764.92 13788.4 2760 13783.5 2760 13777.4 2760 13771.3 2764.92 13766.4 2771 13766.4 2777.07 13766.4 2782 13771.3 2782 13777.4Z" stroke="#4472C4" stroke-width="3.4375" stroke-linejoin="round" stroke-miterlimit="10" fill="#4472C4"/><path d="M2787 13714.4C2787 13720.5 2782.07 13725.4 2776 13725.4 2769.92 13725.4 2765 13720.5 2765 13714.4 2765 13708.3 2769.92 13703.4 2776 13703.4 2782.07 13703.4 2787 13708.3 2787 13714.4Z" stroke="#4472C4" stroke-width="3.4375" stroke-linejoin="round" stroke-miterlimit="10" fill="#4472C4"/><path d="M2792 13736.4C2792 13742.5 2787.07 13747.4 2781 13747.4 2774.92 13747.4 2770 13742.5 2770 13736.4 2770 13730.3 2774.92 13725.4 2781 13725.4 2787.07 13725.4 2792 13730.3 2792 13736.4Z" stroke="#4472C4" stroke-width="3.4375" stroke-linejoin="round" stroke-miterlimit="10" fill="#4472C4"/><path d="M2797 13771.4C2797 13777.5 2792.07 13782.4 2786 13782.4 2779.92 13782.4 2775 13777.5 2775 13771.4 2775 13765.3 2779.92 13760.4 2786 13760.4 2792.07 13760.4 2797 13765.3 2797 13771.4Z" stroke="#4472C4" stroke-width="3.4375" stroke-linejoin="round" stroke-miterlimit="10" fill="#4472C4"/><path d="M2802 13702.4C2802 13708.5 2797.07 13713.4 2791 13713.4 2784.92 13713.4 2780 13708.5 2780 13702.4 2780 13696.3 2784.92 13691.4 2791 13691.4 2797.07 13691.4 2802 13696.3 2802 13702.4Z" stroke="#4472C4" stroke-width="3.4375" stroke-linejoin="round" stroke-miterlimit="10" fill="#4472C4"/><path d="M2807 13786.4C2807 13792.5 2802.07 13797.4 2796 13797.4 2789.92 13797.4 2785 13792.5 2785 13786.4 2785 13780.3 2789.92 13775.4 2796 13775.4 2802.07 13775.4 2807 13780.3 2807 13786.4Z" stroke="#4472C4" stroke-width="3.4375" stroke-linejoin="round" stroke-miterlimit="10" fill="#4472C4"/><path d="M2813 13759.4C2813 13765.5 2808.07 13770.4 2802 13770.4 2795.92 13770.4 2791 13765.5 2791 13759.4 2791 13753.3 2795.92 13748.4 2802 13748.4 2808.07 13748.4 2813 13753.3 2813 13759.4Z" stroke="#4472C4" stroke-width="3.4375" stroke-linejoin="round" stroke-miterlimit="10" fill="#4472C4"/><path d="M2818 13719.4C2818 13725.5 2813.07 13730.4 2807 13730.4 2800.92 13730.4 2796 13725.5 2796 13719.4 2796 13713.3 2800.92 13708.4 2807 13708.4 2813.07 13708.4 2818 13713.3 2818 13719.4Z" stroke="#4472C4" stroke-width="3.4375" stroke-linejoin="round" stroke-miterlimit="10" fill="#4472C4"/><path d="M2823 13751.4C2823 13757.5 2818.07 13762.4 2812 13762.4 2805.92 13762.4 2801 13757.5 2801 13751.4 2801 13745.3 2805.92 13740.4 2812 13740.4 2818.07 13740.4 2823 13745.3 2823 13751.4Z" stroke="#4472C4" stroke-width="3.4375" stroke-linejoin="round" stroke-miterlimit="10" fill="#4472C4"/><path d="M2828 13801.4C2828 13807.5 2823.07 13812.4 2817 13812.4 2810.92 13812.4 2806 13807.5 2806 13801.4 2806 13795.3 2810.92 13790.4 2817 13790.4 2823.07 13790.4 2828 13795.3 2828 13801.4Z" stroke="#4472C4" stroke-width="3.4375" stroke-linejoin="round" stroke-miterlimit="10" fill="#4472C4"/><path d="M2833 13738.4C2833 13744.5 2828.07 13749.4 2822 13749.4 2815.92 13749.4 2811 13744.5 2811 13738.4 2811 13732.3 2815.92 13727.4 2822 13727.4 2828.07 13727.4 2833 13732.3 2833 13738.4Z" stroke="#4472C4" stroke-width="3.4375" stroke-linejoin="round" stroke-miterlimit="10" fill="#4472C4"/><path d="M2838 13718.4C2838 13724.5 2833.07 13729.4 2827 13729.4 2820.92 13729.4 2816 13724.5 2816 13718.4 2816 13712.3 2820.92 13707.4 2827 13707.4 2833.07 13707.4 2838 13712.3 2838 13718.4Z" stroke="#4472C4" stroke-width="3.4375" stroke-linejoin="round" stroke-miterlimit="10" fill="#4472C4"/><path d="M2843 13769.4C2843 13775.5 2838.07 13780.4 2832 13780.4 2825.92 13780.4 2821 13775.5 2821 13769.4 2821 13763.3 2825.92 13758.4 2832 13758.4 2838.07 13758.4 2843 13763.3 2843 13769.4Z" stroke="#4472C4" stroke-width="3.4375" stroke-linejoin="round" stroke-miterlimit="10" fill="#4472C4"/><path d="M2849 13777.4C2849 13783.5 2844.07 13788.4 2838 13788.4 2831.92 13788.4 2827 13783.5 2827 13777.4 2827 13771.3 2831.92 13766.4 2838 13766.4 2844.07 13766.4 2849 13771.3 2849 13777.4Z" stroke="#4472C4" stroke-width="3.4375" stroke-linejoin="round" stroke-miterlimit="10" fill="#4472C4"/><path d="M2854 13765.4C2854 13771.5 2849.07 13776.4 2843 13776.4 2836.92 13776.4 2832 13771.5 2832 13765.4 2832 13759.3 2836.92 13754.4 2843 13754.4 2849.07 13754.4 2854 13759.3 2854 13765.4Z" stroke="#4472C4" stroke-width="3.4375" stroke-linejoin="round" stroke-miterlimit="10" fill="#4472C4"/><path d="M2859 13774.4C2859 13780.5 2854.07 13785.4 2848 13785.4 2841.92 13785.4 2837 13780.5 2837 13774.4 2837 13768.3 2841.92 13763.4 2848 13763.4 2854.07 13763.4 2859 13768.3 2859 13774.4Z" stroke="#4472C4" stroke-width="3.4375" stroke-linejoin="round" stroke-miterlimit="10" fill="#4472C4"/><path d="M2864 13751.4C2864 13757.5 2859.07 13762.4 2853 13762.4 2846.92 13762.4 2842 13757.5 2842 13751.4 2842 13745.3 2846.92 13740.4 2853 13740.4 2859.07 13740.4 2864 13745.3 2864 13751.4Z" stroke="#4472C4" stroke-width="3.4375" stroke-linejoin="round" stroke-miterlimit="10" fill="#4472C4"/><path d="M2869 13737.4C2869 13743.5 2864.07 13748.4 2858 13748.4 2851.92 13748.4 2847 13743.5 2847 13737.4 2847 13731.3 2851.92 13726.4 2858 13726.4 2864.07 13726.4 2869 13731.3 2869 13737.4Z" stroke="#4472C4" stroke-width="3.4375" stroke-linejoin="round" stroke-miterlimit="10" fill="#4472C4"/><path d="M2874 13703.4C2874 13709.5 2869.07 13714.4 2863 13714.4 2856.92 13714.4 2852 13709.5 2852 13703.4 2852 13697.3 2856.92 13692.4 2863 13692.4 2869.07 13692.4 2874 13697.3 2874 13703.4Z" stroke="#4472C4" stroke-width="3.4375" stroke-linejoin="round" stroke-miterlimit="10" fill="#4472C4"/><path d="M2879 13761.4C2879 13767.5 2874.07 13772.4 2868 13772.4 2861.92 13772.4 2857 13767.5 2857 13761.4 2857 13755.3 2861.92 13750.4 2868 13750.4 2874.07 13750.4 2879 13755.3 2879 13761.4Z" stroke="#4472C4" stroke-width="3.4375" stroke-linejoin="round" stroke-miterlimit="10" fill="#4472C4"/><path d="M2885 13764.4C2885 13770.5 2880.07 13775.4 2874 13775.4 2867.92 13775.4 2863 13770.5 2863 13764.4 2863 13758.3 2867.92 13753.4 2874 13753.4 2880.07 13753.4 2885 13758.3 2885 13764.4Z" stroke="#4472C4" stroke-width="3.4375" stroke-linejoin="round" stroke-miterlimit="10" fill="#4472C4"/><path d="M2890 13763.4C2890 13769.5 2885.07 13774.4 2879 13774.4 2872.92 13774.4 2868 13769.5 2868 13763.4 2868 13757.3 2872.92 13752.4 2879 13752.4 2885.07 13752.4 2890 13757.3 2890 13763.4Z" stroke="#4472C4" stroke-width="3.4375" stroke-linejoin="round" stroke-miterlimit="10" fill="#4472C4"/><path d="M2895 13761.4C2895 13767.5 2890.07 13772.4 2884 13772.4 2877.92 13772.4 2873 13767.5 2873 13761.4 2873 13755.3 2877.92 13750.4 2884 13750.4 2890.07 13750.4 2895 13755.3 2895 13761.4Z" stroke="#4472C4" stroke-width="3.4375" stroke-linejoin="round" stroke-miterlimit="10" fill="#4472C4"/><path d="M2900 13751.4C2900 13757.5 2895.07 13762.4 2889 13762.4 2882.92 13762.4 2878 13757.5 2878 13751.4 2878 13745.3 2882.92 13740.4 2889 13740.4 2895.07 13740.4 2900 13745.3 2900 13751.4Z" stroke="#4472C4" stroke-width="3.4375" stroke-linejoin="round" stroke-miterlimit="10" fill="#4472C4"/><path d="M2905 13809.4C2905 13815.5 2900.07 13820.4 2894 13820.4 2887.92 13820.4 2883 13815.5 2883 13809.4 2883 13803.3 2887.92 13798.4 2894 13798.4 2900.07 13798.4 2905 13803.3 2905 13809.4Z" stroke="#4472C4" stroke-width="3.4375" stroke-linejoin="round" stroke-miterlimit="10" fill="#4472C4"/><path d="M2910 13778.4C2910 13784.5 2905.07 13789.4 2899 13789.4 2892.92 13789.4 2888 13784.5 2888 13778.4 2888 13772.3 2892.92 13767.4 2899 13767.4 2905.07 13767.4 2910 13772.3 2910 13778.4Z" stroke="#4472C4" stroke-width="3.4375" stroke-linejoin="round" stroke-miterlimit="10" fill="#4472C4"/><path d="M2915 13815.4C2915 13821.5 2910.07 13826.4 2904 13826.4 2897.92 13826.4 2893 13821.5 2893 13815.4 2893 13809.3 2897.92 13804.4 2904 13804.4 2910.07 13804.4 2915 13809.3 2915 13815.4Z" stroke="#4472C4" stroke-width="3.4375" stroke-linejoin="round" stroke-miterlimit="10" fill="#4472C4"/><path d="M2921 13754.4C2921 13760.5 2916.07 13765.4 2910 13765.4 2903.92 13765.4 2899 13760.5 2899 13754.4 2899 13748.3 2903.92 13743.4 2910 13743.4 2916.07 13743.4 2921 13748.3 2921 13754.4Z" stroke="#4472C4" stroke-width="3.4375" stroke-linejoin="round" stroke-miterlimit="10" fill="#4472C4"/><path d="M2926 13713.4C2926 13719.5 2921.07 13724.4 2915 13724.4 2908.92 13724.4 2904 13719.5 2904 13713.4 2904 13707.3 2908.92 13702.4 2915 13702.4 2921.07 13702.4 2926 13707.3 2926 13713.4Z" stroke="#4472C4" stroke-width="3.4375" stroke-linejoin="round" stroke-miterlimit="10" fill="#4472C4"/><path d="M2931 13773.4C2931 13779.5 2926.07 13784.4 2920 13784.4 2913.92 13784.4 2909 13779.5 2909 13773.4 2909 13767.3 2913.92 13762.4 2920 13762.4 2926.07 13762.4 2931 13767.3 2931 13773.4Z" stroke="#4472C4" stroke-width="3.4375" stroke-linejoin="round" stroke-miterlimit="10" fill="#4472C4"/><path d="M2936 13687.4C2936 13693.5 2931.07 13698.4 2925 13698.4 2918.92 13698.4 2914 13693.5 2914 13687.4 2914 13681.3 2918.92 13676.4 2925 13676.4 2931.07 13676.4 2936 13681.3 2936 13687.4Z" stroke="#4472C4" stroke-width="3.4375" stroke-linejoin="round" stroke-miterlimit="10" fill="#4472C4"/><path d="M2941 13723.4C2941 13729.5 2936.07 13734.4 2930 13734.4 2923.92 13734.4 2919 13729.5 2919 13723.4 2919 13717.3 2923.92 13712.4 2930 13712.4 2936.07 13712.4 2941 13717.3 2941 13723.4Z" stroke="#4472C4" stroke-width="3.4375" stroke-linejoin="round" stroke-miterlimit="10" fill="#4472C4"/><path d="M2946 13777.4C2946 13783.5 2941.07 13788.4 2935 13788.4 2928.92 13788.4 2924 13783.5 2924 13777.4 2924 13771.3 2928.92 13766.4 2935 13766.4 2941.07 13766.4 2946 13771.3 2946 13777.4Z" stroke="#4472C4" stroke-width="3.4375" stroke-linejoin="round" stroke-miterlimit="10" fill="#4472C4"/><path d="M2951 13783.4C2951 13789.5 2946.07 13794.4 2940 13794.4 2933.92 13794.4 2929 13789.5 2929 13783.4 2929 13777.3 2933.92 13772.4 2940 13772.4 2946.07 13772.4 2951 13777.3 2951 13783.4Z" stroke="#4472C4" stroke-width="3.4375" stroke-linejoin="round" stroke-miterlimit="10" fill="#4472C4"/><path d="M2957 13747.4C2957 13753.5 2952.07 13758.4 2946 13758.4 2939.92 13758.4 2935 13753.5 2935 13747.4 2935 13741.3 2939.92 13736.4 2946 13736.4 2952.07 13736.4 2957 13741.3 2957 13747.4Z" stroke="#4472C4" stroke-width="3.4375" stroke-linejoin="round" stroke-miterlimit="10" fill="#4472C4"/><path d="M2962 13747.4C2962 13753.5 2957.07 13758.4 2951 13758.4 2944.92 13758.4 2940 13753.5 2940 13747.4 2940 13741.3 2944.92 13736.4 2951 13736.4 2957.07 13736.4 2962 13741.3 2962 13747.4Z" stroke="#4472C4" stroke-width="3.4375" stroke-linejoin="round" stroke-miterlimit="10" fill="#4472C4"/><path d="M2967 13785.4C2967 13791.5 2962.07 13796.4 2956 13796.4 2949.92 13796.4 2945 13791.5 2945 13785.4 2945 13779.3 2949.92 13774.4 2956 13774.4 2962.07 13774.4 2967 13779.3 2967 13785.4Z" stroke="#4472C4" stroke-width="3.4375" stroke-linejoin="round" stroke-miterlimit="10" fill="#4472C4"/><path d="M2972 13743.4C2972 13749.5 2967.07 13754.4 2961 13754.4 2954.92 13754.4 2950 13749.5 2950 13743.4 2950 13737.3 2954.92 13732.4 2961 13732.4 2967.07 13732.4 2972 13737.3 2972 13743.4Z" stroke="#4472C4" stroke-width="3.4375" stroke-linejoin="round" stroke-miterlimit="10" fill="#4472C4"/><path d="M2977 13773.4C2977 13779.5 2972.07 13784.4 2966 13784.4 2959.92 13784.4 2955 13779.5 2955 13773.4 2955 13767.3 2959.92 13762.4 2966 13762.4 2972.07 13762.4 2977 13767.3 2977 13773.4Z" stroke="#4472C4" stroke-width="3.4375" stroke-linejoin="round" stroke-miterlimit="10" fill="#4472C4"/><path d="M2982 13761.4C2982 13767.5 2977.07 13772.4 2971 13772.4 2964.92 13772.4 2960 13767.5 2960 13761.4 2960 13755.3 2964.92 13750.4 2971 13750.4 2977.07 13750.4 2982 13755.3 2982 13761.4Z" stroke="#4472C4" stroke-width="3.4375" stroke-linejoin="round" stroke-miterlimit="10" fill="#4472C4"/><path d="M2987 13733.4C2987 13739.5 2982.07 13744.4 2976 13744.4 2969.92 13744.4 2965 13739.5 2965 13733.4 2965 13727.3 2969.92 13722.4 2976 13722.4 2982.07 13722.4 2987 13727.3 2987 13733.4Z" stroke="#4472C4" stroke-width="3.4375" stroke-linejoin="round" stroke-miterlimit="10" fill="#4472C4"/><path d="M2993 13794.4C2993 13800.5 2988.07 13805.4 2982 13805.4 2975.92 13805.4 2971 13800.5 2971 13794.4 2971 13788.3 2975.92 13783.4 2982 13783.4 2988.07 13783.4 2993 13788.3 2993 13794.4Z" stroke="#4472C4" stroke-width="3.4375" stroke-linejoin="round" stroke-miterlimit="10" fill="#4472C4"/><path d="M2998 13739.4C2998 13745.5 2993.07 13750.4 2987 13750.4 2980.92 13750.4 2976 13745.5 2976 13739.4 2976 13733.3 2980.92 13728.4 2987 13728.4 2993.07 13728.4 2998 13733.3 2998 13739.4Z" stroke="#4472C4" stroke-width="3.4375" stroke-linejoin="round" stroke-miterlimit="10" fill="#4472C4"/><path d="M3003 13731.4C3003 13737.5 2998.07 13742.4 2992 13742.4 2985.92 13742.4 2981 13737.5 2981 13731.4 2981 13725.3 2985.92 13720.4 2992 13720.4 2998.07 13720.4 3003 13725.3 3003 13731.4Z" stroke="#4472C4" stroke-width="3.4375" stroke-linejoin="round" stroke-miterlimit="10" fill="#4472C4"/><path d="M3008 13714.4C3008 13720.5 3003.07 13725.4 2997 13725.4 2990.92 13725.4 2986 13720.5 2986 13714.4 2986 13708.3 2990.92 13703.4 2997 13703.4 3003.07 13703.4 3008 13708.3 3008 13714.4Z" stroke="#4472C4" stroke-width="3.4375" stroke-linejoin="round" stroke-miterlimit="10" fill="#4472C4"/><path d="M3013 13773.4C3013 13779.5 3008.07 13784.4 3002 13784.4 2995.92 13784.4 2991 13779.5 2991 13773.4 2991 13767.3 2995.92 13762.4 3002 13762.4 3008.07 13762.4 3013 13767.3 3013 13773.4Z" stroke="#4472C4" stroke-width="3.4375" stroke-linejoin="round" stroke-miterlimit="10" fill="#4472C4"/><path d="M3018 13751.4C3018 13757.5 3013.07 13762.4 3007 13762.4 3000.92 13762.4 2996 13757.5 2996 13751.4 2996 13745.3 3000.92 13740.4 3007 13740.4 3013.07 13740.4 3018 13745.3 3018 13751.4Z" stroke="#4472C4" stroke-width="3.4375" stroke-linejoin="round" stroke-miterlimit="10" fill="#4472C4"/><path d="M3023 13745.4C3023 13751.5 3018.07 13756.4 3012 13756.4 3005.92 13756.4 3001 13751.5 3001 13745.4 3001 13739.3 3005.92 13734.4 3012 13734.4 3018.07 13734.4 3023 13739.3 3023 13745.4Z" stroke="#4472C4" stroke-width="3.4375" stroke-linejoin="round" stroke-miterlimit="10" fill="#4472C4"/><path d="M3029 13740.4C3029 13746.5 3024.07 13751.4 3018 13751.4 3011.92 13751.4 3007 13746.5 3007 13740.4 3007 13734.3 3011.92 13729.4 3018 13729.4 3024.07 13729.4 3029 13734.3 3029 13740.4Z" stroke="#4472C4" stroke-width="3.4375" stroke-linejoin="round" stroke-miterlimit="10" fill="#4472C4"/><path d="M3034 13799.4C3034 13805.5 3029.07 13810.4 3023 13810.4 3016.92 13810.4 3012 13805.5 3012 13799.4 3012 13793.3 3016.92 13788.4 3023 13788.4 3029.07 13788.4 3034 13793.3 3034 13799.4Z" stroke="#4472C4" stroke-width="3.4375" stroke-linejoin="round" stroke-miterlimit="10" fill="#4472C4"/><path d="M3039 13817.4C3039 13823.5 3034.07 13828.4 3028 13828.4 3021.92 13828.4 3017 13823.5 3017 13817.4 3017 13811.3 3021.92 13806.4 3028 13806.4 3034.07 13806.4 3039 13811.3 3039 13817.4Z" stroke="#4472C4" stroke-width="3.4375" stroke-linejoin="round" stroke-miterlimit="10" fill="#4472C4"/><path d="M3044 13723.4C3044 13729.5 3039.07 13734.4 3033 13734.4 3026.92 13734.4 3022 13729.5 3022 13723.4 3022 13717.3 3026.92 13712.4 3033 13712.4 3039.07 13712.4 3044 13717.3 3044 13723.4Z" stroke="#4472C4" stroke-width="3.4375" stroke-linejoin="round" stroke-miterlimit="10" fill="#4472C4"/><path d="M3049 13741.4C3049 13747.5 3044.07 13752.4 3038 13752.4 3031.92 13752.4 3027 13747.5 3027 13741.4 3027 13735.3 3031.92 13730.4 3038 13730.4 3044.07 13730.4 3049 13735.3 3049 13741.4Z" stroke="#4472C4" stroke-width="3.4375" stroke-linejoin="round" stroke-miterlimit="10" fill="#4472C4"/><path d="M3054 13752.4C3054 13758.5 3049.07 13763.4 3043 13763.4 3036.92 13763.4 3032 13758.5 3032 13752.4 3032 13746.3 3036.92 13741.4 3043 13741.4 3049.07 13741.4 3054 13746.3 3054 13752.4Z" stroke="#4472C4" stroke-width="3.4375" stroke-linejoin="round" stroke-miterlimit="10" fill="#4472C4"/><path d="M3059 13781.4C3059 13787.5 3054.07 13792.4 3048 13792.4 3041.92 13792.4 3037 13787.5 3037 13781.4 3037 13775.3 3041.92 13770.4 3048 13770.4 3054.07 13770.4 3059 13775.3 3059 13781.4Z" stroke="#4472C4" stroke-width="3.4375" stroke-linejoin="round" stroke-miterlimit="10" fill="#4472C4"/><path d="M3065 13724.4C3065 13730.5 3060.07 13735.4 3054 13735.4 3047.92 13735.4 3043 13730.5 3043 13724.4 3043 13718.3 3047.92 13713.4 3054 13713.4 3060.07 13713.4 3065 13718.3 3065 13724.4Z" stroke="#4472C4" stroke-width="3.4375" stroke-linejoin="round" stroke-miterlimit="10" fill="#4472C4"/><path d="M3070 13760.4C3070 13766.5 3065.07 13771.4 3059 13771.4 3052.92 13771.4 3048 13766.5 3048 13760.4 3048 13754.3 3052.92 13749.4 3059 13749.4 3065.07 13749.4 3070 13754.3 3070 13760.4Z" stroke="#4472C4" stroke-width="3.4375" stroke-linejoin="round" stroke-miterlimit="10" fill="#4472C4"/><path d="M3075 13786.4C3075 13792.5 3070.07 13797.4 3064 13797.4 3057.92 13797.4 3053 13792.5 3053 13786.4 3053 13780.3 3057.92 13775.4 3064 13775.4 3070.07 13775.4 3075 13780.3 3075 13786.4Z" stroke="#4472C4" stroke-width="3.4375" stroke-linejoin="round" stroke-miterlimit="10" fill="#4472C4"/><path d="M3080 13787.4C3080 13793.5 3075.07 13798.4 3069 13798.4 3062.92 13798.4 3058 13793.5 3058 13787.4 3058 13781.3 3062.92 13776.4 3069 13776.4 3075.07 13776.4 3080 13781.3 3080 13787.4Z" stroke="#4472C4" stroke-width="3.4375" stroke-linejoin="round" stroke-miterlimit="10" fill="#4472C4"/><path d="M3085 13732.4C3085 13738.5 3080.07 13743.4 3074 13743.4 3067.92 13743.4 3063 13738.5 3063 13732.4 3063 13726.3 3067.92 13721.4 3074 13721.4 3080.07 13721.4 3085 13726.3 3085 13732.4Z" stroke="#4472C4" stroke-width="3.4375" stroke-linejoin="round" stroke-miterlimit="10" fill="#4472C4"/><path d="M3090 13730.4C3090 13736.5 3085.07 13741.4 3079 13741.4 3072.92 13741.4 3068 13736.5 3068 13730.4 3068 13724.3 3072.92 13719.4 3079 13719.4 3085.07 13719.4 3090 13724.3 3090 13730.4Z" stroke="#4472C4" stroke-width="3.4375" stroke-linejoin="round" stroke-miterlimit="10" fill="#4472C4"/><path d="M3095 13785.4C3095 13791.5 3090.07 13796.4 3084 13796.4 3077.92 13796.4 3073 13791.5 3073 13785.4 3073 13779.3 3077.92 13774.4 3084 13774.4 3090.07 13774.4 3095 13779.3 3095 13785.4Z" stroke="#4472C4" stroke-width="3.4375" stroke-linejoin="round" stroke-miterlimit="10" fill="#4472C4"/><path d="M3101 13725.4C3101 13731.5 3096.07 13736.4 3090 13736.4 3083.92 13736.4 3079 13731.5 3079 13725.4 3079 13719.3 3083.92 13714.4 3090 13714.4 3096.07 13714.4 3101 13719.3 3101 13725.4Z" stroke="#4472C4" stroke-width="3.4375" stroke-linejoin="round" stroke-miterlimit="10" fill="#4472C4"/><path d="M3106 13712.4C3106 13718.5 3101.07 13723.4 3095 13723.4 3088.92 13723.4 3084 13718.5 3084 13712.4 3084 13706.3 3088.92 13701.4 3095 13701.4 3101.07 13701.4 3106 13706.3 3106 13712.4Z" stroke="#4472C4" stroke-width="3.4375" stroke-linejoin="round" stroke-miterlimit="10" fill="#4472C4"/><path d="M3111 13759.4C3111 13765.5 3106.07 13770.4 3100 13770.4 3093.92 13770.4 3089 13765.5 3089 13759.4 3089 13753.3 3093.92 13748.4 3100 13748.4 3106.07 13748.4 3111 13753.3 3111 13759.4Z" stroke="#4472C4" stroke-width="3.4375" stroke-linejoin="round" stroke-miterlimit="10" fill="#4472C4"/><path d="M3116 13747.4C3116 13753.5 3111.07 13758.4 3105 13758.4 3098.92 13758.4 3094 13753.5 3094 13747.4 3094 13741.3 3098.92 13736.4 3105 13736.4 3111.07 13736.4 3116 13741.3 3116 13747.4Z" stroke="#4472C4" stroke-width="3.4375" stroke-linejoin="round" stroke-miterlimit="10" fill="#4472C4"/><path d="M3121 13704.4C3121 13710.5 3116.07 13715.4 3110 13715.4 3103.92 13715.4 3099 13710.5 3099 13704.4 3099 13698.3 3103.92 13693.4 3110 13693.4 3116.07 13693.4 3121 13698.3 3121 13704.4Z" stroke="#4472C4" stroke-width="3.4375" stroke-linejoin="round" stroke-miterlimit="10" fill="#4472C4"/><path d="M3126 13765.4C3126 13771.5 3121.07 13776.4 3115 13776.4 3108.92 13776.4 3104 13771.5 3104 13765.4 3104 13759.3 3108.92 13754.4 3115 13754.4 3121.07 13754.4 3126 13759.3 3126 13765.4Z" stroke="#4472C4" stroke-width="3.4375" stroke-linejoin="round" stroke-miterlimit="10" fill="#4472C4"/><path d="M3131 13744.4C3131 13750.5 3126.07 13755.4 3120 13755.4 3113.92 13755.4 3109 13750.5 3109 13744.4 3109 13738.3 3113.92 13733.4 3120 13733.4 3126.07 13733.4 3131 13738.3 3131 13744.4Z" stroke="#4472C4" stroke-width="3.4375" stroke-linejoin="round" stroke-miterlimit="10" fill="#4472C4"/><path d="M3137 13712.4C3137 13718.5 3132.07 13723.4 3126 13723.4 3119.92 13723.4 3115 13718.5 3115 13712.4 3115 13706.3 3119.92 13701.4 3126 13701.4 3132.07 13701.4 3137 13706.3 3137 13712.4Z" stroke="#4472C4" stroke-width="3.4375" stroke-linejoin="round" stroke-miterlimit="10" fill="#4472C4"/><path d="M3142 13780.4C3142 13786.5 3137.07 13791.4 3131 13791.4 3124.92 13791.4 3120 13786.5 3120 13780.4 3120 13774.3 3124.92 13769.4 3131 13769.4 3137.07 13769.4 3142 13774.3 3142 13780.4Z" stroke="#4472C4" stroke-width="3.4375" stroke-linejoin="round" stroke-miterlimit="10" fill="#4472C4"/><path d="M3147 13735.4C3147 13741.5 3142.07 13746.4 3136 13746.4 3129.92 13746.4 3125 13741.5 3125 13735.4 3125 13729.3 3129.92 13724.4 3136 13724.4 3142.07 13724.4 3147 13729.3 3147 13735.4Z" stroke="#4472C4" stroke-width="3.4375" stroke-linejoin="round" stroke-miterlimit="10" fill="#4472C4"/><path d="M3152 13752.4C3152 13758.5 3147.07 13763.4 3141 13763.4 3134.92 13763.4 3130 13758.5 3130 13752.4 3130 13746.3 3134.92 13741.4 3141 13741.4 3147.07 13741.4 3152 13746.3 3152 13752.4Z" stroke="#4472C4" stroke-width="3.4375" stroke-linejoin="round" stroke-miterlimit="10" fill="#4472C4"/><path d="M3157 13725.4C3157 13731.5 3152.07 13736.4 3146 13736.4 3139.92 13736.4 3135 13731.5 3135 13725.4 3135 13719.3 3139.92 13714.4 3146 13714.4 3152.07 13714.4 3157 13719.3 3157 13725.4Z" stroke="#4472C4" stroke-width="3.4375" stroke-linejoin="round" stroke-miterlimit="10" fill="#4472C4"/><path d="M3162 13673.4C3162 13679.5 3157.07 13684.4 3151 13684.4 3144.92 13684.4 3140 13679.5 3140 13673.4 3140 13667.3 3144.92 13662.4 3151 13662.4 3157.07 13662.4 3162 13667.3 3162 13673.4Z" stroke="#4472C4" stroke-width="3.4375" stroke-linejoin="round" stroke-miterlimit="10" fill="#4472C4"/><path d="M3167 13719.4C3167 13725.5 3162.07 13730.4 3156 13730.4 3149.92 13730.4 3145 13725.5 3145 13719.4 3145 13713.3 3149.92 13708.4 3156 13708.4 3162.07 13708.4 3167 13713.3 3167 13719.4Z" stroke="#4472C4" stroke-width="3.4375" stroke-linejoin="round" stroke-miterlimit="10" fill="#4472C4"/><path d="M3173 13763.4C3173 13769.5 3168.07 13774.4 3162 13774.4 3155.92 13774.4 3151 13769.5 3151 13763.4 3151 13757.3 3155.92 13752.4 3162 13752.4 3168.07 13752.4 3173 13757.3 3173 13763.4Z" stroke="#4472C4" stroke-width="3.4375" stroke-linejoin="round" stroke-miterlimit="10" fill="#4472C4"/><path d="M3178 13747.4C3178 13753.5 3173.07 13758.4 3167 13758.4 3160.92 13758.4 3156 13753.5 3156 13747.4 3156 13741.3 3160.92 13736.4 3167 13736.4 3173.07 13736.4 3178 13741.3 3178 13747.4Z" stroke="#4472C4" stroke-width="3.4375" stroke-linejoin="round" stroke-miterlimit="10" fill="#4472C4"/><path d="M3183 13760.4C3183 13766.5 3178.07 13771.4 3172 13771.4 3165.92 13771.4 3161 13766.5 3161 13760.4 3161 13754.3 3165.92 13749.4 3172 13749.4 3178.07 13749.4 3183 13754.3 3183 13760.4Z" stroke="#4472C4" stroke-width="3.4375" stroke-linejoin="round" stroke-miterlimit="10" fill="#4472C4"/><path d="M3188 13714.4C3188 13720.5 3183.07 13725.4 3177 13725.4 3170.92 13725.4 3166 13720.5 3166 13714.4 3166 13708.3 3170.92 13703.4 3177 13703.4 3183.07 13703.4 3188 13708.3 3188 13714.4Z" stroke="#4472C4" stroke-width="3.4375" stroke-linejoin="round" stroke-miterlimit="10" fill="#4472C4"/><path d="M3193 13770.4C3193 13776.5 3188.07 13781.4 3182 13781.4 3175.92 13781.4 3171 13776.5 3171 13770.4 3171 13764.3 3175.92 13759.4 3182 13759.4 3188.07 13759.4 3193 13764.3 3193 13770.4Z" stroke="#4472C4" stroke-width="3.4375" stroke-linejoin="round" stroke-miterlimit="10" fill="#4472C4"/><path d="M3198 13744.4C3198 13750.5 3193.07 13755.4 3187 13755.4 3180.92 13755.4 3176 13750.5 3176 13744.4 3176 13738.3 3180.92 13733.4 3187 13733.4 3193.07 13733.4 3198 13738.3 3198 13744.4Z" stroke="#4472C4" stroke-width="3.4375" stroke-linejoin="round" stroke-miterlimit="10" fill="#4472C4"/><path d="M3203 13799.4C3203 13805.5 3198.07 13810.4 3192 13810.4 3185.92 13810.4 3181 13805.5 3181 13799.4 3181 13793.3 3185.92 13788.4 3192 13788.4 3198.07 13788.4 3203 13793.3 3203 13799.4Z" stroke="#4472C4" stroke-width="3.4375" stroke-linejoin="round" stroke-miterlimit="10" fill="#4472C4"/><path d="M3209 13725.4C3209 13731.5 3204.07 13736.4 3198 13736.4 3191.92 13736.4 3187 13731.5 3187 13725.4 3187 13719.3 3191.92 13714.4 3198 13714.4 3204.07 13714.4 3209 13719.3 3209 13725.4Z" stroke="#4472C4" stroke-width="3.4375" stroke-linejoin="round" stroke-miterlimit="10" fill="#4472C4"/><path d="M3214 13787.4C3214 13793.5 3209.07 13798.4 3203 13798.4 3196.92 13798.4 3192 13793.5 3192 13787.4 3192 13781.3 3196.92 13776.4 3203 13776.4 3209.07 13776.4 3214 13781.3 3214 13787.4Z" stroke="#4472C4" stroke-width="3.4375" stroke-linejoin="round" stroke-miterlimit="10" fill="#4472C4"/><path d="M3219 13757.4C3219 13763.5 3214.07 13768.4 3208 13768.4 3201.92 13768.4 3197 13763.5 3197 13757.4 3197 13751.3 3201.92 13746.4 3208 13746.4 3214.07 13746.4 3219 13751.3 3219 13757.4Z" stroke="#4472C4" stroke-width="3.4375" stroke-linejoin="round" stroke-miterlimit="10" fill="#4472C4"/><path d="M3224 13747.4C3224 13753.5 3219.07 13758.4 3213 13758.4 3206.92 13758.4 3202 13753.5 3202 13747.4 3202 13741.3 3206.92 13736.4 3213 13736.4 3219.07 13736.4 3224 13741.3 3224 13747.4Z" stroke="#4472C4" stroke-width="3.4375" stroke-linejoin="round" stroke-miterlimit="10" fill="#4472C4"/><path d="M3229 13800.4C3229 13806.5 3224.07 13811.4 3218 13811.4 3211.92 13811.4 3207 13806.5 3207 13800.4 3207 13794.3 3211.92 13789.4 3218 13789.4 3224.07 13789.4 3229 13794.3 3229 13800.4Z" stroke="#4472C4" stroke-width="3.4375" stroke-linejoin="round" stroke-miterlimit="10" fill="#4472C4"/><path d="M3234 13819.4C3234 13825.5 3229.07 13830.4 3223 13830.4 3216.92 13830.4 3212 13825.5 3212 13819.4 3212 13813.3 3216.92 13808.4 3223 13808.4 3229.07 13808.4 3234 13813.3 3234 13819.4Z" stroke="#4472C4" stroke-width="3.4375" stroke-linejoin="round" stroke-miterlimit="10" fill="#4472C4"/><path d="M3239 13709.4C3239 13715.5 3234.07 13720.4 3228 13720.4 3221.92 13720.4 3217 13715.5 3217 13709.4 3217 13703.3 3221.92 13698.4 3228 13698.4 3234.07 13698.4 3239 13703.3 3239 13709.4Z" stroke="#4472C4" stroke-width="3.4375" stroke-linejoin="round" stroke-miterlimit="10" fill="#4472C4"/><path d="M3245 13785.4C3245 13791.5 3240.07 13796.4 3234 13796.4 3227.92 13796.4 3223 13791.5 3223 13785.4 3223 13779.3 3227.92 13774.4 3234 13774.4 3240.07 13774.4 3245 13779.3 3245 13785.4Z" stroke="#4472C4" stroke-width="3.4375" stroke-linejoin="round" stroke-miterlimit="10" fill="#4472C4"/><path d="M3250 13720.4C3250 13726.5 3245.07 13731.4 3239 13731.4 3232.92 13731.4 3228 13726.5 3228 13720.4 3228 13714.3 3232.92 13709.4 3239 13709.4 3245.07 13709.4 3250 13714.3 3250 13720.4Z" stroke="#4472C4" stroke-width="3.4375" stroke-linejoin="round" stroke-miterlimit="10" fill="#4472C4"/><path d="M3255 13768.4C3255 13774.5 3250.07 13779.4 3244 13779.4 3237.92 13779.4 3233 13774.5 3233 13768.4 3233 13762.3 3237.92 13757.4 3244 13757.4 3250.07 13757.4 3255 13762.3 3255 13768.4Z" stroke="#4472C4" stroke-width="3.4375" stroke-linejoin="round" stroke-miterlimit="10" fill="#4472C4"/><path d="M3260 13733.4C3260 13739.5 3255.07 13744.4 3249 13744.4 3242.92 13744.4 3238 13739.5 3238 13733.4 3238 13727.3 3242.92 13722.4 3249 13722.4 3255.07 13722.4 3260 13727.3 3260 13733.4Z" stroke="#4472C4" stroke-width="3.4375" stroke-linejoin="round" stroke-miterlimit="10" fill="#4472C4"/><path d="M3265 13779.4C3265 13785.5 3260.07 13790.4 3254 13790.4 3247.92 13790.4 3243 13785.5 3243 13779.4 3243 13773.3 3247.92 13768.4 3254 13768.4 3260.07 13768.4 3265 13773.3 3265 13779.4Z" stroke="#4472C4" stroke-width="3.4375" stroke-linejoin="round" stroke-miterlimit="10" fill="#4472C4"/><path d="M3270 13759.4C3270 13765.5 3265.07 13770.4 3259 13770.4 3252.92 13770.4 3248 13765.5 3248 13759.4 3248 13753.3 3252.92 13748.4 3259 13748.4 3265.07 13748.4 3270 13753.3 3270 13759.4Z" stroke="#4472C4" stroke-width="3.4375" stroke-linejoin="round" stroke-miterlimit="10" fill="#4472C4"/><path d="M3275 13732.4C3275 13738.5 3270.07 13743.4 3264 13743.4 3257.92 13743.4 3253 13738.5 3253 13732.4 3253 13726.3 3257.92 13721.4 3264 13721.4 3270.07 13721.4 3275 13726.3 3275 13732.4Z" stroke="#4472C4" stroke-width="3.4375" stroke-linejoin="round" stroke-miterlimit="10" fill="#4472C4"/><path d="M3281 13747.4C3281 13753.5 3276.07 13758.4 3270 13758.4 3263.92 13758.4 3259 13753.5 3259 13747.4 3259 13741.3 3263.92 13736.4 3270 13736.4 3276.07 13736.4 3281 13741.3 3281 13747.4Z" stroke="#4472C4" stroke-width="3.4375" stroke-linejoin="round" stroke-miterlimit="10" fill="#4472C4"/><path d="M3286 13749.4C3286 13755.5 3281.07 13760.4 3275 13760.4 3268.92 13760.4 3264 13755.5 3264 13749.4 3264 13743.3 3268.92 13738.4 3275 13738.4 3281.07 13738.4 3286 13743.3 3286 13749.4Z" stroke="#4472C4" stroke-width="3.4375" stroke-linejoin="round" stroke-miterlimit="10" fill="#4472C4"/><path d="M3291 13745.4C3291 13751.5 3286.07 13756.4 3280 13756.4 3273.92 13756.4 3269 13751.5 3269 13745.4 3269 13739.3 3273.92 13734.4 3280 13734.4 3286.07 13734.4 3291 13739.3 3291 13745.4Z" stroke="#4472C4" stroke-width="3.4375" stroke-linejoin="round" stroke-miterlimit="10" fill="#4472C4"/><path d="M3296 13725.4C3296 13731.5 3291.07 13736.4 3285 13736.4 3278.92 13736.4 3274 13731.5 3274 13725.4 3274 13719.3 3278.92 13714.4 3285 13714.4 3291.07 13714.4 3296 13719.3 3296 13725.4Z" stroke="#4472C4" stroke-width="3.4375" stroke-linejoin="round" stroke-miterlimit="10" fill="#4472C4"/><path d="M3301 13784.4C3301 13790.5 3296.07 13795.4 3290 13795.4 3283.92 13795.4 3279 13790.5 3279 13784.4 3279 13778.3 3283.92 13773.4 3290 13773.4 3296.07 13773.4 3301 13778.3 3301 13784.4Z" stroke="#4472C4" stroke-width="3.4375" stroke-linejoin="round" stroke-miterlimit="10" fill="#4472C4"/><path d="M3306 13765.4C3306 13771.5 3301.07 13776.4 3295 13776.4 3288.92 13776.4 3284 13771.5 3284 13765.4 3284 13759.3 3288.92 13754.4 3295 13754.4 3301.07 13754.4 3306 13759.3 3306 13765.4Z" stroke="#4472C4" stroke-width="3.4375" stroke-linejoin="round" stroke-miterlimit="10" fill="#4472C4"/><path d="M3311 13729.4C3311 13735.5 3306.07 13740.4 3300 13740.4 3293.92 13740.4 3289 13735.5 3289 13729.4 3289 13723.3 3293.92 13718.4 3300 13718.4 3306.07 13718.4 3311 13723.3 3311 13729.4Z" stroke="#4472C4" stroke-width="3.4375" stroke-linejoin="round" stroke-miterlimit="10" fill="#4472C4"/><path d="M3317 13735.4C3317 13741.5 3312.07 13746.4 3306 13746.4 3299.92 13746.4 3295 13741.5 3295 13735.4 3295 13729.3 3299.92 13724.4 3306 13724.4 3312.07 13724.4 3317 13729.3 3317 13735.4Z" stroke="#4472C4" stroke-width="3.4375" stroke-linejoin="round" stroke-miterlimit="10" fill="#4472C4"/><path d="M3322 13754.4C3322 13760.5 3317.07 13765.4 3311 13765.4 3304.92 13765.4 3300 13760.5 3300 13754.4 3300 13748.3 3304.92 13743.4 3311 13743.4 3317.07 13743.4 3322 13748.3 3322 13754.4Z" stroke="#4472C4" stroke-width="3.4375" stroke-linejoin="round" stroke-miterlimit="10" fill="#4472C4"/><path d="M3327 13767.4C3327 13773.5 3322.07 13778.4 3316 13778.4 3309.92 13778.4 3305 13773.5 3305 13767.4 3305 13761.3 3309.92 13756.4 3316 13756.4 3322.07 13756.4 3327 13761.3 3327 13767.4Z" stroke="#4472C4" stroke-width="3.4375" stroke-linejoin="round" stroke-miterlimit="10" fill="#4472C4"/><path d="M3332 13717.4C3332 13723.5 3327.07 13728.4 3321 13728.4 3314.92 13728.4 3310 13723.5 3310 13717.4 3310 13711.3 3314.92 13706.4 3321 13706.4 3327.07 13706.4 3332 13711.3 3332 13717.4Z" stroke="#4472C4" stroke-width="3.4375" stroke-linejoin="round" stroke-miterlimit="10" fill="#4472C4"/><path d="M3337 13776.4C3337 13782.5 3332.07 13787.4 3326 13787.4 3319.92 13787.4 3315 13782.5 3315 13776.4 3315 13770.3 3319.92 13765.4 3326 13765.4 3332.07 13765.4 3337 13770.3 3337 13776.4Z" stroke="#4472C4" stroke-width="3.4375" stroke-linejoin="round" stroke-miterlimit="10" fill="#4472C4"/><path d="M3342 13720.4C3342 13726.5 3337.07 13731.4 3331 13731.4 3324.92 13731.4 3320 13726.5 3320 13720.4 3320 13714.3 3324.92 13709.4 3331 13709.4 3337.07 13709.4 3342 13714.3 3342 13720.4Z" stroke="#4472C4" stroke-width="3.4375" stroke-linejoin="round" stroke-miterlimit="10" fill="#4472C4"/><path d="M3347 13740.4C3347 13746.5 3342.07 13751.4 3336 13751.4 3329.92 13751.4 3325 13746.5 3325 13740.4 3325 13734.3 3329.92 13729.4 3336 13729.4 3342.07 13729.4 3347 13734.3 3347 13740.4Z" stroke="#4472C4" stroke-width="3.4375" stroke-linejoin="round" stroke-miterlimit="10" fill="#4472C4"/><path d="M3353 13724.4C3353 13730.5 3348.07 13735.4 3342 13735.4 3335.92 13735.4 3331 13730.5 3331 13724.4 3331 13718.3 3335.92 13713.4 3342 13713.4 3348.07 13713.4 3353 13718.3 3353 13724.4Z" stroke="#4472C4" stroke-width="3.4375" stroke-linejoin="round" stroke-miterlimit="10" fill="#4472C4"/><path d="M3358 13709.4C3358 13715.5 3353.07 13720.4 3347 13720.4 3340.92 13720.4 3336 13715.5 3336 13709.4 3336 13703.3 3340.92 13698.4 3347 13698.4 3353.07 13698.4 3358 13703.3 3358 13709.4Z" stroke="#4472C4" stroke-width="3.4375" stroke-linejoin="round" stroke-miterlimit="10" fill="#4472C4"/><path d="M3363 13773.4C3363 13779.5 3358.07 13784.4 3352 13784.4 3345.92 13784.4 3341 13779.5 3341 13773.4 3341 13767.3 3345.92 13762.4 3352 13762.4 3358.07 13762.4 3363 13767.3 3363 13773.4Z" stroke="#4472C4" stroke-width="3.4375" stroke-linejoin="round" stroke-miterlimit="10" fill="#4472C4"/><path d="M3368 13722.4C3368 13728.5 3363.07 13733.4 3357 13733.4 3350.92 13733.4 3346 13728.5 3346 13722.4 3346 13716.3 3350.92 13711.4 3357 13711.4 3363.07 13711.4 3368 13716.3 3368 13722.4Z" stroke="#4472C4" stroke-width="3.4375" stroke-linejoin="round" stroke-miterlimit="10" fill="#4472C4"/><path d="M3373 13745.4C3373 13751.5 3368.07 13756.4 3362 13756.4 3355.92 13756.4 3351 13751.5 3351 13745.4 3351 13739.3 3355.92 13734.4 3362 13734.4 3368.07 13734.4 3373 13739.3 3373 13745.4Z" stroke="#4472C4" stroke-width="3.4375" stroke-linejoin="round" stroke-miterlimit="10" fill="#4472C4"/><path d="M3378 13759.4C3378 13765.5 3373.07 13770.4 3367 13770.4 3360.92 13770.4 3356 13765.5 3356 13759.4 3356 13753.3 3360.92 13748.4 3367 13748.4 3373.07 13748.4 3378 13753.3 3378 13759.4Z" stroke="#4472C4" stroke-width="3.4375" stroke-linejoin="round" stroke-miterlimit="10" fill="#4472C4"/><path d="M3383 13815.4C3383 13821.5 3378.07 13826.4 3372 13826.4 3365.92 13826.4 3361 13821.5 3361 13815.4 3361 13809.3 3365.92 13804.4 3372 13804.4 3378.07 13804.4 3383 13809.3 3383 13815.4Z" stroke="#4472C4" stroke-width="3.4375" stroke-linejoin="round" stroke-miterlimit="10" fill="#4472C4"/><path d="M3389 13797.4C3389 13803.5 3384.07 13808.4 3378 13808.4 3371.92 13808.4 3367 13803.5 3367 13797.4 3367 13791.3 3371.92 13786.4 3378 13786.4 3384.07 13786.4 3389 13791.3 3389 13797.4Z" stroke="#4472C4" stroke-width="3.4375" stroke-linejoin="round" stroke-miterlimit="10" fill="#4472C4"/><path d="M3394 13764.4C3394 13770.5 3389.07 13775.4 3383 13775.4 3376.92 13775.4 3372 13770.5 3372 13764.4 3372 13758.3 3376.92 13753.4 3383 13753.4 3389.07 13753.4 3394 13758.3 3394 13764.4Z" stroke="#4472C4" stroke-width="3.4375" stroke-linejoin="round" stroke-miterlimit="10" fill="#4472C4"/><path d="M3399 13722.4C3399 13728.5 3394.07 13733.4 3388 13733.4 3381.92 13733.4 3377 13728.5 3377 13722.4 3377 13716.3 3381.92 13711.4 3388 13711.4 3394.07 13711.4 3399 13716.3 3399 13722.4Z" stroke="#4472C4" stroke-width="3.4375" stroke-linejoin="round" stroke-miterlimit="10" fill="#4472C4"/><path d="M3404 13748.4C3404 13754.5 3399.07 13759.4 3393 13759.4 3386.92 13759.4 3382 13754.5 3382 13748.4 3382 13742.3 3386.92 13737.4 3393 13737.4 3399.07 13737.4 3404 13742.3 3404 13748.4Z" stroke="#4472C4" stroke-width="3.4375" stroke-linejoin="round" stroke-miterlimit="10" fill="#4472C4"/><path d="M3409 13729.4C3409 13735.5 3404.07 13740.4 3398 13740.4 3391.92 13740.4 3387 13735.5 3387 13729.4 3387 13723.3 3391.92 13718.4 3398 13718.4 3404.07 13718.4 3409 13723.3 3409 13729.4Z" stroke="#4472C4" stroke-width="3.4375" stroke-linejoin="round" stroke-miterlimit="10" fill="#4472C4"/><path d="M3414 13737.4C3414 13743.5 3409.07 13748.4 3403 13748.4 3396.92 13748.4 3392 13743.5 3392 13737.4 3392 13731.3 3396.92 13726.4 3403 13726.4 3409.07 13726.4 3414 13731.3 3414 13737.4Z" stroke="#4472C4" stroke-width="3.4375" stroke-linejoin="round" stroke-miterlimit="10" fill="#4472C4"/><path d="M3419 13723.4C3419 13729.5 3414.07 13734.4 3408 13734.4 3401.92 13734.4 3397 13729.5 3397 13723.4 3397 13717.3 3401.92 13712.4 3408 13712.4 3414.07 13712.4 3419 13717.3 3419 13723.4Z" stroke="#4472C4" stroke-width="3.4375" stroke-linejoin="round" stroke-miterlimit="10" fill="#4472C4"/><path d="M3425 13776.4C3425 13782.5 3420.07 13787.4 3414 13787.4 3407.92 13787.4 3403 13782.5 3403 13776.4 3403 13770.3 3407.92 13765.4 3414 13765.4 3420.07 13765.4 3425 13770.3 3425 13776.4Z" stroke="#4472C4" stroke-width="3.4375" stroke-linejoin="round" stroke-miterlimit="10" fill="#4472C4"/><path d="M3430 13698.4C3430 13704.5 3425.07 13709.4 3419 13709.4 3412.92 13709.4 3408 13704.5 3408 13698.4 3408 13692.3 3412.92 13687.4 3419 13687.4 3425.07 13687.4 3430 13692.3 3430 13698.4Z" stroke="#4472C4" stroke-width="3.4375" stroke-linejoin="round" stroke-miterlimit="10" fill="#4472C4"/><path d="M3435 13723.4C3435 13729.5 3430.07 13734.4 3424 13734.4 3417.92 13734.4 3413 13729.5 3413 13723.4 3413 13717.3 3417.92 13712.4 3424 13712.4 3430.07 13712.4 3435 13717.3 3435 13723.4Z" stroke="#4472C4" stroke-width="3.4375" stroke-linejoin="round" stroke-miterlimit="10" fill="#4472C4"/><path d="M3440 13782.4C3440 13788.5 3435.07 13793.4 3429 13793.4 3422.92 13793.4 3418 13788.5 3418 13782.4 3418 13776.3 3422.92 13771.4 3429 13771.4 3435.07 13771.4 3440 13776.3 3440 13782.4Z" stroke="#4472C4" stroke-width="3.4375" stroke-linejoin="round" stroke-miterlimit="10" fill="#4472C4"/><path d="M3445 13720.4C3445 13726.5 3440.07 13731.4 3434 13731.4 3427.92 13731.4 3423 13726.5 3423 13720.4 3423 13714.3 3427.92 13709.4 3434 13709.4 3440.07 13709.4 3445 13714.3 3445 13720.4Z" stroke="#4472C4" stroke-width="3.4375" stroke-linejoin="round" stroke-miterlimit="10" fill="#4472C4"/><path d="M3450 13769.4C3450 13775.5 3445.07 13780.4 3439 13780.4 3432.92 13780.4 3428 13775.5 3428 13769.4 3428 13763.3 3432.92 13758.4 3439 13758.4 3445.07 13758.4 3450 13763.3 3450 13769.4Z" stroke="#4472C4" stroke-width="3.4375" stroke-linejoin="round" stroke-miterlimit="10" fill="#4472C4"/><path d="M3455 13748.4C3455 13754.5 3450.07 13759.4 3444 13759.4 3437.92 13759.4 3433 13754.5 3433 13748.4 3433 13742.3 3437.92 13737.4 3444 13737.4 3450.07 13737.4 3455 13742.3 3455 13748.4Z" stroke="#4472C4" stroke-width="3.4375" stroke-linejoin="round" stroke-miterlimit="10" fill="#4472C4"/><path d="M3461 13754.4C3461 13760.5 3456.07 13765.4 3450 13765.4 3443.92 13765.4 3439 13760.5 3439 13754.4 3439 13748.3 3443.92 13743.4 3450 13743.4 3456.07 13743.4 3461 13748.3 3461 13754.4Z" stroke="#4472C4" stroke-width="3.4375" stroke-linejoin="round" stroke-miterlimit="10" fill="#4472C4"/><path d="M3466 13731.4C3466 13737.5 3461.07 13742.4 3455 13742.4 3448.92 13742.4 3444 13737.5 3444 13731.4 3444 13725.3 3448.92 13720.4 3455 13720.4 3461.07 13720.4 3466 13725.3 3466 13731.4Z" stroke="#4472C4" stroke-width="3.4375" stroke-linejoin="round" stroke-miterlimit="10" fill="#4472C4"/><path d="M3471 13775.4C3471 13781.5 3466.07 13786.4 3460 13786.4 3453.92 13786.4 3449 13781.5 3449 13775.4 3449 13769.3 3453.92 13764.4 3460 13764.4 3466.07 13764.4 3471 13769.3 3471 13775.4Z" stroke="#4472C4" stroke-width="3.4375" stroke-linejoin="round" stroke-miterlimit="10" fill="#4472C4"/><path d="M3476 13715.4C3476 13721.5 3471.07 13726.4 3465 13726.4 3458.92 13726.4 3454 13721.5 3454 13715.4 3454 13709.3 3458.92 13704.4 3465 13704.4 3471.07 13704.4 3476 13709.3 3476 13715.4Z" stroke="#4472C4" stroke-width="3.4375" stroke-linejoin="round" stroke-miterlimit="10" fill="#4472C4"/><path d="M3481 13742.4C3481 13748.5 3476.07 13753.4 3470 13753.4 3463.92 13753.4 3459 13748.5 3459 13742.4 3459 13736.3 3463.92 13731.4 3470 13731.4 3476.07 13731.4 3481 13736.3 3481 13742.4Z" stroke="#4472C4" stroke-width="3.4375" stroke-linejoin="round" stroke-miterlimit="10" fill="#4472C4"/><path d="M3486 13694.4C3486 13700.5 3481.07 13705.4 3475 13705.4 3468.92 13705.4 3464 13700.5 3464 13694.4 3464 13688.3 3468.92 13683.4 3475 13683.4 3481.07 13683.4 3486 13688.3 3486 13694.4Z" stroke="#4472C4" stroke-width="3.4375" stroke-linejoin="round" stroke-miterlimit="10" fill="#4472C4"/><path d="M3491 13756.4C3491 13762.5 3486.07 13767.4 3480 13767.4 3473.92 13767.4 3469 13762.5 3469 13756.4 3469 13750.3 3473.92 13745.4 3480 13745.4 3486.07 13745.4 3491 13750.3 3491 13756.4Z" stroke="#4472C4" stroke-width="3.4375" stroke-linejoin="round" stroke-miterlimit="10" fill="#4472C4"/><path d="M3497 13747.4C3497 13753.5 3492.07 13758.4 3486 13758.4 3479.92 13758.4 3475 13753.5 3475 13747.4 3475 13741.3 3479.92 13736.4 3486 13736.4 3492.07 13736.4 3497 13741.3 3497 13747.4Z" stroke="#4472C4" stroke-width="3.4375" stroke-linejoin="round" stroke-miterlimit="10" fill="#4472C4"/><path d="M3502 13749.4C3502 13755.5 3497.07 13760.4 3491 13760.4 3484.92 13760.4 3480 13755.5 3480 13749.4 3480 13743.3 3484.92 13738.4 3491 13738.4 3497.07 13738.4 3502 13743.3 3502 13749.4Z" stroke="#4472C4" stroke-width="3.4375" stroke-linejoin="round" stroke-miterlimit="10" fill="#4472C4"/><path d="M3507 13734.4C3507 13740.5 3502.07 13745.4 3496 13745.4 3489.92 13745.4 3485 13740.5 3485 13734.4 3485 13728.3 3489.92 13723.4 3496 13723.4 3502.07 13723.4 3507 13728.3 3507 13734.4Z" stroke="#4472C4" stroke-width="3.4375" stroke-linejoin="round" stroke-miterlimit="10" fill="#4472C4"/><path d="M3512 13715.4C3512 13721.5 3507.07 13726.4 3501 13726.4 3494.92 13726.4 3490 13721.5 3490 13715.4 3490 13709.3 3494.92 13704.4 3501 13704.4 3507.07 13704.4 3512 13709.3 3512 13715.4Z" stroke="#4472C4" stroke-width="3.4375" stroke-linejoin="round" stroke-miterlimit="10" fill="#4472C4"/><path d="M3517 13742.4C3517 13748.5 3512.07 13753.4 3506 13753.4 3499.92 13753.4 3495 13748.5 3495 13742.4 3495 13736.3 3499.92 13731.4 3506 13731.4 3512.07 13731.4 3517 13736.3 3517 13742.4Z" stroke="#4472C4" stroke-width="3.4375" stroke-linejoin="round" stroke-miterlimit="10" fill="#4472C4"/><path d="M3522 13759.4C3522 13765.5 3517.07 13770.4 3511 13770.4 3504.92 13770.4 3500 13765.5 3500 13759.4 3500 13753.3 3504.92 13748.4 3511 13748.4 3517.07 13748.4 3522 13753.3 3522 13759.4Z" stroke="#4472C4" stroke-width="3.4375" stroke-linejoin="round" stroke-miterlimit="10" fill="#4472C4"/><path d="M3528 13745.4C3528 13751.5 3523.07 13756.4 3517 13756.4 3510.92 13756.4 3506 13751.5 3506 13745.4 3506 13739.3 3510.92 13734.4 3517 13734.4 3523.07 13734.4 3528 13739.3 3528 13745.4Z" stroke="#4472C4" stroke-width="3.4375" stroke-linejoin="round" stroke-miterlimit="10" fill="#4472C4"/><path d="M3533 13776.4C3533 13782.5 3528.07 13787.4 3522 13787.4 3515.92 13787.4 3511 13782.5 3511 13776.4 3511 13770.3 3515.92 13765.4 3522 13765.4 3528.07 13765.4 3533 13770.3 3533 13776.4Z" stroke="#4472C4" stroke-width="3.4375" stroke-linejoin="round" stroke-miterlimit="10" fill="#4472C4"/><path d="M3538 13738.4C3538 13744.5 3533.07 13749.4 3527 13749.4 3520.92 13749.4 3516 13744.5 3516 13738.4 3516 13732.3 3520.92 13727.4 3527 13727.4 3533.07 13727.4 3538 13732.3 3538 13738.4Z" stroke="#4472C4" stroke-width="3.4375" stroke-linejoin="round" stroke-miterlimit="10" fill="#4472C4"/><path d="M3543 13800.4C3543 13806.5 3538.07 13811.4 3532 13811.4 3525.92 13811.4 3521 13806.5 3521 13800.4 3521 13794.3 3525.92 13789.4 3532 13789.4 3538.07 13789.4 3543 13794.3 3543 13800.4Z" stroke="#4472C4" stroke-width="3.4375" stroke-linejoin="round" stroke-miterlimit="10" fill="#4472C4"/><path d="M3548 13753.4C3548 13759.5 3543.07 13764.4 3537 13764.4 3530.92 13764.4 3526 13759.5 3526 13753.4 3526 13747.3 3530.92 13742.4 3537 13742.4 3543.07 13742.4 3548 13747.3 3548 13753.4Z" stroke="#4472C4" stroke-width="3.4375" stroke-linejoin="round" stroke-miterlimit="10" fill="#4472C4"/><path d="M3553 13761.4C3553 13767.5 3548.07 13772.4 3542 13772.4 3535.92 13772.4 3531 13767.5 3531 13761.4 3531 13755.3 3535.92 13750.4 3542 13750.4 3548.07 13750.4 3553 13755.3 3553 13761.4Z" stroke="#4472C4" stroke-width="3.4375" stroke-linejoin="round" stroke-miterlimit="10" fill="#4472C4"/><path d="M3558 13741.4C3558 13747.5 3553.07 13752.4 3547 13752.4 3540.92 13752.4 3536 13747.5 3536 13741.4 3536 13735.3 3540.92 13730.4 3547 13730.4 3553.07 13730.4 3558 13735.3 3558 13741.4Z" stroke="#4472C4" stroke-width="3.4375" stroke-linejoin="round" stroke-miterlimit="10" fill="#4472C4"/></g><g clip-path="url(#clip10)"><path d="M0 0 1147 3.0001" stroke="#C00000" stroke-width="6.875" stroke-linecap="round" stroke-linejoin="round" stroke-miterlimit="10" stroke-dasharray="0 13.75" fill="none" fill-rule="evenodd" transform="matrix(1 0 0 -1 2399.5 13753.5)"/></g><g clip-path="url(#clip11)"><text fill="#595959" font-family="Calibri,Calibri_MSFontService,sans-serif" font-weight="400" font-size="41" transform="matrix(1 0 0 1 3322.92 13540)">y = 0,8817x + 13612</text></g><g clip-path="url(#clip12)"><text fill="#595959" font-family="Calibri,Calibri_MSFontService,sans-serif" font-weight="400" font-size="41" transform="matrix(1 0 0 1 2244.48 14210)">-15000</text></g><g clip-path="url(#clip13)"><text fill="#595959" font-family="Calibri,Calibri_MSFontService,sans-serif" font-weight="400" font-size="41" transform="matrix(1 0 0 1 2244.48 14133)">-10000</text></g><g clip-path="url(#clip14)"><text fill="#595959" font-family="Calibri,Calibri_MSFontService,sans-serif" font-weight="400" font-size="41" transform="matrix(1 0 0 1 2265.38 14055)">-5000</text></g><g clip-path="url(#clip15)"><text fill="#595959" font-family="Calibri,Calibri_MSFontService,sans-serif" font-weight="400" font-size="41" transform="matrix(1 0 0 1 2340.71 13977)">0</text></g><g clip-path="url(#clip16)"><text fill="#595959" font-family="Calibri,Calibri_MSFontService,sans-serif" font-weight="400" font-size="41" transform="matrix(1 0 0 1 2278.01 13899)">5000</text></g><g clip-path="url(#clip17)"><text fill="#595959" font-family="Calibri,Calibri_MSFontService,sans-serif" font-weight="400" font-size="41" transform="matrix(1 0 0 1 2257.11 13822)">10000</text></g><g clip-path="url(#clip18)"><text fill="#595959" font-family="Calibri,Calibri_MSFontService,sans-serif" font-weight="400" font-size="41" transform="matrix(1 0 0 1 2257.11 13744)">15000</text></g><g clip-path="url(#clip19)"><text fill="#595959" font-family="Calibri,Calibri_MSFontService,sans-serif" font-weight="400" font-size="41" transform="matrix(1 0 0 1 2257.11 13666)">20000</text></g><g clip-path="url(#clip20)"><text fill="#595959" font-family="Calibri,Calibri_MSFontService,sans-serif" font-weight="400" font-size="41" transform="matrix(1 0 0 1 2257.11 13588)">25000</text></g><g clip-path="url(#clip21)"><text fill="#595959" font-family="Calibri,Calibri_MSFontService,sans-serif" font-weight="400" font-size="41" transform="matrix(1 0 0 1 2257.11 13510)">30000</text></g><g clip-path="url(#clip22)"><text fill="#595959" font-family="Calibri,Calibri_MSFontService,sans-serif" font-weight="400" font-size="41" transform="matrix(1 0 0 1 2389.43 14031)">0</text></g><g clip-path="url(#clip23)"><text fill="#595959" font-family="Calibri,Calibri_MSFontService,sans-serif" font-weight="400" font-size="41" transform="matrix(1 0 0 1 2636.15 14031)">50</text></g><g clip-path="url(#clip24)"><text fill="#595959" font-family="Calibri,Calibri_MSFontService,sans-serif" font-weight="400" font-size="41" transform="matrix(1 0 0 1 2882.87 14031)">100</text></g><g clip-path="url(#clip25)"><text fill="#595959" font-family="Calibri,Calibri_MSFontService,sans-serif" font-weight="400" font-size="41" transform="matrix(1 0 0 1 3140.04 14031)">150</text></g><g clip-path="url(#clip26)"><text fill="#595959" font-family="Calibri,Calibri_MSFontService,sans-serif" font-weight="400" font-size="41" transform="matrix(1 0 0 1 3397.21 14031)">200</text></g><g clip-path="url(#clip27)"><text fill="#595959" font-family="Calibri,Calibri_MSFontService,sans-serif" font-weight="400" font-size="41" transform="matrix(1 0 0 1 3654.38 14031)">250</text></g><g clip-path="url(#clip28)"><text fill="#595959" font-family="Calibri,Calibri_MSFontService,sans-serif" font-weight="400" font-size="46" transform="matrix(6.12323e-17 -1 1 6.12323e-17 2218.79 14072)">Current Average Fitness</text></g><g clip-path="url(#clip29)"><text fill="#595959" font-family="Calibri,Calibri_MSFontService,sans-serif" font-weight="400" font-size="46" transform="matrix(1 0 0 1 2937.47 14250)">Generation</text></g><g clip-path="url(#clip30)"><text fill="#595959" font-family="Calibri,Calibri_MSFontService,sans-serif" font-weight="400" font-size="64" transform="matrix(1 0 0 1 2603.17 13424)">Average Fitness (RED Pop)</text></g><rect x="2118.5" y="13329.5" width="1649" height="990" stroke="#D9D9D9" stroke-width="3.4375" stroke-linejoin="round" stroke-miterlimit="10" fill="none"/></g></svg>