<svg width="1652" height="993" xmlns="http://www.w3.org/2000/svg" xmlns:xlink="http://www.w3.org/1999/xlink" overflow="hidden"><defs><clipPath id="clip0"><rect x="2392" y="13878" width="1652" height="993"/></clipPath><clipPath id="clip1"><rect x="2392" y="13878" width="1650" height="990"/></clipPath><clipPath id="clip2"><rect x="2392" y="13878" width="1650" height="990"/></clipPath><clipPath id="clip3"><rect x="2392" y="13878" width="1650" height="990"/></clipPath><clipPath id="clip4"><rect x="2392" y="13878" width="1650" height="990"/></clipPath><clipPath id="clip5"><rect x="2392" y="13878" width="1650" height="990"/></clipPath><clipPath id="clip6"><rect x="2392" y="13878" width="1650" height="990"/></clipPath><clipPath id="clip7"><rect x="2392" y="13878" width="1650" height="990"/></clipPath><clipPath id="clip8"><rect x="2392" y="13878" width="1650" height="990"/></clipPath><clipPath id="clip9"><rect x="2392" y="13878" width="1650" height="990"/></clipPath><clipPath id="clip10"><rect x="2662" y="14048" width="1298" height="617"/></clipPath><clipPath id="clip11"><rect x="2392" y="13878" width="1650" height="990"/></clipPath><clipPath id="clip12"><rect x="2392" y="13878" width="1650" height="990"/></clipPath><clipPath id="clip13"><rect x="2392" y="13878" width="1650" height="990"/></clipPath><clipPath id="clip14"><rect x="2392" y="13878" width="1650" height="990"/></clipPath><clipPath id="clip15"><rect x="2392" y="13878" width="1650" height="990"/></clipPath><clipPath id="clip16"><rect x="2392" y="13878" width="1650" height="990"/></clipPath><clipPath id="clip17"><rect x="2392" y="13878" width="1650" height="990"/></clipPath><clipPath id="clip18"><rect x="2392" y="13878" width="1650" height="990"/></clipPath><clipPath id="clip19"><rect x="2392" y="13878" width="1650" height="990"/></clipPath><clipPath id="clip20"><rect x="2392" y="13878" width="1650" height="990"/></clipPath><clipPath id="clip21"><rect x="2392" y="13878" width="1650" height="990"/></clipPath><clipPath id="clip22"><rect x="2392" y="13878" width="1650" height="990"/></clipPath><clipPath id="clip23"><rect x="2392" y="13878" width="1650" height="990"/></clipPath><clipPath id="clip24"><rect x="2392" y="13878" width="1650" height="990"/></clipPath><clipPath id="clip25"><rect x="2392" y="13878" width="1650" height="990"/></clipPath><clipPath id="clip26"><rect x="2392" y="13878" width="1650" height="990"/></clipPath><clipPath id="clip27"><rect x="2392" y="13878" width="1650" height="990"/></clipPath><clipPath id="clip28"><rect x="2392" y="13878" width="1650" height="990"/></clipPath></defs><g clip-path="url(#clip0)" transform="translate(-2392 -13878)"><rect x="2393" y="13879" width="1649" height="990" fill="#FFFFFF"/><g clip-path="url(#clip1)"><path d="M2662.5 14648 3960.5 14648M2662.5 14630 3960.5 14630M2662.5 14613 3960.5 14613M2662.5 14595 3960.5 14595M2662.5 14560 3960.5 14560M2662.5 14542 3960.5 14542M2662.5 14525 3960.5 14525M2662.5 14507 3960.5 14507M2662.5 14472 3960.5 14472M2662.5 14454 3960.5 14454M2662.5 14436 3960.5 14436M2662.5 14419 3960.5 14419M2662.5 14384 3960.5 14384M2662.5 14366 3960.5 14366M2662.5 14348 3960.5 14348M2662.5 14331 3960.5 14331M2662.5 14296 3960.5 14296M2662.5 14278 3960.5 14278M2662.5 14260 3960.5 14260M2662.5 14243 3960.5 14243M2662.5 14207 3960.5 14207M2662.5 14190 3960.5 14190M2662.5 14172 3960.5 14172M2662.5 14155 3960.5 14155M2662.5 14119 3960.5 14119M2662.5 14102 3960.5 14102M2662.5 14084 3960.5 14084M2662.5 14067 3960.5 14067" stroke="#F2F2F2" stroke-width="3.4375" stroke-linejoin="round" stroke-miterlimit="10" fill="none"/></g><g clip-path="url(#clip2)"><path d="M2662.5 14577 3960.5 14577M2662.5 14489 3960.5 14489M2662.5 14401 3960.5 14401M2662.5 14313 3960.5 14313M2662.5 14225 3960.5 14225M2662.5 14137 3960.5 14137M2662.5 14048.5 3960.5 14048.5" stroke="#D9D9D9" stroke-width="3.4375" stroke-linejoin="round" stroke-miterlimit="10" fill="none"/></g><g clip-path="url(#clip3)"><path d="M2714.59 14048.5 2714.59 14665.5M2766.59 14048.5 2766.59 14665.5M2817.59 14048.5 2817.59 14665.5M2869.59 14048.5 2869.59 14665.5M2973.6 14048.5 2973.6 14665.5M3025.6 14048.5 3025.6 14665.5M3077.6 14048.5 3077.6 14665.5M3129.6 14048.5 3129.6 14665.5M3233.61 14048.5 3233.61 14665.5M3285.61 14048.5 3285.61 14665.5M3337.61 14048.5 3337.61 14665.5M3389.61 14048.5 3389.61 14665.5M3493.61 14048.5 3493.61 14665.5M3545.62 14048.5 3545.62 14665.5M3597.62 14048.5 3597.62 14665.5M3648.62 14048.5 3648.62 14665.5M3752.62 14048.5 3752.62 14665.5M3804.62 14048.5 3804.62 14665.5M3856.63 14048.5 3856.63 14665.5M3908.63 14048.5 3908.63 14665.5" stroke="#F2F2F2" stroke-width="3.4375" stroke-linejoin="round" stroke-miterlimit="10" fill="none"/></g><g clip-path="url(#clip4)"><path d="M2921.6 14048.5 2921.6 14665.5M3181.6 14048.5 3181.6 14665.5M3441.61 14048.5 3441.61 14665.5M3700.62 14048.5 3700.62 14665.5M3960.5 14048.5 3960.5 14665.5" stroke="#D9D9D9" stroke-width="3.4375" stroke-linejoin="round" stroke-miterlimit="10" fill="none"/></g><g clip-path="url(#clip5)"><path d="M0 0 0.000360892 617" stroke="#BFBFBF" stroke-width="3.4375" stroke-linejoin="round" stroke-miterlimit="10" fill="none" fill-rule="evenodd" transform="matrix(1 0 0 -1 2662.5 14665.5)"/></g><g clip-path="url(#clip6)"><path d="M2649.5 14665.5 2662.5 14665.5M2649.5 14577 2662.5 14577M2649.5 14489 2662.5 14489M2649.5 14401 2662.5 14401M2649.5 14313 2662.5 14313M2649.5 14225 2662.5 14225M2649.5 14137 2662.5 14137M2649.5 14048.5 2662.5 14048.5" stroke="#BFBFBF" stroke-width="3.4375" stroke-linejoin="round" stroke-miterlimit="10" fill="none"/></g><g clip-path="url(#clip7)"><path d="M2662.5 14665.5 3960.5 14665.5" stroke="#BFBFBF" stroke-width="3.4375" stroke-linejoin="round" stroke-miterlimit="10" fill="none" fill-rule="evenodd"/></g><g clip-path="url(#clip8)"><path d="M2662.5 14665.5 2662.5 14678.5M2921.6 14665.5 2921.6 14678.5M3181.6 14665.5 3181.6 14678.5M3441.61 14665.5 3441.61 14678.5M3700.62 14665.5 3700.62 14678.5M3960.5 14665.5 3960.5 14678.5" stroke="#BFBFBF" stroke-width="3.4375" stroke-linejoin="round" stroke-miterlimit="10" fill="none"/></g><g clip-path="url(#clip9)"><path d="M2674 14592.4C2674 14598.5 2669.07 14603.4 2663 14603.4 2656.92 14603.4 2652 14598.5 2652 14592.4 2652 14586.3 2656.92 14581.4 2663 14581.4 2669.07 14581.4 2674 14586.3 2674 14592.4Z" stroke="#4472C4" stroke-width="3.4375" stroke-linejoin="round" stroke-miterlimit="10" fill="#4472C4"/><path d="M2679 14590.4C2679 14596.5 2674.07 14601.4 2668 14601.4 2661.92 14601.4 2657 14596.5 2657 14590.4 2657 14584.3 2661.92 14579.4 2668 14579.4 2674.07 14579.4 2679 14584.3 2679 14590.4Z" stroke="#4472C4" stroke-width="3.4375" stroke-linejoin="round" stroke-miterlimit="10" fill="#4472C4"/><path d="M2684 14590.4C2684 14596.5 2679.07 14601.4 2673 14601.4 2666.92 14601.4 2662 14596.5 2662 14590.4 2662 14584.3 2666.92 14579.4 2673 14579.4 2679.07 14579.4 2684 14584.3 2684 14590.4Z" stroke="#4472C4" stroke-width="3.4375" stroke-linejoin="round" stroke-miterlimit="10" fill="#4472C4"/><path d="M2689 14589.4C2689 14595.5 2684.07 14600.4 2678 14600.4 2671.92 14600.4 2667 14595.5 2667 14589.4 2667 14583.3 2671.92 14578.4 2678 14578.4 2684.07 14578.4 2689 14583.3 2689 14589.4Z" stroke="#4472C4" stroke-width="3.4375" stroke-linejoin="round" stroke-miterlimit="10" fill="#4472C4"/><path d="M2695 14589.4C2695 14595.5 2690.07 14600.4 2684 14600.4 2677.92 14600.4 2673 14595.5 2673 14589.4 2673 14583.3 2677.92 14578.4 2684 14578.4 2690.07 14578.4 2695 14583.3 2695 14589.4Z" stroke="#4472C4" stroke-width="3.4375" stroke-linejoin="round" stroke-miterlimit="10" fill="#4472C4"/><path d="M2700 14572.4C2700 14578.5 2695.07 14583.4 2689 14583.4 2682.92 14583.4 2678 14578.5 2678 14572.4 2678 14566.3 2682.92 14561.4 2689 14561.4 2695.07 14561.4 2700 14566.3 2700 14572.4Z" stroke="#4472C4" stroke-width="3.4375" stroke-linejoin="round" stroke-miterlimit="10" fill="#4472C4"/><path d="M2705 14566.4C2705 14572.5 2700.07 14577.4 2694 14577.4 2687.92 14577.4 2683 14572.5 2683 14566.4 2683 14560.3 2687.92 14555.4 2694 14555.4 2700.07 14555.4 2705 14560.3 2705 14566.4Z" stroke="#4472C4" stroke-width="3.4375" stroke-linejoin="round" stroke-miterlimit="10" fill="#4472C4"/><path d="M2710 14558.4C2710 14564.5 2705.07 14569.4 2699 14569.4 2692.92 14569.4 2688 14564.5 2688 14558.4 2688 14552.3 2692.92 14547.4 2699 14547.4 2705.07 14547.4 2710 14552.3 2710 14558.4Z" stroke="#4472C4" stroke-width="3.4375" stroke-linejoin="round" stroke-miterlimit="10" fill="#4472C4"/><path d="M2715 14537.4C2715 14543.5 2710.07 14548.4 2704 14548.4 2697.92 14548.4 2693 14543.5 2693 14537.4 2693 14531.3 2697.92 14526.4 2704 14526.4 2710.07 14526.4 2715 14531.3 2715 14537.4Z" stroke="#4472C4" stroke-width="3.4375" stroke-linejoin="round" stroke-miterlimit="10" fill="#4472C4"/><path d="M2720 14555.4C2720 14561.5 2715.07 14566.4 2709 14566.4 2702.92 14566.4 2698 14561.5 2698 14555.4 2698 14549.3 2702.92 14544.4 2709 14544.4 2715.07 14544.4 2720 14549.3 2720 14555.4Z" stroke="#4472C4" stroke-width="3.4375" stroke-linejoin="round" stroke-miterlimit="10" fill="#4472C4"/><path d="M2726 14527.4C2726 14533.5 2721.07 14538.4 2715 14538.4 2708.92 14538.4 2704 14533.5 2704 14527.4 2704 14521.3 2708.92 14516.4 2715 14516.4 2721.07 14516.4 2726 14521.3 2726 14527.4Z" stroke="#4472C4" stroke-width="3.4375" stroke-linejoin="round" stroke-miterlimit="10" fill="#4472C4"/><path d="M2731 14561.4C2731 14567.5 2726.07 14572.4 2720 14572.4 2713.92 14572.4 2709 14567.5 2709 14561.4 2709 14555.3 2713.92 14550.4 2720 14550.4 2726.07 14550.4 2731 14555.3 2731 14561.4Z" stroke="#4472C4" stroke-width="3.4375" stroke-linejoin="round" stroke-miterlimit="10" fill="#4472C4"/><path d="M2736 14548.4C2736 14554.5 2731.07 14559.4 2725 14559.4 2718.92 14559.4 2714 14554.5 2714 14548.4 2714 14542.3 2718.92 14537.4 2725 14537.4 2731.07 14537.4 2736 14542.3 2736 14548.4Z" stroke="#4472C4" stroke-width="3.4375" stroke-linejoin="round" stroke-miterlimit="10" fill="#4472C4"/><path d="M2741 14561.4C2741 14567.5 2736.07 14572.4 2730 14572.4 2723.92 14572.4 2719 14567.5 2719 14561.4 2719 14555.3 2723.92 14550.4 2730 14550.4 2736.07 14550.4 2741 14555.3 2741 14561.4Z" stroke="#4472C4" stroke-width="3.4375" stroke-linejoin="round" stroke-miterlimit="10" fill="#4472C4"/><path d="M2746 14561.4C2746 14567.5 2741.07 14572.4 2735 14572.4 2728.92 14572.4 2724 14567.5 2724 14561.4 2724 14555.3 2728.92 14550.4 2735 14550.4 2741.07 14550.4 2746 14555.3 2746 14561.4Z" stroke="#4472C4" stroke-width="3.4375" stroke-linejoin="round" stroke-miterlimit="10" fill="#4472C4"/><path d="M2752 14504.4C2752 14510.5 2747.07 14515.4 2741 14515.4 2734.92 14515.4 2730 14510.5 2730 14504.4 2730 14498.3 2734.92 14493.4 2741 14493.4 2747.07 14493.4 2752 14498.3 2752 14504.4Z" stroke="#4472C4" stroke-width="3.4375" stroke-linejoin="round" stroke-miterlimit="10" fill="#4472C4"/><path d="M2757 14559.4C2757 14565.5 2752.07 14570.4 2746 14570.4 2739.92 14570.4 2735 14565.5 2735 14559.4 2735 14553.3 2739.92 14548.4 2746 14548.4 2752.07 14548.4 2757 14553.3 2757 14559.4Z" stroke="#4472C4" stroke-width="3.4375" stroke-linejoin="round" stroke-miterlimit="10" fill="#4472C4"/><path d="M2762 14518.4C2762 14524.5 2757.07 14529.4 2751 14529.4 2744.92 14529.4 2740 14524.5 2740 14518.4 2740 14512.3 2744.92 14507.4 2751 14507.4 2757.07 14507.4 2762 14512.3 2762 14518.4Z" stroke="#4472C4" stroke-width="3.4375" stroke-linejoin="round" stroke-miterlimit="10" fill="#4472C4"/><path d="M2767 14529.4C2767 14535.5 2762.07 14540.4 2756 14540.4 2749.92 14540.4 2745 14535.5 2745 14529.4 2745 14523.3 2749.92 14518.4 2756 14518.4 2762.07 14518.4 2767 14523.3 2767 14529.4Z" stroke="#4472C4" stroke-width="3.4375" stroke-linejoin="round" stroke-miterlimit="10" fill="#4472C4"/><path d="M2772 14471.4C2772 14477.5 2767.07 14482.4 2761 14482.4 2754.92 14482.4 2750 14477.5 2750 14471.4 2750 14465.3 2754.92 14460.4 2761 14460.4 2767.07 14460.4 2772 14465.3 2772 14471.4Z" stroke="#4472C4" stroke-width="3.4375" stroke-linejoin="round" stroke-miterlimit="10" fill="#4472C4"/><path d="M2778 14520.4C2778 14526.5 2773.07 14531.4 2767 14531.4 2760.92 14531.4 2756 14526.5 2756 14520.4 2756 14514.3 2760.92 14509.4 2767 14509.4 2773.07 14509.4 2778 14514.3 2778 14520.4Z" stroke="#4472C4" stroke-width="3.4375" stroke-linejoin="round" stroke-miterlimit="10" fill="#4472C4"/><path d="M2783 14496.4C2783 14502.5 2778.07 14507.4 2772 14507.4 2765.92 14507.4 2761 14502.5 2761 14496.4 2761 14490.3 2765.92 14485.4 2772 14485.4 2778.07 14485.4 2783 14490.3 2783 14496.4Z" stroke="#4472C4" stroke-width="3.4375" stroke-linejoin="round" stroke-miterlimit="10" fill="#4472C4"/><path d="M2788 14559.4C2788 14565.5 2783.07 14570.4 2777 14570.4 2770.92 14570.4 2766 14565.5 2766 14559.4 2766 14553.3 2770.92 14548.4 2777 14548.4 2783.07 14548.4 2788 14553.3 2788 14559.4Z" stroke="#4472C4" stroke-width="3.4375" stroke-linejoin="round" stroke-miterlimit="10" fill="#4472C4"/><path d="M2793 14495.4C2793 14501.5 2788.07 14506.4 2782 14506.4 2775.92 14506.4 2771 14501.5 2771 14495.4 2771 14489.3 2775.92 14484.4 2782 14484.4 2788.07 14484.4 2793 14489.3 2793 14495.4Z" stroke="#4472C4" stroke-width="3.4375" stroke-linejoin="round" stroke-miterlimit="10" fill="#4472C4"/><path d="M2798 14483.4C2798 14489.5 2793.07 14494.4 2787 14494.4 2780.92 14494.4 2776 14489.5 2776 14483.4 2776 14477.3 2780.92 14472.4 2787 14472.4 2793.07 14472.4 2798 14477.3 2798 14483.4Z" stroke="#4472C4" stroke-width="3.4375" stroke-linejoin="round" stroke-miterlimit="10" fill="#4472C4"/><path d="M2804 14562.4C2804 14568.5 2799.07 14573.4 2793 14573.4 2786.92 14573.4 2782 14568.5 2782 14562.4 2782 14556.3 2786.92 14551.4 2793 14551.4 2799.07 14551.4 2804 14556.3 2804 14562.4Z" stroke="#4472C4" stroke-width="3.4375" stroke-linejoin="round" stroke-miterlimit="10" fill="#4472C4"/><path d="M2809 14534.4C2809 14540.5 2804.07 14545.4 2798 14545.4 2791.92 14545.4 2787 14540.5 2787 14534.4 2787 14528.3 2791.92 14523.4 2798 14523.4 2804.07 14523.4 2809 14528.3 2809 14534.4Z" stroke="#4472C4" stroke-width="3.4375" stroke-linejoin="round" stroke-miterlimit="10" fill="#4472C4"/><path d="M2814 14534.4C2814 14540.5 2809.07 14545.4 2803 14545.4 2796.92 14545.4 2792 14540.5 2792 14534.4 2792 14528.3 2796.92 14523.4 2803 14523.4 2809.07 14523.4 2814 14528.3 2814 14534.4Z" stroke="#4472C4" stroke-width="3.4375" stroke-linejoin="round" stroke-miterlimit="10" fill="#4472C4"/><path d="M2819 14547.4C2819 14553.5 2814.07 14558.4 2808 14558.4 2801.92 14558.4 2797 14553.5 2797 14547.4 2797 14541.3 2801.92 14536.4 2808 14536.4 2814.07 14536.4 2819 14541.3 2819 14547.4Z" stroke="#4472C4" stroke-width="3.4375" stroke-linejoin="round" stroke-miterlimit="10" fill="#4472C4"/><path d="M2824 14557.4C2824 14563.5 2819.07 14568.4 2813 14568.4 2806.92 14568.4 2802 14563.5 2802 14557.4 2802 14551.3 2806.92 14546.4 2813 14546.4 2819.07 14546.4 2824 14551.3 2824 14557.4Z" stroke="#4472C4" stroke-width="3.4375" stroke-linejoin="round" stroke-miterlimit="10" fill="#4472C4"/><path d="M2830 14514.4C2830 14520.5 2825.07 14525.4 2819 14525.4 2812.92 14525.4 2808 14520.5 2808 14514.4 2808 14508.3 2812.92 14503.4 2819 14503.4 2825.07 14503.4 2830 14508.3 2830 14514.4Z" stroke="#4472C4" stroke-width="3.4375" stroke-linejoin="round" stroke-miterlimit="10" fill="#4472C4"/><path d="M2835 14526.4C2835 14532.5 2830.07 14537.4 2824 14537.4 2817.92 14537.4 2813 14532.5 2813 14526.4 2813 14520.3 2817.92 14515.4 2824 14515.4 2830.07 14515.4 2835 14520.3 2835 14526.4Z" stroke="#4472C4" stroke-width="3.4375" stroke-linejoin="round" stroke-miterlimit="10" fill="#4472C4"/><path d="M2840 14511.4C2840 14517.5 2835.07 14522.4 2829 14522.4 2822.92 14522.4 2818 14517.5 2818 14511.4 2818 14505.3 2822.92 14500.4 2829 14500.4 2835.07 14500.4 2840 14505.3 2840 14511.4Z" stroke="#4472C4" stroke-width="3.4375" stroke-linejoin="round" stroke-miterlimit="10" fill="#4472C4"/><path d="M2845 14489.4C2845 14495.5 2840.07 14500.4 2834 14500.4 2827.92 14500.4 2823 14495.5 2823 14489.4 2823 14483.3 2827.92 14478.4 2834 14478.4 2840.07 14478.4 2845 14483.3 2845 14489.4Z" stroke="#4472C4" stroke-width="3.4375" stroke-linejoin="round" stroke-miterlimit="10" fill="#4472C4"/><path d="M2850 14527.4C2850 14533.5 2845.07 14538.4 2839 14538.4 2832.92 14538.4 2828 14533.5 2828 14527.4 2828 14521.3 2832.92 14516.4 2839 14516.4 2845.07 14516.4 2850 14521.3 2850 14527.4Z" stroke="#4472C4" stroke-width="3.4375" stroke-linejoin="round" stroke-miterlimit="10" fill="#4472C4"/><path d="M2856 14500.4C2856 14506.5 2851.07 14511.4 2845 14511.4 2838.92 14511.4 2834 14506.5 2834 14500.4 2834 14494.3 2838.92 14489.4 2845 14489.4 2851.07 14489.4 2856 14494.3 2856 14500.4Z" stroke="#4472C4" stroke-width="3.4375" stroke-linejoin="round" stroke-miterlimit="10" fill="#4472C4"/><path d="M2861 14473.4C2861 14479.5 2856.07 14484.4 2850 14484.4 2843.92 14484.4 2839 14479.5 2839 14473.4 2839 14467.3 2843.92 14462.4 2850 14462.4 2856.07 14462.4 2861 14467.3 2861 14473.4Z" stroke="#4472C4" stroke-width="3.4375" stroke-linejoin="round" stroke-miterlimit="10" fill="#4472C4"/><path d="M2866 14490.4C2866 14496.5 2861.07 14501.4 2855 14501.4 2848.92 14501.4 2844 14496.5 2844 14490.4 2844 14484.3 2848.92 14479.4 2855 14479.4 2861.07 14479.4 2866 14484.3 2866 14490.4Z" stroke="#4472C4" stroke-width="3.4375" stroke-linejoin="round" stroke-miterlimit="10" fill="#4472C4"/><path d="M2871 14501.4C2871 14507.5 2866.07 14512.4 2860 14512.4 2853.92 14512.4 2849 14507.5 2849 14501.4 2849 14495.3 2853.92 14490.4 2860 14490.4 2866.07 14490.4 2871 14495.3 2871 14501.4Z" stroke="#4472C4" stroke-width="3.4375" stroke-linejoin="round" stroke-miterlimit="10" fill="#4472C4"/><path d="M2876 14474.4C2876 14480.5 2871.07 14485.4 2865 14485.4 2858.92 14485.4 2854 14480.5 2854 14474.4 2854 14468.3 2858.92 14463.4 2865 14463.4 2871.07 14463.4 2876 14468.3 2876 14474.4Z" stroke="#4472C4" stroke-width="3.4375" stroke-linejoin="round" stroke-miterlimit="10" fill="#4472C4"/><path d="M2882 14514.4C2882 14520.5 2877.07 14525.4 2871 14525.4 2864.92 14525.4 2860 14520.5 2860 14514.4 2860 14508.3 2864.92 14503.4 2871 14503.4 2877.07 14503.4 2882 14508.3 2882 14514.4Z" stroke="#4472C4" stroke-width="3.4375" stroke-linejoin="round" stroke-miterlimit="10" fill="#4472C4"/><path d="M2887 14476.4C2887 14482.5 2882.07 14487.4 2876 14487.4 2869.92 14487.4 2865 14482.5 2865 14476.4 2865 14470.3 2869.92 14465.4 2876 14465.4 2882.07 14465.4 2887 14470.3 2887 14476.4Z" stroke="#4472C4" stroke-width="3.4375" stroke-linejoin="round" stroke-miterlimit="10" fill="#4472C4"/><path d="M2892 14518.4C2892 14524.5 2887.07 14529.4 2881 14529.4 2874.92 14529.4 2870 14524.5 2870 14518.4 2870 14512.3 2874.92 14507.4 2881 14507.4 2887.07 14507.4 2892 14512.3 2892 14518.4Z" stroke="#4472C4" stroke-width="3.4375" stroke-linejoin="round" stroke-miterlimit="10" fill="#4472C4"/><path d="M2897 14511.4C2897 14517.5 2892.07 14522.4 2886 14522.4 2879.92 14522.4 2875 14517.5 2875 14511.4 2875 14505.3 2879.92 14500.4 2886 14500.4 2892.07 14500.4 2897 14505.3 2897 14511.4Z" stroke="#4472C4" stroke-width="3.4375" stroke-linejoin="round" stroke-miterlimit="10" fill="#4472C4"/><path d="M2902 14520.4C2902 14526.5 2897.07 14531.4 2891 14531.4 2884.92 14531.4 2880 14526.5 2880 14520.4 2880 14514.3 2884.92 14509.4 2891 14509.4 2897.07 14509.4 2902 14514.3 2902 14520.4Z" stroke="#4472C4" stroke-width="3.4375" stroke-linejoin="round" stroke-miterlimit="10" fill="#4472C4"/><path d="M2907 14507.4C2907 14513.5 2902.07 14518.4 2896 14518.4 2889.92 14518.4 2885 14513.5 2885 14507.4 2885 14501.3 2889.92 14496.4 2896 14496.4 2902.07 14496.4 2907 14501.3 2907 14507.4Z" stroke="#4472C4" stroke-width="3.4375" stroke-linejoin="round" stroke-miterlimit="10" fill="#4472C4"/><path d="M2913 14484.4C2913 14490.5 2908.07 14495.4 2902 14495.4 2895.92 14495.4 2891 14490.5 2891 14484.4 2891 14478.3 2895.92 14473.4 2902 14473.4 2908.07 14473.4 2913 14478.3 2913 14484.4Z" stroke="#4472C4" stroke-width="3.4375" stroke-linejoin="round" stroke-miterlimit="10" fill="#4472C4"/><path d="M2918 14501.4C2918 14507.5 2913.07 14512.4 2907 14512.4 2900.92 14512.4 2896 14507.5 2896 14501.4 2896 14495.3 2900.92 14490.4 2907 14490.4 2913.07 14490.4 2918 14495.3 2918 14501.4Z" stroke="#4472C4" stroke-width="3.4375" stroke-linejoin="round" stroke-miterlimit="10" fill="#4472C4"/><path d="M2923 14521.4C2923 14527.5 2918.07 14532.4 2912 14532.4 2905.92 14532.4 2901 14527.5 2901 14521.4 2901 14515.3 2905.92 14510.4 2912 14510.4 2918.07 14510.4 2923 14515.3 2923 14521.4Z" stroke="#4472C4" stroke-width="3.4375" stroke-linejoin="round" stroke-miterlimit="10" fill="#4472C4"/><path d="M2928 14486.4C2928 14492.5 2923.07 14497.4 2917 14497.4 2910.92 14497.4 2906 14492.5 2906 14486.4 2906 14480.3 2910.92 14475.4 2917 14475.4 2923.07 14475.4 2928 14480.3 2928 14486.4Z" stroke="#4472C4" stroke-width="3.4375" stroke-linejoin="round" stroke-miterlimit="10" fill="#4472C4"/><path d="M2933 14534.4C2933 14540.5 2928.07 14545.4 2922 14545.4 2915.92 14545.4 2911 14540.5 2911 14534.4 2911 14528.3 2915.92 14523.4 2922 14523.4 2928.07 14523.4 2933 14528.3 2933 14534.4Z" stroke="#4472C4" stroke-width="3.4375" stroke-linejoin="round" stroke-miterlimit="10" fill="#4472C4"/><path d="M2939 14534.4C2939 14540.5 2934.07 14545.4 2928 14545.4 2921.92 14545.4 2917 14540.5 2917 14534.4 2917 14528.3 2921.92 14523.4 2928 14523.4 2934.07 14523.4 2939 14528.3 2939 14534.4Z" stroke="#4472C4" stroke-width="3.4375" stroke-linejoin="round" stroke-miterlimit="10" fill="#4472C4"/><path d="M2944 14506.4C2944 14512.5 2939.07 14517.4 2933 14517.4 2926.92 14517.4 2922 14512.5 2922 14506.4 2922 14500.3 2926.92 14495.4 2933 14495.4 2939.07 14495.4 2944 14500.3 2944 14506.4Z" stroke="#4472C4" stroke-width="3.4375" stroke-linejoin="round" stroke-miterlimit="10" fill="#4472C4"/><path d="M2949 14470.4C2949 14476.5 2944.07 14481.4 2938 14481.4 2931.92 14481.4 2927 14476.5 2927 14470.4 2927 14464.3 2931.92 14459.4 2938 14459.4 2944.07 14459.4 2949 14464.3 2949 14470.4Z" stroke="#4472C4" stroke-width="3.4375" stroke-linejoin="round" stroke-miterlimit="10" fill="#4472C4"/><path d="M2954 14471.4C2954 14477.5 2949.07 14482.4 2943 14482.4 2936.92 14482.4 2932 14477.5 2932 14471.4 2932 14465.3 2936.92 14460.4 2943 14460.4 2949.07 14460.4 2954 14465.3 2954 14471.4Z" stroke="#4472C4" stroke-width="3.4375" stroke-linejoin="round" stroke-miterlimit="10" fill="#4472C4"/><path d="M2959 14507.4C2959 14513.5 2954.07 14518.4 2948 14518.4 2941.92 14518.4 2937 14513.5 2937 14507.4 2937 14501.3 2941.92 14496.4 2948 14496.4 2954.07 14496.4 2959 14501.3 2959 14507.4Z" stroke="#4472C4" stroke-width="3.4375" stroke-linejoin="round" stroke-miterlimit="10" fill="#4472C4"/><path d="M2965 14520.4C2965 14526.5 2960.07 14531.4 2954 14531.4 2947.92 14531.4 2943 14526.5 2943 14520.4 2943 14514.3 2947.92 14509.4 2954 14509.4 2960.07 14509.4 2965 14514.3 2965 14520.4Z" stroke="#4472C4" stroke-width="3.4375" stroke-linejoin="round" stroke-miterlimit="10" fill="#4472C4"/><path d="M2970 14508.4C2970 14514.5 2965.07 14519.4 2959 14519.4 2952.92 14519.4 2948 14514.5 2948 14508.4 2948 14502.3 2952.92 14497.4 2959 14497.4 2965.07 14497.4 2970 14502.3 2970 14508.4Z" stroke="#4472C4" stroke-width="3.4375" stroke-linejoin="round" stroke-miterlimit="10" fill="#4472C4"/><path d="M2975 14507.4C2975 14513.5 2970.07 14518.4 2964 14518.4 2957.92 14518.4 2953 14513.5 2953 14507.4 2953 14501.3 2957.92 14496.4 2964 14496.4 2970.07 14496.4 2975 14501.3 2975 14507.4Z" stroke="#4472C4" stroke-width="3.4375" stroke-linejoin="round" stroke-miterlimit="10" fill="#4472C4"/><path d="M2980 14470.4C2980 14476.5 2975.07 14481.4 2969 14481.4 2962.92 14481.4 2958 14476.5 2958 14470.4 2958 14464.3 2962.92 14459.4 2969 14459.4 2975.07 14459.4 2980 14464.3 2980 14470.4Z" stroke="#4472C4" stroke-width="3.4375" stroke-linejoin="round" stroke-miterlimit="10" fill="#4472C4"/><path d="M2985 14502.4C2985 14508.5 2980.07 14513.4 2974 14513.4 2967.92 14513.4 2963 14508.5 2963 14502.4 2963 14496.3 2967.92 14491.4 2974 14491.4 2980.07 14491.4 2985 14496.3 2985 14502.4Z" stroke="#4472C4" stroke-width="3.4375" stroke-linejoin="round" stroke-miterlimit="10" fill="#4472C4"/><path d="M2991 14532.4C2991 14538.5 2986.07 14543.4 2980 14543.4 2973.92 14543.4 2969 14538.5 2969 14532.4 2969 14526.3 2973.92 14521.4 2980 14521.4 2986.07 14521.4 2991 14526.3 2991 14532.4Z" stroke="#4472C4" stroke-width="3.4375" stroke-linejoin="round" stroke-miterlimit="10" fill="#4472C4"/><path d="M2996 14507.4C2996 14513.5 2991.07 14518.4 2985 14518.4 2978.92 14518.4 2974 14513.5 2974 14507.4 2974 14501.3 2978.92 14496.4 2985 14496.4 2991.07 14496.4 2996 14501.3 2996 14507.4Z" stroke="#4472C4" stroke-width="3.4375" stroke-linejoin="round" stroke-miterlimit="10" fill="#4472C4"/><path d="M3001 14508.4C3001 14514.5 2996.07 14519.4 2990 14519.4 2983.92 14519.4 2979 14514.5 2979 14508.4 2979 14502.3 2983.92 14497.4 2990 14497.4 2996.07 14497.4 3001 14502.3 3001 14508.4Z" stroke="#4472C4" stroke-width="3.4375" stroke-linejoin="round" stroke-miterlimit="10" fill="#4472C4"/><path d="M3006 14472.4C3006 14478.5 3001.07 14483.4 2995 14483.4 2988.92 14483.4 2984 14478.5 2984 14472.4 2984 14466.3 2988.92 14461.4 2995 14461.4 3001.07 14461.4 3006 14466.3 3006 14472.4Z" stroke="#4472C4" stroke-width="3.4375" stroke-linejoin="round" stroke-miterlimit="10" fill="#4472C4"/><path d="M3011 14516.4C3011 14522.5 3006.07 14527.4 3000 14527.4 2993.92 14527.4 2989 14522.5 2989 14516.4 2989 14510.3 2993.92 14505.4 3000 14505.4 3006.07 14505.4 3011 14510.3 3011 14516.4Z" stroke="#4472C4" stroke-width="3.4375" stroke-linejoin="round" stroke-miterlimit="10" fill="#4472C4"/><path d="M3017 14517.4C3017 14523.5 3012.07 14528.4 3006 14528.4 2999.92 14528.4 2995 14523.5 2995 14517.4 2995 14511.3 2999.92 14506.4 3006 14506.4 3012.07 14506.4 3017 14511.3 3017 14517.4Z" stroke="#4472C4" stroke-width="3.4375" stroke-linejoin="round" stroke-miterlimit="10" fill="#4472C4"/><path d="M3022 14490.4C3022 14496.5 3017.07 14501.4 3011 14501.4 3004.92 14501.4 3000 14496.5 3000 14490.4 3000 14484.3 3004.92 14479.4 3011 14479.4 3017.07 14479.4 3022 14484.3 3022 14490.4Z" stroke="#4472C4" stroke-width="3.4375" stroke-linejoin="round" stroke-miterlimit="10" fill="#4472C4"/><path d="M3027 14474.4C3027 14480.5 3022.07 14485.4 3016 14485.4 3009.92 14485.4 3005 14480.5 3005 14474.4 3005 14468.3 3009.92 14463.4 3016 14463.4 3022.07 14463.4 3027 14468.3 3027 14474.4Z" stroke="#4472C4" stroke-width="3.4375" stroke-linejoin="round" stroke-miterlimit="10" fill="#4472C4"/><path d="M3032 14508.4C3032 14514.5 3027.07 14519.4 3021 14519.4 3014.92 14519.4 3010 14514.5 3010 14508.4 3010 14502.3 3014.92 14497.4 3021 14497.4 3027.07 14497.4 3032 14502.3 3032 14508.4Z" stroke="#4472C4" stroke-width="3.4375" stroke-linejoin="round" stroke-miterlimit="10" fill="#4472C4"/><path d="M3037 14477.4C3037 14483.5 3032.07 14488.4 3026 14488.4 3019.92 14488.4 3015 14483.5 3015 14477.4 3015 14471.3 3019.92 14466.4 3026 14466.4 3032.07 14466.4 3037 14471.3 3037 14477.4Z" stroke="#4472C4" stroke-width="3.4375" stroke-linejoin="round" stroke-miterlimit="10" fill="#4472C4"/><path d="M3043 14503.4C3043 14509.5 3038.07 14514.4 3032 14514.4 3025.92 14514.4 3021 14509.5 3021 14503.4 3021 14497.3 3025.92 14492.4 3032 14492.4 3038.07 14492.4 3043 14497.3 3043 14503.4Z" stroke="#4472C4" stroke-width="3.4375" stroke-linejoin="round" stroke-miterlimit="10" fill="#4472C4"/><path d="M3048 14478.4C3048 14484.5 3043.07 14489.4 3037 14489.4 3030.92 14489.4 3026 14484.5 3026 14478.4 3026 14472.3 3030.92 14467.4 3037 14467.4 3043.07 14467.4 3048 14472.3 3048 14478.4Z" stroke="#4472C4" stroke-width="3.4375" stroke-linejoin="round" stroke-miterlimit="10" fill="#4472C4"/><path d="M3053 14550.4C3053 14556.5 3048.07 14561.4 3042 14561.4 3035.92 14561.4 3031 14556.5 3031 14550.4 3031 14544.3 3035.92 14539.4 3042 14539.4 3048.07 14539.4 3053 14544.3 3053 14550.4Z" stroke="#4472C4" stroke-width="3.4375" stroke-linejoin="round" stroke-miterlimit="10" fill="#4472C4"/><path d="M3058 14546.4C3058 14552.5 3053.07 14557.4 3047 14557.4 3040.92 14557.4 3036 14552.5 3036 14546.4 3036 14540.3 3040.92 14535.4 3047 14535.4 3053.07 14535.4 3058 14540.3 3058 14546.4Z" stroke="#4472C4" stroke-width="3.4375" stroke-linejoin="round" stroke-miterlimit="10" fill="#4472C4"/><path d="M3063 14507.4C3063 14513.5 3058.07 14518.4 3052 14518.4 3045.92 14518.4 3041 14513.5 3041 14507.4 3041 14501.3 3045.92 14496.4 3052 14496.4 3058.07 14496.4 3063 14501.3 3063 14507.4Z" stroke="#4472C4" stroke-width="3.4375" stroke-linejoin="round" stroke-miterlimit="10" fill="#4472C4"/><path d="M3068 14484.4C3068 14490.5 3063.07 14495.4 3057 14495.4 3050.92 14495.4 3046 14490.5 3046 14484.4 3046 14478.3 3050.92 14473.4 3057 14473.4 3063.07 14473.4 3068 14478.3 3068 14484.4Z" stroke="#4472C4" stroke-width="3.4375" stroke-linejoin="round" stroke-miterlimit="10" fill="#4472C4"/><path d="M3074 14565.4C3074 14571.5 3069.07 14576.4 3063 14576.4 3056.92 14576.4 3052 14571.5 3052 14565.4 3052 14559.3 3056.92 14554.4 3063 14554.4 3069.07 14554.4 3074 14559.3 3074 14565.4Z" stroke="#4472C4" stroke-width="3.4375" stroke-linejoin="round" stroke-miterlimit="10" fill="#4472C4"/><path d="M3079 14563.4C3079 14569.5 3074.07 14574.4 3068 14574.4 3061.92 14574.4 3057 14569.5 3057 14563.4 3057 14557.3 3061.92 14552.4 3068 14552.4 3074.07 14552.4 3079 14557.3 3079 14563.4Z" stroke="#4472C4" stroke-width="3.4375" stroke-linejoin="round" stroke-miterlimit="10" fill="#4472C4"/><path d="M3084 14495.4C3084 14501.5 3079.07 14506.4 3073 14506.4 3066.92 14506.4 3062 14501.5 3062 14495.4 3062 14489.3 3066.92 14484.4 3073 14484.4 3079.07 14484.4 3084 14489.3 3084 14495.4Z" stroke="#4472C4" stroke-width="3.4375" stroke-linejoin="round" stroke-miterlimit="10" fill="#4472C4"/><path d="M3089 14513.4C3089 14519.5 3084.07 14524.4 3078 14524.4 3071.92 14524.4 3067 14519.5 3067 14513.4 3067 14507.3 3071.92 14502.4 3078 14502.4 3084.07 14502.4 3089 14507.3 3089 14513.4Z" stroke="#4472C4" stroke-width="3.4375" stroke-linejoin="round" stroke-miterlimit="10" fill="#4472C4"/><path d="M3094 14485.4C3094 14491.5 3089.07 14496.4 3083 14496.4 3076.92 14496.4 3072 14491.5 3072 14485.4 3072 14479.3 3076.92 14474.4 3083 14474.4 3089.07 14474.4 3094 14479.3 3094 14485.4Z" stroke="#4472C4" stroke-width="3.4375" stroke-linejoin="round" stroke-miterlimit="10" fill="#4472C4"/><path d="M3100 14501.4C3100 14507.5 3095.07 14512.4 3089 14512.4 3082.92 14512.4 3078 14507.5 3078 14501.4 3078 14495.3 3082.92 14490.4 3089 14490.4 3095.07 14490.4 3100 14495.3 3100 14501.4Z" stroke="#4472C4" stroke-width="3.4375" stroke-linejoin="round" stroke-miterlimit="10" fill="#4472C4"/><path d="M3105 14486.4C3105 14492.5 3100.07 14497.4 3094 14497.4 3087.92 14497.4 3083 14492.5 3083 14486.4 3083 14480.3 3087.92 14475.4 3094 14475.4 3100.07 14475.4 3105 14480.3 3105 14486.4Z" stroke="#4472C4" stroke-width="3.4375" stroke-linejoin="round" stroke-miterlimit="10" fill="#4472C4"/><path d="M3110 14522.4C3110 14528.5 3105.07 14533.4 3099 14533.4 3092.92 14533.4 3088 14528.5 3088 14522.4 3088 14516.3 3092.92 14511.4 3099 14511.4 3105.07 14511.4 3110 14516.3 3110 14522.4Z" stroke="#4472C4" stroke-width="3.4375" stroke-linejoin="round" stroke-miterlimit="10" fill="#4472C4"/><path d="M3115 14485.4C3115 14491.5 3110.07 14496.4 3104 14496.4 3097.92 14496.4 3093 14491.5 3093 14485.4 3093 14479.3 3097.92 14474.4 3104 14474.4 3110.07 14474.4 3115 14479.3 3115 14485.4Z" stroke="#4472C4" stroke-width="3.4375" stroke-linejoin="round" stroke-miterlimit="10" fill="#4472C4"/><path d="M3120 14485.4C3120 14491.5 3115.07 14496.4 3109 14496.4 3102.92 14496.4 3098 14491.5 3098 14485.4 3098 14479.3 3102.92 14474.4 3109 14474.4 3115.07 14474.4 3120 14479.3 3120 14485.4Z" stroke="#4472C4" stroke-width="3.4375" stroke-linejoin="round" stroke-miterlimit="10" fill="#4472C4"/><path d="M3126 14500.4C3126 14506.5 3121.07 14511.4 3115 14511.4 3108.92 14511.4 3104 14506.5 3104 14500.4 3104 14494.3 3108.92 14489.4 3115 14489.4 3121.07 14489.4 3126 14494.3 3126 14500.4Z" stroke="#4472C4" stroke-width="3.4375" stroke-linejoin="round" stroke-miterlimit="10" fill="#4472C4"/><path d="M3131 14468.4C3131 14474.5 3126.07 14479.4 3120 14479.4 3113.92 14479.4 3109 14474.5 3109 14468.4 3109 14462.3 3113.92 14457.4 3120 14457.4 3126.07 14457.4 3131 14462.3 3131 14468.4Z" stroke="#4472C4" stroke-width="3.4375" stroke-linejoin="round" stroke-miterlimit="10" fill="#4472C4"/><path d="M3136 14512.4C3136 14518.5 3131.07 14523.4 3125 14523.4 3118.92 14523.4 3114 14518.5 3114 14512.4 3114 14506.3 3118.92 14501.4 3125 14501.4 3131.07 14501.4 3136 14506.3 3136 14512.4Z" stroke="#4472C4" stroke-width="3.4375" stroke-linejoin="round" stroke-miterlimit="10" fill="#4472C4"/><path d="M3141 14471.4C3141 14477.5 3136.07 14482.4 3130 14482.4 3123.92 14482.4 3119 14477.5 3119 14471.4 3119 14465.3 3123.92 14460.4 3130 14460.4 3136.07 14460.4 3141 14465.3 3141 14471.4Z" stroke="#4472C4" stroke-width="3.4375" stroke-linejoin="round" stroke-miterlimit="10" fill="#4472C4"/><path d="M3146 14470.4C3146 14476.5 3141.07 14481.4 3135 14481.4 3128.92 14481.4 3124 14476.5 3124 14470.4 3124 14464.3 3128.92 14459.4 3135 14459.4 3141.07 14459.4 3146 14464.3 3146 14470.4Z" stroke="#4472C4" stroke-width="3.4375" stroke-linejoin="round" stroke-miterlimit="10" fill="#4472C4"/><path d="M3152 14498.4C3152 14504.5 3147.07 14509.4 3141 14509.4 3134.92 14509.4 3130 14504.5 3130 14498.4 3130 14492.3 3134.92 14487.4 3141 14487.4 3147.07 14487.4 3152 14492.3 3152 14498.4Z" stroke="#4472C4" stroke-width="3.4375" stroke-linejoin="round" stroke-miterlimit="10" fill="#4472C4"/><path d="M3157 14530.4C3157 14536.5 3152.07 14541.4 3146 14541.4 3139.92 14541.4 3135 14536.5 3135 14530.4 3135 14524.3 3139.92 14519.4 3146 14519.4 3152.07 14519.4 3157 14524.3 3157 14530.4Z" stroke="#4472C4" stroke-width="3.4375" stroke-linejoin="round" stroke-miterlimit="10" fill="#4472C4"/><path d="M3162 14470.4C3162 14476.5 3157.07 14481.4 3151 14481.4 3144.92 14481.4 3140 14476.5 3140 14470.4 3140 14464.3 3144.92 14459.4 3151 14459.4 3157.07 14459.4 3162 14464.3 3162 14470.4Z" stroke="#4472C4" stroke-width="3.4375" stroke-linejoin="round" stroke-miterlimit="10" fill="#4472C4"/><path d="M3167 14477.4C3167 14483.5 3162.07 14488.4 3156 14488.4 3149.92 14488.4 3145 14483.5 3145 14477.4 3145 14471.3 3149.92 14466.4 3156 14466.4 3162.07 14466.4 3167 14471.3 3167 14477.4Z" stroke="#4472C4" stroke-width="3.4375" stroke-linejoin="round" stroke-miterlimit="10" fill="#4472C4"/><path d="M3172 14470.4C3172 14476.5 3167.07 14481.4 3161 14481.4 3154.92 14481.4 3150 14476.5 3150 14470.4 3150 14464.3 3154.92 14459.4 3161 14459.4 3167.07 14459.4 3172 14464.3 3172 14470.4Z" stroke="#4472C4" stroke-width="3.4375" stroke-linejoin="round" stroke-miterlimit="10" fill="#4472C4"/><path d="M3178 14527.4C3178 14533.5 3173.07 14538.4 3167 14538.4 3160.92 14538.4 3156 14533.5 3156 14527.4 3156 14521.3 3160.92 14516.4 3167 14516.4 3173.07 14516.4 3178 14521.3 3178 14527.4Z" stroke="#4472C4" stroke-width="3.4375" stroke-linejoin="round" stroke-miterlimit="10" fill="#4472C4"/><path d="M3183 14502.4C3183 14508.5 3178.07 14513.4 3172 14513.4 3165.92 14513.4 3161 14508.5 3161 14502.4 3161 14496.3 3165.92 14491.4 3172 14491.4 3178.07 14491.4 3183 14496.3 3183 14502.4Z" stroke="#4472C4" stroke-width="3.4375" stroke-linejoin="round" stroke-miterlimit="10" fill="#4472C4"/><path d="M3188 14484.4C3188 14490.5 3183.07 14495.4 3177 14495.4 3170.92 14495.4 3166 14490.5 3166 14484.4 3166 14478.3 3170.92 14473.4 3177 14473.4 3183.07 14473.4 3188 14478.3 3188 14484.4Z" stroke="#4472C4" stroke-width="3.4375" stroke-linejoin="round" stroke-miterlimit="10" fill="#4472C4"/><path d="M3193 14556.4C3193 14562.5 3188.07 14567.4 3182 14567.4 3175.92 14567.4 3171 14562.5 3171 14556.4 3171 14550.3 3175.92 14545.4 3182 14545.4 3188.07 14545.4 3193 14550.3 3193 14556.4Z" stroke="#4472C4" stroke-width="3.4375" stroke-linejoin="round" stroke-miterlimit="10" fill="#4472C4"/><path d="M3198 14545.4C3198 14551.5 3193.07 14556.4 3187 14556.4 3180.92 14556.4 3176 14551.5 3176 14545.4 3176 14539.3 3180.92 14534.4 3187 14534.4 3193.07 14534.4 3198 14539.3 3198 14545.4Z" stroke="#4472C4" stroke-width="3.4375" stroke-linejoin="round" stroke-miterlimit="10" fill="#4472C4"/><path d="M3204 14499.4C3204 14505.5 3199.07 14510.4 3193 14510.4 3186.92 14510.4 3182 14505.5 3182 14499.4 3182 14493.3 3186.92 14488.4 3193 14488.4 3199.07 14488.4 3204 14493.3 3204 14499.4Z" stroke="#4472C4" stroke-width="3.4375" stroke-linejoin="round" stroke-miterlimit="10" fill="#4472C4"/><path d="M3209 14479.4C3209 14485.5 3204.07 14490.4 3198 14490.4 3191.92 14490.4 3187 14485.5 3187 14479.4 3187 14473.3 3191.92 14468.4 3198 14468.4 3204.07 14468.4 3209 14473.3 3209 14479.4Z" stroke="#4472C4" stroke-width="3.4375" stroke-linejoin="round" stroke-miterlimit="10" fill="#4472C4"/><path d="M3214 14551.4C3214 14557.5 3209.07 14562.4 3203 14562.4 3196.92 14562.4 3192 14557.5 3192 14551.4 3192 14545.3 3196.92 14540.4 3203 14540.4 3209.07 14540.4 3214 14545.3 3214 14551.4Z" stroke="#4472C4" stroke-width="3.4375" stroke-linejoin="round" stroke-miterlimit="10" fill="#4472C4"/><path d="M3219 14497.4C3219 14503.5 3214.07 14508.4 3208 14508.4 3201.92 14508.4 3197 14503.5 3197 14497.4 3197 14491.3 3201.92 14486.4 3208 14486.4 3214.07 14486.4 3219 14491.3 3219 14497.4Z" stroke="#4472C4" stroke-width="3.4375" stroke-linejoin="round" stroke-miterlimit="10" fill="#4472C4"/><path d="M3224 14471.4C3224 14477.5 3219.07 14482.4 3213 14482.4 3206.92 14482.4 3202 14477.5 3202 14471.4 3202 14465.3 3206.92 14460.4 3213 14460.4 3219.07 14460.4 3224 14465.3 3224 14471.4Z" stroke="#4472C4" stroke-width="3.4375" stroke-linejoin="round" stroke-miterlimit="10" fill="#4472C4"/><path d="M3229 14507.4C3229 14513.5 3224.07 14518.4 3218 14518.4 3211.92 14518.4 3207 14513.5 3207 14507.4 3207 14501.3 3211.92 14496.4 3218 14496.4 3224.07 14496.4 3229 14501.3 3229 14507.4Z" stroke="#4472C4" stroke-width="3.4375" stroke-linejoin="round" stroke-miterlimit="10" fill="#4472C4"/><path d="M3235 14504.4C3235 14510.5 3230.07 14515.4 3224 14515.4 3217.92 14515.4 3213 14510.5 3213 14504.4 3213 14498.3 3217.92 14493.4 3224 14493.4 3230.07 14493.4 3235 14498.3 3235 14504.4Z" stroke="#4472C4" stroke-width="3.4375" stroke-linejoin="round" stroke-miterlimit="10" fill="#4472C4"/><path d="M3240 14494.4C3240 14500.5 3235.07 14505.4 3229 14505.4 3222.92 14505.4 3218 14500.5 3218 14494.4 3218 14488.3 3222.92 14483.4 3229 14483.4 3235.07 14483.4 3240 14488.3 3240 14494.4Z" stroke="#4472C4" stroke-width="3.4375" stroke-linejoin="round" stroke-miterlimit="10" fill="#4472C4"/><path d="M3245 14471.4C3245 14477.5 3240.07 14482.4 3234 14482.4 3227.92 14482.4 3223 14477.5 3223 14471.4 3223 14465.3 3227.92 14460.4 3234 14460.4 3240.07 14460.4 3245 14465.3 3245 14471.4Z" stroke="#4472C4" stroke-width="3.4375" stroke-linejoin="round" stroke-miterlimit="10" fill="#4472C4"/><path d="M3250 14509.4C3250 14515.5 3245.07 14520.4 3239 14520.4 3232.92 14520.4 3228 14515.5 3228 14509.4 3228 14503.3 3232.92 14498.4 3239 14498.4 3245.07 14498.4 3250 14503.3 3250 14509.4Z" stroke="#4472C4" stroke-width="3.4375" stroke-linejoin="round" stroke-miterlimit="10" fill="#4472C4"/><path d="M3255 14505.4C3255 14511.5 3250.07 14516.4 3244 14516.4 3237.92 14516.4 3233 14511.5 3233 14505.4 3233 14499.3 3237.92 14494.4 3244 14494.4 3250.07 14494.4 3255 14499.3 3255 14505.4Z" stroke="#4472C4" stroke-width="3.4375" stroke-linejoin="round" stroke-miterlimit="10" fill="#4472C4"/><path d="M3261 14543.4C3261 14549.5 3256.07 14554.4 3250 14554.4 3243.92 14554.4 3239 14549.5 3239 14543.4 3239 14537.3 3243.92 14532.4 3250 14532.4 3256.07 14532.4 3261 14537.3 3261 14543.4Z" stroke="#4472C4" stroke-width="3.4375" stroke-linejoin="round" stroke-miterlimit="10" fill="#4472C4"/><path d="M3266 14483.4C3266 14489.5 3261.07 14494.4 3255 14494.4 3248.92 14494.4 3244 14489.5 3244 14483.4 3244 14477.3 3248.92 14472.4 3255 14472.4 3261.07 14472.4 3266 14477.3 3266 14483.4Z" stroke="#4472C4" stroke-width="3.4375" stroke-linejoin="round" stroke-miterlimit="10" fill="#4472C4"/><path d="M3271 14539.4C3271 14545.5 3266.07 14550.4 3260 14550.4 3253.92 14550.4 3249 14545.5 3249 14539.4 3249 14533.3 3253.92 14528.4 3260 14528.4 3266.07 14528.4 3271 14533.3 3271 14539.4Z" stroke="#4472C4" stroke-width="3.4375" stroke-linejoin="round" stroke-miterlimit="10" fill="#4472C4"/><path d="M3276 14510.4C3276 14516.5 3271.07 14521.4 3265 14521.4 3258.92 14521.4 3254 14516.5 3254 14510.4 3254 14504.3 3258.92 14499.4 3265 14499.4 3271.07 14499.4 3276 14504.3 3276 14510.4Z" stroke="#4472C4" stroke-width="3.4375" stroke-linejoin="round" stroke-miterlimit="10" fill="#4472C4"/><path d="M3281 14493.4C3281 14499.5 3276.07 14504.4 3270 14504.4 3263.92 14504.4 3259 14499.5 3259 14493.4 3259 14487.3 3263.92 14482.4 3270 14482.4 3276.07 14482.4 3281 14487.3 3281 14493.4Z" stroke="#4472C4" stroke-width="3.4375" stroke-linejoin="round" stroke-miterlimit="10" fill="#4472C4"/><path d="M3287 14490.4C3287 14496.5 3282.07 14501.4 3276 14501.4 3269.92 14501.4 3265 14496.5 3265 14490.4 3265 14484.3 3269.92 14479.4 3276 14479.4 3282.07 14479.4 3287 14484.3 3287 14490.4Z" stroke="#4472C4" stroke-width="3.4375" stroke-linejoin="round" stroke-miterlimit="10" fill="#4472C4"/><path d="M3292 14511.4C3292 14517.5 3287.07 14522.4 3281 14522.4 3274.92 14522.4 3270 14517.5 3270 14511.4 3270 14505.3 3274.92 14500.4 3281 14500.4 3287.07 14500.4 3292 14505.3 3292 14511.4Z" stroke="#4472C4" stroke-width="3.4375" stroke-linejoin="round" stroke-miterlimit="10" fill="#4472C4"/><path d="M3297 14465.4C3297 14471.5 3292.07 14476.4 3286 14476.4 3279.92 14476.4 3275 14471.5 3275 14465.4 3275 14459.3 3279.92 14454.4 3286 14454.4 3292.07 14454.4 3297 14459.3 3297 14465.4Z" stroke="#4472C4" stroke-width="3.4375" stroke-linejoin="round" stroke-miterlimit="10" fill="#4472C4"/><path d="M3302 14475.4C3302 14481.5 3297.07 14486.4 3291 14486.4 3284.92 14486.4 3280 14481.5 3280 14475.4 3280 14469.3 3284.92 14464.4 3291 14464.4 3297.07 14464.4 3302 14469.3 3302 14475.4Z" stroke="#4472C4" stroke-width="3.4375" stroke-linejoin="round" stroke-miterlimit="10" fill="#4472C4"/><path d="M3307 14471.4C3307 14477.5 3302.07 14482.4 3296 14482.4 3289.92 14482.4 3285 14477.5 3285 14471.4 3285 14465.3 3289.92 14460.4 3296 14460.4 3302.07 14460.4 3307 14465.3 3307 14471.4Z" stroke="#4472C4" stroke-width="3.4375" stroke-linejoin="round" stroke-miterlimit="10" fill="#4472C4"/><path d="M3313 14480.4C3313 14486.5 3308.07 14491.4 3302 14491.4 3295.92 14491.4 3291 14486.5 3291 14480.4 3291 14474.3 3295.92 14469.4 3302 14469.4 3308.07 14469.4 3313 14474.3 3313 14480.4Z" stroke="#4472C4" stroke-width="3.4375" stroke-linejoin="round" stroke-miterlimit="10" fill="#4472C4"/><path d="M3318 14473.4C3318 14479.5 3313.07 14484.4 3307 14484.4 3300.92 14484.4 3296 14479.5 3296 14473.4 3296 14467.3 3300.92 14462.4 3307 14462.4 3313.07 14462.4 3318 14467.3 3318 14473.4Z" stroke="#4472C4" stroke-width="3.4375" stroke-linejoin="round" stroke-miterlimit="10" fill="#4472C4"/><path d="M3323 14521.4C3323 14527.5 3318.07 14532.4 3312 14532.4 3305.92 14532.4 3301 14527.5 3301 14521.4 3301 14515.3 3305.92 14510.4 3312 14510.4 3318.07 14510.4 3323 14515.3 3323 14521.4Z" stroke="#4472C4" stroke-width="3.4375" stroke-linejoin="round" stroke-miterlimit="10" fill="#4472C4"/><path d="M3328 14556.4C3328 14562.5 3323.07 14567.4 3317 14567.4 3310.92 14567.4 3306 14562.5 3306 14556.4 3306 14550.3 3310.92 14545.4 3317 14545.4 3323.07 14545.4 3328 14550.3 3328 14556.4Z" stroke="#4472C4" stroke-width="3.4375" stroke-linejoin="round" stroke-miterlimit="10" fill="#4472C4"/><path d="M3333 14550.4C3333 14556.5 3328.07 14561.4 3322 14561.4 3315.92 14561.4 3311 14556.5 3311 14550.4 3311 14544.3 3315.92 14539.4 3322 14539.4 3328.07 14539.4 3333 14544.3 3333 14550.4Z" stroke="#4472C4" stroke-width="3.4375" stroke-linejoin="round" stroke-miterlimit="10" fill="#4472C4"/><path d="M3339 14536.4C3339 14542.5 3334.07 14547.4 3328 14547.4 3321.92 14547.4 3317 14542.5 3317 14536.4 3317 14530.3 3321.92 14525.4 3328 14525.4 3334.07 14525.4 3339 14530.3 3339 14536.4Z" stroke="#4472C4" stroke-width="3.4375" stroke-linejoin="round" stroke-miterlimit="10" fill="#4472C4"/><path d="M3344 14541.4C3344 14547.5 3339.07 14552.4 3333 14552.4 3326.92 14552.4 3322 14547.5 3322 14541.4 3322 14535.3 3326.92 14530.4 3333 14530.4 3339.07 14530.4 3344 14535.3 3344 14541.4Z" stroke="#4472C4" stroke-width="3.4375" stroke-linejoin="round" stroke-miterlimit="10" fill="#4472C4"/><path d="M3349 14511.4C3349 14517.5 3344.07 14522.4 3338 14522.4 3331.92 14522.4 3327 14517.5 3327 14511.4 3327 14505.3 3331.92 14500.4 3338 14500.4 3344.07 14500.4 3349 14505.3 3349 14511.4Z" stroke="#4472C4" stroke-width="3.4375" stroke-linejoin="round" stroke-miterlimit="10" fill="#4472C4"/><path d="M3354 14532.4C3354 14538.5 3349.07 14543.4 3343 14543.4 3336.92 14543.4 3332 14538.5 3332 14532.4 3332 14526.3 3336.92 14521.4 3343 14521.4 3349.07 14521.4 3354 14526.3 3354 14532.4Z" stroke="#4472C4" stroke-width="3.4375" stroke-linejoin="round" stroke-miterlimit="10" fill="#4472C4"/><path d="M3359 14510.4C3359 14516.5 3354.07 14521.4 3348 14521.4 3341.92 14521.4 3337 14516.5 3337 14510.4 3337 14504.3 3341.92 14499.4 3348 14499.4 3354.07 14499.4 3359 14504.3 3359 14510.4Z" stroke="#4472C4" stroke-width="3.4375" stroke-linejoin="round" stroke-miterlimit="10" fill="#4472C4"/><path d="M3365 14516.4C3365 14522.5 3360.07 14527.4 3354 14527.4 3347.92 14527.4 3343 14522.5 3343 14516.4 3343 14510.3 3347.92 14505.4 3354 14505.4 3360.07 14505.4 3365 14510.3 3365 14516.4Z" stroke="#4472C4" stroke-width="3.4375" stroke-linejoin="round" stroke-miterlimit="10" fill="#4472C4"/><path d="M3370 14530.4C3370 14536.5 3365.07 14541.4 3359 14541.4 3352.92 14541.4 3348 14536.5 3348 14530.4 3348 14524.3 3352.92 14519.4 3359 14519.4 3365.07 14519.4 3370 14524.3 3370 14530.4Z" stroke="#4472C4" stroke-width="3.4375" stroke-linejoin="round" stroke-miterlimit="10" fill="#4472C4"/><path d="M3375 14499.4C3375 14505.5 3370.07 14510.4 3364 14510.4 3357.92 14510.4 3353 14505.5 3353 14499.4 3353 14493.3 3357.92 14488.4 3364 14488.4 3370.07 14488.4 3375 14493.3 3375 14499.4Z" stroke="#4472C4" stroke-width="3.4375" stroke-linejoin="round" stroke-miterlimit="10" fill="#4472C4"/><path d="M3380 14484.4C3380 14490.5 3375.07 14495.4 3369 14495.4 3362.92 14495.4 3358 14490.5 3358 14484.4 3358 14478.3 3362.92 14473.4 3369 14473.4 3375.07 14473.4 3380 14478.3 3380 14484.4Z" stroke="#4472C4" stroke-width="3.4375" stroke-linejoin="round" stroke-miterlimit="10" fill="#4472C4"/><path d="M3385 14493.4C3385 14499.5 3380.07 14504.4 3374 14504.4 3367.92 14504.4 3363 14499.5 3363 14493.4 3363 14487.3 3367.92 14482.4 3374 14482.4 3380.07 14482.4 3385 14487.3 3385 14493.4Z" stroke="#4472C4" stroke-width="3.4375" stroke-linejoin="round" stroke-miterlimit="10" fill="#4472C4"/><path d="M3391 14453.4C3391 14459.5 3386.07 14464.4 3380 14464.4 3373.92 14464.4 3369 14459.5 3369 14453.4 3369 14447.3 3373.92 14442.4 3380 14442.4 3386.07 14442.4 3391 14447.3 3391 14453.4Z" stroke="#4472C4" stroke-width="3.4375" stroke-linejoin="round" stroke-miterlimit="10" fill="#4472C4"/><path d="M3396 14467.4C3396 14473.5 3391.07 14478.4 3385 14478.4 3378.92 14478.4 3374 14473.5 3374 14467.4 3374 14461.3 3378.92 14456.4 3385 14456.4 3391.07 14456.4 3396 14461.3 3396 14467.4Z" stroke="#4472C4" stroke-width="3.4375" stroke-linejoin="round" stroke-miterlimit="10" fill="#4472C4"/><path d="M3401 14453.4C3401 14459.5 3396.07 14464.4 3390 14464.4 3383.92 14464.4 3379 14459.5 3379 14453.4 3379 14447.3 3383.92 14442.4 3390 14442.4 3396.07 14442.4 3401 14447.3 3401 14453.4Z" stroke="#4472C4" stroke-width="3.4375" stroke-linejoin="round" stroke-miterlimit="10" fill="#4472C4"/><path d="M3406 14494.4C3406 14500.5 3401.07 14505.4 3395 14505.4 3388.92 14505.4 3384 14500.5 3384 14494.4 3384 14488.3 3388.92 14483.4 3395 14483.4 3401.07 14483.4 3406 14488.3 3406 14494.4Z" stroke="#4472C4" stroke-width="3.4375" stroke-linejoin="round" stroke-miterlimit="10" fill="#4472C4"/><path d="M3411 14498.4C3411 14504.5 3406.07 14509.4 3400 14509.4 3393.92 14509.4 3389 14504.5 3389 14498.4 3389 14492.3 3393.92 14487.4 3400 14487.4 3406.07 14487.4 3411 14492.3 3411 14498.4Z" stroke="#4472C4" stroke-width="3.4375" stroke-linejoin="round" stroke-miterlimit="10" fill="#4472C4"/><path d="M3416 14503.4C3416 14509.5 3411.07 14514.4 3405 14514.4 3398.92 14514.4 3394 14509.5 3394 14503.4 3394 14497.3 3398.92 14492.4 3405 14492.4 3411.07 14492.4 3416 14497.3 3416 14503.4Z" stroke="#4472C4" stroke-width="3.4375" stroke-linejoin="round" stroke-miterlimit="10" fill="#4472C4"/><path d="M3422 14451.4C3422 14457.5 3417.07 14462.4 3411 14462.4 3404.92 14462.4 3400 14457.5 3400 14451.4 3400 14445.3 3404.92 14440.4 3411 14440.4 3417.07 14440.4 3422 14445.3 3422 14451.4Z" stroke="#4472C4" stroke-width="3.4375" stroke-linejoin="round" stroke-miterlimit="10" fill="#4472C4"/><path d="M3427 14499.4C3427 14505.5 3422.07 14510.4 3416 14510.4 3409.92 14510.4 3405 14505.5 3405 14499.4 3405 14493.3 3409.92 14488.4 3416 14488.4 3422.07 14488.4 3427 14493.3 3427 14499.4Z" stroke="#4472C4" stroke-width="3.4375" stroke-linejoin="round" stroke-miterlimit="10" fill="#4472C4"/><path d="M3432 14484.4C3432 14490.5 3427.07 14495.4 3421 14495.4 3414.92 14495.4 3410 14490.5 3410 14484.4 3410 14478.3 3414.92 14473.4 3421 14473.4 3427.07 14473.4 3432 14478.3 3432 14484.4Z" stroke="#4472C4" stroke-width="3.4375" stroke-linejoin="round" stroke-miterlimit="10" fill="#4472C4"/><path d="M3437 14482.4C3437 14488.5 3432.07 14493.4 3426 14493.4 3419.92 14493.4 3415 14488.5 3415 14482.4 3415 14476.3 3419.92 14471.4 3426 14471.4 3432.07 14471.4 3437 14476.3 3437 14482.4Z" stroke="#4472C4" stroke-width="3.4375" stroke-linejoin="round" stroke-miterlimit="10" fill="#4472C4"/><path d="M3442 14449.4C3442 14455.5 3437.07 14460.4 3431 14460.4 3424.92 14460.4 3420 14455.5 3420 14449.4 3420 14443.3 3424.92 14438.4 3431 14438.4 3437.07 14438.4 3442 14443.3 3442 14449.4Z" stroke="#4472C4" stroke-width="3.4375" stroke-linejoin="round" stroke-miterlimit="10" fill="#4472C4"/><path d="M3448 14432.4C3448 14438.5 3443.07 14443.4 3437 14443.4 3430.92 14443.4 3426 14438.5 3426 14432.4 3426 14426.3 3430.92 14421.4 3437 14421.4 3443.07 14421.4 3448 14426.3 3448 14432.4Z" stroke="#4472C4" stroke-width="3.4375" stroke-linejoin="round" stroke-miterlimit="10" fill="#4472C4"/><path d="M3453 14433.4C3453 14439.5 3448.07 14444.4 3442 14444.4 3435.92 14444.4 3431 14439.5 3431 14433.4 3431 14427.3 3435.92 14422.4 3442 14422.4 3448.07 14422.4 3453 14427.3 3453 14433.4Z" stroke="#4472C4" stroke-width="3.4375" stroke-linejoin="round" stroke-miterlimit="10" fill="#4472C4"/><path d="M3458 14455.4C3458 14461.5 3453.07 14466.4 3447 14466.4 3440.92 14466.4 3436 14461.5 3436 14455.4 3436 14449.3 3440.92 14444.4 3447 14444.4 3453.07 14444.4 3458 14449.3 3458 14455.4Z" stroke="#4472C4" stroke-width="3.4375" stroke-linejoin="round" stroke-miterlimit="10" fill="#4472C4"/><path d="M3463 14443.4C3463 14449.5 3458.07 14454.4 3452 14454.4 3445.92 14454.4 3441 14449.5 3441 14443.4 3441 14437.3 3445.92 14432.4 3452 14432.4 3458.07 14432.4 3463 14437.3 3463 14443.4Z" stroke="#4472C4" stroke-width="3.4375" stroke-linejoin="round" stroke-miterlimit="10" fill="#4472C4"/><path d="M3468 14445.4C3468 14451.5 3463.07 14456.4 3457 14456.4 3450.92 14456.4 3446 14451.5 3446 14445.4 3446 14439.3 3450.92 14434.4 3457 14434.4 3463.07 14434.4 3468 14439.3 3468 14445.4Z" stroke="#4472C4" stroke-width="3.4375" stroke-linejoin="round" stroke-miterlimit="10" fill="#4472C4"/><path d="M3474 14444.4C3474 14450.5 3469.07 14455.4 3463 14455.4 3456.92 14455.4 3452 14450.5 3452 14444.4 3452 14438.3 3456.92 14433.4 3463 14433.4 3469.07 14433.4 3474 14438.3 3474 14444.4Z" stroke="#4472C4" stroke-width="3.4375" stroke-linejoin="round" stroke-miterlimit="10" fill="#4472C4"/><path d="M3479 14442.4C3479 14448.5 3474.07 14453.4 3468 14453.4 3461.92 14453.4 3457 14448.5 3457 14442.4 3457 14436.3 3461.92 14431.4 3468 14431.4 3474.07 14431.4 3479 14436.3 3479 14442.4Z" stroke="#4472C4" stroke-width="3.4375" stroke-linejoin="round" stroke-miterlimit="10" fill="#4472C4"/><path d="M3484 14461.4C3484 14467.5 3479.07 14472.4 3473 14472.4 3466.92 14472.4 3462 14467.5 3462 14461.4 3462 14455.3 3466.92 14450.4 3473 14450.4 3479.07 14450.4 3484 14455.3 3484 14461.4Z" stroke="#4472C4" stroke-width="3.4375" stroke-linejoin="round" stroke-miterlimit="10" fill="#4472C4"/><path d="M3489 14429.4C3489 14435.5 3484.07 14440.4 3478 14440.4 3471.92 14440.4 3467 14435.5 3467 14429.4 3467 14423.3 3471.92 14418.4 3478 14418.4 3484.07 14418.4 3489 14423.3 3489 14429.4Z" stroke="#4472C4" stroke-width="3.4375" stroke-linejoin="round" stroke-miterlimit="10" fill="#4472C4"/><path d="M3494 14446.4C3494 14452.5 3489.07 14457.4 3483 14457.4 3476.92 14457.4 3472 14452.5 3472 14446.4 3472 14440.3 3476.92 14435.4 3483 14435.4 3489.07 14435.4 3494 14440.3 3494 14446.4Z" stroke="#4472C4" stroke-width="3.4375" stroke-linejoin="round" stroke-miterlimit="10" fill="#4472C4"/><path d="M3500 14445.4C3500 14451.5 3495.07 14456.4 3489 14456.4 3482.92 14456.4 3478 14451.5 3478 14445.4 3478 14439.3 3482.92 14434.4 3489 14434.4 3495.07 14434.4 3500 14439.3 3500 14445.4Z" stroke="#4472C4" stroke-width="3.4375" stroke-linejoin="round" stroke-miterlimit="10" fill="#4472C4"/><path d="M3505 14503.4C3505 14509.5 3500.07 14514.4 3494 14514.4 3487.92 14514.4 3483 14509.5 3483 14503.4 3483 14497.3 3487.92 14492.4 3494 14492.4 3500.07 14492.4 3505 14497.3 3505 14503.4Z" stroke="#4472C4" stroke-width="3.4375" stroke-linejoin="round" stroke-miterlimit="10" fill="#4472C4"/><path d="M3510 14431.4C3510 14437.5 3505.07 14442.4 3499 14442.4 3492.92 14442.4 3488 14437.5 3488 14431.4 3488 14425.3 3492.92 14420.4 3499 14420.4 3505.07 14420.4 3510 14425.3 3510 14431.4Z" stroke="#4472C4" stroke-width="3.4375" stroke-linejoin="round" stroke-miterlimit="10" fill="#4472C4"/><path d="M3515 14461.4C3515 14467.5 3510.07 14472.4 3504 14472.4 3497.92 14472.4 3493 14467.5 3493 14461.4 3493 14455.3 3497.92 14450.4 3504 14450.4 3510.07 14450.4 3515 14455.3 3515 14461.4Z" stroke="#4472C4" stroke-width="3.4375" stroke-linejoin="round" stroke-miterlimit="10" fill="#4472C4"/><path d="M3520 14433.4C3520 14439.5 3515.07 14444.4 3509 14444.4 3502.92 14444.4 3498 14439.5 3498 14433.4 3498 14427.3 3502.92 14422.4 3509 14422.4 3515.07 14422.4 3520 14427.3 3520 14433.4Z" stroke="#4472C4" stroke-width="3.4375" stroke-linejoin="round" stroke-miterlimit="10" fill="#4472C4"/><path d="M3526 14448.4C3526 14454.5 3521.07 14459.4 3515 14459.4 3508.92 14459.4 3504 14454.5 3504 14448.4 3504 14442.3 3508.92 14437.4 3515 14437.4 3521.07 14437.4 3526 14442.3 3526 14448.4Z" stroke="#4472C4" stroke-width="3.4375" stroke-linejoin="round" stroke-miterlimit="10" fill="#4472C4"/><path d="M3531 14445.4C3531 14451.5 3526.07 14456.4 3520 14456.4 3513.92 14456.4 3509 14451.5 3509 14445.4 3509 14439.3 3513.92 14434.4 3520 14434.4 3526.07 14434.4 3531 14439.3 3531 14445.4Z" stroke="#4472C4" stroke-width="3.4375" stroke-linejoin="round" stroke-miterlimit="10" fill="#4472C4"/><path d="M3536 14435.4C3536 14441.5 3531.07 14446.4 3525 14446.4 3518.92 14446.4 3514 14441.5 3514 14435.4 3514 14429.3 3518.92 14424.4 3525 14424.4 3531.07 14424.4 3536 14429.3 3536 14435.4Z" stroke="#4472C4" stroke-width="3.4375" stroke-linejoin="round" stroke-miterlimit="10" fill="#4472C4"/><path d="M3541 14489.4C3541 14495.5 3536.07 14500.4 3530 14500.4 3523.92 14500.4 3519 14495.5 3519 14489.4 3519 14483.3 3523.92 14478.4 3530 14478.4 3536.07 14478.4 3541 14483.3 3541 14489.4Z" stroke="#4472C4" stroke-width="3.4375" stroke-linejoin="round" stroke-miterlimit="10" fill="#4472C4"/><path d="M3546 14440.4C3546 14446.5 3541.07 14451.4 3535 14451.4 3528.92 14451.4 3524 14446.5 3524 14440.4 3524 14434.3 3528.92 14429.4 3535 14429.4 3541.07 14429.4 3546 14434.3 3546 14440.4Z" stroke="#4472C4" stroke-width="3.4375" stroke-linejoin="round" stroke-miterlimit="10" fill="#4472C4"/><path d="M3552 14429.4C3552 14435.5 3547.07 14440.4 3541 14440.4 3534.92 14440.4 3530 14435.5 3530 14429.4 3530 14423.3 3534.92 14418.4 3541 14418.4 3547.07 14418.4 3552 14423.3 3552 14429.4Z" stroke="#4472C4" stroke-width="3.4375" stroke-linejoin="round" stroke-miterlimit="10" fill="#4472C4"/><path d="M3557 14422.4C3557 14428.5 3552.07 14433.4 3546 14433.4 3539.92 14433.4 3535 14428.5 3535 14422.4 3535 14416.3 3539.92 14411.4 3546 14411.4 3552.07 14411.4 3557 14416.3 3557 14422.4Z" stroke="#4472C4" stroke-width="3.4375" stroke-linejoin="round" stroke-miterlimit="10" fill="#4472C4"/><path d="M3562 14464.4C3562 14470.5 3557.07 14475.4 3551 14475.4 3544.92 14475.4 3540 14470.5 3540 14464.4 3540 14458.3 3544.92 14453.4 3551 14453.4 3557.07 14453.4 3562 14458.3 3562 14464.4Z" stroke="#4472C4" stroke-width="3.4375" stroke-linejoin="round" stroke-miterlimit="10" fill="#4472C4"/><path d="M3567 14406.4C3567 14412.5 3562.07 14417.4 3556 14417.4 3549.92 14417.4 3545 14412.5 3545 14406.4 3545 14400.3 3549.92 14395.4 3556 14395.4 3562.07 14395.4 3567 14400.3 3567 14406.4Z" stroke="#4472C4" stroke-width="3.4375" stroke-linejoin="round" stroke-miterlimit="10" fill="#4472C4"/><path d="M3572 14445.4C3572 14451.5 3567.07 14456.4 3561 14456.4 3554.92 14456.4 3550 14451.5 3550 14445.4 3550 14439.3 3554.92 14434.4 3561 14434.4 3567.07 14434.4 3572 14439.3 3572 14445.4Z" stroke="#4472C4" stroke-width="3.4375" stroke-linejoin="round" stroke-miterlimit="10" fill="#4472C4"/><path d="M3577 14439.4C3577 14445.5 3572.07 14450.4 3566 14450.4 3559.92 14450.4 3555 14445.5 3555 14439.4 3555 14433.3 3559.92 14428.4 3566 14428.4 3572.07 14428.4 3577 14433.3 3577 14439.4Z" stroke="#4472C4" stroke-width="3.4375" stroke-linejoin="round" stroke-miterlimit="10" fill="#4472C4"/><path d="M3583 14462.4C3583 14468.5 3578.07 14473.4 3572 14473.4 3565.92 14473.4 3561 14468.5 3561 14462.4 3561 14456.3 3565.92 14451.4 3572 14451.4 3578.07 14451.4 3583 14456.3 3583 14462.4Z" stroke="#4472C4" stroke-width="3.4375" stroke-linejoin="round" stroke-miterlimit="10" fill="#4472C4"/><path d="M3588 14452.4C3588 14458.5 3583.07 14463.4 3577 14463.4 3570.92 14463.4 3566 14458.5 3566 14452.4 3566 14446.3 3570.92 14441.4 3577 14441.4 3583.07 14441.4 3588 14446.3 3588 14452.4Z" stroke="#4472C4" stroke-width="3.4375" stroke-linejoin="round" stroke-miterlimit="10" fill="#4472C4"/><path d="M3593 14449.4C3593 14455.5 3588.07 14460.4 3582 14460.4 3575.92 14460.4 3571 14455.5 3571 14449.4 3571 14443.3 3575.92 14438.4 3582 14438.4 3588.07 14438.4 3593 14443.3 3593 14449.4Z" stroke="#4472C4" stroke-width="3.4375" stroke-linejoin="round" stroke-miterlimit="10" fill="#4472C4"/><path d="M3598 14441.4C3598 14447.5 3593.07 14452.4 3587 14452.4 3580.92 14452.4 3576 14447.5 3576 14441.4 3576 14435.3 3580.92 14430.4 3587 14430.4 3593.07 14430.4 3598 14435.3 3598 14441.4Z" stroke="#4472C4" stroke-width="3.4375" stroke-linejoin="round" stroke-miterlimit="10" fill="#4472C4"/><path d="M3603 14431.4C3603 14437.5 3598.07 14442.4 3592 14442.4 3585.92 14442.4 3581 14437.5 3581 14431.4 3581 14425.3 3585.92 14420.4 3592 14420.4 3598.07 14420.4 3603 14425.3 3603 14431.4Z" stroke="#4472C4" stroke-width="3.4375" stroke-linejoin="round" stroke-miterlimit="10" fill="#4472C4"/><path d="M3609 14459.4C3609 14465.5 3604.07 14470.4 3598 14470.4 3591.92 14470.4 3587 14465.5 3587 14459.4 3587 14453.3 3591.92 14448.4 3598 14448.4 3604.07 14448.4 3609 14453.3 3609 14459.4Z" stroke="#4472C4" stroke-width="3.4375" stroke-linejoin="round" stroke-miterlimit="10" fill="#4472C4"/><path d="M3614 14454.4C3614 14460.5 3609.07 14465.4 3603 14465.4 3596.92 14465.4 3592 14460.5 3592 14454.4 3592 14448.3 3596.92 14443.4 3603 14443.4 3609.07 14443.4 3614 14448.3 3614 14454.4Z" stroke="#4472C4" stroke-width="3.4375" stroke-linejoin="round" stroke-miterlimit="10" fill="#4472C4"/><path d="M3619 14475.4C3619 14481.5 3614.07 14486.4 3608 14486.4 3601.92 14486.4 3597 14481.5 3597 14475.4 3597 14469.3 3601.92 14464.4 3608 14464.4 3614.07 14464.4 3619 14469.3 3619 14475.4Z" stroke="#4472C4" stroke-width="3.4375" stroke-linejoin="round" stroke-miterlimit="10" fill="#4472C4"/><path d="M3624 14473.4C3624 14479.5 3619.07 14484.4 3613 14484.4 3606.92 14484.4 3602 14479.5 3602 14473.4 3602 14467.3 3606.92 14462.4 3613 14462.4 3619.07 14462.4 3624 14467.3 3624 14473.4Z" stroke="#4472C4" stroke-width="3.4375" stroke-linejoin="round" stroke-miterlimit="10" fill="#4472C4"/><path d="M3629 14460.4C3629 14466.5 3624.07 14471.4 3618 14471.4 3611.92 14471.4 3607 14466.5 3607 14460.4 3607 14454.3 3611.92 14449.4 3618 14449.4 3624.07 14449.4 3629 14454.3 3629 14460.4Z" stroke="#4472C4" stroke-width="3.4375" stroke-linejoin="round" stroke-miterlimit="10" fill="#4472C4"/><path d="M3635 14483.4C3635 14489.5 3630.07 14494.4 3624 14494.4 3617.92 14494.4 3613 14489.5 3613 14483.4 3613 14477.3 3617.92 14472.4 3624 14472.4 3630.07 14472.4 3635 14477.3 3635 14483.4Z" stroke="#4472C4" stroke-width="3.4375" stroke-linejoin="round" stroke-miterlimit="10" fill="#4472C4"/><path d="M3640 14422.4C3640 14428.5 3635.07 14433.4 3629 14433.4 3622.92 14433.4 3618 14428.5 3618 14422.4 3618 14416.3 3622.92 14411.4 3629 14411.4 3635.07 14411.4 3640 14416.3 3640 14422.4Z" stroke="#4472C4" stroke-width="3.4375" stroke-linejoin="round" stroke-miterlimit="10" fill="#4472C4"/><path d="M3645 14406.4C3645 14412.5 3640.07 14417.4 3634 14417.4 3627.92 14417.4 3623 14412.5 3623 14406.4 3623 14400.3 3627.92 14395.4 3634 14395.4 3640.07 14395.4 3645 14400.3 3645 14406.4Z" stroke="#4472C4" stroke-width="3.4375" stroke-linejoin="round" stroke-miterlimit="10" fill="#4472C4"/><path d="M3650 14444.4C3650 14450.5 3645.07 14455.4 3639 14455.4 3632.92 14455.4 3628 14450.5 3628 14444.4 3628 14438.3 3632.92 14433.4 3639 14433.4 3645.07 14433.4 3650 14438.3 3650 14444.4Z" stroke="#4472C4" stroke-width="3.4375" stroke-linejoin="round" stroke-miterlimit="10" fill="#4472C4"/><path d="M3655 14385.4C3655 14391.5 3650.07 14396.4 3644 14396.4 3637.92 14396.4 3633 14391.5 3633 14385.4 3633 14379.3 3637.92 14374.4 3644 14374.4 3650.07 14374.4 3655 14379.3 3655 14385.4Z" stroke="#4472C4" stroke-width="3.4375" stroke-linejoin="round" stroke-miterlimit="10" fill="#4472C4"/><path d="M3661 14463.4C3661 14469.5 3656.07 14474.4 3650 14474.4 3643.92 14474.4 3639 14469.5 3639 14463.4 3639 14457.3 3643.92 14452.4 3650 14452.4 3656.07 14452.4 3661 14457.3 3661 14463.4Z" stroke="#4472C4" stroke-width="3.4375" stroke-linejoin="round" stroke-miterlimit="10" fill="#4472C4"/><path d="M3666 14467.4C3666 14473.5 3661.07 14478.4 3655 14478.4 3648.92 14478.4 3644 14473.5 3644 14467.4 3644 14461.3 3648.92 14456.4 3655 14456.4 3661.07 14456.4 3666 14461.3 3666 14467.4Z" stroke="#4472C4" stroke-width="3.4375" stroke-linejoin="round" stroke-miterlimit="10" fill="#4472C4"/><path d="M3671 14457.4C3671 14463.5 3666.07 14468.4 3660 14468.4 3653.92 14468.4 3649 14463.5 3649 14457.4 3649 14451.3 3653.92 14446.4 3660 14446.4 3666.07 14446.4 3671 14451.3 3671 14457.4Z" stroke="#4472C4" stroke-width="3.4375" stroke-linejoin="round" stroke-miterlimit="10" fill="#4472C4"/><path d="M3676 14489.4C3676 14495.5 3671.07 14500.4 3665 14500.4 3658.92 14500.4 3654 14495.5 3654 14489.4 3654 14483.3 3658.92 14478.4 3665 14478.4 3671.07 14478.4 3676 14483.3 3676 14489.4Z" stroke="#4472C4" stroke-width="3.4375" stroke-linejoin="round" stroke-miterlimit="10" fill="#4472C4"/><path d="M3681 14412.4C3681 14418.5 3676.07 14423.4 3670 14423.4 3663.92 14423.4 3659 14418.5 3659 14412.4 3659 14406.3 3663.92 14401.4 3670 14401.4 3676.07 14401.4 3681 14406.3 3681 14412.4Z" stroke="#4472C4" stroke-width="3.4375" stroke-linejoin="round" stroke-miterlimit="10" fill="#4472C4"/><path d="M3687 14414.4C3687 14420.5 3682.07 14425.4 3676 14425.4 3669.92 14425.4 3665 14420.5 3665 14414.4 3665 14408.3 3669.92 14403.4 3676 14403.4 3682.07 14403.4 3687 14408.3 3687 14414.4Z" stroke="#4472C4" stroke-width="3.4375" stroke-linejoin="round" stroke-miterlimit="10" fill="#4472C4"/><path d="M3692 14437.4C3692 14443.5 3687.07 14448.4 3681 14448.4 3674.92 14448.4 3670 14443.5 3670 14437.4 3670 14431.3 3674.92 14426.4 3681 14426.4 3687.07 14426.4 3692 14431.3 3692 14437.4Z" stroke="#4472C4" stroke-width="3.4375" stroke-linejoin="round" stroke-miterlimit="10" fill="#4472C4"/><path d="M3697 14512.4C3697 14518.5 3692.07 14523.4 3686 14523.4 3679.92 14523.4 3675 14518.5 3675 14512.4 3675 14506.3 3679.92 14501.4 3686 14501.4 3692.07 14501.4 3697 14506.3 3697 14512.4Z" stroke="#4472C4" stroke-width="3.4375" stroke-linejoin="round" stroke-miterlimit="10" fill="#4472C4"/><path d="M3702 14477.4C3702 14483.5 3697.07 14488.4 3691 14488.4 3684.92 14488.4 3680 14483.5 3680 14477.4 3680 14471.3 3684.92 14466.4 3691 14466.4 3697.07 14466.4 3702 14471.3 3702 14477.4Z" stroke="#4472C4" stroke-width="3.4375" stroke-linejoin="round" stroke-miterlimit="10" fill="#4472C4"/><path d="M3707 14434.4C3707 14440.5 3702.07 14445.4 3696 14445.4 3689.92 14445.4 3685 14440.5 3685 14434.4 3685 14428.3 3689.92 14423.4 3696 14423.4 3702.07 14423.4 3707 14428.3 3707 14434.4Z" stroke="#4472C4" stroke-width="3.4375" stroke-linejoin="round" stroke-miterlimit="10" fill="#4472C4"/><path d="M3713 14382.4C3713 14388.5 3708.07 14393.4 3702 14393.4 3695.92 14393.4 3691 14388.5 3691 14382.4 3691 14376.3 3695.92 14371.4 3702 14371.4 3708.07 14371.4 3713 14376.3 3713 14382.4Z" stroke="#4472C4" stroke-width="3.4375" stroke-linejoin="round" stroke-miterlimit="10" fill="#4472C4"/><path d="M3718 14467.4C3718 14473.5 3713.07 14478.4 3707 14478.4 3700.92 14478.4 3696 14473.5 3696 14467.4 3696 14461.3 3700.92 14456.4 3707 14456.4 3713.07 14456.4 3718 14461.3 3718 14467.4Z" stroke="#4472C4" stroke-width="3.4375" stroke-linejoin="round" stroke-miterlimit="10" fill="#4472C4"/><path d="M3723 14441.4C3723 14447.5 3718.07 14452.4 3712 14452.4 3705.92 14452.4 3701 14447.5 3701 14441.4 3701 14435.3 3705.92 14430.4 3712 14430.4 3718.07 14430.4 3723 14435.3 3723 14441.4Z" stroke="#4472C4" stroke-width="3.4375" stroke-linejoin="round" stroke-miterlimit="10" fill="#4472C4"/><path d="M3728 14414.4C3728 14420.5 3723.07 14425.4 3717 14425.4 3710.92 14425.4 3706 14420.5 3706 14414.4 3706 14408.3 3710.92 14403.4 3717 14403.4 3723.07 14403.4 3728 14408.3 3728 14414.4Z" stroke="#4472C4" stroke-width="3.4375" stroke-linejoin="round" stroke-miterlimit="10" fill="#4472C4"/><path d="M3733 14396.4C3733 14402.5 3728.07 14407.4 3722 14407.4 3715.92 14407.4 3711 14402.5 3711 14396.4 3711 14390.3 3715.92 14385.4 3722 14385.4 3728.07 14385.4 3733 14390.3 3733 14396.4Z" stroke="#4472C4" stroke-width="3.4375" stroke-linejoin="round" stroke-miterlimit="10" fill="#4472C4"/><path d="M3739 14390.4C3739 14396.5 3734.07 14401.4 3728 14401.4 3721.92 14401.4 3717 14396.5 3717 14390.4 3717 14384.3 3721.92 14379.4 3728 14379.4 3734.07 14379.4 3739 14384.3 3739 14390.4Z" stroke="#4472C4" stroke-width="3.4375" stroke-linejoin="round" stroke-miterlimit="10" fill="#4472C4"/><path d="M3744 14408.4C3744 14414.5 3739.07 14419.4 3733 14419.4 3726.92 14419.4 3722 14414.5 3722 14408.4 3722 14402.3 3726.92 14397.4 3733 14397.4 3739.07 14397.4 3744 14402.3 3744 14408.4Z" stroke="#4472C4" stroke-width="3.4375" stroke-linejoin="round" stroke-miterlimit="10" fill="#4472C4"/><path d="M3749 14447.4C3749 14453.5 3744.07 14458.4 3738 14458.4 3731.92 14458.4 3727 14453.5 3727 14447.4 3727 14441.3 3731.92 14436.4 3738 14436.4 3744.07 14436.4 3749 14441.3 3749 14447.4Z" stroke="#4472C4" stroke-width="3.4375" stroke-linejoin="round" stroke-miterlimit="10" fill="#4472C4"/><path d="M3754 14424.4C3754 14430.5 3749.07 14435.4 3743 14435.4 3736.92 14435.4 3732 14430.5 3732 14424.4 3732 14418.3 3736.92 14413.4 3743 14413.4 3749.07 14413.4 3754 14418.3 3754 14424.4Z" stroke="#4472C4" stroke-width="3.4375" stroke-linejoin="round" stroke-miterlimit="10" fill="#4472C4"/><path d="M3759 14393.4C3759 14399.5 3754.07 14404.4 3748 14404.4 3741.92 14404.4 3737 14399.5 3737 14393.4 3737 14387.3 3741.92 14382.4 3748 14382.4 3754.07 14382.4 3759 14387.3 3759 14393.4Z" stroke="#4472C4" stroke-width="3.4375" stroke-linejoin="round" stroke-miterlimit="10" fill="#4472C4"/><path d="M3764 14437.4C3764 14443.5 3759.07 14448.4 3753 14448.4 3746.92 14448.4 3742 14443.5 3742 14437.4 3742 14431.3 3746.92 14426.4 3753 14426.4 3759.07 14426.4 3764 14431.3 3764 14437.4Z" stroke="#4472C4" stroke-width="3.4375" stroke-linejoin="round" stroke-miterlimit="10" fill="#4472C4"/><path d="M3770 14430.4C3770 14436.5 3765.07 14441.4 3759 14441.4 3752.92 14441.4 3748 14436.5 3748 14430.4 3748 14424.3 3752.92 14419.4 3759 14419.4 3765.07 14419.4 3770 14424.3 3770 14430.4Z" stroke="#4472C4" stroke-width="3.4375" stroke-linejoin="round" stroke-miterlimit="10" fill="#4472C4"/><path d="M3775 14426.4C3775 14432.5 3770.07 14437.4 3764 14437.4 3757.92 14437.4 3753 14432.5 3753 14426.4 3753 14420.3 3757.92 14415.4 3764 14415.4 3770.07 14415.4 3775 14420.3 3775 14426.4Z" stroke="#4472C4" stroke-width="3.4375" stroke-linejoin="round" stroke-miterlimit="10" fill="#4472C4"/><path d="M3780 14429.4C3780 14435.5 3775.07 14440.4 3769 14440.4 3762.92 14440.4 3758 14435.5 3758 14429.4 3758 14423.3 3762.92 14418.4 3769 14418.4 3775.07 14418.4 3780 14423.3 3780 14429.4Z" stroke="#4472C4" stroke-width="3.4375" stroke-linejoin="round" stroke-miterlimit="10" fill="#4472C4"/><path d="M3785 14434.4C3785 14440.5 3780.07 14445.4 3774 14445.4 3767.92 14445.4 3763 14440.5 3763 14434.4 3763 14428.3 3767.92 14423.4 3774 14423.4 3780.07 14423.4 3785 14428.3 3785 14434.4Z" stroke="#4472C4" stroke-width="3.4375" stroke-linejoin="round" stroke-miterlimit="10" fill="#4472C4"/><path d="M3790 14401.4C3790 14407.5 3785.07 14412.4 3779 14412.4 3772.92 14412.4 3768 14407.5 3768 14401.4 3768 14395.3 3772.92 14390.4 3779 14390.4 3785.07 14390.4 3790 14395.3 3790 14401.4Z" stroke="#4472C4" stroke-width="3.4375" stroke-linejoin="round" stroke-miterlimit="10" fill="#4472C4"/><path d="M3796 14387.4C3796 14393.5 3791.07 14398.4 3785 14398.4 3778.92 14398.4 3774 14393.5 3774 14387.4 3774 14381.3 3778.92 14376.4 3785 14376.4 3791.07 14376.4 3796 14381.3 3796 14387.4Z" stroke="#4472C4" stroke-width="3.4375" stroke-linejoin="round" stroke-miterlimit="10" fill="#4472C4"/><path d="M3801 14405.4C3801 14411.5 3796.07 14416.4 3790 14416.4 3783.92 14416.4 3779 14411.5 3779 14405.4 3779 14399.3 3783.92 14394.4 3790 14394.4 3796.07 14394.4 3801 14399.3 3801 14405.4Z" stroke="#4472C4" stroke-width="3.4375" stroke-linejoin="round" stroke-miterlimit="10" fill="#4472C4"/><path d="M3806 14405.4C3806 14411.5 3801.07 14416.4 3795 14416.4 3788.92 14416.4 3784 14411.5 3784 14405.4 3784 14399.3 3788.92 14394.4 3795 14394.4 3801.07 14394.4 3806 14399.3 3806 14405.4Z" stroke="#4472C4" stroke-width="3.4375" stroke-linejoin="round" stroke-miterlimit="10" fill="#4472C4"/><path d="M3811 14282.4C3811 14288.5 3806.07 14293.4 3800 14293.4 3793.92 14293.4 3789 14288.5 3789 14282.4 3789 14276.3 3793.92 14271.4 3800 14271.4 3806.07 14271.4 3811 14276.3 3811 14282.4Z" stroke="#4472C4" stroke-width="3.4375" stroke-linejoin="round" stroke-miterlimit="10" fill="#4472C4"/><path d="M3816 14391.4C3816 14397.5 3811.07 14402.4 3805 14402.4 3798.92 14402.4 3794 14397.5 3794 14391.4 3794 14385.3 3798.92 14380.4 3805 14380.4 3811.07 14380.4 3816 14385.3 3816 14391.4Z" stroke="#4472C4" stroke-width="3.4375" stroke-linejoin="round" stroke-miterlimit="10" fill="#4472C4"/><path d="M3822 14402.4C3822 14408.5 3817.07 14413.4 3811 14413.4 3804.92 14413.4 3800 14408.5 3800 14402.4 3800 14396.3 3804.92 14391.4 3811 14391.4 3817.07 14391.4 3822 14396.3 3822 14402.4Z" stroke="#4472C4" stroke-width="3.4375" stroke-linejoin="round" stroke-miterlimit="10" fill="#4472C4"/><path d="M3827 14421.4C3827 14427.5 3822.07 14432.4 3816 14432.4 3809.92 14432.4 3805 14427.5 3805 14421.4 3805 14415.3 3809.92 14410.4 3816 14410.4 3822.07 14410.4 3827 14415.3 3827 14421.4Z" stroke="#4472C4" stroke-width="3.4375" stroke-linejoin="round" stroke-miterlimit="10" fill="#4472C4"/><path d="M3832 14148.4C3832 14154.5 3827.07 14159.4 3821 14159.4 3814.92 14159.4 3810 14154.5 3810 14148.4 3810 14142.3 3814.92 14137.4 3821 14137.4 3827.07 14137.4 3832 14142.3 3832 14148.4Z" stroke="#4472C4" stroke-width="3.4375" stroke-linejoin="round" stroke-miterlimit="10" fill="#4472C4"/></g><g clip-path="url(#clip10)"><path d="M0 0 1158 135" stroke="#C00000" stroke-width="6.875" stroke-linecap="round" stroke-linejoin="round" stroke-miterlimit="10" stroke-dasharray="0 13.75" fill="none" fill-rule="evenodd" transform="matrix(1 0 0 -1 2662.5 14551.5)"/></g><g clip-path="url(#clip11)"><text fill="#595959" font-family="Calibri,Calibri_MSFontService,sans-serif" font-weight="400" font-size="41" transform="matrix(1 0 0 1 3611.67 14023)">y = 3,4394x + 26644</text></g><g clip-path="url(#clip12)"><text fill="#595959" font-family="Calibri,Calibri_MSFontService,sans-serif" font-weight="400" font-size="41" transform="matrix(1 0 0 1 2519.48 14677)">26000</text></g><g clip-path="url(#clip13)"><text fill="#595959" font-family="Calibri,Calibri_MSFontService,sans-serif" font-weight="400" font-size="41" transform="matrix(1 0 0 1 2519.48 14589)">26500</text></g><g clip-path="url(#clip14)"><text fill="#595959" font-family="Calibri,Calibri_MSFontService,sans-serif" font-weight="400" font-size="41" transform="matrix(1 0 0 1 2519.48 14501)">27000</text></g><g clip-path="url(#clip15)"><text fill="#595959" font-family="Calibri,Calibri_MSFontService,sans-serif" font-weight="400" font-size="41" transform="matrix(1 0 0 1 2519.48 14413)">27500</text></g><g clip-path="url(#clip16)"><text fill="#595959" font-family="Calibri,Calibri_MSFontService,sans-serif" font-weight="400" font-size="41" transform="matrix(1 0 0 1 2519.48 14325)">28000</text></g><g clip-path="url(#clip17)"><text fill="#595959" font-family="Calibri,Calibri_MSFontService,sans-serif" font-weight="400" font-size="41" transform="matrix(1 0 0 1 2519.48 14237)">28500</text></g><g clip-path="url(#clip18)"><text fill="#595959" font-family="Calibri,Calibri_MSFontService,sans-serif" font-weight="400" font-size="41" transform="matrix(1 0 0 1 2519.48 14149)">29000</text></g><g clip-path="url(#clip19)"><text fill="#595959" font-family="Calibri,Calibri_MSFontService,sans-serif" font-weight="400" font-size="41" transform="matrix(1 0 0 1 2519.48 14060)">29500</text></g><g clip-path="url(#clip20)"><text fill="#595959" font-family="Calibri,Calibri_MSFontService,sans-serif" font-weight="400" font-size="41" transform="matrix(1 0 0 1 2651.8 14731)">0</text></g><g clip-path="url(#clip21)"><text fill="#595959" font-family="Calibri,Calibri_MSFontService,sans-serif" font-weight="400" font-size="41" transform="matrix(1 0 0 1 2901.05 14731)">50</text></g><g clip-path="url(#clip22)"><text fill="#595959" font-family="Calibri,Calibri_MSFontService,sans-serif" font-weight="400" font-size="41" transform="matrix(1 0 0 1 3150.29 14731)">100</text></g><g clip-path="url(#clip23)"><text fill="#595959" font-family="Calibri,Calibri_MSFontService,sans-serif" font-weight="400" font-size="41" transform="matrix(1 0 0 1 3409.99 14731)">150</text></g><g clip-path="url(#clip24)"><text fill="#595959" font-family="Calibri,Calibri_MSFontService,sans-serif" font-weight="400" font-size="41" transform="matrix(1 0 0 1 3669.69 14731)">200</text></g><g clip-path="url(#clip25)"><text fill="#595959" font-family="Calibri,Calibri_MSFontService,sans-serif" font-weight="400" font-size="41" transform="matrix(1 0 0 1 3929.38 14731)">250</text></g><g clip-path="url(#clip26)"><text fill="#595959" font-family="Calibri,Calibri_MSFontService,sans-serif" font-weight="400" font-size="46" transform="matrix(6.12323e-17 -1 1 6.12323e-17 2493.79 14544)">Current Best Fitness</text></g><g clip-path="url(#clip27)"><text fill="#595959" font-family="Calibri,Calibri_MSFontService,sans-serif" font-weight="400" font-size="46" transform="matrix(1 0 0 1 3206.15 14800)">Generation</text></g><g clip-path="url(#clip28)"><text fill="#595959" font-family="Calibri,Calibri_MSFontService,sans-serif" font-weight="400" font-size="64" transform="matrix(1 0 0 1 2926.63 13974)">Best Fitness (RED Pop)</text></g><rect x="2393.5" y="13879.5" width="1649" height="990" stroke="#D9D9D9" stroke-width="3.4375" stroke-linejoin="round" stroke-miterlimit="10" fill="none"/></g></svg>