<svg width="1815" height="1215" xmlns="http://www.w3.org/2000/svg" xmlns:xlink="http://www.w3.org/1999/xlink" overflow="hidden"><defs><clipPath id="clip0"><rect x="2391" y="19034" width="1815" height="1215"/></clipPath><clipPath id="clip1"><rect x="2392" y="19035" width="1812" height="1211"/></clipPath><clipPath id="clip2"><rect x="2392" y="19035" width="1812" height="1211"/></clipPath><clipPath id="clip3"><rect x="2392" y="19035" width="1812" height="1211"/></clipPath><clipPath id="clip4"><rect x="2392" y="19035" width="1812" height="1211"/></clipPath><clipPath id="clip5"><rect x="2392" y="19035" width="1812" height="1211"/></clipPath><clipPath id="clip6"><rect x="2683" y="19205" width="1439" height="921"/></clipPath><clipPath id="clip7"><rect x="2392" y="19035" width="1812" height="1211"/></clipPath><clipPath id="clip8"><rect x="2392" y="19035" width="1812" height="1211"/></clipPath><clipPath id="clip9"><rect x="2392" y="19035" width="1812" height="1211"/></clipPath><clipPath id="clip10"><rect x="2392" y="19035" width="1812" height="1211"/></clipPath><clipPath id="clip11"><rect x="2392" y="19035" width="1812" height="1211"/></clipPath><clipPath id="clip12"><rect x="2392" y="19035" width="1812" height="1211"/></clipPath><clipPath id="clip13"><rect x="2392" y="19035" width="1812" height="1211"/></clipPath><clipPath id="clip14"><rect x="2392" y="19035" width="1812" height="1211"/></clipPath><clipPath id="clip15"><rect x="2392" y="19035" width="1812" height="1211"/></clipPath><clipPath id="clip16"><rect x="2392" y="19035" width="1812" height="1211"/></clipPath><clipPath id="clip17"><rect x="2392" y="19035" width="1812" height="1211"/></clipPath><clipPath id="clip18"><rect x="2392" y="19035" width="1812" height="1211"/></clipPath><clipPath id="clip19"><rect x="2392" y="19035" width="1812" height="1211"/></clipPath><clipPath id="clip20"><rect x="2392" y="19035" width="1812" height="1211"/></clipPath><clipPath id="clip21"><rect x="2392" y="19035" width="1812" height="1211"/></clipPath><clipPath id="clip22"><rect x="2392" y="19035" width="1812" height="1211"/></clipPath><clipPath id="clip23"><rect x="2392" y="19035" width="1812" height="1211"/></clipPath><clipPath id="clip24"><rect x="2392" y="19035" width="1812" height="1211"/></clipPath><clipPath id="clip25"><rect x="2392" y="19035" width="1812" height="1211"/></clipPath><clipPath id="clip26"><rect x="2392" y="19035" width="1812" height="1211"/></clipPath><clipPath id="clip27"><rect x="2392" y="19035" width="1812" height="1211"/></clipPath></defs><g clip-path="url(#clip0)" transform="translate(-2391 -19034)"><rect x="2392" y="19035" width="1812" height="1212" fill="#FFFFFF"/><g clip-path="url(#clip1)"><path d="M2683.5 20126.5 4122.5 20126.5M2683.5 20011.2 4122.5 20011.2M2683.5 19781.1 4122.5 19781.1M2683.5 19666.1 4122.5 19666.1M2683.5 19551.1 4122.5 19551.1M2683.5 19435.1 4122.5 19435.1M2683.5 19320.1 4122.5 19320.1M2683.5 19205.5 4122.5 19205.5" stroke="#D9D9D9" stroke-width="3.4375" stroke-linejoin="round" stroke-miterlimit="10" fill="none"/></g><g clip-path="url(#clip2)"><path d="M2888.59 19205.5 2888.59 20126.5M3094.6 19205.5 3094.6 20126.5M3299.61 19205.5 3299.61 20126.5M3505.62 19205.5 3505.62 20126.5M3710.62 19205.5 3710.62 20126.5M3916.63 19205.5 3916.63 20126.5M4122.5 19205.5 4122.5 20126.5" stroke="#D9D9D9" stroke-width="3.4375" stroke-linejoin="round" stroke-miterlimit="10" fill="none"/></g><g clip-path="url(#clip3)"><path d="M0 0 0.000360892 921" stroke="#BFBFBF" stroke-width="3.4375" stroke-linejoin="round" stroke-miterlimit="10" fill="none" fill-rule="evenodd" transform="matrix(1 0 0 -1 2683.5 20126.5)"/></g><g clip-path="url(#clip4)"><path d="M2683.5 19896.5 4122.5 19896.5" stroke="#BFBFBF" stroke-width="3.4375" stroke-linejoin="round" stroke-miterlimit="10" fill="none" fill-rule="evenodd"/></g><g clip-path="url(#clip5)"><path d="M2695 20030.7C2695 20036.7 2690.07 20041.7 2684 20041.7 2677.92 20041.7 2673 20036.7 2673 20030.7 2673 20024.6 2677.92 20019.7 2684 20019.7 2690.07 20019.7 2695 20024.6 2695 20030.7Z" stroke="#4472C4" stroke-width="3.4375" stroke-linejoin="round" stroke-miterlimit="10" fill="#4472C4"/><path d="M2699 19606.7C2699 19612.7 2694.07 19617.7 2688 19617.7 2681.92 19617.7 2677 19612.7 2677 19606.7 2677 19600.6 2681.92 19595.7 2688 19595.7 2694.07 19595.7 2699 19600.6 2699 19606.7Z" stroke="#4472C4" stroke-width="3.4375" stroke-linejoin="round" stroke-miterlimit="10" fill="#4472C4"/><path d="M2703 19558.7C2703 19564.7 2698.07 19569.7 2692 19569.7 2685.92 19569.7 2681 19564.7 2681 19558.7 2681 19552.6 2685.92 19547.7 2692 19547.7 2698.07 19547.7 2703 19552.6 2703 19558.7Z" stroke="#4472C4" stroke-width="3.4375" stroke-linejoin="round" stroke-miterlimit="10" fill="#4472C4"/><path d="M2707 19521.7C2707 19527.7 2702.07 19532.7 2696 19532.7 2689.92 19532.7 2685 19527.7 2685 19521.7 2685 19515.6 2689.92 19510.7 2696 19510.7 2702.07 19510.7 2707 19515.6 2707 19521.7Z" stroke="#4472C4" stroke-width="3.4375" stroke-linejoin="round" stroke-miterlimit="10" fill="#4472C4"/><path d="M2711 19604.7C2711 19610.7 2706.07 19615.7 2700 19615.7 2693.92 19615.7 2689 19610.7 2689 19604.7 2689 19598.6 2693.92 19593.7 2700 19593.7 2706.07 19593.7 2711 19598.6 2711 19604.7Z" stroke="#4472C4" stroke-width="3.4375" stroke-linejoin="round" stroke-miterlimit="10" fill="#4472C4"/><path d="M2715 19499.7C2715 19505.7 2710.07 19510.7 2704 19510.7 2697.92 19510.7 2693 19505.7 2693 19499.7 2693 19493.6 2697.92 19488.7 2704 19488.7 2710.07 19488.7 2715 19493.6 2715 19499.7Z" stroke="#4472C4" stroke-width="3.4375" stroke-linejoin="round" stroke-miterlimit="10" fill="#4472C4"/><path d="M2719 19530.7C2719 19536.7 2714.07 19541.7 2708 19541.7 2701.92 19541.7 2697 19536.7 2697 19530.7 2697 19524.6 2701.92 19519.7 2708 19519.7 2714.07 19519.7 2719 19524.6 2719 19530.7Z" stroke="#4472C4" stroke-width="3.4375" stroke-linejoin="round" stroke-miterlimit="10" fill="#4472C4"/><path d="M2723 19529.7C2723 19535.7 2718.07 19540.7 2712 19540.7 2705.92 19540.7 2701 19535.7 2701 19529.7 2701 19523.6 2705.92 19518.7 2712 19518.7 2718.07 19518.7 2723 19523.6 2723 19529.7Z" stroke="#4472C4" stroke-width="3.4375" stroke-linejoin="round" stroke-miterlimit="10" fill="#4472C4"/><path d="M2728 19388.7C2728 19394.7 2723.07 19399.7 2717 19399.7 2710.92 19399.7 2706 19394.7 2706 19388.7 2706 19382.6 2710.92 19377.7 2717 19377.7 2723.07 19377.7 2728 19382.6 2728 19388.7Z" stroke="#4472C4" stroke-width="3.4375" stroke-linejoin="round" stroke-miterlimit="10" fill="#4472C4"/><path d="M2732 19504.7C2732 19510.7 2727.07 19515.7 2721 19515.7 2714.92 19515.7 2710 19510.7 2710 19504.7 2710 19498.6 2714.92 19493.7 2721 19493.7 2727.07 19493.7 2732 19498.6 2732 19504.7Z" stroke="#4472C4" stroke-width="3.4375" stroke-linejoin="round" stroke-miterlimit="10" fill="#4472C4"/><path d="M2736 19419.7C2736 19425.7 2731.07 19430.7 2725 19430.7 2718.92 19430.7 2714 19425.7 2714 19419.7 2714 19413.6 2718.92 19408.7 2725 19408.7 2731.07 19408.7 2736 19413.6 2736 19419.7Z" stroke="#4472C4" stroke-width="3.4375" stroke-linejoin="round" stroke-miterlimit="10" fill="#4472C4"/><path d="M2740 19516.7C2740 19522.7 2735.07 19527.7 2729 19527.7 2722.92 19527.7 2718 19522.7 2718 19516.7 2718 19510.6 2722.92 19505.7 2729 19505.7 2735.07 19505.7 2740 19510.6 2740 19516.7Z" stroke="#4472C4" stroke-width="3.4375" stroke-linejoin="round" stroke-miterlimit="10" fill="#4472C4"/><path d="M2744 19472.7C2744 19478.7 2739.07 19483.7 2733 19483.7 2726.92 19483.7 2722 19478.7 2722 19472.7 2722 19466.6 2726.92 19461.7 2733 19461.7 2739.07 19461.7 2744 19466.6 2744 19472.7Z" stroke="#4472C4" stroke-width="3.4375" stroke-linejoin="round" stroke-miterlimit="10" fill="#4472C4"/><path d="M2748 19439.7C2748 19445.7 2743.07 19450.7 2737 19450.7 2730.92 19450.7 2726 19445.7 2726 19439.7 2726 19433.6 2730.92 19428.7 2737 19428.7 2743.07 19428.7 2748 19433.6 2748 19439.7Z" stroke="#4472C4" stroke-width="3.4375" stroke-linejoin="round" stroke-miterlimit="10" fill="#4472C4"/><path d="M2752 19403.7C2752 19409.7 2747.07 19414.7 2741 19414.7 2734.92 19414.7 2730 19409.7 2730 19403.7 2730 19397.6 2734.92 19392.7 2741 19392.7 2747.07 19392.7 2752 19397.6 2752 19403.7Z" stroke="#4472C4" stroke-width="3.4375" stroke-linejoin="round" stroke-miterlimit="10" fill="#4472C4"/><path d="M2756 19464.7C2756 19470.7 2751.07 19475.7 2745 19475.7 2738.92 19475.7 2734 19470.7 2734 19464.7 2734 19458.6 2738.92 19453.7 2745 19453.7 2751.07 19453.7 2756 19458.6 2756 19464.7Z" stroke="#4472C4" stroke-width="3.4375" stroke-linejoin="round" stroke-miterlimit="10" fill="#4472C4"/><path d="M2760 19567.7C2760 19573.7 2755.07 19578.7 2749 19578.7 2742.92 19578.7 2738 19573.7 2738 19567.7 2738 19561.6 2742.92 19556.7 2749 19556.7 2755.07 19556.7 2760 19561.6 2760 19567.7Z" stroke="#4472C4" stroke-width="3.4375" stroke-linejoin="round" stroke-miterlimit="10" fill="#4472C4"/><path d="M2765 19366.7C2765 19372.7 2760.07 19377.7 2754 19377.7 2747.92 19377.7 2743 19372.7 2743 19366.7 2743 19360.6 2747.92 19355.7 2754 19355.7 2760.07 19355.7 2765 19360.6 2765 19366.7Z" stroke="#4472C4" stroke-width="3.4375" stroke-linejoin="round" stroke-miterlimit="10" fill="#4472C4"/><path d="M2769 19396.7C2769 19402.7 2764.07 19407.7 2758 19407.7 2751.92 19407.7 2747 19402.7 2747 19396.7 2747 19390.6 2751.92 19385.7 2758 19385.7 2764.07 19385.7 2769 19390.6 2769 19396.7Z" stroke="#4472C4" stroke-width="3.4375" stroke-linejoin="round" stroke-miterlimit="10" fill="#4472C4"/><path d="M2773 19458.7C2773 19464.7 2768.07 19469.7 2762 19469.7 2755.92 19469.7 2751 19464.7 2751 19458.7 2751 19452.6 2755.92 19447.7 2762 19447.7 2768.07 19447.7 2773 19452.6 2773 19458.7Z" stroke="#4472C4" stroke-width="3.4375" stroke-linejoin="round" stroke-miterlimit="10" fill="#4472C4"/><path d="M2777 19424.7C2777 19430.7 2772.07 19435.7 2766 19435.7 2759.92 19435.7 2755 19430.7 2755 19424.7 2755 19418.6 2759.92 19413.7 2766 19413.7 2772.07 19413.7 2777 19418.6 2777 19424.7Z" stroke="#4472C4" stroke-width="3.4375" stroke-linejoin="round" stroke-miterlimit="10" fill="#4472C4"/><path d="M2781 19502.7C2781 19508.7 2776.07 19513.7 2770 19513.7 2763.92 19513.7 2759 19508.7 2759 19502.7 2759 19496.6 2763.92 19491.7 2770 19491.7 2776.07 19491.7 2781 19496.6 2781 19502.7Z" stroke="#4472C4" stroke-width="3.4375" stroke-linejoin="round" stroke-miterlimit="10" fill="#4472C4"/><path d="M2785 19509.7C2785 19515.7 2780.07 19520.7 2774 19520.7 2767.92 19520.7 2763 19515.7 2763 19509.7 2763 19503.6 2767.92 19498.7 2774 19498.7 2780.07 19498.7 2785 19503.6 2785 19509.7Z" stroke="#4472C4" stroke-width="3.4375" stroke-linejoin="round" stroke-miterlimit="10" fill="#4472C4"/><path d="M2789 19486.7C2789 19492.7 2784.07 19497.7 2778 19497.7 2771.92 19497.7 2767 19492.7 2767 19486.7 2767 19480.6 2771.92 19475.7 2778 19475.7 2784.07 19475.7 2789 19480.6 2789 19486.7Z" stroke="#4472C4" stroke-width="3.4375" stroke-linejoin="round" stroke-miterlimit="10" fill="#4472C4"/><path d="M2793 19454.7C2793 19460.7 2788.07 19465.7 2782 19465.7 2775.92 19465.7 2771 19460.7 2771 19454.7 2771 19448.6 2775.92 19443.7 2782 19443.7 2788.07 19443.7 2793 19448.6 2793 19454.7Z" stroke="#4472C4" stroke-width="3.4375" stroke-linejoin="round" stroke-miterlimit="10" fill="#4472C4"/><path d="M2797 19452.7C2797 19458.7 2792.07 19463.7 2786 19463.7 2779.92 19463.7 2775 19458.7 2775 19452.7 2775 19446.6 2779.92 19441.7 2786 19441.7 2792.07 19441.7 2797 19446.6 2797 19452.7Z" stroke="#4472C4" stroke-width="3.4375" stroke-linejoin="round" stroke-miterlimit="10" fill="#4472C4"/><path d="M2802 19387.7C2802 19393.7 2797.07 19398.7 2791 19398.7 2784.92 19398.7 2780 19393.7 2780 19387.7 2780 19381.6 2784.92 19376.7 2791 19376.7 2797.07 19376.7 2802 19381.6 2802 19387.7Z" stroke="#4472C4" stroke-width="3.4375" stroke-linejoin="round" stroke-miterlimit="10" fill="#4472C4"/><path d="M2806 19435.7C2806 19441.7 2801.07 19446.7 2795 19446.7 2788.92 19446.7 2784 19441.7 2784 19435.7 2784 19429.6 2788.92 19424.7 2795 19424.7 2801.07 19424.7 2806 19429.6 2806 19435.7Z" stroke="#4472C4" stroke-width="3.4375" stroke-linejoin="round" stroke-miterlimit="10" fill="#4472C4"/><path d="M2810 19479.7C2810 19485.7 2805.07 19490.7 2799 19490.7 2792.92 19490.7 2788 19485.7 2788 19479.7 2788 19473.6 2792.92 19468.7 2799 19468.7 2805.07 19468.7 2810 19473.6 2810 19479.7Z" stroke="#4472C4" stroke-width="3.4375" stroke-linejoin="round" stroke-miterlimit="10" fill="#4472C4"/><path d="M2814 19508.7C2814 19514.7 2809.07 19519.7 2803 19519.7 2796.92 19519.7 2792 19514.7 2792 19508.7 2792 19502.6 2796.92 19497.7 2803 19497.7 2809.07 19497.7 2814 19502.6 2814 19508.7Z" stroke="#4472C4" stroke-width="3.4375" stroke-linejoin="round" stroke-miterlimit="10" fill="#4472C4"/><path d="M2818 19430.7C2818 19436.7 2813.07 19441.7 2807 19441.7 2800.92 19441.7 2796 19436.7 2796 19430.7 2796 19424.6 2800.92 19419.7 2807 19419.7 2813.07 19419.7 2818 19424.6 2818 19430.7Z" stroke="#4472C4" stroke-width="3.4375" stroke-linejoin="round" stroke-miterlimit="10" fill="#4472C4"/><path d="M2822 19330.7C2822 19336.7 2817.07 19341.7 2811 19341.7 2804.92 19341.7 2800 19336.7 2800 19330.7 2800 19324.6 2804.92 19319.7 2811 19319.7 2817.07 19319.7 2822 19324.6 2822 19330.7Z" stroke="#4472C4" stroke-width="3.4375" stroke-linejoin="round" stroke-miterlimit="10" fill="#4472C4"/><path d="M2826 19467.7C2826 19473.7 2821.07 19478.7 2815 19478.7 2808.92 19478.7 2804 19473.7 2804 19467.7 2804 19461.6 2808.92 19456.7 2815 19456.7 2821.07 19456.7 2826 19461.6 2826 19467.7Z" stroke="#4472C4" stroke-width="3.4375" stroke-linejoin="round" stroke-miterlimit="10" fill="#4472C4"/><path d="M2830 19388.7C2830 19394.7 2825.07 19399.7 2819 19399.7 2812.92 19399.7 2808 19394.7 2808 19388.7 2808 19382.6 2812.92 19377.7 2819 19377.7 2825.07 19377.7 2830 19382.6 2830 19388.7Z" stroke="#4472C4" stroke-width="3.4375" stroke-linejoin="round" stroke-miterlimit="10" fill="#4472C4"/><path d="M2834 19407.7C2834 19413.7 2829.07 19418.7 2823 19418.7 2816.92 19418.7 2812 19413.7 2812 19407.7 2812 19401.6 2816.92 19396.7 2823 19396.7 2829.07 19396.7 2834 19401.6 2834 19407.7Z" stroke="#4472C4" stroke-width="3.4375" stroke-linejoin="round" stroke-miterlimit="10" fill="#4472C4"/><path d="M2839 19401.7C2839 19407.7 2834.07 19412.7 2828 19412.7 2821.92 19412.7 2817 19407.7 2817 19401.7 2817 19395.6 2821.92 19390.7 2828 19390.7 2834.07 19390.7 2839 19395.6 2839 19401.7Z" stroke="#4472C4" stroke-width="3.4375" stroke-linejoin="round" stroke-miterlimit="10" fill="#4472C4"/><path d="M2843 19489.7C2843 19495.7 2838.07 19500.7 2832 19500.7 2825.92 19500.7 2821 19495.7 2821 19489.7 2821 19483.6 2825.92 19478.7 2832 19478.7 2838.07 19478.7 2843 19483.6 2843 19489.7Z" stroke="#4472C4" stroke-width="3.4375" stroke-linejoin="round" stroke-miterlimit="10" fill="#4472C4"/><path d="M2847 19411.7C2847 19417.7 2842.07 19422.7 2836 19422.7 2829.92 19422.7 2825 19417.7 2825 19411.7 2825 19405.6 2829.92 19400.7 2836 19400.7 2842.07 19400.7 2847 19405.6 2847 19411.7Z" stroke="#4472C4" stroke-width="3.4375" stroke-linejoin="round" stroke-miterlimit="10" fill="#4472C4"/><path d="M2851 19511.7C2851 19517.7 2846.07 19522.7 2840 19522.7 2833.92 19522.7 2829 19517.7 2829 19511.7 2829 19505.6 2833.92 19500.7 2840 19500.7 2846.07 19500.7 2851 19505.6 2851 19511.7Z" stroke="#4472C4" stroke-width="3.4375" stroke-linejoin="round" stroke-miterlimit="10" fill="#4472C4"/><path d="M2855 19489.7C2855 19495.7 2850.07 19500.7 2844 19500.7 2837.92 19500.7 2833 19495.7 2833 19489.7 2833 19483.6 2837.92 19478.7 2844 19478.7 2850.07 19478.7 2855 19483.6 2855 19489.7Z" stroke="#4472C4" stroke-width="3.4375" stroke-linejoin="round" stroke-miterlimit="10" fill="#4472C4"/><path d="M2859 19484.7C2859 19490.7 2854.07 19495.7 2848 19495.7 2841.92 19495.7 2837 19490.7 2837 19484.7 2837 19478.6 2841.92 19473.7 2848 19473.7 2854.07 19473.7 2859 19478.6 2859 19484.7Z" stroke="#4472C4" stroke-width="3.4375" stroke-linejoin="round" stroke-miterlimit="10" fill="#4472C4"/><path d="M2863 19441.7C2863 19447.7 2858.07 19452.7 2852 19452.7 2845.92 19452.7 2841 19447.7 2841 19441.7 2841 19435.6 2845.92 19430.7 2852 19430.7 2858.07 19430.7 2863 19435.6 2863 19441.7Z" stroke="#4472C4" stroke-width="3.4375" stroke-linejoin="round" stroke-miterlimit="10" fill="#4472C4"/><path d="M2867 19573.7C2867 19579.7 2862.07 19584.7 2856 19584.7 2849.92 19584.7 2845 19579.7 2845 19573.7 2845 19567.6 2849.92 19562.7 2856 19562.7 2862.07 19562.7 2867 19567.6 2867 19573.7Z" stroke="#4472C4" stroke-width="3.4375" stroke-linejoin="round" stroke-miterlimit="10" fill="#4472C4"/><path d="M2871 19435.7C2871 19441.7 2866.07 19446.7 2860 19446.7 2853.92 19446.7 2849 19441.7 2849 19435.7 2849 19429.6 2853.92 19424.7 2860 19424.7 2866.07 19424.7 2871 19429.6 2871 19435.7Z" stroke="#4472C4" stroke-width="3.4375" stroke-linejoin="round" stroke-miterlimit="10" fill="#4472C4"/><path d="M2876 19404.7C2876 19410.7 2871.07 19415.7 2865 19415.7 2858.92 19415.7 2854 19410.7 2854 19404.7 2854 19398.6 2858.92 19393.7 2865 19393.7 2871.07 19393.7 2876 19398.6 2876 19404.7Z" stroke="#4472C4" stroke-width="3.4375" stroke-linejoin="round" stroke-miterlimit="10" fill="#4472C4"/><path d="M2880 19511.7C2880 19517.7 2875.07 19522.7 2869 19522.7 2862.92 19522.7 2858 19517.7 2858 19511.7 2858 19505.6 2862.92 19500.7 2869 19500.7 2875.07 19500.7 2880 19505.6 2880 19511.7Z" stroke="#4472C4" stroke-width="3.4375" stroke-linejoin="round" stroke-miterlimit="10" fill="#4472C4"/><path d="M2884 19472.7C2884 19478.7 2879.07 19483.7 2873 19483.7 2866.92 19483.7 2862 19478.7 2862 19472.7 2862 19466.6 2866.92 19461.7 2873 19461.7 2879.07 19461.7 2884 19466.6 2884 19472.7Z" stroke="#4472C4" stroke-width="3.4375" stroke-linejoin="round" stroke-miterlimit="10" fill="#4472C4"/><path d="M2888 19446.7C2888 19452.7 2883.07 19457.7 2877 19457.7 2870.92 19457.7 2866 19452.7 2866 19446.7 2866 19440.6 2870.92 19435.7 2877 19435.7 2883.07 19435.7 2888 19440.6 2888 19446.7Z" stroke="#4472C4" stroke-width="3.4375" stroke-linejoin="round" stroke-miterlimit="10" fill="#4472C4"/><path d="M2892 19467.7C2892 19473.7 2887.07 19478.7 2881 19478.7 2874.92 19478.7 2870 19473.7 2870 19467.7 2870 19461.6 2874.92 19456.7 2881 19456.7 2887.07 19456.7 2892 19461.6 2892 19467.7Z" stroke="#4472C4" stroke-width="3.4375" stroke-linejoin="round" stroke-miterlimit="10" fill="#4472C4"/><path d="M2896 19479.7C2896 19485.7 2891.07 19490.7 2885 19490.7 2878.92 19490.7 2874 19485.7 2874 19479.7 2874 19473.6 2878.92 19468.7 2885 19468.7 2891.07 19468.7 2896 19473.6 2896 19479.7Z" stroke="#4472C4" stroke-width="3.4375" stroke-linejoin="round" stroke-miterlimit="10" fill="#4472C4"/><path d="M2900 19460.7C2900 19466.7 2895.07 19471.7 2889 19471.7 2882.92 19471.7 2878 19466.7 2878 19460.7 2878 19454.6 2882.92 19449.7 2889 19449.7 2895.07 19449.7 2900 19454.6 2900 19460.7Z" stroke="#4472C4" stroke-width="3.4375" stroke-linejoin="round" stroke-miterlimit="10" fill="#4472C4"/><path d="M2904 19422.7C2904 19428.7 2899.07 19433.7 2893 19433.7 2886.92 19433.7 2882 19428.7 2882 19422.7 2882 19416.6 2886.92 19411.7 2893 19411.7 2899.07 19411.7 2904 19416.6 2904 19422.7Z" stroke="#4472C4" stroke-width="3.4375" stroke-linejoin="round" stroke-miterlimit="10" fill="#4472C4"/><path d="M2908 19443.7C2908 19449.7 2903.07 19454.7 2897 19454.7 2890.92 19454.7 2886 19449.7 2886 19443.7 2886 19437.6 2890.92 19432.7 2897 19432.7 2903.07 19432.7 2908 19437.6 2908 19443.7Z" stroke="#4472C4" stroke-width="3.4375" stroke-linejoin="round" stroke-miterlimit="10" fill="#4472C4"/><path d="M2913 19483.7C2913 19489.7 2908.07 19494.7 2902 19494.7 2895.92 19494.7 2891 19489.7 2891 19483.7 2891 19477.6 2895.92 19472.7 2902 19472.7 2908.07 19472.7 2913 19477.6 2913 19483.7Z" stroke="#4472C4" stroke-width="3.4375" stroke-linejoin="round" stroke-miterlimit="10" fill="#4472C4"/><path d="M2917 19472.7C2917 19478.7 2912.07 19483.7 2906 19483.7 2899.92 19483.7 2895 19478.7 2895 19472.7 2895 19466.6 2899.92 19461.7 2906 19461.7 2912.07 19461.7 2917 19466.6 2917 19472.7Z" stroke="#4472C4" stroke-width="3.4375" stroke-linejoin="round" stroke-miterlimit="10" fill="#4472C4"/><path d="M2921 19471.7C2921 19477.7 2916.07 19482.7 2910 19482.7 2903.92 19482.7 2899 19477.7 2899 19471.7 2899 19465.6 2903.92 19460.7 2910 19460.7 2916.07 19460.7 2921 19465.6 2921 19471.7Z" stroke="#4472C4" stroke-width="3.4375" stroke-linejoin="round" stroke-miterlimit="10" fill="#4472C4"/><path d="M2925 19404.7C2925 19410.7 2920.07 19415.7 2914 19415.7 2907.92 19415.7 2903 19410.7 2903 19404.7 2903 19398.6 2907.92 19393.7 2914 19393.7 2920.07 19393.7 2925 19398.6 2925 19404.7Z" stroke="#4472C4" stroke-width="3.4375" stroke-linejoin="round" stroke-miterlimit="10" fill="#4472C4"/><path d="M2929 19436.7C2929 19442.7 2924.07 19447.7 2918 19447.7 2911.92 19447.7 2907 19442.7 2907 19436.7 2907 19430.6 2911.92 19425.7 2918 19425.7 2924.07 19425.7 2929 19430.6 2929 19436.7Z" stroke="#4472C4" stroke-width="3.4375" stroke-linejoin="round" stroke-miterlimit="10" fill="#4472C4"/><path d="M2933 19425.7C2933 19431.7 2928.07 19436.7 2922 19436.7 2915.92 19436.7 2911 19431.7 2911 19425.7 2911 19419.6 2915.92 19414.7 2922 19414.7 2928.07 19414.7 2933 19419.6 2933 19425.7Z" stroke="#4472C4" stroke-width="3.4375" stroke-linejoin="round" stroke-miterlimit="10" fill="#4472C4"/><path d="M2937 19473.7C2937 19479.7 2932.07 19484.7 2926 19484.7 2919.92 19484.7 2915 19479.7 2915 19473.7 2915 19467.6 2919.92 19462.7 2926 19462.7 2932.07 19462.7 2937 19467.6 2937 19473.7Z" stroke="#4472C4" stroke-width="3.4375" stroke-linejoin="round" stroke-miterlimit="10" fill="#4472C4"/><path d="M2941 19494.7C2941 19500.7 2936.07 19505.7 2930 19505.7 2923.92 19505.7 2919 19500.7 2919 19494.7 2919 19488.6 2923.92 19483.7 2930 19483.7 2936.07 19483.7 2941 19488.6 2941 19494.7Z" stroke="#4472C4" stroke-width="3.4375" stroke-linejoin="round" stroke-miterlimit="10" fill="#4472C4"/><path d="M2945 19511.7C2945 19517.7 2940.07 19522.7 2934 19522.7 2927.92 19522.7 2923 19517.7 2923 19511.7 2923 19505.6 2927.92 19500.7 2934 19500.7 2940.07 19500.7 2945 19505.6 2945 19511.7Z" stroke="#4472C4" stroke-width="3.4375" stroke-linejoin="round" stroke-miterlimit="10" fill="#4472C4"/><path d="M2950 19485.7C2950 19491.7 2945.07 19496.7 2939 19496.7 2932.92 19496.7 2928 19491.7 2928 19485.7 2928 19479.6 2932.92 19474.7 2939 19474.7 2945.07 19474.7 2950 19479.6 2950 19485.7Z" stroke="#4472C4" stroke-width="3.4375" stroke-linejoin="round" stroke-miterlimit="10" fill="#4472C4"/><path d="M2954 19413.7C2954 19419.7 2949.07 19424.7 2943 19424.7 2936.92 19424.7 2932 19419.7 2932 19413.7 2932 19407.6 2936.92 19402.7 2943 19402.7 2949.07 19402.7 2954 19407.6 2954 19413.7Z" stroke="#4472C4" stroke-width="3.4375" stroke-linejoin="round" stroke-miterlimit="10" fill="#4472C4"/><path d="M2958 19454.7C2958 19460.7 2953.07 19465.7 2947 19465.7 2940.92 19465.7 2936 19460.7 2936 19454.7 2936 19448.6 2940.92 19443.7 2947 19443.7 2953.07 19443.7 2958 19448.6 2958 19454.7Z" stroke="#4472C4" stroke-width="3.4375" stroke-linejoin="round" stroke-miterlimit="10" fill="#4472C4"/><path d="M2962 19428.7C2962 19434.7 2957.07 19439.7 2951 19439.7 2944.92 19439.7 2940 19434.7 2940 19428.7 2940 19422.6 2944.92 19417.7 2951 19417.7 2957.07 19417.7 2962 19422.6 2962 19428.7Z" stroke="#4472C4" stroke-width="3.4375" stroke-linejoin="round" stroke-miterlimit="10" fill="#4472C4"/><path d="M2966 19365.7C2966 19371.7 2961.07 19376.7 2955 19376.7 2948.92 19376.7 2944 19371.7 2944 19365.7 2944 19359.6 2948.92 19354.7 2955 19354.7 2961.07 19354.7 2966 19359.6 2966 19365.7Z" stroke="#4472C4" stroke-width="3.4375" stroke-linejoin="round" stroke-miterlimit="10" fill="#4472C4"/><path d="M2970 19357.7C2970 19363.7 2965.07 19368.7 2959 19368.7 2952.92 19368.7 2948 19363.7 2948 19357.7 2948 19351.6 2952.92 19346.7 2959 19346.7 2965.07 19346.7 2970 19351.6 2970 19357.7Z" stroke="#4472C4" stroke-width="3.4375" stroke-linejoin="round" stroke-miterlimit="10" fill="#4472C4"/><path d="M2974 19432.7C2974 19438.7 2969.07 19443.7 2963 19443.7 2956.92 19443.7 2952 19438.7 2952 19432.7 2952 19426.6 2956.92 19421.7 2963 19421.7 2969.07 19421.7 2974 19426.6 2974 19432.7Z" stroke="#4472C4" stroke-width="3.4375" stroke-linejoin="round" stroke-miterlimit="10" fill="#4472C4"/><path d="M2978 19469.7C2978 19475.7 2973.07 19480.7 2967 19480.7 2960.92 19480.7 2956 19475.7 2956 19469.7 2956 19463.6 2960.92 19458.7 2967 19458.7 2973.07 19458.7 2978 19463.6 2978 19469.7Z" stroke="#4472C4" stroke-width="3.4375" stroke-linejoin="round" stroke-miterlimit="10" fill="#4472C4"/><path d="M2982 19415.7C2982 19421.7 2977.07 19426.7 2971 19426.7 2964.92 19426.7 2960 19421.7 2960 19415.7 2960 19409.6 2964.92 19404.7 2971 19404.7 2977.07 19404.7 2982 19409.6 2982 19415.7Z" stroke="#4472C4" stroke-width="3.4375" stroke-linejoin="round" stroke-miterlimit="10" fill="#4472C4"/><path d="M2987 19462.7C2987 19468.7 2982.07 19473.7 2976 19473.7 2969.92 19473.7 2965 19468.7 2965 19462.7 2965 19456.6 2969.92 19451.7 2976 19451.7 2982.07 19451.7 2987 19456.6 2987 19462.7Z" stroke="#4472C4" stroke-width="3.4375" stroke-linejoin="round" stroke-miterlimit="10" fill="#4472C4"/><path d="M2991 19426.7C2991 19432.7 2986.07 19437.7 2980 19437.7 2973.92 19437.7 2969 19432.7 2969 19426.7 2969 19420.6 2973.92 19415.7 2980 19415.7 2986.07 19415.7 2991 19420.6 2991 19426.7Z" stroke="#4472C4" stroke-width="3.4375" stroke-linejoin="round" stroke-miterlimit="10" fill="#4472C4"/><path d="M2995 19458.7C2995 19464.7 2990.07 19469.7 2984 19469.7 2977.92 19469.7 2973 19464.7 2973 19458.7 2973 19452.6 2977.92 19447.7 2984 19447.7 2990.07 19447.7 2995 19452.6 2995 19458.7Z" stroke="#4472C4" stroke-width="3.4375" stroke-linejoin="round" stroke-miterlimit="10" fill="#4472C4"/><path d="M2999 19425.7C2999 19431.7 2994.07 19436.7 2988 19436.7 2981.92 19436.7 2977 19431.7 2977 19425.7 2977 19419.6 2981.92 19414.7 2988 19414.7 2994.07 19414.7 2999 19419.6 2999 19425.7Z" stroke="#4472C4" stroke-width="3.4375" stroke-linejoin="round" stroke-miterlimit="10" fill="#4472C4"/><path d="M3003 19524.7C3003 19530.7 2998.07 19535.7 2992 19535.7 2985.92 19535.7 2981 19530.7 2981 19524.7 2981 19518.6 2985.92 19513.7 2992 19513.7 2998.07 19513.7 3003 19518.6 3003 19524.7Z" stroke="#4472C4" stroke-width="3.4375" stroke-linejoin="round" stroke-miterlimit="10" fill="#4472C4"/><path d="M3007 19430.7C3007 19436.7 3002.07 19441.7 2996 19441.7 2989.92 19441.7 2985 19436.7 2985 19430.7 2985 19424.6 2989.92 19419.7 2996 19419.7 3002.07 19419.7 3007 19424.6 3007 19430.7Z" stroke="#4472C4" stroke-width="3.4375" stroke-linejoin="round" stroke-miterlimit="10" fill="#4472C4"/><path d="M3011 19559.7C3011 19565.7 3006.07 19570.7 3000 19570.7 2993.92 19570.7 2989 19565.7 2989 19559.7 2989 19553.6 2993.92 19548.7 3000 19548.7 3006.07 19548.7 3011 19553.6 3011 19559.7Z" stroke="#4472C4" stroke-width="3.4375" stroke-linejoin="round" stroke-miterlimit="10" fill="#4472C4"/><path d="M3015 19499.7C3015 19505.7 3010.07 19510.7 3004 19510.7 2997.92 19510.7 2993 19505.7 2993 19499.7 2993 19493.6 2997.92 19488.7 3004 19488.7 3010.07 19488.7 3015 19493.6 3015 19499.7Z" stroke="#4472C4" stroke-width="3.4375" stroke-linejoin="round" stroke-miterlimit="10" fill="#4472C4"/><path d="M3019 19429.7C3019 19435.7 3014.07 19440.7 3008 19440.7 3001.92 19440.7 2997 19435.7 2997 19429.7 2997 19423.6 3001.92 19418.7 3008 19418.7 3014.07 19418.7 3019 19423.6 3019 19429.7Z" stroke="#4472C4" stroke-width="3.4375" stroke-linejoin="round" stroke-miterlimit="10" fill="#4472C4"/><path d="M3024 19407.7C3024 19413.7 3019.07 19418.7 3013 19418.7 3006.92 19418.7 3002 19413.7 3002 19407.7 3002 19401.6 3006.92 19396.7 3013 19396.7 3019.07 19396.7 3024 19401.6 3024 19407.7Z" stroke="#4472C4" stroke-width="3.4375" stroke-linejoin="round" stroke-miterlimit="10" fill="#4472C4"/><path d="M3028 19453.7C3028 19459.7 3023.07 19464.7 3017 19464.7 3010.92 19464.7 3006 19459.7 3006 19453.7 3006 19447.6 3010.92 19442.7 3017 19442.7 3023.07 19442.7 3028 19447.6 3028 19453.7Z" stroke="#4472C4" stroke-width="3.4375" stroke-linejoin="round" stroke-miterlimit="10" fill="#4472C4"/><path d="M3032 19429.7C3032 19435.7 3027.07 19440.7 3021 19440.7 3014.92 19440.7 3010 19435.7 3010 19429.7 3010 19423.6 3014.92 19418.7 3021 19418.7 3027.07 19418.7 3032 19423.6 3032 19429.7Z" stroke="#4472C4" stroke-width="3.4375" stroke-linejoin="round" stroke-miterlimit="10" fill="#4472C4"/><path d="M3036 19439.7C3036 19445.7 3031.07 19450.7 3025 19450.7 3018.92 19450.7 3014 19445.7 3014 19439.7 3014 19433.6 3018.92 19428.7 3025 19428.7 3031.07 19428.7 3036 19433.6 3036 19439.7Z" stroke="#4472C4" stroke-width="3.4375" stroke-linejoin="round" stroke-miterlimit="10" fill="#4472C4"/><path d="M3040 19387.7C3040 19393.7 3035.07 19398.7 3029 19398.7 3022.92 19398.7 3018 19393.7 3018 19387.7 3018 19381.6 3022.92 19376.7 3029 19376.7 3035.07 19376.7 3040 19381.6 3040 19387.7Z" stroke="#4472C4" stroke-width="3.4375" stroke-linejoin="round" stroke-miterlimit="10" fill="#4472C4"/><path d="M3044 19458.7C3044 19464.7 3039.07 19469.7 3033 19469.7 3026.92 19469.7 3022 19464.7 3022 19458.7 3022 19452.6 3026.92 19447.7 3033 19447.7 3039.07 19447.7 3044 19452.6 3044 19458.7Z" stroke="#4472C4" stroke-width="3.4375" stroke-linejoin="round" stroke-miterlimit="10" fill="#4472C4"/><path d="M3048 19378.7C3048 19384.7 3043.07 19389.7 3037 19389.7 3030.92 19389.7 3026 19384.7 3026 19378.7 3026 19372.6 3030.92 19367.7 3037 19367.7 3043.07 19367.7 3048 19372.6 3048 19378.7Z" stroke="#4472C4" stroke-width="3.4375" stroke-linejoin="round" stroke-miterlimit="10" fill="#4472C4"/><path d="M3052 19432.7C3052 19438.7 3047.07 19443.7 3041 19443.7 3034.92 19443.7 3030 19438.7 3030 19432.7 3030 19426.6 3034.92 19421.7 3041 19421.7 3047.07 19421.7 3052 19426.6 3052 19432.7Z" stroke="#4472C4" stroke-width="3.4375" stroke-linejoin="round" stroke-miterlimit="10" fill="#4472C4"/><path d="M3056 19455.7C3056 19461.7 3051.07 19466.7 3045 19466.7 3038.92 19466.7 3034 19461.7 3034 19455.7 3034 19449.6 3038.92 19444.7 3045 19444.7 3051.07 19444.7 3056 19449.6 3056 19455.7Z" stroke="#4472C4" stroke-width="3.4375" stroke-linejoin="round" stroke-miterlimit="10" fill="#4472C4"/><path d="M3061 19486.7C3061 19492.7 3056.07 19497.7 3050 19497.7 3043.92 19497.7 3039 19492.7 3039 19486.7 3039 19480.6 3043.92 19475.7 3050 19475.7 3056.07 19475.7 3061 19480.6 3061 19486.7Z" stroke="#4472C4" stroke-width="3.4375" stroke-linejoin="round" stroke-miterlimit="10" fill="#4472C4"/><path d="M3065 19461.7C3065 19467.7 3060.07 19472.7 3054 19472.7 3047.92 19472.7 3043 19467.7 3043 19461.7 3043 19455.6 3047.92 19450.7 3054 19450.7 3060.07 19450.7 3065 19455.6 3065 19461.7Z" stroke="#4472C4" stroke-width="3.4375" stroke-linejoin="round" stroke-miterlimit="10" fill="#4472C4"/><path d="M3069 19459.7C3069 19465.7 3064.07 19470.7 3058 19470.7 3051.92 19470.7 3047 19465.7 3047 19459.7 3047 19453.6 3051.92 19448.7 3058 19448.7 3064.07 19448.7 3069 19453.6 3069 19459.7Z" stroke="#4472C4" stroke-width="3.4375" stroke-linejoin="round" stroke-miterlimit="10" fill="#4472C4"/><path d="M3073 19397.7C3073 19403.7 3068.07 19408.7 3062 19408.7 3055.92 19408.7 3051 19403.7 3051 19397.7 3051 19391.6 3055.92 19386.7 3062 19386.7 3068.07 19386.7 3073 19391.6 3073 19397.7Z" stroke="#4472C4" stroke-width="3.4375" stroke-linejoin="round" stroke-miterlimit="10" fill="#4472C4"/><path d="M3077 19490.7C3077 19496.7 3072.07 19501.7 3066 19501.7 3059.92 19501.7 3055 19496.7 3055 19490.7 3055 19484.6 3059.92 19479.7 3066 19479.7 3072.07 19479.7 3077 19484.6 3077 19490.7Z" stroke="#4472C4" stroke-width="3.4375" stroke-linejoin="round" stroke-miterlimit="10" fill="#4472C4"/><path d="M3081 19502.7C3081 19508.7 3076.07 19513.7 3070 19513.7 3063.92 19513.7 3059 19508.7 3059 19502.7 3059 19496.6 3063.92 19491.7 3070 19491.7 3076.07 19491.7 3081 19496.6 3081 19502.7Z" stroke="#4472C4" stroke-width="3.4375" stroke-linejoin="round" stroke-miterlimit="10" fill="#4472C4"/><path d="M3085 19536.7C3085 19542.7 3080.07 19547.7 3074 19547.7 3067.92 19547.7 3063 19542.7 3063 19536.7 3063 19530.6 3067.92 19525.7 3074 19525.7 3080.07 19525.7 3085 19530.6 3085 19536.7Z" stroke="#4472C4" stroke-width="3.4375" stroke-linejoin="round" stroke-miterlimit="10" fill="#4472C4"/><path d="M3089 19468.7C3089 19474.7 3084.07 19479.7 3078 19479.7 3071.92 19479.7 3067 19474.7 3067 19468.7 3067 19462.6 3071.92 19457.7 3078 19457.7 3084.07 19457.7 3089 19462.6 3089 19468.7Z" stroke="#4472C4" stroke-width="3.4375" stroke-linejoin="round" stroke-miterlimit="10" fill="#4472C4"/><path d="M3093 19497.7C3093 19503.7 3088.07 19508.7 3082 19508.7 3075.92 19508.7 3071 19503.7 3071 19497.7 3071 19491.6 3075.92 19486.7 3082 19486.7 3088.07 19486.7 3093 19491.6 3093 19497.7Z" stroke="#4472C4" stroke-width="3.4375" stroke-linejoin="round" stroke-miterlimit="10" fill="#4472C4"/><path d="M3098 19447.7C3098 19453.7 3093.07 19458.7 3087 19458.7 3080.92 19458.7 3076 19453.7 3076 19447.7 3076 19441.6 3080.92 19436.7 3087 19436.7 3093.07 19436.7 3098 19441.6 3098 19447.7Z" stroke="#4472C4" stroke-width="3.4375" stroke-linejoin="round" stroke-miterlimit="10" fill="#4472C4"/><path d="M3102 19532.7C3102 19538.7 3097.07 19543.7 3091 19543.7 3084.92 19543.7 3080 19538.7 3080 19532.7 3080 19526.6 3084.92 19521.7 3091 19521.7 3097.07 19521.7 3102 19526.6 3102 19532.7Z" stroke="#4472C4" stroke-width="3.4375" stroke-linejoin="round" stroke-miterlimit="10" fill="#4472C4"/><path d="M3106 19446.7C3106 19452.7 3101.07 19457.7 3095 19457.7 3088.92 19457.7 3084 19452.7 3084 19446.7 3084 19440.6 3088.92 19435.7 3095 19435.7 3101.07 19435.7 3106 19440.6 3106 19446.7Z" stroke="#4472C4" stroke-width="3.4375" stroke-linejoin="round" stroke-miterlimit="10" fill="#4472C4"/><path d="M3110 19465.7C3110 19471.7 3105.07 19476.7 3099 19476.7 3092.92 19476.7 3088 19471.7 3088 19465.7 3088 19459.6 3092.92 19454.7 3099 19454.7 3105.07 19454.7 3110 19459.6 3110 19465.7Z" stroke="#4472C4" stroke-width="3.4375" stroke-linejoin="round" stroke-miterlimit="10" fill="#4472C4"/><path d="M3114 19432.7C3114 19438.7 3109.07 19443.7 3103 19443.7 3096.92 19443.7 3092 19438.7 3092 19432.7 3092 19426.6 3096.92 19421.7 3103 19421.7 3109.07 19421.7 3114 19426.6 3114 19432.7Z" stroke="#4472C4" stroke-width="3.4375" stroke-linejoin="round" stroke-miterlimit="10" fill="#4472C4"/><path d="M3118 19492.7C3118 19498.7 3113.07 19503.7 3107 19503.7 3100.92 19503.7 3096 19498.7 3096 19492.7 3096 19486.6 3100.92 19481.7 3107 19481.7 3113.07 19481.7 3118 19486.6 3118 19492.7Z" stroke="#4472C4" stroke-width="3.4375" stroke-linejoin="round" stroke-miterlimit="10" fill="#4472C4"/><path d="M3122 19407.7C3122 19413.7 3117.07 19418.7 3111 19418.7 3104.92 19418.7 3100 19413.7 3100 19407.7 3100 19401.6 3104.92 19396.7 3111 19396.7 3117.07 19396.7 3122 19401.6 3122 19407.7Z" stroke="#4472C4" stroke-width="3.4375" stroke-linejoin="round" stroke-miterlimit="10" fill="#4472C4"/><path d="M3126 19438.7C3126 19444.7 3121.07 19449.7 3115 19449.7 3108.92 19449.7 3104 19444.7 3104 19438.7 3104 19432.6 3108.92 19427.7 3115 19427.7 3121.07 19427.7 3126 19432.6 3126 19438.7Z" stroke="#4472C4" stroke-width="3.4375" stroke-linejoin="round" stroke-miterlimit="10" fill="#4472C4"/><path d="M3131 19510.7C3131 19516.7 3126.07 19521.7 3120 19521.7 3113.92 19521.7 3109 19516.7 3109 19510.7 3109 19504.6 3113.92 19499.7 3120 19499.7 3126.07 19499.7 3131 19504.6 3131 19510.7Z" stroke="#4472C4" stroke-width="3.4375" stroke-linejoin="round" stroke-miterlimit="10" fill="#4472C4"/><path d="M3135 19410.7C3135 19416.7 3130.07 19421.7 3124 19421.7 3117.92 19421.7 3113 19416.7 3113 19410.7 3113 19404.6 3117.92 19399.7 3124 19399.7 3130.07 19399.7 3135 19404.6 3135 19410.7Z" stroke="#4472C4" stroke-width="3.4375" stroke-linejoin="round" stroke-miterlimit="10" fill="#4472C4"/><path d="M3139 19463.7C3139 19469.7 3134.07 19474.7 3128 19474.7 3121.92 19474.7 3117 19469.7 3117 19463.7 3117 19457.6 3121.92 19452.7 3128 19452.7 3134.07 19452.7 3139 19457.6 3139 19463.7Z" stroke="#4472C4" stroke-width="3.4375" stroke-linejoin="round" stroke-miterlimit="10" fill="#4472C4"/><path d="M3143 19443.7C3143 19449.7 3138.07 19454.7 3132 19454.7 3125.92 19454.7 3121 19449.7 3121 19443.7 3121 19437.6 3125.92 19432.7 3132 19432.7 3138.07 19432.7 3143 19437.6 3143 19443.7Z" stroke="#4472C4" stroke-width="3.4375" stroke-linejoin="round" stroke-miterlimit="10" fill="#4472C4"/><path d="M3147 19422.7C3147 19428.7 3142.07 19433.7 3136 19433.7 3129.92 19433.7 3125 19428.7 3125 19422.7 3125 19416.6 3129.92 19411.7 3136 19411.7 3142.07 19411.7 3147 19416.6 3147 19422.7Z" stroke="#4472C4" stroke-width="3.4375" stroke-linejoin="round" stroke-miterlimit="10" fill="#4472C4"/><path d="M3151 19415.7C3151 19421.7 3146.07 19426.7 3140 19426.7 3133.92 19426.7 3129 19421.7 3129 19415.7 3129 19409.6 3133.92 19404.7 3140 19404.7 3146.07 19404.7 3151 19409.6 3151 19415.7Z" stroke="#4472C4" stroke-width="3.4375" stroke-linejoin="round" stroke-miterlimit="10" fill="#4472C4"/><path d="M3155 19436.7C3155 19442.7 3150.07 19447.7 3144 19447.7 3137.92 19447.7 3133 19442.7 3133 19436.7 3133 19430.6 3137.92 19425.7 3144 19425.7 3150.07 19425.7 3155 19430.6 3155 19436.7Z" stroke="#4472C4" stroke-width="3.4375" stroke-linejoin="round" stroke-miterlimit="10" fill="#4472C4"/><path d="M3159 19467.7C3159 19473.7 3154.07 19478.7 3148 19478.7 3141.92 19478.7 3137 19473.7 3137 19467.7 3137 19461.6 3141.92 19456.7 3148 19456.7 3154.07 19456.7 3159 19461.6 3159 19467.7Z" stroke="#4472C4" stroke-width="3.4375" stroke-linejoin="round" stroke-miterlimit="10" fill="#4472C4"/><path d="M3163 19408.7C3163 19414.7 3158.07 19419.7 3152 19419.7 3145.92 19419.7 3141 19414.7 3141 19408.7 3141 19402.6 3145.92 19397.7 3152 19397.7 3158.07 19397.7 3163 19402.6 3163 19408.7Z" stroke="#4472C4" stroke-width="3.4375" stroke-linejoin="round" stroke-miterlimit="10" fill="#4472C4"/><path d="M3168 19446.7C3168 19452.7 3163.07 19457.7 3157 19457.7 3150.92 19457.7 3146 19452.7 3146 19446.7 3146 19440.6 3150.92 19435.7 3157 19435.7 3163.07 19435.7 3168 19440.6 3168 19446.7Z" stroke="#4472C4" stroke-width="3.4375" stroke-linejoin="round" stroke-miterlimit="10" fill="#4472C4"/><path d="M3172 19413.7C3172 19419.7 3167.07 19424.7 3161 19424.7 3154.92 19424.7 3150 19419.7 3150 19413.7 3150 19407.6 3154.92 19402.7 3161 19402.7 3167.07 19402.7 3172 19407.6 3172 19413.7Z" stroke="#4472C4" stroke-width="3.4375" stroke-linejoin="round" stroke-miterlimit="10" fill="#4472C4"/><path d="M3176 19515.7C3176 19521.7 3171.07 19526.7 3165 19526.7 3158.92 19526.7 3154 19521.7 3154 19515.7 3154 19509.6 3158.92 19504.7 3165 19504.7 3171.07 19504.7 3176 19509.6 3176 19515.7Z" stroke="#4472C4" stroke-width="3.4375" stroke-linejoin="round" stroke-miterlimit="10" fill="#4472C4"/><path d="M3180 19396.7C3180 19402.7 3175.07 19407.7 3169 19407.7 3162.92 19407.7 3158 19402.7 3158 19396.7 3158 19390.6 3162.92 19385.7 3169 19385.7 3175.07 19385.7 3180 19390.6 3180 19396.7Z" stroke="#4472C4" stroke-width="3.4375" stroke-linejoin="round" stroke-miterlimit="10" fill="#4472C4"/><path d="M3184 19485.7C3184 19491.7 3179.07 19496.7 3173 19496.7 3166.92 19496.7 3162 19491.7 3162 19485.7 3162 19479.6 3166.92 19474.7 3173 19474.7 3179.07 19474.7 3184 19479.6 3184 19485.7Z" stroke="#4472C4" stroke-width="3.4375" stroke-linejoin="round" stroke-miterlimit="10" fill="#4472C4"/><path d="M3188 19476.7C3188 19482.7 3183.07 19487.7 3177 19487.7 3170.92 19487.7 3166 19482.7 3166 19476.7 3166 19470.6 3170.92 19465.7 3177 19465.7 3183.07 19465.7 3188 19470.6 3188 19476.7Z" stroke="#4472C4" stroke-width="3.4375" stroke-linejoin="round" stroke-miterlimit="10" fill="#4472C4"/><path d="M3192 19408.7C3192 19414.7 3187.07 19419.7 3181 19419.7 3174.92 19419.7 3170 19414.7 3170 19408.7 3170 19402.6 3174.92 19397.7 3181 19397.7 3187.07 19397.7 3192 19402.6 3192 19408.7Z" stroke="#4472C4" stroke-width="3.4375" stroke-linejoin="round" stroke-miterlimit="10" fill="#4472C4"/><path d="M3196 19503.7C3196 19509.7 3191.07 19514.7 3185 19514.7 3178.92 19514.7 3174 19509.7 3174 19503.7 3174 19497.6 3178.92 19492.7 3185 19492.7 3191.07 19492.7 3196 19497.6 3196 19503.7Z" stroke="#4472C4" stroke-width="3.4375" stroke-linejoin="round" stroke-miterlimit="10" fill="#4472C4"/><path d="M3200 19396.7C3200 19402.7 3195.07 19407.7 3189 19407.7 3182.92 19407.7 3178 19402.7 3178 19396.7 3178 19390.6 3182.92 19385.7 3189 19385.7 3195.07 19385.7 3200 19390.6 3200 19396.7Z" stroke="#4472C4" stroke-width="3.4375" stroke-linejoin="round" stroke-miterlimit="10" fill="#4472C4"/><path d="M3205 19392.7C3205 19398.7 3200.07 19403.7 3194 19403.7 3187.92 19403.7 3183 19398.7 3183 19392.7 3183 19386.6 3187.92 19381.7 3194 19381.7 3200.07 19381.7 3205 19386.6 3205 19392.7Z" stroke="#4472C4" stroke-width="3.4375" stroke-linejoin="round" stroke-miterlimit="10" fill="#4472C4"/><path d="M3209 19475.7C3209 19481.7 3204.07 19486.7 3198 19486.7 3191.92 19486.7 3187 19481.7 3187 19475.7 3187 19469.6 3191.92 19464.7 3198 19464.7 3204.07 19464.7 3209 19469.6 3209 19475.7Z" stroke="#4472C4" stroke-width="3.4375" stroke-linejoin="round" stroke-miterlimit="10" fill="#4472C4"/><path d="M3213 19462.7C3213 19468.7 3208.07 19473.7 3202 19473.7 3195.92 19473.7 3191 19468.7 3191 19462.7 3191 19456.6 3195.92 19451.7 3202 19451.7 3208.07 19451.7 3213 19456.6 3213 19462.7Z" stroke="#4472C4" stroke-width="3.4375" stroke-linejoin="round" stroke-miterlimit="10" fill="#4472C4"/><path d="M3217 19471.7C3217 19477.7 3212.07 19482.7 3206 19482.7 3199.92 19482.7 3195 19477.7 3195 19471.7 3195 19465.6 3199.92 19460.7 3206 19460.7 3212.07 19460.7 3217 19465.6 3217 19471.7Z" stroke="#4472C4" stroke-width="3.4375" stroke-linejoin="round" stroke-miterlimit="10" fill="#4472C4"/><path d="M3221 19465.7C3221 19471.7 3216.07 19476.7 3210 19476.7 3203.92 19476.7 3199 19471.7 3199 19465.7 3199 19459.6 3203.92 19454.7 3210 19454.7 3216.07 19454.7 3221 19459.6 3221 19465.7Z" stroke="#4472C4" stroke-width="3.4375" stroke-linejoin="round" stroke-miterlimit="10" fill="#4472C4"/><path d="M3225 19433.7C3225 19439.7 3220.07 19444.7 3214 19444.7 3207.92 19444.7 3203 19439.7 3203 19433.7 3203 19427.6 3207.92 19422.7 3214 19422.7 3220.07 19422.7 3225 19427.6 3225 19433.7Z" stroke="#4472C4" stroke-width="3.4375" stroke-linejoin="round" stroke-miterlimit="10" fill="#4472C4"/><path d="M3229 19377.7C3229 19383.7 3224.07 19388.7 3218 19388.7 3211.92 19388.7 3207 19383.7 3207 19377.7 3207 19371.6 3211.92 19366.7 3218 19366.7 3224.07 19366.7 3229 19371.6 3229 19377.7Z" stroke="#4472C4" stroke-width="3.4375" stroke-linejoin="round" stroke-miterlimit="10" fill="#4472C4"/><path d="M3233 19403.7C3233 19409.7 3228.07 19414.7 3222 19414.7 3215.92 19414.7 3211 19409.7 3211 19403.7 3211 19397.6 3215.92 19392.7 3222 19392.7 3228.07 19392.7 3233 19397.6 3233 19403.7Z" stroke="#4472C4" stroke-width="3.4375" stroke-linejoin="round" stroke-miterlimit="10" fill="#4472C4"/><path d="M3237 19403.7C3237 19409.7 3232.07 19414.7 3226 19414.7 3219.92 19414.7 3215 19409.7 3215 19403.7 3215 19397.6 3219.92 19392.7 3226 19392.7 3232.07 19392.7 3237 19397.6 3237 19403.7Z" stroke="#4472C4" stroke-width="3.4375" stroke-linejoin="round" stroke-miterlimit="10" fill="#4472C4"/><path d="M3242 19473.7C3242 19479.7 3237.07 19484.7 3231 19484.7 3224.92 19484.7 3220 19479.7 3220 19473.7 3220 19467.6 3224.92 19462.7 3231 19462.7 3237.07 19462.7 3242 19467.6 3242 19473.7Z" stroke="#4472C4" stroke-width="3.4375" stroke-linejoin="round" stroke-miterlimit="10" fill="#4472C4"/><path d="M3246 19449.7C3246 19455.7 3241.07 19460.7 3235 19460.7 3228.92 19460.7 3224 19455.7 3224 19449.7 3224 19443.6 3228.92 19438.7 3235 19438.7 3241.07 19438.7 3246 19443.6 3246 19449.7Z" stroke="#4472C4" stroke-width="3.4375" stroke-linejoin="round" stroke-miterlimit="10" fill="#4472C4"/><path d="M3250 19456.7C3250 19462.7 3245.07 19467.7 3239 19467.7 3232.92 19467.7 3228 19462.7 3228 19456.7 3228 19450.6 3232.92 19445.7 3239 19445.7 3245.07 19445.7 3250 19450.6 3250 19456.7Z" stroke="#4472C4" stroke-width="3.4375" stroke-linejoin="round" stroke-miterlimit="10" fill="#4472C4"/><path d="M3254 19424.7C3254 19430.7 3249.07 19435.7 3243 19435.7 3236.92 19435.7 3232 19430.7 3232 19424.7 3232 19418.6 3236.92 19413.7 3243 19413.7 3249.07 19413.7 3254 19418.6 3254 19424.7Z" stroke="#4472C4" stroke-width="3.4375" stroke-linejoin="round" stroke-miterlimit="10" fill="#4472C4"/><path d="M3258 19470.7C3258 19476.7 3253.07 19481.7 3247 19481.7 3240.92 19481.7 3236 19476.7 3236 19470.7 3236 19464.6 3240.92 19459.7 3247 19459.7 3253.07 19459.7 3258 19464.6 3258 19470.7Z" stroke="#4472C4" stroke-width="3.4375" stroke-linejoin="round" stroke-miterlimit="10" fill="#4472C4"/><path d="M3262 19474.7C3262 19480.7 3257.07 19485.7 3251 19485.7 3244.92 19485.7 3240 19480.7 3240 19474.7 3240 19468.6 3244.92 19463.7 3251 19463.7 3257.07 19463.7 3262 19468.6 3262 19474.7Z" stroke="#4472C4" stroke-width="3.4375" stroke-linejoin="round" stroke-miterlimit="10" fill="#4472C4"/><path d="M3266 19461.7C3266 19467.7 3261.07 19472.7 3255 19472.7 3248.92 19472.7 3244 19467.7 3244 19461.7 3244 19455.6 3248.92 19450.7 3255 19450.7 3261.07 19450.7 3266 19455.6 3266 19461.7Z" stroke="#4472C4" stroke-width="3.4375" stroke-linejoin="round" stroke-miterlimit="10" fill="#4472C4"/><path d="M3270 19387.7C3270 19393.7 3265.07 19398.7 3259 19398.7 3252.92 19398.7 3248 19393.7 3248 19387.7 3248 19381.6 3252.92 19376.7 3259 19376.7 3265.07 19376.7 3270 19381.6 3270 19387.7Z" stroke="#4472C4" stroke-width="3.4375" stroke-linejoin="round" stroke-miterlimit="10" fill="#4472C4"/><path d="M3274 19481.7C3274 19487.7 3269.07 19492.7 3263 19492.7 3256.92 19492.7 3252 19487.7 3252 19481.7 3252 19475.6 3256.92 19470.7 3263 19470.7 3269.07 19470.7 3274 19475.6 3274 19481.7Z" stroke="#4472C4" stroke-width="3.4375" stroke-linejoin="round" stroke-miterlimit="10" fill="#4472C4"/><path d="M3279 19455.7C3279 19461.7 3274.07 19466.7 3268 19466.7 3261.92 19466.7 3257 19461.7 3257 19455.7 3257 19449.6 3261.92 19444.7 3268 19444.7 3274.07 19444.7 3279 19449.6 3279 19455.7Z" stroke="#4472C4" stroke-width="3.4375" stroke-linejoin="round" stroke-miterlimit="10" fill="#4472C4"/><path d="M3283 19435.7C3283 19441.7 3278.07 19446.7 3272 19446.7 3265.92 19446.7 3261 19441.7 3261 19435.7 3261 19429.6 3265.92 19424.7 3272 19424.7 3278.07 19424.7 3283 19429.6 3283 19435.7Z" stroke="#4472C4" stroke-width="3.4375" stroke-linejoin="round" stroke-miterlimit="10" fill="#4472C4"/><path d="M3287 19381.7C3287 19387.7 3282.07 19392.7 3276 19392.7 3269.92 19392.7 3265 19387.7 3265 19381.7 3265 19375.6 3269.92 19370.7 3276 19370.7 3282.07 19370.7 3287 19375.6 3287 19381.7Z" stroke="#4472C4" stroke-width="3.4375" stroke-linejoin="round" stroke-miterlimit="10" fill="#4472C4"/><path d="M3291 19461.7C3291 19467.7 3286.07 19472.7 3280 19472.7 3273.92 19472.7 3269 19467.7 3269 19461.7 3269 19455.6 3273.92 19450.7 3280 19450.7 3286.07 19450.7 3291 19455.6 3291 19461.7Z" stroke="#4472C4" stroke-width="3.4375" stroke-linejoin="round" stroke-miterlimit="10" fill="#4472C4"/><path d="M3295 19374.7C3295 19380.7 3290.07 19385.7 3284 19385.7 3277.92 19385.7 3273 19380.7 3273 19374.7 3273 19368.6 3277.92 19363.7 3284 19363.7 3290.07 19363.7 3295 19368.6 3295 19374.7Z" stroke="#4472C4" stroke-width="3.4375" stroke-linejoin="round" stroke-miterlimit="10" fill="#4472C4"/><path d="M3299 19450.7C3299 19456.7 3294.07 19461.7 3288 19461.7 3281.92 19461.7 3277 19456.7 3277 19450.7 3277 19444.6 3281.92 19439.7 3288 19439.7 3294.07 19439.7 3299 19444.6 3299 19450.7Z" stroke="#4472C4" stroke-width="3.4375" stroke-linejoin="round" stroke-miterlimit="10" fill="#4472C4"/><path d="M3303 19515.7C3303 19521.7 3298.07 19526.7 3292 19526.7 3285.92 19526.7 3281 19521.7 3281 19515.7 3281 19509.6 3285.92 19504.7 3292 19504.7 3298.07 19504.7 3303 19509.6 3303 19515.7Z" stroke="#4472C4" stroke-width="3.4375" stroke-linejoin="round" stroke-miterlimit="10" fill="#4472C4"/><path d="M3307 19504.7C3307 19510.7 3302.07 19515.7 3296 19515.7 3289.92 19515.7 3285 19510.7 3285 19504.7 3285 19498.6 3289.92 19493.7 3296 19493.7 3302.07 19493.7 3307 19498.6 3307 19504.7Z" stroke="#4472C4" stroke-width="3.4375" stroke-linejoin="round" stroke-miterlimit="10" fill="#4472C4"/><path d="M3311 19515.7C3311 19521.7 3306.07 19526.7 3300 19526.7 3293.92 19526.7 3289 19521.7 3289 19515.7 3289 19509.6 3293.92 19504.7 3300 19504.7 3306.07 19504.7 3311 19509.6 3311 19515.7Z" stroke="#4472C4" stroke-width="3.4375" stroke-linejoin="round" stroke-miterlimit="10" fill="#4472C4"/><path d="M3316 19470.7C3316 19476.7 3311.07 19481.7 3305 19481.7 3298.92 19481.7 3294 19476.7 3294 19470.7 3294 19464.6 3298.92 19459.7 3305 19459.7 3311.07 19459.7 3316 19464.6 3316 19470.7Z" stroke="#4472C4" stroke-width="3.4375" stroke-linejoin="round" stroke-miterlimit="10" fill="#4472C4"/><path d="M3320 19485.7C3320 19491.7 3315.07 19496.7 3309 19496.7 3302.92 19496.7 3298 19491.7 3298 19485.7 3298 19479.6 3302.92 19474.7 3309 19474.7 3315.07 19474.7 3320 19479.6 3320 19485.7Z" stroke="#4472C4" stroke-width="3.4375" stroke-linejoin="round" stroke-miterlimit="10" fill="#4472C4"/><path d="M3324 19472.7C3324 19478.7 3319.07 19483.7 3313 19483.7 3306.92 19483.7 3302 19478.7 3302 19472.7 3302 19466.6 3306.92 19461.7 3313 19461.7 3319.07 19461.7 3324 19466.6 3324 19472.7Z" stroke="#4472C4" stroke-width="3.4375" stroke-linejoin="round" stroke-miterlimit="10" fill="#4472C4"/><path d="M3328 19493.7C3328 19499.7 3323.07 19504.7 3317 19504.7 3310.92 19504.7 3306 19499.7 3306 19493.7 3306 19487.6 3310.92 19482.7 3317 19482.7 3323.07 19482.7 3328 19487.6 3328 19493.7Z" stroke="#4472C4" stroke-width="3.4375" stroke-linejoin="round" stroke-miterlimit="10" fill="#4472C4"/><path d="M3332 19505.7C3332 19511.7 3327.07 19516.7 3321 19516.7 3314.92 19516.7 3310 19511.7 3310 19505.7 3310 19499.6 3314.92 19494.7 3321 19494.7 3327.07 19494.7 3332 19499.6 3332 19505.7Z" stroke="#4472C4" stroke-width="3.4375" stroke-linejoin="round" stroke-miterlimit="10" fill="#4472C4"/><path d="M3336 19423.7C3336 19429.7 3331.07 19434.7 3325 19434.7 3318.92 19434.7 3314 19429.7 3314 19423.7 3314 19417.6 3318.92 19412.7 3325 19412.7 3331.07 19412.7 3336 19417.6 3336 19423.7Z" stroke="#4472C4" stroke-width="3.4375" stroke-linejoin="round" stroke-miterlimit="10" fill="#4472C4"/><path d="M3340 19460.7C3340 19466.7 3335.07 19471.7 3329 19471.7 3322.92 19471.7 3318 19466.7 3318 19460.7 3318 19454.6 3322.92 19449.7 3329 19449.7 3335.07 19449.7 3340 19454.6 3340 19460.7Z" stroke="#4472C4" stroke-width="3.4375" stroke-linejoin="round" stroke-miterlimit="10" fill="#4472C4"/><path d="M3344 19441.7C3344 19447.7 3339.07 19452.7 3333 19452.7 3326.92 19452.7 3322 19447.7 3322 19441.7 3322 19435.6 3326.92 19430.7 3333 19430.7 3339.07 19430.7 3344 19435.6 3344 19441.7Z" stroke="#4472C4" stroke-width="3.4375" stroke-linejoin="round" stroke-miterlimit="10" fill="#4472C4"/><path d="M3348 19513.7C3348 19519.7 3343.07 19524.7 3337 19524.7 3330.92 19524.7 3326 19519.7 3326 19513.7 3326 19507.6 3330.92 19502.7 3337 19502.7 3343.07 19502.7 3348 19507.6 3348 19513.7Z" stroke="#4472C4" stroke-width="3.4375" stroke-linejoin="round" stroke-miterlimit="10" fill="#4472C4"/><path d="M3353 19405.7C3353 19411.7 3348.07 19416.7 3342 19416.7 3335.92 19416.7 3331 19411.7 3331 19405.7 3331 19399.6 3335.92 19394.7 3342 19394.7 3348.07 19394.7 3353 19399.6 3353 19405.7Z" stroke="#4472C4" stroke-width="3.4375" stroke-linejoin="round" stroke-miterlimit="10" fill="#4472C4"/><path d="M3357 19485.7C3357 19491.7 3352.07 19496.7 3346 19496.7 3339.92 19496.7 3335 19491.7 3335 19485.7 3335 19479.6 3339.92 19474.7 3346 19474.7 3352.07 19474.7 3357 19479.6 3357 19485.7Z" stroke="#4472C4" stroke-width="3.4375" stroke-linejoin="round" stroke-miterlimit="10" fill="#4472C4"/><path d="M3361 19360.7C3361 19366.7 3356.07 19371.7 3350 19371.7 3343.92 19371.7 3339 19366.7 3339 19360.7 3339 19354.6 3343.92 19349.7 3350 19349.7 3356.07 19349.7 3361 19354.6 3361 19360.7Z" stroke="#4472C4" stroke-width="3.4375" stroke-linejoin="round" stroke-miterlimit="10" fill="#4472C4"/><path d="M3365 19529.7C3365 19535.7 3360.07 19540.7 3354 19540.7 3347.92 19540.7 3343 19535.7 3343 19529.7 3343 19523.6 3347.92 19518.7 3354 19518.7 3360.07 19518.7 3365 19523.6 3365 19529.7Z" stroke="#4472C4" stroke-width="3.4375" stroke-linejoin="round" stroke-miterlimit="10" fill="#4472C4"/><path d="M3369 19441.7C3369 19447.7 3364.07 19452.7 3358 19452.7 3351.92 19452.7 3347 19447.7 3347 19441.7 3347 19435.6 3351.92 19430.7 3358 19430.7 3364.07 19430.7 3369 19435.6 3369 19441.7Z" stroke="#4472C4" stroke-width="3.4375" stroke-linejoin="round" stroke-miterlimit="10" fill="#4472C4"/><path d="M3373 19547.7C3373 19553.7 3368.07 19558.7 3362 19558.7 3355.92 19558.7 3351 19553.7 3351 19547.7 3351 19541.6 3355.92 19536.7 3362 19536.7 3368.07 19536.7 3373 19541.6 3373 19547.7Z" stroke="#4472C4" stroke-width="3.4375" stroke-linejoin="round" stroke-miterlimit="10" fill="#4472C4"/><path d="M3377 19398.7C3377 19404.7 3372.07 19409.7 3366 19409.7 3359.92 19409.7 3355 19404.7 3355 19398.7 3355 19392.6 3359.92 19387.7 3366 19387.7 3372.07 19387.7 3377 19392.6 3377 19398.7Z" stroke="#4472C4" stroke-width="3.4375" stroke-linejoin="round" stroke-miterlimit="10" fill="#4472C4"/><path d="M3381 19476.7C3381 19482.7 3376.07 19487.7 3370 19487.7 3363.92 19487.7 3359 19482.7 3359 19476.7 3359 19470.6 3363.92 19465.7 3370 19465.7 3376.07 19465.7 3381 19470.6 3381 19476.7Z" stroke="#4472C4" stroke-width="3.4375" stroke-linejoin="round" stroke-miterlimit="10" fill="#4472C4"/><path d="M3385 19494.7C3385 19500.7 3380.07 19505.7 3374 19505.7 3367.92 19505.7 3363 19500.7 3363 19494.7 3363 19488.6 3367.92 19483.7 3374 19483.7 3380.07 19483.7 3385 19488.6 3385 19494.7Z" stroke="#4472C4" stroke-width="3.4375" stroke-linejoin="round" stroke-miterlimit="10" fill="#4472C4"/><path d="M3390 19488.7C3390 19494.7 3385.07 19499.7 3379 19499.7 3372.92 19499.7 3368 19494.7 3368 19488.7 3368 19482.6 3372.92 19477.7 3379 19477.7 3385.07 19477.7 3390 19482.6 3390 19488.7Z" stroke="#4472C4" stroke-width="3.4375" stroke-linejoin="round" stroke-miterlimit="10" fill="#4472C4"/><path d="M3394 19485.7C3394 19491.7 3389.07 19496.7 3383 19496.7 3376.92 19496.7 3372 19491.7 3372 19485.7 3372 19479.6 3376.92 19474.7 3383 19474.7 3389.07 19474.7 3394 19479.6 3394 19485.7Z" stroke="#4472C4" stroke-width="3.4375" stroke-linejoin="round" stroke-miterlimit="10" fill="#4472C4"/><path d="M3398 19474.7C3398 19480.7 3393.07 19485.7 3387 19485.7 3380.92 19485.7 3376 19480.7 3376 19474.7 3376 19468.6 3380.92 19463.7 3387 19463.7 3393.07 19463.7 3398 19468.6 3398 19474.7Z" stroke="#4472C4" stroke-width="3.4375" stroke-linejoin="round" stroke-miterlimit="10" fill="#4472C4"/><path d="M3402 19467.7C3402 19473.7 3397.07 19478.7 3391 19478.7 3384.92 19478.7 3380 19473.7 3380 19467.7 3380 19461.6 3384.92 19456.7 3391 19456.7 3397.07 19456.7 3402 19461.6 3402 19467.7Z" stroke="#4472C4" stroke-width="3.4375" stroke-linejoin="round" stroke-miterlimit="10" fill="#4472C4"/><path d="M3406 19465.7C3406 19471.7 3401.07 19476.7 3395 19476.7 3388.92 19476.7 3384 19471.7 3384 19465.7 3384 19459.6 3388.92 19454.7 3395 19454.7 3401.07 19454.7 3406 19459.6 3406 19465.7Z" stroke="#4472C4" stroke-width="3.4375" stroke-linejoin="round" stroke-miterlimit="10" fill="#4472C4"/><path d="M3410 19463.7C3410 19469.7 3405.07 19474.7 3399 19474.7 3392.92 19474.7 3388 19469.7 3388 19463.7 3388 19457.6 3392.92 19452.7 3399 19452.7 3405.07 19452.7 3410 19457.6 3410 19463.7Z" stroke="#4472C4" stroke-width="3.4375" stroke-linejoin="round" stroke-miterlimit="10" fill="#4472C4"/><path d="M3414 19463.7C3414 19469.7 3409.07 19474.7 3403 19474.7 3396.92 19474.7 3392 19469.7 3392 19463.7 3392 19457.6 3396.92 19452.7 3403 19452.7 3409.07 19452.7 3414 19457.6 3414 19463.7Z" stroke="#4472C4" stroke-width="3.4375" stroke-linejoin="round" stroke-miterlimit="10" fill="#4472C4"/><path d="M3418 19415.7C3418 19421.7 3413.07 19426.7 3407 19426.7 3400.92 19426.7 3396 19421.7 3396 19415.7 3396 19409.6 3400.92 19404.7 3407 19404.7 3413.07 19404.7 3418 19409.6 3418 19415.7Z" stroke="#4472C4" stroke-width="3.4375" stroke-linejoin="round" stroke-miterlimit="10" fill="#4472C4"/><path d="M3422 19411.7C3422 19417.7 3417.07 19422.7 3411 19422.7 3404.92 19422.7 3400 19417.7 3400 19411.7 3400 19405.6 3404.92 19400.7 3411 19400.7 3417.07 19400.7 3422 19405.6 3422 19411.7Z" stroke="#4472C4" stroke-width="3.4375" stroke-linejoin="round" stroke-miterlimit="10" fill="#4472C4"/><path d="M3427 19460.7C3427 19466.7 3422.07 19471.7 3416 19471.7 3409.92 19471.7 3405 19466.7 3405 19460.7 3405 19454.6 3409.92 19449.7 3416 19449.7 3422.07 19449.7 3427 19454.6 3427 19460.7Z" stroke="#4472C4" stroke-width="3.4375" stroke-linejoin="round" stroke-miterlimit="10" fill="#4472C4"/><path d="M3431 19465.7C3431 19471.7 3426.07 19476.7 3420 19476.7 3413.92 19476.7 3409 19471.7 3409 19465.7 3409 19459.6 3413.92 19454.7 3420 19454.7 3426.07 19454.7 3431 19459.6 3431 19465.7Z" stroke="#4472C4" stroke-width="3.4375" stroke-linejoin="round" stroke-miterlimit="10" fill="#4472C4"/><path d="M3435 19445.7C3435 19451.7 3430.07 19456.7 3424 19456.7 3417.92 19456.7 3413 19451.7 3413 19445.7 3413 19439.6 3417.92 19434.7 3424 19434.7 3430.07 19434.7 3435 19439.6 3435 19445.7Z" stroke="#4472C4" stroke-width="3.4375" stroke-linejoin="round" stroke-miterlimit="10" fill="#4472C4"/><path d="M3439 19463.7C3439 19469.7 3434.07 19474.7 3428 19474.7 3421.92 19474.7 3417 19469.7 3417 19463.7 3417 19457.6 3421.92 19452.7 3428 19452.7 3434.07 19452.7 3439 19457.6 3439 19463.7Z" stroke="#4472C4" stroke-width="3.4375" stroke-linejoin="round" stroke-miterlimit="10" fill="#4472C4"/><path d="M3443 19458.7C3443 19464.7 3438.07 19469.7 3432 19469.7 3425.92 19469.7 3421 19464.7 3421 19458.7 3421 19452.6 3425.92 19447.7 3432 19447.7 3438.07 19447.7 3443 19452.6 3443 19458.7Z" stroke="#4472C4" stroke-width="3.4375" stroke-linejoin="round" stroke-miterlimit="10" fill="#4472C4"/><path d="M3447 19438.7C3447 19444.7 3442.07 19449.7 3436 19449.7 3429.92 19449.7 3425 19444.7 3425 19438.7 3425 19432.6 3429.92 19427.7 3436 19427.7 3442.07 19427.7 3447 19432.6 3447 19438.7Z" stroke="#4472C4" stroke-width="3.4375" stroke-linejoin="round" stroke-miterlimit="10" fill="#4472C4"/><path d="M3451 19422.7C3451 19428.7 3446.07 19433.7 3440 19433.7 3433.92 19433.7 3429 19428.7 3429 19422.7 3429 19416.6 3433.92 19411.7 3440 19411.7 3446.07 19411.7 3451 19416.6 3451 19422.7Z" stroke="#4472C4" stroke-width="3.4375" stroke-linejoin="round" stroke-miterlimit="10" fill="#4472C4"/><path d="M3455 19539.7C3455 19545.7 3450.07 19550.7 3444 19550.7 3437.92 19550.7 3433 19545.7 3433 19539.7 3433 19533.6 3437.92 19528.7 3444 19528.7 3450.07 19528.7 3455 19533.6 3455 19539.7Z" stroke="#4472C4" stroke-width="3.4375" stroke-linejoin="round" stroke-miterlimit="10" fill="#4472C4"/><path d="M3459 19378.7C3459 19384.7 3454.07 19389.7 3448 19389.7 3441.92 19389.7 3437 19384.7 3437 19378.7 3437 19372.6 3441.92 19367.7 3448 19367.7 3454.07 19367.7 3459 19372.6 3459 19378.7Z" stroke="#4472C4" stroke-width="3.4375" stroke-linejoin="round" stroke-miterlimit="10" fill="#4472C4"/><path d="M3464 19415.7C3464 19421.7 3459.07 19426.7 3453 19426.7 3446.92 19426.7 3442 19421.7 3442 19415.7 3442 19409.6 3446.92 19404.7 3453 19404.7 3459.07 19404.7 3464 19409.6 3464 19415.7Z" stroke="#4472C4" stroke-width="3.4375" stroke-linejoin="round" stroke-miterlimit="10" fill="#4472C4"/><path d="M3468 19473.7C3468 19479.7 3463.07 19484.7 3457 19484.7 3450.92 19484.7 3446 19479.7 3446 19473.7 3446 19467.6 3450.92 19462.7 3457 19462.7 3463.07 19462.7 3468 19467.6 3468 19473.7Z" stroke="#4472C4" stroke-width="3.4375" stroke-linejoin="round" stroke-miterlimit="10" fill="#4472C4"/><path d="M3472 19497.7C3472 19503.7 3467.07 19508.7 3461 19508.7 3454.92 19508.7 3450 19503.7 3450 19497.7 3450 19491.6 3454.92 19486.7 3461 19486.7 3467.07 19486.7 3472 19491.6 3472 19497.7Z" stroke="#4472C4" stroke-width="3.4375" stroke-linejoin="round" stroke-miterlimit="10" fill="#4472C4"/><path d="M3476 19444.7C3476 19450.7 3471.07 19455.7 3465 19455.7 3458.92 19455.7 3454 19450.7 3454 19444.7 3454 19438.6 3458.92 19433.7 3465 19433.7 3471.07 19433.7 3476 19438.6 3476 19444.7Z" stroke="#4472C4" stroke-width="3.4375" stroke-linejoin="round" stroke-miterlimit="10" fill="#4472C4"/><path d="M3480 19488.7C3480 19494.7 3475.07 19499.7 3469 19499.7 3462.92 19499.7 3458 19494.7 3458 19488.7 3458 19482.6 3462.92 19477.7 3469 19477.7 3475.07 19477.7 3480 19482.6 3480 19488.7Z" stroke="#4472C4" stroke-width="3.4375" stroke-linejoin="round" stroke-miterlimit="10" fill="#4472C4"/><path d="M3484 19410.7C3484 19416.7 3479.07 19421.7 3473 19421.7 3466.92 19421.7 3462 19416.7 3462 19410.7 3462 19404.6 3466.92 19399.7 3473 19399.7 3479.07 19399.7 3484 19404.6 3484 19410.7Z" stroke="#4472C4" stroke-width="3.4375" stroke-linejoin="round" stroke-miterlimit="10" fill="#4472C4"/><path d="M3488 19485.7C3488 19491.7 3483.07 19496.7 3477 19496.7 3470.92 19496.7 3466 19491.7 3466 19485.7 3466 19479.6 3470.92 19474.7 3477 19474.7 3483.07 19474.7 3488 19479.6 3488 19485.7Z" stroke="#4472C4" stroke-width="3.4375" stroke-linejoin="round" stroke-miterlimit="10" fill="#4472C4"/><path d="M3492 19483.7C3492 19489.7 3487.07 19494.7 3481 19494.7 3474.92 19494.7 3470 19489.7 3470 19483.7 3470 19477.6 3474.92 19472.7 3481 19472.7 3487.07 19472.7 3492 19477.6 3492 19483.7Z" stroke="#4472C4" stroke-width="3.4375" stroke-linejoin="round" stroke-miterlimit="10" fill="#4472C4"/><path d="M3496 19495.7C3496 19501.7 3491.07 19506.7 3485 19506.7 3478.92 19506.7 3474 19501.7 3474 19495.7 3474 19489.6 3478.92 19484.7 3485 19484.7 3491.07 19484.7 3496 19489.6 3496 19495.7Z" stroke="#4472C4" stroke-width="3.4375" stroke-linejoin="round" stroke-miterlimit="10" fill="#4472C4"/><path d="M3501 19393.7C3501 19399.7 3496.07 19404.7 3490 19404.7 3483.92 19404.7 3479 19399.7 3479 19393.7 3479 19387.6 3483.92 19382.7 3490 19382.7 3496.07 19382.7 3501 19387.6 3501 19393.7Z" stroke="#4472C4" stroke-width="3.4375" stroke-linejoin="round" stroke-miterlimit="10" fill="#4472C4"/><path d="M3505 19523.7C3505 19529.7 3500.07 19534.7 3494 19534.7 3487.92 19534.7 3483 19529.7 3483 19523.7 3483 19517.6 3487.92 19512.7 3494 19512.7 3500.07 19512.7 3505 19517.6 3505 19523.7Z" stroke="#4472C4" stroke-width="3.4375" stroke-linejoin="round" stroke-miterlimit="10" fill="#4472C4"/><path d="M3509 19410.7C3509 19416.7 3504.07 19421.7 3498 19421.7 3491.92 19421.7 3487 19416.7 3487 19410.7 3487 19404.6 3491.92 19399.7 3498 19399.7 3504.07 19399.7 3509 19404.6 3509 19410.7Z" stroke="#4472C4" stroke-width="3.4375" stroke-linejoin="round" stroke-miterlimit="10" fill="#4472C4"/><path d="M3513 19459.7C3513 19465.7 3508.07 19470.7 3502 19470.7 3495.92 19470.7 3491 19465.7 3491 19459.7 3491 19453.6 3495.92 19448.7 3502 19448.7 3508.07 19448.7 3513 19453.6 3513 19459.7Z" stroke="#4472C4" stroke-width="3.4375" stroke-linejoin="round" stroke-miterlimit="10" fill="#4472C4"/><path d="M3517 19515.7C3517 19521.7 3512.07 19526.7 3506 19526.7 3499.92 19526.7 3495 19521.7 3495 19515.7 3495 19509.6 3499.92 19504.7 3506 19504.7 3512.07 19504.7 3517 19509.6 3517 19515.7Z" stroke="#4472C4" stroke-width="3.4375" stroke-linejoin="round" stroke-miterlimit="10" fill="#4472C4"/><path d="M3521 19452.7C3521 19458.7 3516.07 19463.7 3510 19463.7 3503.92 19463.7 3499 19458.7 3499 19452.7 3499 19446.6 3503.92 19441.7 3510 19441.7 3516.07 19441.7 3521 19446.6 3521 19452.7Z" stroke="#4472C4" stroke-width="3.4375" stroke-linejoin="round" stroke-miterlimit="10" fill="#4472C4"/><path d="M3525 19544.7C3525 19550.7 3520.07 19555.7 3514 19555.7 3507.92 19555.7 3503 19550.7 3503 19544.7 3503 19538.6 3507.92 19533.7 3514 19533.7 3520.07 19533.7 3525 19538.6 3525 19544.7Z" stroke="#4472C4" stroke-width="3.4375" stroke-linejoin="round" stroke-miterlimit="10" fill="#4472C4"/><path d="M3529 19423.7C3529 19429.7 3524.07 19434.7 3518 19434.7 3511.92 19434.7 3507 19429.7 3507 19423.7 3507 19417.6 3511.92 19412.7 3518 19412.7 3524.07 19412.7 3529 19417.6 3529 19423.7Z" stroke="#4472C4" stroke-width="3.4375" stroke-linejoin="round" stroke-miterlimit="10" fill="#4472C4"/><path d="M3533 19456.7C3533 19462.7 3528.07 19467.7 3522 19467.7 3515.92 19467.7 3511 19462.7 3511 19456.7 3511 19450.6 3515.92 19445.7 3522 19445.7 3528.07 19445.7 3533 19450.6 3533 19456.7Z" stroke="#4472C4" stroke-width="3.4375" stroke-linejoin="round" stroke-miterlimit="10" fill="#4472C4"/><path d="M3538 19423.7C3538 19429.7 3533.07 19434.7 3527 19434.7 3520.92 19434.7 3516 19429.7 3516 19423.7 3516 19417.6 3520.92 19412.7 3527 19412.7 3533.07 19412.7 3538 19417.6 3538 19423.7Z" stroke="#4472C4" stroke-width="3.4375" stroke-linejoin="round" stroke-miterlimit="10" fill="#4472C4"/><path d="M3542 19384.7C3542 19390.7 3537.07 19395.7 3531 19395.7 3524.92 19395.7 3520 19390.7 3520 19384.7 3520 19378.6 3524.92 19373.7 3531 19373.7 3537.07 19373.7 3542 19378.6 3542 19384.7Z" stroke="#4472C4" stroke-width="3.4375" stroke-linejoin="round" stroke-miterlimit="10" fill="#4472C4"/><path d="M3546 19388.7C3546 19394.7 3541.07 19399.7 3535 19399.7 3528.92 19399.7 3524 19394.7 3524 19388.7 3524 19382.6 3528.92 19377.7 3535 19377.7 3541.07 19377.7 3546 19382.6 3546 19388.7Z" stroke="#4472C4" stroke-width="3.4375" stroke-linejoin="round" stroke-miterlimit="10" fill="#4472C4"/><path d="M3550 19450.7C3550 19456.7 3545.07 19461.7 3539 19461.7 3532.92 19461.7 3528 19456.7 3528 19450.7 3528 19444.6 3532.92 19439.7 3539 19439.7 3545.07 19439.7 3550 19444.6 3550 19450.7Z" stroke="#4472C4" stroke-width="3.4375" stroke-linejoin="round" stroke-miterlimit="10" fill="#4472C4"/><path d="M3554 19474.7C3554 19480.7 3549.07 19485.7 3543 19485.7 3536.92 19485.7 3532 19480.7 3532 19474.7 3532 19468.6 3536.92 19463.7 3543 19463.7 3549.07 19463.7 3554 19468.6 3554 19474.7Z" stroke="#4472C4" stroke-width="3.4375" stroke-linejoin="round" stroke-miterlimit="10" fill="#4472C4"/><path d="M3558 19503.7C3558 19509.7 3553.07 19514.7 3547 19514.7 3540.92 19514.7 3536 19509.7 3536 19503.7 3536 19497.6 3540.92 19492.7 3547 19492.7 3553.07 19492.7 3558 19497.6 3558 19503.7Z" stroke="#4472C4" stroke-width="3.4375" stroke-linejoin="round" stroke-miterlimit="10" fill="#4472C4"/><path d="M3562 19494.7C3562 19500.7 3557.07 19505.7 3551 19505.7 3544.92 19505.7 3540 19500.7 3540 19494.7 3540 19488.6 3544.92 19483.7 3551 19483.7 3557.07 19483.7 3562 19488.6 3562 19494.7Z" stroke="#4472C4" stroke-width="3.4375" stroke-linejoin="round" stroke-miterlimit="10" fill="#4472C4"/><path d="M3566 19481.7C3566 19487.7 3561.07 19492.7 3555 19492.7 3548.92 19492.7 3544 19487.7 3544 19481.7 3544 19475.6 3548.92 19470.7 3555 19470.7 3561.07 19470.7 3566 19475.6 3566 19481.7Z" stroke="#4472C4" stroke-width="3.4375" stroke-linejoin="round" stroke-miterlimit="10" fill="#4472C4"/><path d="M3570 19474.7C3570 19480.7 3565.07 19485.7 3559 19485.7 3552.92 19485.7 3548 19480.7 3548 19474.7 3548 19468.6 3552.92 19463.7 3559 19463.7 3565.07 19463.7 3570 19468.6 3570 19474.7Z" stroke="#4472C4" stroke-width="3.4375" stroke-linejoin="round" stroke-miterlimit="10" fill="#4472C4"/><path d="M3575 19480.7C3575 19486.7 3570.07 19491.7 3564 19491.7 3557.92 19491.7 3553 19486.7 3553 19480.7 3553 19474.6 3557.92 19469.7 3564 19469.7 3570.07 19469.7 3575 19474.6 3575 19480.7Z" stroke="#4472C4" stroke-width="3.4375" stroke-linejoin="round" stroke-miterlimit="10" fill="#4472C4"/><path d="M3579 19466.7C3579 19472.7 3574.07 19477.7 3568 19477.7 3561.92 19477.7 3557 19472.7 3557 19466.7 3557 19460.6 3561.92 19455.7 3568 19455.7 3574.07 19455.7 3579 19460.6 3579 19466.7Z" stroke="#4472C4" stroke-width="3.4375" stroke-linejoin="round" stroke-miterlimit="10" fill="#4472C4"/><path d="M3583 19345.7C3583 19351.7 3578.07 19356.7 3572 19356.7 3565.92 19356.7 3561 19351.7 3561 19345.7 3561 19339.6 3565.92 19334.7 3572 19334.7 3578.07 19334.7 3583 19339.6 3583 19345.7Z" stroke="#4472C4" stroke-width="3.4375" stroke-linejoin="round" stroke-miterlimit="10" fill="#4472C4"/><path d="M3587 19500.7C3587 19506.7 3582.07 19511.7 3576 19511.7 3569.92 19511.7 3565 19506.7 3565 19500.7 3565 19494.6 3569.92 19489.7 3576 19489.7 3582.07 19489.7 3587 19494.6 3587 19500.7Z" stroke="#4472C4" stroke-width="3.4375" stroke-linejoin="round" stroke-miterlimit="10" fill="#4472C4"/><path d="M3591 19477.7C3591 19483.7 3586.07 19488.7 3580 19488.7 3573.92 19488.7 3569 19483.7 3569 19477.7 3569 19471.6 3573.92 19466.7 3580 19466.7 3586.07 19466.7 3591 19471.6 3591 19477.7Z" stroke="#4472C4" stroke-width="3.4375" stroke-linejoin="round" stroke-miterlimit="10" fill="#4472C4"/><path d="M3595 19504.7C3595 19510.7 3590.07 19515.7 3584 19515.7 3577.92 19515.7 3573 19510.7 3573 19504.7 3573 19498.6 3577.92 19493.7 3584 19493.7 3590.07 19493.7 3595 19498.6 3595 19504.7Z" stroke="#4472C4" stroke-width="3.4375" stroke-linejoin="round" stroke-miterlimit="10" fill="#4472C4"/><path d="M3599 19434.7C3599 19440.7 3594.07 19445.7 3588 19445.7 3581.92 19445.7 3577 19440.7 3577 19434.7 3577 19428.6 3581.92 19423.7 3588 19423.7 3594.07 19423.7 3599 19428.6 3599 19434.7Z" stroke="#4472C4" stroke-width="3.4375" stroke-linejoin="round" stroke-miterlimit="10" fill="#4472C4"/><path d="M3603 19434.7C3603 19440.7 3598.07 19445.7 3592 19445.7 3585.92 19445.7 3581 19440.7 3581 19434.7 3581 19428.6 3585.92 19423.7 3592 19423.7 3598.07 19423.7 3603 19428.6 3603 19434.7Z" stroke="#4472C4" stroke-width="3.4375" stroke-linejoin="round" stroke-miterlimit="10" fill="#4472C4"/><path d="M3607 19511.7C3607 19517.7 3602.07 19522.7 3596 19522.7 3589.92 19522.7 3585 19517.7 3585 19511.7 3585 19505.6 3589.92 19500.7 3596 19500.7 3602.07 19500.7 3607 19505.6 3607 19511.7Z" stroke="#4472C4" stroke-width="3.4375" stroke-linejoin="round" stroke-miterlimit="10" fill="#4472C4"/><path d="M3612 19502.7C3612 19508.7 3607.07 19513.7 3601 19513.7 3594.92 19513.7 3590 19508.7 3590 19502.7 3590 19496.6 3594.92 19491.7 3601 19491.7 3607.07 19491.7 3612 19496.6 3612 19502.7Z" stroke="#4472C4" stroke-width="3.4375" stroke-linejoin="round" stroke-miterlimit="10" fill="#4472C4"/><path d="M3616 19402.7C3616 19408.7 3611.07 19413.7 3605 19413.7 3598.92 19413.7 3594 19408.7 3594 19402.7 3594 19396.6 3598.92 19391.7 3605 19391.7 3611.07 19391.7 3616 19396.6 3616 19402.7Z" stroke="#4472C4" stroke-width="3.4375" stroke-linejoin="round" stroke-miterlimit="10" fill="#4472C4"/><path d="M3620 19468.7C3620 19474.7 3615.07 19479.7 3609 19479.7 3602.92 19479.7 3598 19474.7 3598 19468.7 3598 19462.6 3602.92 19457.7 3609 19457.7 3615.07 19457.7 3620 19462.6 3620 19468.7Z" stroke="#4472C4" stroke-width="3.4375" stroke-linejoin="round" stroke-miterlimit="10" fill="#4472C4"/><path d="M3624 19437.7C3624 19443.7 3619.07 19448.7 3613 19448.7 3606.92 19448.7 3602 19443.7 3602 19437.7 3602 19431.6 3606.92 19426.7 3613 19426.7 3619.07 19426.7 3624 19431.6 3624 19437.7Z" stroke="#4472C4" stroke-width="3.4375" stroke-linejoin="round" stroke-miterlimit="10" fill="#4472C4"/><path d="M3628 19415.7C3628 19421.7 3623.07 19426.7 3617 19426.7 3610.92 19426.7 3606 19421.7 3606 19415.7 3606 19409.6 3610.92 19404.7 3617 19404.7 3623.07 19404.7 3628 19409.6 3628 19415.7Z" stroke="#4472C4" stroke-width="3.4375" stroke-linejoin="round" stroke-miterlimit="10" fill="#4472C4"/><path d="M3632 19473.7C3632 19479.7 3627.07 19484.7 3621 19484.7 3614.92 19484.7 3610 19479.7 3610 19473.7 3610 19467.6 3614.92 19462.7 3621 19462.7 3627.07 19462.7 3632 19467.6 3632 19473.7Z" stroke="#4472C4" stroke-width="3.4375" stroke-linejoin="round" stroke-miterlimit="10" fill="#4472C4"/><path d="M3636 19473.7C3636 19479.7 3631.07 19484.7 3625 19484.7 3618.92 19484.7 3614 19479.7 3614 19473.7 3614 19467.6 3618.92 19462.7 3625 19462.7 3631.07 19462.7 3636 19467.6 3636 19473.7Z" stroke="#4472C4" stroke-width="3.4375" stroke-linejoin="round" stroke-miterlimit="10" fill="#4472C4"/><path d="M3640 19374.7C3640 19380.7 3635.07 19385.7 3629 19385.7 3622.92 19385.7 3618 19380.7 3618 19374.7 3618 19368.6 3622.92 19363.7 3629 19363.7 3635.07 19363.7 3640 19368.6 3640 19374.7Z" stroke="#4472C4" stroke-width="3.4375" stroke-linejoin="round" stroke-miterlimit="10" fill="#4472C4"/><path d="M3644 19412.7C3644 19418.7 3639.07 19423.7 3633 19423.7 3626.92 19423.7 3622 19418.7 3622 19412.7 3622 19406.6 3626.92 19401.7 3633 19401.7 3639.07 19401.7 3644 19406.6 3644 19412.7Z" stroke="#4472C4" stroke-width="3.4375" stroke-linejoin="round" stroke-miterlimit="10" fill="#4472C4"/><path d="M3649 19481.7C3649 19487.7 3644.07 19492.7 3638 19492.7 3631.92 19492.7 3627 19487.7 3627 19481.7 3627 19475.6 3631.92 19470.7 3638 19470.7 3644.07 19470.7 3649 19475.6 3649 19481.7Z" stroke="#4472C4" stroke-width="3.4375" stroke-linejoin="round" stroke-miterlimit="10" fill="#4472C4"/><path d="M3653 19464.7C3653 19470.7 3648.07 19475.7 3642 19475.7 3635.92 19475.7 3631 19470.7 3631 19464.7 3631 19458.6 3635.92 19453.7 3642 19453.7 3648.07 19453.7 3653 19458.6 3653 19464.7Z" stroke="#4472C4" stroke-width="3.4375" stroke-linejoin="round" stroke-miterlimit="10" fill="#4472C4"/><path d="M3657 19487.7C3657 19493.7 3652.07 19498.7 3646 19498.7 3639.92 19498.7 3635 19493.7 3635 19487.7 3635 19481.6 3639.92 19476.7 3646 19476.7 3652.07 19476.7 3657 19481.6 3657 19487.7Z" stroke="#4472C4" stroke-width="3.4375" stroke-linejoin="round" stroke-miterlimit="10" fill="#4472C4"/><path d="M3661 19487.7C3661 19493.7 3656.07 19498.7 3650 19498.7 3643.92 19498.7 3639 19493.7 3639 19487.7 3639 19481.6 3643.92 19476.7 3650 19476.7 3656.07 19476.7 3661 19481.6 3661 19487.7Z" stroke="#4472C4" stroke-width="3.4375" stroke-linejoin="round" stroke-miterlimit="10" fill="#4472C4"/><path d="M3665 19454.7C3665 19460.7 3660.07 19465.7 3654 19465.7 3647.92 19465.7 3643 19460.7 3643 19454.7 3643 19448.6 3647.92 19443.7 3654 19443.7 3660.07 19443.7 3665 19448.6 3665 19454.7Z" stroke="#4472C4" stroke-width="3.4375" stroke-linejoin="round" stroke-miterlimit="10" fill="#4472C4"/><path d="M3669 19534.7C3669 19540.7 3664.07 19545.7 3658 19545.7 3651.92 19545.7 3647 19540.7 3647 19534.7 3647 19528.6 3651.92 19523.7 3658 19523.7 3664.07 19523.7 3669 19528.6 3669 19534.7Z" stroke="#4472C4" stroke-width="3.4375" stroke-linejoin="round" stroke-miterlimit="10" fill="#4472C4"/><path d="M3673 19450.7C3673 19456.7 3668.07 19461.7 3662 19461.7 3655.92 19461.7 3651 19456.7 3651 19450.7 3651 19444.6 3655.92 19439.7 3662 19439.7 3668.07 19439.7 3673 19444.6 3673 19450.7Z" stroke="#4472C4" stroke-width="3.4375" stroke-linejoin="round" stroke-miterlimit="10" fill="#4472C4"/><path d="M3677 19443.7C3677 19449.7 3672.07 19454.7 3666 19454.7 3659.92 19454.7 3655 19449.7 3655 19443.7 3655 19437.6 3659.92 19432.7 3666 19432.7 3672.07 19432.7 3677 19437.6 3677 19443.7Z" stroke="#4472C4" stroke-width="3.4375" stroke-linejoin="round" stroke-miterlimit="10" fill="#4472C4"/><path d="M3681 19385.7C3681 19391.7 3676.07 19396.7 3670 19396.7 3663.92 19396.7 3659 19391.7 3659 19385.7 3659 19379.6 3663.92 19374.7 3670 19374.7 3676.07 19374.7 3681 19379.6 3681 19385.7Z" stroke="#4472C4" stroke-width="3.4375" stroke-linejoin="round" stroke-miterlimit="10" fill="#4472C4"/><path d="M3686 19393.7C3686 19399.7 3681.07 19404.7 3675 19404.7 3668.92 19404.7 3664 19399.7 3664 19393.7 3664 19387.6 3668.92 19382.7 3675 19382.7 3681.07 19382.7 3686 19387.6 3686 19393.7Z" stroke="#4472C4" stroke-width="3.4375" stroke-linejoin="round" stroke-miterlimit="10" fill="#4472C4"/><path d="M3690 19524.7C3690 19530.7 3685.07 19535.7 3679 19535.7 3672.92 19535.7 3668 19530.7 3668 19524.7 3668 19518.6 3672.92 19513.7 3679 19513.7 3685.07 19513.7 3690 19518.6 3690 19524.7Z" stroke="#4472C4" stroke-width="3.4375" stroke-linejoin="round" stroke-miterlimit="10" fill="#4472C4"/><path d="M3694 19393.7C3694 19399.7 3689.07 19404.7 3683 19404.7 3676.92 19404.7 3672 19399.7 3672 19393.7 3672 19387.6 3676.92 19382.7 3683 19382.7 3689.07 19382.7 3694 19387.6 3694 19393.7Z" stroke="#4472C4" stroke-width="3.4375" stroke-linejoin="round" stroke-miterlimit="10" fill="#4472C4"/><path d="M3698 19488.7C3698 19494.7 3693.07 19499.7 3687 19499.7 3680.92 19499.7 3676 19494.7 3676 19488.7 3676 19482.6 3680.92 19477.7 3687 19477.7 3693.07 19477.7 3698 19482.6 3698 19488.7Z" stroke="#4472C4" stroke-width="3.4375" stroke-linejoin="round" stroke-miterlimit="10" fill="#4472C4"/><path d="M3702 19456.7C3702 19462.7 3697.07 19467.7 3691 19467.7 3684.92 19467.7 3680 19462.7 3680 19456.7 3680 19450.6 3684.92 19445.7 3691 19445.7 3697.07 19445.7 3702 19450.6 3702 19456.7Z" stroke="#4472C4" stroke-width="3.4375" stroke-linejoin="round" stroke-miterlimit="10" fill="#4472C4"/><path d="M3706 19516.7C3706 19522.7 3701.07 19527.7 3695 19527.7 3688.92 19527.7 3684 19522.7 3684 19516.7 3684 19510.6 3688.92 19505.7 3695 19505.7 3701.07 19505.7 3706 19510.6 3706 19516.7Z" stroke="#4472C4" stroke-width="3.4375" stroke-linejoin="round" stroke-miterlimit="10" fill="#4472C4"/><path d="M3710 19470.7C3710 19476.7 3705.07 19481.7 3699 19481.7 3692.92 19481.7 3688 19476.7 3688 19470.7 3688 19464.6 3692.92 19459.7 3699 19459.7 3705.07 19459.7 3710 19464.6 3710 19470.7Z" stroke="#4472C4" stroke-width="3.4375" stroke-linejoin="round" stroke-miterlimit="10" fill="#4472C4"/><path d="M3714 19483.7C3714 19489.7 3709.07 19494.7 3703 19494.7 3696.92 19494.7 3692 19489.7 3692 19483.7 3692 19477.6 3696.92 19472.7 3703 19472.7 3709.07 19472.7 3714 19477.6 3714 19483.7Z" stroke="#4472C4" stroke-width="3.4375" stroke-linejoin="round" stroke-miterlimit="10" fill="#4472C4"/><path d="M3718 19452.7C3718 19458.7 3713.07 19463.7 3707 19463.7 3700.92 19463.7 3696 19458.7 3696 19452.7 3696 19446.6 3700.92 19441.7 3707 19441.7 3713.07 19441.7 3718 19446.6 3718 19452.7Z" stroke="#4472C4" stroke-width="3.4375" stroke-linejoin="round" stroke-miterlimit="10" fill="#4472C4"/><path d="M3723 19453.7C3723 19459.7 3718.07 19464.7 3712 19464.7 3705.92 19464.7 3701 19459.7 3701 19453.7 3701 19447.6 3705.92 19442.7 3712 19442.7 3718.07 19442.7 3723 19447.6 3723 19453.7Z" stroke="#4472C4" stroke-width="3.4375" stroke-linejoin="round" stroke-miterlimit="10" fill="#4472C4"/><path d="M3727 19421.7C3727 19427.7 3722.07 19432.7 3716 19432.7 3709.92 19432.7 3705 19427.7 3705 19421.7 3705 19415.6 3709.92 19410.7 3716 19410.7 3722.07 19410.7 3727 19415.6 3727 19421.7Z" stroke="#4472C4" stroke-width="3.4375" stroke-linejoin="round" stroke-miterlimit="10" fill="#4472C4"/><path d="M3731 19495.7C3731 19501.7 3726.07 19506.7 3720 19506.7 3713.92 19506.7 3709 19501.7 3709 19495.7 3709 19489.6 3713.92 19484.7 3720 19484.7 3726.07 19484.7 3731 19489.6 3731 19495.7Z" stroke="#4472C4" stroke-width="3.4375" stroke-linejoin="round" stroke-miterlimit="10" fill="#4472C4"/><path d="M3735 19482.7C3735 19488.7 3730.07 19493.7 3724 19493.7 3717.92 19493.7 3713 19488.7 3713 19482.7 3713 19476.6 3717.92 19471.7 3724 19471.7 3730.07 19471.7 3735 19476.6 3735 19482.7Z" stroke="#4472C4" stroke-width="3.4375" stroke-linejoin="round" stroke-miterlimit="10" fill="#4472C4"/><path d="M3739 19393.7C3739 19399.7 3734.07 19404.7 3728 19404.7 3721.92 19404.7 3717 19399.7 3717 19393.7 3717 19387.6 3721.92 19382.7 3728 19382.7 3734.07 19382.7 3739 19387.6 3739 19393.7Z" stroke="#4472C4" stroke-width="3.4375" stroke-linejoin="round" stroke-miterlimit="10" fill="#4472C4"/><path d="M3743 19377.7C3743 19383.7 3738.07 19388.7 3732 19388.7 3725.92 19388.7 3721 19383.7 3721 19377.7 3721 19371.6 3725.92 19366.7 3732 19366.7 3738.07 19366.7 3743 19371.6 3743 19377.7Z" stroke="#4472C4" stroke-width="3.4375" stroke-linejoin="round" stroke-miterlimit="10" fill="#4472C4"/><path d="M3747 19413.7C3747 19419.7 3742.07 19424.7 3736 19424.7 3729.92 19424.7 3725 19419.7 3725 19413.7 3725 19407.6 3729.92 19402.7 3736 19402.7 3742.07 19402.7 3747 19407.6 3747 19413.7Z" stroke="#4472C4" stroke-width="3.4375" stroke-linejoin="round" stroke-miterlimit="10" fill="#4472C4"/><path d="M3751 19419.7C3751 19425.7 3746.07 19430.7 3740 19430.7 3733.92 19430.7 3729 19425.7 3729 19419.7 3729 19413.6 3733.92 19408.7 3740 19408.7 3746.07 19408.7 3751 19413.6 3751 19419.7Z" stroke="#4472C4" stroke-width="3.4375" stroke-linejoin="round" stroke-miterlimit="10" fill="#4472C4"/><path d="M3756 19471.7C3756 19477.7 3751.07 19482.7 3745 19482.7 3738.92 19482.7 3734 19477.7 3734 19471.7 3734 19465.6 3738.92 19460.7 3745 19460.7 3751.07 19460.7 3756 19465.6 3756 19471.7Z" stroke="#4472C4" stroke-width="3.4375" stroke-linejoin="round" stroke-miterlimit="10" fill="#4472C4"/><path d="M3760 19523.7C3760 19529.7 3755.07 19534.7 3749 19534.7 3742.92 19534.7 3738 19529.7 3738 19523.7 3738 19517.6 3742.92 19512.7 3749 19512.7 3755.07 19512.7 3760 19517.6 3760 19523.7Z" stroke="#4472C4" stroke-width="3.4375" stroke-linejoin="round" stroke-miterlimit="10" fill="#4472C4"/><path d="M3764 19510.7C3764 19516.7 3759.07 19521.7 3753 19521.7 3746.92 19521.7 3742 19516.7 3742 19510.7 3742 19504.6 3746.92 19499.7 3753 19499.7 3759.07 19499.7 3764 19504.6 3764 19510.7Z" stroke="#4472C4" stroke-width="3.4375" stroke-linejoin="round" stroke-miterlimit="10" fill="#4472C4"/><path d="M3768 19492.7C3768 19498.7 3763.07 19503.7 3757 19503.7 3750.92 19503.7 3746 19498.7 3746 19492.7 3746 19486.6 3750.92 19481.7 3757 19481.7 3763.07 19481.7 3768 19486.6 3768 19492.7Z" stroke="#4472C4" stroke-width="3.4375" stroke-linejoin="round" stroke-miterlimit="10" fill="#4472C4"/><path d="M3772 19542.7C3772 19548.7 3767.07 19553.7 3761 19553.7 3754.92 19553.7 3750 19548.7 3750 19542.7 3750 19536.6 3754.92 19531.7 3761 19531.7 3767.07 19531.7 3772 19536.6 3772 19542.7Z" stroke="#4472C4" stroke-width="3.4375" stroke-linejoin="round" stroke-miterlimit="10" fill="#4472C4"/><path d="M3776 19512.7C3776 19518.7 3771.07 19523.7 3765 19523.7 3758.92 19523.7 3754 19518.7 3754 19512.7 3754 19506.6 3758.92 19501.7 3765 19501.7 3771.07 19501.7 3776 19506.6 3776 19512.7Z" stroke="#4472C4" stroke-width="3.4375" stroke-linejoin="round" stroke-miterlimit="10" fill="#4472C4"/><path d="M3780 19375.7C3780 19381.7 3775.07 19386.7 3769 19386.7 3762.92 19386.7 3758 19381.7 3758 19375.7 3758 19369.6 3762.92 19364.7 3769 19364.7 3775.07 19364.7 3780 19369.6 3780 19375.7Z" stroke="#4472C4" stroke-width="3.4375" stroke-linejoin="round" stroke-miterlimit="10" fill="#4472C4"/><path d="M3784 19444.7C3784 19450.7 3779.07 19455.7 3773 19455.7 3766.92 19455.7 3762 19450.7 3762 19444.7 3762 19438.6 3766.92 19433.7 3773 19433.7 3779.07 19433.7 3784 19438.6 3784 19444.7Z" stroke="#4472C4" stroke-width="3.4375" stroke-linejoin="round" stroke-miterlimit="10" fill="#4472C4"/><path d="M3788 19371.7C3788 19377.7 3783.07 19382.7 3777 19382.7 3770.92 19382.7 3766 19377.7 3766 19371.7 3766 19365.6 3770.92 19360.7 3777 19360.7 3783.07 19360.7 3788 19365.6 3788 19371.7Z" stroke="#4472C4" stroke-width="3.4375" stroke-linejoin="round" stroke-miterlimit="10" fill="#4472C4"/><path d="M3793 19393.7C3793 19399.7 3788.07 19404.7 3782 19404.7 3775.92 19404.7 3771 19399.7 3771 19393.7 3771 19387.6 3775.92 19382.7 3782 19382.7 3788.07 19382.7 3793 19387.6 3793 19393.7Z" stroke="#4472C4" stroke-width="3.4375" stroke-linejoin="round" stroke-miterlimit="10" fill="#4472C4"/><path d="M3797 19450.7C3797 19456.7 3792.07 19461.7 3786 19461.7 3779.92 19461.7 3775 19456.7 3775 19450.7 3775 19444.6 3779.92 19439.7 3786 19439.7 3792.07 19439.7 3797 19444.6 3797 19450.7Z" stroke="#4472C4" stroke-width="3.4375" stroke-linejoin="round" stroke-miterlimit="10" fill="#4472C4"/><path d="M3801 19529.7C3801 19535.7 3796.07 19540.7 3790 19540.7 3783.92 19540.7 3779 19535.7 3779 19529.7 3779 19523.6 3783.92 19518.7 3790 19518.7 3796.07 19518.7 3801 19523.6 3801 19529.7Z" stroke="#4472C4" stroke-width="3.4375" stroke-linejoin="round" stroke-miterlimit="10" fill="#4472C4"/><path d="M3805 19482.7C3805 19488.7 3800.07 19493.7 3794 19493.7 3787.92 19493.7 3783 19488.7 3783 19482.7 3783 19476.6 3787.92 19471.7 3794 19471.7 3800.07 19471.7 3805 19476.6 3805 19482.7Z" stroke="#4472C4" stroke-width="3.4375" stroke-linejoin="round" stroke-miterlimit="10" fill="#4472C4"/><path d="M3809 19410.7C3809 19416.7 3804.07 19421.7 3798 19421.7 3791.92 19421.7 3787 19416.7 3787 19410.7 3787 19404.6 3791.92 19399.7 3798 19399.7 3804.07 19399.7 3809 19404.6 3809 19410.7Z" stroke="#4472C4" stroke-width="3.4375" stroke-linejoin="round" stroke-miterlimit="10" fill="#4472C4"/><path d="M3813 19432.7C3813 19438.7 3808.07 19443.7 3802 19443.7 3795.92 19443.7 3791 19438.7 3791 19432.7 3791 19426.6 3795.92 19421.7 3802 19421.7 3808.07 19421.7 3813 19426.6 3813 19432.7Z" stroke="#4472C4" stroke-width="3.4375" stroke-linejoin="round" stroke-miterlimit="10" fill="#4472C4"/><path d="M3817 19432.7C3817 19438.7 3812.07 19443.7 3806 19443.7 3799.92 19443.7 3795 19438.7 3795 19432.7 3795 19426.6 3799.92 19421.7 3806 19421.7 3812.07 19421.7 3817 19426.6 3817 19432.7Z" stroke="#4472C4" stroke-width="3.4375" stroke-linejoin="round" stroke-miterlimit="10" fill="#4472C4"/><path d="M3821 19444.7C3821 19450.7 3816.07 19455.7 3810 19455.7 3803.92 19455.7 3799 19450.7 3799 19444.7 3799 19438.6 3803.92 19433.7 3810 19433.7 3816.07 19433.7 3821 19438.6 3821 19444.7Z" stroke="#4472C4" stroke-width="3.4375" stroke-linejoin="round" stroke-miterlimit="10" fill="#4472C4"/><path d="M3825 19569.7C3825 19575.7 3820.07 19580.7 3814 19580.7 3807.92 19580.7 3803 19575.7 3803 19569.7 3803 19563.6 3807.92 19558.7 3814 19558.7 3820.07 19558.7 3825 19563.6 3825 19569.7Z" stroke="#4472C4" stroke-width="3.4375" stroke-linejoin="round" stroke-miterlimit="10" fill="#4472C4"/><path d="M3830 19502.7C3830 19508.7 3825.07 19513.7 3819 19513.7 3812.92 19513.7 3808 19508.7 3808 19502.7 3808 19496.6 3812.92 19491.7 3819 19491.7 3825.07 19491.7 3830 19496.6 3830 19502.7Z" stroke="#4472C4" stroke-width="3.4375" stroke-linejoin="round" stroke-miterlimit="10" fill="#4472C4"/><path d="M3834 19456.7C3834 19462.7 3829.07 19467.7 3823 19467.7 3816.92 19467.7 3812 19462.7 3812 19456.7 3812 19450.6 3816.92 19445.7 3823 19445.7 3829.07 19445.7 3834 19450.6 3834 19456.7Z" stroke="#4472C4" stroke-width="3.4375" stroke-linejoin="round" stroke-miterlimit="10" fill="#4472C4"/><path d="M3838 19533.7C3838 19539.7 3833.07 19544.7 3827 19544.7 3820.92 19544.7 3816 19539.7 3816 19533.7 3816 19527.6 3820.92 19522.7 3827 19522.7 3833.07 19522.7 3838 19527.6 3838 19533.7Z" stroke="#4472C4" stroke-width="3.4375" stroke-linejoin="round" stroke-miterlimit="10" fill="#4472C4"/><path d="M3842 19445.7C3842 19451.7 3837.07 19456.7 3831 19456.7 3824.92 19456.7 3820 19451.7 3820 19445.7 3820 19439.6 3824.92 19434.7 3831 19434.7 3837.07 19434.7 3842 19439.6 3842 19445.7Z" stroke="#4472C4" stroke-width="3.4375" stroke-linejoin="round" stroke-miterlimit="10" fill="#4472C4"/><path d="M3846 19411.7C3846 19417.7 3841.07 19422.7 3835 19422.7 3828.92 19422.7 3824 19417.7 3824 19411.7 3824 19405.6 3828.92 19400.7 3835 19400.7 3841.07 19400.7 3846 19405.6 3846 19411.7Z" stroke="#4472C4" stroke-width="3.4375" stroke-linejoin="round" stroke-miterlimit="10" fill="#4472C4"/><path d="M3850 19502.7C3850 19508.7 3845.07 19513.7 3839 19513.7 3832.92 19513.7 3828 19508.7 3828 19502.7 3828 19496.6 3832.92 19491.7 3839 19491.7 3845.07 19491.7 3850 19496.6 3850 19502.7Z" stroke="#4472C4" stroke-width="3.4375" stroke-linejoin="round" stroke-miterlimit="10" fill="#4472C4"/><path d="M3854 19413.7C3854 19419.7 3849.07 19424.7 3843 19424.7 3836.92 19424.7 3832 19419.7 3832 19413.7 3832 19407.6 3836.92 19402.7 3843 19402.7 3849.07 19402.7 3854 19407.6 3854 19413.7Z" stroke="#4472C4" stroke-width="3.4375" stroke-linejoin="round" stroke-miterlimit="10" fill="#4472C4"/><path d="M3858 19465.7C3858 19471.7 3853.07 19476.7 3847 19476.7 3840.92 19476.7 3836 19471.7 3836 19465.7 3836 19459.6 3840.92 19454.7 3847 19454.7 3853.07 19454.7 3858 19459.6 3858 19465.7Z" stroke="#4472C4" stroke-width="3.4375" stroke-linejoin="round" stroke-miterlimit="10" fill="#4472C4"/><path d="M3862 19481.7C3862 19487.7 3857.07 19492.7 3851 19492.7 3844.92 19492.7 3840 19487.7 3840 19481.7 3840 19475.6 3844.92 19470.7 3851 19470.7 3857.07 19470.7 3862 19475.6 3862 19481.7Z" stroke="#4472C4" stroke-width="3.4375" stroke-linejoin="round" stroke-miterlimit="10" fill="#4472C4"/><path d="M3867 19405.7C3867 19411.7 3862.07 19416.7 3856 19416.7 3849.92 19416.7 3845 19411.7 3845 19405.7 3845 19399.6 3849.92 19394.7 3856 19394.7 3862.07 19394.7 3867 19399.6 3867 19405.7Z" stroke="#4472C4" stroke-width="3.4375" stroke-linejoin="round" stroke-miterlimit="10" fill="#4472C4"/><path d="M3871 19450.7C3871 19456.7 3866.07 19461.7 3860 19461.7 3853.92 19461.7 3849 19456.7 3849 19450.7 3849 19444.6 3853.92 19439.7 3860 19439.7 3866.07 19439.7 3871 19444.6 3871 19450.7Z" stroke="#4472C4" stroke-width="3.4375" stroke-linejoin="round" stroke-miterlimit="10" fill="#4472C4"/><path d="M3875 19488.7C3875 19494.7 3870.07 19499.7 3864 19499.7 3857.92 19499.7 3853 19494.7 3853 19488.7 3853 19482.6 3857.92 19477.7 3864 19477.7 3870.07 19477.7 3875 19482.6 3875 19488.7Z" stroke="#4472C4" stroke-width="3.4375" stroke-linejoin="round" stroke-miterlimit="10" fill="#4472C4"/><path d="M3879 19477.7C3879 19483.7 3874.07 19488.7 3868 19488.7 3861.92 19488.7 3857 19483.7 3857 19477.7 3857 19471.6 3861.92 19466.7 3868 19466.7 3874.07 19466.7 3879 19471.6 3879 19477.7Z" stroke="#4472C4" stroke-width="3.4375" stroke-linejoin="round" stroke-miterlimit="10" fill="#4472C4"/><path d="M3883 19478.7C3883 19484.7 3878.07 19489.7 3872 19489.7 3865.92 19489.7 3861 19484.7 3861 19478.7 3861 19472.6 3865.92 19467.7 3872 19467.7 3878.07 19467.7 3883 19472.6 3883 19478.7Z" stroke="#4472C4" stroke-width="3.4375" stroke-linejoin="round" stroke-miterlimit="10" fill="#4472C4"/><path d="M3887 19490.7C3887 19496.7 3882.07 19501.7 3876 19501.7 3869.92 19501.7 3865 19496.7 3865 19490.7 3865 19484.6 3869.92 19479.7 3876 19479.7 3882.07 19479.7 3887 19484.6 3887 19490.7Z" stroke="#4472C4" stroke-width="3.4375" stroke-linejoin="round" stroke-miterlimit="10" fill="#4472C4"/><path d="M3891 19458.7C3891 19464.7 3886.07 19469.7 3880 19469.7 3873.92 19469.7 3869 19464.7 3869 19458.7 3869 19452.6 3873.92 19447.7 3880 19447.7 3886.07 19447.7 3891 19452.6 3891 19458.7Z" stroke="#4472C4" stroke-width="3.4375" stroke-linejoin="round" stroke-miterlimit="10" fill="#4472C4"/><path d="M3895 19447.7C3895 19453.7 3890.07 19458.7 3884 19458.7 3877.92 19458.7 3873 19453.7 3873 19447.7 3873 19441.6 3877.92 19436.7 3884 19436.7 3890.07 19436.7 3895 19441.6 3895 19447.7Z" stroke="#4472C4" stroke-width="3.4375" stroke-linejoin="round" stroke-miterlimit="10" fill="#4472C4"/><path d="M3899 19500.7C3899 19506.7 3894.07 19511.7 3888 19511.7 3881.92 19511.7 3877 19506.7 3877 19500.7 3877 19494.6 3881.92 19489.7 3888 19489.7 3894.07 19489.7 3899 19494.6 3899 19500.7Z" stroke="#4472C4" stroke-width="3.4375" stroke-linejoin="round" stroke-miterlimit="10" fill="#4472C4"/><path d="M3904 19469.7C3904 19475.7 3899.07 19480.7 3893 19480.7 3886.92 19480.7 3882 19475.7 3882 19469.7 3882 19463.6 3886.92 19458.7 3893 19458.7 3899.07 19458.7 3904 19463.6 3904 19469.7Z" stroke="#4472C4" stroke-width="3.4375" stroke-linejoin="round" stroke-miterlimit="10" fill="#4472C4"/><path d="M3908 19452.7C3908 19458.7 3903.07 19463.7 3897 19463.7 3890.92 19463.7 3886 19458.7 3886 19452.7 3886 19446.6 3890.92 19441.7 3897 19441.7 3903.07 19441.7 3908 19446.6 3908 19452.7Z" stroke="#4472C4" stroke-width="3.4375" stroke-linejoin="round" stroke-miterlimit="10" fill="#4472C4"/><path d="M3912 19414.7C3912 19420.7 3907.07 19425.7 3901 19425.7 3894.92 19425.7 3890 19420.7 3890 19414.7 3890 19408.6 3894.92 19403.7 3901 19403.7 3907.07 19403.7 3912 19408.6 3912 19414.7Z" stroke="#4472C4" stroke-width="3.4375" stroke-linejoin="round" stroke-miterlimit="10" fill="#4472C4"/><path d="M3916 19480.7C3916 19486.7 3911.07 19491.7 3905 19491.7 3898.92 19491.7 3894 19486.7 3894 19480.7 3894 19474.6 3898.92 19469.7 3905 19469.7 3911.07 19469.7 3916 19474.6 3916 19480.7Z" stroke="#4472C4" stroke-width="3.4375" stroke-linejoin="round" stroke-miterlimit="10" fill="#4472C4"/><path d="M3920 19372.7C3920 19378.7 3915.07 19383.7 3909 19383.7 3902.92 19383.7 3898 19378.7 3898 19372.7 3898 19366.6 3902.92 19361.7 3909 19361.7 3915.07 19361.7 3920 19366.6 3920 19372.7Z" stroke="#4472C4" stroke-width="3.4375" stroke-linejoin="round" stroke-miterlimit="10" fill="#4472C4"/><path d="M3924 19437.7C3924 19443.7 3919.07 19448.7 3913 19448.7 3906.92 19448.7 3902 19443.7 3902 19437.7 3902 19431.6 3906.92 19426.7 3913 19426.7 3919.07 19426.7 3924 19431.6 3924 19437.7Z" stroke="#4472C4" stroke-width="3.4375" stroke-linejoin="round" stroke-miterlimit="10" fill="#4472C4"/><path d="M3928 19437.7C3928 19443.7 3923.07 19448.7 3917 19448.7 3910.92 19448.7 3906 19443.7 3906 19437.7 3906 19431.6 3910.92 19426.7 3917 19426.7 3923.07 19426.7 3928 19431.6 3928 19437.7Z" stroke="#4472C4" stroke-width="3.4375" stroke-linejoin="round" stroke-miterlimit="10" fill="#4472C4"/></g><g clip-path="url(#clip6)"><path d="M0 0 1233 16.0002" stroke="#C00000" stroke-width="6.875" stroke-linecap="round" stroke-linejoin="round" stroke-miterlimit="10" stroke-dasharray="0 13.75" fill="none" fill-rule="evenodd" transform="matrix(1 0 0 -1 2683.5 19467.5)"/></g><g clip-path="url(#clip7)"><text fill="#595959" font-family="Calibri,Calibri_MSFontService,sans-serif" font-weight="400" font-size="41" transform="matrix(1 0 0 1 3740 19287)">y = 9.0806x + 74507</text></g><g clip-path="url(#clip8)"><text fill="#595959" font-family="Calibri,Calibri_MSFontService,sans-serif" font-weight="400" font-size="41" transform="matrix(1 0 0 1 2527.75 20138)">-40000</text></g><g clip-path="url(#clip9)"><text fill="#595959" font-family="Calibri,Calibri_MSFontService,sans-serif" font-weight="400" font-size="41" transform="matrix(1 0 0 1 2527.75 20023)">-20000</text></g><g clip-path="url(#clip10)"><text fill="#595959" font-family="Calibri,Calibri_MSFontService,sans-serif" font-weight="400" font-size="41" transform="matrix(1 0 0 1 2623.98 19908)">0</text></g><g clip-path="url(#clip11)"><text fill="#595959" font-family="Calibri,Calibri_MSFontService,sans-serif" font-weight="400" font-size="41" transform="matrix(1 0 0 1 2540.38 19793)">20000</text></g><g clip-path="url(#clip12)"><text fill="#595959" font-family="Calibri,Calibri_MSFontService,sans-serif" font-weight="400" font-size="41" transform="matrix(1 0 0 1 2540.38 19678)">40000</text></g><g clip-path="url(#clip13)"><text fill="#595959" font-family="Calibri,Calibri_MSFontService,sans-serif" font-weight="400" font-size="41" transform="matrix(1 0 0 1 2540.38 19562)">60000</text></g><g clip-path="url(#clip14)"><text fill="#595959" font-family="Calibri,Calibri_MSFontService,sans-serif" font-weight="400" font-size="41" transform="matrix(1 0 0 1 2540.38 19447)">80000</text></g><g clip-path="url(#clip15)"><text fill="#595959" font-family="Calibri,Calibri_MSFontService,sans-serif" font-weight="400" font-size="41" transform="matrix(1 0 0 1 2519.48 19332)">100000</text></g><g clip-path="url(#clip16)"><text fill="#595959" font-family="Calibri,Calibri_MSFontService,sans-serif" font-weight="400" font-size="41" transform="matrix(1 0 0 1 2519.48 19217)">120000</text></g><g clip-path="url(#clip17)"><text fill="#595959" font-family="Calibri,Calibri_MSFontService,sans-serif" font-weight="400" font-size="41" transform="matrix(1 0 0 1 2672.7 19962)">0</text></g><g clip-path="url(#clip18)"><text fill="#595959" font-family="Calibri,Calibri_MSFontService,sans-serif" font-weight="400" font-size="41" transform="matrix(1 0 0 1 2867.84 19962)">50</text></g><g clip-path="url(#clip19)"><text fill="#595959" font-family="Calibri,Calibri_MSFontService,sans-serif" font-weight="400" font-size="41" transform="matrix(1 0 0 1 3062.98 19962)">100</text></g><g clip-path="url(#clip20)"><text fill="#595959" font-family="Calibri,Calibri_MSFontService,sans-serif" font-weight="400" font-size="41" transform="matrix(1 0 0 1 3268.58 19962)">150</text></g><g clip-path="url(#clip21)"><text fill="#595959" font-family="Calibri,Calibri_MSFontService,sans-serif" font-weight="400" font-size="41" transform="matrix(1 0 0 1 3474.17 19962)">200</text></g><g clip-path="url(#clip22)"><text fill="#595959" font-family="Calibri,Calibri_MSFontService,sans-serif" font-weight="400" font-size="41" transform="matrix(1 0 0 1 3679.76 19962)">250</text></g><g clip-path="url(#clip23)"><text fill="#595959" font-family="Calibri,Calibri_MSFontService,sans-serif" font-weight="400" font-size="41" transform="matrix(1 0 0 1 3885.35 19962)">300</text></g><g clip-path="url(#clip24)"><text fill="#595959" font-family="Calibri,Calibri_MSFontService,sans-serif" font-weight="400" font-size="41" transform="matrix(1 0 0 1 4090.95 19962)">350</text></g><g clip-path="url(#clip25)"><text fill="#595959" font-family="Calibri,Calibri_MSFontService,sans-serif" font-weight="400" font-size="46" transform="matrix(6.12323e-17 -1 1 6.12323e-17 2493.79 19889)">Current Average Fitness</text></g><g clip-path="url(#clip26)"><text fill="#595959" font-family="Calibri,Calibri_MSFontService,sans-serif" font-weight="400" font-size="46" transform="matrix(1 0 0 1 3297.39 20178)">Generation</text></g><g clip-path="url(#clip27)"><text fill="#595959" font-family="Calibri,Calibri_MSFontService,sans-serif" font-weight="400" font-size="64" transform="matrix(1 0 0 1 2958.03 19131)">Average Fitness (RED pop)</text></g><rect x="2392.5" y="19035.5" width="1812" height="1212" stroke="#D9D9D9" stroke-width="3.4375" stroke-linejoin="round" stroke-miterlimit="10" fill="none"/></g></svg>