<svg width="1815" height="1215" xmlns="http://www.w3.org/2000/svg" xmlns:xlink="http://www.w3.org/1999/xlink" overflow="hidden"><defs><clipPath id="clip0"><rect x="2391" y="19034" width="1815" height="1215"/></clipPath><clipPath id="clip1"><rect x="2392" y="19035" width="1812" height="1211"/></clipPath><clipPath id="clip2"><rect x="2392" y="19035" width="1812" height="1211"/></clipPath><clipPath id="clip3"><rect x="2392" y="19035" width="1812" height="1211"/></clipPath><clipPath id="clip4"><rect x="2392" y="19035" width="1812" height="1211"/></clipPath><clipPath id="clip5"><rect x="2392" y="19035" width="1812" height="1211"/></clipPath><clipPath id="clip6"><rect x="2683" y="19205" width="1439" height="838"/></clipPath><clipPath id="clip7"><rect x="2392" y="19035" width="1812" height="1211"/></clipPath><clipPath id="clip8"><rect x="2392" y="19035" width="1812" height="1211"/></clipPath><clipPath id="clip9"><rect x="2392" y="19035" width="1812" height="1211"/></clipPath><clipPath id="clip10"><rect x="2392" y="19035" width="1812" height="1211"/></clipPath><clipPath id="clip11"><rect x="2392" y="19035" width="1812" height="1211"/></clipPath><clipPath id="clip12"><rect x="2392" y="19035" width="1812" height="1211"/></clipPath><clipPath id="clip13"><rect x="2392" y="19035" width="1812" height="1211"/></clipPath><clipPath id="clip14"><rect x="2392" y="19035" width="1812" height="1211"/></clipPath><clipPath id="clip15"><rect x="2392" y="19035" width="1812" height="1211"/></clipPath><clipPath id="clip16"><rect x="2392" y="19035" width="1812" height="1211"/></clipPath><clipPath id="clip17"><rect x="2392" y="19035" width="1812" height="1211"/></clipPath><clipPath id="clip18"><rect x="2392" y="19035" width="1812" height="1211"/></clipPath><clipPath id="clip19"><rect x="2392" y="19035" width="1812" height="1211"/></clipPath><clipPath id="clip20"><rect x="2392" y="19035" width="1812" height="1211"/></clipPath><clipPath id="clip21"><rect x="2392" y="19035" width="1812" height="1211"/></clipPath><clipPath id="clip22"><rect x="2392" y="19035" width="1812" height="1211"/></clipPath><clipPath id="clip23"><rect x="2392" y="19035" width="1812" height="1211"/></clipPath><clipPath id="clip24"><rect x="2392" y="19035" width="1812" height="1211"/></clipPath><clipPath id="clip25"><rect x="2392" y="19035" width="1812" height="1211"/></clipPath><clipPath id="clip26"><rect x="2392" y="19035" width="1812" height="1211"/></clipPath><clipPath id="clip27"><rect x="2392" y="19035" width="1812" height="1211"/></clipPath><clipPath id="clip28"><rect x="2392" y="19035" width="1812" height="1211"/></clipPath><clipPath id="clip29"><rect x="2392" y="19035" width="1812" height="1211"/></clipPath></defs><g clip-path="url(#clip0)" transform="translate(-2391 -19034)"><rect x="2392" y="19035" width="1812" height="1212" fill="#FFFFFF"/><g clip-path="url(#clip1)"><path d="M2683.5 19959.2 4122.5 19959.2M2683.5 19876.2 4122.5 19876.2M2683.5 19792.1 4122.5 19792.1M2683.5 19708.1 4122.5 19708.1M2683.5 19624.1 4122.5 19624.1M2683.5 19540.1 4122.5 19540.1M2683.5 19456.1 4122.5 19456.1M2683.5 19373.1 4122.5 19373.1M2683.5 19289.1 4122.5 19289.1M2683.5 19205.5 4122.5 19205.5" stroke="#D9D9D9" stroke-width="3.4375" stroke-linejoin="round" stroke-miterlimit="10" fill="none"/></g><g clip-path="url(#clip2)"><path d="M2888.59 19205.5 2888.59 20043.5M3094.6 19205.5 3094.6 20043.5M3299.61 19205.5 3299.61 20043.5M3505.62 19205.5 3505.62 20043.5M3710.62 19205.5 3710.62 20043.5M3916.63 19205.5 3916.63 20043.5M4122.5 19205.5 4122.5 20043.5" stroke="#D9D9D9" stroke-width="3.4375" stroke-linejoin="round" stroke-miterlimit="10" fill="none"/></g><g clip-path="url(#clip3)"><path d="M0 0 0.000360892 838" stroke="#BFBFBF" stroke-width="3.4375" stroke-linejoin="round" stroke-miterlimit="10" fill="none" fill-rule="evenodd" transform="matrix(1 0 0 -1 2683.5 20043.5)"/></g><g clip-path="url(#clip4)"><path d="M2683.5 20043.5 4122.5 20043.5" stroke="#BFBFBF" stroke-width="3.4375" stroke-linejoin="round" stroke-miterlimit="10" fill="none" fill-rule="evenodd"/></g><g clip-path="url(#clip5)"><path d="M2695 19554.7C2695 19560.7 2690.07 19565.7 2684 19565.7 2677.92 19565.7 2673 19560.7 2673 19554.7 2673 19548.6 2677.92 19543.7 2684 19543.7 2690.07 19543.7 2695 19548.6 2695 19554.7Z" stroke="#4472C4" stroke-width="3.4375" stroke-linejoin="round" stroke-miterlimit="10" fill="#4472C4"/><path d="M2699 19513.7C2699 19519.7 2694.07 19524.7 2688 19524.7 2681.92 19524.7 2677 19519.7 2677 19513.7 2677 19507.6 2681.92 19502.7 2688 19502.7 2694.07 19502.7 2699 19507.6 2699 19513.7Z" stroke="#4472C4" stroke-width="3.4375" stroke-linejoin="round" stroke-miterlimit="10" fill="#4472C4"/><path d="M2703 19471.7C2703 19477.7 2698.07 19482.7 2692 19482.7 2685.92 19482.7 2681 19477.7 2681 19471.7 2681 19465.6 2685.92 19460.7 2692 19460.7 2698.07 19460.7 2703 19465.6 2703 19471.7Z" stroke="#4472C4" stroke-width="3.4375" stroke-linejoin="round" stroke-miterlimit="10" fill="#4472C4"/><path d="M2707 19428.7C2707 19434.7 2702.07 19439.7 2696 19439.7 2689.92 19439.7 2685 19434.7 2685 19428.7 2685 19422.6 2689.92 19417.7 2696 19417.7 2702.07 19417.7 2707 19422.6 2707 19428.7Z" stroke="#4472C4" stroke-width="3.4375" stroke-linejoin="round" stroke-miterlimit="10" fill="#4472C4"/><path d="M2711 19428.7C2711 19434.7 2706.07 19439.7 2700 19439.7 2693.92 19439.7 2689 19434.7 2689 19428.7 2689 19422.6 2693.92 19417.7 2700 19417.7 2706.07 19417.7 2711 19422.6 2711 19428.7Z" stroke="#4472C4" stroke-width="3.4375" stroke-linejoin="round" stroke-miterlimit="10" fill="#4472C4"/><path d="M2715 19386.7C2715 19392.7 2710.07 19397.7 2704 19397.7 2697.92 19397.7 2693 19392.7 2693 19386.7 2693 19380.6 2697.92 19375.7 2704 19375.7 2710.07 19375.7 2715 19380.6 2715 19386.7Z" stroke="#4472C4" stroke-width="3.4375" stroke-linejoin="round" stroke-miterlimit="10" fill="#4472C4"/><path d="M2719 19388.7C2719 19394.7 2714.07 19399.7 2708 19399.7 2701.92 19399.7 2697 19394.7 2697 19388.7 2697 19382.6 2701.92 19377.7 2708 19377.7 2714.07 19377.7 2719 19382.6 2719 19388.7Z" stroke="#4472C4" stroke-width="3.4375" stroke-linejoin="round" stroke-miterlimit="10" fill="#4472C4"/><path d="M2723 19428.7C2723 19434.7 2718.07 19439.7 2712 19439.7 2705.92 19439.7 2701 19434.7 2701 19428.7 2701 19422.6 2705.92 19417.7 2712 19417.7 2718.07 19417.7 2723 19422.6 2723 19428.7Z" stroke="#4472C4" stroke-width="3.4375" stroke-linejoin="round" stroke-miterlimit="10" fill="#4472C4"/><path d="M2728 19365.7C2728 19371.7 2723.07 19376.7 2717 19376.7 2710.92 19376.7 2706 19371.7 2706 19365.7 2706 19359.6 2710.92 19354.7 2717 19354.7 2723.07 19354.7 2728 19359.6 2728 19365.7Z" stroke="#4472C4" stroke-width="3.4375" stroke-linejoin="round" stroke-miterlimit="10" fill="#4472C4"/><path d="M2732 19428.7C2732 19434.7 2727.07 19439.7 2721 19439.7 2714.92 19439.7 2710 19434.7 2710 19428.7 2710 19422.6 2714.92 19417.7 2721 19417.7 2727.07 19417.7 2732 19422.6 2732 19428.7Z" stroke="#4472C4" stroke-width="3.4375" stroke-linejoin="round" stroke-miterlimit="10" fill="#4472C4"/><path d="M2736 19449.7C2736 19455.7 2731.07 19460.7 2725 19460.7 2718.92 19460.7 2714 19455.7 2714 19449.7 2714 19443.6 2718.92 19438.7 2725 19438.7 2731.07 19438.7 2736 19443.6 2736 19449.7Z" stroke="#4472C4" stroke-width="3.4375" stroke-linejoin="round" stroke-miterlimit="10" fill="#4472C4"/><path d="M2740 19428.7C2740 19434.7 2735.07 19439.7 2729 19439.7 2722.92 19439.7 2718 19434.7 2718 19428.7 2718 19422.6 2722.92 19417.7 2729 19417.7 2735.07 19417.7 2740 19422.6 2740 19428.7Z" stroke="#4472C4" stroke-width="3.4375" stroke-linejoin="round" stroke-miterlimit="10" fill="#4472C4"/><path d="M2744 19365.7C2744 19371.7 2739.07 19376.7 2733 19376.7 2726.92 19376.7 2722 19371.7 2722 19365.7 2722 19359.6 2726.92 19354.7 2733 19354.7 2739.07 19354.7 2744 19359.6 2744 19365.7Z" stroke="#4472C4" stroke-width="3.4375" stroke-linejoin="round" stroke-miterlimit="10" fill="#4472C4"/><path d="M2748 19428.7C2748 19434.7 2743.07 19439.7 2737 19439.7 2730.92 19439.7 2726 19434.7 2726 19428.7 2726 19422.6 2730.92 19417.7 2737 19417.7 2743.07 19417.7 2748 19422.6 2748 19428.7Z" stroke="#4472C4" stroke-width="3.4375" stroke-linejoin="round" stroke-miterlimit="10" fill="#4472C4"/><path d="M2752 19428.7C2752 19434.7 2747.07 19439.7 2741 19439.7 2734.92 19439.7 2730 19434.7 2730 19428.7 2730 19422.6 2734.92 19417.7 2741 19417.7 2747.07 19417.7 2752 19422.6 2752 19428.7Z" stroke="#4472C4" stroke-width="3.4375" stroke-linejoin="round" stroke-miterlimit="10" fill="#4472C4"/><path d="M2756 19493.7C2756 19499.7 2751.07 19504.7 2745 19504.7 2738.92 19504.7 2734 19499.7 2734 19493.7 2734 19487.6 2738.92 19482.7 2745 19482.7 2751.07 19482.7 2756 19487.6 2756 19493.7Z" stroke="#4472C4" stroke-width="3.4375" stroke-linejoin="round" stroke-miterlimit="10" fill="#4472C4"/><path d="M2760 19365.7C2760 19371.7 2755.07 19376.7 2749 19376.7 2742.92 19376.7 2738 19371.7 2738 19365.7 2738 19359.6 2742.92 19354.7 2749 19354.7 2755.07 19354.7 2760 19359.6 2760 19365.7Z" stroke="#4472C4" stroke-width="3.4375" stroke-linejoin="round" stroke-miterlimit="10" fill="#4472C4"/><path d="M2765 19428.7C2765 19434.7 2760.07 19439.7 2754 19439.7 2747.92 19439.7 2743 19434.7 2743 19428.7 2743 19422.6 2747.92 19417.7 2754 19417.7 2760.07 19417.7 2765 19422.6 2765 19428.7Z" stroke="#4472C4" stroke-width="3.4375" stroke-linejoin="round" stroke-miterlimit="10" fill="#4472C4"/><path d="M2769 19428.7C2769 19434.7 2764.07 19439.7 2758 19439.7 2751.92 19439.7 2747 19434.7 2747 19428.7 2747 19422.6 2751.92 19417.7 2758 19417.7 2764.07 19417.7 2769 19422.6 2769 19428.7Z" stroke="#4472C4" stroke-width="3.4375" stroke-linejoin="round" stroke-miterlimit="10" fill="#4472C4"/><path d="M2773 19428.7C2773 19434.7 2768.07 19439.7 2762 19439.7 2755.92 19439.7 2751 19434.7 2751 19428.7 2751 19422.6 2755.92 19417.7 2762 19417.7 2768.07 19417.7 2773 19422.6 2773 19428.7Z" stroke="#4472C4" stroke-width="3.4375" stroke-linejoin="round" stroke-miterlimit="10" fill="#4472C4"/><path d="M2777 19386.7C2777 19392.7 2772.07 19397.7 2766 19397.7 2759.92 19397.7 2755 19392.7 2755 19386.7 2755 19380.6 2759.92 19375.7 2766 19375.7 2772.07 19375.7 2777 19380.6 2777 19386.7Z" stroke="#4472C4" stroke-width="3.4375" stroke-linejoin="round" stroke-miterlimit="10" fill="#4472C4"/><path d="M2781 19365.7C2781 19371.7 2776.07 19376.7 2770 19376.7 2763.92 19376.7 2759 19371.7 2759 19365.7 2759 19359.6 2763.92 19354.7 2770 19354.7 2776.07 19354.7 2781 19359.6 2781 19365.7Z" stroke="#4472C4" stroke-width="3.4375" stroke-linejoin="round" stroke-miterlimit="10" fill="#4472C4"/><path d="M2785 19428.7C2785 19434.7 2780.07 19439.7 2774 19439.7 2767.92 19439.7 2763 19434.7 2763 19428.7 2763 19422.6 2767.92 19417.7 2774 19417.7 2780.07 19417.7 2785 19422.6 2785 19428.7Z" stroke="#4472C4" stroke-width="3.4375" stroke-linejoin="round" stroke-miterlimit="10" fill="#4472C4"/><path d="M2789 19407.7C2789 19413.7 2784.07 19418.7 2778 19418.7 2771.92 19418.7 2767 19413.7 2767 19407.7 2767 19401.6 2771.92 19396.7 2778 19396.7 2784.07 19396.7 2789 19401.6 2789 19407.7Z" stroke="#4472C4" stroke-width="3.4375" stroke-linejoin="round" stroke-miterlimit="10" fill="#4472C4"/><path d="M2793 19365.7C2793 19371.7 2788.07 19376.7 2782 19376.7 2775.92 19376.7 2771 19371.7 2771 19365.7 2771 19359.6 2775.92 19354.7 2782 19354.7 2788.07 19354.7 2793 19359.6 2793 19365.7Z" stroke="#4472C4" stroke-width="3.4375" stroke-linejoin="round" stroke-miterlimit="10" fill="#4472C4"/><path d="M2797 19491.7C2797 19497.7 2792.07 19502.7 2786 19502.7 2779.92 19502.7 2775 19497.7 2775 19491.7 2775 19485.6 2779.92 19480.7 2786 19480.7 2792.07 19480.7 2797 19485.6 2797 19491.7Z" stroke="#4472C4" stroke-width="3.4375" stroke-linejoin="round" stroke-miterlimit="10" fill="#4472C4"/><path d="M2802 19428.7C2802 19434.7 2797.07 19439.7 2791 19439.7 2784.92 19439.7 2780 19434.7 2780 19428.7 2780 19422.6 2784.92 19417.7 2791 19417.7 2797.07 19417.7 2802 19422.6 2802 19428.7Z" stroke="#4472C4" stroke-width="3.4375" stroke-linejoin="round" stroke-miterlimit="10" fill="#4472C4"/><path d="M2806 19365.7C2806 19371.7 2801.07 19376.7 2795 19376.7 2788.92 19376.7 2784 19371.7 2784 19365.7 2784 19359.6 2788.92 19354.7 2795 19354.7 2801.07 19354.7 2806 19359.6 2806 19365.7Z" stroke="#4472C4" stroke-width="3.4375" stroke-linejoin="round" stroke-miterlimit="10" fill="#4472C4"/><path d="M2810 19365.7C2810 19371.7 2805.07 19376.7 2799 19376.7 2792.92 19376.7 2788 19371.7 2788 19365.7 2788 19359.6 2792.92 19354.7 2799 19354.7 2805.07 19354.7 2810 19359.6 2810 19365.7Z" stroke="#4472C4" stroke-width="3.4375" stroke-linejoin="round" stroke-miterlimit="10" fill="#4472C4"/><path d="M2814 19428.7C2814 19434.7 2809.07 19439.7 2803 19439.7 2796.92 19439.7 2792 19434.7 2792 19428.7 2792 19422.6 2796.92 19417.7 2803 19417.7 2809.07 19417.7 2814 19422.6 2814 19428.7Z" stroke="#4472C4" stroke-width="3.4375" stroke-linejoin="round" stroke-miterlimit="10" fill="#4472C4"/><path d="M2818 19407.7C2818 19413.7 2813.07 19418.7 2807 19418.7 2800.92 19418.7 2796 19413.7 2796 19407.7 2796 19401.6 2800.92 19396.7 2807 19396.7 2813.07 19396.7 2818 19401.6 2818 19407.7Z" stroke="#4472C4" stroke-width="3.4375" stroke-linejoin="round" stroke-miterlimit="10" fill="#4472C4"/><path d="M2822 19365.7C2822 19371.7 2817.07 19376.7 2811 19376.7 2804.92 19376.7 2800 19371.7 2800 19365.7 2800 19359.6 2804.92 19354.7 2811 19354.7 2817.07 19354.7 2822 19359.6 2822 19365.7Z" stroke="#4472C4" stroke-width="3.4375" stroke-linejoin="round" stroke-miterlimit="10" fill="#4472C4"/><path d="M2826 19365.7C2826 19371.7 2821.07 19376.7 2815 19376.7 2808.92 19376.7 2804 19371.7 2804 19365.7 2804 19359.6 2808.92 19354.7 2815 19354.7 2821.07 19354.7 2826 19359.6 2826 19365.7Z" stroke="#4472C4" stroke-width="3.4375" stroke-linejoin="round" stroke-miterlimit="10" fill="#4472C4"/><path d="M2830 19407.7C2830 19413.7 2825.07 19418.7 2819 19418.7 2812.92 19418.7 2808 19413.7 2808 19407.7 2808 19401.6 2812.92 19396.7 2819 19396.7 2825.07 19396.7 2830 19401.6 2830 19407.7Z" stroke="#4472C4" stroke-width="3.4375" stroke-linejoin="round" stroke-miterlimit="10" fill="#4472C4"/><path d="M2834 19428.7C2834 19434.7 2829.07 19439.7 2823 19439.7 2816.92 19439.7 2812 19434.7 2812 19428.7 2812 19422.6 2816.92 19417.7 2823 19417.7 2829.07 19417.7 2834 19422.6 2834 19428.7Z" stroke="#4472C4" stroke-width="3.4375" stroke-linejoin="round" stroke-miterlimit="10" fill="#4472C4"/><path d="M2839 19324.7C2839 19330.7 2834.07 19335.7 2828 19335.7 2821.92 19335.7 2817 19330.7 2817 19324.7 2817 19318.6 2821.92 19313.7 2828 19313.7 2834.07 19313.7 2839 19318.6 2839 19324.7Z" stroke="#4472C4" stroke-width="3.4375" stroke-linejoin="round" stroke-miterlimit="10" fill="#4472C4"/><path d="M2843 19345.7C2843 19351.7 2838.07 19356.7 2832 19356.7 2825.92 19356.7 2821 19351.7 2821 19345.7 2821 19339.6 2825.92 19334.7 2832 19334.7 2838.07 19334.7 2843 19339.6 2843 19345.7Z" stroke="#4472C4" stroke-width="3.4375" stroke-linejoin="round" stroke-miterlimit="10" fill="#4472C4"/><path d="M2847 19366.7C2847 19372.7 2842.07 19377.7 2836 19377.7 2829.92 19377.7 2825 19372.7 2825 19366.7 2825 19360.6 2829.92 19355.7 2836 19355.7 2842.07 19355.7 2847 19360.6 2847 19366.7Z" stroke="#4472C4" stroke-width="3.4375" stroke-linejoin="round" stroke-miterlimit="10" fill="#4472C4"/><path d="M2851 19429.7C2851 19435.7 2846.07 19440.7 2840 19440.7 2833.92 19440.7 2829 19435.7 2829 19429.7 2829 19423.6 2833.92 19418.7 2840 19418.7 2846.07 19418.7 2851 19423.6 2851 19429.7Z" stroke="#4472C4" stroke-width="3.4375" stroke-linejoin="round" stroke-miterlimit="10" fill="#4472C4"/><path d="M2855 19261.7C2855 19267.7 2850.07 19272.7 2844 19272.7 2837.92 19272.7 2833 19267.7 2833 19261.7 2833 19255.6 2837.92 19250.7 2844 19250.7 2850.07 19250.7 2855 19255.6 2855 19261.7Z" stroke="#4472C4" stroke-width="3.4375" stroke-linejoin="round" stroke-miterlimit="10" fill="#4472C4"/><path d="M2859 19261.7C2859 19267.7 2854.07 19272.7 2848 19272.7 2841.92 19272.7 2837 19267.7 2837 19261.7 2837 19255.6 2841.92 19250.7 2848 19250.7 2854.07 19250.7 2859 19255.6 2859 19261.7Z" stroke="#4472C4" stroke-width="3.4375" stroke-linejoin="round" stroke-miterlimit="10" fill="#4472C4"/><path d="M2863 19429.7C2863 19435.7 2858.07 19440.7 2852 19440.7 2845.92 19440.7 2841 19435.7 2841 19429.7 2841 19423.6 2845.92 19418.7 2852 19418.7 2858.07 19418.7 2863 19423.6 2863 19429.7Z" stroke="#4472C4" stroke-width="3.4375" stroke-linejoin="round" stroke-miterlimit="10" fill="#4472C4"/><path d="M2867 19429.7C2867 19435.7 2862.07 19440.7 2856 19440.7 2849.92 19440.7 2845 19435.7 2845 19429.7 2845 19423.6 2849.92 19418.7 2856 19418.7 2862.07 19418.7 2867 19423.6 2867 19429.7Z" stroke="#4472C4" stroke-width="3.4375" stroke-linejoin="round" stroke-miterlimit="10" fill="#4472C4"/><path d="M2871 19407.7C2871 19413.7 2866.07 19418.7 2860 19418.7 2853.92 19418.7 2849 19413.7 2849 19407.7 2849 19401.6 2853.92 19396.7 2860 19396.7 2866.07 19396.7 2871 19401.6 2871 19407.7Z" stroke="#4472C4" stroke-width="3.4375" stroke-linejoin="round" stroke-miterlimit="10" fill="#4472C4"/><path d="M2876 19261.7C2876 19267.7 2871.07 19272.7 2865 19272.7 2858.92 19272.7 2854 19267.7 2854 19261.7 2854 19255.6 2858.92 19250.7 2865 19250.7 2871.07 19250.7 2876 19255.6 2876 19261.7Z" stroke="#4472C4" stroke-width="3.4375" stroke-linejoin="round" stroke-miterlimit="10" fill="#4472C4"/><path d="M2880 19407.7C2880 19413.7 2875.07 19418.7 2869 19418.7 2862.92 19418.7 2858 19413.7 2858 19407.7 2858 19401.6 2862.92 19396.7 2869 19396.7 2875.07 19396.7 2880 19401.6 2880 19407.7Z" stroke="#4472C4" stroke-width="3.4375" stroke-linejoin="round" stroke-miterlimit="10" fill="#4472C4"/><path d="M2884 19428.7C2884 19434.7 2879.07 19439.7 2873 19439.7 2866.92 19439.7 2862 19434.7 2862 19428.7 2862 19422.6 2866.92 19417.7 2873 19417.7 2879.07 19417.7 2884 19422.6 2884 19428.7Z" stroke="#4472C4" stroke-width="3.4375" stroke-linejoin="round" stroke-miterlimit="10" fill="#4472C4"/><path d="M2888 19261.7C2888 19267.7 2883.07 19272.7 2877 19272.7 2870.92 19272.7 2866 19267.7 2866 19261.7 2866 19255.6 2870.92 19250.7 2877 19250.7 2883.07 19250.7 2888 19255.6 2888 19261.7Z" stroke="#4472C4" stroke-width="3.4375" stroke-linejoin="round" stroke-miterlimit="10" fill="#4472C4"/><path d="M2892 19261.7C2892 19267.7 2887.07 19272.7 2881 19272.7 2874.92 19272.7 2870 19267.7 2870 19261.7 2870 19255.6 2874.92 19250.7 2881 19250.7 2887.07 19250.7 2892 19255.6 2892 19261.7Z" stroke="#4472C4" stroke-width="3.4375" stroke-linejoin="round" stroke-miterlimit="10" fill="#4472C4"/><path d="M2896 19429.7C2896 19435.7 2891.07 19440.7 2885 19440.7 2878.92 19440.7 2874 19435.7 2874 19429.7 2874 19423.6 2878.92 19418.7 2885 19418.7 2891.07 19418.7 2896 19423.6 2896 19429.7Z" stroke="#4472C4" stroke-width="3.4375" stroke-linejoin="round" stroke-miterlimit="10" fill="#4472C4"/><path d="M2900 19387.7C2900 19393.7 2895.07 19398.7 2889 19398.7 2882.92 19398.7 2878 19393.7 2878 19387.7 2878 19381.6 2882.92 19376.7 2889 19376.7 2895.07 19376.7 2900 19381.6 2900 19387.7Z" stroke="#4472C4" stroke-width="3.4375" stroke-linejoin="round" stroke-miterlimit="10" fill="#4472C4"/><path d="M2904 19282.7C2904 19288.7 2899.07 19293.7 2893 19293.7 2886.92 19293.7 2882 19288.7 2882 19282.7 2882 19276.6 2886.92 19271.7 2893 19271.7 2899.07 19271.7 2904 19276.6 2904 19282.7Z" stroke="#4472C4" stroke-width="3.4375" stroke-linejoin="round" stroke-miterlimit="10" fill="#4472C4"/><path d="M2908 19261.7C2908 19267.7 2903.07 19272.7 2897 19272.7 2890.92 19272.7 2886 19267.7 2886 19261.7 2886 19255.6 2890.92 19250.7 2897 19250.7 2903.07 19250.7 2908 19255.6 2908 19261.7Z" stroke="#4472C4" stroke-width="3.4375" stroke-linejoin="round" stroke-miterlimit="10" fill="#4472C4"/><path d="M2913 19429.7C2913 19435.7 2908.07 19440.7 2902 19440.7 2895.92 19440.7 2891 19435.7 2891 19429.7 2891 19423.6 2895.92 19418.7 2902 19418.7 2908.07 19418.7 2913 19423.6 2913 19429.7Z" stroke="#4472C4" stroke-width="3.4375" stroke-linejoin="round" stroke-miterlimit="10" fill="#4472C4"/><path d="M2917 19429.7C2917 19435.7 2912.07 19440.7 2906 19440.7 2899.92 19440.7 2895 19435.7 2895 19429.7 2895 19423.6 2899.92 19418.7 2906 19418.7 2912.07 19418.7 2917 19423.6 2917 19429.7Z" stroke="#4472C4" stroke-width="3.4375" stroke-linejoin="round" stroke-miterlimit="10" fill="#4472C4"/><path d="M2921 19386.7C2921 19392.7 2916.07 19397.7 2910 19397.7 2903.92 19397.7 2899 19392.7 2899 19386.7 2899 19380.6 2903.92 19375.7 2910 19375.7 2916.07 19375.7 2921 19380.6 2921 19386.7Z" stroke="#4472C4" stroke-width="3.4375" stroke-linejoin="round" stroke-miterlimit="10" fill="#4472C4"/><path d="M2925 19282.7C2925 19288.7 2920.07 19293.7 2914 19293.7 2907.92 19293.7 2903 19288.7 2903 19282.7 2903 19276.6 2907.92 19271.7 2914 19271.7 2920.07 19271.7 2925 19276.6 2925 19282.7Z" stroke="#4472C4" stroke-width="3.4375" stroke-linejoin="round" stroke-miterlimit="10" fill="#4472C4"/><path d="M2929 19429.7C2929 19435.7 2924.07 19440.7 2918 19440.7 2911.92 19440.7 2907 19435.7 2907 19429.7 2907 19423.6 2911.92 19418.7 2918 19418.7 2924.07 19418.7 2929 19423.6 2929 19429.7Z" stroke="#4472C4" stroke-width="3.4375" stroke-linejoin="round" stroke-miterlimit="10" fill="#4472C4"/><path d="M2933 19429.7C2933 19435.7 2928.07 19440.7 2922 19440.7 2915.92 19440.7 2911 19435.7 2911 19429.7 2911 19423.6 2915.92 19418.7 2922 19418.7 2928.07 19418.7 2933 19423.6 2933 19429.7Z" stroke="#4472C4" stroke-width="3.4375" stroke-linejoin="round" stroke-miterlimit="10" fill="#4472C4"/><path d="M2937 19386.7C2937 19392.7 2932.07 19397.7 2926 19397.7 2919.92 19397.7 2915 19392.7 2915 19386.7 2915 19380.6 2919.92 19375.7 2926 19375.7 2932.07 19375.7 2937 19380.6 2937 19386.7Z" stroke="#4472C4" stroke-width="3.4375" stroke-linejoin="round" stroke-miterlimit="10" fill="#4472C4"/><path d="M2941 19261.7C2941 19267.7 2936.07 19272.7 2930 19272.7 2923.92 19272.7 2919 19267.7 2919 19261.7 2919 19255.6 2923.92 19250.7 2930 19250.7 2936.07 19250.7 2941 19255.6 2941 19261.7Z" stroke="#4472C4" stroke-width="3.4375" stroke-linejoin="round" stroke-miterlimit="10" fill="#4472C4"/><path d="M2945 19429.7C2945 19435.7 2940.07 19440.7 2934 19440.7 2927.92 19440.7 2923 19435.7 2923 19429.7 2923 19423.6 2927.92 19418.7 2934 19418.7 2940.07 19418.7 2945 19423.6 2945 19429.7Z" stroke="#4472C4" stroke-width="3.4375" stroke-linejoin="round" stroke-miterlimit="10" fill="#4472C4"/><path d="M2950 19387.7C2950 19393.7 2945.07 19398.7 2939 19398.7 2932.92 19398.7 2928 19393.7 2928 19387.7 2928 19381.6 2932.92 19376.7 2939 19376.7 2945.07 19376.7 2950 19381.6 2950 19387.7Z" stroke="#4472C4" stroke-width="3.4375" stroke-linejoin="round" stroke-miterlimit="10" fill="#4472C4"/><path d="M2954 19387.7C2954 19393.7 2949.07 19398.7 2943 19398.7 2936.92 19398.7 2932 19393.7 2932 19387.7 2932 19381.6 2936.92 19376.7 2943 19376.7 2949.07 19376.7 2954 19381.6 2954 19387.7Z" stroke="#4472C4" stroke-width="3.4375" stroke-linejoin="round" stroke-miterlimit="10" fill="#4472C4"/><path d="M2958 19261.7C2958 19267.7 2953.07 19272.7 2947 19272.7 2940.92 19272.7 2936 19267.7 2936 19261.7 2936 19255.6 2940.92 19250.7 2947 19250.7 2953.07 19250.7 2958 19255.6 2958 19261.7Z" stroke="#4472C4" stroke-width="3.4375" stroke-linejoin="round" stroke-miterlimit="10" fill="#4472C4"/><path d="M2962 19428.7C2962 19434.7 2957.07 19439.7 2951 19439.7 2944.92 19439.7 2940 19434.7 2940 19428.7 2940 19422.6 2944.92 19417.7 2951 19417.7 2957.07 19417.7 2962 19422.6 2962 19428.7Z" stroke="#4472C4" stroke-width="3.4375" stroke-linejoin="round" stroke-miterlimit="10" fill="#4472C4"/><path d="M2966 19408.7C2966 19414.7 2961.07 19419.7 2955 19419.7 2948.92 19419.7 2944 19414.7 2944 19408.7 2944 19402.6 2948.92 19397.7 2955 19397.7 2961.07 19397.7 2966 19402.6 2966 19408.7Z" stroke="#4472C4" stroke-width="3.4375" stroke-linejoin="round" stroke-miterlimit="10" fill="#4472C4"/><path d="M2970 19261.7C2970 19267.7 2965.07 19272.7 2959 19272.7 2952.92 19272.7 2948 19267.7 2948 19261.7 2948 19255.6 2952.92 19250.7 2959 19250.7 2965.07 19250.7 2970 19255.6 2970 19261.7Z" stroke="#4472C4" stroke-width="3.4375" stroke-linejoin="round" stroke-miterlimit="10" fill="#4472C4"/><path d="M2974 19261.7C2974 19267.7 2969.07 19272.7 2963 19272.7 2956.92 19272.7 2952 19267.7 2952 19261.7 2952 19255.6 2956.92 19250.7 2963 19250.7 2969.07 19250.7 2974 19255.6 2974 19261.7Z" stroke="#4472C4" stroke-width="3.4375" stroke-linejoin="round" stroke-miterlimit="10" fill="#4472C4"/><path d="M2978 19429.7C2978 19435.7 2973.07 19440.7 2967 19440.7 2960.92 19440.7 2956 19435.7 2956 19429.7 2956 19423.6 2960.92 19418.7 2967 19418.7 2973.07 19418.7 2978 19423.6 2978 19429.7Z" stroke="#4472C4" stroke-width="3.4375" stroke-linejoin="round" stroke-miterlimit="10" fill="#4472C4"/><path d="M2982 19429.7C2982 19435.7 2977.07 19440.7 2971 19440.7 2964.92 19440.7 2960 19435.7 2960 19429.7 2960 19423.6 2964.92 19418.7 2971 19418.7 2977.07 19418.7 2982 19423.6 2982 19429.7Z" stroke="#4472C4" stroke-width="3.4375" stroke-linejoin="round" stroke-miterlimit="10" fill="#4472C4"/><path d="M2987 19261.7C2987 19267.7 2982.07 19272.7 2976 19272.7 2969.92 19272.7 2965 19267.7 2965 19261.7 2965 19255.6 2969.92 19250.7 2976 19250.7 2982.07 19250.7 2987 19255.6 2987 19261.7Z" stroke="#4472C4" stroke-width="3.4375" stroke-linejoin="round" stroke-miterlimit="10" fill="#4472C4"/><path d="M2991 19261.7C2991 19267.7 2986.07 19272.7 2980 19272.7 2973.92 19272.7 2969 19267.7 2969 19261.7 2969 19255.6 2973.92 19250.7 2980 19250.7 2986.07 19250.7 2991 19255.6 2991 19261.7Z" stroke="#4472C4" stroke-width="3.4375" stroke-linejoin="round" stroke-miterlimit="10" fill="#4472C4"/><path d="M2995 19387.7C2995 19393.7 2990.07 19398.7 2984 19398.7 2977.92 19398.7 2973 19393.7 2973 19387.7 2973 19381.6 2977.92 19376.7 2984 19376.7 2990.07 19376.7 2995 19381.6 2995 19387.7Z" stroke="#4472C4" stroke-width="3.4375" stroke-linejoin="round" stroke-miterlimit="10" fill="#4472C4"/><path d="M2999 19387.7C2999 19393.7 2994.07 19398.7 2988 19398.7 2981.92 19398.7 2977 19393.7 2977 19387.7 2977 19381.6 2981.92 19376.7 2988 19376.7 2994.07 19376.7 2999 19381.6 2999 19387.7Z" stroke="#4472C4" stroke-width="3.4375" stroke-linejoin="round" stroke-miterlimit="10" fill="#4472C4"/><path d="M3003 19407.7C3003 19413.7 2998.07 19418.7 2992 19418.7 2985.92 19418.7 2981 19413.7 2981 19407.7 2981 19401.6 2985.92 19396.7 2992 19396.7 2998.07 19396.7 3003 19401.6 3003 19407.7Z" stroke="#4472C4" stroke-width="3.4375" stroke-linejoin="round" stroke-miterlimit="10" fill="#4472C4"/><path d="M3007 19261.7C3007 19267.7 3002.07 19272.7 2996 19272.7 2989.92 19272.7 2985 19267.7 2985 19261.7 2985 19255.6 2989.92 19250.7 2996 19250.7 3002.07 19250.7 3007 19255.6 3007 19261.7Z" stroke="#4472C4" stroke-width="3.4375" stroke-linejoin="round" stroke-miterlimit="10" fill="#4472C4"/><path d="M3011 19429.7C3011 19435.7 3006.07 19440.7 3000 19440.7 2993.92 19440.7 2989 19435.7 2989 19429.7 2989 19423.6 2993.92 19418.7 3000 19418.7 3006.07 19418.7 3011 19423.6 3011 19429.7Z" stroke="#4472C4" stroke-width="3.4375" stroke-linejoin="round" stroke-miterlimit="10" fill="#4472C4"/><path d="M3015 19429.7C3015 19435.7 3010.07 19440.7 3004 19440.7 2997.92 19440.7 2993 19435.7 2993 19429.7 2993 19423.6 2997.92 19418.7 3004 19418.7 3010.07 19418.7 3015 19423.6 3015 19429.7Z" stroke="#4472C4" stroke-width="3.4375" stroke-linejoin="round" stroke-miterlimit="10" fill="#4472C4"/><path d="M3019 19429.7C3019 19435.7 3014.07 19440.7 3008 19440.7 3001.92 19440.7 2997 19435.7 2997 19429.7 2997 19423.6 3001.92 19418.7 3008 19418.7 3014.07 19418.7 3019 19423.6 3019 19429.7Z" stroke="#4472C4" stroke-width="3.4375" stroke-linejoin="round" stroke-miterlimit="10" fill="#4472C4"/><path d="M3024 19261.7C3024 19267.7 3019.07 19272.7 3013 19272.7 3006.92 19272.7 3002 19267.7 3002 19261.7 3002 19255.6 3006.92 19250.7 3013 19250.7 3019.07 19250.7 3024 19255.6 3024 19261.7Z" stroke="#4472C4" stroke-width="3.4375" stroke-linejoin="round" stroke-miterlimit="10" fill="#4472C4"/><path d="M3028 19429.7C3028 19435.7 3023.07 19440.7 3017 19440.7 3010.92 19440.7 3006 19435.7 3006 19429.7 3006 19423.6 3010.92 19418.7 3017 19418.7 3023.07 19418.7 3028 19423.6 3028 19429.7Z" stroke="#4472C4" stroke-width="3.4375" stroke-linejoin="round" stroke-miterlimit="10" fill="#4472C4"/><path d="M3032 19428.7C3032 19434.7 3027.07 19439.7 3021 19439.7 3014.92 19439.7 3010 19434.7 3010 19428.7 3010 19422.6 3014.92 19417.7 3021 19417.7 3027.07 19417.7 3032 19422.6 3032 19428.7Z" stroke="#4472C4" stroke-width="3.4375" stroke-linejoin="round" stroke-miterlimit="10" fill="#4472C4"/><path d="M3036 19386.7C3036 19392.7 3031.07 19397.7 3025 19397.7 3018.92 19397.7 3014 19392.7 3014 19386.7 3014 19380.6 3018.92 19375.7 3025 19375.7 3031.07 19375.7 3036 19380.6 3036 19386.7Z" stroke="#4472C4" stroke-width="3.4375" stroke-linejoin="round" stroke-miterlimit="10" fill="#4472C4"/><path d="M3040 19261.7C3040 19267.7 3035.07 19272.7 3029 19272.7 3022.92 19272.7 3018 19267.7 3018 19261.7 3018 19255.6 3022.92 19250.7 3029 19250.7 3035.07 19250.7 3040 19255.6 3040 19261.7Z" stroke="#4472C4" stroke-width="3.4375" stroke-linejoin="round" stroke-miterlimit="10" fill="#4472C4"/><path d="M3044 19428.7C3044 19434.7 3039.07 19439.7 3033 19439.7 3026.92 19439.7 3022 19434.7 3022 19428.7 3022 19422.6 3026.92 19417.7 3033 19417.7 3039.07 19417.7 3044 19422.6 3044 19428.7Z" stroke="#4472C4" stroke-width="3.4375" stroke-linejoin="round" stroke-miterlimit="10" fill="#4472C4"/><path d="M3048 19429.7C3048 19435.7 3043.07 19440.7 3037 19440.7 3030.92 19440.7 3026 19435.7 3026 19429.7 3026 19423.6 3030.92 19418.7 3037 19418.7 3043.07 19418.7 3048 19423.6 3048 19429.7Z" stroke="#4472C4" stroke-width="3.4375" stroke-linejoin="round" stroke-miterlimit="10" fill="#4472C4"/><path d="M3052 19261.7C3052 19267.7 3047.07 19272.7 3041 19272.7 3034.92 19272.7 3030 19267.7 3030 19261.7 3030 19255.6 3034.92 19250.7 3041 19250.7 3047.07 19250.7 3052 19255.6 3052 19261.7Z" stroke="#4472C4" stroke-width="3.4375" stroke-linejoin="round" stroke-miterlimit="10" fill="#4472C4"/><path d="M3056 19261.7C3056 19267.7 3051.07 19272.7 3045 19272.7 3038.92 19272.7 3034 19267.7 3034 19261.7 3034 19255.6 3038.92 19250.7 3045 19250.7 3051.07 19250.7 3056 19255.6 3056 19261.7Z" stroke="#4472C4" stroke-width="3.4375" stroke-linejoin="round" stroke-miterlimit="10" fill="#4472C4"/><path d="M3061 19429.7C3061 19435.7 3056.07 19440.7 3050 19440.7 3043.92 19440.7 3039 19435.7 3039 19429.7 3039 19423.6 3043.92 19418.7 3050 19418.7 3056.07 19418.7 3061 19423.6 3061 19429.7Z" stroke="#4472C4" stroke-width="3.4375" stroke-linejoin="round" stroke-miterlimit="10" fill="#4472C4"/><path d="M3065 19408.7C3065 19414.7 3060.07 19419.7 3054 19419.7 3047.92 19419.7 3043 19414.7 3043 19408.7 3043 19402.6 3047.92 19397.7 3054 19397.7 3060.07 19397.7 3065 19402.6 3065 19408.7Z" stroke="#4472C4" stroke-width="3.4375" stroke-linejoin="round" stroke-miterlimit="10" fill="#4472C4"/><path d="M3069 19261.7C3069 19267.7 3064.07 19272.7 3058 19272.7 3051.92 19272.7 3047 19267.7 3047 19261.7 3047 19255.6 3051.92 19250.7 3058 19250.7 3064.07 19250.7 3069 19255.6 3069 19261.7Z" stroke="#4472C4" stroke-width="3.4375" stroke-linejoin="round" stroke-miterlimit="10" fill="#4472C4"/><path d="M3073 19261.7C3073 19267.7 3068.07 19272.7 3062 19272.7 3055.92 19272.7 3051 19267.7 3051 19261.7 3051 19255.6 3055.92 19250.7 3062 19250.7 3068.07 19250.7 3073 19255.6 3073 19261.7Z" stroke="#4472C4" stroke-width="3.4375" stroke-linejoin="round" stroke-miterlimit="10" fill="#4472C4"/><path d="M3077 19366.7C3077 19372.7 3072.07 19377.7 3066 19377.7 3059.92 19377.7 3055 19372.7 3055 19366.7 3055 19360.6 3059.92 19355.7 3066 19355.7 3072.07 19355.7 3077 19360.6 3077 19366.7Z" stroke="#4472C4" stroke-width="3.4375" stroke-linejoin="round" stroke-miterlimit="10" fill="#4472C4"/><path d="M3081 19429.7C3081 19435.7 3076.07 19440.7 3070 19440.7 3063.92 19440.7 3059 19435.7 3059 19429.7 3059 19423.6 3063.92 19418.7 3070 19418.7 3076.07 19418.7 3081 19423.6 3081 19429.7Z" stroke="#4472C4" stroke-width="3.4375" stroke-linejoin="round" stroke-miterlimit="10" fill="#4472C4"/><path d="M3085 19429.7C3085 19435.7 3080.07 19440.7 3074 19440.7 3067.92 19440.7 3063 19435.7 3063 19429.7 3063 19423.6 3067.92 19418.7 3074 19418.7 3080.07 19418.7 3085 19423.6 3085 19429.7Z" stroke="#4472C4" stroke-width="3.4375" stroke-linejoin="round" stroke-miterlimit="10" fill="#4472C4"/><path d="M3089 19261.7C3089 19267.7 3084.07 19272.7 3078 19272.7 3071.92 19272.7 3067 19267.7 3067 19261.7 3067 19255.6 3071.92 19250.7 3078 19250.7 3084.07 19250.7 3089 19255.6 3089 19261.7Z" stroke="#4472C4" stroke-width="3.4375" stroke-linejoin="round" stroke-miterlimit="10" fill="#4472C4"/><path d="M3093 19429.7C3093 19435.7 3088.07 19440.7 3082 19440.7 3075.92 19440.7 3071 19435.7 3071 19429.7 3071 19423.6 3075.92 19418.7 3082 19418.7 3088.07 19418.7 3093 19423.6 3093 19429.7Z" stroke="#4472C4" stroke-width="3.4375" stroke-linejoin="round" stroke-miterlimit="10" fill="#4472C4"/><path d="M3098 19408.7C3098 19414.7 3093.07 19419.7 3087 19419.7 3080.92 19419.7 3076 19414.7 3076 19408.7 3076 19402.6 3080.92 19397.7 3087 19397.7 3093.07 19397.7 3098 19402.6 3098 19408.7Z" stroke="#4472C4" stroke-width="3.4375" stroke-linejoin="round" stroke-miterlimit="10" fill="#4472C4"/><path d="M3102 19429.7C3102 19435.7 3097.07 19440.7 3091 19440.7 3084.92 19440.7 3080 19435.7 3080 19429.7 3080 19423.6 3084.92 19418.7 3091 19418.7 3097.07 19418.7 3102 19423.6 3102 19429.7Z" stroke="#4472C4" stroke-width="3.4375" stroke-linejoin="round" stroke-miterlimit="10" fill="#4472C4"/><path d="M3106 19261.7C3106 19267.7 3101.07 19272.7 3095 19272.7 3088.92 19272.7 3084 19267.7 3084 19261.7 3084 19255.6 3088.92 19250.7 3095 19250.7 3101.07 19250.7 3106 19255.6 3106 19261.7Z" stroke="#4472C4" stroke-width="3.4375" stroke-linejoin="round" stroke-miterlimit="10" fill="#4472C4"/><path d="M3110 19429.7C3110 19435.7 3105.07 19440.7 3099 19440.7 3092.92 19440.7 3088 19435.7 3088 19429.7 3088 19423.6 3092.92 19418.7 3099 19418.7 3105.07 19418.7 3110 19423.6 3110 19429.7Z" stroke="#4472C4" stroke-width="3.4375" stroke-linejoin="round" stroke-miterlimit="10" fill="#4472C4"/><path d="M3114 19428.7C3114 19434.7 3109.07 19439.7 3103 19439.7 3096.92 19439.7 3092 19434.7 3092 19428.7 3092 19422.6 3096.92 19417.7 3103 19417.7 3109.07 19417.7 3114 19422.6 3114 19428.7Z" stroke="#4472C4" stroke-width="3.4375" stroke-linejoin="round" stroke-miterlimit="10" fill="#4472C4"/><path d="M3118 19429.7C3118 19435.7 3113.07 19440.7 3107 19440.7 3100.92 19440.7 3096 19435.7 3096 19429.7 3096 19423.6 3100.92 19418.7 3107 19418.7 3113.07 19418.7 3118 19423.6 3118 19429.7Z" stroke="#4472C4" stroke-width="3.4375" stroke-linejoin="round" stroke-miterlimit="10" fill="#4472C4"/><path d="M3122 19261.7C3122 19267.7 3117.07 19272.7 3111 19272.7 3104.92 19272.7 3100 19267.7 3100 19261.7 3100 19255.6 3104.92 19250.7 3111 19250.7 3117.07 19250.7 3122 19255.6 3122 19261.7Z" stroke="#4472C4" stroke-width="3.4375" stroke-linejoin="round" stroke-miterlimit="10" fill="#4472C4"/><path d="M3126 19429.7C3126 19435.7 3121.07 19440.7 3115 19440.7 3108.92 19440.7 3104 19435.7 3104 19429.7 3104 19423.6 3108.92 19418.7 3115 19418.7 3121.07 19418.7 3126 19423.6 3126 19429.7Z" stroke="#4472C4" stroke-width="3.4375" stroke-linejoin="round" stroke-miterlimit="10" fill="#4472C4"/><path d="M3131 19407.7C3131 19413.7 3126.07 19418.7 3120 19418.7 3113.92 19418.7 3109 19413.7 3109 19407.7 3109 19401.6 3113.92 19396.7 3120 19396.7 3126.07 19396.7 3131 19401.6 3131 19407.7Z" stroke="#4472C4" stroke-width="3.4375" stroke-linejoin="round" stroke-miterlimit="10" fill="#4472C4"/><path d="M3135 19261.7C3135 19267.7 3130.07 19272.7 3124 19272.7 3117.92 19272.7 3113 19267.7 3113 19261.7 3113 19255.6 3117.92 19250.7 3124 19250.7 3130.07 19250.7 3135 19255.6 3135 19261.7Z" stroke="#4472C4" stroke-width="3.4375" stroke-linejoin="round" stroke-miterlimit="10" fill="#4472C4"/><path d="M3139 19261.7C3139 19267.7 3134.07 19272.7 3128 19272.7 3121.92 19272.7 3117 19267.7 3117 19261.7 3117 19255.6 3121.92 19250.7 3128 19250.7 3134.07 19250.7 3139 19255.6 3139 19261.7Z" stroke="#4472C4" stroke-width="3.4375" stroke-linejoin="round" stroke-miterlimit="10" fill="#4472C4"/><path d="M3143 19429.7C3143 19435.7 3138.07 19440.7 3132 19440.7 3125.92 19440.7 3121 19435.7 3121 19429.7 3121 19423.6 3125.92 19418.7 3132 19418.7 3138.07 19418.7 3143 19423.6 3143 19429.7Z" stroke="#4472C4" stroke-width="3.4375" stroke-linejoin="round" stroke-miterlimit="10" fill="#4472C4"/><path d="M3147 19407.7C3147 19413.7 3142.07 19418.7 3136 19418.7 3129.92 19418.7 3125 19413.7 3125 19407.7 3125 19401.6 3129.92 19396.7 3136 19396.7 3142.07 19396.7 3147 19401.6 3147 19407.7Z" stroke="#4472C4" stroke-width="3.4375" stroke-linejoin="round" stroke-miterlimit="10" fill="#4472C4"/><path d="M3151 19261.7C3151 19267.7 3146.07 19272.7 3140 19272.7 3133.92 19272.7 3129 19267.7 3129 19261.7 3129 19255.6 3133.92 19250.7 3140 19250.7 3146.07 19250.7 3151 19255.6 3151 19261.7Z" stroke="#4472C4" stroke-width="3.4375" stroke-linejoin="round" stroke-miterlimit="10" fill="#4472C4"/><path d="M3155 19261.7C3155 19267.7 3150.07 19272.7 3144 19272.7 3137.92 19272.7 3133 19267.7 3133 19261.7 3133 19255.6 3137.92 19250.7 3144 19250.7 3150.07 19250.7 3155 19255.6 3155 19261.7Z" stroke="#4472C4" stroke-width="3.4375" stroke-linejoin="round" stroke-miterlimit="10" fill="#4472C4"/><path d="M3159 19407.7C3159 19413.7 3154.07 19418.7 3148 19418.7 3141.92 19418.7 3137 19413.7 3137 19407.7 3137 19401.6 3141.92 19396.7 3148 19396.7 3154.07 19396.7 3159 19401.6 3159 19407.7Z" stroke="#4472C4" stroke-width="3.4375" stroke-linejoin="round" stroke-miterlimit="10" fill="#4472C4"/><path d="M3163 19387.7C3163 19393.7 3158.07 19398.7 3152 19398.7 3145.92 19398.7 3141 19393.7 3141 19387.7 3141 19381.6 3145.92 19376.7 3152 19376.7 3158.07 19376.7 3163 19381.6 3163 19387.7Z" stroke="#4472C4" stroke-width="3.4375" stroke-linejoin="round" stroke-miterlimit="10" fill="#4472C4"/><path d="M3168 19429.7C3168 19435.7 3163.07 19440.7 3157 19440.7 3150.92 19440.7 3146 19435.7 3146 19429.7 3146 19423.6 3150.92 19418.7 3157 19418.7 3163.07 19418.7 3168 19423.6 3168 19429.7Z" stroke="#4472C4" stroke-width="3.4375" stroke-linejoin="round" stroke-miterlimit="10" fill="#4472C4"/><path d="M3172 19261.7C3172 19267.7 3167.07 19272.7 3161 19272.7 3154.92 19272.7 3150 19267.7 3150 19261.7 3150 19255.6 3154.92 19250.7 3161 19250.7 3167.07 19250.7 3172 19255.6 3172 19261.7Z" stroke="#4472C4" stroke-width="3.4375" stroke-linejoin="round" stroke-miterlimit="10" fill="#4472C4"/><path d="M3176 19429.7C3176 19435.7 3171.07 19440.7 3165 19440.7 3158.92 19440.7 3154 19435.7 3154 19429.7 3154 19423.6 3158.92 19418.7 3165 19418.7 3171.07 19418.7 3176 19423.6 3176 19429.7Z" stroke="#4472C4" stroke-width="3.4375" stroke-linejoin="round" stroke-miterlimit="10" fill="#4472C4"/><path d="M3180 19429.7C3180 19435.7 3175.07 19440.7 3169 19440.7 3162.92 19440.7 3158 19435.7 3158 19429.7 3158 19423.6 3162.92 19418.7 3169 19418.7 3175.07 19418.7 3180 19423.6 3180 19429.7Z" stroke="#4472C4" stroke-width="3.4375" stroke-linejoin="round" stroke-miterlimit="10" fill="#4472C4"/><path d="M3184 19429.7C3184 19435.7 3179.07 19440.7 3173 19440.7 3166.92 19440.7 3162 19435.7 3162 19429.7 3162 19423.6 3166.92 19418.7 3173 19418.7 3179.07 19418.7 3184 19423.6 3184 19429.7Z" stroke="#4472C4" stroke-width="3.4375" stroke-linejoin="round" stroke-miterlimit="10" fill="#4472C4"/><path d="M3188 19261.7C3188 19267.7 3183.07 19272.7 3177 19272.7 3170.92 19272.7 3166 19267.7 3166 19261.7 3166 19255.6 3170.92 19250.7 3177 19250.7 3183.07 19250.7 3188 19255.6 3188 19261.7Z" stroke="#4472C4" stroke-width="3.4375" stroke-linejoin="round" stroke-miterlimit="10" fill="#4472C4"/><path d="M3192 19429.7C3192 19435.7 3187.07 19440.7 3181 19440.7 3174.92 19440.7 3170 19435.7 3170 19429.7 3170 19423.6 3174.92 19418.7 3181 19418.7 3187.07 19418.7 3192 19423.6 3192 19429.7Z" stroke="#4472C4" stroke-width="3.4375" stroke-linejoin="round" stroke-miterlimit="10" fill="#4472C4"/><path d="M3196 19429.7C3196 19435.7 3191.07 19440.7 3185 19440.7 3178.92 19440.7 3174 19435.7 3174 19429.7 3174 19423.6 3178.92 19418.7 3185 19418.7 3191.07 19418.7 3196 19423.6 3196 19429.7Z" stroke="#4472C4" stroke-width="3.4375" stroke-linejoin="round" stroke-miterlimit="10" fill="#4472C4"/><path d="M3200 19366.7C3200 19372.7 3195.07 19377.7 3189 19377.7 3182.92 19377.7 3178 19372.7 3178 19366.7 3178 19360.6 3182.92 19355.7 3189 19355.7 3195.07 19355.7 3200 19360.6 3200 19366.7Z" stroke="#4472C4" stroke-width="3.4375" stroke-linejoin="round" stroke-miterlimit="10" fill="#4472C4"/><path d="M3205 19261.7C3205 19267.7 3200.07 19272.7 3194 19272.7 3187.92 19272.7 3183 19267.7 3183 19261.7 3183 19255.6 3187.92 19250.7 3194 19250.7 3200.07 19250.7 3205 19255.6 3205 19261.7Z" stroke="#4472C4" stroke-width="3.4375" stroke-linejoin="round" stroke-miterlimit="10" fill="#4472C4"/><path d="M3209 19429.7C3209 19435.7 3204.07 19440.7 3198 19440.7 3191.92 19440.7 3187 19435.7 3187 19429.7 3187 19423.6 3191.92 19418.7 3198 19418.7 3204.07 19418.7 3209 19423.6 3209 19429.7Z" stroke="#4472C4" stroke-width="3.4375" stroke-linejoin="round" stroke-miterlimit="10" fill="#4472C4"/><path d="M3213 19429.7C3213 19435.7 3208.07 19440.7 3202 19440.7 3195.92 19440.7 3191 19435.7 3191 19429.7 3191 19423.6 3195.92 19418.7 3202 19418.7 3208.07 19418.7 3213 19423.6 3213 19429.7Z" stroke="#4472C4" stroke-width="3.4375" stroke-linejoin="round" stroke-miterlimit="10" fill="#4472C4"/><path d="M3217 19261.7C3217 19267.7 3212.07 19272.7 3206 19272.7 3199.92 19272.7 3195 19267.7 3195 19261.7 3195 19255.6 3199.92 19250.7 3206 19250.7 3212.07 19250.7 3217 19255.6 3217 19261.7Z" stroke="#4472C4" stroke-width="3.4375" stroke-linejoin="round" stroke-miterlimit="10" fill="#4472C4"/><path d="M3221 19261.7C3221 19267.7 3216.07 19272.7 3210 19272.7 3203.92 19272.7 3199 19267.7 3199 19261.7 3199 19255.6 3203.92 19250.7 3210 19250.7 3216.07 19250.7 3221 19255.6 3221 19261.7Z" stroke="#4472C4" stroke-width="3.4375" stroke-linejoin="round" stroke-miterlimit="10" fill="#4472C4"/><path d="M3225 19429.7C3225 19435.7 3220.07 19440.7 3214 19440.7 3207.92 19440.7 3203 19435.7 3203 19429.7 3203 19423.6 3207.92 19418.7 3214 19418.7 3220.07 19418.7 3225 19423.6 3225 19429.7Z" stroke="#4472C4" stroke-width="3.4375" stroke-linejoin="round" stroke-miterlimit="10" fill="#4472C4"/><path d="M3229 19429.7C3229 19435.7 3224.07 19440.7 3218 19440.7 3211.92 19440.7 3207 19435.7 3207 19429.7 3207 19423.6 3211.92 19418.7 3218 19418.7 3224.07 19418.7 3229 19423.6 3229 19429.7Z" stroke="#4472C4" stroke-width="3.4375" stroke-linejoin="round" stroke-miterlimit="10" fill="#4472C4"/><path d="M3233 19261.7C3233 19267.7 3228.07 19272.7 3222 19272.7 3215.92 19272.7 3211 19267.7 3211 19261.7 3211 19255.6 3215.92 19250.7 3222 19250.7 3228.07 19250.7 3233 19255.6 3233 19261.7Z" stroke="#4472C4" stroke-width="3.4375" stroke-linejoin="round" stroke-miterlimit="10" fill="#4472C4"/><path d="M3237 19261.7C3237 19267.7 3232.07 19272.7 3226 19272.7 3219.92 19272.7 3215 19267.7 3215 19261.7 3215 19255.6 3219.92 19250.7 3226 19250.7 3232.07 19250.7 3237 19255.6 3237 19261.7Z" stroke="#4472C4" stroke-width="3.4375" stroke-linejoin="round" stroke-miterlimit="10" fill="#4472C4"/><path d="M3242 19429.7C3242 19435.7 3237.07 19440.7 3231 19440.7 3224.92 19440.7 3220 19435.7 3220 19429.7 3220 19423.6 3224.92 19418.7 3231 19418.7 3237.07 19418.7 3242 19423.6 3242 19429.7Z" stroke="#4472C4" stroke-width="3.4375" stroke-linejoin="round" stroke-miterlimit="10" fill="#4472C4"/><path d="M3246 19429.7C3246 19435.7 3241.07 19440.7 3235 19440.7 3228.92 19440.7 3224 19435.7 3224 19429.7 3224 19423.6 3228.92 19418.7 3235 19418.7 3241.07 19418.7 3246 19423.6 3246 19429.7Z" stroke="#4472C4" stroke-width="3.4375" stroke-linejoin="round" stroke-miterlimit="10" fill="#4472C4"/><path d="M3250 19387.7C3250 19393.7 3245.07 19398.7 3239 19398.7 3232.92 19398.7 3228 19393.7 3228 19387.7 3228 19381.6 3232.92 19376.7 3239 19376.7 3245.07 19376.7 3250 19381.6 3250 19387.7Z" stroke="#4472C4" stroke-width="3.4375" stroke-linejoin="round" stroke-miterlimit="10" fill="#4472C4"/><path d="M3254 19261.7C3254 19267.7 3249.07 19272.7 3243 19272.7 3236.92 19272.7 3232 19267.7 3232 19261.7 3232 19255.6 3236.92 19250.7 3243 19250.7 3249.07 19250.7 3254 19255.6 3254 19261.7Z" stroke="#4472C4" stroke-width="3.4375" stroke-linejoin="round" stroke-miterlimit="10" fill="#4472C4"/><path d="M3258 19429.7C3258 19435.7 3253.07 19440.7 3247 19440.7 3240.92 19440.7 3236 19435.7 3236 19429.7 3236 19423.6 3240.92 19418.7 3247 19418.7 3253.07 19418.7 3258 19423.6 3258 19429.7Z" stroke="#4472C4" stroke-width="3.4375" stroke-linejoin="round" stroke-miterlimit="10" fill="#4472C4"/><path d="M3262 19429.7C3262 19435.7 3257.07 19440.7 3251 19440.7 3244.92 19440.7 3240 19435.7 3240 19429.7 3240 19423.6 3244.92 19418.7 3251 19418.7 3257.07 19418.7 3262 19423.6 3262 19429.7Z" stroke="#4472C4" stroke-width="3.4375" stroke-linejoin="round" stroke-miterlimit="10" fill="#4472C4"/><path d="M3266 19429.7C3266 19435.7 3261.07 19440.7 3255 19440.7 3248.92 19440.7 3244 19435.7 3244 19429.7 3244 19423.6 3248.92 19418.7 3255 19418.7 3261.07 19418.7 3266 19423.6 3266 19429.7Z" stroke="#4472C4" stroke-width="3.4375" stroke-linejoin="round" stroke-miterlimit="10" fill="#4472C4"/><path d="M3270 19261.7C3270 19267.7 3265.07 19272.7 3259 19272.7 3252.92 19272.7 3248 19267.7 3248 19261.7 3248 19255.6 3252.92 19250.7 3259 19250.7 3265.07 19250.7 3270 19255.6 3270 19261.7Z" stroke="#4472C4" stroke-width="3.4375" stroke-linejoin="round" stroke-miterlimit="10" fill="#4472C4"/><path d="M3274 19429.7C3274 19435.7 3269.07 19440.7 3263 19440.7 3256.92 19440.7 3252 19435.7 3252 19429.7 3252 19423.6 3256.92 19418.7 3263 19418.7 3269.07 19418.7 3274 19423.6 3274 19429.7Z" stroke="#4472C4" stroke-width="3.4375" stroke-linejoin="round" stroke-miterlimit="10" fill="#4472C4"/><path d="M3279 19429.7C3279 19435.7 3274.07 19440.7 3268 19440.7 3261.92 19440.7 3257 19435.7 3257 19429.7 3257 19423.6 3261.92 19418.7 3268 19418.7 3274.07 19418.7 3279 19423.6 3279 19429.7Z" stroke="#4472C4" stroke-width="3.4375" stroke-linejoin="round" stroke-miterlimit="10" fill="#4472C4"/><path d="M3283 19429.7C3283 19435.7 3278.07 19440.7 3272 19440.7 3265.92 19440.7 3261 19435.7 3261 19429.7 3261 19423.6 3265.92 19418.7 3272 19418.7 3278.07 19418.7 3283 19423.6 3283 19429.7Z" stroke="#4472C4" stroke-width="3.4375" stroke-linejoin="round" stroke-miterlimit="10" fill="#4472C4"/><path d="M3287 19261.7C3287 19267.7 3282.07 19272.7 3276 19272.7 3269.92 19272.7 3265 19267.7 3265 19261.7 3265 19255.6 3269.92 19250.7 3276 19250.7 3282.07 19250.7 3287 19255.6 3287 19261.7Z" stroke="#4472C4" stroke-width="3.4375" stroke-linejoin="round" stroke-miterlimit="10" fill="#4472C4"/><path d="M3291 19428.7C3291 19434.7 3286.07 19439.7 3280 19439.7 3273.92 19439.7 3269 19434.7 3269 19428.7 3269 19422.6 3273.92 19417.7 3280 19417.7 3286.07 19417.7 3291 19422.6 3291 19428.7Z" stroke="#4472C4" stroke-width="3.4375" stroke-linejoin="round" stroke-miterlimit="10" fill="#4472C4"/><path d="M3295 19429.7C3295 19435.7 3290.07 19440.7 3284 19440.7 3277.92 19440.7 3273 19435.7 3273 19429.7 3273 19423.6 3277.92 19418.7 3284 19418.7 3290.07 19418.7 3295 19423.6 3295 19429.7Z" stroke="#4472C4" stroke-width="3.4375" stroke-linejoin="round" stroke-miterlimit="10" fill="#4472C4"/><path d="M3299 19261.7C3299 19267.7 3294.07 19272.7 3288 19272.7 3281.92 19272.7 3277 19267.7 3277 19261.7 3277 19255.6 3281.92 19250.7 3288 19250.7 3294.07 19250.7 3299 19255.6 3299 19261.7Z" stroke="#4472C4" stroke-width="3.4375" stroke-linejoin="round" stroke-miterlimit="10" fill="#4472C4"/><path d="M3303 19261.7C3303 19267.7 3298.07 19272.7 3292 19272.7 3285.92 19272.7 3281 19267.7 3281 19261.7 3281 19255.6 3285.92 19250.7 3292 19250.7 3298.07 19250.7 3303 19255.6 3303 19261.7Z" stroke="#4472C4" stroke-width="3.4375" stroke-linejoin="round" stroke-miterlimit="10" fill="#4472C4"/><path d="M3307 19429.7C3307 19435.7 3302.07 19440.7 3296 19440.7 3289.92 19440.7 3285 19435.7 3285 19429.7 3285 19423.6 3289.92 19418.7 3296 19418.7 3302.07 19418.7 3307 19423.6 3307 19429.7Z" stroke="#4472C4" stroke-width="3.4375" stroke-linejoin="round" stroke-miterlimit="10" fill="#4472C4"/><path d="M3311 19429.7C3311 19435.7 3306.07 19440.7 3300 19440.7 3293.92 19440.7 3289 19435.7 3289 19429.7 3289 19423.6 3293.92 19418.7 3300 19418.7 3306.07 19418.7 3311 19423.6 3311 19429.7Z" stroke="#4472C4" stroke-width="3.4375" stroke-linejoin="round" stroke-miterlimit="10" fill="#4472C4"/><path d="M3316 19261.7C3316 19267.7 3311.07 19272.7 3305 19272.7 3298.92 19272.7 3294 19267.7 3294 19261.7 3294 19255.6 3298.92 19250.7 3305 19250.7 3311.07 19250.7 3316 19255.6 3316 19261.7Z" stroke="#4472C4" stroke-width="3.4375" stroke-linejoin="round" stroke-miterlimit="10" fill="#4472C4"/><path d="M3320 19261.7C3320 19267.7 3315.07 19272.7 3309 19272.7 3302.92 19272.7 3298 19267.7 3298 19261.7 3298 19255.6 3302.92 19250.7 3309 19250.7 3315.07 19250.7 3320 19255.6 3320 19261.7Z" stroke="#4472C4" stroke-width="3.4375" stroke-linejoin="round" stroke-miterlimit="10" fill="#4472C4"/><path d="M3324 19408.7C3324 19414.7 3319.07 19419.7 3313 19419.7 3306.92 19419.7 3302 19414.7 3302 19408.7 3302 19402.6 3306.92 19397.7 3313 19397.7 3319.07 19397.7 3324 19402.6 3324 19408.7Z" stroke="#4472C4" stroke-width="3.4375" stroke-linejoin="round" stroke-miterlimit="10" fill="#4472C4"/><path d="M3328 19429.7C3328 19435.7 3323.07 19440.7 3317 19440.7 3310.92 19440.7 3306 19435.7 3306 19429.7 3306 19423.6 3310.92 19418.7 3317 19418.7 3323.07 19418.7 3328 19423.6 3328 19429.7Z" stroke="#4472C4" stroke-width="3.4375" stroke-linejoin="round" stroke-miterlimit="10" fill="#4472C4"/><path d="M3332 19408.7C3332 19414.7 3327.07 19419.7 3321 19419.7 3314.92 19419.7 3310 19414.7 3310 19408.7 3310 19402.6 3314.92 19397.7 3321 19397.7 3327.07 19397.7 3332 19402.6 3332 19408.7Z" stroke="#4472C4" stroke-width="3.4375" stroke-linejoin="round" stroke-miterlimit="10" fill="#4472C4"/><path d="M3336 19282.7C3336 19288.7 3331.07 19293.7 3325 19293.7 3318.92 19293.7 3314 19288.7 3314 19282.7 3314 19276.6 3318.92 19271.7 3325 19271.7 3331.07 19271.7 3336 19276.6 3336 19282.7Z" stroke="#4472C4" stroke-width="3.4375" stroke-linejoin="round" stroke-miterlimit="10" fill="#4472C4"/><path d="M3340 19428.7C3340 19434.7 3335.07 19439.7 3329 19439.7 3322.92 19439.7 3318 19434.7 3318 19428.7 3318 19422.6 3322.92 19417.7 3329 19417.7 3335.07 19417.7 3340 19422.6 3340 19428.7Z" stroke="#4472C4" stroke-width="3.4375" stroke-linejoin="round" stroke-miterlimit="10" fill="#4472C4"/><path d="M3344 19366.7C3344 19372.7 3339.07 19377.7 3333 19377.7 3326.92 19377.7 3322 19372.7 3322 19366.7 3322 19360.6 3326.92 19355.7 3333 19355.7 3339.07 19355.7 3344 19360.6 3344 19366.7Z" stroke="#4472C4" stroke-width="3.4375" stroke-linejoin="round" stroke-miterlimit="10" fill="#4472C4"/><path d="M3348 19429.7C3348 19435.7 3343.07 19440.7 3337 19440.7 3330.92 19440.7 3326 19435.7 3326 19429.7 3326 19423.6 3330.92 19418.7 3337 19418.7 3343.07 19418.7 3348 19423.6 3348 19429.7Z" stroke="#4472C4" stroke-width="3.4375" stroke-linejoin="round" stroke-miterlimit="10" fill="#4472C4"/><path d="M3353 19261.7C3353 19267.7 3348.07 19272.7 3342 19272.7 3335.92 19272.7 3331 19267.7 3331 19261.7 3331 19255.6 3335.92 19250.7 3342 19250.7 3348.07 19250.7 3353 19255.6 3353 19261.7Z" stroke="#4472C4" stroke-width="3.4375" stroke-linejoin="round" stroke-miterlimit="10" fill="#4472C4"/><path d="M3357 19428.7C3357 19434.7 3352.07 19439.7 3346 19439.7 3339.92 19439.7 3335 19434.7 3335 19428.7 3335 19422.6 3339.92 19417.7 3346 19417.7 3352.07 19417.7 3357 19422.6 3357 19428.7Z" stroke="#4472C4" stroke-width="3.4375" stroke-linejoin="round" stroke-miterlimit="10" fill="#4472C4"/><path d="M3361 19387.7C3361 19393.7 3356.07 19398.7 3350 19398.7 3343.92 19398.7 3339 19393.7 3339 19387.7 3339 19381.6 3343.92 19376.7 3350 19376.7 3356.07 19376.7 3361 19381.6 3361 19387.7Z" stroke="#4472C4" stroke-width="3.4375" stroke-linejoin="round" stroke-miterlimit="10" fill="#4472C4"/><path d="M3365 19408.7C3365 19414.7 3360.07 19419.7 3354 19419.7 3347.92 19419.7 3343 19414.7 3343 19408.7 3343 19402.6 3347.92 19397.7 3354 19397.7 3360.07 19397.7 3365 19402.6 3365 19408.7Z" stroke="#4472C4" stroke-width="3.4375" stroke-linejoin="round" stroke-miterlimit="10" fill="#4472C4"/><path d="M3369 19261.7C3369 19267.7 3364.07 19272.7 3358 19272.7 3351.92 19272.7 3347 19267.7 3347 19261.7 3347 19255.6 3351.92 19250.7 3358 19250.7 3364.07 19250.7 3369 19255.6 3369 19261.7Z" stroke="#4472C4" stroke-width="3.4375" stroke-linejoin="round" stroke-miterlimit="10" fill="#4472C4"/><path d="M3373 19429.7C3373 19435.7 3368.07 19440.7 3362 19440.7 3355.92 19440.7 3351 19435.7 3351 19429.7 3351 19423.6 3355.92 19418.7 3362 19418.7 3368.07 19418.7 3373 19423.6 3373 19429.7Z" stroke="#4472C4" stroke-width="3.4375" stroke-linejoin="round" stroke-miterlimit="10" fill="#4472C4"/><path d="M3377 19408.7C3377 19414.7 3372.07 19419.7 3366 19419.7 3359.92 19419.7 3355 19414.7 3355 19408.7 3355 19402.6 3359.92 19397.7 3366 19397.7 3372.07 19397.7 3377 19402.6 3377 19408.7Z" stroke="#4472C4" stroke-width="3.4375" stroke-linejoin="round" stroke-miterlimit="10" fill="#4472C4"/><path d="M3381 19261.7C3381 19267.7 3376.07 19272.7 3370 19272.7 3363.92 19272.7 3359 19267.7 3359 19261.7 3359 19255.6 3363.92 19250.7 3370 19250.7 3376.07 19250.7 3381 19255.6 3381 19261.7Z" stroke="#4472C4" stroke-width="3.4375" stroke-linejoin="round" stroke-miterlimit="10" fill="#4472C4"/><path d="M3385 19261.7C3385 19267.7 3380.07 19272.7 3374 19272.7 3367.92 19272.7 3363 19267.7 3363 19261.7 3363 19255.6 3367.92 19250.7 3374 19250.7 3380.07 19250.7 3385 19255.6 3385 19261.7Z" stroke="#4472C4" stroke-width="3.4375" stroke-linejoin="round" stroke-miterlimit="10" fill="#4472C4"/><path d="M3390 19428.7C3390 19434.7 3385.07 19439.7 3379 19439.7 3372.92 19439.7 3368 19434.7 3368 19428.7 3368 19422.6 3372.92 19417.7 3379 19417.7 3385.07 19417.7 3390 19422.6 3390 19428.7Z" stroke="#4472C4" stroke-width="3.4375" stroke-linejoin="round" stroke-miterlimit="10" fill="#4472C4"/><path d="M3394 19386.7C3394 19392.7 3389.07 19397.7 3383 19397.7 3376.92 19397.7 3372 19392.7 3372 19386.7 3372 19380.6 3376.92 19375.7 3383 19375.7 3389.07 19375.7 3394 19380.6 3394 19386.7Z" stroke="#4472C4" stroke-width="3.4375" stroke-linejoin="round" stroke-miterlimit="10" fill="#4472C4"/><path d="M3398 19261.7C3398 19267.7 3393.07 19272.7 3387 19272.7 3380.92 19272.7 3376 19267.7 3376 19261.7 3376 19255.6 3380.92 19250.7 3387 19250.7 3393.07 19250.7 3398 19255.6 3398 19261.7Z" stroke="#4472C4" stroke-width="3.4375" stroke-linejoin="round" stroke-miterlimit="10" fill="#4472C4"/><path d="M3402 19261.7C3402 19267.7 3397.07 19272.7 3391 19272.7 3384.92 19272.7 3380 19267.7 3380 19261.7 3380 19255.6 3384.92 19250.7 3391 19250.7 3397.07 19250.7 3402 19255.6 3402 19261.7Z" stroke="#4472C4" stroke-width="3.4375" stroke-linejoin="round" stroke-miterlimit="10" fill="#4472C4"/><path d="M3406 19429.7C3406 19435.7 3401.07 19440.7 3395 19440.7 3388.92 19440.7 3384 19435.7 3384 19429.7 3384 19423.6 3388.92 19418.7 3395 19418.7 3401.07 19418.7 3406 19423.6 3406 19429.7Z" stroke="#4472C4" stroke-width="3.4375" stroke-linejoin="round" stroke-miterlimit="10" fill="#4472C4"/><path d="M3410 19429.7C3410 19435.7 3405.07 19440.7 3399 19440.7 3392.92 19440.7 3388 19435.7 3388 19429.7 3388 19423.6 3392.92 19418.7 3399 19418.7 3405.07 19418.7 3410 19423.6 3410 19429.7Z" stroke="#4472C4" stroke-width="3.4375" stroke-linejoin="round" stroke-miterlimit="10" fill="#4472C4"/><path d="M3414 19386.7C3414 19392.7 3409.07 19397.7 3403 19397.7 3396.92 19397.7 3392 19392.7 3392 19386.7 3392 19380.6 3396.92 19375.7 3403 19375.7 3409.07 19375.7 3414 19380.6 3414 19386.7Z" stroke="#4472C4" stroke-width="3.4375" stroke-linejoin="round" stroke-miterlimit="10" fill="#4472C4"/><path d="M3418 19261.7C3418 19267.7 3413.07 19272.7 3407 19272.7 3400.92 19272.7 3396 19267.7 3396 19261.7 3396 19255.6 3400.92 19250.7 3407 19250.7 3413.07 19250.7 3418 19255.6 3418 19261.7Z" stroke="#4472C4" stroke-width="3.4375" stroke-linejoin="round" stroke-miterlimit="10" fill="#4472C4"/><path d="M3422 19408.7C3422 19414.7 3417.07 19419.7 3411 19419.7 3404.92 19419.7 3400 19414.7 3400 19408.7 3400 19402.6 3404.92 19397.7 3411 19397.7 3417.07 19397.7 3422 19402.6 3422 19408.7Z" stroke="#4472C4" stroke-width="3.4375" stroke-linejoin="round" stroke-miterlimit="10" fill="#4472C4"/><path d="M3427 19429.7C3427 19435.7 3422.07 19440.7 3416 19440.7 3409.92 19440.7 3405 19435.7 3405 19429.7 3405 19423.6 3409.92 19418.7 3416 19418.7 3422.07 19418.7 3427 19423.6 3427 19429.7Z" stroke="#4472C4" stroke-width="3.4375" stroke-linejoin="round" stroke-miterlimit="10" fill="#4472C4"/><path d="M3431 19429.7C3431 19435.7 3426.07 19440.7 3420 19440.7 3413.92 19440.7 3409 19435.7 3409 19429.7 3409 19423.6 3413.92 19418.7 3420 19418.7 3426.07 19418.7 3431 19423.6 3431 19429.7Z" stroke="#4472C4" stroke-width="3.4375" stroke-linejoin="round" stroke-miterlimit="10" fill="#4472C4"/><path d="M3435 19261.7C3435 19267.7 3430.07 19272.7 3424 19272.7 3417.92 19272.7 3413 19267.7 3413 19261.7 3413 19255.6 3417.92 19250.7 3424 19250.7 3430.07 19250.7 3435 19255.6 3435 19261.7Z" stroke="#4472C4" stroke-width="3.4375" stroke-linejoin="round" stroke-miterlimit="10" fill="#4472C4"/><path d="M3439 19387.7C3439 19393.7 3434.07 19398.7 3428 19398.7 3421.92 19398.7 3417 19393.7 3417 19387.7 3417 19381.6 3421.92 19376.7 3428 19376.7 3434.07 19376.7 3439 19381.6 3439 19387.7Z" stroke="#4472C4" stroke-width="3.4375" stroke-linejoin="round" stroke-miterlimit="10" fill="#4472C4"/><path d="M3443 19366.7C3443 19372.7 3438.07 19377.7 3432 19377.7 3425.92 19377.7 3421 19372.7 3421 19366.7 3421 19360.6 3425.92 19355.7 3432 19355.7 3438.07 19355.7 3443 19360.6 3443 19366.7Z" stroke="#4472C4" stroke-width="3.4375" stroke-linejoin="round" stroke-miterlimit="10" fill="#4472C4"/><path d="M3447 19428.7C3447 19434.7 3442.07 19439.7 3436 19439.7 3429.92 19439.7 3425 19434.7 3425 19428.7 3425 19422.6 3429.92 19417.7 3436 19417.7 3442.07 19417.7 3447 19422.6 3447 19428.7Z" stroke="#4472C4" stroke-width="3.4375" stroke-linejoin="round" stroke-miterlimit="10" fill="#4472C4"/><path d="M3451 19261.7C3451 19267.7 3446.07 19272.7 3440 19272.7 3433.92 19272.7 3429 19267.7 3429 19261.7 3429 19255.6 3433.92 19250.7 3440 19250.7 3446.07 19250.7 3451 19255.6 3451 19261.7Z" stroke="#4472C4" stroke-width="3.4375" stroke-linejoin="round" stroke-miterlimit="10" fill="#4472C4"/><path d="M3455 19408.7C3455 19414.7 3450.07 19419.7 3444 19419.7 3437.92 19419.7 3433 19414.7 3433 19408.7 3433 19402.6 3437.92 19397.7 3444 19397.7 3450.07 19397.7 3455 19402.6 3455 19408.7Z" stroke="#4472C4" stroke-width="3.4375" stroke-linejoin="round" stroke-miterlimit="10" fill="#4472C4"/><path d="M3459 19429.7C3459 19435.7 3454.07 19440.7 3448 19440.7 3441.92 19440.7 3437 19435.7 3437 19429.7 3437 19423.6 3441.92 19418.7 3448 19418.7 3454.07 19418.7 3459 19423.6 3459 19429.7Z" stroke="#4472C4" stroke-width="3.4375" stroke-linejoin="round" stroke-miterlimit="10" fill="#4472C4"/><path d="M3464 19261.7C3464 19267.7 3459.07 19272.7 3453 19272.7 3446.92 19272.7 3442 19267.7 3442 19261.7 3442 19255.6 3446.92 19250.7 3453 19250.7 3459.07 19250.7 3464 19255.6 3464 19261.7Z" stroke="#4472C4" stroke-width="3.4375" stroke-linejoin="round" stroke-miterlimit="10" fill="#4472C4"/><path d="M3468 19261.7C3468 19267.7 3463.07 19272.7 3457 19272.7 3450.92 19272.7 3446 19267.7 3446 19261.7 3446 19255.6 3450.92 19250.7 3457 19250.7 3463.07 19250.7 3468 19255.6 3468 19261.7Z" stroke="#4472C4" stroke-width="3.4375" stroke-linejoin="round" stroke-miterlimit="10" fill="#4472C4"/><path d="M3472 19429.7C3472 19435.7 3467.07 19440.7 3461 19440.7 3454.92 19440.7 3450 19435.7 3450 19429.7 3450 19423.6 3454.92 19418.7 3461 19418.7 3467.07 19418.7 3472 19423.6 3472 19429.7Z" stroke="#4472C4" stroke-width="3.4375" stroke-linejoin="round" stroke-miterlimit="10" fill="#4472C4"/><path d="M3476 19408.7C3476 19414.7 3471.07 19419.7 3465 19419.7 3458.92 19419.7 3454 19414.7 3454 19408.7 3454 19402.6 3458.92 19397.7 3465 19397.7 3471.07 19397.7 3476 19402.6 3476 19408.7Z" stroke="#4472C4" stroke-width="3.4375" stroke-linejoin="round" stroke-miterlimit="10" fill="#4472C4"/><path d="M3480 19261.7C3480 19267.7 3475.07 19272.7 3469 19272.7 3462.92 19272.7 3458 19267.7 3458 19261.7 3458 19255.6 3462.92 19250.7 3469 19250.7 3475.07 19250.7 3480 19255.6 3480 19261.7Z" stroke="#4472C4" stroke-width="3.4375" stroke-linejoin="round" stroke-miterlimit="10" fill="#4472C4"/><path d="M3484 19261.7C3484 19267.7 3479.07 19272.7 3473 19272.7 3466.92 19272.7 3462 19267.7 3462 19261.7 3462 19255.6 3466.92 19250.7 3473 19250.7 3479.07 19250.7 3484 19255.6 3484 19261.7Z" stroke="#4472C4" stroke-width="3.4375" stroke-linejoin="round" stroke-miterlimit="10" fill="#4472C4"/><path d="M3488 19428.7C3488 19434.7 3483.07 19439.7 3477 19439.7 3470.92 19439.7 3466 19434.7 3466 19428.7 3466 19422.6 3470.92 19417.7 3477 19417.7 3483.07 19417.7 3488 19422.6 3488 19428.7Z" stroke="#4472C4" stroke-width="3.4375" stroke-linejoin="round" stroke-miterlimit="10" fill="#4472C4"/><path d="M3492 19429.7C3492 19435.7 3487.07 19440.7 3481 19440.7 3474.92 19440.7 3470 19435.7 3470 19429.7 3470 19423.6 3474.92 19418.7 3481 19418.7 3487.07 19418.7 3492 19423.6 3492 19429.7Z" stroke="#4472C4" stroke-width="3.4375" stroke-linejoin="round" stroke-miterlimit="10" fill="#4472C4"/><path d="M3496 19429.7C3496 19435.7 3491.07 19440.7 3485 19440.7 3478.92 19440.7 3474 19435.7 3474 19429.7 3474 19423.6 3478.92 19418.7 3485 19418.7 3491.07 19418.7 3496 19423.6 3496 19429.7Z" stroke="#4472C4" stroke-width="3.4375" stroke-linejoin="round" stroke-miterlimit="10" fill="#4472C4"/><path d="M3501 19261.7C3501 19267.7 3496.07 19272.7 3490 19272.7 3483.92 19272.7 3479 19267.7 3479 19261.7 3479 19255.6 3483.92 19250.7 3490 19250.7 3496.07 19250.7 3501 19255.6 3501 19261.7Z" stroke="#4472C4" stroke-width="3.4375" stroke-linejoin="round" stroke-miterlimit="10" fill="#4472C4"/><path d="M3505 19428.7C3505 19434.7 3500.07 19439.7 3494 19439.7 3487.92 19439.7 3483 19434.7 3483 19428.7 3483 19422.6 3487.92 19417.7 3494 19417.7 3500.07 19417.7 3505 19422.6 3505 19428.7Z" stroke="#4472C4" stroke-width="3.4375" stroke-linejoin="round" stroke-miterlimit="10" fill="#4472C4"/><path d="M3509 19429.7C3509 19435.7 3504.07 19440.7 3498 19440.7 3491.92 19440.7 3487 19435.7 3487 19429.7 3487 19423.6 3491.92 19418.7 3498 19418.7 3504.07 19418.7 3509 19423.6 3509 19429.7Z" stroke="#4472C4" stroke-width="3.4375" stroke-linejoin="round" stroke-miterlimit="10" fill="#4472C4"/><path d="M3513 19386.7C3513 19392.7 3508.07 19397.7 3502 19397.7 3495.92 19397.7 3491 19392.7 3491 19386.7 3491 19380.6 3495.92 19375.7 3502 19375.7 3508.07 19375.7 3513 19380.6 3513 19386.7Z" stroke="#4472C4" stroke-width="3.4375" stroke-linejoin="round" stroke-miterlimit="10" fill="#4472C4"/><path d="M3517 19261.7C3517 19267.7 3512.07 19272.7 3506 19272.7 3499.92 19272.7 3495 19267.7 3495 19261.7 3495 19255.6 3499.92 19250.7 3506 19250.7 3512.07 19250.7 3517 19255.6 3517 19261.7Z" stroke="#4472C4" stroke-width="3.4375" stroke-linejoin="round" stroke-miterlimit="10" fill="#4472C4"/><path d="M3521 19387.7C3521 19393.7 3516.07 19398.7 3510 19398.7 3503.92 19398.7 3499 19393.7 3499 19387.7 3499 19381.6 3503.92 19376.7 3510 19376.7 3516.07 19376.7 3521 19381.6 3521 19387.7Z" stroke="#4472C4" stroke-width="3.4375" stroke-linejoin="round" stroke-miterlimit="10" fill="#4472C4"/><path d="M3525 19429.7C3525 19435.7 3520.07 19440.7 3514 19440.7 3507.92 19440.7 3503 19435.7 3503 19429.7 3503 19423.6 3507.92 19418.7 3514 19418.7 3520.07 19418.7 3525 19423.6 3525 19429.7Z" stroke="#4472C4" stroke-width="3.4375" stroke-linejoin="round" stroke-miterlimit="10" fill="#4472C4"/><path d="M3529 19303.7C3529 19309.7 3524.07 19314.7 3518 19314.7 3511.92 19314.7 3507 19309.7 3507 19303.7 3507 19297.6 3511.92 19292.7 3518 19292.7 3524.07 19292.7 3529 19297.6 3529 19303.7Z" stroke="#4472C4" stroke-width="3.4375" stroke-linejoin="round" stroke-miterlimit="10" fill="#4472C4"/><path d="M3533 19261.7C3533 19267.7 3528.07 19272.7 3522 19272.7 3515.92 19272.7 3511 19267.7 3511 19261.7 3511 19255.6 3515.92 19250.7 3522 19250.7 3528.07 19250.7 3533 19255.6 3533 19261.7Z" stroke="#4472C4" stroke-width="3.4375" stroke-linejoin="round" stroke-miterlimit="10" fill="#4472C4"/><path d="M3538 19428.7C3538 19434.7 3533.07 19439.7 3527 19439.7 3520.92 19439.7 3516 19434.7 3516 19428.7 3516 19422.6 3520.92 19417.7 3527 19417.7 3533.07 19417.7 3538 19422.6 3538 19428.7Z" stroke="#4472C4" stroke-width="3.4375" stroke-linejoin="round" stroke-miterlimit="10" fill="#4472C4"/><path d="M3542 19387.7C3542 19393.7 3537.07 19398.7 3531 19398.7 3524.92 19398.7 3520 19393.7 3520 19387.7 3520 19381.6 3524.92 19376.7 3531 19376.7 3537.07 19376.7 3542 19381.6 3542 19387.7Z" stroke="#4472C4" stroke-width="3.4375" stroke-linejoin="round" stroke-miterlimit="10" fill="#4472C4"/><path d="M3546 19261.7C3546 19267.7 3541.07 19272.7 3535 19272.7 3528.92 19272.7 3524 19267.7 3524 19261.7 3524 19255.6 3528.92 19250.7 3535 19250.7 3541.07 19250.7 3546 19255.6 3546 19261.7Z" stroke="#4472C4" stroke-width="3.4375" stroke-linejoin="round" stroke-miterlimit="10" fill="#4472C4"/><path d="M3550 19261.7C3550 19267.7 3545.07 19272.7 3539 19272.7 3532.92 19272.7 3528 19267.7 3528 19261.7 3528 19255.6 3532.92 19250.7 3539 19250.7 3545.07 19250.7 3550 19255.6 3550 19261.7Z" stroke="#4472C4" stroke-width="3.4375" stroke-linejoin="round" stroke-miterlimit="10" fill="#4472C4"/><path d="M3554 19408.7C3554 19414.7 3549.07 19419.7 3543 19419.7 3536.92 19419.7 3532 19414.7 3532 19408.7 3532 19402.6 3536.92 19397.7 3543 19397.7 3549.07 19397.7 3554 19402.6 3554 19408.7Z" stroke="#4472C4" stroke-width="3.4375" stroke-linejoin="round" stroke-miterlimit="10" fill="#4472C4"/><path d="M3558 19429.7C3558 19435.7 3553.07 19440.7 3547 19440.7 3540.92 19440.7 3536 19435.7 3536 19429.7 3536 19423.6 3540.92 19418.7 3547 19418.7 3553.07 19418.7 3558 19423.6 3558 19429.7Z" stroke="#4472C4" stroke-width="3.4375" stroke-linejoin="round" stroke-miterlimit="10" fill="#4472C4"/><path d="M3562 19261.7C3562 19267.7 3557.07 19272.7 3551 19272.7 3544.92 19272.7 3540 19267.7 3540 19261.7 3540 19255.6 3544.92 19250.7 3551 19250.7 3557.07 19250.7 3562 19255.6 3562 19261.7Z" stroke="#4472C4" stroke-width="3.4375" stroke-linejoin="round" stroke-miterlimit="10" fill="#4472C4"/><path d="M3566 19261.7C3566 19267.7 3561.07 19272.7 3555 19272.7 3548.92 19272.7 3544 19267.7 3544 19261.7 3544 19255.6 3548.92 19250.7 3555 19250.7 3561.07 19250.7 3566 19255.6 3566 19261.7Z" stroke="#4472C4" stroke-width="3.4375" stroke-linejoin="round" stroke-miterlimit="10" fill="#4472C4"/><path d="M3570 19429.7C3570 19435.7 3565.07 19440.7 3559 19440.7 3552.92 19440.7 3548 19435.7 3548 19429.7 3548 19423.6 3552.92 19418.7 3559 19418.7 3565.07 19418.7 3570 19423.6 3570 19429.7Z" stroke="#4472C4" stroke-width="3.4375" stroke-linejoin="round" stroke-miterlimit="10" fill="#4472C4"/><path d="M3575 19429.7C3575 19435.7 3570.07 19440.7 3564 19440.7 3557.92 19440.7 3553 19435.7 3553 19429.7 3553 19423.6 3557.92 19418.7 3564 19418.7 3570.07 19418.7 3575 19423.6 3575 19429.7Z" stroke="#4472C4" stroke-width="3.4375" stroke-linejoin="round" stroke-miterlimit="10" fill="#4472C4"/><path d="M3579 19429.7C3579 19435.7 3574.07 19440.7 3568 19440.7 3561.92 19440.7 3557 19435.7 3557 19429.7 3557 19423.6 3561.92 19418.7 3568 19418.7 3574.07 19418.7 3579 19423.6 3579 19429.7Z" stroke="#4472C4" stroke-width="3.4375" stroke-linejoin="round" stroke-miterlimit="10" fill="#4472C4"/><path d="M3583 19261.7C3583 19267.7 3578.07 19272.7 3572 19272.7 3565.92 19272.7 3561 19267.7 3561 19261.7 3561 19255.6 3565.92 19250.7 3572 19250.7 3578.07 19250.7 3583 19255.6 3583 19261.7Z" stroke="#4472C4" stroke-width="3.4375" stroke-linejoin="round" stroke-miterlimit="10" fill="#4472C4"/><path d="M3587 19429.7C3587 19435.7 3582.07 19440.7 3576 19440.7 3569.92 19440.7 3565 19435.7 3565 19429.7 3565 19423.6 3569.92 19418.7 3576 19418.7 3582.07 19418.7 3587 19423.6 3587 19429.7Z" stroke="#4472C4" stroke-width="3.4375" stroke-linejoin="round" stroke-miterlimit="10" fill="#4472C4"/><path d="M3591 19429.7C3591 19435.7 3586.07 19440.7 3580 19440.7 3573.92 19440.7 3569 19435.7 3569 19429.7 3569 19423.6 3573.92 19418.7 3580 19418.7 3586.07 19418.7 3591 19423.6 3591 19429.7Z" stroke="#4472C4" stroke-width="3.4375" stroke-linejoin="round" stroke-miterlimit="10" fill="#4472C4"/><path d="M3595 19429.7C3595 19435.7 3590.07 19440.7 3584 19440.7 3577.92 19440.7 3573 19435.7 3573 19429.7 3573 19423.6 3577.92 19418.7 3584 19418.7 3590.07 19418.7 3595 19423.6 3595 19429.7Z" stroke="#4472C4" stroke-width="3.4375" stroke-linejoin="round" stroke-miterlimit="10" fill="#4472C4"/><path d="M3599 19261.7C3599 19267.7 3594.07 19272.7 3588 19272.7 3581.92 19272.7 3577 19267.7 3577 19261.7 3577 19255.6 3581.92 19250.7 3588 19250.7 3594.07 19250.7 3599 19255.6 3599 19261.7Z" stroke="#4472C4" stroke-width="3.4375" stroke-linejoin="round" stroke-miterlimit="10" fill="#4472C4"/><path d="M3603 19429.7C3603 19435.7 3598.07 19440.7 3592 19440.7 3585.92 19440.7 3581 19435.7 3581 19429.7 3581 19423.6 3585.92 19418.7 3592 19418.7 3598.07 19418.7 3603 19423.6 3603 19429.7Z" stroke="#4472C4" stroke-width="3.4375" stroke-linejoin="round" stroke-miterlimit="10" fill="#4472C4"/><path d="M3607 19429.7C3607 19435.7 3602.07 19440.7 3596 19440.7 3589.92 19440.7 3585 19435.7 3585 19429.7 3585 19423.6 3589.92 19418.7 3596 19418.7 3602.07 19418.7 3607 19423.6 3607 19429.7Z" stroke="#4472C4" stroke-width="3.4375" stroke-linejoin="round" stroke-miterlimit="10" fill="#4472C4"/><path d="M3612 19387.7C3612 19393.7 3607.07 19398.7 3601 19398.7 3594.92 19398.7 3590 19393.7 3590 19387.7 3590 19381.6 3594.92 19376.7 3601 19376.7 3607.07 19376.7 3612 19381.6 3612 19387.7Z" stroke="#4472C4" stroke-width="3.4375" stroke-linejoin="round" stroke-miterlimit="10" fill="#4472C4"/><path d="M3616 19261.7C3616 19267.7 3611.07 19272.7 3605 19272.7 3598.92 19272.7 3594 19267.7 3594 19261.7 3594 19255.6 3598.92 19250.7 3605 19250.7 3611.07 19250.7 3616 19255.6 3616 19261.7Z" stroke="#4472C4" stroke-width="3.4375" stroke-linejoin="round" stroke-miterlimit="10" fill="#4472C4"/><path d="M3620 19408.7C3620 19414.7 3615.07 19419.7 3609 19419.7 3602.92 19419.7 3598 19414.7 3598 19408.7 3598 19402.6 3602.92 19397.7 3609 19397.7 3615.07 19397.7 3620 19402.6 3620 19408.7Z" stroke="#4472C4" stroke-width="3.4375" stroke-linejoin="round" stroke-miterlimit="10" fill="#4472C4"/><path d="M3624 19429.7C3624 19435.7 3619.07 19440.7 3613 19440.7 3606.92 19440.7 3602 19435.7 3602 19429.7 3602 19423.6 3606.92 19418.7 3613 19418.7 3619.07 19418.7 3624 19423.6 3624 19429.7Z" stroke="#4472C4" stroke-width="3.4375" stroke-linejoin="round" stroke-miterlimit="10" fill="#4472C4"/><path d="M3628 19261.7C3628 19267.7 3623.07 19272.7 3617 19272.7 3610.92 19272.7 3606 19267.7 3606 19261.7 3606 19255.6 3610.92 19250.7 3617 19250.7 3623.07 19250.7 3628 19255.6 3628 19261.7Z" stroke="#4472C4" stroke-width="3.4375" stroke-linejoin="round" stroke-miterlimit="10" fill="#4472C4"/><path d="M3632 19261.7C3632 19267.7 3627.07 19272.7 3621 19272.7 3614.92 19272.7 3610 19267.7 3610 19261.7 3610 19255.6 3614.92 19250.7 3621 19250.7 3627.07 19250.7 3632 19255.6 3632 19261.7Z" stroke="#4472C4" stroke-width="3.4375" stroke-linejoin="round" stroke-miterlimit="10" fill="#4472C4"/><path d="M3636 19429.7C3636 19435.7 3631.07 19440.7 3625 19440.7 3618.92 19440.7 3614 19435.7 3614 19429.7 3614 19423.6 3618.92 19418.7 3625 19418.7 3631.07 19418.7 3636 19423.6 3636 19429.7Z" stroke="#4472C4" stroke-width="3.4375" stroke-linejoin="round" stroke-miterlimit="10" fill="#4472C4"/><path d="M3640 19387.7C3640 19393.7 3635.07 19398.7 3629 19398.7 3622.92 19398.7 3618 19393.7 3618 19387.7 3618 19381.6 3622.92 19376.7 3629 19376.7 3635.07 19376.7 3640 19381.6 3640 19387.7Z" stroke="#4472C4" stroke-width="3.4375" stroke-linejoin="round" stroke-miterlimit="10" fill="#4472C4"/><path d="M3644 19261.7C3644 19267.7 3639.07 19272.7 3633 19272.7 3626.92 19272.7 3622 19267.7 3622 19261.7 3622 19255.6 3626.92 19250.7 3633 19250.7 3639.07 19250.7 3644 19255.6 3644 19261.7Z" stroke="#4472C4" stroke-width="3.4375" stroke-linejoin="round" stroke-miterlimit="10" fill="#4472C4"/><path d="M3649 19261.7C3649 19267.7 3644.07 19272.7 3638 19272.7 3631.92 19272.7 3627 19267.7 3627 19261.7 3627 19255.6 3631.92 19250.7 3638 19250.7 3644.07 19250.7 3649 19255.6 3649 19261.7Z" stroke="#4472C4" stroke-width="3.4375" stroke-linejoin="round" stroke-miterlimit="10" fill="#4472C4"/><path d="M3653 19408.7C3653 19414.7 3648.07 19419.7 3642 19419.7 3635.92 19419.7 3631 19414.7 3631 19408.7 3631 19402.6 3635.92 19397.7 3642 19397.7 3648.07 19397.7 3653 19402.6 3653 19408.7Z" stroke="#4472C4" stroke-width="3.4375" stroke-linejoin="round" stroke-miterlimit="10" fill="#4472C4"/><path d="M3657 19429.7C3657 19435.7 3652.07 19440.7 3646 19440.7 3639.92 19440.7 3635 19435.7 3635 19429.7 3635 19423.6 3639.92 19418.7 3646 19418.7 3652.07 19418.7 3657 19423.6 3657 19429.7Z" stroke="#4472C4" stroke-width="3.4375" stroke-linejoin="round" stroke-miterlimit="10" fill="#4472C4"/><path d="M3661 19429.7C3661 19435.7 3656.07 19440.7 3650 19440.7 3643.92 19440.7 3639 19435.7 3639 19429.7 3639 19423.6 3643.92 19418.7 3650 19418.7 3656.07 19418.7 3661 19423.6 3661 19429.7Z" stroke="#4472C4" stroke-width="3.4375" stroke-linejoin="round" stroke-miterlimit="10" fill="#4472C4"/><path d="M3665 19261.7C3665 19267.7 3660.07 19272.7 3654 19272.7 3647.92 19272.7 3643 19267.7 3643 19261.7 3643 19255.6 3647.92 19250.7 3654 19250.7 3660.07 19250.7 3665 19255.6 3665 19261.7Z" stroke="#4472C4" stroke-width="3.4375" stroke-linejoin="round" stroke-miterlimit="10" fill="#4472C4"/><path d="M3669 19429.7C3669 19435.7 3664.07 19440.7 3658 19440.7 3651.92 19440.7 3647 19435.7 3647 19429.7 3647 19423.6 3651.92 19418.7 3658 19418.7 3664.07 19418.7 3669 19423.6 3669 19429.7Z" stroke="#4472C4" stroke-width="3.4375" stroke-linejoin="round" stroke-miterlimit="10" fill="#4472C4"/><path d="M3673 19387.7C3673 19393.7 3668.07 19398.7 3662 19398.7 3655.92 19398.7 3651 19393.7 3651 19387.7 3651 19381.6 3655.92 19376.7 3662 19376.7 3668.07 19376.7 3673 19381.6 3673 19387.7Z" stroke="#4472C4" stroke-width="3.4375" stroke-linejoin="round" stroke-miterlimit="10" fill="#4472C4"/><path d="M3677 19428.7C3677 19434.7 3672.07 19439.7 3666 19439.7 3659.92 19439.7 3655 19434.7 3655 19428.7 3655 19422.6 3659.92 19417.7 3666 19417.7 3672.07 19417.7 3677 19422.6 3677 19428.7Z" stroke="#4472C4" stroke-width="3.4375" stroke-linejoin="round" stroke-miterlimit="10" fill="#4472C4"/><path d="M3681 19261.7C3681 19267.7 3676.07 19272.7 3670 19272.7 3663.92 19272.7 3659 19267.7 3659 19261.7 3659 19255.6 3663.92 19250.7 3670 19250.7 3676.07 19250.7 3681 19255.6 3681 19261.7Z" stroke="#4472C4" stroke-width="3.4375" stroke-linejoin="round" stroke-miterlimit="10" fill="#4472C4"/><path d="M3686 19429.7C3686 19435.7 3681.07 19440.7 3675 19440.7 3668.92 19440.7 3664 19435.7 3664 19429.7 3664 19423.6 3668.92 19418.7 3675 19418.7 3681.07 19418.7 3686 19423.6 3686 19429.7Z" stroke="#4472C4" stroke-width="3.4375" stroke-linejoin="round" stroke-miterlimit="10" fill="#4472C4"/><path d="M3690 19387.7C3690 19393.7 3685.07 19398.7 3679 19398.7 3672.92 19398.7 3668 19393.7 3668 19387.7 3668 19381.6 3672.92 19376.7 3679 19376.7 3685.07 19376.7 3690 19381.6 3690 19387.7Z" stroke="#4472C4" stroke-width="3.4375" stroke-linejoin="round" stroke-miterlimit="10" fill="#4472C4"/><path d="M3694 19345.7C3694 19351.7 3689.07 19356.7 3683 19356.7 3676.92 19356.7 3672 19351.7 3672 19345.7 3672 19339.6 3676.92 19334.7 3683 19334.7 3689.07 19334.7 3694 19339.6 3694 19345.7Z" stroke="#4472C4" stroke-width="3.4375" stroke-linejoin="round" stroke-miterlimit="10" fill="#4472C4"/><path d="M3698 19261.7C3698 19267.7 3693.07 19272.7 3687 19272.7 3680.92 19272.7 3676 19267.7 3676 19261.7 3676 19255.6 3680.92 19250.7 3687 19250.7 3693.07 19250.7 3698 19255.6 3698 19261.7Z" stroke="#4472C4" stroke-width="3.4375" stroke-linejoin="round" stroke-miterlimit="10" fill="#4472C4"/><path d="M3702 19429.7C3702 19435.7 3697.07 19440.7 3691 19440.7 3684.92 19440.7 3680 19435.7 3680 19429.7 3680 19423.6 3684.92 19418.7 3691 19418.7 3697.07 19418.7 3702 19423.6 3702 19429.7Z" stroke="#4472C4" stroke-width="3.4375" stroke-linejoin="round" stroke-miterlimit="10" fill="#4472C4"/><path d="M3706 19429.7C3706 19435.7 3701.07 19440.7 3695 19440.7 3688.92 19440.7 3684 19435.7 3684 19429.7 3684 19423.6 3688.92 19418.7 3695 19418.7 3701.07 19418.7 3706 19423.6 3706 19429.7Z" stroke="#4472C4" stroke-width="3.4375" stroke-linejoin="round" stroke-miterlimit="10" fill="#4472C4"/><path d="M3710 19261.7C3710 19267.7 3705.07 19272.7 3699 19272.7 3692.92 19272.7 3688 19267.7 3688 19261.7 3688 19255.6 3692.92 19250.7 3699 19250.7 3705.07 19250.7 3710 19255.6 3710 19261.7Z" stroke="#4472C4" stroke-width="3.4375" stroke-linejoin="round" stroke-miterlimit="10" fill="#4472C4"/><path d="M3714 19261.7C3714 19267.7 3709.07 19272.7 3703 19272.7 3696.92 19272.7 3692 19267.7 3692 19261.7 3692 19255.6 3696.92 19250.7 3703 19250.7 3709.07 19250.7 3714 19255.6 3714 19261.7Z" stroke="#4472C4" stroke-width="3.4375" stroke-linejoin="round" stroke-miterlimit="10" fill="#4472C4"/><path d="M3718 19429.7C3718 19435.7 3713.07 19440.7 3707 19440.7 3700.92 19440.7 3696 19435.7 3696 19429.7 3696 19423.6 3700.92 19418.7 3707 19418.7 3713.07 19418.7 3718 19423.6 3718 19429.7Z" stroke="#4472C4" stroke-width="3.4375" stroke-linejoin="round" stroke-miterlimit="10" fill="#4472C4"/><path d="M3723 19429.7C3723 19435.7 3718.07 19440.7 3712 19440.7 3705.92 19440.7 3701 19435.7 3701 19429.7 3701 19423.6 3705.92 19418.7 3712 19418.7 3718.07 19418.7 3723 19423.6 3723 19429.7Z" stroke="#4472C4" stroke-width="3.4375" stroke-linejoin="round" stroke-miterlimit="10" fill="#4472C4"/><path d="M3727 19261.7C3727 19267.7 3722.07 19272.7 3716 19272.7 3709.92 19272.7 3705 19267.7 3705 19261.7 3705 19255.6 3709.92 19250.7 3716 19250.7 3722.07 19250.7 3727 19255.6 3727 19261.7Z" stroke="#4472C4" stroke-width="3.4375" stroke-linejoin="round" stroke-miterlimit="10" fill="#4472C4"/><path d="M3731 19261.7C3731 19267.7 3726.07 19272.7 3720 19272.7 3713.92 19272.7 3709 19267.7 3709 19261.7 3709 19255.6 3713.92 19250.7 3720 19250.7 3726.07 19250.7 3731 19255.6 3731 19261.7Z" stroke="#4472C4" stroke-width="3.4375" stroke-linejoin="round" stroke-miterlimit="10" fill="#4472C4"/><path d="M3735 19428.7C3735 19434.7 3730.07 19439.7 3724 19439.7 3717.92 19439.7 3713 19434.7 3713 19428.7 3713 19422.6 3717.92 19417.7 3724 19417.7 3730.07 19417.7 3735 19422.6 3735 19428.7Z" stroke="#4472C4" stroke-width="3.4375" stroke-linejoin="round" stroke-miterlimit="10" fill="#4472C4"/><path d="M3739 19428.7C3739 19434.7 3734.07 19439.7 3728 19439.7 3721.92 19439.7 3717 19434.7 3717 19428.7 3717 19422.6 3721.92 19417.7 3728 19417.7 3734.07 19417.7 3739 19422.6 3739 19428.7Z" stroke="#4472C4" stroke-width="3.4375" stroke-linejoin="round" stroke-miterlimit="10" fill="#4472C4"/><path d="M3743 19303.7C3743 19309.7 3738.07 19314.7 3732 19314.7 3725.92 19314.7 3721 19309.7 3721 19303.7 3721 19297.6 3725.92 19292.7 3732 19292.7 3738.07 19292.7 3743 19297.6 3743 19303.7Z" stroke="#4472C4" stroke-width="3.4375" stroke-linejoin="round" stroke-miterlimit="10" fill="#4472C4"/><path d="M3747 19261.7C3747 19267.7 3742.07 19272.7 3736 19272.7 3729.92 19272.7 3725 19267.7 3725 19261.7 3725 19255.6 3729.92 19250.7 3736 19250.7 3742.07 19250.7 3747 19255.6 3747 19261.7Z" stroke="#4472C4" stroke-width="3.4375" stroke-linejoin="round" stroke-miterlimit="10" fill="#4472C4"/><path d="M3751 19408.7C3751 19414.7 3746.07 19419.7 3740 19419.7 3733.92 19419.7 3729 19414.7 3729 19408.7 3729 19402.6 3733.92 19397.7 3740 19397.7 3746.07 19397.7 3751 19402.6 3751 19408.7Z" stroke="#4472C4" stroke-width="3.4375" stroke-linejoin="round" stroke-miterlimit="10" fill="#4472C4"/><path d="M3756 19387.7C3756 19393.7 3751.07 19398.7 3745 19398.7 3738.92 19398.7 3734 19393.7 3734 19387.7 3734 19381.6 3738.92 19376.7 3745 19376.7 3751.07 19376.7 3756 19381.6 3756 19387.7Z" stroke="#4472C4" stroke-width="3.4375" stroke-linejoin="round" stroke-miterlimit="10" fill="#4472C4"/><path d="M3760 19429.7C3760 19435.7 3755.07 19440.7 3749 19440.7 3742.92 19440.7 3738 19435.7 3738 19429.7 3738 19423.6 3742.92 19418.7 3749 19418.7 3755.07 19418.7 3760 19423.6 3760 19429.7Z" stroke="#4472C4" stroke-width="3.4375" stroke-linejoin="round" stroke-miterlimit="10" fill="#4472C4"/><path d="M3764 19303.7C3764 19309.7 3759.07 19314.7 3753 19314.7 3746.92 19314.7 3742 19309.7 3742 19303.7 3742 19297.6 3746.92 19292.7 3753 19292.7 3759.07 19292.7 3764 19297.6 3764 19303.7Z" stroke="#4472C4" stroke-width="3.4375" stroke-linejoin="round" stroke-miterlimit="10" fill="#4472C4"/><path d="M3768 19429.7C3768 19435.7 3763.07 19440.7 3757 19440.7 3750.92 19440.7 3746 19435.7 3746 19429.7 3746 19423.6 3750.92 19418.7 3757 19418.7 3763.07 19418.7 3768 19423.6 3768 19429.7Z" stroke="#4472C4" stroke-width="3.4375" stroke-linejoin="round" stroke-miterlimit="10" fill="#4472C4"/><path d="M3772 19429.7C3772 19435.7 3767.07 19440.7 3761 19440.7 3754.92 19440.7 3750 19435.7 3750 19429.7 3750 19423.6 3754.92 19418.7 3761 19418.7 3767.07 19418.7 3772 19423.6 3772 19429.7Z" stroke="#4472C4" stroke-width="3.4375" stroke-linejoin="round" stroke-miterlimit="10" fill="#4472C4"/><path d="M3776 19303.7C3776 19309.7 3771.07 19314.7 3765 19314.7 3758.92 19314.7 3754 19309.7 3754 19303.7 3754 19297.6 3758.92 19292.7 3765 19292.7 3771.07 19292.7 3776 19297.6 3776 19303.7Z" stroke="#4472C4" stroke-width="3.4375" stroke-linejoin="round" stroke-miterlimit="10" fill="#4472C4"/><path d="M3780 19261.7C3780 19267.7 3775.07 19272.7 3769 19272.7 3762.92 19272.7 3758 19267.7 3758 19261.7 3758 19255.6 3762.92 19250.7 3769 19250.7 3775.07 19250.7 3780 19255.6 3780 19261.7Z" stroke="#4472C4" stroke-width="3.4375" stroke-linejoin="round" stroke-miterlimit="10" fill="#4472C4"/><path d="M3784 19428.7C3784 19434.7 3779.07 19439.7 3773 19439.7 3766.92 19439.7 3762 19434.7 3762 19428.7 3762 19422.6 3766.92 19417.7 3773 19417.7 3779.07 19417.7 3784 19422.6 3784 19428.7Z" stroke="#4472C4" stroke-width="3.4375" stroke-linejoin="round" stroke-miterlimit="10" fill="#4472C4"/><path d="M3788 19407.7C3788 19413.7 3783.07 19418.7 3777 19418.7 3770.92 19418.7 3766 19413.7 3766 19407.7 3766 19401.6 3770.92 19396.7 3777 19396.7 3783.07 19396.7 3788 19401.6 3788 19407.7Z" stroke="#4472C4" stroke-width="3.4375" stroke-linejoin="round" stroke-miterlimit="10" fill="#4472C4"/><path d="M3793 19261.7C3793 19267.7 3788.07 19272.7 3782 19272.7 3775.92 19272.7 3771 19267.7 3771 19261.7 3771 19255.6 3775.92 19250.7 3782 19250.7 3788.07 19250.7 3793 19255.6 3793 19261.7Z" stroke="#4472C4" stroke-width="3.4375" stroke-linejoin="round" stroke-miterlimit="10" fill="#4472C4"/><path d="M3797 19261.7C3797 19267.7 3792.07 19272.7 3786 19272.7 3779.92 19272.7 3775 19267.7 3775 19261.7 3775 19255.6 3779.92 19250.7 3786 19250.7 3792.07 19250.7 3797 19255.6 3797 19261.7Z" stroke="#4472C4" stroke-width="3.4375" stroke-linejoin="round" stroke-miterlimit="10" fill="#4472C4"/><path d="M3801 19429.7C3801 19435.7 3796.07 19440.7 3790 19440.7 3783.92 19440.7 3779 19435.7 3779 19429.7 3779 19423.6 3783.92 19418.7 3790 19418.7 3796.07 19418.7 3801 19423.6 3801 19429.7Z" stroke="#4472C4" stroke-width="3.4375" stroke-linejoin="round" stroke-miterlimit="10" fill="#4472C4"/><path d="M3805 19428.7C3805 19434.7 3800.07 19439.7 3794 19439.7 3787.92 19439.7 3783 19434.7 3783 19428.7 3783 19422.6 3787.92 19417.7 3794 19417.7 3800.07 19417.7 3805 19422.6 3805 19428.7Z" stroke="#4472C4" stroke-width="3.4375" stroke-linejoin="round" stroke-miterlimit="10" fill="#4472C4"/><path d="M3809 19261.7C3809 19267.7 3804.07 19272.7 3798 19272.7 3791.92 19272.7 3787 19267.7 3787 19261.7 3787 19255.6 3791.92 19250.7 3798 19250.7 3804.07 19250.7 3809 19255.6 3809 19261.7Z" stroke="#4472C4" stroke-width="3.4375" stroke-linejoin="round" stroke-miterlimit="10" fill="#4472C4"/><path d="M3813 19261.7C3813 19267.7 3808.07 19272.7 3802 19272.7 3795.92 19272.7 3791 19267.7 3791 19261.7 3791 19255.6 3795.92 19250.7 3802 19250.7 3808.07 19250.7 3813 19255.6 3813 19261.7Z" stroke="#4472C4" stroke-width="3.4375" stroke-linejoin="round" stroke-miterlimit="10" fill="#4472C4"/><path d="M3817 19429.7C3817 19435.7 3812.07 19440.7 3806 19440.7 3799.92 19440.7 3795 19435.7 3795 19429.7 3795 19423.6 3799.92 19418.7 3806 19418.7 3812.07 19418.7 3817 19423.6 3817 19429.7Z" stroke="#4472C4" stroke-width="3.4375" stroke-linejoin="round" stroke-miterlimit="10" fill="#4472C4"/><path d="M3821 19408.7C3821 19414.7 3816.07 19419.7 3810 19419.7 3803.92 19419.7 3799 19414.7 3799 19408.7 3799 19402.6 3803.92 19397.7 3810 19397.7 3816.07 19397.7 3821 19402.6 3821 19408.7Z" stroke="#4472C4" stroke-width="3.4375" stroke-linejoin="round" stroke-miterlimit="10" fill="#4472C4"/><path d="M3825 19429.7C3825 19435.7 3820.07 19440.7 3814 19440.7 3807.92 19440.7 3803 19435.7 3803 19429.7 3803 19423.6 3807.92 19418.7 3814 19418.7 3820.07 19418.7 3825 19423.6 3825 19429.7Z" stroke="#4472C4" stroke-width="3.4375" stroke-linejoin="round" stroke-miterlimit="10" fill="#4472C4"/><path d="M3830 19261.7C3830 19267.7 3825.07 19272.7 3819 19272.7 3812.92 19272.7 3808 19267.7 3808 19261.7 3808 19255.6 3812.92 19250.7 3819 19250.7 3825.07 19250.7 3830 19255.6 3830 19261.7Z" stroke="#4472C4" stroke-width="3.4375" stroke-linejoin="round" stroke-miterlimit="10" fill="#4472C4"/><path d="M3834 19387.7C3834 19393.7 3829.07 19398.7 3823 19398.7 3816.92 19398.7 3812 19393.7 3812 19387.7 3812 19381.6 3816.92 19376.7 3823 19376.7 3829.07 19376.7 3834 19381.6 3834 19387.7Z" stroke="#4472C4" stroke-width="3.4375" stroke-linejoin="round" stroke-miterlimit="10" fill="#4472C4"/><path d="M3838 19429.7C3838 19435.7 3833.07 19440.7 3827 19440.7 3820.92 19440.7 3816 19435.7 3816 19429.7 3816 19423.6 3820.92 19418.7 3827 19418.7 3833.07 19418.7 3838 19423.6 3838 19429.7Z" stroke="#4472C4" stroke-width="3.4375" stroke-linejoin="round" stroke-miterlimit="10" fill="#4472C4"/><path d="M3842 19407.7C3842 19413.7 3837.07 19418.7 3831 19418.7 3824.92 19418.7 3820 19413.7 3820 19407.7 3820 19401.6 3824.92 19396.7 3831 19396.7 3837.07 19396.7 3842 19401.6 3842 19407.7Z" stroke="#4472C4" stroke-width="3.4375" stroke-linejoin="round" stroke-miterlimit="10" fill="#4472C4"/><path d="M3846 19261.7C3846 19267.7 3841.07 19272.7 3835 19272.7 3828.92 19272.7 3824 19267.7 3824 19261.7 3824 19255.6 3828.92 19250.7 3835 19250.7 3841.07 19250.7 3846 19255.6 3846 19261.7Z" stroke="#4472C4" stroke-width="3.4375" stroke-linejoin="round" stroke-miterlimit="10" fill="#4472C4"/><path d="M3850 19428.7C3850 19434.7 3845.07 19439.7 3839 19439.7 3832.92 19439.7 3828 19434.7 3828 19428.7 3828 19422.6 3832.92 19417.7 3839 19417.7 3845.07 19417.7 3850 19422.6 3850 19428.7Z" stroke="#4472C4" stroke-width="3.4375" stroke-linejoin="round" stroke-miterlimit="10" fill="#4472C4"/><path d="M3854 19387.7C3854 19393.7 3849.07 19398.7 3843 19398.7 3836.92 19398.7 3832 19393.7 3832 19387.7 3832 19381.6 3836.92 19376.7 3843 19376.7 3849.07 19376.7 3854 19381.6 3854 19387.7Z" stroke="#4472C4" stroke-width="3.4375" stroke-linejoin="round" stroke-miterlimit="10" fill="#4472C4"/><path d="M3858 19407.7C3858 19413.7 3853.07 19418.7 3847 19418.7 3840.92 19418.7 3836 19413.7 3836 19407.7 3836 19401.6 3840.92 19396.7 3847 19396.7 3853.07 19396.7 3858 19401.6 3858 19407.7Z" stroke="#4472C4" stroke-width="3.4375" stroke-linejoin="round" stroke-miterlimit="10" fill="#4472C4"/><path d="M3862 19261.7C3862 19267.7 3857.07 19272.7 3851 19272.7 3844.92 19272.7 3840 19267.7 3840 19261.7 3840 19255.6 3844.92 19250.7 3851 19250.7 3857.07 19250.7 3862 19255.6 3862 19261.7Z" stroke="#4472C4" stroke-width="3.4375" stroke-linejoin="round" stroke-miterlimit="10" fill="#4472C4"/><path d="M3867 19387.7C3867 19393.7 3862.07 19398.7 3856 19398.7 3849.92 19398.7 3845 19393.7 3845 19387.7 3845 19381.6 3849.92 19376.7 3856 19376.7 3862.07 19376.7 3867 19381.6 3867 19387.7Z" stroke="#4472C4" stroke-width="3.4375" stroke-linejoin="round" stroke-miterlimit="10" fill="#4472C4"/><path d="M3871 19429.7C3871 19435.7 3866.07 19440.7 3860 19440.7 3853.92 19440.7 3849 19435.7 3849 19429.7 3849 19423.6 3853.92 19418.7 3860 19418.7 3866.07 19418.7 3871 19423.6 3871 19429.7Z" stroke="#4472C4" stroke-width="3.4375" stroke-linejoin="round" stroke-miterlimit="10" fill="#4472C4"/><path d="M3875 19261.7C3875 19267.7 3870.07 19272.7 3864 19272.7 3857.92 19272.7 3853 19267.7 3853 19261.7 3853 19255.6 3857.92 19250.7 3864 19250.7 3870.07 19250.7 3875 19255.6 3875 19261.7Z" stroke="#4472C4" stroke-width="3.4375" stroke-linejoin="round" stroke-miterlimit="10" fill="#4472C4"/><path d="M3879 19261.7C3879 19267.7 3874.07 19272.7 3868 19272.7 3861.92 19272.7 3857 19267.7 3857 19261.7 3857 19255.6 3861.92 19250.7 3868 19250.7 3874.07 19250.7 3879 19255.6 3879 19261.7Z" stroke="#4472C4" stroke-width="3.4375" stroke-linejoin="round" stroke-miterlimit="10" fill="#4472C4"/><path d="M3883 19429.7C3883 19435.7 3878.07 19440.7 3872 19440.7 3865.92 19440.7 3861 19435.7 3861 19429.7 3861 19423.6 3865.92 19418.7 3872 19418.7 3878.07 19418.7 3883 19423.6 3883 19429.7Z" stroke="#4472C4" stroke-width="3.4375" stroke-linejoin="round" stroke-miterlimit="10" fill="#4472C4"/><path d="M3887 19429.7C3887 19435.7 3882.07 19440.7 3876 19440.7 3869.92 19440.7 3865 19435.7 3865 19429.7 3865 19423.6 3869.92 19418.7 3876 19418.7 3882.07 19418.7 3887 19423.6 3887 19429.7Z" stroke="#4472C4" stroke-width="3.4375" stroke-linejoin="round" stroke-miterlimit="10" fill="#4472C4"/><path d="M3891 19261.7C3891 19267.7 3886.07 19272.7 3880 19272.7 3873.92 19272.7 3869 19267.7 3869 19261.7 3869 19255.6 3873.92 19250.7 3880 19250.7 3886.07 19250.7 3891 19255.6 3891 19261.7Z" stroke="#4472C4" stroke-width="3.4375" stroke-linejoin="round" stroke-miterlimit="10" fill="#4472C4"/><path d="M3895 19261.7C3895 19267.7 3890.07 19272.7 3884 19272.7 3877.92 19272.7 3873 19267.7 3873 19261.7 3873 19255.6 3877.92 19250.7 3884 19250.7 3890.07 19250.7 3895 19255.6 3895 19261.7Z" stroke="#4472C4" stroke-width="3.4375" stroke-linejoin="round" stroke-miterlimit="10" fill="#4472C4"/><path d="M3899 19429.7C3899 19435.7 3894.07 19440.7 3888 19440.7 3881.92 19440.7 3877 19435.7 3877 19429.7 3877 19423.6 3881.92 19418.7 3888 19418.7 3894.07 19418.7 3899 19423.6 3899 19429.7Z" stroke="#4472C4" stroke-width="3.4375" stroke-linejoin="round" stroke-miterlimit="10" fill="#4472C4"/><path d="M3904 19429.7C3904 19435.7 3899.07 19440.7 3893 19440.7 3886.92 19440.7 3882 19435.7 3882 19429.7 3882 19423.6 3886.92 19418.7 3893 19418.7 3899.07 19418.7 3904 19423.6 3904 19429.7Z" stroke="#4472C4" stroke-width="3.4375" stroke-linejoin="round" stroke-miterlimit="10" fill="#4472C4"/><path d="M3908 19428.7C3908 19434.7 3903.07 19439.7 3897 19439.7 3890.92 19439.7 3886 19434.7 3886 19428.7 3886 19422.6 3890.92 19417.7 3897 19417.7 3903.07 19417.7 3908 19422.6 3908 19428.7Z" stroke="#4472C4" stroke-width="3.4375" stroke-linejoin="round" stroke-miterlimit="10" fill="#4472C4"/><path d="M3912 19261.7C3912 19267.7 3907.07 19272.7 3901 19272.7 3894.92 19272.7 3890 19267.7 3890 19261.7 3890 19255.6 3894.92 19250.7 3901 19250.7 3907.07 19250.7 3912 19255.6 3912 19261.7Z" stroke="#4472C4" stroke-width="3.4375" stroke-linejoin="round" stroke-miterlimit="10" fill="#4472C4"/><path d="M3916 19428.7C3916 19434.7 3911.07 19439.7 3905 19439.7 3898.92 19439.7 3894 19434.7 3894 19428.7 3894 19422.6 3898.92 19417.7 3905 19417.7 3911.07 19417.7 3916 19422.6 3916 19428.7Z" stroke="#4472C4" stroke-width="3.4375" stroke-linejoin="round" stroke-miterlimit="10" fill="#4472C4"/><path d="M3920 19428.7C3920 19434.7 3915.07 19439.7 3909 19439.7 3902.92 19439.7 3898 19434.7 3898 19428.7 3898 19422.6 3902.92 19417.7 3909 19417.7 3915.07 19417.7 3920 19422.6 3920 19428.7Z" stroke="#4472C4" stroke-width="3.4375" stroke-linejoin="round" stroke-miterlimit="10" fill="#4472C4"/><path d="M3924 19386.7C3924 19392.7 3919.07 19397.7 3913 19397.7 3906.92 19397.7 3902 19392.7 3902 19386.7 3902 19380.6 3906.92 19375.7 3913 19375.7 3919.07 19375.7 3924 19380.6 3924 19386.7Z" stroke="#4472C4" stroke-width="3.4375" stroke-linejoin="round" stroke-miterlimit="10" fill="#4472C4"/><path d="M3928 19386.7C3928 19392.7 3923.07 19397.7 3917 19397.7 3910.92 19397.7 3906 19392.7 3906 19386.7 3906 19380.6 3910.92 19375.7 3917 19375.7 3923.07 19375.7 3928 19380.6 3928 19386.7Z" stroke="#4472C4" stroke-width="3.4375" stroke-linejoin="round" stroke-miterlimit="10" fill="#4472C4"/></g><g clip-path="url(#clip6)"><path d="M0 0 1233 34" stroke="#C00000" stroke-width="6.875" stroke-linecap="round" stroke-linejoin="round" stroke-miterlimit="10" stroke-dasharray="0 13.75" fill="none" fill-rule="evenodd" transform="matrix(1 0 0 -1 2683.5 19385.5)"/></g><g clip-path="url(#clip7)"><text fill="#595959" font-family="Calibri,Calibri_MSFontService,sans-serif" font-weight="400" font-size="41" transform="matrix(1 0 0 1 3520.22 19365)">y = 27.487x + 156945</text></g><g clip-path="url(#clip8)"><text fill="#595959" font-family="Calibri,Calibri_MSFontService,sans-serif" font-weight="400" font-size="41" transform="matrix(1 0 0 1 2623.98 20055)">0</text></g><g clip-path="url(#clip9)"><text fill="#595959" font-family="Calibri,Calibri_MSFontService,sans-serif" font-weight="400" font-size="41" transform="matrix(1 0 0 1 2540.38 19971)">20000</text></g><g clip-path="url(#clip10)"><text fill="#595959" font-family="Calibri,Calibri_MSFontService,sans-serif" font-weight="400" font-size="41" transform="matrix(1 0 0 1 2540.38 19887)">40000</text></g><g clip-path="url(#clip11)"><text fill="#595959" font-family="Calibri,Calibri_MSFontService,sans-serif" font-weight="400" font-size="41" transform="matrix(1 0 0 1 2540.38 19803)">60000</text></g><g clip-path="url(#clip12)"><text fill="#595959" font-family="Calibri,Calibri_MSFontService,sans-serif" font-weight="400" font-size="41" transform="matrix(1 0 0 1 2540.38 19720)">80000</text></g><g clip-path="url(#clip13)"><text fill="#595959" font-family="Calibri,Calibri_MSFontService,sans-serif" font-weight="400" font-size="41" transform="matrix(1 0 0 1 2519.48 19636)">100000</text></g><g clip-path="url(#clip14)"><text fill="#595959" font-family="Calibri,Calibri_MSFontService,sans-serif" font-weight="400" font-size="41" transform="matrix(1 0 0 1 2519.48 19552)">120000</text></g><g clip-path="url(#clip15)"><text fill="#595959" font-family="Calibri,Calibri_MSFontService,sans-serif" font-weight="400" font-size="41" transform="matrix(1 0 0 1 2519.48 19468)">140000</text></g><g clip-path="url(#clip16)"><text fill="#595959" font-family="Calibri,Calibri_MSFontService,sans-serif" font-weight="400" font-size="41" transform="matrix(1 0 0 1 2519.48 19384)">160000</text></g><g clip-path="url(#clip17)"><text fill="#595959" font-family="Calibri,Calibri_MSFontService,sans-serif" font-weight="400" font-size="41" transform="matrix(1 0 0 1 2519.48 19301)">180000</text></g><g clip-path="url(#clip18)"><text fill="#595959" font-family="Calibri,Calibri_MSFontService,sans-serif" font-weight="400" font-size="41" transform="matrix(1 0 0 1 2519.48 19217)">200000</text></g><g clip-path="url(#clip19)"><text fill="#595959" font-family="Calibri,Calibri_MSFontService,sans-serif" font-weight="400" font-size="41" transform="matrix(1 0 0 1 2672.7 20109)">0</text></g><g clip-path="url(#clip20)"><text fill="#595959" font-family="Calibri,Calibri_MSFontService,sans-serif" font-weight="400" font-size="41" transform="matrix(1 0 0 1 2867.84 20109)">50</text></g><g clip-path="url(#clip21)"><text fill="#595959" font-family="Calibri,Calibri_MSFontService,sans-serif" font-weight="400" font-size="41" transform="matrix(1 0 0 1 3062.98 20109)">100</text></g><g clip-path="url(#clip22)"><text fill="#595959" font-family="Calibri,Calibri_MSFontService,sans-serif" font-weight="400" font-size="41" transform="matrix(1 0 0 1 3268.58 20109)">150</text></g><g clip-path="url(#clip23)"><text fill="#595959" font-family="Calibri,Calibri_MSFontService,sans-serif" font-weight="400" font-size="41" transform="matrix(1 0 0 1 3474.17 20109)">200</text></g><g clip-path="url(#clip24)"><text fill="#595959" font-family="Calibri,Calibri_MSFontService,sans-serif" font-weight="400" font-size="41" transform="matrix(1 0 0 1 3679.76 20109)">250</text></g><g clip-path="url(#clip25)"><text fill="#595959" font-family="Calibri,Calibri_MSFontService,sans-serif" font-weight="400" font-size="41" transform="matrix(1 0 0 1 3885.35 20109)">300</text></g><g clip-path="url(#clip26)"><text fill="#595959" font-family="Calibri,Calibri_MSFontService,sans-serif" font-weight="400" font-size="41" transform="matrix(1 0 0 1 4090.95 20109)">350</text></g><g clip-path="url(#clip27)"><text fill="#595959" font-family="Calibri,Calibri_MSFontService,sans-serif" font-weight="400" font-size="46" transform="matrix(6.12323e-17 -1 1 6.12323e-17 2493.79 19811)">Current Best Fitness</text></g><g clip-path="url(#clip28)"><text fill="#595959" font-family="Calibri,Calibri_MSFontService,sans-serif" font-weight="400" font-size="46" transform="matrix(1 0 0 1 3297.39 20178)">Generation</text></g><g clip-path="url(#clip29)"><text fill="#595959" font-family="Calibri,Calibri_MSFontService,sans-serif" font-weight="400" font-size="64" transform="matrix(1 0 0 1 3006.48 19131)">Best Fitness (RED pop)</text></g><rect x="2392.5" y="19035.5" width="1812" height="1212" stroke="#D9D9D9" stroke-width="3.4375" stroke-linejoin="round" stroke-miterlimit="10" fill="none"/></g></svg>